<svg xmlns="http://www.w3.org/2000/svg" width="196" height="44.318" viewBox="0 0 196 44.318"><g transform="translate(98 22.159)"><g transform="translate(-98 -22.159)"><g transform="translate(145.833)"><path d="M190.484.337h-1.659V23.346h12.569V21.932H190.484Z" transform="translate(-188.826 -0.077)" fill="#fff"/><path d="M223.64,14.565a9.144,9.144,0,0,1-.48,3,7.045,7.045,0,0,1-1.39,2.414,6.359,6.359,0,0,1-2.22,1.6,7.289,7.289,0,0,1-2.968.578,7.2,7.2,0,0,1-2.967-.585,6.371,6.371,0,0,1-2.211-1.61,7.108,7.108,0,0,1-1.382-2.415,9.138,9.138,0,0,1-.48-3V.337h-1.675V14.565a10.281,10.281,0,0,0,.6,3.553A8.495,8.495,0,0,0,210.2,21a7.977,7.977,0,0,0,2.749,1.927,9.8,9.8,0,0,0,7.268,0A7.981,7.981,0,0,0,222.965,21a8.483,8.483,0,0,0,1.732-2.878,10.281,10.281,0,0,0,.6-3.553V.337H223.64Z" transform="translate(-193.161 -0.077)" fill="#fff"/><path d="M249.111,14.187a4.979,4.979,0,0,0-1.311-1.6,7.664,7.664,0,0,0-1.848-1.082q-1.033-.43-2.125-.789T241.7,9.992a8.514,8.514,0,0,1-1.848-.9,4.47,4.47,0,0,1-1.311-1.3,3.481,3.481,0,0,1-.5-1.935,4.442,4.442,0,0,1,.334-1.708,4.15,4.15,0,0,1,.979-1.431,4.626,4.626,0,0,1,1.6-.975,7.184,7.184,0,0,1,4.323-.049,7.188,7.188,0,0,1,1.428.675,7.05,7.05,0,0,1,.905.667.937.937,0,0,0,.547.3.458.458,0,0,0,.422-.276l.391-.748a7.709,7.709,0,0,0-2.6-1.74A8.612,8.612,0,0,0,243.161,0a7.633,7.633,0,0,0-2.841.5,6.328,6.328,0,0,0-2.093,1.318,5.547,5.547,0,0,0-1.287,1.894,5.835,5.835,0,0,0-.439,2.228A5.449,5.449,0,0,0,237,8.4a4.959,4.959,0,0,0,1.311,1.643,7.31,7.31,0,0,0,1.848,1.08q1.033.424,2.125.765t2.125.7a8.45,8.45,0,0,1,1.848.886,4.28,4.28,0,0,1,1.311,1.317,3.709,3.709,0,0,1,.5,2.009,5.64,5.64,0,0,1-.391,2.105,4.788,4.788,0,0,1-1.131,1.7,5.347,5.347,0,0,1-1.816,1.13,6.746,6.746,0,0,1-2.442.415,7.332,7.332,0,0,1-1.776-.2,7.461,7.461,0,0,1-1.384-.48,6.408,6.408,0,0,1-1.058-.618q-.456-.332-.782-.618c-.218-.19-.4-.35-.554-.48a.652.652,0,0,0-.375-.2.573.573,0,0,0-.456.244l-.455.715a9.227,9.227,0,0,0,2.878,2.2,8.816,8.816,0,0,0,3.919.806,8.378,8.378,0,0,0,3.122-.545,6.755,6.755,0,0,0,2.309-1.487,6.353,6.353,0,0,0,1.439-2.22,7.44,7.44,0,0,0,.5-2.724A5.083,5.083,0,0,0,249.111,14.187Z" transform="translate(-199.44 0)" fill="#fff"/></g><path d="M175.314,2.109Q173.256.337,169.208.337h-5.935V1.655h5.935a7.209,7.209,0,0,1,4.87,1.43,5.135,5.135,0,0,1,1.634,4.082,5.449,5.449,0,0,1-.447,2.22,5.1,5.1,0,0,1-1.285,1.764,6.008,6.008,0,0,1-2.04,1.171,8.213,8.213,0,0,1-2.732.423h-4.276V4.387h-1.659v8.359h-7.2v1.327h7.2v9.274h1.659V14.077h4.276a10.612,10.612,0,0,0,3.414-.512,7.549,7.549,0,0,0,2.569-1.431,6.176,6.176,0,0,0,1.618-2.187,6.8,6.8,0,0,0,.561-2.78A6.312,6.312,0,0,0,175.314,2.109Z" transform="translate(-35.535 -0.077)" fill="#fff"/><path d="M30.22,29.6c-1.013.235-1.5.74-1.4,1.588.122.921.83,1.091,1.877.985,1.346-.139,4.17.086,4.17,2.822v.432a5.205,5.205,0,0,0-3.325-1.006c-4.382,0-5.456,2.939-5.421,5.643.049,3.142,1.667,5.412,5.928,5.412.053,0,5.388.053,5.449-5.153v-5.6C37.5,29.767,32.475,29.061,30.22,29.6Zm4.662,11.1a2.584,2.584,0,0,1-2.871,2.487,2.947,2.947,0,0,1-3.278-3.178c-.012-1.254.118-3.194,2.929-3.194,2.217,0,3.179,1.206,3.221,2.314Z" transform="translate(-5.947 -6.705)" fill="#212121"/><path d="M126.967,29.449c-4.21,0-6.105,4.186-6.105,8.045,0,4.873,2.4,8.014,6.172,8.014a4.379,4.379,0,0,0,3.35-1.437v.3c0,2.958-1.553,4.165-3.187,4.076-1.043-.034-1.762.06-1.882.984-.078.608.12,1.593,2.422,1.593,2.274,0,5.3-2.241,5.3-6.9V36.385C133.034,31.476,130.011,29.449,126.967,29.449Zm3.438,9.517c0,1.866-1.262,3.891-3.371,3.891-2.508,0-3.373-2.943-3.373-5.373s.864-5.386,3.373-5.386c2.343,0,3.371,2.3,3.371,3.919Z" transform="translate(-27.519 -6.705)" fill="#212121"/><path d="M113.555,21.2c-.826,0-1.321.654-1.321,1.741v6.071a4.437,4.437,0,0,0-3.381-1.445c-3.775,0-6.209,3.149-6.209,8.022,0,3.862,1.928,8.037,6.122,8.037,3.051,0,6.113-2.027,6.113-6.928V22.946C114.88,21.859,114.386,21.2,113.555,21.2Zm-1.292,15.873c0,1.613-1.069,3.914-3.41,3.914-2.515,0-3.413-2.956-3.413-5.4,0-2.427.9-5.365,3.413-5.365,2.1,0,3.41,2.02,3.41,3.886Z" transform="translate(-23.371 -4.828)" fill="#212121"/><path d="M90.757,29.449c-4.233,0-6.165,4.155-6.165,8.022,0,4.867,2.394,8.019,6.165,8.019s6.154-3.152,6.154-8.019C96.911,33.6,94.992,29.449,90.757,29.449ZM90.69,42.836c-2.519,0-3.408-2.943-3.408-5.364,0-1.967.716-5.368,3.408-5.368s3.4,3.4,3.4,5.368C94.088,39.893,93.2,42.836,90.69,42.836Z" transform="translate(-19.26 -6.705)" fill="#212121"/><path d="M13.881,21.208H1.616C.572,21.208,0,21.559,0,22.419s.572,1.208,1.616,1.208h4.8V41.876a2.664,2.664,0,0,0,.079.675,1.241,1.241,0,0,0,1.24,1.066A1.257,1.257,0,0,0,9,42.53a2.818,2.818,0,0,0,.073-.654V23.627h4.809c1.029,0,1.608-.343,1.608-1.208s-.578-1.211-1.608-1.211" transform="translate(0 -4.829)" fill="#212121"/><path d="M22.09,29.449c-5.436,0-5.854,2.62-5.854,6.681v7.622a2.484,2.484,0,0,0,.084.654,1.262,1.262,0,0,0,2.5,0,2.572,2.572,0,0,0,.073-.654v-7.61c0-2.42-.183-4.641,4.034-4.038,1.019.2,1.711.008,1.867-.831.256-1.339-1.3-1.823-2.7-1.823" transform="translate(-3.697 -6.705)" fill="#212121"/><path d="M79.247,36.459c0-2.719,0-11.178,0-13.512,0-1.087-.49-1.738-1.325-1.738S76.6,21.86,76.6,22.946c0,0,0,11.53,0,13.1.017,2.773.181,4.893,1.455,6.241a4.373,4.373,0,0,0,3.6,1.325c1.038,0,1.744-.432,1.744-1.181,0-.812-.585-1.317-1.609-1.375-2.476-.154-2.534-1.751-2.538-4.6" transform="translate(-17.44 -4.829)" fill="#212121"/><path d="M48.16,45.5c.914,0,1.163-.414,1.642-1.791L53.722,31.71c.4-1.006.213-1.8-.553-2.136s-1.4.081-1.8,1.081l-3.119,9.585-3.2-9.585c-.4-1-1.1-1.419-1.871-1.081S42.2,30.7,42.6,31.71L46.513,43.7c.433,1.325.734,1.791,1.647,1.791" transform="translate(-9.654 -6.707)" fill="#212121"/><path d="M145.207,29.432c-4.072,0-6.216,4.039-6.216,8.023,0,3.146,1.25,6.9,4.782,7.8a7.618,7.618,0,0,0,3.791-.013c1-.312,1.453-.778,1.3-1.62-.183-.911-.9-1.032-1.942-.849a4.222,4.222,0,0,1-5.084-4l.015-.066h7.611c1.306,0,1.9-.6,1.9-1.681C151.361,33.326,149.434,29.432,145.207,29.432Zm3.309,6.885h-6.684c.2-2.159,1.371-4.3,3.356-4.3s3.137,2.145,3.343,4.3Z" transform="translate(-31.646 -6.701)" fill="#212121"/><path d="M64.382,29.432c-4.075,0-6.206,4.039-6.206,8.023,0,3.146,1.234,6.9,4.778,7.8a7.611,7.611,0,0,0,3.789-.013c1-.312,1.45-.778,1.292-1.62-.175-.909-.9-1.032-1.931-.849a4.235,4.235,0,0,1-5.1-4l.024-.066h7.617c1.305,0,1.888-.6,1.888-1.681C70.533,33.324,68.614,29.432,64.382,29.432Zm3.309,6.885H61c.209-2.159,1.375-4.3,3.355-4.3s3.147,2.145,3.351,4.3Z" transform="translate(-13.246 -6.701)" fill="#212121"/></g></g></svg>