<svg xmlns="http://www.w3.org/2000/svg" width="146.777" height="44.893" viewBox="0 0 146.777 44.893"><g transform="translate(173.081 52.939)"><g transform="translate(-173.081 -52.939)"><path d="M24.518,80.957a3.389,3.389,0,0,0-1.115.2,2.466,2.466,0,0,0-.848.424l-.424.335v.933l.6-.509a2.869,2.869,0,0,1,1.7-.678,2.476,2.476,0,0,1,1.832.767,2.569,2.569,0,0,1,.755,1.874,2.481,2.481,0,0,1-.708,1.836,2.646,2.646,0,0,1-1.929.729,2.159,2.159,0,0,1-1.738-.848,2.993,2.993,0,0,1-.7-1.972V77.938h-.8V84.12a3.472,3.472,0,0,0,.958,2.489,3.138,3.138,0,0,0,2.37,1,3.315,3.315,0,0,0,2.4-.963,3.129,3.129,0,0,0,1-2.336,3.337,3.337,0,0,0-3.316-3.358h-.03Z" transform="translate(-12.175 -44.891)" fill="#fcfcfc"/><path d="M41.781,85.057a3.234,3.234,0,0,0-2.315.933,3.066,3.066,0,0,0-.967,2.273,3.463,3.463,0,0,0,.946,2.425,3.065,3.065,0,0,0,2.341,1.026,3.155,3.155,0,0,0,1.022-.157,3.075,3.075,0,0,0,.848-.424l.471-.36V89.8l-.551.509a2.525,2.525,0,0,1-.81.517,2.764,2.764,0,0,1-.941.148,2.357,2.357,0,0,1-1.785-.751,2.582,2.582,0,0,1-.712-1.827,2.633,2.633,0,0,1,.729-1.853,2.339,2.339,0,0,1,1.76-.776,2.276,2.276,0,0,1,1.84.823,3.363,3.363,0,0,1,.691,2.213v2.752h.8V88.538a3.392,3.392,0,0,0-.967-2.493A3.26,3.26,0,0,0,41.781,85.057Z" transform="translate(-22.175 -48.992)" fill="#fcfcfc"/><path d="M59.838,85.056a2.66,2.66,0,0,0-1.272.276,2.272,2.272,0,0,0-.725.623v-.9h-.8v6.5h.8V88.113A3.006,3.006,0,0,1,58,87.2a1.972,1.972,0,0,1,.632-.988,2.075,2.075,0,0,1,.538-.305,1.685,1.685,0,0,1,.56-.089h.242a1.493,1.493,0,0,1,.233.034l.11.025V85.12l-.263-.042A1.611,1.611,0,0,0,59.838,85.056Z" transform="translate(-32.854 -48.99)" fill="#fcfcfc"/><path d="M80.675,77.938,80.65,89.785h.806L81.43,77.938Z" transform="translate(-46.453 -44.891)" fill="#fcfcfc"/><path d="M103.643,83.319c.114-.14.242-.314.386-.526l.339-.534.848-1.3h-.907l-1.064,1.582c-.11.165-.191.284-.246.352a1.807,1.807,0,0,1-.479.471,1.611,1.611,0,0,1-.848.233h-.691V77.938h-.78v9.515h.78V84.341h1.675a1.6,1.6,0,0,1,1.069.39,1.217,1.217,0,0,1,.449.963v1.76h.8V85.791a2.494,2.494,0,0,0-.136-.784,1.841,1.841,0,0,0-.424-.7,2.069,2.069,0,0,0-.606-.424,1.922,1.922,0,0,0-.5-.161c.038-.042.081-.089.123-.144Z" transform="translate(-57.714 -44.891)" fill="#fcfcfc"/><rect width="0.827" height="6.496" transform="translate(49.092 36.065)" fill="#fcfcfc"/><path d="M124.41,88.371a.849.849,0,0,1-.373-.246,1.318,1.318,0,0,1-.259-.424,1.578,1.578,0,0,1-.072-.526V83.414h2.239v-.721h-2.239V80.938h-.827V86.59a5.193,5.193,0,0,0,.085,1.022,1.784,1.784,0,0,0,.5,1.026,1.8,1.8,0,0,0,.623.424,1.832,1.832,0,0,0,.64.131H126v-.721h-1A1.7,1.7,0,0,1,124.41,88.371Z" transform="translate(-70.776 -46.619)" fill="#fcfcfc"/><path d="M133.1,90.085a2.545,2.545,0,0,1-.712-1.8,2.386,2.386,0,0,1,.738-1.827,2.967,2.967,0,0,1,2.086-.683h.666v-.721h-.848a3.35,3.35,0,0,0-2.544,1.069,3.222,3.222,0,0,0,.072,4.537,2.905,2.905,0,0,0,2.078.89h1.314v-.721H134.9A2.346,2.346,0,0,1,133.1,90.085Z" transform="translate(-75.795 -48.991)" fill="#fcfcfc"/><path d="M148.723,80.91a2.735,2.735,0,0,0-1.111.254,2.165,2.165,0,0,0-.746.492l-.225.25V77.938h-.8v9.515h.848V83.815a2.09,2.09,0,0,1,.585-1.505,2.014,2.014,0,0,1,1.505-.611,1.573,1.573,0,0,1,1.234.509,2.155,2.155,0,0,1,.458,1.48v3.765h.848V83.535a2.544,2.544,0,0,0-.755-1.853A2.483,2.483,0,0,0,148.723,80.91Z" transform="translate(-84.002 -44.891)" fill="#fcfcfc"/><path d="M167.455,88.3a2.366,2.366,0,0,1-.725,1.751,2.544,2.544,0,0,1-3.6-.055,2.616,2.616,0,0,1-.038-3.638,2.319,2.319,0,0,1,1.73-.751,2.421,2.421,0,0,1,1.878.806l-3.918,2.612.424.572,4.571-3.061-.042-.072a3.132,3.132,0,0,0-1.153-1.115,3.423,3.423,0,0,0-1.73-.462,3.132,3.132,0,0,0-2.294.975,3.2,3.2,0,0,0-.962,2.319,3.239,3.239,0,0,0,.975,2.379,3.193,3.193,0,0,0,2.341.975,3.287,3.287,0,0,0,2.341-.937,3.057,3.057,0,0,0,.992-2.3v-.089h-.806Z" transform="translate(-93.079 -48.894)" fill="#fcfcfc"/><path d="M182.7,85.057a2.645,2.645,0,0,0-2.719,2.571c0,.059,0,.118,0,.177v3.748h.806V87.664a1.794,1.794,0,0,1,.555-1.353,1.887,1.887,0,0,1,1.357-.534,1.793,1.793,0,0,1,1.34.538,2.272,2.272,0,0,1,.585,1.658v3.579h.806V88.114a3.193,3.193,0,0,0-.767-2.192A2.544,2.544,0,0,0,182.7,85.057Z" transform="translate(-103.664 -48.991)" fill="#fcfcfc"/><path d="M210.365,77.938l-.025,11.847h.806l-.025-11.847Z" transform="translate(-121.153 -44.891)" fill="#fcfcfc"/><path d="M231.672,88.371a.818.818,0,0,1-.369-.246,1.332,1.332,0,0,1-.263-.424,1.7,1.7,0,0,1-.072-.526V83.414h2.239v-.721h-2.239V80.938h-.848V86.59a5.542,5.542,0,0,0,.085,1.022,1.812,1.812,0,0,0,.5,1.026,1.891,1.891,0,0,0,1.272.534h1.272v-.721h-1A1.7,1.7,0,0,1,231.672,88.371Z" transform="translate(-132.546 -46.619)" fill="#fcfcfc"/><path d="M245.069,88.3a2.37,2.37,0,0,1-.729,1.751,2.43,2.43,0,0,1-1.768.717A2.461,2.461,0,0,1,240.749,90a2.607,2.607,0,0,1-.038-3.638,2.315,2.315,0,0,1,1.726-.751,2.429,2.429,0,0,1,1.883.806L240.4,89.026l.424.572,4.571-3.061-.047-.072A3.117,3.117,0,0,0,244.2,85.35a3.432,3.432,0,0,0-1.73-.462,3.141,3.141,0,0,0-2.3.975,3.219,3.219,0,0,0-.962,2.319,3.253,3.253,0,0,0,.975,2.379,3.211,3.211,0,0,0,2.345.975,3.287,3.287,0,0,0,2.341-.937,3.054,3.054,0,0,0,.988-2.3v-.089h-.8Z" transform="translate(-137.781 -48.894)" fill="#fcfcfc"/><path d="M261.123,85.057a2.641,2.641,0,0,0-1.247.276,2.234,2.234,0,0,0-.725.623v-.9h-.8v6.5h.8V88.114a3.005,3.005,0,0,1,.161-.916,2,2,0,0,1,.628-.988,2.16,2.16,0,0,1,.543-.305,1.685,1.685,0,0,1,.56-.089h.242a1.5,1.5,0,0,1,.233.034l.11.025V85.12l-.267-.042A1.536,1.536,0,0,0,261.123,85.057Z" transform="translate(-148.806 -48.991)" fill="#fcfcfc"/><path d="M271.723,85.057a2.641,2.641,0,0,0-1.247.276,2.272,2.272,0,0,0-.725.623v-.9h-.8v6.5h.8V88.114a3.007,3.007,0,0,1,.161-.916,2,2,0,0,1,.628-.988,2.159,2.159,0,0,1,.543-.305,1.685,1.685,0,0,1,.56-.089h.242a1.494,1.494,0,0,1,.233.034l.11.025V85.12l-.267-.042A1.536,1.536,0,0,0,271.723,85.057Z" transform="translate(-154.912 -48.991)" fill="#fcfcfc"/><path d="M280.861,85.057a3.234,3.234,0,0,0-2.315.933,3.066,3.066,0,0,0-.967,2.273,3.463,3.463,0,0,0,.946,2.425,3.065,3.065,0,0,0,2.341,1.026,3.155,3.155,0,0,0,1.022-.157,3.075,3.075,0,0,0,.848-.424l.471-.36V89.8l-.551.509a2.525,2.525,0,0,1-.81.517,2.764,2.764,0,0,1-.941.148,2.357,2.357,0,0,1-1.785-.751,2.582,2.582,0,0,1-.712-1.827,2.633,2.633,0,0,1,.729-1.853,2.339,2.339,0,0,1,1.76-.776,2.276,2.276,0,0,1,1.84.823,3.363,3.363,0,0,1,.691,2.213v2.752h.8V88.538a3.392,3.392,0,0,0-.967-2.493A3.26,3.26,0,0,0,280.861,85.057Z" transform="translate(-159.882 -48.992)" fill="#fcfcfc"/><path d="M297.724,90.085a2.545,2.545,0,0,1-.712-1.8,2.387,2.387,0,0,1,.738-1.827,2.967,2.967,0,0,1,2.086-.683h.666v-.721h-.848a3.35,3.35,0,0,0-2.544,1.069,3.222,3.222,0,0,0,.072,4.537,2.9,2.9,0,0,0,2.078.89h1.314v-.721h-1.056A2.346,2.346,0,0,1,297.724,90.085Z" transform="translate(-170.614 -48.991)" fill="#fcfcfc"/><path d="M315.165,88.3a2.366,2.366,0,0,1-.725,1.751,2.544,2.544,0,0,1-3.6-.055,2.616,2.616,0,0,1-.038-3.638,2.319,2.319,0,0,1,1.73-.751,2.438,2.438,0,0,1,1.883.806L310.5,89.026l.424.572,4.571-3.061-.042-.072A3.132,3.132,0,0,0,314.3,85.35a3.423,3.423,0,0,0-1.73-.462,3.142,3.142,0,0,0-2.294.975,3.2,3.2,0,0,0-.962,2.319,3.24,3.24,0,0,0,.988,2.379,3.193,3.193,0,0,0,2.341.975,3.3,3.3,0,0,0,2.345-.937,3.07,3.07,0,0,0,.988-2.3v-.089h-.806Z" transform="translate(-178.158 -48.894)" fill="#fcfcfc"/><path d="M115.546,80.17a.5.5,0,0,0-.157.386.488.488,0,0,0,.153.377.521.521,0,0,0,.36.136.508.508,0,0,0,.365-.144.492.492,0,0,0,.161-.382.473.473,0,0,0-.153-.377A.556.556,0,0,0,115.546,80.17Z" transform="translate(-66.463 -46.097)" fill="#fcfcfc"/><path d="M29.727,2.467A8.856,8.856,0,0,0,23.465,0a8.336,8.336,0,0,0-4.6,1.446A9.04,9.04,0,0,0,16.04,4.29a8.865,8.865,0,0,0-2.862-2.815A8.73,8.73,0,0,0,8.442,0,8.441,8.441,0,0,0,2.417,2.3,8.229,8.229,0,0,0,0,8.535V24.181H2.544V8.594A6.051,6.051,0,0,1,4.283,4.163,5.856,5.856,0,0,1,8.595,2.416a5.456,5.456,0,0,1,4.482,2.065,8.382,8.382,0,0,1,1.662,5.36V24.2h2.7V8.959a6.783,6.783,0,0,1,1.721-4.63,5.511,5.511,0,0,1,4.287-1.933,5.711,5.711,0,0,1,4.592,2.044A8.389,8.389,0,0,1,29.761,9.98v14.2h2.565V8.492A8.009,8.009,0,0,0,29.727,2.467Z" transform="translate(0 0)" fill="#fff"/><path d="M96.58.007a12.194,12.194,0,0,0-8.786,3.587,11.7,11.7,0,0,0-3.676,8.654,11.907,11.907,0,0,0,3.566,8.646A11.72,11.72,0,0,0,96.318,24.5a12.348,12.348,0,0,0,8.713-3.473,11.151,11.151,0,0,0,3.7-8.412,12.44,12.44,0,0,0-3.562-8.849A11.474,11.474,0,0,0,96.58.007ZM96.4,2.53A9.252,9.252,0,0,1,103.216,5.4a9.5,9.5,0,0,1,2.82,6.873,9.388,9.388,0,0,1-2.968,6.937A9.838,9.838,0,0,1,96.012,22.1a8.565,8.565,0,0,1-6.526-2.9,9.816,9.816,0,0,1-2.671-6.856,9.65,9.65,0,0,1,2.8-6.937A9.116,9.116,0,0,1,96.4,2.53Z" transform="translate(-48.451 -0.003)" fill="#fff"/><path d="M164.536,22.711a5.258,5.258,0,0,0,2.01-4.189,6.3,6.3,0,0,0-1.73-4.554,10.543,10.543,0,0,0-5.3-2.574l-3.625-.848a10.944,10.944,0,0,1-3.651-1.391,3.225,3.225,0,0,1-1.7-2.777,3.877,3.877,0,0,1,.127-.929,3.448,3.448,0,0,1,1.344-2.023,4,4,0,0,1,2.37-.721h10.477V.327h-10.6a6.407,6.407,0,0,0-4.427,1.7,5.41,5.41,0,0,0-1.891,4.138,5.606,5.606,0,0,0,1.7,4.338,11.151,11.151,0,0,0,4.952,2.256l2.544.619a32.261,32.261,0,0,1,3.524,1.056c2.052.848,3.176,2.014,3.345,3.511v.424a3.032,3.032,0,0,1-1.637,2.769,6.716,6.716,0,0,1-3.447.814H147.94v2.391h11.932A7.111,7.111,0,0,0,164.536,22.711Z" transform="translate(-85.212 -0.188)" fill="#fff"/><path d="M214.576,13.968a10.543,10.543,0,0,0-5.3-2.574l-3.625-.848A10.944,10.944,0,0,1,202,9.155a3.225,3.225,0,0,1-1.7-2.777,3.878,3.878,0,0,1,.127-.929,3.448,3.448,0,0,1,1.344-2.023,4,4,0,0,1,2.37-.721h10.494V.327h-10.6a6.407,6.407,0,0,0-4.427,1.7,5.41,5.41,0,0,0-1.891,4.138,5.606,5.606,0,0,0,1.7,4.338,11.174,11.174,0,0,0,4.952,2.256l2.523.619a32.206,32.206,0,0,1,3.507,1.064c2.052.848,3.176,2.014,3.345,3.511v.424a3.032,3.032,0,0,1-1.649,2.79,6.716,6.716,0,0,1-3.447.814H197.7v2.391h11.932a7.11,7.11,0,0,0,4.664-1.658,5.258,5.258,0,0,0,2.01-4.189A6.3,6.3,0,0,0,214.576,13.968Z" transform="translate(-113.873 -0.188)" fill="#fff"/><path d="M263.1,24.369V21.978h-3.816a8.974,8.974,0,0,1-6.742-2.845,9.613,9.613,0,0,1-2.692-6.852,9.06,9.06,0,0,1,2.815-6.958c1.87-1.73,4.537-2.608,7.921-2.608h2.345V.328h-3.049a12.436,12.436,0,0,0-9.5,3.952,11.719,11.719,0,0,0-3.316,8.222,11.584,11.584,0,0,0,3.579,8.578,10.758,10.758,0,0,0,7.683,3.286Z" transform="translate(-142.307 -0.189)" fill="#60aaa9"/><path d="M309.155,3.755A11.472,11.472,0,0,0,300.565.007a12.194,12.194,0,0,0-8.785,3.587,11.69,11.69,0,0,0-3.68,8.654,11.906,11.906,0,0,0,3.566,8.646A11.733,11.733,0,0,0,300.3,24.5a12.357,12.357,0,0,0,8.718-3.473,11.169,11.169,0,0,0,3.7-8.412A12.458,12.458,0,0,0,309.155,3.755ZM300.387,2.53A9.238,9.238,0,0,1,307.2,5.4a9.489,9.489,0,0,1,2.824,6.873,9.388,9.388,0,0,1-2.968,6.937,9.842,9.842,0,0,1-7.06,2.892,8.564,8.564,0,0,1-6.521-2.9,9.816,9.816,0,0,1-2.671-6.856A9.664,9.664,0,0,1,293.6,5.4,9.13,9.13,0,0,1,300.387,2.53Z" transform="translate(-165.941 -0.003)" fill="#60aaa9"/></g></g></svg>