<?xml version="1.0" encoding="utf-8"?>
<!-- Generator: Adobe Illustrator 27.2.0, SVG Export Plug-In . SVG Version: 6.00 Build 0)  -->
<svg version="1.1" id="Layer_2_00000041986298017375082700000001549321373623819650_"
	 xmlns="http://www.w3.org/2000/svg" xmlns:xlink="http://www.w3.org/1999/xlink" x="0px" y="0px" viewBox="0 0 971 1145"
	 style="enable-background:new 0 0 971 1145;" xml:space="preserve">
<style type="text/css">
	.st0{fill:#60AAA9;stroke:#0C0C0C;stroke-width:14;stroke-miterlimit:10;}
	.st1{fill:#0C0C0C;}
	.st2{fill:#60AAA9;stroke:#0C0C0C;stroke-width:18;stroke-miterlimit:10;}
	.st3{fill:#FFFFFF;}
	.st4{fill:#212121;}
	.st5{fill:#EE2C24;}
</style>
<path class="st0" d="M485,454c0,0-158.7-6.3-174.8,174.8c0,0,14.4,124.2,169.6,303.2c0,0,162.2-155,183.2-309
	C663,623,669,466,485,454z M439.8,620.2c0.1-0.8,0.3-1.6,0.5-2.4c0.4-1.5,0.8-3.1,1.3-4.5c0.3-0.7,0.5-1.5,0.8-2.2s0.6-1.4,0.9-2.2
	s0.7-1.4,1-2.1c0.4-0.7,0.7-1.4,1.1-2c0.2-0.3,0.4-0.7,0.6-1c0.4-0.7,0.8-1.3,1.2-1.9c8.6-12.8,23.2-21.2,39.8-21.2
	s31.2,8.4,39.8,21.2c0.4,0.6,0.9,1.3,1.2,1.9c0.2,0.3,0.4,0.7,0.6,1c0.4,0.7,0.8,1.4,1.1,2s0.7,1.4,1,2.1s0.6,1.4,0.9,2.2
	c0.3,0.7,0.6,1.5,0.8,2.2c0.5,1.5,0.9,3,1.3,4.5c0.2,0.8,0.3,1.6,0.5,2.4c0.5,2.8,0.8,5.6,0.8,8.5s-0.3,5.7-0.8,8.5
	c-0.1,0.8-0.3,1.6-0.5,2.4c-0.4,1.5-0.8,3.1-1.3,4.5c-0.2,0.7-0.5,1.5-0.8,2.2s-0.6,1.4-0.9,2.2s-0.7,1.4-1,2.1s-0.7,1.4-1.1,2
	c-0.2,0.3-0.4,0.7-0.6,1c-0.4,0.7-0.8,1.3-1.2,1.9c-8.6,12.8-23.2,21.2-39.8,21.2s-31.2-8.4-39.8-21.2c-0.4-0.6-0.9-1.3-1.2-1.9
	c-0.2-0.3-0.4-0.7-0.6-1c-0.4-0.7-0.8-1.4-1.1-2c-0.3-0.7-0.7-1.4-1-2.1s-0.6-1.4-0.9-2.2c-0.3-0.7-0.5-1.5-0.8-2.2
	c-0.5-1.5-0.9-3-1.3-4.5c-0.2-0.8-0.3-1.6-0.5-2.4c-0.5-2.8-0.8-5.6-0.8-8.5S439.3,622.9,439.8,620.2z"/>
<g id="Layer_2-2">
	<g id="Layer_1-2">
		<path class="st1" d="M487,548.7c-44.2,0-80,35.8-80,80s35.8,80,80,80s80-35.8,80-80S531.2,548.7,487,548.7z M534.2,637.2
			c-0.1,0.8-0.3,1.6-0.5,2.4c-0.4,1.5-0.8,3.1-1.3,4.5c-0.2,0.7-0.5,1.5-0.8,2.2s-0.6,1.4-0.9,2.2s-0.7,1.4-1,2.1s-0.7,1.4-1.1,2
			c-0.2,0.3-0.4,0.7-0.6,1c-0.4,0.7-0.8,1.3-1.2,1.9c-8.6,12.8-23.2,21.2-39.8,21.2s-31.2-8.4-39.8-21.2c-0.4-0.6-0.9-1.3-1.2-1.9
			c-0.2-0.3-0.4-0.7-0.6-1c-0.4-0.7-0.8-1.4-1.1-2c-0.3-0.7-0.7-1.4-1-2.1s-0.6-1.4-0.9-2.2c-0.3-0.7-0.5-1.5-0.8-2.2
			c-0.5-1.5-0.9-3-1.3-4.5c-0.2-0.8-0.3-1.6-0.5-2.4c-0.5-2.8-0.8-5.6-0.8-8.5s0.3-5.7,0.8-8.5c0.1-0.8,0.3-1.6,0.5-2.4
			c0.4-1.5,0.8-3.1,1.3-4.5c0.3-0.7,0.5-1.5,0.8-2.2s0.6-1.4,0.9-2.2s0.7-1.4,1-2.1c0.4-0.7,0.7-1.4,1.1-2c0.2-0.3,0.4-0.7,0.6-1
			c0.4-0.7,0.8-1.3,1.2-1.9c8.6-12.8,23.2-21.2,39.8-21.2s31.2,8.4,39.8,21.2c0.4,0.6,0.9,1.3,1.2,1.9c0.2,0.3,0.4,0.7,0.6,1
			c0.4,0.7,0.8,1.4,1.1,2s0.7,1.4,1,2.1s0.6,1.4,0.9,2.2c0.3,0.7,0.6,1.5,0.8,2.2c0.5,1.5,0.9,3,1.3,4.5c0.2,0.8,0.3,1.6,0.5,2.4
			c0.5,2.8,0.8,5.6,0.8,8.5S534.7,634.4,534.2,637.2z M487,548.7c-44.2,0-80,35.8-80,80s35.8,80,80,80s80-35.8,80-80
			S531.2,548.7,487,548.7z M534.2,637.2c-0.1,0.8-0.3,1.6-0.5,2.4c-0.4,1.5-0.8,3.1-1.3,4.5c-0.2,0.7-0.5,1.5-0.8,2.2
			s-0.6,1.4-0.9,2.2s-0.7,1.4-1,2.1s-0.7,1.4-1.1,2c-0.2,0.3-0.4,0.7-0.6,1c-0.4,0.7-0.8,1.3-1.2,1.9c-8.6,12.8-23.2,21.2-39.8,21.2
			s-31.2-8.4-39.8-21.2c-0.4-0.6-0.9-1.3-1.2-1.9c-0.2-0.3-0.4-0.7-0.6-1c-0.4-0.7-0.8-1.4-1.1-2c-0.3-0.7-0.7-1.4-1-2.1
			s-0.6-1.4-0.9-2.2c-0.3-0.7-0.5-1.5-0.8-2.2c-0.5-1.5-0.9-3-1.3-4.5c-0.2-0.8-0.3-1.6-0.5-2.4c-0.5-2.8-0.8-5.6-0.8-8.5
			s0.3-5.7,0.8-8.5c0.1-0.8,0.3-1.6,0.5-2.4c0.4-1.5,0.8-3.1,1.3-4.5c0.3-0.7,0.5-1.5,0.8-2.2s0.6-1.4,0.9-2.2s0.7-1.4,1-2.1
			c0.4-0.7,0.7-1.4,1.1-2c0.2-0.3,0.4-0.7,0.6-1c0.4-0.7,0.8-1.3,1.2-1.9c8.6-12.8,23.2-21.2,39.8-21.2s31.2,8.4,39.8,21.2
			c0.4,0.6,0.9,1.3,1.2,1.9c0.2,0.3,0.4,0.7,0.6,1c0.4,0.7,0.8,1.4,1.1,2s0.7,1.4,1,2.1s0.6,1.4,0.9,2.2c0.3,0.7,0.6,1.5,0.8,2.2
			c0.5,1.5,0.9,3,1.3,4.5c0.2,0.8,0.3,1.6,0.5,2.4c0.5,2.8,0.8,5.6,0.8,8.5S534.7,634.4,534.2,637.2z M487,548.7
			c-44.2,0-80,35.8-80,80s35.8,80,80,80s80-35.8,80-80S531.2,548.7,487,548.7z M534.2,637.2c-0.1,0.8-0.3,1.6-0.5,2.4
			c-0.4,1.5-0.8,3.1-1.3,4.5c-0.2,0.7-0.5,1.5-0.8,2.2s-0.6,1.4-0.9,2.2s-0.7,1.4-1,2.1s-0.7,1.4-1.1,2c-0.2,0.3-0.4,0.7-0.6,1
			c-0.4,0.7-0.8,1.3-1.2,1.9c-8.6,12.8-23.2,21.2-39.8,21.2s-31.2-8.4-39.8-21.2c-0.4-0.6-0.9-1.3-1.2-1.9c-0.2-0.3-0.4-0.7-0.6-1
			c-0.4-0.7-0.8-1.4-1.1-2c-0.3-0.7-0.7-1.4-1-2.1s-0.6-1.4-0.9-2.2c-0.3-0.7-0.5-1.5-0.8-2.2c-0.5-1.5-0.9-3-1.3-4.5
			c-0.2-0.8-0.3-1.6-0.5-2.4c-0.5-2.8-0.8-5.6-0.8-8.5s0.3-5.7,0.8-8.5c0.1-0.8,0.3-1.6,0.5-2.4c0.4-1.5,0.8-3.1,1.3-4.5
			c0.3-0.7,0.5-1.5,0.8-2.2s0.6-1.4,0.9-2.2s0.7-1.4,1-2.1c0.4-0.7,0.7-1.4,1.1-2c0.2-0.3,0.4-0.7,0.6-1c0.4-0.7,0.8-1.3,1.2-1.9
			c8.6-12.8,23.2-21.2,39.8-21.2s31.2,8.4,39.8,21.2c0.4,0.6,0.9,1.3,1.2,1.9c0.2,0.3,0.4,0.7,0.6,1c0.4,0.7,0.8,1.4,1.1,2
			s0.7,1.4,1,2.1s0.6,1.4,0.9,2.2c0.3,0.7,0.6,1.5,0.8,2.2c0.5,1.5,0.9,3,1.3,4.5c0.2,0.8,0.3,1.6,0.5,2.4c0.5,2.8,0.8,5.6,0.8,8.5
			S534.7,634.4,534.2,637.2z M487,548.7c-44.2,0-80,35.8-80,80s35.8,80,80,80s80-35.8,80-80S531.2,548.7,487,548.7z M534.2,637.2
			c-0.1,0.8-0.3,1.6-0.5,2.4c-0.4,1.5-0.8,3.1-1.3,4.5c-0.2,0.7-0.5,1.5-0.8,2.2s-0.6,1.4-0.9,2.2s-0.7,1.4-1,2.1s-0.7,1.4-1.1,2
			c-0.2,0.3-0.4,0.7-0.6,1c-0.4,0.7-0.8,1.3-1.2,1.9c-8.6,12.8-23.2,21.2-39.8,21.2s-31.2-8.4-39.8-21.2c-0.4-0.6-0.9-1.3-1.2-1.9
			c-0.2-0.3-0.4-0.7-0.6-1c-0.4-0.7-0.8-1.4-1.1-2c-0.3-0.7-0.7-1.4-1-2.1s-0.6-1.4-0.9-2.2c-0.3-0.7-0.5-1.5-0.8-2.2
			c-0.5-1.5-0.9-3-1.3-4.5c-0.2-0.8-0.3-1.6-0.5-2.4c-0.5-2.8-0.8-5.6-0.8-8.5s0.3-5.7,0.8-8.5c0.1-0.8,0.3-1.6,0.5-2.4
			c0.4-1.5,0.8-3.1,1.3-4.5c0.3-0.7,0.5-1.5,0.8-2.2s0.6-1.4,0.9-2.2s0.7-1.4,1-2.1c0.4-0.7,0.7-1.4,1.1-2c0.2-0.3,0.4-0.7,0.6-1
			c0.4-0.7,0.8-1.3,1.2-1.9c8.6-12.8,23.2-21.2,39.8-21.2s31.2,8.4,39.8,21.2c0.4,0.6,0.9,1.3,1.2,1.9c0.2,0.3,0.4,0.7,0.6,1
			c0.4,0.7,0.8,1.4,1.1,2s0.7,1.4,1,2.1s0.6,1.4,0.9,2.2c0.3,0.7,0.6,1.5,0.8,2.2c0.5,1.5,0.9,3,1.3,4.5c0.2,0.8,0.3,1.6,0.5,2.4
			c0.5,2.8,0.8,5.6,0.8,8.5S534.7,634.4,534.2,637.2z M487,548.7c-44.2,0-80,35.8-80,80s35.8,80,80,80s80-35.8,80-80
			S531.2,548.7,487,548.7z M534.2,637.2c-0.1,0.8-0.3,1.6-0.5,2.4c-0.4,1.5-0.8,3.1-1.3,4.5c-0.2,0.7-0.5,1.5-0.8,2.2
			s-0.6,1.4-0.9,2.2s-0.7,1.4-1,2.1s-0.7,1.4-1.1,2c-0.2,0.3-0.4,0.7-0.6,1c-0.4,0.7-0.8,1.3-1.2,1.9c-8.6,12.8-23.2,21.2-39.8,21.2
			s-31.2-8.4-39.8-21.2c-0.4-0.6-0.9-1.3-1.2-1.9c-0.2-0.3-0.4-0.7-0.6-1c-0.4-0.7-0.8-1.4-1.1-2c-0.3-0.7-0.7-1.4-1-2.1
			s-0.6-1.4-0.9-2.2c-0.3-0.7-0.5-1.5-0.8-2.2c-0.5-1.5-0.9-3-1.3-4.5c-0.2-0.8-0.3-1.6-0.5-2.4c-0.5-2.8-0.8-5.6-0.8-8.5
			s0.3-5.7,0.8-8.5c0.1-0.8,0.3-1.6,0.5-2.4c0.4-1.5,0.8-3.1,1.3-4.5c0.3-0.7,0.5-1.5,0.8-2.2s0.6-1.4,0.9-2.2s0.7-1.4,1-2.1
			c0.4-0.7,0.7-1.4,1.1-2c0.2-0.3,0.4-0.7,0.6-1c0.4-0.7,0.8-1.3,1.2-1.9c8.6-12.8,23.2-21.2,39.8-21.2s31.2,8.4,39.8,21.2
			c0.4,0.6,0.9,1.3,1.2,1.9c0.2,0.3,0.4,0.7,0.6,1c0.4,0.7,0.8,1.4,1.1,2s0.7,1.4,1,2.1s0.6,1.4,0.9,2.2c0.3,0.7,0.6,1.5,0.8,2.2
			c0.5,1.5,0.9,3,1.3,4.5c0.2,0.8,0.3,1.6,0.5,2.4c0.5,2.8,0.8,5.6,0.8,8.5S534.7,634.4,534.2,637.2z M487,548.7
			c-44.2,0-80,35.8-80,80s35.8,80,80,80s80-35.8,80-80S531.2,548.7,487,548.7z M534.2,637.2c-0.1,0.8-0.3,1.6-0.5,2.4
			c-0.4,1.5-0.8,3.1-1.3,4.5c-0.2,0.7-0.5,1.5-0.8,2.2s-0.6,1.4-0.9,2.2s-0.7,1.4-1,2.1s-0.7,1.4-1.1,2c-0.2,0.3-0.4,0.7-0.6,1
			c-0.4,0.7-0.8,1.3-1.2,1.9c-8.6,12.8-23.2,21.2-39.8,21.2s-31.2-8.4-39.8-21.2c-0.4-0.6-0.9-1.3-1.2-1.9c-0.2-0.3-0.4-0.7-0.6-1
			c-0.4-0.7-0.8-1.4-1.1-2c-0.3-0.7-0.7-1.4-1-2.1s-0.6-1.4-0.9-2.2c-0.3-0.7-0.5-1.5-0.8-2.2c-0.5-1.5-0.9-3-1.3-4.5
			c-0.2-0.8-0.3-1.6-0.5-2.4c-0.5-2.8-0.8-5.6-0.8-8.5s0.3-5.7,0.8-8.5c0.1-0.8,0.3-1.6,0.5-2.4c0.4-1.5,0.8-3.1,1.3-4.5
			c0.3-0.7,0.5-1.5,0.8-2.2s0.6-1.4,0.9-2.2s0.7-1.4,1-2.1c0.4-0.7,0.7-1.4,1.1-2c0.2-0.3,0.4-0.7,0.6-1c0.4-0.7,0.8-1.3,1.2-1.9
			c8.6-12.8,23.2-21.2,39.8-21.2s31.2,8.4,39.8,21.2c0.4,0.6,0.9,1.3,1.2,1.9c0.2,0.3,0.4,0.7,0.6,1c0.4,0.7,0.8,1.4,1.1,2
			s0.7,1.4,1,2.1s0.6,1.4,0.9,2.2c0.3,0.7,0.6,1.5,0.8,2.2c0.5,1.5,0.9,3,1.3,4.5c0.2,0.8,0.3,1.6,0.5,2.4c0.5,2.8,0.8,5.6,0.8,8.5
			S534.7,634.4,534.2,637.2z M487,548.7c-44.2,0-80,35.8-80,80s35.8,80,80,80s80-35.8,80-80S531.2,548.7,487,548.7z M534.2,637.2
			c-0.1,0.8-0.3,1.6-0.5,2.4c-0.4,1.5-0.8,3.1-1.3,4.5c-0.2,0.7-0.5,1.5-0.8,2.2s-0.6,1.4-0.9,2.2s-0.7,1.4-1,2.1s-0.7,1.4-1.1,2
			c-0.2,0.3-0.4,0.7-0.6,1c-0.4,0.7-0.8,1.3-1.2,1.9c-8.6,12.8-23.2,21.2-39.8,21.2s-31.2-8.4-39.8-21.2c-0.4-0.6-0.9-1.3-1.2-1.9
			c-0.2-0.3-0.4-0.7-0.6-1c-0.4-0.7-0.8-1.4-1.1-2c-0.3-0.7-0.7-1.4-1-2.1s-0.6-1.4-0.9-2.2c-0.3-0.7-0.5-1.5-0.8-2.2
			c-0.5-1.5-0.9-3-1.3-4.5c-0.2-0.8-0.3-1.6-0.5-2.4c-0.5-2.8-0.8-5.6-0.8-8.5s0.3-5.7,0.8-8.5c0.1-0.8,0.3-1.6,0.5-2.4
			c0.4-1.5,0.8-3.1,1.3-4.5c0.3-0.7,0.5-1.5,0.8-2.2s0.6-1.4,0.9-2.2s0.7-1.4,1-2.1c0.4-0.7,0.7-1.4,1.1-2c0.2-0.3,0.4-0.7,0.6-1
			c0.4-0.7,0.8-1.3,1.2-1.9c8.6-12.8,23.2-21.2,39.8-21.2s31.2,8.4,39.8,21.2c0.4,0.6,0.9,1.3,1.2,1.9c0.2,0.3,0.4,0.7,0.6,1
			c0.4,0.7,0.8,1.4,1.1,2s0.7,1.4,1,2.1s0.6,1.4,0.9,2.2c0.3,0.7,0.6,1.5,0.8,2.2c0.5,1.5,0.9,3,1.3,4.5c0.2,0.8,0.3,1.6,0.5,2.4
			c0.5,2.8,0.8,5.6,0.8,8.5S534.7,634.4,534.2,637.2z M487,436.7c-106,0-192,86-192,192c0,87.4,116.1,243,168.3,307.2
			c12.3,15.3,35.1,15.3,47.4,0C562,871.7,679,716.1,679,628.7C679,522.6,593,436.7,487,436.7z M630.4,692.1
			c-10.9,25.9-26.2,54-43.5,82.1c-34.1,55.3-74.5,108.2-99.9,140.1c-25.4-31.9-65.8-84.8-99.9-140.1c-17.3-28.1-32.7-56.2-43.6-82.1
			c-11.1-26.4-16.6-47.8-16.6-63.4c0-88.4,71.6-160,160-160s160,71.6,160,160C647,644.3,641.6,665.7,630.4,692.1z M487,548.7
			c-44.2,0-80,35.8-80,80s35.8,80,80,80s80-35.8,80-80S531.2,548.7,487,548.7z M534.2,637.2c-0.1,0.8-0.3,1.6-0.5,2.4
			c-0.4,1.5-0.8,3.1-1.3,4.5c-0.2,0.7-0.5,1.5-0.8,2.2s-0.6,1.4-0.9,2.2s-0.7,1.4-1,2.1s-0.7,1.4-1.1,2c-0.2,0.3-0.4,0.7-0.6,1
			c-0.4,0.7-0.8,1.3-1.2,1.9c-8.6,12.8-23.2,21.2-39.8,21.2s-31.2-8.4-39.8-21.2c-0.4-0.6-0.9-1.3-1.2-1.9c-0.2-0.3-0.4-0.7-0.6-1
			c-0.4-0.7-0.8-1.4-1.1-2c-0.3-0.7-0.7-1.4-1-2.1s-0.6-1.4-0.9-2.2c-0.3-0.7-0.5-1.5-0.8-2.2c-0.5-1.5-0.9-3-1.3-4.5
			c-0.2-0.8-0.3-1.6-0.5-2.4c-0.5-2.8-0.8-5.6-0.8-8.5s0.3-5.7,0.8-8.5c0.1-0.8,0.3-1.6,0.5-2.4c0.4-1.5,0.8-3.1,1.3-4.5
			c0.3-0.7,0.5-1.5,0.8-2.2s0.6-1.4,0.9-2.2s0.7-1.4,1-2.1c0.4-0.7,0.7-1.4,1.1-2c0.2-0.3,0.4-0.7,0.6-1c0.4-0.7,0.8-1.3,1.2-1.9
			c8.6-12.8,23.2-21.2,39.8-21.2s31.2,8.4,39.8,21.2c0.4,0.6,0.9,1.3,1.2,1.9c0.2,0.3,0.4,0.7,0.6,1c0.4,0.7,0.8,1.4,1.1,2
			s0.7,1.4,1,2.1s0.6,1.4,0.9,2.2c0.3,0.7,0.6,1.5,0.8,2.2c0.5,1.5,0.9,3,1.3,4.5c0.2,0.8,0.3,1.6,0.5,2.4c0.5,2.8,0.8,5.6,0.8,8.5
			S534.7,634.4,534.2,637.2z M487,548.7c-44.2,0-80,35.8-80,80s35.8,80,80,80s80-35.8,80-80S531.2,548.7,487,548.7z M534.2,637.2
			c-0.1,0.8-0.3,1.6-0.5,2.4c-0.4,1.5-0.8,3.1-1.3,4.5c-0.2,0.7-0.5,1.5-0.8,2.2s-0.6,1.4-0.9,2.2s-0.7,1.4-1,2.1s-0.7,1.4-1.1,2
			c-0.2,0.3-0.4,0.7-0.6,1c-0.4,0.7-0.8,1.3-1.2,1.9c-8.6,12.8-23.2,21.2-39.8,21.2s-31.2-8.4-39.8-21.2c-0.4-0.6-0.9-1.3-1.2-1.9
			c-0.2-0.3-0.4-0.7-0.6-1c-0.4-0.7-0.8-1.4-1.1-2c-0.3-0.7-0.7-1.4-1-2.1s-0.6-1.4-0.9-2.2c-0.3-0.7-0.5-1.5-0.8-2.2
			c-0.5-1.5-0.9-3-1.3-4.5c-0.2-0.8-0.3-1.6-0.5-2.4c-0.5-2.8-0.8-5.6-0.8-8.5s0.3-5.7,0.8-8.5c0.1-0.8,0.3-1.6,0.5-2.4
			c0.4-1.5,0.8-3.1,1.3-4.5c0.3-0.7,0.5-1.5,0.8-2.2s0.6-1.4,0.9-2.2s0.7-1.4,1-2.1c0.4-0.7,0.7-1.4,1.1-2c0.2-0.3,0.4-0.7,0.6-1
			c0.4-0.7,0.8-1.3,1.2-1.9c8.6-12.8,23.2-21.2,39.8-21.2s31.2,8.4,39.8,21.2c0.4,0.6,0.9,1.3,1.2,1.9c0.2,0.3,0.4,0.7,0.6,1
			c0.4,0.7,0.8,1.4,1.1,2s0.7,1.4,1,2.1s0.6,1.4,0.9,2.2c0.3,0.7,0.6,1.5,0.8,2.2c0.5,1.5,0.9,3,1.3,4.5c0.2,0.8,0.3,1.6,0.5,2.4
			c0.5,2.8,0.8,5.6,0.8,8.5S534.7,634.4,534.2,637.2z M487,548.7c-44.2,0-80,35.8-80,80s35.8,80,80,80s80-35.8,80-80
			S531.2,548.7,487,548.7z M534.2,637.2c-0.1,0.8-0.3,1.6-0.5,2.4c-0.4,1.5-0.8,3.1-1.3,4.5c-0.2,0.7-0.5,1.5-0.8,2.2
			s-0.6,1.4-0.9,2.2s-0.7,1.4-1,2.1s-0.7,1.4-1.1,2c-0.2,0.3-0.4,0.7-0.6,1c-0.4,0.7-0.8,1.3-1.2,1.9c-8.6,12.8-23.2,21.2-39.8,21.2
			s-31.2-8.4-39.8-21.2c-0.4-0.6-0.9-1.3-1.2-1.9c-0.2-0.3-0.4-0.7-0.6-1c-0.4-0.7-0.8-1.4-1.1-2c-0.3-0.7-0.7-1.4-1-2.1
			s-0.6-1.4-0.9-2.2c-0.3-0.7-0.5-1.5-0.8-2.2c-0.5-1.5-0.9-3-1.3-4.5c-0.2-0.8-0.3-1.6-0.5-2.4c-0.5-2.8-0.8-5.6-0.8-8.5
			s0.3-5.7,0.8-8.5c0.1-0.8,0.3-1.6,0.5-2.4c0.4-1.5,0.8-3.1,1.3-4.5c0.3-0.7,0.5-1.5,0.8-2.2s0.6-1.4,0.9-2.2s0.7-1.4,1-2.1
			c0.4-0.7,0.7-1.4,1.1-2c0.2-0.3,0.4-0.7,0.6-1c0.4-0.7,0.8-1.3,1.2-1.9c8.6-12.8,23.2-21.2,39.8-21.2s31.2,8.4,39.8,21.2
			c0.4,0.6,0.9,1.3,1.2,1.9c0.2,0.3,0.4,0.7,0.6,1c0.4,0.7,0.8,1.4,1.1,2s0.7,1.4,1,2.1s0.6,1.4,0.9,2.2c0.3,0.7,0.6,1.5,0.8,2.2
			c0.5,1.5,0.9,3,1.3,4.5c0.2,0.8,0.3,1.6,0.5,2.4c0.5,2.8,0.8,5.6,0.8,8.5S534.7,634.4,534.2,637.2z M487,548.7
			c-44.2,0-80,35.8-80,80s35.8,80,80,80s80-35.8,80-80S531.2,548.7,487,548.7z M534.2,637.2c-0.1,0.8-0.3,1.6-0.5,2.4
			c-0.4,1.5-0.8,3.1-1.3,4.5c-0.2,0.7-0.5,1.5-0.8,2.2s-0.6,1.4-0.9,2.2s-0.7,1.4-1,2.1s-0.7,1.4-1.1,2c-0.2,0.3-0.4,0.7-0.6,1
			c-0.4,0.7-0.8,1.3-1.2,1.9c-8.6,12.8-23.2,21.2-39.8,21.2s-31.2-8.4-39.8-21.2c-0.4-0.6-0.9-1.3-1.2-1.9c-0.2-0.3-0.4-0.7-0.6-1
			c-0.4-0.7-0.8-1.4-1.1-2c-0.3-0.7-0.7-1.4-1-2.1s-0.6-1.4-0.9-2.2c-0.3-0.7-0.5-1.5-0.8-2.2c-0.5-1.5-0.9-3-1.3-4.5
			c-0.2-0.8-0.3-1.6-0.5-2.4c-0.5-2.8-0.8-5.6-0.8-8.5s0.3-5.7,0.8-8.5c0.1-0.8,0.3-1.6,0.5-2.4c0.4-1.5,0.8-3.1,1.3-4.5
			c0.3-0.7,0.5-1.5,0.8-2.2s0.6-1.4,0.9-2.2s0.7-1.4,1-2.1c0.4-0.7,0.7-1.4,1.1-2c0.2-0.3,0.4-0.7,0.6-1c0.4-0.7,0.8-1.3,1.2-1.9
			c8.6-12.8,23.2-21.2,39.8-21.2s31.2,8.4,39.8,21.2c0.4,0.6,0.9,1.3,1.2,1.9c0.2,0.3,0.4,0.7,0.6,1c0.4,0.7,0.8,1.4,1.1,2
			s0.7,1.4,1,2.1s0.6,1.4,0.9,2.2c0.3,0.7,0.6,1.5,0.8,2.2c0.5,1.5,0.9,3,1.3,4.5c0.2,0.8,0.3,1.6,0.5,2.4c0.5,2.8,0.8,5.6,0.8,8.5
			S534.7,634.4,534.2,637.2z M487,548.7c-44.2,0-80,35.8-80,80s35.8,80,80,80s80-35.8,80-80S531.2,548.7,487,548.7z M534.2,637.2
			c-0.1,0.8-0.3,1.6-0.5,2.4c-0.4,1.5-0.8,3.1-1.3,4.5c-0.2,0.7-0.5,1.5-0.8,2.2s-0.6,1.4-0.9,2.2s-0.7,1.4-1,2.1s-0.7,1.4-1.1,2
			c-0.2,0.3-0.4,0.7-0.6,1c-0.4,0.7-0.8,1.3-1.2,1.9c-8.6,12.8-23.2,21.2-39.8,21.2s-31.2-8.4-39.8-21.2c-0.4-0.6-0.9-1.3-1.2-1.9
			c-0.2-0.3-0.4-0.7-0.6-1c-0.4-0.7-0.8-1.4-1.1-2c-0.3-0.7-0.7-1.4-1-2.1s-0.6-1.4-0.9-2.2c-0.3-0.7-0.5-1.5-0.8-2.2
			c-0.5-1.5-0.9-3-1.3-4.5c-0.2-0.8-0.3-1.6-0.5-2.4c-0.5-2.8-0.8-5.6-0.8-8.5s0.3-5.7,0.8-8.5c0.1-0.8,0.3-1.6,0.5-2.4
			c0.4-1.5,0.8-3.1,1.3-4.5c0.3-0.7,0.5-1.5,0.8-2.2s0.6-1.4,0.9-2.2s0.7-1.4,1-2.1c0.4-0.7,0.7-1.4,1.1-2c0.2-0.3,0.4-0.7,0.6-1
			c0.4-0.7,0.8-1.3,1.2-1.9c8.6-12.8,23.2-21.2,39.8-21.2s31.2,8.4,39.8,21.2c0.4,0.6,0.9,1.3,1.2,1.9c0.2,0.3,0.4,0.7,0.6,1
			c0.4,0.7,0.8,1.4,1.1,2s0.7,1.4,1,2.1s0.6,1.4,0.9,2.2c0.3,0.7,0.6,1.5,0.8,2.2c0.5,1.5,0.9,3,1.3,4.5c0.2,0.8,0.3,1.6,0.5,2.4
			c0.5,2.8,0.8,5.6,0.8,8.5S534.7,634.4,534.2,637.2z M487,548.7c-44.2,0-80,35.8-80,80s35.8,80,80,80s80-35.8,80-80
			S531.2,548.7,487,548.7z M534.2,637.2c-0.1,0.8-0.3,1.6-0.5,2.4c-0.4,1.5-0.8,3.1-1.3,4.5c-0.2,0.7-0.5,1.5-0.8,2.2
			s-0.6,1.4-0.9,2.2s-0.7,1.4-1,2.1s-0.7,1.4-1.1,2c-0.2,0.3-0.4,0.7-0.6,1c-0.4,0.7-0.8,1.3-1.2,1.9c-8.6,12.8-23.2,21.2-39.8,21.2
			s-31.2-8.4-39.8-21.2c-0.4-0.6-0.9-1.3-1.2-1.9c-0.2-0.3-0.4-0.7-0.6-1c-0.4-0.7-0.8-1.4-1.1-2c-0.3-0.7-0.7-1.4-1-2.1
			s-0.6-1.4-0.9-2.2c-0.3-0.7-0.5-1.5-0.8-2.2c-0.5-1.5-0.9-3-1.3-4.5c-0.2-0.8-0.3-1.6-0.5-2.4c-0.5-2.8-0.8-5.6-0.8-8.5
			s0.3-5.7,0.8-8.5c0.1-0.8,0.3-1.6,0.5-2.4c0.4-1.5,0.8-3.1,1.3-4.5c0.3-0.7,0.5-1.5,0.8-2.2s0.6-1.4,0.9-2.2s0.7-1.4,1-2.1
			c0.4-0.7,0.7-1.4,1.1-2c0.2-0.3,0.4-0.7,0.6-1c0.4-0.7,0.8-1.3,1.2-1.9c8.6-12.8,23.2-21.2,39.8-21.2s31.2,8.4,39.8,21.2
			c0.4,0.6,0.9,1.3,1.2,1.9c0.2,0.3,0.4,0.7,0.6,1c0.4,0.7,0.8,1.4,1.1,2s0.7,1.4,1,2.1s0.6,1.4,0.9,2.2c0.3,0.7,0.6,1.5,0.8,2.2
			c0.5,1.5,0.9,3,1.3,4.5c0.2,0.8,0.3,1.6,0.5,2.4c0.5,2.8,0.8,5.6,0.8,8.5S534.7,634.4,534.2,637.2z"/>
		<path class="st2" d="M50.8,18.4h868.4c19.7,0,35.7,16,35.7,35.7v270c0,19.7-16,35.7-35.7,35.7H50.8c-19.7,0-35.7-16-35.7-35.7
			v-270C15,34.4,31,18.4,50.8,18.4z"/>
		<g id="Logo_white_Teal">
			<g>
				<path class="st3" d="M237.7,133.2c-9.6-9.2-22.5-14.3-35.8-14.1c-9.4,0.1-18.6,3-26.4,8.3c-6.5,4.1-12,9.7-16.1,16.3
					c-4.2-6.6-9.8-12.1-16.4-16.1c-8-5.4-17.4-8.3-27.1-8.4c-12.8-0.4-25.2,4.4-34.5,13.1C72.2,141,67.6,153,67.6,168v89.5h14.6
					v-89.2c-0.3-9.5,3.3-18.6,10-25.4c6.5-6.6,15.4-10.2,24.7-10c9.9-0.4,19.5,4,25.6,11.8c6.3,7.9,9.5,18.2,9.5,30.7v82.2h15.4
					v-87.2c-0.2-9.8,3.3-19.2,9.9-26.5c6.1-7.2,15.1-11.2,24.5-11.1c10.1-0.4,19.8,3.9,26.3,11.7c6.6,7.8,9.9,18.5,9.9,31.7v81.3
					h14.7v-89.8C252.7,154.6,247.3,142,237.7,133.2L237.7,133.2z"/>
				<path class="st3" d="M392.1,140.6c-12.6-13.8-30.5-21.7-49.2-21.5c-18.8-0.2-37,7.2-50.3,20.5c-13.6,12.8-21.3,30.8-21,49.5
					c-0.2,18.6,7.1,36.5,20.4,49.5c12.9,13.4,30.8,20.9,49.4,20.7c18.6,0.2,36.5-6.9,49.9-19.9c13.6-12.2,21.4-29.8,21.2-48.1
					C412.7,172.3,405.4,154.1,392.1,140.6z M380.1,229c-10.7,10.7-25.2,16.7-40.4,16.6c-14.3,0.2-27.9-5.9-37.3-16.6
					c-10-10.6-15.5-24.7-15.3-39.2c-0.2-14.9,5.6-29.2,16-39.7c10.1-10.7,24.1-16.7,38.8-16.5c14.7-0.2,28.8,5.8,39,16.4
					c10.5,10.4,16.3,24.6,16.1,39.3C397.2,204.3,391.1,218.7,380.1,229z"/>
				<path class="st3" d="M521.5,247.9c7.4-5.8,11.6-14.6,11.5-24c0.3-9.7-3.2-19.1-9.9-26.1c-6.5-6.7-16.7-11.6-30.4-14.7l-20.7-4.9
					c-7.4-1.4-14.5-4.1-20.9-8c-6.5-4.2-9.7-9.4-9.7-15.9c0-1.8,0.3-3.6,0.7-5.3c1.1-4.7,3.8-8.8,7.7-11.6c4-2.8,8.7-4.2,13.6-4.1
					h60v-13.6h-60.7c-9.4-0.1-18.4,3.3-25.3,9.7c-6.9,5.9-10.9,14.6-10.8,23.7c0,10.6,3.2,18.9,9.7,24.8c5.7,5.3,15.2,9.7,28.3,12.9
					l14.6,3.5c6.8,1.6,13.6,3.7,20.2,6c11.7,4.9,18.2,11.5,19.2,20.1v2.4c0.2,6.6-3.5,12.8-9.4,15.8c-6,3.3-12.8,4.9-19.7,4.7h-62.8
					V257H495C504.5,257.4,514,254.1,521.5,247.9L521.5,247.9z"/>
				<path class="st3" d="M643.9,197.9c-6.5-6.7-16.7-11.6-30.4-14.7l-20.7-4.9c-7.4-1.4-14.5-4.1-20.9-8c-6.5-4.2-9.7-9.4-9.7-15.9
					c0-1.8,0.3-3.6,0.7-5.3c1.1-4.7,3.8-8.8,7.7-11.6c4-2.8,8.7-4.2,13.6-4.1h60.1v-13.6h-60.7c-9.4-0.1-18.4,3.3-25.3,9.7
					c-6.9,5.9-10.9,14.6-10.8,23.7c0,10.6,3.2,18.9,9.7,24.8c5.7,5.3,15.2,9.7,28.3,12.9l14.4,3.5c6.8,1.6,13.5,3.7,20.1,6.1
					c11.7,4.9,18.2,11.5,19.2,20.1v2.4c0.2,6.7-3.5,12.9-9.4,16c-6,3.3-12.8,4.9-19.7,4.7h-62.6v13.7h68.3
					c9.8,0.1,19.2-3.2,26.7-9.5c7.4-5.8,11.6-14.6,11.5-24C654.1,214.3,650.5,204.9,643.9,197.9L643.9,197.9z"/>
				<path class="st4" d="M758.8,257.4v-13.7H737c-14.6,0.3-28.6-5.6-38.6-16.3c-10.1-10.5-15.7-24.6-15.4-39.2
					c0-16.5,5.4-29.9,16.1-39.8c10.7-9.9,26-14.9,45.3-14.9h13.4v-13.7h-17.4c-22.1,0-40.4,7.6-54.4,22.6
					c-12.2,12.6-19.1,29.5-19,47c-0.3,18.5,7.1,36.3,20.5,49.1c12.8,12.5,27.6,18.8,44,18.8L758.8,257.4L758.8,257.4L758.8,257.4z"
					/>
				<path class="st4" d="M887.2,140.5c-12.6-13.8-30.5-21.6-49.2-21.5c-18.8-0.2-37,7.2-50.3,20.5c-13.7,12.8-21.3,30.8-21.1,49.5
					c-0.2,18.6,7.1,36.5,20.4,49.5c12.9,13.4,30.8,20.9,49.4,20.7c18.6,0.2,36.5-6.9,49.9-19.9c13.6-12.3,21.4-29.8,21.2-48.1
					C907.7,172.3,900.4,154,887.2,140.5z M875.1,229c-10.7,10.7-25.3,16.7-40.4,16.6c-14.3,0.1-27.9-5.9-37.3-16.6
					c-10-10.6-15.5-24.7-15.3-39.2c-0.2-14.8,5.6-29.2,16-39.7c10-10.7,24.2-16.7,38.8-16.5c14.7-0.2,28.8,5.8,39,16.4
					c10.5,10.4,16.3,24.6,16.2,39.3C892.2,204.3,886.1,218.7,875.1,229z"/>
			</g>
		</g>
	</g>
</g>
<circle class="st5" cx="485" cy="1062" r="82"/>
</svg>
