<svg xmlns="http://www.w3.org/2000/svg" width="220.353" height="36.781" viewBox="0 0 220.353 36.781"><g transform="translate(173.081 28.891)"><g transform="translate(-173.081 -28.89)"><path d="M44.629,3.7a13.3,13.3,0,0,0-9.4-3.7,12.514,12.514,0,0,0-6.913,2.171,13.572,13.572,0,0,0-4.233,4.265,13.308,13.308,0,0,0-4.3-4.227A13.106,13.106,0,0,0,12.674.005,12.673,12.673,0,0,0,3.628,3.449,12.354,12.354,0,0,0,0,12.813V36.3H3.819V12.9A9.085,9.085,0,0,1,6.429,6.25,8.791,8.791,0,0,1,12.9,3.627a8.191,8.191,0,0,1,6.728,3.1,12.584,12.584,0,0,1,2.5,8.046v21.56h4.049V13.449A10.183,10.183,0,0,1,28.76,6.5,8.274,8.274,0,0,1,35.2,3.6a8.574,8.574,0,0,1,6.894,3.068,12.6,12.6,0,0,1,2.591,8.32V36.3h3.851V12.749A12.024,12.024,0,0,0,44.629,3.7Z" transform="translate(0 0)" fill="#212121"/><path d="M102.828.007a18.307,18.307,0,0,0-13.19,5.385,17.57,17.57,0,0,0-5.519,12.992,17.875,17.875,0,0,0,5.353,12.979,17.6,17.6,0,0,0,12.96,5.417,18.537,18.537,0,0,0,13.081-5.213,16.741,16.741,0,0,0,5.557-12.629,18.676,18.676,0,0,0-5.347-13.285A17.225,17.225,0,0,0,102.828.007Zm-.267,3.788A13.889,13.889,0,0,1,112.79,8.1a14.264,14.264,0,0,1,4.233,10.319,14.094,14.094,0,0,1-4.456,10.414,14.769,14.769,0,0,1-10.592,4.341,12.859,12.859,0,0,1-9.8-4.36,14.737,14.737,0,0,1-4.01-10.293A14.487,14.487,0,0,1,92.375,8.111,13.685,13.685,0,0,1,102.56,3.795Z" transform="translate(-30.572 -0.002)" fill="#212121"/><path d="M172.855,33.932a7.894,7.894,0,0,0,3.017-6.289,9.465,9.465,0,0,0-2.6-6.837c-1.712-1.757-4.392-3.055-7.963-3.864l-5.443-1.273a16.43,16.43,0,0,1-5.481-2.088,4.841,4.841,0,0,1-2.546-4.169,5.822,5.822,0,0,1,.191-1.394,5.176,5.176,0,0,1,2.018-3.036A6.007,6.007,0,0,1,157.609,3.9h15.729V.328H157.425a9.618,9.618,0,0,0-6.646,2.546,8.122,8.122,0,0,0-2.839,6.213,8.416,8.416,0,0,0,2.546,6.512c1.483,1.4,3.991,2.546,7.435,3.387l3.819.929a48.431,48.431,0,0,1,5.29,1.585c3.081,1.273,4.768,3.024,5.022,5.271v.637a4.553,4.553,0,0,1-2.457,4.157,10.082,10.082,0,0,1-5.175,1.222H147.94v3.59h17.913A10.676,10.676,0,0,0,172.855,33.932Z" transform="translate(-53.767 -0.119)" fill="#212121"/><path d="M223.035,20.806c-1.712-1.757-4.392-3.055-7.963-3.864l-5.443-1.273a16.429,16.429,0,0,1-5.481-2.088A4.841,4.841,0,0,1,201.6,9.411a5.821,5.821,0,0,1,.191-1.394,5.176,5.176,0,0,1,2.018-3.036A6.007,6.007,0,0,1,207.369,3.9h15.755V.328H207.21a9.618,9.618,0,0,0-6.646,2.546,8.122,8.122,0,0,0-2.839,6.213,8.416,8.416,0,0,0,2.546,6.512c1.49,1.4,3.991,2.546,7.435,3.387l3.788.929a48.35,48.35,0,0,1,5.264,1.6c3.081,1.273,4.768,3.024,5.022,5.271v.637a4.551,4.551,0,0,1-2.476,4.189,10.082,10.082,0,0,1-5.175,1.222H197.7v3.59h17.913a10.674,10.674,0,0,0,7-2.489,7.894,7.894,0,0,0,3.017-6.289A9.465,9.465,0,0,0,223.035,20.806Z" transform="translate(-71.852 -0.119)" fill="#212121"/><path d="M271.143,36.421v-3.59h-5.729a13.472,13.472,0,0,1-10.121-4.271,14.432,14.432,0,0,1-4.042-10.287,13.6,13.6,0,0,1,4.227-10.446c2.807-2.6,6.811-3.915,11.891-3.915h3.52V.328h-4.577a18.67,18.67,0,0,0-14.265,5.933A17.593,17.593,0,0,0,247.068,18.6a17.39,17.39,0,0,0,5.373,12.878,16.151,16.151,0,0,0,11.534,4.933Z" transform="translate(-89.793 -0.119)" fill="#fff"/><path d="M319.711,5.634a17.223,17.223,0,0,0-12.9-5.627,18.307,18.307,0,0,0-13.19,5.385A17.55,17.55,0,0,0,288.1,18.385a17.875,17.875,0,0,0,5.353,12.979,17.615,17.615,0,0,0,12.96,5.417A18.551,18.551,0,0,0,319.5,31.568a16.768,16.768,0,0,0,5.557-12.629A18.7,18.7,0,0,0,319.711,5.634Zm-13.164-1.84A13.868,13.868,0,0,1,316.77,8.1a14.246,14.246,0,0,1,4.24,10.319,14.094,14.094,0,0,1-4.456,10.414,14.776,14.776,0,0,1-10.6,4.341,12.858,12.858,0,0,1-9.79-4.36,14.737,14.737,0,0,1-4.01-10.293,14.508,14.508,0,0,1,4.2-10.414A13.706,13.706,0,0,1,306.547,3.795Z" transform="translate(-104.706 -0.002)" fill="#fff"/></g></g></svg>