<?xml version="1.0" encoding="UTF-8"?>
<svg id="Layer_2" data-name="Layer 2" xmlns="http://www.w3.org/2000/svg" viewBox="0 0 512 384">
  <g id="Layer_1-2" data-name="Layer 1">
    <path d="m0,64C0,28.65,28.65,0,64,0h384c35.3,0,64,28.65,64,64v256c0,35.3-28.7,64-64,64H64c-35.35,0-64-28.7-64-64V64Zm32,0v39.9l195.6,143.4c16.9,12.4,39.9,12.4,56.8,0l195.6-143.4v-39.9c0-17.7-14.3-32-32-32H63.1c-16.77,0-32,14.3-32,32h.9Zm0,79.6v176.4c0,17.7,14.33,32,32,32h384c17.7,0,32-14.3,32-32v-176.4l-176.7,129.5c-28.2,20.7-66.4,20.7-94.6,0L32,143.6Z"/>
  </g>
</svg>