<?xml version="1.0" encoding="UTF-8"?>
<svg id="Layer_2" data-name="Layer 2" xmlns="http://www.w3.org/2000/svg" viewBox="0 0 67.09 89.3">
  <defs>
    <style>
      .cls-1 {
        fill: #60aaa9;
      }
    </style>
  </defs>
  <g id="Layer_2-2" data-name="Layer 2">
    <g id="Layer_1-2" data-name="Layer 1-2">
      <g>
        <path class="cls-1" d="m46.46,20.63c-3.6-3.6-7.91-5.4-12.93-5.4s-9.33,1.8-12.93,5.4-5.4,7.91-5.4,12.93,1.8,9.33,5.4,12.93c3.6,3.6,7.91,5.4,12.93,5.4s9.33-1.8,12.93-5.4c3.6-3.6,5.4-7.91,5.4-12.93s-1.8-9.33-5.4-12.93Zm-1.3,22.42v-12.13c0-1.97-.5-3.56-1.48-4.73-.96-1.16-2.41-1.8-3.92-1.75-1.4-.02-2.75.59-3.66,1.66-.97,1.08-1.49,2.49-1.47,3.95v13.02h-2.3v-12.27c0-1.85-.48-3.39-1.42-4.57-.92-1.17-2.34-1.82-3.83-1.77-1.38-.03-2.71.51-3.68,1.49-.99,1.01-1.53,2.38-1.49,3.79v13.31h-2.17v-13.36c0-2.24.7-4.03,2.07-5.33,1.38-1.31,3.23-2.01,5.14-1.96,1.44.02,2.85.46,4.05,1.26.98.6,1.82,1.43,2.44,2.4.61-.98,1.43-1.8,2.41-2.42,1.16-.79,2.53-1.22,3.93-1.24,1.99-.03,3.91.73,5.35,2.11,1.44,1.32,2.25,3.19,2.22,5.14v13.4h-2.19Z"/>
        <path class="cls-1" d="m57.31,9.78C50.79,3.26,42.86,0,33.53,0S16.27,3.26,9.78,9.78C3.26,16.3,0,24.23,0,33.56c0,4.67,1.95,10.8,5.85,18.44,3.9,7.61,7.8,14.16,11.64,19.56,3.83,5.4,7.79,10.61,11.88,15.63,1.15,1.41,2.56,2.11,4.19,2.11s3.04-.7,4.19-2.11c2.91-3.61,5.72-7.35,8.47-11.19,2.75-3.83,5.88-8.43,9.36-13.8,3.48-5.34,6.27-10.55,8.37-15.63,2.08-5.05,3.14-9.4,3.14-13.01,0-9.33-3.26-17.26-9.78-23.78Zm1.21,34.81c-1.76,4.31-4.25,9.14-7.51,14.51-4.67,7.47-10.48,15.62-17.48,24.48-7-8.86-12.82-17.04-17.48-24.48-3.26-5.37-5.76-10.2-7.51-14.51-1.99-4.57-2.98-8.22-2.98-11.03,0-7.7,2.75-14.29,8.22-19.75,5.46-5.47,12.05-8.22,19.75-8.22s14.29,2.75,19.75,8.22c5.47,5.46,8.21,12.05,8.21,19.75,0,2.81-.99,6.49-2.97,11.03Z"/>
      </g>
    </g>
  </g>
</svg>