<?xml version="1.0" encoding="UTF-8"?>
<svg id="Layer_2" data-name="Layer 2" xmlns="http://www.w3.org/2000/svg" viewBox="0 0 21 27.95">
  <defs>
    <style>
      .cls-1 {
        fill: #fff;
      }

      .cls-2 {
        isolation: isolate;
      }
    </style>
  </defs>
  <g id="Layer_1-2" data-name="Layer 1">
    <g class="cls-2">
      <g class="cls-2">
        <path class="cls-1" d="m20.02,14.57c-.66,1.59-1.53,3.22-2.62,4.89-1.09,1.68-2.07,3.12-2.93,4.32-.86,1.2-1.74,2.37-2.65,3.5-.36.44-.8.66-1.31.66s-.95-.22-1.31-.66c-1.28-1.57-2.52-3.2-3.72-4.89s-2.42-3.74-3.64-6.12c-1.22-2.39-1.83-4.31-1.83-5.77,0-2.92,1.02-5.4,3.06-7.44C5.1,1.02,7.58,0,10.5,0s5.4,1.02,7.44,3.06c2.04,2.04,3.06,4.52,3.06,7.44,0,1.13-.33,2.49-.98,4.07ZM1.75,10.5c0,.88.31,2.02.93,3.45.55,1.35,1.33,2.86,2.35,4.54,1.46,2.33,3.28,4.89,5.47,7.66,2.19-2.77,4.01-5.32,5.47-7.66,1.02-1.68,1.8-3.19,2.35-4.54.62-1.42.93-2.57.93-3.45,0-2.41-.86-4.47-2.57-6.18-1.71-1.71-3.77-2.57-6.18-2.57s-4.47.86-6.18,2.57c-1.71,1.71-2.57,3.77-2.57,6.18Zm8.75,4.38c-1.2,0-2.23-.43-3.09-1.29-.86-.86-1.29-1.89-1.29-3.09s.43-2.23,1.29-3.09c.86-.86,1.89-1.29,3.09-1.29s2.23.43,3.09,1.29c.86.86,1.29,1.89,1.29,3.09s-.43,2.23-1.29,3.09-1.89,1.29-3.09,1.29Zm2.62-4.38c0-.73-.26-1.35-.77-1.86-.51-.51-1.13-.77-1.86-.77s-1.35.26-1.86.77c-.51.51-.77,1.13-.77,1.86s.25,1.35.77,1.86c.51.51,1.13.77,1.86.77s1.35-.25,1.86-.77.77-1.13.77-1.86Z"/>
      </g>
    </g>
  </g>
</svg>