
<svg xmlns="http://www.w3.org/2000/svg" viewBox="0 0 76.24 57.08">
  <defs>
    <style>
      .cls-1 {
        fill: #212121;
      }
    </style>
  </defs>
  <g id="Layer_1-2" data-name="Layer 1">
    <path class="cls-1" d="m70.11,5.82C66.14,2.01,60.84-.07,55.34,0c-3.88.04-7.66,1.23-10.86,3.41-2.69,1.71-4.96,4-6.65,6.7-1.71-2.7-4.02-4.97-6.75-6.64C27.77,1.27,23.89.06,19.91,0c-5.27-.15-10.38,1.8-14.21,5.41C1.92,9.01,0,13.96,0,20.13v36.9h6V20.27c-.12-3.9,1.36-7.67,4.1-10.45,2.68-2.72,6.36-4.21,10.17-4.12,4.1-.15,8.02,1.66,10.57,4.87,2.6,3.27,3.92,7.52,3.92,12.64v33.87h6.36V21.13c-.07-4.02,1.38-7.92,4.06-10.92,2.52-2.95,6.23-4.63,10.11-4.56,4.16-.15,8.16,1.63,10.83,4.82,2.7,3.22,4.07,7.62,4.07,13.07v33.49h6.05V20.03c.08-5.39-2.15-10.57-6.13-14.21Z"/>
  </g>
</svg>