<?xml version="1.0" encoding="UTF-8"?>
<svg id="Layer_2" data-name="Layer 2" xmlns="http://www.w3.org/2000/svg" viewBox="0 0 175.37 175.37">
  <g id="Layer_1-2" data-name="Layer 1">
    <path d="m156.58,0H18.79C8.41,0,0,8.41,0,18.79v137.79c0,10.38,8.41,18.79,18.79,18.79h53.73v-59.62h-24.66v-28.06h24.66v-21.39c0-24.33,14.48-37.77,36.67-37.77,10.62,0,21.73,1.89,21.73,1.89v23.88h-12.24c-12.06,0-15.82,7.48-15.82,15.16v18.22h26.92l-4.31,28.06h-22.62v59.62h53.73c10.38,0,18.79-8.41,18.79-18.79V18.79c0-10.38-8.41-18.79-18.79-18.79Z"/>
  </g>
</svg>