<?xml version="1.0" encoding="UTF-8"?>
<svg id="Layer_2" data-name="Layer 2" xmlns="http://www.w3.org/2000/svg" viewBox="0 0 175.2 175.2">
  <g id="Layer_1-2" data-name="Layer 1">
    <path d="m87.6,66.74c-11.52,0-20.86,9.35-20.85,20.87,0,11.52,9.35,20.86,20.87,20.85,11.52,0,20.85-9.34,20.85-20.86,0-11.52-9.35-20.86-20.87-20.86Zm48.77-16.03c-2.15-5.44-6.45-9.75-11.89-11.89-8.21-3.24-27.77-2.51-36.88-2.51s-28.65-.75-36.88,2.51c-5.44,2.15-9.75,6.45-11.89,11.89-3.24,8.21-2.51,27.79-2.51,36.89s-.72,28.65,2.53,36.89c2.15,5.44,6.45,9.75,11.89,11.89,8.21,3.24,27.77,2.51,36.88,2.51s28.64.75,36.88-2.51c5.44-2.15,9.75-6.45,11.89-11.89,3.27-8.21,2.51-27.79,2.51-36.89s.75-28.65-2.51-36.89h-.02Zm-48.77,68.96c-17.71,0-32.07-14.36-32.07-32.07s14.36-32.07,32.07-32.07,32.07,14.36,32.07,32.07c.02,17.69-14.3,32.05-31.99,32.07-.03,0-.05,0-.08,0Zm33.39-57.99c-4.13,0-7.49-3.35-7.49-7.48s3.35-7.49,7.48-7.49c4.13,0,7.49,3.35,7.49,7.48h0c.02,4.13-3.31,7.49-7.44,7.5,0,0-.02,0-.03,0l-.02-.02ZM156.43,0H18.77C8.4,0,0,8.4,0,18.77v137.65c0,10.37,8.4,18.77,18.77,18.77h137.65c10.37,0,18.77-8.4,18.77-18.77V18.77c0-10.37-8.4-18.77-18.77-18.77Zm-6.7,113.41c-.5,10.02-2.79,18.9-10.11,26.2s-16.19,9.63-26.2,10.11c-10.33.58-41.29.58-51.62,0-10.02-.5-18.87-2.8-26.2-10.11s-9.63-16.2-10.11-26.2c-.58-10.33-.58-41.3,0-51.62.5-10.02,2.76-18.9,10.11-26.2s16.22-9.6,26.2-10.08c10.33-.58,41.29-.58,51.62,0,10.02.5,18.9,2.8,26.2,10.11,7.3,7.31,9.63,16.2,10.11,26.22.58,10.29.58,41.23,0,51.57Z"/>
  </g>
</svg>