<?xml version="1.0" encoding="UTF-8"?>
<svg id="Layer_2" data-name="Layer 2" xmlns="http://www.w3.org/2000/svg" viewBox="0 0 20.99 27.94">
  <defs>
    <style>
      .cls-1 {
        fill: #fff;
      }

      .cls-2 {
        fill: #60aaa9;
      }
    </style>
  </defs>
  <g id="Layer_2-2" data-name="Layer 2">
    <g id="Layer_1-2" data-name="Layer 1-2">
      <path class="cls-2" d="m20.99,10.5c0,1.13-.33,2.49-.98,4.07-.66,1.59-1.53,3.22-2.62,4.89-1.09,1.68-2.07,3.12-2.93,4.32-.86,1.2-1.74,2.37-2.65,3.5-.36.44-.8.66-1.31.66s-.95-.22-1.31-.66c-1.28-1.57-2.52-3.2-3.72-4.89-1.2-1.69-2.42-3.74-3.64-6.12-1.22-2.39-1.83-4.31-1.83-5.77,0-2.92,1.02-5.4,3.06-7.44C5.09,1.02,7.57,0,10.49,0s5.4,1.02,7.44,3.06c2.04,2.04,3.06,4.52,3.06,7.44Z"/>
    </g>
    <path class="cls-1" d="m16.28,6.39c-.72-.69-1.68-1.07-2.67-1.05-.7,0-1.38.22-1.96.62-.49.31-.9.72-1.2,1.21-.31-.49-.73-.9-1.22-1.2-.6-.4-1.3-.62-2.02-.63-.95-.03-1.88.33-2.57.98-.68.65-1.03,1.54-1.03,2.66v6.67h1.08v-6.65c-.02-.7.25-1.39.74-1.89.48-.49,1.15-.76,1.84-.75.74-.03,1.45.3,1.91.88.47.59.71,1.36.71,2.29v6.12h1.15v-6.5c-.01-.73.25-1.43.73-1.97.46-.53,1.13-.84,1.83-.82.75-.03,1.48.29,1.96.87.49.58.74,1.38.74,2.36v6.06h1.09v-6.69c.01-.98-.39-1.91-1.11-2.57Z"/>
  </g>
</svg>