<?xml version="1.0" encoding="UTF-8"?>
<svg id="Layer_2" data-name="Layer 2" xmlns="http://www.w3.org/2000/svg" viewBox="0 0 744 821.24">
  <defs>
    <style>
      .cls-1 {
        fill: #fff;
      }

      .cls-2 {
        fill: #212121;
      }

      .cls-3 {
        fill: #3f7078;
      }
    </style>
  </defs>
  <g id="Layer_2-2" data-name="Layer 2">
    <g id="Layer_1-2" data-name="Layer 1-2">
      <path class="cls-3" d="m454,502.56c0,44.2-35.8,80-80,80s-80-35.8-80-80,35.8-80,80-80,80,35.8,80,80Zm-80,48c26.5,0,48-21.5,48-48s-21.5-48-48-48-48,21.5-48,48,21.5,48,48,48Zm192-48c0,87.4-117,243-168.3,307.2-12.3,15.3-35.1,15.3-47.4,0-52.2-64.2-168.3-219.8-168.3-307.2,0-106.04,85.96-192,192-192s192,85.96,192,192h0Zm-192-160c-88.4,0-160,71.6-160,160,0,15.6,5.43,37,16.56,63.4,10.91,25.9,26.24,54,43.58,82.1,34.06,55.3,74.46,108.2,99.86,140.1,25.4-31.9,65.8-84.8,99.9-140.1,17.3-28.1,32.6-56.2,43.5-82.1,11.2-26.4,16.6-47.8,16.6-63.4,0-88.4-71.6-160-160-160h0Z"/>
      <rect class="cls-3" width="744" height="270.3" rx="28.29" ry="28.29"/>
      <g id="Logo_white_Teal" data-name="Logo white Teal">
        <g>
          <path class="cls-1" d="m176.21,90.83c-7.62-7.31-17.81-11.32-28.37-11.16-7.45.08-14.7,2.36-20.86,6.55-5.17,3.28-9.53,7.68-12.77,12.87-3.29-5.19-7.73-9.55-12.97-12.75-6.36-4.25-13.81-6.56-21.46-6.67-10.12-.28-19.93,3.45-27.29,10.39-7.26,6.9-10.95,16.4-10.95,28.26v70.88h11.52v-70.61c-.23-7.49,2.62-14.74,7.88-20.07,5.14-5.22,12.21-8.09,19.53-7.91,7.87-.29,15.41,3.18,20.3,9.35,4.99,6.28,7.53,14.44,7.53,24.28v65.06h12.22v-69.05c-.13-7.72,2.65-15.21,7.8-20.98,4.84-5.67,11.96-8.89,19.42-8.76,7.99-.3,15.67,3.12,20.8,9.26,5.19,6.19,7.82,14.64,7.82,25.11v64.33h11.62v-71.07c.15-10.36-4.13-20.3-11.77-27.29"/>
          <path class="cls-1" d="m259.58,79.67c-14.92-.18-29.27,5.68-39.8,16.25-10.79,10.16-16.83,24.38-16.65,39.2-.18,14.71,5.65,28.86,16.15,39.17,10.2,10.64,24.37,16.56,39.11,16.35,14.72.15,28.9-5.5,39.47-15.73,10.81-9.7,16.92-23.59,16.77-38.11.16-14.97-5.64-29.4-16.13-40.09-9.95-10.96-24.11-17.16-38.92-17.04m-.81,11.43c11.65-.14,22.83,4.57,30.87,13,8.31,8.22,12.92,19.45,12.77,31.14.11,11.89-4.77,23.29-13.45,31.42-8.46,8.49-19.98,13.21-31.96,13.1-11.3.13-22.09-4.68-29.56-13.16-7.91-8.39-12.25-19.53-12.1-31.06-.17-11.76,4.41-23.08,12.7-31.42,7.96-8.47,19.11-13.2,30.73-13.02"/>
          <path class="cls-1" d="m400.89,181.69c5.82-4.57,9.18-11.58,9.1-18.98.26-7.65-2.57-15.08-7.84-20.63-5.17-5.3-13.25-9.22-24.03-11.66l-16.42-3.84c-5.85-1.09-11.45-3.23-16.54-6.3-5.15-3.36-7.68-7.47-7.68-12.58.02-1.42.22-2.83.58-4.21.85-3.69,3.02-6.95,6.09-9.16,3.14-2.2,6.9-3.34,10.74-3.27h47.46v-10.78h-48.02c-7.42-.1-14.6,2.65-20.05,7.68-5.47,4.69-8.61,11.54-8.57,18.75,0,8.36,2.57,14.98,7.68,19.65,4.48,4.23,12.04,7.68,22.44,10.22l11.52,2.8c5.41,1.29,10.74,2.89,15.96,4.78,9.3,3.84,14.39,9.12,15.16,15.9v1.92c.13,5.26-2.75,10.13-7.41,12.54-4.78,2.6-10.17,3.88-15.62,3.69h-49.73v10.83h54.05c7.7.15,15.19-2.47,21.13-7.38"/>
          <path class="cls-1" d="m497.74,142.08c-5.17-5.3-13.25-9.22-24.03-11.66l-16.42-3.84c-5.85-1.09-11.45-3.23-16.54-6.3-5.15-3.36-7.68-7.47-7.68-12.58.02-1.42.22-2.83.58-4.21.85-3.69,3.02-6.95,6.09-9.16,3.14-2.2,6.9-3.34,10.74-3.27h47.54v-10.78h-48.02c-7.42-.1-14.6,2.65-20.05,7.68-5.47,4.69-8.61,11.54-8.57,18.75,0,8.36,2.57,14.98,7.68,19.65,4.49,4.23,12.04,7.68,22.44,10.22l11.43,2.8c5.38,1.3,10.69,2.91,15.89,4.82,9.3,3.84,14.39,9.12,15.16,15.9v1.92c.16,5.3-2.75,10.22-7.47,12.64-4.78,2.6-10.17,3.88-15.62,3.69h-49.58v10.83h54.05c7.72.11,15.21-2.56,21.13-7.51,5.82-4.57,9.18-11.58,9.1-18.98.26-7.65-2.57-15.08-7.84-20.63"/>
          <path class="cls-2" d="m588.76,189.2v-10.83h-17.29c-11.55.24-22.65-4.45-30.54-12.89-8.02-8.32-12.41-19.48-12.2-31.04,0-13.08,4.28-23.68,12.75-31.52,8.47-7.84,20.55-11.81,35.88-11.81h10.62v-10.81h-13.81c-17.52,0-31.98,6.01-43.05,17.9-9.69,9.97-15.08,23.34-15.02,37.24-.26,14.65,5.62,28.74,16.21,38.86,10.12,9.87,21.84,14.89,34.81,14.89l21.63.02h0Z"/>
          <path class="cls-2" d="m690.32,96.65c-9.96-10.94-24.12-17.12-38.92-16.98-14.92-.18-29.27,5.68-39.8,16.25-10.8,10.16-16.85,24.38-16.67,39.2-.18,14.71,5.65,28.86,16.15,39.17,10.21,10.64,24.37,16.56,39.11,16.35,14.72.15,28.91-5.5,39.49-15.73,10.8-9.71,16.91-23.59,16.77-38.11.17-14.99-5.64-29.44-16.13-40.15m-39.72-5.55c11.64-.15,22.82,4.57,30.85,13,8.32,8.21,12.94,19.45,12.79,31.14.11,11.89-4.77,23.29-13.45,31.42-8.47,8.49-19.99,13.21-31.98,13.1-11.29.12-22.08-4.68-29.54-13.16-7.91-8.39-12.25-19.53-12.1-31.06-.16-11.75,4.4-23.08,12.68-31.42,7.96-8.47,19.13-13.2,30.75-13.02"/>
        </g>
      </g>
    </g>
  </g>
</svg>