<?xml version="1.0" encoding="UTF-8"?>
<svg id="Layer_2" data-name="Layer 2" xmlns="http://www.w3.org/2000/svg" viewBox="0 0 1200 1200">
  <defs>
    <style>
      .cls-1 {
        fill: none;
      }
    </style>
  </defs>
  <g id="Layer_1-2" data-name="Layer 1">
    <rect class="cls-1" width="1200" height="1200"/>
    <path d="m1101.83,242.92c-62.35-59.79-145.75-92.6-232.12-91.31-60.93.64-120.31,19.29-170.67,53.59-42.27,26.85-77.98,62.83-104.51,105.3-26.92-42.44-63.21-78.14-106.08-104.35-52.01-34.77-112.99-53.71-175.55-54.53-82.76-2.32-163.06,28.25-223.32,85.02C30.17,293.05,0,370.85,0,467.81v579.91h94.29V470.01c-1.86-61.25,21.42-120.59,64.43-164.23,42.05-42.73,99.9-66.17,159.83-64.75,64.4-2.41,126.1,26.02,166.12,76.54,40.86,51.39,61.61,118.18,61.61,198.65v532.29h99.95V483.53c-1.05-63.19,21.73-124.46,63.81-171.62,39.6-46.42,97.88-72.7,158.89-71.66,65.39-2.41,128.23,25.55,170.2,75.75,42.43,50.6,63.96,119.75,63.96,205.41v526.32h95.08V466.24c1.25-84.78-33.81-166.05-96.34-223.32Z"/>
  </g>
</svg>