<?xml version="1.0" encoding="UTF-8"?>
<svg id="Layer_2" data-name="Layer 2" xmlns="http://www.w3.org/2000/svg" viewBox="0 0 511.24 448">
  <g id="Layer_1-2" data-name="Layer 1">
    <path d="m256,208c-44.13,0-80,35.88-80,80s35.88,80,80,80,80-35.88,80-80-35.9-80-80-80Zm0,128c-26.5,0-48-21.5-48-48s21.5-48,48-48,48,21.5,48,48-21.5,48-48,48Zm244.2-249.7C431.7,31.25,344.8,0,256,0S80.25,31.25,11.75,86.3C4.25,92.43-.13,101.68,0,111.3v64.7c0,8.84,7.16,16,16,16h64c8.84,0,16-7.2,16-16s-7.16-16-16-16h-48l-.25-48.9c63.63-50.97,142.75-78.85,224.25-79.1,81.5.12,160.5,28.12,223.1,79.25v48.75h-47.1c-8.8,0-16,7.2-16,16s7.2,16,16,16h63.1c8.84,0,16-7.16,16-16v-64.7c1-9.7-3.4-18.9-10.9-25Zm-129.8,73.9c-10.53-18.42-29.57-29.9-50.5-31.57,0-.23.1-.43.1-.63v-32c0-8.84-7.16-16-16-16s-16,7.16-16,16v32h-64v-32c0-8.84-7.16-16-16-16s-16,7.16-16,16v32c0,.24.13.44.14.67-20.95,1.69-39.98,13.14-50.51,31.58l-101.2,177.1c-5.53,9.67-8.43,20.62-8.43,31.76v14.89c0,35.2,28.8,64,64,64h319.1c35.2,0,64-28.8,64-64v-14.94c0-11.14-2.91-22.08-8.44-31.76l-100.26-177.1Zm76.7,223.8c0,17.67-14.33,32-32,32H96c-17.67,0-32-14.33-32-32v-15c0-5.57,1.45-11.04,4.22-15.88l101.2-176.1c5.68-10.82,16.28-17.02,27.78-17.02h117.7c11.46,0,22.04,6.14,27.73,16.09l101.2,177c2.76,4.83,4.22,10.31,4.22,15.88v15.03h-.95Z"/>
  </g>
</svg>