<?xml version="1.0" encoding="UTF-8"?>
<svg id="Layer_2" data-name="Layer 2" xmlns="http://www.w3.org/2000/svg" viewBox="0 0 175.2 175.2">
  <g id="Layer_1-2" data-name="Layer 1">
    <path d="m156.43,0H18.77C8.41,0,0,8.41,0,18.77v137.65c0,10.36,8.41,18.77,18.77,18.77h137.65c10.36,0,18.77-8.41,18.77-18.77V18.77c0-10.36-8.41-18.77-18.77-18.77Zm-19.12,62.1c.08,1.09.08,2.23.08,3.32,0,33.91-25.81,72.97-72.97,72.97-14.55,0-28.04-4.22-39.38-11.5,2.07.23,4.07.31,6.18.31,12.01,0,23.03-4.07,31.83-10.95-11.26-.23-20.73-7.63-23.97-17.79,3.95.59,7.51.59,11.58-.47-11.73-2.39-20.53-12.71-20.53-25.18v-.31c3.4,1.92,7.39,3.09,11.58,3.25-7.15-4.75-11.43-12.77-11.42-21.35,0-4.77,1.25-9.15,3.48-12.94,12.63,15.56,31.6,25.73,52.87,26.83-3.64-17.4,9.39-31.52,25.03-31.52,7.39,0,14.04,3.09,18.73,8.1,5.79-1.09,11.34-3.25,16.27-6.18-1.92,5.94-5.94,10.95-11.26,14.12,5.16-.55,10.17-1.99,14.78-3.99-3.48,5.12-7.86,9.66-12.87,13.3Z"/>
  </g>
</svg>