<?xml version="1.0" encoding="UTF-8"?>
<svg id="Layer_2" data-name="Layer 2" xmlns="http://www.w3.org/2000/svg" viewBox="0 0 173.61 173.61">
  <g id="Layer_1-2" data-name="Layer 1">
    <path d="m72.39,65.92l36.89,20.97-36.89,20.97v-41.93Zm101.22-47.32v136.41c0,10.27-8.33,18.6-18.6,18.6H18.6c-10.27,0-18.6-8.33-18.6-18.6V18.6C0,8.33,8.33,0,18.6,0h136.41c10.27,0,18.6,8.33,18.6,18.6Zm-16.28,68.32s0-23.1-2.95-34.18c-1.63-6.12-6.39-10.93-12.48-12.56-10.97-2.98-55.11-2.98-55.11-2.98,0,0-44.14,0-55.11,2.98-6.08,1.63-10.85,6.43-12.48,12.56-2.95,11.04-2.95,34.18-2.95,34.18,0,0,0,23.1,2.95,34.18,1.63,6.12,6.39,10.73,12.48,12.36,10.97,2.95,55.11,2.95,55.11,2.95,0,0,44.14,0,55.11-2.98,6.08-1.63,10.85-6.24,12.48-12.36,2.95-11.04,2.95-34.14,2.95-34.14h0Z"/>
  </g>
</svg>