<?xml version="1.0" encoding="UTF-8"?>
<svg id="Layer_2" data-name="Layer 2" xmlns="http://www.w3.org/2000/svg" xmlns:xlink="http://www.w3.org/1999/xlink" viewBox="0 0 540.76 278.45">
  <defs>
    <style>
      .cls-1, .cls-2 {
        fill: none;
      }

      .cls-3 {
        clip-path: url(#clippath);
      }

      .cls-4 {
        fill: #1c1c1b;
      }

      .cls-5 {
        fill: #60aaa9;
      }

      .cls-2 {
        stroke: #1c1c1b;
        stroke-miterlimit: 10;
        stroke-width: .98px;
      }
    </style>
    <clipPath id="clippath">
      <rect class="cls-1" width="540.76" height="249.51"/>
    </clipPath>
  </defs>
  <g id="camel-graphic">
    <g class="cls-3">
      <path class="cls-5" d="m85.74,249.51c0-36.72,29.88-66.6,66.6-66.6s66.6,29.88,66.6,66.6h80.65c0-81.19-66.05-147.24-147.24-147.24S5.1,168.32,5.1,249.51h80.65Z"/>
      <path class="cls-5" d="m298.45,249.51c0-36.72,29.88-66.6,66.6-66.6s66.6,29.88,66.6,66.6h80.65c0-81.19-66.05-147.24-147.24-147.24s-147.24,66.05-147.24,147.24h80.65Z"/>
      <path class="cls-4" d="m346.36,186.95s0,0,0,0c.18-.26.34-.54.52-.8.82-1.17,1.64-2.34,2.46-3.51.86-1.23,1.71-2.47,2.59-3.68,1.33-1.82,2.72-3.57,4.31-5.18.62-.63,1.2-1.32,1.79-1.98.02-.03.05-.05.08-.08.56-.5,1.09-1.04,1.68-1.49,1-.76,2-1.53,3.07-2.18.7-.43,1.4-.87,2.12-1.26,1.29-.69,2.61-1.31,4.01-1.77.51-.17,1.01-.36,1.51-.55,1.31-.49,2.68-.76,4.02-1.14,1.36-.38,2.74-.48,4.14-.51,1.13-.02,2.2.22,3.27.45.13.18.23.32.37.51-.04.29-.09.6-.14.93-.35.36-.66.78-1.05,1.07-.69.51-1.33,1.11-2.16,1.39-1.08.81-2.38,1.14-3.58,1.68-1.23.56-2.48,1.09-3.72,1.64-.62.28-1.23.57-1.84.86-.1.05-.19.09-.28.16-1.25.91-2.67,1.55-3.87,2.53-.75.61-1.49,1.23-2.22,1.86-.18.16-.37.34-.32.63.12.18.31.16.48.15.93-.07,1.86-.15,2.78-.21.28-.02.56-.02.89,0-.04.15-.03.26-.09.33-.09.11-.2.21-.31.29-1.35,1.02-2.52,2.22-3.65,3.46-.82.9-1.52,1.9-2.02,3.02-.64,1.44-1.25,2.9-1.66,4.42-.16.59-.25,1.2-.33,1.8-.08.6-.13,1.21-.15,1.82-.02.42-.05.87.32,1.21.29.17.6.17.92.07.61-.19,1.22-.37,1.79-.71.42-.26.89-.44,1.31-.72,1.03-.66,1.94-1.46,2.73-2.4.2-.24.41-.5.8-.53.22.64-.26,1.35.17,2.01,1.08-.28,1.96-.84,2.64-1.72.37-.48.7-.99,1-1.52.88-1.56,1.79-3.1,2.67-4.65.34-.6.8-1.1,1.24-1.61.13-.16.34-.28.53-.35.19-.07.42-.05.66-.07.07.15.15.28.17.41.05.43-.01.85-.12,1.27-.44,1.71-.62,3.46-.59,5.22.01.88.32,1.68.64,2.47.02.06.1.1.19.18,1.19-1.53,2.13-3.18,2.62-5.07.17-.65.2-1.34.3-2.03.15-.05.22.09.25.21.18.99.34,1.97.52,3.04.12.02.32.06.56.1.5-.64.88-1.3,1.02-2.1.16-.89.18-1.8.06-2.68-.17-1.31,0-2.57.18-3.85.23-1.76.82-3.41,1.55-5.02.36-.79.93-1.44,1.44-2.12.46-.62,1.06-1.06,1.67-1.5.65-.46,1.35-.65,2.13-.41.17.05.34.1.53.16.06.18.11.35.17.51.06.17.11.34.17.51-.07.85-.35,1.62-.72,2.35-.51.99-.91,2.02-1.34,3.05-.45,1.07-.62,2.21-.74,3.35-.04.36-.02.72.11,1.08.09.04.18.07.27.11.64-.58,1.01-1.43,1.85-1.76.34.02.42.24.42.51,0,.42-.23.75-.45,1.08-.3.45-.57.91-.76,1.41-.41,1.09-.57,2.22-.6,3.37-.02.83.02,1.65.3,2.44.07.2.2.37.3.57.6-.06.91-.6,1.38-.75.25.03.36.18.42.34.56,1.4,1.21,2.75,2.08,3.98.06.09.14.18.16.28.2.79.81,1.23,1.4,1.69.02.02.07.01.11.02.19,0,.21-.16.28-.28.55-.93.94-1.93,1.31-2.94.31-.86.26-1.77.27-2.66.02-1.01-.18-2-.39-2.98-.1-.45-.27-.88-.51-1.29-.31-.51-.54-1.07-.8-1.61.22-.08.36,0,.52.1.92.65,1.66,1.46,2.28,2.4.21.32.41.67.72.94.1-.1.22-.16.24-.24.21-.81.22-1.62-.06-2.43-.24-.68-.49-1.34-.94-1.92-.26-.34-.49-.71-.75-1.05-.49-.67-.79-1.43-1.11-2.19-.95-2.29-.91-4.6-.23-6.94.04-.14.07-.28.1-.42.09-.58.35-1.09.75-1.52.39-.42.74-.87,1.18-1.24.73-.62,1.6-.92,2.57-1.03.6.3,1.29.38,1.96.4.9.02,1.79.15,2.67.28,1.38.21,2.77.41,4.11.82.58.18,1.18.31,1.77.44,2.21.48,4.42.95,6.62,1.44,2.21.5,4.44.84,6.67,1.23.64.11,1.22.32,1.78.69.68.46,1.38.89,2.08,1.31,1.1.66,1.97,1.52,2.71,2.55,1.26,1.75,2.53,3.49,3.8,5.23.29.4.6.8.82,1.33-.59.06-1.09-.17-1.61-.14-.53.03-1.07-.05-1.61-.04-.54.01-1.07.08-1.61.11-.53.03-1.08,0-1.53.33-.19.27-.16.54.05.7.69.53,1.11,1.3,1.75,1.89.62.57,1.13,1.29,1.52,2.05-.17.2-.27.02-.37-.02-.4-.16-.78-.36-1.18-.51-1.21-.45-2.47-.41-3.72-.25-2,.25-3.9.87-5.72,1.74-.51.25-.96.61-1.49.84-.49.22-.98.43-1.49.59-.17.05-.33.12-.49.2-.06.03-.09.1-.14.15-.04.21.09.35.23.45.78.56,1.58,1.1,2.36,1.67.56.41,1.18.68,1.83.87.86.26,1.73.48,2.59.7.51.13,1.17.08,1.9-.12l.02.48c-.29.37-.66.63-1.03.88-.42.28-.79.61-1,1.08.01.21.16.32.33.38.58.19,1.15.4,1.74.56,1.18.31,2.35.66,3.55.88,1.56.29,3.13.28,4.67-.22.71-.23,1.45-.39,2.18-.56.57-.13,1.14-.07,1.71.04.34.07.59.24.74.6.07.34-.02.69-.14,1.03-.11.3-.27.58-.55.78-.41.28-.81.57-1.29.76-.93.37-1.88.67-2.82,1.01-.67.24-1.34.49-1.91.95-.38.31-.6.7-.66,1.19-.02.2.05.35.26.49.1-.02.23-.04.36-.08,2.14-.61,4.34-.91,6.53-1.26.63-.1,1.29-.13,1.97.16.69.61.96,1.51,1.33,2.42.22.15.48.33.69.47.38,0,.54-.19.59-.46.04-.24.03-.5.03-.74,0-.43,0-.86-.04-1.28-.05-.65.2-1.16.57-1.68.73-1.01,1.66-1.76,2.77-2.3.26-.12.5-.27.74-.43.3-.21.63-.33,1.01-.36.35.16.61.45.89.73.71.7,1.28,1.54,2.03,2.2.19.16.31.39.47.58.28.33.49.71.87.95.09.05.17.14.22.23.6.9,1.41,1.62,2.08,2.46.35.45.77.84,1.15,1.27.35.4.62.88,1.08,1.19.06.04.1.1.14.16.75,1,1.61,1.91,2.52,2.78.08.07.14.16.2.25.75,1.1,1.66,2.07,2.54,3.06.86.97,1.62,2,2.42,3.02.33.42.72.79,1.06,1.2.35.41.67.83,1.07,1.2.6.56,1.09,1.23,1.66,1.82.63.63,1.14,1.37,1.84,1.94.06.05.1.1.15.15.67.79,1.34,1.58,2.01,2.38.73.88,1.4,1.82,2.21,2.62.64.63,1.09,1.42,1.81,1.97.08.06.15.16.21.25.56.88,1.38,1.55,2.03,2.35.52.63,1.14,1.18,1.7,1.78.17.18.31.4.47.59.44.52.77,1.13,1.33,1.55.14.1.24.27.34.42.57.88,1.38,1.55,2.02,2.37.19.25.46.45.7.66.95.81,1.84,1.69,2.82,2.46.93.73,1.77,1.55,2.58,2.4.74.78,1.38,1.64,2.04,2.49.33.42.71.8,1.06,1.2.33.38.58.82,1.01,1.11.14.1.24.26.35.41.56.78,1.26,1.36,2.18,1.67.24.08.46.2.68.31.89-.01,1.58-.45,2.24-.96.2-.16.39-.33.35-.66-.22-.23-.46-.49-.69-.75-.21-.25-.39-.52-.6-.76-.6-.71-1.22-1.4-1.89-2.05-.08-.07-.16-.15-.23-.23-.63-.73-1.25-1.47-1.89-2.19-.4-.45-.81-.9-1.25-1.33-.76-.75-1.54-1.49-2.31-2.22-.68-.63-1.37-1.25-2.05-1.88-.52-.49-1.05-.96-1.51-1.52-.4-.5-.88-.94-1.34-1.38-.77-.74-1.6-1.42-2.32-2.21-.48-.53-1.03-.99-1.52-1.5-.32-.34-.59-.72-.86-1.07-.17-1.06-.35-2.08-.5-3.11-.3-2.09-.84-4.13-1.34-6.18-.44-1.77-1.04-3.5-1.72-5.18-.85-2.08-1.67-4.17-2.52-6.25-.8-1.95-1.53-3.92-2.1-5.95-.61-2.18-.9-4.41-.89-6.68,0-.46.07-.93.12-1.39,1.22-1.65,2.88-2.5,4.84-2.67,1.35-.12,2.73-.04,4.04.43.3.11.59.25.9.36.79.28,1.58.45,2.4.2.75-.79.31-1.62.13-2.42.21-.19.44-.12.63-.05,1.71.53,3.39.34,5.08-.13,1.07-.29,2.12-.62,3.17-.98.74-.26,1.5-.46,2.27-.63.48-.11.96-.28,1.42-.47.19-.07.34-.25.45-.34.11-.31,0-.49-.15-.66-1.43-1.58-2.98-2.45-5.13-2.89-.18-.04-.36-.06-.52-.12-.82-.32-1.67-.33-2.54-.25-.35.03-.72,0-1.07-.04-.81-.11-1.62-.31-2.42-.21-.07-.11-.1-.17-.16-.27.47-.46.9-.98,1.44-1.39.51-.39,1.07-.72,1.5-1.12.02-.26-.11-.31-.26-.35-.35-.1-.7-.1-1.06-.05-1.01.15-1.92.54-2.78,1.07-.64.39-1.27.82-1.86,1.29-1,.79-2.14,1.29-3.3,1.76-.2.08-.4.15-.59.25-.89.43-1.84.58-2.8.66-.2.02-.43-.03-.62-.11-.3-.12-.58-.28-.79-.38-.48-.47-.52-1.01-.65-1.53.19-.61.56-1.1,1.04-1.47,1.09-.83,2.18-1.65,3.33-2.37.65-.41,1.43-.64,2.16-.91,1.58-.57,3.17-1.1,4.76-1.64.71-.24,1.43-.45,2.13-.71.7-.27,1.39-.56,2.02-.99.2-.14.44-.23.66-.34.16-.08.36-.14.45-.28.34-.48.85-.76,1.27-1.15.24-.22.41-.5.48-.82.07-.3.03-.57-.24-.76-.41-.24-.85-.01-1.32-.1.04-.15.03-.31.11-.4.3-.36.61-.69.93-1.03.34-.37.71-.7,1.03-1.09.29-.36.54-.75.69-1.2.33-1.06.7-2.11.86-3.22.03-.2.11-.43-.15-.59-.34.04-.56.28-.75.53-.26.34-.51.69-.74,1.05-.35.55-.77,1.03-1.31,1.4-.18.12-.35.26-.51.4-1.19.98-2.62,1.45-4.09,1.79-1.1.25-2.21.26-3.28-.17-.17-.07-.34-.11-.52-.17-.38-.67-.06-1.27.24-1.82.28-.49.69-.9,1.04-1.35.58-.74,1.35-1.27,2.11-1.82.32-.23.66-.43.88-.78.08-.11.22-.19.33-.27.14-.11.29-.22.44-.32,1.22-.79,2.23-1.78,3.1-2.94.23-.31.5-.61.72-.93.12-.17.18-.38.28-.6-.83-.69-1.73-.85-2.79-.59.04-.19.02-.36.1-.44.64-.72,1.18-1.52,1.83-2.23.55-.6,1.01-1.29,1.45-1.98.48-.75.9-1.54,1.35-2.32.07-.12.12-.26.19-.42-.07-.15-.15-.31-.23-.47-1.19-.34-2.36-.3-3.52.01-1.15.3-2.21.81-3.19,1.48-.8.54-1.56,1.15-2.37,1.68-.82.54-1.47,1.25-2.18,1.91-1.31,1.22-2.45,2.59-3.45,4.08-.6.89-1.17,1.8-1.75,2.7-.16.24-.31.48-.5.69-.19.21-.39.43-.75.4-.04-.08-.13-.17-.13-.26,0-.44.13-.84.32-1.24.52-1.07,1.2-2.03,1.85-3.02.24-.36.46-.73.66-1.1.06-.11.03-.27.04-.37-.23-.24-.45-.15-.64-.09-.31.09-.63.19-.88.38-.81.58-1.65,1.12-2.39,1.81-1,.93-1.69,2.02-2.3,3.2-.2.38-.39.76-.61,1.14-.64,1.13-1.05,2.35-1.39,3.6-.15.55-.32,1.1-.48,1.65-.06.21-.12.41-.17.62-.37,1.57-.72,3.15-1.12,4.71-.33,1.25-.72,2.48-1.1,3.71-.2.62-.56,1.16-1.02,1.64-.31.14-.64.28-1,.43-.51-.03-.92-.28-1.24-.71-.15-.2-.29-.41-.44-.61-.35-.43-.54-.91-.6-1.47-.05-.43-.17-.84-.24-1.27-.14-.85-.25-1.71-.07-2.57.1-.45.22-.91.38-1.34.91-2.5,2.1-4.86,3.77-6.95.51-.64,1.08-1.25,1.74-1.74.66-.49,1.06-1.16,1.38-1.88.18-.4.24-.83.01-1.24-.36-.31-.85-.14-1.3-.37-.05-.1-.17-.26-.17-.42,0-.16.11-.35.23-.46.77-.65,1.59-1.24,2.48-1.71.78-.41,2.32-1.59,3.04-2.18,1.13-.94,1.86-2.16,2.58-3.39.8-1.36,1.46-2.79,2.06-4.25.13-.32.14-.62.03-.96-.11-.06-.23-.13-.34-.19-.68-.13-1.34.33-2.01.03-.05-.37.08-.66.26-.94.73-1.19,1.48-2.36,2.34-3.46,1.43-1.83,2.86-3.66,4.28-5.49.31-.39.61-.8.72-1.3.06-.28.08-.57-.15-.88-.72-.3-1.51-.46-2.35-.34-.99.15-1.94.44-2.86.86-.63.28-1.2.63-1.76,1.02-.5.34-1.02.65-1.55.96-.77.44-1.53.93-2.14,1.61-.12.13-.25.26-.39.36-.91.64-1.68,1.43-2.44,2.25-.26.28-.58.53-.87.69-.29-.03-.38-.2-.39-.37-.03-.71-.06-1.43-.03-2.15.03-.71.03-1.42-.03-2.15-.67-.23-1.28-.16-1.87.2-.27.17-.57.29-.9.46-.22.21-.46.48-.74.7-2.09,1.75-3.54,3.91-4.2,6.57-.3,1.22-.58,2.44-.87,3.66-.02.1-.07.2-.1.29-.2.11-.28-.04-.34-.14-.13-.21-.23-.44-.32-.67-.13-.33-.23-.67-.34-.98-.53-.18-.89.03-1.16.39-.27.37-.5.78-.59,1.25-.23,1.13-.34,2.26-.15,3.42.15.92.27,1.84.29,2.78.02.68-.18,1.27-.48,1.84-.18.35-.42.67-.63,1-.29.12-.57.25-.81.52-.3-.1-.6-.21-.82-.29-.93-.93-1.05-1.98-.92-3.15.13-1.14.27-2.28.57-3.39.14-.52.21-1.06.3-1.59.14-.81.25-1.63.4-2.44.29-1.49.34-2.99.22-4.5-.08-1.04-.19-2.06-.5-3.06-.13-.42-.3-.79-.62-1.04-.33-.03-.44.15-.54.35-.11.2-.25.34-.53.35-.18-.59-.22-1.2-.29-1.8-.16-1.39-.54-2.71-1.15-3.99-.74-1.54-1.79-2.85-2.82-4.18-.35-.45-.77-.85-1.19-1.23-.2-.18-.43-.4-.81-.29-.32,1.52-.39,3.1-.63,4.6-.28.19-.39.04-.47-.12-.27-.58-.55-1.16-.77-1.77-.46-1.26-1.14-2.39-1.93-3.45-.62-.84-1.24-1.68-1.88-2.49-.4-.5-.89-.92-1.26-1.45-.35-.5-.72-.97-1.2-1.37-.27-.23-.44-.57-.68-.83-.38-.42-.78-.83-1.19-1.23-.12-.12-.31-.18-.43-.24-.38.02-.56.23-.68.51-.26.6-.33,1.25-.37,1.89-.04.61,0,1.22,0,1.83,0,.47,0,.93-.02,1.4-.02.4-.12.78-.37,1.1-.28.14-.49,0-.68-.17-.39-.37-.76-.76-1.15-1.12-.12-.11-.3-.15-.51-.25-.06.19-.16.32-.15.44.14,1.5.32,3,.9,4.4.41.99.75,2,1.24,2.96.21.4.38.85.36,1.34,0,.18-.02.36-.22.45-.63-.12-1-.81-1.64-.8-.21.14-.16.29-.15.43.07.76.34,1.46.6,2.16.34.94.77,1.84,1.13,2.78.41,1.07.72,2.17.77,3.33.01.25-.03.49-.06.81-.21-.09-.4-.12-.52-.22-.19-.16-.33-.38-.49-.57-.89-1.1-1.95-1.99-3.24-2.58-.32-.15-.64-.32-1.05-.26-.21.9.67,1.58.52,2.47-.12,0-.24.01-.33-.03-1.14-.54-2.12-1.31-3.03-2.18-.38-.37-.76-.74-1.18-1.15-.13.13-.28.2-.31.31-.05.16-.05.35-.03.53.1.93.25,1.84.51,2.74.33,1.17.68,2.33,1.16,3.45.38.89.77,1.78,1.45,2.49.59.61,1.23,1.19,1.87,1.76.5.45,1.04.86,1.56,1.31.09.08.12.23.21.4-.31.12-.57.22-.85.33-.02.09-.09.2-.07.29.07.27.18.54.26.76.91.97,2.03,1.54,3.11,2.16,1.97,1.11,3.84,2.36,5.62,3.73.79.61,1.59,1.21,2.21,2.01.17.22.43.38.61.6.56.66.87,1.47,1.24,2.24.06.12.05.28.07.4-.13.32-.38.44-.64.55-.84-.12-1.58-.47-2.24-.99-1.46-1.15-2.92-2.29-4.36-3.46-.64-.52-1.3-1-2.02-1.41-1.09-.62-2.22-1.17-3.38-1.64-.47-.19-.94-.31-1.41-.28-.22.16-.24.36-.18.52.13.37.22.75.47,1.08.42.54.71,1.15.94,1.82-.19.14-.32-.04-.42-.12-1.3-.96-2.79-1.44-4.35-1.75-.56-.11-1.13-.22-1.69-.32-.39-.07-.78-.06-1.12.14-.07.38.05.67.25.94.3.4.6.81.89,1.22.1.14.17.3.29.51-.72.08-1.33-.2-1.97-.2-.65,0-1.27.16-1.88.27-.51-.34-.9-.75-1.25-1.21-.25-.34-.49-.7-.86-.96-.2-.14-.33-.38-.48-.57-.56-.7-1.02-1.48-1.72-2.06-.16-.13-.27-.34-.4-.51-.53-.68-1.02-1.38-1.64-1.98-.61-.6-.99-1.4-1.67-1.95-.14-.11-.23-.28-.34-.42-.68-.92-1.37-1.85-2.05-2.77-.26-.34-.49-.7-.84-.97-.25-.19-.41-.49-.61-.75-.44-.56-.86-1.13-1.38-1.64-.51-.49-.89-1.13-1.32-1.7-.24-.31-.43-.66-.78-.88-.14-.09-.24-.26-.35-.4-.47-.59-.86-1.24-1.47-1.7-.14-.11-.22-.29-.33-.42-.33-.38-.63-.77-.99-1.12-.44-.42-.77-.95-1.14-1.43-.24-.31-.47-.62-.78-.88-.29-.25-.49-.61-.74-.92-.55-.7-1.02-1.47-1.71-2.06-.27-.23-.47-.54-.67-.84-.13-.2-.22-.44-.3-.68-.06-.17-.07-.35-.11-.53-.36-2.04-.79-4.07-1.24-6.1-.08-.38-.07-.78-.13-1.16-.11-.63-.25-1.26-.36-1.9-.32-1.94-.72-3.87-.89-5.84,0-.07,0-.15-.03-.21-.4-1.14-.35-2.33-.42-3.51-.05-.79-.09-1.57,0-2.36.11-1,.08-2,.12-3,.01-.28.04-.58.12-.85.36-1.27.74-2.54,1.11-3.81.02-.07.03-.14.07-.2.5-.91.93-1.86,1.55-2.7.47-.63,1.03-1.21,1.64-1.68,1.16-.89,2.41-1.66,3.9-1.92,1.16-.2,2.31-.15,3.4.22,1.57.54,3.14.64,4.76.37,1.49-.25,2.93-.62,4.34-1.17.56-.22,1.13-.45,1.69-.65.7-.25,1.04-.84,1.52-1.31.11-.11.12-.33.16-.44-.03-.42-.27-.64-.5-.87-1.04-.39-2.17-.49-3.13-1.08-.14-.46.08-.7.52-.9.39,0,.85,0,1.31-.04.71-.04,1.44-.05,2.14-.16.89-.14,1.73-.43,2.47-.97.38-.28.75-.55,1.14-.82.39-.27.72-.58.91-1.02,0-.21-.13-.32-.29-.42-.58-.36-1.22-.38-1.87-.4-.39-.01-.79,0-1.18-.07-.61-.09-1.05-.43-1.31-.99-.02-.05.02-.13.05-.25.12,0,.26-.03.39-.02,1.08.1,2.15-.03,3.2-.28.83-.2,1.62-.56,2.33-1.05.77-.53,1.53-1.07,2.28-1.62.67-.49,1.17-1.15,1.71-1.77,1.01-1.16,1.95-2.38,2.64-3.76.14-.29.31-.57.14-.99-.99-.75-2.14-1.07-3.46-.86-1.32.2-2.57.6-3.78,1.15-1.34.61-2.61,1.35-3.79,2.21-.64.47-1.37.76-2.01,1.12-.23-.05-.29-.19-.25-.32.14-.48.31-.95.47-1.43.13-.37.27-.74.39-1.12.04-.13.03-.28.05-.43-.11-.15-.21-.29-.3-.41-.38-.17-.71-.15-1.08-.03-1.22.41-2.44.8-3.53,1.51-.33.21-.7.36-1.04.55-.7.39-1.21,1.01-1.75,1.57-.94.98-1.81,2.02-2.48,3.21-.21.37-.5.69-.76,1.03-.2.26-.43.48-.79.54-.04-.1-.12-.2-.1-.28.07-.31.13-.64.27-.92.27-.54.57-1.08.89-1.59.29-.46.48-.96.66-1.46.06-.18.01-.35-.17-.52-.62-.06-1.25.12-1.82.39-1.06.51-2.19.9-3.13,1.64-.06.04-.12.09-.18.12-1.06.35-1.64,1.22-2.22,2.08-.38.56-.71,1.16-1.04,1.75-.47.83-1.08,1.51-1.9,2-.19.12-.38.18-.58.01.03-.11.05-.21.07-.31-.11-.09-.21-.18-.32-.26,0-.08-.03-.15-.02-.22.28-1.23.75-2.39,1.32-3.51.24-.47.58-.9.88-1.34.51-.73,1.15-1.36,1.78-1.99.76-.77,1.63-1.39,2.51-2.01.52-.37,1.05-.74,1.64-1.01.61-.28,1.14-.74,1.7-1.13.68-.47,1.35-.96,2.02-1.44.87-.63,1.6-1.42,2.38-2.16.62-.59,1.2-1.22,1.74-1.88.94-1.15,1.6-2.46,2.07-3.86.05-.14.07-.28.09-.42.02-.1,0-.21.01-.38-.15-.1-.3-.27-.48-.32-.2-.05-.42-.02-.63.01-.27.04-.53.12-.8.18-.05-.23.03-.39.16-.52.43-.43.81-.91,1.15-1.41.69-1.02,1.15-2.15,1.48-3.32.47-1.69.84-3.41,1.04-5.17.05-.4.04-.78-.08-1.19-.45-.3-.94-.3-1.44-.14-.61.2-1.21.44-1.81.65-.55.19-1.04.48-1.5.81-.97.69-1.93,1.37-2.89,2.07-.46.34-.95.64-1.27,1.14-.84.62-1.67,1.25-2.52,1.84-.14.1-.4.04-.62.06-.19-.68.07-1.15.48-1.59.59-.64,1.29-1.13,1.97-1.66,1.73-1.34,3.05-3.01,3.78-5.09.21-.61.33-1.25.49-1.87-.06-.1-.12-.19-.17-.27-.09,0-.17-.03-.22,0-1.26.69-1.28.7-2.51.85.25-.58.5-1.16.74-1.75.08-.2.14-.41.19-.61.26-1.04.52-2.09.78-3.13.08-.31.15-.63.19-.95.16-1.14.52-2.23.9-3.31.24-.68.48-1.35.7-2.03.13-.41.22-.82.24-1.32-.3.03-.54.03-.78.08-.35.06-.69.18-1.04.23-1.46.21-2.86.63-4.22,1.2-.13.05-.27.1-.39.17-1.16.65-2.3,1.31-3.35,2.13-.25.2-.49.4-.69.67-.58.77-1.23,1.49-1.8,2.26-.4.55-.72,1.15-1.06,1.74-.2.34-.36.7-.56,1.04-.08.14-.22.25-.32.36-.32-.05-.4-.26-.47-.46-.27-.78-.41-1.59-.49-2.41-.03-.29-.04-.58-.1-.85-.04-.16-.16-.31-.27-.5-.16.06-.3.08-.41.15-.3.19-.59.41-.89.61-.33.23-.58.51-.82.84-.59.81-1.14,1.64-1.61,2.53-.82,1.56-1.18,3.23-1.28,4.96-.06.93-.05,1.86-.09,2.79-.02.6-.09.81-.47,1.53-.41.3-.83.11-1.21-.07-.58-.29-1.03-.75-1.5-1.2-.05-.05-.09-.11-.12-.18-.63-1.28-1.35-2.52-1.56-3.97-.11-.81-.32-1.6-.48-2.39-.28.01-.45.16-.56.34-.35.58-.72,1.15-1.03,1.76-.58,1.16-1,2.38-1.29,3.64-.36,1.59-.37,3.2-.08,4.81.12.67.27,1.33.4,2,.07.38.13.77.19,1.14-.1.06-.16.09-.22.12-.19-.05-.29-.21-.36-.37-.22-.49-.39-1-.63-1.47-.12-.23-.22-.54-.59-.58-.34.36-.42.82-.44,1.28-.02.42,0,.85.11,1.28.35,1.35.7,2.7,1.26,3.98.27.62.55,1.23.85,1.85.32.68.77,1.29,1.12,1.95.83,1.58,1.73,3.12,2.1,4.9.16.77.45,1.51.53,2.3.22,1.96.37,3.92.22,5.9-.05.72-.28,1.41-.49,2.09-.12.38-.34.73-.7.93-.32.18-.53.46-.74.73-.82.12-1.42-.27-1.91-.82-.79-.89-1.42-1.88-1.81-3.02-.55-1.62-1.08-3.25-1.6-4.88-.44-1.39-.89-2.79-1.48-4.13-.16-.36-.32-.72-.54-1.04-.47-.68-.96-1.35-1.44-2.02-.15-.21-.34-.38-.69-.29-.26.3-.21.7-.24,1.09-.03.36-.05.71-.09,1.07-.01.09-.11.17-.15.24-.25.03-.36-.14-.41-.3-.3-.8-.67-1.57-1.05-2.34-.44-.87-1.03-1.64-1.66-2.37-.32-.38-.72-.69-1.07-1.04-.64-.63-1.41-1.09-2.17-1.55-1.43-.87-2.84-1.79-4.23-2.74-.18-.12-.35-.25-.55-.33-.12-.06-.27-.04-.44-.07-.52.81-.92,1.63-.9,2.61,0,.11,0,.22-.02.32-.27,1.71.03,3.35.65,4.94.28.73.56,1.47.82,2.21.08.23.11.47.17.74-1.07-.33-1.6-1.39-2.62-1.72-.49.26-.63.73-.64,1.18-.02.75.06,1.5.12,2.25.03.32.17.61.35.89.58.91,1.26,1.73,2.11,2.42.8.65,1.57,1.34,2.35,2.02.27.24.3.33.31.85-.13.2-.33.28-.55.25-.32-.05-.63-.12-.94-.2-.54-.15-.54-.16-1.26-.04-.2.54.45.8.38,1.25,1.37,1.23,2.9,2.04,4.6,2.56.62.19,1.22.42,1.83.64.2.07.4.16.61.2.5.09.95.3,1.4.53.61.3,1.22.6,1.84.88.95.44,1.77,1.09,2.55,1.76.46.4.91.8,1.37,1.19,1.27,1.06,2.76,2.79,3.6,4.24.5.87.91,1.79.86,2.87-.18.67-.79.93-1.37,1.29-.48-.08-.93-.29-1.37-.52-.83-.43-1.66-.85-2.48-1.3-.7-.38-1.42-.67-2.16-.96-1.35-.55-2.74-.79-4.19-.87-.86-.04-1.72-.1-2.58-.08-.18,0-.35-.03-.57-.06-.16-.23-.33-.46-.5-.69-1.06-1.5-2.12-2.99-3.17-4.49-.22-.32-.37-.69-.58-1.02-.34-.55-.72-1.07-1.06-1.62-.3-.48-.57-.99-.85-1.48-.26-.47-.58-.89-.8-1.39-.27-.62-.66-1.18-.97-1.79-.29-.57-.66-1.1-.94-1.68-.26-.54-.6-1.05-.89-1.59-.37-.69-.76-1.37-1.16-2.05-.95-1.64-1.74-3.36-2.23-5.19-.16-.59-.35-1.16-.51-1.75-.25-.93-.49-1.87-.73-2.8-.22-.83-.4-1.67-.44-2.53-.03-.57-.09-1.14-.18-1.71-.22-1.41.05-2.79.29-4.16.05-.28.17-.55.26-.82.09-.31.2-.61.26-.93.32-1.56,1.11-2.84,2.17-4,.58-.63,1.34-.93,2.04-1.32.68-.39,1.44-.62,2.1-1.06.18-.12.38-.18.58-.26,1.46-.6,2.83-1.35,4.12-2.28,1.21-.87,2.23-1.88,3.13-3.06.73-.97,1.54-1.88,2.3-2.82.11-.14.19-.31.04-.49-.36-.12-.69.05-1.02.15-1.34.38-2.7.69-4.09.87-.5.07-1,.07-1.5.08-.12,0-.24-.1-.44-.19.19-.17.3-.33.46-.38.66-.22,1.19-.66,1.75-1.03.51-.34.98-.73,1.5-1.06,1.42-.9,2.46-2.17,3.33-3.58.51-.82.96-1.68,1.45-2.51.32-.54.51-1.1.54-1.79-.08-.13-.19-.31-.28-.47-.67-.32-1.37-.22-2-.31-.15-.16-.12-.28-.06-.42.2-.5.39-1,.6-1.5.52-1.24.83-2.51.87-3.86.02-.68.07-1.36.13-2.04.04-.47.02-.92-.03-1.4-.6-.3-1.2-.34-1.8-.16-1.09.32-2.2.64-3.14,1.33-.17.13-.38.2-.57.3-.16.09-.34.15-.45.27-.59.67-1.27,1.24-1.85,1.93-.87,1.03-1.5,2.18-2.02,3.4-.27.63-.61,1.21-1,1.78-.07.1-.21.16-.28.21-.25-.03-.31-.18-.34-.31-.16-.67-.17-1.35-.2-2.03-.02-.43-.09-.85-.16-1.27-.02-.12-.14-.23-.21-.34-.41,0-.64.24-.81.51-.21.33-.37.69-.51,1.06-.33.84-.57,1.7-.7,2.59-.22,1.5-.63,2.94-1.2,4.34-.11.26-.22.53-.37.78-.11.18-.27.34-.53.32-.19-.04-.29-.2-.34-.37-.17-.51-.32-1.02-.35-1.56-.05-.71-.12-1.42-.18-2.07-.2-.18-.35-.11-.42,0-.17.27-.31.56-.44.85-.68,1.63-1.12,3.33-1.27,5.09-.06.71-.08,1.43-.07,2.15.04,2.81-.31,5.59-.89,8.33-.27,1.31-.9,2.49-1.69,3.57-.33.45-.75.72-1.46,1.02-.24-.06-.33-.27-.4-.47-.64-1.8-1.05-3.64-1.04-5.56,0-.47-.03-.93-.05-1.4-.04-1.24.33-2.4.65-3.58.57-2.1,1.61-3.98,2.7-5.83.86-1.46,1.51-3,2.04-4.6.46-1.41.67-2.86.85-4.33.07-.57.05-1.14.06-1.72,0-.17-.06-.35-.09-.54-.7-.29-1.15.25-1.66.46-.26-.08-.24-.27-.2-.44.18-.69.39-1.38.56-2.08.14-.59.25-1.2.34-1.8.44-3.08.33-6.15-.34-9.19-.15-.69-.38-1.37-.56-2.03-.53-.33-1.02-.23-1.46.05-1.06.68-2.07,1.41-2.71,2.55-.36.65-.81,1.26-1.19,1.91-.54.93-.92,1.94-1.29,2.95-.17.47-.27.97-.6,1.37-.26-.03-.36-.24-.41-.43-.09-.34-.15-.7-.21-1.05-.07-.42-.14-.84-.2-1.2-.2-.2-.38-.21-.54-.13-.33.16-.6.37-.77.72-.28.58-.61,1.14-.88,1.72-.51,1.09-.71,2.25-.75,3.44-.06,1.9,0,3.79.08,5.69.02.54.01,1.07,0,1.61-.02.62-.22,1.19-.48,1.73-.21.24-.47.29-.7.14-.42-.27-.85-.55-1.2-.9-.44-.43-.69-.98-.78-1.61-.1-.79-.14-1.56-.05-2.36.16-1.43.34-2.85.59-4.26.31-1.78.28-3.57.19-5.36-.02-.32-.08-.64-.15-.95-.03-.13-.13-.24-.19-.35-.58.03-.75.55-1.08.83-.2,0-.25-.12-.27-.27-.13-1.03-.24-2.06-.56-3.06-.27-.81-.59-1.6-1-2.36-.39-.73-.81-1.43-1.28-2.11-.4-.58-.96-.95-1.57-1.26-.08-.04-.2,0-.29,0-.05.08-.11.14-.11.2-.04.46-.08.93-.09,1.4-.04,1.58-.57,3.02-1.27,4.4-.19.39-.45.74-.95.93-.1-.02-.27-.06-.45-.09-.46-.61-.98-1.16-1.2-1.91-.72-1.07-1.08-2.33-1.82-3.4-.24-.35-.33-.79-.61-1.12-.09-.11-.18-.22-.28-.34-.14,0-.27-.02-.38-.03-.07.1-.15.15-.15.21-.02.25-.05.5-.03.75.03.45-.09.86-.3,1.24-.06.12-.19.2-.28.29-.6-.01-.95-.41-1.27-.77-.67-.74-1.29-1.53-1.94-2.29-.49-.57-.99-1.13-1.52-1.66-.76-.76-1.53-1.49-2.33-2.21-.37-.33-.79-.61-1.2-.9-.19-.13-.41-.11-.61.06-.2.22-.21.52-.18.8.05.5.12,1,.23,1.48.37,1.64.76,3.27,1.14,4.91.11.45.22.91.09,1.38q-.41.43-1.41.61c-.17.13-.18.32-.11.48.22.49.48.96.71,1.44.55,1.16,1.15,2.3,1.49,3.55.12.45.25.9.05,1.37-.17.26-.41.38-.71.42-.66.08-1.28-.07-1.91-.23-.45-.11-.9-.25-1.35-.36-.13-.03-.26,0-.41,0,.09.52.31.92.59,1.3.54.72,1.04,1.47,1.58,2.18.66.88,1.06,1.87,1.27,2.93.15.76.42,1.44.9,2.04.42.53.76,1.11,1.3,1.57.72.62,1.51,1.09,2.42,1.35,1.28.36,2.46.98,3.68,1.5.69.3,1.37.62,2.03.97.5.27.98.59,1.46.9.52.34.93.78,1.24,1.37-.03.14-.07.3-.1.45-.4.15-.74.15-1.1.05-1.01-.27-1.98-.63-2.91-1.11-.95-.49-1.88-1.04-2.81-1.55-.25,0-.5,0-.74-.03-.35-.05-.71-.12-1.05-.22-1.57-.47-3.18-.47-4.8-.41-.21,0-.43.05-.63.12-.22.07-.36.23-.29.56.86.54,1.99.67,2.82,1.5.01.11.04.28.06.44-.11.04-.17.1-.23.09-.36-.03-.71-.07-1.07-.13-.57-.1-1.14-.18-1.69-.33-1.9-.5-3.78-.27-5.65.11-.77.16-1.52.4-2.27.62-.16.05-.3.16-.46.25.11.41.36.67.57.95.24.31.48.63.77.89.27.24.52.47.65.83-3.03.69-5.98,1.51-8.8,3.05-.27.49-1.01.74-1.15,1.51.11.05.19.13.29.14.5.03,1.01.09,1.5.05,1.86-.14,3.72-.06,5.58,0,1.01.03,2,.15,2.99.32.82.14,1.58.46,2.35.76.25.1.42.27.53.57-.1.11-.19.26-.32.37-.31.25-.63.47-.95.71-.15.12-.23.27-.16.53.15.08.32.21.52.28,2.51.87,5.06.89,7.62.25.55-.14,1.11-.26,1.67-.41.65-.18,1.31-.36,1.95-.58,1.13-.38,2.28-.6,3.47-.58.35,0,.71-.02,1.02.2-.12.34-.41.42-.66.54-.33.14-.66.26-1,.37-.35.11-.66.3-.9.57-.1.12-.12.31-.19.51.41.22.8.24,1.19.23.43-.01.86-.03,1.28-.11,1.11-.2,2.21-.21,3.32-.03,1.24.2,2.48.4,3.69.75,1.84.54,3.52,1.42,5.09,2.5.65.44,1.2,1.02,1.6,1.71.3.52.43,1.06.13,1.66-.12.1-.26.21-.39.33-.84.8-1.86.96-2.98.93-.98-.03-1.91-.27-2.86-.46-1.07-.2-2.08-.55-3.06-1-.91-.42-1.8-.87-2.71-1.31-.55-.26-1.1-.51-1.66-.75-.2-.08-.41-.12-.62-.17-.1-.02-.21,0-.31,0-.14.17-.13.35-.02.5.26.36.38.77.5,1.18.06.21.06.43-.15.65-.35.21-.78.18-1.2.08-.94-.22-1.88-.48-2.82-.69-2.39-.52-4.8-.87-7.26-.58-.75.09-1.49.17-2.24.26-.75.1-1.44.4-2.12.71-.59.27-1.15.58-1.65.99-.1.08-.16.22-.23.32.21.39.6.43.9.58.3.15.65.22.91.45-.14.25-.34.22-.51.22-1.13.01-2.18.38-3.22.75-.5.18-.99.4-1.48.62-.66.3-1.25.7-1.76,1.22-.07.07-.07.2-.11.31.61.65,1.43.95,2.23,1.21,2.73.87,5.52,1.22,8.39.9,1.21-.13,2.43-.18,3.64-.27.68-.05,1.36-.12,2.03-.17.75-.06,1.5-.04,2.25.1.36.07.69.18.95.51-.17.22-.33.45-.55.74-.89.31-1.83.64-2.77.98-.98.35-1.99.57-3,.79-.97.22-1.97.26-2.92.58.02.42.26.65.53.82,1.47.89,3.02,1.43,4.79,1.27,1.22-.11,2.41-.34,3.59-.63.28-.07.55-.15.84-.19.08-.01.17.08.33.15-.54.32-1.03.61-1.51.91-.48.3-.97.6-1.41,1.01.08.11.12.21.2.27.6.41,1.26.49,1.96.37.99-.18,1.92-.54,2.87-.87.51-.18.98-.44,1.42-.74.29-.2.62-.34.93-.52.19-.11.37-.22.55-.34.91-.64,1.85-1.25,2.73-1.92.86-.65,1.81-1.15,2.73-1.7.15-.09.33-.14.49-.2,1.05-.36,2.13-.6,3.22-.82.39-.08.78-.1,1.17.01.42.12.8.31,1.08.66.16.2.29.41.42.59q-.04.87-.52,1.63c-1.26.39-2.43.98-3.62,1.56-1.04.51-1.98,1.16-2.87,1.88-.53.43-1.01.9-1.51,1.37-.14.13-.17.3-.06.53.58.16,1.29-.08,1.83.48-.17.13-.29.26-.44.34-.6.31-1.22.59-1.81.91-.31.17-.64.35-.89.6-.8.82-1.53,1.7-2.09,2.7-.39.68-.76,1.38-1.11,2.09-.63,1.27-.98,2.62-1.1,4.02,0,.1.04.2.06.32.12,0,.22.01.32-.01.72-.19,1.47-.34,2.17-.6,1.52-.57,2.91-1.39,4.14-2.44.79-.67,1.5-1.43,2.16-2.22.13-.16.31-.28.45-.4.23.11.16.26.15.39-.09.89-.18,1.78-.28,2.68-.03.33-.05.65.33.89.1-.03.24-.05.35-.12.39-.26.76-.54,1.15-.8.88-.61,1.48-1.45,1.91-2.4.54-1.21,1.03-2.44,1.58-3.65.57-1.24,1.3-2.38,2.38-3.27.3-.25.56-.55.85-.81.61-.53,1.33-.81,2.1-1.03,1.19-.35,2.27-.09,3.31.45.57.29,1.08.7,1.62,1.04.38.24.57.56.72,1,.81,2.44,1.8,4.81,2.75,7.19.54,1.36,1.18,2.67,1.81,3.99.26.55.6,1.05.89,1.59.59,1.1,1.29,2.15,1.96,3.21.36.57.78,1.1,1.07,1.73.25.55.66,1.02,1.01,1.52.35.5.71.99,1.06,1.49.37.53.73,1.05,1.02,1.64.31.64.76,1.21,1.19,1.79.39.52.59,1.12.93,1.74-1.81.47-3.45,1.15-5.02,2.11-1.16.94-2.12,2.12-2.8,3.61.2,0,.36.06.46.01,1.36-.62,2.76-.62,4.21-.37,1.1.19,1.88.81,2.6,1.58.12.13.22.28.32.43.41.59,1,.91,1.68,1.08,1.05.26,2.11.42,3.19.12.2-.06.42-.05.67-.08.37.5.73.99,1.1,1.48.45.6.9,1.19,1.45,1.72.69.67,1.26,1.47,1.91,2.17.75.81,1.39,1.72,2.22,2.46.16.14.27.34.4.5.8.96,1.43,2.06,2.34,2.94.43.42.72.99,1.11,1.46,2.99,3.63,5.64,7.52,8.42,11.31.23.32.43.67.78.88.09.05.14.16.21.25,1.26,1.61,2.52,3.22,3.77,4.83.53.68,1.02,1.39,1.54,2.08.28.37.52.77.92,1.04.17.12.27.33.41.5.43.53.79,1.1,1.32,1.55.27.23.45.56.66.85.56.75,1.08,1.53,1.67,2.25.81.99,1.61,2.01,2.53,2.91.15.15.27.34.4.5.47.59.91,1.19,1.45,1.73.5.5.89,1.13,1.32,1.7.34.46.67.93,1.11,1.31.27.23.44.56.67.84.34.41.61.88,1.07,1.2.17.12.28.33.41.49.38.47.72.98,1.2,1.37.19.15.31.39.47.59.43.53.77,1.13,1.33,1.54.06.04.1.11.14.16.67.79,1.3,1.62,2.03,2.36.79.79,1.38,1.74,2.11,2.57.71.8,1.39,1.64,2.05,2.49.58.39.9,1.02,1.34,1.53.11.13.18.29.3.49-.16.02-.26.06-.35.04-1.52-.25-3.05-.5-4.57-.77-.95-.17-1.9-.39-2.85-.57-1.09-.21-2.2-.34-3.29-.59-1.78-.41-3.6-.67-5.35-1.19-.65-.19-1.29-.42-1.93-.66-1.58-.59-3.12-1.27-4.65-1.96-.79-.35-1.54-.76-2.09-1.46-.13-.16-.31-.3-.49-.41-.65-.4-1.04-1.08-1.65-1.53-.14-.1-.22-.28-.33-.42-.29-.36-.61-.7-.92-1.04-.65-.71-1.26-1.47-1.64-2.38-.22-.52-.51-1.02-.77-1.53-.76-1.49-1.21-3.06-1.08-4.75.04-.5.15-.98.31-1.47.54-1.62,1.36-3.06,2.47-4.36.58-.68,1.12-1.39,1.47-2.23.23-.54.4-1.08.17-1.72-.18-.04-.38-.08-.59-.12-.22.16-.42.31-.63.45-.17.11-.18.41-.5.42-.02-.2-.08-.41-.05-.61.15-1.14-.1-2.21-.49-3.26-.6-1.59-1.43-3.04-2.52-4.34-.16-.19-.32-.4-.61-.36-.24.12-.24.35-.24.56,0,.86,0,1.72.02,2.58.03.97.04,1.94-.14,2.89-.05.24-.12.48-.19.75-.14.05-.27.09-.45.15-.11-.38-.23-.71-.31-1.05-.3-1.33-.56-2.66-.75-4.01-.18-1.32-.56-2.58-.99-3.83-.27-.79-.63-1.52-1.13-2.18-.34-.45-.59-.98-.98-1.34-.33-.02-.45.15-.5.37-.09.42-.15.84-.23,1.25-.22.11-.27-.06-.33-.16-.07-.12-.11-.26-.16-.39-.4-1.08-.92-2.09-1.52-3.06-.41-.67-.81-1.35-1.13-2.06-.17-.36-.37-.69-.57-1.03-.22-.37-.49-.7-.62-1.12-.07-.23-.25-.44-.41-.63-.08-.09-.24-.11-.4-.18-.11.13-.21.23-.28.35-.54.86-.91,1.79-1.06,2.8-.03.21-.07.43-.12.64-.31,1.38-.36,2.78-.34,4.17.03,1.92.52,3.74,1.41,5.45.21.4.36.84.52,1.23-.16.17-.28.15-.42.07-.66-.36-1.22-.87-1.78-1.37-.27-.24-.53-.46-.86-.64-.29.29-.4.62-.4.99-.02,1.67.24,3.26.98,4.79.57,1.16,1.15,2.3,1.93,3.33.19.25.35.53.55.84-.45.17-.81-.14-1.36-.02-.09.06-.33.21-.53.34-.05.44.04.78.28,1.07.32.38.6.79.97,1.14.69.67,1.29,1.43,1.91,2.18.46.55.81,1.2,1.31,1.7.85.84,1.46,1.85,2.19,2.79.4.51.77,1.04,1.11,1.59.87,1.37,1.44,2.87,1.65,4.49.04.28.06.56-.11.82-.46.04-.83-.19-1.22-.38-1.73-.82-3.25-1.93-4.64-3.24-.1-.1-.19-.21-.28-.33-.22-.28-.45-.56-.66-.85-.7-.95-1.37-1.92-1.86-3.01-.63-1.4-1.23-2.8-1.58-4.31-.22-.94-.55-1.85-1.04-2.69-.14-.24-.22-.53-.34-.78-.35-.7-.69-1.41-1.15-2.06-.33-.46-.51-1.01-.86-1.48-.61-.84-1.21-1.69-2.03-2.38-.09,0-.19-.01-.29-.02-.53.63-.29,1.47-.64,2.18-.38-.28-.62-.66-.76-1.05-.18-.49-.46-.89-.75-1.3-.57-.83-1.18-1.63-1.75-2.46-.47-.69-1.12-1.21-1.67-1.82-.4-.45-.92-.79-1.31-1.25-1.01-1.19-2.27-2.07-3.53-2.93-.68-.46-1.41-.84-2.12-1.27-.26-.16-.52-.23-.88-.17-.35.37-.57.84-.68,1.38-.13.71-.11,1.43-.02,2.14.27,2.04.83,3.98,1.75,5.82.44.89.82,1.82,1.21,2.74.16.39.32.79.16,1.25-.13,0-.24.03-.33,0-1.44-.5-2.69-1.32-3.83-2.31-.21-.19-.45-.36-.68-.51-.08-.05-.2-.03-.32-.05-.23.46-.21.93-.08,1.37.4,1.45.88,2.87,1.79,4.1.62.84,1.36,1.56,2.17,2.21,1.06.84,2.19,1.6,3.27,2.41.4.3.82.6,1.13.97.53.63.99,1.32,1.48,1.99.06.09.12.18.15.29.08.27.15.54.22.81-.33.31-.74.36-1.12.31-.49-.07-1.01-.15-1.45-.36-1.37-.63-2.65-1.39-3.71-2.5-1.03-1.08-2.14-2.09-3.21-3.14-.08-.07-.15-.16-.2-.25-.71-1.11-1.8-1.84-2.83-2.59-1.19-.87-2.55-1.45-3.91-2-.6-.24-1.22-.43-1.81-.69-.84-.38-1.7-.55-2.61-.51-1.33.06-2.62.26-3.79.84-.09.21-.06.34.06.44.05.04.12.09.18.11,1.21.5,2.14,1.42,3.18,2.16.35.25.65.56.94.87.37.38.5.86.45,1.33-.14.27-.34.32-.57.32-.87.03-1.71-.14-2.51-.47-.53-.21-1.07-.42-1.6-.63-.95-.37-1.92-.57-2.94-.52-.64.03-1.27.05-1.9.08-.03.12-.04.18-.06.26.54.59,1.35.95,1.63,1.8-.07.22-.29.18-.43.16-.43-.04-.86-.08-1.27-.2-.91-.26-1.84-.3-2.77-.22-1,.09-1.99.23-2.98.37-.99.14-1.98.31-2.97.49-.42.07-.82.2-1.33.32,0,.18-.01.36-.02.57.45.79.96,1.55,1.69,2.18.51.44,1,.92,1.53,1.33.6.46,1.24.85,1.94,1.14.42.18.86.35,1.26.68-.39.67-1.23.33-1.72.83.08.14.12.33.25.43,1.19.92,2.4,1.8,3.81,2.37.47.19.95.31,1.45.38.71.11,1.42.21,2.13.35.46.09.9.23,1.35.37.25.08.42.27.45.61-.25.47-.76.68-1.21.94-.45.26-1.03.23-1.42.56-.02.31.14.49.29.61.44.36.84.78,1.37,1.02.52.23,1.04.49,1.58.68.83.3,1.68.31,2.54.07.34-.1.7-.16,1.04-.24.33-.08.64-.05.94.09.35.28.27.63.14,1.01-.3.35-.7.65-.94,1.14.15.05.24.11.33.11,2.39.01,4.7-.34,6.9-1.32.07-.03.13-.06.19-.09.74-.43,1.48-.86,2.23-1.29.12-.07.25-.15.38-.2,1.05-.44,2.11-.86,3.16-1.3.9-.38,1.86-.52,2.81-.65.8-.11,1.56.09,2.3.4.15.2.1.4,0,.6-.45.46-1.05.6-1.63.77-.38.11-.76.2-1.15.27-1.1.19-2.13.59-3.2.88-.67.18-1.2.64-1.85.84-.94.67-1.87,1.33-2.81,2-.21.15-.38.33-.32.68.45.44,1.17.41,1.71.77-.27.37-.63.74-1.08.93-1.21.5-2.21,1.34-3.23,2.11-.65.49-1.26,1.06-1.83,1.65-.7.71-1.43,1.4-2.18,2.06-.1.27.05.43.28.47.31.06.64.05.96.09.13.02.24.1.43.19-.18.18-.31.3-.43.42-.32.33-.66.65-.96,1.01-.23.28-.37.61-.41.98,0,.1.01.21.04.31.02.06.08.12.15.21.41.18.87.19,1.33.11.39-.06.78-.14,1.17-.18.2-.02.41,0,.58.01.22.27.12.49-.02.64-.78.85-1.35,1.85-1.93,2.83-.89,1.5-1.47,3.12-1.52,4.88-.02.57.1,1.14.21,1.7.09.43.26.85.42,1.36v.02c.45.83,1.05-.25,1.05-.25Zm29.13-80.33s0,.02,0,.03h0s0-.02,0-.03Zm2.89.03c-.06,0-.13-.01-.19-.02h0c.06,0,.13.01.19.02Zm-45.23-40.87s-.06.05-.09.07c-.23.16-.46.32-.69.49.23-.16.46-.33.69-.49.03-.02.06-.04.09-.07Zm7.76-3.36c-.1.01-.2.03-.3.06-.9.22-1.81.43-2.72.63.91-.2,1.81-.41,2.72-.63.1-.02.2-.04.3-.06Zm-15.13-15.91c-.15.04-.29.09-.44.15-.16.06-.32.12-.48.18.16-.06.32-.12.48-.18.15-.06.29-.11.44-.15Zm-7.29-12.56s-.06.03-.09.04h0s.06-.03.09-.04Zm4.62-2.97c-.18-.09-.36-.2-.53-.31.17.11.35.22.53.31Zm8.05,3.64c-.32-.23-.65-.43-1-.61.35.18.68.38,1,.61Zm-2.78-24.3s.04.04.05.06c.08.1.15.2.22.3-.07-.1-.15-.2-.22-.3-.02-.02-.03-.04-.05-.06Zm5.45,5.63c.11-.16.21-.33.3-.52-.09.19-.19.36-.3.52Zm-2.61.08c.03-.11.07-.21.1-.33-.02-.05-.03-.13-.07-.19.03.07.05.15.07.19-.04.12-.07.22-.1.33Zm20.16-1.21c.09-.13.2-.25.32-.36.19-.16.39-.32.58-.47-.2.15-.39.31-.58.47-.12.1-.22.22-.32.36Zm-24.99-2.63c.32.23.67.43,1.15.25.06-.06.11-.11.16-.17-.05.06-.1.12-.16.17-.48.19-.83-.01-1.15-.25Zm-7.87-7.52c.11-.05.2-.06.29-.05-.09-.02-.18,0-.29.05Zm31.89,46.59c-.04-.41-.06-.82-.08-1.23.02.41.04.82.08,1.23Zm14.08-17.91s-.1.09-.14.14c-.06,0-.11,0-.16,0,.05,0,.1,0,.16,0,.04-.04.09-.09.14-.14Zm5.29,8.98c.45-.28.87-.59,1.27-.91-.4.33-.82.63-1.27.91Zm-1.23,2.49c.09-.01.19-.02.28-.04.35-.05.69-.09,1.04-.15-.34.05-.69.1-1.04.15-.09.01-.19.02-.28.04Zm-48.56-32.36c-.06-.41-.13-.86-.23-1.3-.18-.82-.38-1.64-.57-2.45.19.82.38,1.64.57,2.45.1.44.17.89.23,1.3Zm-1.36,1.43s-.05.03-.08.04c0,0,0,0,0,0,.03-.01.05-.03.08-.04Zm38.06,53.2s.04-.07.06-.1c-.02.03-.04.07-.06.1h0Zm-.08.41c.02-.11.06-.22.09-.33-.03.11-.07.22-.09.33Zm-37.51-52.11c-.15-.29-.3-.57-.46-.85-.03-.05-.05-.1-.07-.15.02.05.05.1.07.15.16.28.31.56.46.85Zm37.29,53.35s.09.04.13.05c.02-.02.05-.04.07-.06-.01.02-.05.04-.07.06-.04-.02-.1-.04-.13-.06Zm40.73,62.34c-.48-.39-.86-.69-1.16-1.1-1.42-1.98-2.88-3.93-4.29-5.93-.64-.9-1.35-1.76-1.79-2.8-.15-.35-.4-.7-.69-.96-.68-.61-1.15-1.37-1.65-2.11-.46-.68-.86-1.4-1.32-2.08-.46-.68-.96-1.34-1.44-2.01-.41-.58-.85-1.14-1.26-1.72-1.08-1.56-2.21-3.1-3.32-4.64-.19-.26-.4-.5-.6-.76-.04-.05-.07-.11-.11-.19.06-.11.13-.24.19-.33.49-.2.95-.38,1.4-.56.16.03.32.09.47.08.98-.11,1.94.02,2.88.23,1.08.25,2.15.59,3.02,1.31.77.63,1.55,1.26,2.14,2.08.15.2.3.42.5.56.33.24.55.56.79.87.38.52.75,1.05,1.14,1.57.64.83,1.14,1.72,1.47,2.72.24.71.55,1.4.91,2.05.29.51.46,1.04.59,1.6.17.73.34,1.46.51,2.19.33,1.46.77,2.9.94,4.4.15,1.31.36,2.62.53,3.93.06.49.1.98.16,1.59Zm37.12-4.17s0,0,0,0c.04,0,.07,0,.11,0-.04,0-.07,0-.11,0Zm1.2,55.7h0s.11-.03.15-.04c-.05,0-.1.03-.15.04Zm7.98-17.05c.54.34,1.12.62,1.77.77.38.01.7-.07.91-.3-.21.23-.53.31-.91.3-.65-.15-1.23-.43-1.77-.77Zm7.95,31.09c1.2-.13,2.36-.1,3.51.24.65.19,1.3.4,1.96.57.81.2,1.56.51,2.3.89,1.28.65,2.5,1.41,3.67,2.22.94.65,1.88,1.29,2.71,2.09.56.54,1.13,1.09,1.69,1.63.75.72,1.38,1.55,2.05,2.33.75.86,1.39,1.83,2.07,2.76.34.46.67.94.95,1.44.31.56.52,1.17.81,1.74.82,1.6,1.38,3.28,1.77,5.03.38,1.71.82,3.41,1.23,5.11.21.86.43,1.71.67,2.65-.3-.23-.54-.38-.75-.57-.16-.14-.27-.33-.41-.5-.69-.82-1.39-1.64-2.08-2.45-.05-.05-.11-.09-.16-.14-.59-.62-1.19-1.24-1.75-1.88-.71-.8-1.39-1.63-2.09-2.45-.02-.03-.04-.06-.07-.08-.74-.53-1.17-1.34-1.83-1.95-.85-.8-1.6-1.73-2.39-2.59-.8-.87-1.6-1.73-2.4-2.59-.75-.81-1.43-1.7-2.14-2.54-.62-.74-1.19-1.54-1.9-2.18-.72-.66-1.27-1.45-1.93-2.15-.76-.8-1.35-1.76-2.14-2.55-.63-.63-1.19-1.33-1.78-2-.07-.08-.17-.14-.24-.21-.47-.43-1.01-1.17-1.33-1.84Zm-14.45-17.09c-.69-.77-1.28-1.63-1.99-2.39-.7-.76-1.26-1.66-1.87-2.5-.08-.1-.1-.25-.16-.43,1.03-.18,1.98-.1,2.91.17.11.03.19.19.31.31-.11.32-.22.62-.32.92-.05.17-.1.35.07.55.47.26,1,.22,1.53.09.73-.18,1.44-.41,2.16-.61.2-.05.41-.05.56-.06.37.27.43.58.3.91-.23.56-.5,1.11-.75,1.66-.07.15-.1.32-.15.47.29.2.54.32.85.29.43-.04.86-.03,1.28-.11.55-.11,1.07-.03,1.6.09.49.11.97.24,1.47.32,1.15.17,2.22.55,3.29.98.43.18.86.36,1.29.54.46.2.93.38,1.37.61,1.06.54,2.02,1.2,2.91,1.99.72.64,1.42,1.3,2.14,1.94.73.65,1.27,1.45,1.92,2.16.74.82,1.34,1.78,1.99,2.68.07.1.21.21.04.39-.41,0-.81-.14-1.2-.34-.76-.4-1.57-.69-2.4-.94-1.63-.48-3.1-1.29-4.51-2.21-1.5-.97-2.99-1.95-4.47-2.95-.62-.42-1.21-.88-1.82-1.32-.43-.32-.84-.67-1.3-.95-.63-.39-1.27-.79-2.12-.98-.4.83-.77,1.56-.72,2.42.01.25-.02.5-.05.75-.01.12,0,.29-.25.32-.56-.65-1.07-1.38-1.67-2.04-.8-.87-1.45-1.86-2.24-2.74Zm-26.9-12.05s.08,0,.12-.01c-.03-.02-.07-.04-.1-.07.03.02.06.04.1.07h0s-.08,0-.12.01Zm-1.1-.36s.08,0,.12-.01c-.04,0-.08,0-.12.01h0Zm-.12,0s-.07-.01-.1-.02c.03,0,.07.01.1.02h0s0,0,0,0c0,0,0,0,0,0,0,0,0,0,0,0Zm-.17-.03s0,0,0,0c0,0,0,0,0,0,0,0,0,0,0,0Z"/>
      <path class="cls-2" d="m116.45,249.79c-1.55-8.62,20.82-13.79,20.82-13.79,0,0,32.8-8.7,13.03-15.21-8.39-2.77-25.63,4.36-33.19,7.19-5.21,1.95-8.54.63-11.43-2.88-3.63-4.4-.98-7.29,4.98-8.58,7.72-1.66,27.42-3.92,24.68-10.08-1.68-3.76-3.13-6.49-15.01-12.27-4.27-2.08-8.3-3.26-13.8-4.82-5.54-1.57-9.06-.11-14.37-2.61-3.34-1.57,4.18-13.97,15.02-10.64,4.96,1.53,7.54,4.88,10.85,6.85,10.73,6.36,9.53.35,8.22-3.39-1.31-3.74-3.3-9.04-3.41-9.35-7.94-22.5-27.55-17.03-35.07-4.78-1.77,2.88-6.81,11.43-7.86,13.49-2.39,4.71-5.44,2.51-7.23.5-1.69-1.9-2.87-4.54-.93-7.06,3.6-4.65,4.23-6.54,2.69-8.14-2.73-2.82-15.38,5.23-19.5-.79-12.22-17.85,22.96-.37,34.71-14.84,1.37-1.69-3.24-5.51-9.07-9.56-3.53-2.45-7.09-8.59-5.47-12.05,4.09-8.75,6.07-7.32,10.3-2.77,3.1,3.33,6.18,8.1,9.14,11.89,2.82,3.61,3.42,6.1,9.27,7.6,10.28,2.64,18.2,7.82,18.5,6.24,1.92-10.41-3.98-15.45-10.31-20.12-3.87-2.85-9.25-8.85-3.83-14.06,3.53-3.39,7.31-1.65,10.61,1.67,2.39,2.41,4.72,5.27,6.52,7.58,1.99,2.56,4.22,1.71,4.68.12.91-3.1,2.1-6.65,2.54-9.72,1.54-10.9-5.96-23.56-1.16-33.57,5.66-11.82,12.54-2.65,11.66,5.04-.63,5.49-1.19,17.97.96,16.07,7.47-6.6,23.26-21.27,36.14-12.72,10.02,6.65-15.44,16.89-19.87,17.97-9.5,2.32-17.36,6.05-17.97,7.74-.59,1.63-2.8,5.27-2.93,7.57-.37,6.55,30.73-11.65,17.18,6.03-7.47,9.75-13.38,3.39-19.68,9.18-4.82,4.43-4.44,8.63-4.42,15.84.02,4.79.54,9.69,1.6,14.62,1.92,8.99,6.01-9.04,10.85-14.2,2.73-2.91,8.44-7.57,11.68-3.01,4.81,6.77.16,13.18-4.22,18.04-4.34,4.82-14.7,17.15-13.33,23.62,1.42,6.68,7.57,13.26,21.58,17.46,3.66,1.09-6.58-15.57,6.14-22.09,20.13-10.32-5.23,23.99,13.85,25.84,23.88,2.32,37.25-16.18,17.25-35.02-5.85-5.51-7.58-1.54-12.63.36-4.87,1.83-10.9.53-12.6-1.56-2.34-2.89-2.8-6.89,4.52-9.55,4.02-1.47,3.24-3.41,3.26-5.7.03-4.1-13.42-16.36-15.77-18.97-4.38-4.86-.97-13.54,2.1-16.67,3.07-3.13,6.88-4.65,8.81.8,6.73,18.95,7.01,24.58,10.54,18.8,1.93-3.16,3.29-9.42,6.49-13.66,2.05-2.72,4.81-6,10.61-5.3,3.52.42,8.12,2.8,2.09,10.87-1.64,2.19-7.83,10.33-10.99,13.99-2.29,2.66-1.02,8.16,1.34,10.99,2.75,3.29,8.62,3.94,12.66-5.59,3.75-8.82,9.42,2.21,6.63,8.49-3.05,6.87-3.36,14.58-.81,17.38,1.84,2.02,5.3,3.63,7.71,2.79,4.9-1.71,5.69-6.27,5.48-11.7-.32-8.08-4.07-19.3-.07-33.28,3.36-11.78-10.57-20.46-8.7-28.53.82-3.55,4.86-11.73,8.08-8.92,5.97,5.21,7.44,17.64,10.19,18.97,4.88,2.36,9.03,2.46,12.24-6.58,3.21-9.07-14.18-47.65,1.35-36.88,15.65,10.85,3.7,29.57,12.17,29.89,9.41.36,13.41-17.37,13.75-27.86.61-18.28,14.86-3.69,14.38,4.22-.67,10.95-15.1,23.4-8.32,25.61,9.96,3.25,19.91-1.87,30.52.81,11.36,2.87,11.79,14.63,9.22,16.57-6.07,4.58-29.95-10.27-34.44-5.37-1.27,1.38,2.14,7.82,3.77,11.48,4.25,9.54.79,12.86-3.59,12.61-7.86-.45-10.5-6.81-10.1-11.6.19-2.31-.94-10.4-2.71-11.9-3.98-3.36-19.15.81-27.53,9.46-10.98,11.34,9.99,4.16,14.98,7.15,7.77,4.65-5.68,11.25-7,11.33-6.54.41-16.6-1.62-18.49,3.62-6.45,17.83,4.87,38.38,25.77,11.56,14.94-19.17,27.68-6.66,18.09,0-26.03,18.04,2.76,15.99,8.2,11.64,10.12-8.09,20.88-17.71,28.61-9.04,8.34,9.36-36.16,16.6-22.27,25.89,15.21,10.18,14.61,13.2,14.07,16.87-2.06,14.01-11.61,8.08-18.14-4.31-9.1-17.24-32.18-23.02-35.69-21.45-4.32,1.93,7.92,14.99-4.09,11.81-2.72-.72-10.3-9.69-13.53-9.42-8.13.65-14.05,6-15.7,10-6.91,16.86,12.26,11.94,29.26,15.03.83.15,7.82-2.27,14.47-3.95,6.14-1.55,9.81-3.48,12.87.49,3.71,4.82-2.68,7.96-4.73,8.16-2.95.29-5.81.57-8.08.87-3.19.43-2.42,3.91-1.19,4.77,9.54,6.64,16.06,15.74,15.91,20.98-.6,20.38-14.67-5.6-25.2-12.86-11.67-8.05-27.33-13.9-30.54-4-.88,2.71,22.74,8.59,18.27,26.01-6.5,25.3-22.69-25.53-26.87-16.24-1.22,2.7-1.88,9.62-6.56,15.2-3.42,4.07-11.56-6.06-5.85-13.66,10.73-14.28,6.14-17.01,3.91-18.34-3.23-1.93-10.44,1.76-15.12,6.84-4.21,4.58-10.48,15.38.14,26.31,3.84,3.95,6.91,5.92,13.27,11.29,5.43,4.59,6.55,9.08,1.66,10.54-7.55,2.25-13.73-3.18-17.82-7.25-5.28-5.25-8.22-16.16-10.75-11.72-3.14,5.51-6.2,15.59-10.53,11.36-3.44-3.37-3.48-5.93-1.27-10.26,3.17-6.22,13.68-15.75,12.14-27.16-2.88-21.27-17.5,1.09-18.3,10.86-3.03,36.85-19.04,27.47-18.77,20.34.14-3.71,6.48-15.74,5.26-18.63-6.94-7.3-26.22,33.54-31.4,4.83Z"/>
    </g>
  </g>
</svg>