<?xml version="1.0" encoding="UTF-8"?>
<svg id="Layer_2" data-name="Layer 2" xmlns="http://www.w3.org/2000/svg" viewBox="0 0 439.88 790.34">
  <defs>
    <style>
      .cls-1 {
        fill: #e9e9e9;
      }

      .cls-2 {
        fill: #b2dcda;
      }

      .cls-3 {
        fill: #3f7078;
      }

      .cls-4 {
        fill: #60aaa9;
      }
    </style>
  </defs>
  <g id="Layer_3" data-name="Layer 3">
    <path class="cls-1" d="m199.33,622.2c2.05-20.96-7.78-41.73-22.11-57.16-14.32-15.43-32.8-26.3-51.33-36.31-18.5-9.99-38.23-20.15-49.49-37.91-11.26-17.76-9.44-45.7,9.32-55.2,13.12-6.64,30-1.66,40.24,8.9s14.79,25.49,16.3,40.12c.67,6.5,1.1,13.71,5.74,18.31,8.72,8.65,24.01.69,30.47-9.76,9.02-14.56,10.19-33.69,3.01-49.24-5.5-11.9-15.24-21.27-25.18-29.81-22.13-19.03-46.4-35.56-72.21-49.19-14.21-7.5-29.17-14.34-40.57-25.66-11.39-11.33-18.6-28.6-13.11-43.7,5.49-15.1,27.07-23.39,38.78-12.38,6.92,6.5,8.34,16.74,10.61,25.96,4.91,19.85,15.7,38.21,30.65,52.16,3.66-4.3,5-10.05,7.62-15.05,2.62-5,7.69-9.68,13.22-8.59,7.34,1.44,9.15,10.86,10.13,18.28,1.32,10.09,4.02,20,8.02,29.36,1.81,4.24,4.64,8.93,9.24,9.36,2.94.27,5.71-1.36,8.06-3.15,21.32-16.26,24.61-48.89,13.31-73.21-11.31-24.31-33.88-41.49-57.35-54.46-26.73-14.78-55.73-25.43-85.67-31.47-13.81-2.79-30.12-6.32-35.57-19.31-4.97-11.84,3.37-26.49,15.51-30.66,12.15-4.17,26.1.66,35.32,9.6,7.93,7.69,13.01,18.11,21.7,24.92,8.69,6.81,23.78,7.88,28.96-1.87,5.44-10.24-4.08-21.53-10.88-30.92-14.77-20.43-18.23-46.77-19.58-71.94-1.09-20.34-.85-41.79,9.07-59.57,9.92-17.79,32.57-30.02,51.21-21.81,2.38,1.05,4.68,2.44,6.26,4.5,1.5,1.95,2.24,4.38,2.72,6.79,4.8,24.37-14.74,45.96-24.19,68.94-6.68,16.25-8.36,34.52-4.74,51.72,1.02,4.85,2.58,9.84,6.08,13.35,8.63,8.64,23.69,3.85,33.04-4,9.34-7.86,17.11-18.56,28.8-22.08,5.31-1.6,12.04-1.05,15.11,3.57,1.39,2.09,1.8,4.67,1.98,7.17.88,12-2.75,24.27-10.03,33.85-6.51,8.57-16.4,16.76-15.09,27.44.6,4.88,3.57,9.12,6.65,12.96,9.56,11.92,21.11,22.24,34.03,30.4,3.61,2.28,7.57,4.69,9.06,8.69,2.78,7.5-4.51,14.47-8.94,21.13-10.59,15.92-5.41,37.17.88,55.23,12.31,35.34,27.62,70.26,31.16,107.51,3.65,38.36-5.44,76.65-14.45,114.11-7.34,30.48-15.8,62.91-39.1,83.89-1.37-11.54,1.13-23.51,7.01-33.54"/>
  </g>
  <g id="Layer_1-2" data-name="Layer 1">
    <g>
      <path class="cls-3" d="m412.22,321.49c-11.48-12.96-23.66-27.84-22.78-45.13.38-7.52,3.28-14.73,3.75-22.24,1.02-16.55-9.79-31.49-21.82-42.91,17.31,5.54,29.16,24.6,26.47,42.58-1.19,7.98-1.98,15.11-1.67,23.17.59,15.32,10.82,27.75,16.06,44.53"/>
      <path class="cls-3" d="m415.11,321.23c-6.84-11.41-7.76-26.15-2.41-38.33,3.57-8.13,9.61-14.88,14.45-22.33,4.84-7.45,8.59-16.37,6.73-25.05,6.99,7.36,7.04,15.3,4.34,21.73-7.89,18.83-24.49,33.82-23.11,63.98Z"/>
      <path class="cls-3" d="m409.13,321.5c-11.66-6.72-20.96-17.47-25.93-29.98-4.97-12.51-5.6-26.7-1.74-39.6-14,18.81-4.05,42.53-1.96,47.46,2.51,5.92,4.06,9.67,8.19,13.4-13.47,1.96-19.78-5.38-23.1-9.18-2.36-2.7-5.95-12.28-8.68-17.17-.5,11.41,3.46,23.5,12.46,30.53,7.98,6.24,30.71,3.28,40.76,4.55Z"/>
      <path class="cls-3" d="m304.42,257.02c3.15-6.64,10.33-11.16,17.69-11.14,8.49.03,16.53,5.56,24.92,4.28,1.55-.24,3.21-.83,3.94-2.21.97-1.84-.29-4.22-2.12-5.2s-4.02-.95-6.1-.89c-6.55.19-13.1.38-19.65.57-.8.02-1.78-.06-2.12-.78-.12-.25-.13-.54-.12-.82.15-3.78,4.16-6.4,7.94-6.66,3.78-.26,7.45,1.11,11.15,1.9,1.2.26,2.54.43,3.57-.23,1.84-1.17,1.28-4.28-.53-5.49-1.81-1.21-4.2-1.04-6.35-.62-2.14.41-4.35,1.02-6.47.51-.28-3.89,3.4-7.22,7.27-7.74,3.87-.52,7.71,1.1,11.03,3.14,3.33,2.04,6.4,4.53,9.98,6.08,1.2.52,2.48.93,3.78.89,3.02-.08,5.62-2.75,6.02-5.74.4-2.99-1.18-6.05-3.62-7.83-6.32-4.59-15.33-.58-22.91-2.47,1.62-6.35,6.82-11.65,13.14-13.39,3.71-1.02,7.62-.88,11.45-1.09,10.99-.62,22.48-4.86,28.63-13.99.67-.99,1.27-2.29.66-3.32-.43-.72-1.33-1.01-2.16-1.18-5.38-1.05-10.91.9-15.7,3.56-4.79,2.66-9.18,6.05-14.18,8.29-.93.41-1.98.79-2.93.45-1.98-.7-1.81-3.65-.7-5.43,2.29-3.68,6.54-5.55,9.98-8.18,2.76-2.11,5.09-4.8,6.77-7.84.87-1.57,1.58-3.35,1.23-5.11-.41-2.05-2.21-3.59-4.17-4.33-5.62-2.12-12.37,1.77-14.36,7.45-1.07,3.05-.99,6.37-1.48,9.57-.49,3.2-1.77,6.58-4.58,8.18-5.77,3.28-13.15-2.96-19.45-.85,1,2.49,2.68,4.7,4.81,6.32,1.88,1.43,4.21,2.55,5.19,4.7,1.15,2.54-.18,5.71-2.46,7.32-2.28,1.61-5.24,1.95-8.02,1.75-8.12-.58-15.33-5.11-22.91-8.07-.57-.22-1.18-.44-1.77-.28-1.18.32-1.47,1.86-1.36,3.08.52,6.03,5.51,11.38,11.48,12.32,2.55.4,5.71.38,6.94,2.64,1.25,2.3-.6,5.03-2.46,6.88-1.94,1.93-4.06,3.74-6.54,4.88-4.27,1.96-9.2,1.77-13.76,2.96-9.59,2.51-16.52,10.88-21.29,19.58-1.04,1.89-2.02,4.14-1.18,6.13.73,1.72,2.58,2.63,4.28,3.39,3.5,1.57,7.61,3.14,11.02,1.37,3.56-1.84,4.94-6.72,8.72-8.06"/>
      <path class="cls-3" d="m287.34,125c2.58-.56,4.74-2.7,5.33-5.27.68-2.97-.6-6.23.53-9.06.21-.52.55-1.06,1.09-1.2.72-.19,1.45.44,1.65,1.16s0,1.48-.19,2.2c-.6,2.27-1.2,4.55-1.8,6.82-.07.28-.12.63.1.81.08.06.18.09.28.11,1.33.25,2.57-.93,2.97-2.23s.22-2.69.24-4.05c0-.44.06-.92.37-1.23.56-.55,1.6-.1,1.88.63.28.73.02,1.55-.3,2.27-.32.72-.71,1.44-.7,2.22,1.34.41,2.8-.6,3.3-1.91s.24-2.78-.2-4.11c-.44-1.33-1.06-2.6-1.31-3.98-.08-.46-.12-.94,0-1.39.27-1.05,1.42-1.74,2.5-1.64s2.02.9,2.44,1.9c1.09,2.58-1.04,5.4-1,8.21,2.35-.05,4.62-1.44,5.75-3.5.66-1.21.93-2.59,1.31-3.91,1.11-3.79,3.53-7.46,7.22-8.87.4-.15.9-.26,1.21.04.22.21.25.55.24.85-.07,1.96-1.2,3.74-2.52,5.2-1.32,1.46-2.86,2.72-4.05,4.28-.22.29-.44.63-.4.99.08.75,1.13.93,1.84.69,1.47-.5,2.47-1.83,3.67-2.82.96-.79,2.09-1.39,3.29-1.73.62-.18,1.3-.28,1.88-.02.68.31,1.07,1.06,1.17,1.81.28,2.14-1.63,4.18-3.77,4.41-1.15.13-2.31-.17-3.46-.26-1.16-.09-2.44.08-3.23.94-1.62,1.75-.03,4.84-1.28,6.87-.79-.55-1.42-1.32-1.82-2.19-.35-.77-.55-1.68-1.22-2.2-.79-.61-2.01-.4-2.76.26s-1.11,1.67-1.26,2.66c-.46,2.88.54,5.77.96,8.66.03.22.06.45-.05.64-.21.39-.77.36-1.19.22-2.06-.67-3.53-2.85-3.37-5.01.07-.92.33-2.03-.36-2.64-.7-.62-1.81-.2-2.6.3-.83.52-1.64,1.11-2.24,1.89-1.03,1.33-2.98,2.82-4.41,3.73-4.32,2.75-12.11,4.71-11.21,3.66.93-1.09,4.98-3.98,5.76-5.19"/>
      <path class="cls-3" d="m262.75,212.57c.87-4.01-.57-8.26-2.99-11.57-2.43-3.31-5.76-5.83-9.12-8.19-3.36-2.35-6.95-4.76-8.73-8.46-1.78-3.69-.8-9.06,3.05-10.48,2.69-.99,5.85.36,7.59,2.63s2.29,5.27,2.25,8.14c-.02,1.27-.1,2.68.7,3.67,1.49,1.87,4.63.67,6.12-1.2,2.07-2.62,2.73-6.29,1.69-9.47-.8-2.43-2.47-4.46-4.2-6.34-3.86-4.18-8.18-7.93-12.87-11.15-2.58-1.77-5.33-3.43-7.28-5.88-1.95-2.45-2.96-5.96-1.55-8.76,1.4-2.8,5.77-3.92,7.79-1.52,1.19,1.42,1.24,3.43,1.47,5.27.5,3.96,2.18,7.75,4.76,10.79.81-.75,1.19-1.83,1.81-2.74s1.71-1.7,2.75-1.37c1.39.44,1.53,2.31,1.55,3.77.03,1.98.33,3.96.89,5.87.25.86.7,1.83,1.58,2.02.56.12,1.14-.13,1.63-.43,4.5-2.67,5.87-8.91,4.23-13.88-1.64-4.96-5.63-8.8-9.88-11.84-4.84-3.46-10.22-6.18-15.88-8.03-2.61-.85-5.69-1.9-6.45-4.54-.69-2.41,1.25-5.05,3.7-5.59,2.45-.53,5.04.72,6.62,2.66,1.36,1.67,2.11,3.8,3.64,5.32,1.53,1.51,4.43,2.06,5.65.29,1.28-1.86-.31-4.26-1.41-6.23-2.4-4.29-2.48-9.47-2.17-14.37.25-3.96.78-8.11,3.1-11.33,2.32-3.22,6.99-5.08,10.41-3.07.44.26.85.58,1.11,1.01.25.41.34.9.37,1.38.38,4.83-3.89,8.57-6.24,12.81-1.66,3-2.4,6.5-2.08,9.91.09.96.28,1.96.88,2.72,1.48,1.87,4.5,1.28,6.49-.03,1.99-1.31,3.73-3.21,6.07-3.63,1.07-.19,2.35.07,2.85,1.03.22.44.24.94.22,1.43-.1,2.34-1.08,4.64-2.71,6.33-1.45,1.51-3.55,2.88-3.54,4.97,0,.96.49,1.85,1,2.66,1.58,2.52,3.59,4.78,5.91,6.65.65.52,1.36,1.08,1.56,1.89.37,1.52-1.2,2.7-2.21,3.89-2.41,2.84-1.89,7.08-1.07,10.72,1.59,7.12,3.77,14.23,3.61,21.52-.16,7.51-2.78,14.72-5.37,21.77-2.11,5.74-4.48,11.83-9.46,15.36,0-2.27.75-4.53,2.11-6.34"/>
      <path class="cls-3" d="m282.61,128.1c2.59-2.46,3.63-6.22,3.5-9.79-.13-3.57-1.29-7.01-2.56-10.35-1.27-3.33-2.67-6.82-2.15-10.35.52-3.53,3.86-6.91,7.32-6.05,2.42.6,4.03,3.11,4.18,5.6.14,2.49-.93,4.91-2.36,6.95-.63.91-1.38,1.88-1.29,2.98.16,2.08,3,2.75,4.99,2.13,2.77-.87,5.04-3.19,5.84-5.98.61-2.14.4-4.42.08-6.62-.73-4.89-2.01-9.71-3.81-14.32-.99-2.54-2.15-5.07-2.36-7.79s.78-5.73,3.16-7.06c2.38-1.33,6.07,0,6.35,2.71.17,1.6-.79,3.07-1.52,4.51-1.57,3.09-2.22,6.64-1.85,10.09.95-.15,1.76-.74,2.65-1.09s2.06-.39,2.65.36c.78,1-.03,2.41-.73,3.47-.95,1.44-1.7,3.01-2.23,4.66-.24.75-.39,1.66.15,2.23.35.36.88.46,1.38.49,4.54.28,8.58-3.54,9.82-7.92,1.25-4.37.25-9.08-1.32-13.35-1.79-4.86-4.33-9.44-7.5-13.54-1.46-1.89-3.16-4.15-2.42-6.42.68-2.07,3.37-3.03,5.39-2.21,2.02.81,3.28,2.98,3.47,5.15.16,1.87-.34,3.77.02,5.6.36,1.84,2.18,3.65,3.92,2.97,1.83-.71,1.86-3.22,2.03-5.17.37-4.26,2.85-8.02,5.46-11.4,2.11-2.73,4.52-5.46,7.77-6.64,3.24-1.18,7.51-.24,8.99,2.88.19.4.33.83.3,1.27-.02.42-.2.81-.4,1.17-2.09,3.66-6.99,4.26-10.75,6.16-2.66,1.34-4.9,3.5-6.34,6.11-.41.74-.76,1.55-.7,2.39.15,2.06,2.61,3.12,4.68,3.15s4.25-.48,6.14.36c.86.38,1.66,1.2,1.54,2.13-.05.42-.29.8-.54,1.14-1.22,1.64-3.04,2.81-5.04,3.23-1.79.38-3.96.33-4.98,1.85-.46.69-.55,1.57-.58,2.4-.09,2.59.24,5.19,1,7.67.21.69.45,1.44.2,2.12-.47,1.27-2.18,1.36-3.49,1.72-3.12.87-4.82,4.17-6.01,7.18-2.34,5.9-4.25,12.08-7.92,17.25-3.78,5.33-9.2,9.23-14.51,13.04-4.32,3.1-9,6.32-14.32,6.43,1.1-1.63,2.75-2.89,4.62-3.53"/>
      <path class="cls-3" d="m246.49,232.27c-16.03-18.11-33.07-38.91-31.83-63.06.54-10.5,4.59-20.58,5.24-31.08,1.43-23.13-13.69-44.01-30.49-59.96,24.19,7.75,40.74,34.37,36.99,59.5-1.67,11.14-2.77,21.11-2.33,32.37.83,21.41,15.12,38.78,22.44,62.23"/>
      <path class="cls-3" d="m263.32,287.1c-8.94-14.92-10.15-34.2-3.15-50.12,4.67-10.63,12.57-19.46,18.9-29.19,6.33-9.74,11.24-21.41,8.8-32.76,9.14,9.63,9.2,20.01,5.68,28.42-10.31,24.62-32.01,44.22-30.22,83.65Z"/>
      <path class="cls-3" d="m303.1,186.71c10.66-16.09,26.86-28.44,45.2-34.45,18.34-6.01,38.71-5.64,56.82,1.02-25.68-21.7-60.5-9.57-67.73-7.01-8.7,3.07-14.2,4.95-19.9,10.53-1.61-19.45,9.46-27.82,15.19-32.24,4.08-3.14,18.1-7.43,25.34-10.9-16.28-1.73-33.94,2.87-44.8,15.12-9.64,10.87-7.42,43.65-10.12,57.92Z"/>
      <path class="cls-3" d="m364.74,32.73c-1.63-.61-3.22-1.2-4.87-1.82.41-.69.58-1.3.81-1.33,3.77-.41,7.55-.74,11.14-1.07,1.61,3.1-3.62,2.46-1.9,5.3,1.9.79,4.1,1.64,6.21,2.67.37.18.61,1.26.44,1.76-.17.48-.95,1.09-1.44,1.07-2.61-.1-5.02-1.85-7.83-.9-.37.13-1.49-1.03-1.78-1.78-.47-1.21-.54-2.58-.78-3.9Z"/>
      <path class="cls-3" d="m383.81,60.5c.53-2.94,1.12-6.49,1.85-10.01.22-1.07.75-2.12,1.29-3.08.56-1,1.48-1.95,2.66-1.25.45.27.57,1.6.39,2.33-.54,2.18-1.41,4.27-1.96,6.45-.6,2.38-1.18,4.78.14,7.21.58,1.07.17,2.24-1.12,2.71-1.44.52-3.25-.82-3.34-2.39-.02-.45.04-.9.09-1.96Z"/>
      <path class="cls-3" d="m416.61,70.12c2.91-.25,5.23-.55,7.2,2.02-1.58.93-2.69,1.58-4.05,2.38.13.74.26,1.58.43,2.41.29,1.39-.42,2.39-1.65,2.2-.88-.13-1.75-1.16-2.35-1.98-.28-.39.12-1.25.16-1.9.09-1.51.16-3.02.26-5.13Z"/>
      <path class="cls-3" d="m388.95,30.75c-.54,3.43-2.43,5.48-5.9,6.22-1.45.31-2.66,1.65-4.36,1.05,0,0,.18.19.18.19.08-.86-.18-2.07.29-2.52,1.9-1.81,3.9-3.6,6.14-4.94.91-.54,2.52.11,3.82.22,0,0-.17-.22-.17-.22Z"/>
      <path class="cls-3" d="m399.98,125.49c.26-2.83.64-5.15,3.46-6.04.51.28,1.06.39,1.25.72.95,1.64,3.2,3.15,1.43,5.28-1.52,1.82-3.62,1.23-6.14.05Z"/>
      <path class="cls-3" d="m407.21,47.78c.26-2.83.64-5.15,3.46-6.04.51.28,1.06.39,1.25.72.95,1.64,3.2,3.15,1.43,5.28-1.52,1.82-3.62,1.23-6.14.05Z"/>
      <path class="cls-3" d="m423.22,101.58c-1.71-.09-3.03.08-4.19-.27-1.36-.41-2.09-1.58-2-3.09.12-2.02,1.31-3.51,3.04-3.84,1.63-.31,3.28.73,3.36,2.31.08,1.49-.12,3-.21,4.89Z"/>
      <path class="cls-3" d="m378.84,60.48c-.21.75-.22,1.27-.47,1.56-1.55,1.79-3.51,2.78-5.91,2.47-.53-.07-1.27-.72-1.38-1.22-.17-.78-.13-2.22.27-2.41,1.78-.81,3.7-1.43,5.63-1.78.55-.1,1.3.93,1.87,1.37Z"/>
      <path class="cls-3" d="m423.58,120.47c-.75-3.18-2.32-6.48,1.17-9.12,4.36,5.32,4.12,6.87-1.35,8.89.01.01.18.23.18.23Z"/>
      <path class="cls-3" d="m356.17,4.54c-3.24.45-6.66,1.72-8.97-2,5.69-3.86,7.22-3.48,8.73,2.16.01,0,.25-.16.25-.16Z"/>
      <path class="cls-3" d="m380.73,48.93q-5.88,3.37-8.18,1.12c.66-2.23,2.8-2.78,4.51-3.71.6-.33,1.84-.04,2.47.41.61.43.82,1.44,1.2,2.18Z"/>
      <path class="cls-3" d="m344.11,17.13c1.98-1.86,3.38-1.98,4.39-.17.64,1.14,1.14,2.46,1.25,3.74.05.56-.91,1.41-1.6,1.78-.42.22-1.54-.02-1.75-.4-.86-1.52-1.49-3.16-2.29-4.95Z"/>
      <path class="cls-3" d="m421.47,89.29c-.93-.17-1.86-.19-2.64-.54-.49-.22-1.06-.94-1.06-1.43,0-.53.52-1.31,1.02-1.53,1.19-.52,2.49-.88,3.77-1.12,1.29-.23,2.43.89,2.64,2.36.19,1.37-.84,2.33-2.48,2.31-.44,0-.88-.04-1.25-.06Z"/>
      <path class="cls-3" d="m415.06,110.84c-3.87.72-5.97.31-5.58-1.04.73-2.51,3.14-1.96,4.96-2.41.42-.11.98-.21,1.31-.02.5.28.98.76,1.24,1.27.12.24-.2.85-.49,1.12-.47.45-1.08.77-1.63,1.14l.19-.06Z"/>
      <path class="cls-3" d="m396.01,105.1c.18,3.4-1.68,3.77-3.36,3.89-2.15.16-3.84-.65-4.08-3.58,2.39-.89,4.71.41,7.44-.31Z"/>
      <path class="cls-3" d="m388.85,99.81c-.37.31-.8.99-1.3,1.05-2,.24-3.92-1.79-3.45-3.66.11-.45.95-1.04,1.43-1.02,1.75.07,3.2,1.68,3.32,3.63Z"/>
      <path class="cls-3" d="m414.87,110.9c1.17,1.66,2.1,3.42,1.58,5.52-.13.53-.72,1.19-1.22,1.33-.53.15-1.35-.08-1.81-.44-1.14-.9-1.6-2.28-.95-3.54.57-1.11,1.67-1.95,2.56-2.92.03-.01-.16.05-.16.05Z"/>
      <path class="cls-3" d="m407.91,34.55c-.9-.57-2.06-1.15-2.99-1.98-.33-.29-.35-1.36-.07-1.78.28-.42,1.31-.85,1.66-.65,1.11.62,2.09,1.5,3.02,2.37.18.17.05.88-.16,1.19-.22.32-.72.44-1.46.85Z"/>
      <path class="cls-3" d="m399.38,110.69c.82.5,1.82.94,2.56,1.65.27.26.16,1.4-.17,1.73-1.23,1.22-3.52,1.1-4.78-.25-.68-.72-.53-1.68.32-2.27.52-.36,1.18-.51,2.06-.86Z"/>
      <path class="cls-3" d="m354.39,30.8c.82.5,1.82.94,2.56,1.65.27.26.16,1.4-.17,1.73-1.23,1.22-3.52,1.1-4.78-.25-.68-.72-.53-1.68.32-2.27.52-.36,1.18-.51,2.06-.86Z"/>
      <path class="cls-3" d="m385.16,90.32c.26-2.83.64-5.15,3.46-6.04.51.28,1.06.39,1.25.72.95,1.64,3.2,3.15,1.43,5.28-1.52,1.82-3.62,1.23-6.14.05Z"/>
      <path class="cls-3" d="m384.56,75.52c.82.5,1.82.94,2.56,1.65.27.26.16,1.4-.17,1.73-1.23,1.22-3.52,1.1-4.78-.25-.68-.72-.53-1.68.32-2.27.52-.36,1.18-.51,2.06-.86Z"/>
      <path class="cls-3" d="m399.58,37.59c-1.67-.87-3-2.07-2.84-4.1.05-.69.79-1.75,1.35-1.85.64-.11,1.7.49,2.1,1.1,1.2,1.81-.67,3.3-.8,5.01,0,0,.19-.16.19-.16Z"/>
      <path class="cls-3" d="m361.93,73.11c1.08.34,2.28.72,3.98,1.25-.87,1.29-1.32,2.27-2.06,2.94-.34.31-1.38.24-1.84-.06-1.68-1.1-1.65-2.48-.07-4.13Z"/>
      <path class="cls-3" d="m367.89,55.67c0,.78.31,1.81-.07,2.32-.63.84-1.68,1.41-2.63,1.95-.19.11-.83-.31-1.09-.63-.25-.31-.49-.92-.35-1.19.77-1.45,1.83-2.6,4.13-2.46Z"/>
      <path class="cls-3" d="m388.47,69.67c.26.45.96,1.13.96,1.81,0,1.21-.84,1.99-2.14,2.06-1.04.05-1.72-.45-1.85-1.48-.16-1.3,1.11-2.45,3.03-2.39Z"/>
      <path class="cls-3" d="m409.64,80.59c1.45-.76,2.88-1.17,4.34.06.77.65,1.27,1.47.6,2.25-.48.55-1.55,1.09-2.18.92-1.61-.42-2.68-1.55-2.58-3.42,0,0-.18.19-.18.19Z"/>
      <path class="cls-3" d="m377.93,27.54c1.45-.76,2.88-1.17,4.34.06.77.65,1.27,1.47.6,2.25-.48.55-1.55,1.09-2.18.92-1.61-.42-2.68-1.55-2.58-3.42,0,0-.18.19-.18.19Z"/>
      <path class="cls-3" d="m367.76,82.99c1.07-.93,1.73-1.86,2.58-2.11.58-.17,1.59.47,2.14,1.02.31.31.33,1.45.04,1.71-.57.51-1.49.95-2.21.88-.73-.07-1.41-.79-2.55-1.5Z"/>
      <path class="cls-3" d="m424.73,76.18c.69,1.43,1.35,2.3,1.5,3.25.17,1.11-.84,1.62-1.77,1.45-1.2-.22-2.1-1.11-1.75-2.4.19-.7,1.04-1.22,2.03-2.3Z"/>
      <path class="cls-3" d="m414.42,128.64c2.91-.25,5.23-.55,7.2,2.02-1.58.93-2.69,1.58-4.05,2.38.13.74.26,1.58.43,2.41.29,1.39-.42,2.39-1.65,2.2-.88-.13-1.75-1.16-2.35-1.98-.28-.39.12-1.25.16-1.9.09-1.51.16-3.02.26-5.13Z"/>
      <path class="cls-3" d="m408.54,132.85c-.54,3.43-2.43,5.48-5.9,6.22-1.45.31-2.66,1.65-4.36,1.05,0,0,.18.19.18.19.08-.86-.18-2.07.29-2.52,1.9-1.81,3.9-3.6,6.14-4.94.91-.54,2.52.11,3.82.22,0,0-.17-.22-.17-.22Z"/>
      <path class="cls-3" d="m399.48,43.92c1.73,3,1.56,5.79-.68,8.54-.94,1.15-1.03,2.96-2.73,3.56,0,0,.26.03.26.03-.48-.72-1.45-1.5-1.36-2.14.34-2.6.77-5.26,1.67-7.7.36-.99,2.03-1.5,3.11-2.23,0,0-.27-.06-.27-.06Z"/>
      <path class="cls-3" d="m421.04,160.1c-1.71-.09-3.03.08-4.19-.27-1.36-.41-2.09-1.58-2-3.09.12-2.02,1.31-3.51,3.04-3.84,1.63-.31,3.28.73,3.36,2.31.08,1.49-.12,3-.21,4.89Z"/>
      <path class="cls-3" d="m419.29,147.8c-.93-.17-1.86-.19-2.64-.54-.49-.22-1.06-.94-1.06-1.43,0-.53.52-1.31,1.02-1.53,1.19-.52,2.49-.88,3.77-1.12,1.29-.23,2.43.89,2.64,2.36.19,1.37-.84,2.33-2.48,2.31-.44,0-.88-.04-1.25-.06Z"/>
      <path class="cls-3" d="m419.79,120.58c.82.5,1.82.94,2.56,1.65.27.26.16,1.4-.17,1.73-1.23,1.22-3.52,1.1-4.78-.25-.68-.72-.53-1.68.32-2.27.52-.36,1.18-.51,2.06-.86Z"/>
      <path class="cls-3" d="m422.54,134.7c.69,1.43,1.35,2.3,1.5,3.25.17,1.11-.84,1.62-1.77,1.45-1.2-.22-2.1-1.11-1.75-2.4.19-.7,1.04-1.22,2.03-2.3Z"/>
      <path class="cls-3" d="m407.01,101.08c-.73.83-1.13,1.66-1.77,1.93-.82.35-2.01-1.15-1.66-2.26.2-.64,1.08-1.08,1.66-1.61.52.57,1.04,1.13,1.77,1.94Z"/>
      <path class="cls-3" d="m372.55,72.74c-1.19.54-1.97,1.21-2.51,1.05-.56-.16-1.32-1.28-1.18-1.72.19-.6,1.16-1.31,1.79-1.31.5,0,1.01.99,1.91,1.98Z"/>
      <path class="cls-3" d="m367.58,47.84c.64-.46,1.1-1.04,1.57-1.05.39,0,1.09.64,1.13,1.05.09.91-.41,1.7-1.48,1.39-.45-.13-.73-.8-1.22-1.38Z"/>
      <path class="cls-3" d="m337.49,6.13c.64-.46,1.1-1.04,1.57-1.05.39,0,1.09.64,1.13,1.05.09.91-.41,1.7-1.48,1.39-.45-.13-.73-.8-1.22-1.38Z"/>
      <path class="cls-3" d="m413.61,60.83c-.21.75-.22,1.27-.47,1.56-1.55,1.79-3.51,2.78-5.91,2.47-.53-.07-1.27-.72-1.38-1.22-.17-.78-.13-2.22.27-2.41,1.78-.81,3.7-1.43,5.63-1.78.55-.1,1.3.93,1.87,1.37Z"/>
      <path class="cls-3" d="m405.99,71.7q-5.88,3.37-8.18,1.12c.66-2.23,2.8-2.78,4.51-3.71.6-.33,1.84-.04,2.47.41.61.43.82,1.44,1.2,2.18Z"/>
      <path class="cls-3" d="m402.48,91.2c0,.78.31,1.81-.07,2.32-.63.84-1.68,1.41-2.63,1.95-.19.11-.83-.31-1.09-.63-.25-.31-.49-.92-.35-1.19.77-1.45,1.83-2.6,4.13-2.46Z"/>
      <path class="cls-3" d="m392.84,70.61c.64-.46,1.1-1.04,1.57-1.05.39,0,1.09.64,1.13,1.05.09.91-.41,1.7-1.48,1.39-.45-.13-.73-.8-1.22-1.38Z"/>
      <path class="cls-3" d="m395.54,15.51c2.62,2.18,1.62,3.79.58,5.11-1.34,1.69-3.08,2.38-5.4.56.97-2.36,3.5-3.18,4.82-5.67Z"/>
      <path class="cls-3" d="m386.8,17.17c-.02.48.18,1.26-.12,1.67-1.18,1.63-3.97,1.66-5.03.05-.25-.39-.12-1.4.22-1.74,1.24-1.24,3.41-1.21,4.92.02Z"/>
      <path class="cls-3" d="m377.33,13.44c-1.9-2.12-3.35-3.97-2.09-6.64.56-.19,1.01-.51,1.37-.43,1.84.42,4.49-.21,4.85,2.53.31,2.35-1.56,3.49-4.13,4.54Z"/>
      <path class="cls-3" d="m366.06,3.83c.93-.26,1.93-.7,2.95-.76.38-.02,1.14.83,1.15,1.3.06,1.73-1.58,3.33-3.43,3.34-.99,0-1.59-.75-1.45-1.78.09-.62.43-1.21.77-2.1Z"/>
      <path class="cls-3" d="m360.13,21.24c.05-1.41-.19-2.53.2-3.33.27-.55,1.42-.85,2.2-.88.44-.02,1.29.74,1.28,1.13-.02.77-.31,1.74-.85,2.22-.55.49-1.53.5-2.83.86Z"/>
      <path class="cls-3" d="m355.86,10.75c-.41,1.24-.45,2.27-.93,2.56-.5.3-1.84.1-2.07-.3-.31-.55-.17-1.74.26-2.2.34-.37,1.41-.07,2.75-.06Z"/>
    </g>
    <g>
      <path class="cls-4" d="m304.79,286.69c-11.19,24.95-23.11,49.58-35.74,73.83-1.79,3.44-3.6,6.88-5.42,10.31-1.7,3.2-3.51,6.36-4.69,9.8-.34,1,1.23,1.42,1.57.43,1.08-3.15,2.74-6.05,4.29-8.99s3.18-6.01,4.75-9.02c3.15-6.02,6.25-12.07,9.31-18.14,6.12-12.14,12.06-24.36,17.82-36.67,3.22-6.89,6.39-13.8,9.5-20.74.43-.95-.98-1.78-1.41-.82h0Z"/>
      <path class="cls-4" d="m295.55,292.9c-.52,3.02.82,6.15,3.41,7.81.37.24.9.08,1.12-.29.23-.39.08-.88-.29-1.12-1.95-1.25-3.04-3.74-2.66-5.97.07-.43-.12-.88-.57-1-.39-.11-.93.13-1,.57h0Z"/>
      <path class="cls-4" d="m300.23,301.79c1.75.44,3.5.88,5.25,1.31.41.1.9-.13,1-.57s-.13-.89-.57-1c-1.75-.44-3.5-.88-5.25-1.31-.41-.1-.9.13-1,.57s.13.89.57,1h0Z"/>
      <path class="cls-4" d="m290.54,321.53c8.28,2.74,16.78,5.47,25.61,4.99,1.04-.06,1.05-1.69,0-1.63-8.69.47-17.03-2.24-25.18-4.93-1-.33-1.43,1.24-.43,1.57h0Z"/>
      <path class="cls-4" d="m313.6,316.88c-2.24,2.58-4.48,5.15-6.72,7.73-.29.33-.33.83,0,1.15.3.3.86.33,1.15,0,2.24-2.58,4.48-5.15,6.72-7.73.29-.33.33-.83,0-1.15-.3-.3-.86-.33-1.15,0h0Z"/>
      <path class="cls-4" d="m304.86,311.26c-1.72,3.78-4.04,7.25-6.9,10.27-.72.76.43,1.92,1.15,1.15,2.95-3.11,5.38-6.69,7.15-10.6.18-.4.11-.87-.29-1.12-.35-.21-.93-.11-1.12.29h0Z"/>
      <path class="cls-4" d="m298.37,324.25c1.77,4.21,4.66,7.82,8.4,10.44.86.6,1.68-.81.82-1.41-3.36-2.35-6.06-5.68-7.65-9.46-.17-.41-.54-.7-1-.57-.38.11-.74.59-.57,1h0Z"/>
      <path class="cls-4" d="m310.99,326.54c1.26,2.51,3.1,4.66,5.31,6.37.35.27.91.05,1.12-.29.25-.42.06-.85-.29-1.12-1.98-1.53-3.59-3.54-4.73-5.79-.2-.39-.75-.5-1.12-.29-.4.23-.49.72-.29,1.12h0Z"/>
      <path class="cls-4" d="m278.5,300.2c2.09,3.2,4.02,6.51,5.76,9.91.87,1.7,1.69,3.43,2.47,5.17.69,1.56,1.36,3.1,2.53,4.38.71.77,1.86-.38,1.15-1.15-1.22-1.33-1.83-3.08-2.57-4.7s-1.52-3.25-2.34-4.84c-1.7-3.29-3.57-6.49-5.6-9.59-.57-.88-1.98-.06-1.41.82h0Z"/>
      <path class="cls-4" d="m285.42,297.69c-.59,3.44-1.19,6.87-1.78,10.31-.07.43.12.88.57,1,.39.11.93-.13,1-.57.59-3.44,1.19-6.87,1.78-10.31.07-.43-.12-.88-.57-1-.39-.11-.93.13-1,.57h0Z"/>
      <path class="cls-4" d="m269.48,302.31c5.13,3.32,10.5,6.24,16.08,8.75.95.43,1.78-.98.82-1.41-5.58-2.5-10.95-5.42-16.08-8.75-.88-.57-1.7.84-.82,1.41h0Z"/>
      <path class="cls-4" d="m262.66,315.74c1.46,5.11,3,10.34,6.08,14.74s7,7.55,10.99,10.78c.81.66,1.97-.49,1.15-1.15-3.87-3.14-7.85-6.34-10.73-10.45s-4.49-9.37-5.92-14.35c-.29-1.01-1.86-.58-1.57.43h0Z"/>
      <path class="cls-4" d="m280.02,325.38c-2.15,3.51-4.03,7.17-5.64,10.95-.17.41-.12.87.29,1.12.34.2.94.11,1.12-.29,1.61-3.79,3.5-7.45,5.64-10.95.55-.9-.86-1.72-1.41-.82h0Z"/>
      <path class="cls-4" d="m271.43,309.54c-.77,2.82-1.55,5.65-2.32,8.47-.73,2.67-1.86,5.52-1.57,8.33.11,1.03,1.74,1.04,1.63,0-.28-2.75.88-5.59,1.6-8.21s1.49-5.44,2.24-8.15c.28-1.01-1.3-1.45-1.57-.43h0Z"/>
      <path class="cls-4" d="m252.3,320.23c5.4,2.28,10.41,5.4,15.47,8.35.91.53,1.73-.88.82-1.41-5.06-2.94-10.07-6.07-15.47-8.35-.96-.4-1.79,1-.82,1.41h0Z"/>
      <path class="cls-4" d="m268.01,337.09s.21-.03.11-.02c-.1.01.11,0,.13,0,.14-.01.28-.02.43-.02.32,0,.64.01.96.04.67.05,1.34.15,2,.27,1.28.22,2.56.51,3.85.7.43.07.88-.11,1-.57.11-.39-.13-.94-.57-1-1.36-.21-2.71-.52-4.07-.74s-2.86-.48-4.27-.22c-.43.08-.68.61-.57,1,.13.46.57.65,1,.57h0Z"/>
      <path class="cls-4" d="m301.32,333.66c-2.37,3.78-5.21,7.22-8.45,10.28-.77.72.39,1.87,1.15,1.15,3.34-3.15,6.27-6.72,8.7-10.61.56-.89-.85-1.71-1.41-.82h0Z"/>
      <path class="cls-4" d="m314.11,346.28c-11.06-3.32-22.84-1.67-33.98-4.51-1.02-.26-1.45,1.31-.43,1.57,11.14,2.84,22.93,1.2,33.98,4.51,1.01.3,1.44-1.27.43-1.57h0Z"/>
      <path class="cls-4" d="m312.39,338.93c-2.23,1.68-4.32,3.52-6.25,5.53-.73.76.43,1.91,1.15,1.15,1.83-1.91,3.81-3.68,5.92-5.27.35-.26.53-.7.29-1.12-.2-.35-.76-.56-1.12-.29h0Z"/>
      <path class="cls-4" d="m311.34,352.33c-1.72-1.97-3.67-4.22-3.81-6.96-.02-.44-.36-.82-.82-.82-.42,0-.84.37-.82.82.16,3.22,2.26,5.78,4.29,8.11.29.33.86.3,1.15,0,.33-.33.29-.82,0-1.15h0Z"/>
      <path class="cls-4" d="m296.51,355.64c-.3-1.92-.73-3.82-1.28-5.68-.27-.9-.56-1.78-.88-2.66s-.84-1.86-.68-2.81c.18-1.03-1.4-1.47-1.57-.43-.19,1.09.07,2.06.45,3.08.35.94.69,1.89.99,2.85.61,1.99,1.08,4.03,1.4,6.09.07.44.61.67,1,.57.46-.12.64-.57.57-1h0Z"/>
      <path class="cls-4" d="m254.16,337.98c1.32,4.13,2.24,8.85,4.91,12.36,2.86,3.76,6.25,7.18,9.38,10.71.7.79,1.85-.37,1.15-1.15-3.02-3.41-6.27-6.71-9.07-10.31-1.31-1.68-2.08-3.55-2.73-5.57-.7-2.15-1.38-4.31-2.07-6.47-.32-1-1.89-.57-1.57.43h0Z"/>
      <path class="cls-4" d="m267.34,347.57c-1.77,2.32-3,5.06-3.58,7.92-.09.43.12.88.57,1,.4.11.92-.14,1-.57.55-2.75,1.71-5.3,3.42-7.53.27-.35.05-.91-.29-1.12-.42-.25-.85-.06-1.12.29h0Z"/>
      <path class="cls-4" d="m260.95,334.26c-.35,2.18-.69,4.36-1.05,6.54s-.75,4.13-1.48,6.1c-.36.99,1.21,1.41,1.57.43.73-1.97,1.14-4.03,1.48-6.1.36-2.18.7-4.36,1.05-6.54.16-1.03-1.41-1.47-1.57-.43h0Z"/>
      <path class="cls-4" d="m247.26,340.57c3.11,1.68,6.31,3.18,9.58,4.53.41.17.9-.18,1-.57.13-.47-.16-.83-.57-1-3.14-1.29-6.2-2.75-9.19-4.36-.92-.5-1.75.91-.82,1.41h0Z"/>
      <path class="cls-4" d="m256.81,354.96c2.56.86,5.28,1.25,7.98,1.14,1.05-.04,1.05-1.67,0-1.63-2.57.1-5.11-.26-7.54-1.08-1-.34-1.42,1.24-.43,1.57h0Z"/>
      <path class="cls-4" d="m285.41,354.41c-2.42,2.07-4.62,4.37-6.57,6.88-.27.35-.34.81,0,1.15.28.28.88.35,1.15,0,1.96-2.51,4.16-4.81,6.57-6.88.33-.29.29-.86,0-1.15-.33-.33-.82-.29-1.15,0h0Z"/>
      <path class="cls-4" d="m278.49,363.59c.94,1.21,1.27,2.81,1.7,4.25.46,1.56,1.04,3.12,2.23,4.28.75.73,1.91-.42,1.15-1.15-1.1-1.08-1.53-2.58-1.94-4.02-.46-1.6-.95-3.17-1.98-4.5-.27-.35-.87-.28-1.15,0-.34.34-.27.8,0,1.15h0Z"/>
      <path class="cls-4" d="m297.64,357.73c-1.64,2.04-3.4,3.99-5.26,5.82-.75.74.4,1.89,1.15,1.15,1.87-1.84,3.62-3.78,5.26-5.82.28-.34.34-.82,0-1.15-.29-.29-.88-.35-1.15,0h0Z"/>
      <path class="cls-4" d="m292.25,364.72c-.5,1.8.41,3.91,2.11,4.72.38.18.9.12,1.12-.29.19-.36.12-.92-.29-1.12-.16-.07-.31-.16-.45-.26-.02-.01-.04-.03-.06-.05-.05-.04-.03-.02.06.05,0,0-.09-.08-.1-.08-.06-.06-.13-.12-.19-.18s-.11-.13-.17-.19c-.07-.07.1.14.02.02-.03-.04-.05-.07-.07-.11-.1-.15-.19-.31-.27-.48-.07-.13.05.12,0,.03-.02-.04-.03-.08-.05-.12-.03-.08-.06-.16-.08-.25s-.04-.17-.06-.25c0-.04-.01-.09-.02-.13-.02-.1.02.19,0,.04-.01-.18-.02-.36,0-.54,0-.04.01-.09.01-.13,0,.07-.03.17,0,.04.02-.09.04-.19.06-.28.11-.41-.14-.91-.57-1s-.88.13-1,.57h0Z"/>
      <path class="cls-4" d="m301.29,365.6c-4.26-2.77-9.39-3.07-14.32-3.33-2.79-.15-5.59-.33-8.3-1.06s-5.2-1.7-7.98-1.68c-1.05,0-1.05,1.64,0,1.63,2.7-.02,5.18,1.01,7.76,1.68s5.04.86,7.58,1.01c4.95.28,10.13.36,14.43,3.16.88.57,1.7-.84.82-1.41h0Z"/>
    </g>
  </g>
  <g id="Layer_4" data-name="Layer 4">
    <g>
      <g>
        <path class="cls-2" d="m271.24,561.34c1.89,2.18,4.37,1.91,6.88,1.78,3.33-.18,6.58.09,9.64,3.05-4.89,2.79-10.18.1-14.81,2.22.1,2.94,2.69,3.46,4.15,4.86,2.26,2.16,3.09,4.43,1.13,7.81-.82-1.14-1.38-1.91-1.95-2.71-2.94-.23-5.3,1.18-7.61,2.71-3.63-3.65-3.6-3.59-7.07-1.47-1.09.66-2.44,1.39-3.62,1.31-3.37-.23-5.71-2.07-8.81-6.34,1.98-.16,3.82-.32,5.66-.47.31.38.56.87.96,1.11.29.18.78.02,1.19.02-.25-.35-.44-.87-.77-.99-.42-.16-.96.01-1.45.04q-6.17-4.53-13.38.11c.13.51.09,1.23.42,1.51,2.68,2.22,4.37,5.58,8.43,6.29,1.42.24,2.39,3.67,3.7,3.77,3.02.24,4.83,2.04,7.14,3.37,2.45,1.41,5.47,1.86,8.14-.63-2.5-2.18-5.62-3.32-5.3-7.43,1.62-.13,3.23-.26,4.83-.39.03,2.41,1.07,4.19,3.18,5.44,1.58.94,3.05,2.08,4.57,3.14-2.05,2.99-6.39,1.48-7.48,4.97.42,2,2.24,1.22,3.45,1.97.11,2.04-1.01,3.38-3.33,4.48-.85-.71-1.82-1.61-2.89-2.37-2.67-1.9-5.15-4.61-8.14-5.42-6.25-1.69-10.2-6.13-14.61-10.16-.2-.18-.48-.28-1.22-.7-.78.79-1.91,1.56-2.5,2.62-1.33,2.4-2.4,4.95-3.81,7.95,1.74.65,3.15,1.37,4.64,1.67,1.46.29,2.47.82,3.27,2.14.47.78,1.6,1.68,2.39,1.64,1.81-.08,3.4-1.45,5.5-.3,1.26.69,3.07.36,4.6.49-.03,1.32-.05,2.38-.09,3.74,3.78,1.02,7.53,1.94,11.21,3.09,1.23.38,2.27,1.34,3.4,2.04l.06-.17c-1.96,1.43-5.08-.44-6.73,2.2,1.35,2.84,4.16,1,5.95,2.15,1.56,1,3.21,1.86,4.87,2.81-.92,2.32-2.36,4.54-.04,7.54-1.73.2-3.01.46-4.28.48-3.48.04-6.43,1.5-9.22,3.36-1.53,1.02-1.53,3.24.04,4.18,1.65.99,3.57,1.56,5.08,2.7,1.18.88,1.92,2.35,3.51,4.42-2.86.06-4.62.09-6.95.14.32,1.45.6,2.69.87,3.93l.07-.2c-1.48.27-2.53.89-2.58,2.63-.1,3.28-.29,6.56-.47,10.52,1.35,2.39,3.56,3.78,7.15,2.9,1.82-.44,3.84-.36,5.73-.17,2.58.26,3.59,1.35,2.81,4.49-.61,2.48,1.93,3.24,1.67,5.58-1.53.67-3.33,1.26-4.91,2.21-1.4.84-2.55,2.09-3.76,3.11-2.21-.53-4.3-1.02-6.83-1.63,1.72-1.61,3.38-3.16,4.91-4.59-.13-2.33-.33-4.41-2.74-4.83-2.48-.43-3.83-1.96-4.97-3.96-2.29-4.04-4.65-8.05-7.05-12.22-5.43-.22-5.39-.25-9.22-4.57-2.38-2.69-4.89-5.26-7.35-7.87-.19-.2-.42-.45-.66-.48-1.31-.17-2.73-.63-3.89-.27-.73.23-1.42,1.68-1.53,2.65-.41,3.55-.45,7.14-.87,10.69-.15,1.26-1.01,2.44-1.4,3.34-2.76,1.1-4.09-.62-5.61-1.69-2.92-2.05-5.88-4.07-8.68-6.28-1.47-1.16-2.68-2.66-3.94-4.07-2.04-2.27-3.54-2.14-5.79.57-.34.41-.74.76-1.11,1.14q-5.96-2.33-11.69-13.62c-.42.29-1.15.55-1.19.89-.38,2.98-.69,5.84-1.92,8.76-1.54,3.66-3.37,7.7-1.06,11.89.11.2.1.63-.04.77-.74.76-1.44,1.84-2.36,2.1-1.22.34-2.2-.7-2.08-1.94.27-2.74.68-5.49,1.26-8.18.98-4.56,2.17-9.09,3.19-13.64.09-.42-.39-.97-.86-2.04-1.12.8-2.17,1.45-3.11,2.23-1.31,1.1-2.59.51-3.91.11l.19.07c-2.66-1.38-5.31-2.76-8.69-4.52-.03-1.37-.08-3.48-.14-6.13-.87-.8-2.04-1.94-3.27-3-1.17-1.02-2.4-1.98-3.53-2.9,1.27-2.18,2.72-1.07,3.98-1.12,3.06-.12,3.87-1.01,3.93-3.98.06-2.57-.52-4.88-2-7.03-.89-1.28-1.48-2.78-2.2-4.17q6.94-3.45,9.15-9.36c-2.15-1.76-4.31-3.86-6.78-5.49-4.38-2.87-8.95-5.45-13.43-8.17-.71-.43-1.6-.79-1.99-1.44-.51-.85-.87-1.97-.78-2.92.05-.5,1.16-1.2,1.87-1.29,5.82-.75,10.9,1.18,15.42,4.7,1.52,1.18,2.62,2.91,4.17,4.02,1.22.88,2.84,1.19,4.86,1.98.66-4.63,1.73-8.56.96-12.73-.35-1.9-.52-3.84-.61-5.77-.21-4.49,1.36-8.52,5.34-10.48,2.81-1.39,3.61-3.96,5.55-6.18,3.53.76,5.5,3.14,7.29,6.05,1.57,2.54,3.65,4.78,5.67,7.36,1.59-1.25,3.12-2.75,4.92-3.77,1.66-.94,3.61-1.34,5.43-1.99,2.04-.73,4.08-1.49,6.34-2.31,3.85,2.87,6.79,7.21,11.8,8.2,1.34-1.86.55-3.03-.61-3.81-1.82-1.22-3.89-2.08-5.67-3.35-.74-.53-1.01-1.72-1.64-2.88,5.74-1.61,8.82,2.14,12.07,4.79,3.25,2.64,6.95,5.28,7.47,11.07-2.89-1.16-5.05-2.03-7.64-3.07-.16,4.85-.07,8.91,1.95,12.69-1.56-1.09-3.33-1.97-4.64-3.3-2.88-2.93-5.4-6.21-8.29-9.14-5.47-5.55-7.19-5.3-11.01,1.28-.54.94-1,1.93-1.7,3.27,4.01,3.37,5.52,7.93,5.91,12.93.08.99-.22,2.06-.57,3.02-1.27,3.44-1.23,4.65,1.68,5.74,2.77,1.04,4.52,2.73,5.98,5.09.2.33.99.3,1.68.48.6-.33,1.43-.59,1.98-1.14.95-.94,1.72-2.06,2.71-3.28-2.35-2.69-4.15-5.45-7.26-6.9l.15.1c-.39-1.17-.79-2.34-1.28-3.81q3.88.71,10.27,6.74c-1.05-4.84,1.86-6.56,3.8-8.97.42-.52.24-1.53.33-2.31,4.1-.79,6.91-3.21,8.75-6.89,1.46-2.93,2.99-5.83,4.6-8.96-1.52-1.39-2.69-2.51-3.92-3.55-1.26-1.06-2.84-1.84-3.83-3.1-3.5-4.46-6.33-9.45-11.17-12.8-1.96-1.36-1.97-3.88-1.79-6.11.16-2.04,1.22-3.53,3.61-4.33,2.15,4.32,4.42,8.34,8.6,10.86,1.07.65,1.82,2.06,2.4,3.27,2.02,4.26,4.69,8.01,8.69,11.44.79-1.02,1.8-1.92,2.29-3.05,1.3-3,2.37-6.1,3.54-9.18-2.92-1.91-13.91-12.6-17.18-16.96,7.03,4.09,14.18,6.3,18.85,12.39,2.19.14,2.94-1.49,3.35-3.03.84-3.19,1.21-6.52,2.12-9.69,1.27-4.44,1.9-9.41,7.33-11.17,0,0-.18-.09-.18-.09,1.48,4.95,6.42,5.55,9.93,7.48.29,2.36-1.1,2.94-2.47,2.89-2.47-.09-4.93-.55-7.56-.87-1.12,2.68-3.54,5.06-1.28,8.72,3.43-.29,6.97-.98,10.46-.77,3.23.19,6.41,1.33,9.63,2.06.67,1.54-.46,2.09-1.53,2.14-4.68.24-9.38.28-14.07.47-2.44.1-4.87.34-8.09.57.87,1.75,1.22,3.07,2.05,3.93.71.74,1.92,1.13,2.98,1.36,6.77,1.45,11.88,5.49,16.65,10.2-.52.46-.97,1.14-1.23,1.07-4.69-1.24-9.61-1.63-13.85-4.44-2.72-1.8-2.86-1.59-9.07-1.94-1.87,2.72-4.2,5.39-5.12,9.65,1.85.25,3.42.78,4.91.6,7.42-.92,14.1,1.3,21.2,4.69-2.28,2.55-5.38,2.99-7.97,4.06-2.78,1.14-5.85,1.59-8.79,2.35-.74-.12-1.48-.29-2.23-.35-.18-.02-.39.29-.59.44.3.3.71.9.88.84.7-.26,1.33-.71,1.98-1.1Zm-75.43,36.12c2.17-1.68,4.22-3.03,5.98-4.7,1.53-1.45,1.78-3.44.76-5.34-2.35-4.41-5.38-8.22-10.08-11.15-2.11,2.32-5.6,3.49-5.99,6.57-.48,3.77-2.18,6.66-3.97,9.78-.86,1.5-1.05,3.87-.53,5.54.63,2.04,2.45,3.56,4.85,3.49.56-.46,1.22-.72,1.35-1.15.66-2.07,1.19-4.19,1.84-6.56,1.65,1,3.24,1.97,5.79,3.52Zm62.1,19.65c1.29-5.59-.85-9.37-5.68-11.64-4.35-2.05-8.7-3.22-13.27,1.16,1.63.58,3.08.73,3.99,1.51,1.2,1.03,1.85,2.69,2.97,3.86,4.57,4.74,9.07,9.76,16.7,8.45.27-.05.45-.67.79-1.2-1.55-.6-3.07-1.19-5.5-2.14Zm-44.45-26.93c-1.66-.15-3.45-.31-5.1-.45-.82,4.31-1.58,8.05-2.23,11.81-.25,1.44.11,2.73,2.16,3.31,2.87-2.51,6.87-4.03,8.37-8.36.21-.6,1.78-1.06,2.7-1.01,1.98.09,3.45-.83,3.77-2.46.2-1.06-.83-2.45-1.53-3.55-.42-.65-1.2-1.22-1.94-1.49-1.24-.46-2.74-1.17-3.81-.81-1,.34-1.58,1.93-2.39,3.03Zm5.32,15.94c5.32.8,9.13,6.04,14.6,4.42.25-1.04.6-1.63.46-2.07-1.36-4.12-5.85-4.5-8.29-7.6-2.55,1.97-4.66,3.61-6.77,5.24Zm32.09,18.24c-2.03,2.27-3.32,3.1-3.63,4.21-.51,1.79-.91,3.93-.38,5.61.8,2.55,2.98,3.78,6,3.18,1.85-4.13-1.36-7.3-1.99-12.99Zm-48.58-8.01c1.71,2.15,2.95,3.9,4.43,5.42.32.33,1.53-.05,2.24-.33.23-.09.38-1.23.23-1.32-2.34-1.43-1.07-2.46.22-3.71.89-.86.9-2.19-.18-2.82-.78-.46-2.12-.59-2.94-.24-1.2.51-2.17,1.58-3.99,3Zm-22.46,3.17c1.64,2.68,3.37,1.89,4.85.39,2.79-2.84,2.78-4.41.14-7.59-1.7,2.45-3.36,4.85-4.99,7.2Zm32.52,10.8c-.15.49-.67,1.29-.52,1.92.53,2.19,4,3.71,5.7,2.57.37-.25.69-.9.67-1.36-.1-3.12-3.09-4.86-5.86-3.13Zm18.16-29.66c1.82.76,3.18,1.84,4.04,1.54.97-.34,1.87-1.86,2.13-3.01.28-1.26-2.09-2.08-4-1.19-.75.35-1.18,1.4-2.18,2.66Zm-31.62-26.6c.4.6.72,1.44,1.33,1.88.55.4,1.41.36,2.14.52.06-.7.37-1.5.13-2.07-.29-.69-.99-1.28-1.64-1.72-.35-.24-1.1-.26-1.45-.04-.31.2-.33.86-.52,1.43Zm53.11-6.33c.27-1.44.44-2.31.61-3.19-.96-.12-1.99-.51-2.87-.29-1.07.27-1.76,1.37-.86,2.33.56.61,1.72.66,3.12,1.15Zm13.25,2.04c-1.37-3.93-3.07-4.35-5.74-3.22,1.71.96,3.21,1.8,5.74,3.22Zm-52.66,54.79c-.15.12-.31.24-.46.36.14.17.25.4.43.48.08.04.3-.21.45-.33l-.42-.51Zm2.02-14.65c.12.15.22.36.39.44.08.04.27-.19.41-.3-.13-.15-.23-.36-.39-.44-.07-.03-.27.19-.41.3Zm57.47-35.15l-.6-.09.17.52.43-.43Z"/>
        <path class="cls-2" d="m271.67,501.95c.54-.1,1.07-.22,1.61-.28,5.14-.57,5.35-.78,5.71-5.76.1-1.34.22-2.67.33-4.07,4.56-1.77,10.33-1.98,9.95-8.84l-.08.15c.61-.33,1.22-.65,2.57-1.37-.72,4.32.25,8.02-3.8,10.79-1.61,1.1-1.72,4.38-2.74,7.31,2.64.46,4.83.84,7.47,1.3-.65.98-.95,1.99-1.49,2.14-1.81.5-3.72,1.01-5.56.91-2.31-.13-4.03.13-5.88,1.87-1.15,1.08-3.52.85-5.34,1.2,0,0,.18.09.18.09-.96-1.86-1.92-3.73-2.87-5.59l-.06.15Z"/>
        <path class="cls-2" d="m179.28,625.38c-.38,2.97,3,5.31,1.7,8.57-3.01-.98-3.02-.96-5.64-3.98.26-.38.65-1.11,1.2-1.7.92-.99,1.95-1.88,2.93-2.81,0,0-.18-.07-.18-.07Z"/>
        <path class="cls-2" d="m298.82,473.98c1.29-.66,1.97-1.12,2.71-1.33.43-.12.97.16,1.46.27-.46.45-.85,1.12-1.39,1.28-.65.18-1.43-.08-2.78-.21Z"/>
        <path class="cls-2" d="m271.74,501.8c-.77-1.56-3.08-2.29-2.52-4.62q2.1,1.13,2.47,4.76s.06-.14.06-.14Z"/>
        <path class="cls-2" d="m270.87,607.3c1.49-.25,2.99-.49,5.63-.93q-2.6,1.85-5.56.76s-.07.17-.07.17Z"/>
        <path class="cls-2" d="m264.04,641.05c.5-.14,1.01-.42,1.5-.39.45.03,1.01.29,1.27.64.14.19-.16,1.05-.38,1.11-.43.1-1.03-.04-1.4-.3-.4-.28-.62-.82-.92-1.25,0,0-.08.2-.08.2Z"/>
        <path class="cls-2" d="m170.72,585.33c.1-.4.1-1.04.34-1.15.31-.15.82.11,1.25.2-.1.43-.2.86-.3,1.3-.43-.11-.86-.23-1.28-.34Z"/>
        <polygon class="cls-2" points="263.67 664.86 264.12 664.61 264.09 665.12 263.67 664.86"/>
        <path class="cls-2" d="m163.24,695.64c.15-.11.34-.34.45-.31.19.06.33.28.48.44-.26.18-.51.36-.77.54-.06-.22-.11-.44-.17-.67Z"/>
        <path class="cls-2" d="m289.28,483c-.31-.31-.62-.62-.93-.94.2.1.47.15.59.31.15.21.18.51.26.77,0,0,.08-.15.08-.15Z"/>
        <path class="cls-2" d="m225.12,576.5c-.4.59-.77,1.2-1.21,1.74-.1.12-.68.05-.68.02-.06-.43-.18-1.19-.04-1.24.65-.25,1.38-.3,2.09-.42,0,0-.15-.1-.15-.1Z"/>
      </g>
      <g>
        <path class="cls-2" d="m229.07,679.73c.05.55.37,1.3.12,1.64-2.62,3.55-5.55,7.17-9.84,8.31-3.88,1.04-6.82,2.32-6.92,6.64-3.26.15-5.65.26-8.8.41,2.39,2.1,4.49,2.3,6.67,2.09,2.2-.21,4.43-.92,6.58-.74,4.66.39,9.29,1.22,13.55,1.82,1.49,2.82,2.78,5.23,4.05,7.65,1.13,2.15,2.24,4.3,3.36,6.46,3.97.61,6.52-3.83,10.52-2.41.56.2,2.09-1.65,2.82-2.77,1.16-1.8,1.75-4,3.07-5.63,1.19-1.46,3.04-2.38,4.48-3.45.13-.74.26-1.27.31-1.81.22-2.52-2.52-3.82-2.74-5.77-.23-1.99.8-3.87-.13-6.29-1.4-3.63,1.57-6.51,5.39-6.07,1.94.22,3.3,1.38,3.11,3.19-.25,2.44-.68,4.78-.11,7.3.19.81-1.48,2.05-2.38,3.2,1.36,1.43,2.65,2.8,3.76,3.97-.26,3.3-2.51,4.81-4.56,6.05-4.92,2.98-6.51,7.18-5.62,12.64.13.81-.02,1.66-.04,2.5l.13-.15c-2.04-.74-4.08-1.48-6.55-2.38-1.59,4.77-3.35,9.66-8.27,13.03q.42-6.48-2.14-10.76c-.85.7-1.91,1.2-2.37,2.04-.79,1.45-1.03,3.2-1.83,4.63-.43.77-1.57,1.13-3.33,2.32.29-2.14.41-3.14.55-4.13.16-1.04.34-2.07.53-3.22-.91,0-1.58-.21-1.88.04-1.27,1.06-2.27,2.54-3.67,3.32-1.34.75-2.66.11-3.19-2.11,1.84-1.98,3.85-4.17,5.83-6.3-1.27-1.83-2.06-.56-2.87-.09-.72.42-1.35.99-2.06,1.43-2.87,1.8-5.61,2.09-8.46-.27-2.77-2.29-5.52-4.69-9.79-3.53-.82.22-2.75-1.82-3.39-3.18-1.02-2.17-1.38-4.65-2.17-7.58-2.26,2.34-1.16,5.3-3.11,7.43-3.81-.45-7.88-.93-11.86-1.39-.65,1.83.56,2.17,1.53,2.45,2.79.79,5.3,1.86,6.19,4.98l.14-.15c-3.95-.98-6.53,2.36-9.92,3.17-2.18-1.23-4.07-.68-5.94,1.04,2.62,2.33,4.3.46,6.02-1.19.94,3.59-1.34,5.68-3.62,7.52-.07,4.75,1.69,8.59,4.54,12.67-1.95.56-3.68,1.06-5.6,1.61-2.76-2.4-5.26-4.75-6.2-8.65-6.05,1.82-11.9.54-17.66-1.45-1.78-.62-1.78-2.23-.13-4.36l-.12-.12c2.17,2.11,4.83,2.04,7.48,1.49,2.07-.43,4.07-1.2,6.1-1.81.11.48.13,1,.36,1.41.12.21.6.22.92.32-.1-.21-.17-.47-.32-.63-.34-.35-.72-.65-1.09-.98,1.15-3.29-1.97-2.24-3.49-3.35.14-1.15.31-2.48.47-3.79,4.31.06,7.16-2.68,10.5-4.22-.32-2.87-2.62-1.72-3.89-2.41-2.42-1.3-3.14-3.24-1.43-5.37,1.14-1.42,2.74-2.46,4.8-4.24.76,2.27,1.25,3.74,1.76,5.27,1.58.58,2.54-.03,3.05-1.62,1.17-3.7,2.22-7.5,6.66-8.7l-.12-.14c3.8,2.83,5.31,3.25,7.97,1.15,2.36-1.86,4.28-4.27,6.66-6.69-1.6-2.08-4.09-1.26-5.99-1.95-2.07-.74-4.25-1.19-6.8-1.88-.35-1.33-.76-2.86-1.18-4.46q6.73-.69,10.9-3.56c-2.85-3.62-10.06-8.6-13.92-9.28-.75-.13-1.72.95-2.58,1.48-.17.2-.4.37-.51.59-.08.15-.01.38-.01.57.13-.43.26-.85.4-1.28,1.1.75,2.2,1.51,3.61,2.47-1.19,2.03-2.52,3.57-3,5.34-.48,1.74-.1,3.72-.1,5.75-2.67,1.36-5.11,2.61-7.46,3.81-1.86-1.73-3.57-3.32-5.66-5.27,2.2-1.11,4.41-2.18,6.57-3.34,1.47-.79,1.45-.84,1.64-4.93-2.23-1.25-2.56,1.64-4.28,1.92-2.96-.94-4.9-3.19-6.99-5.98,1.57-2.09,3.03-4.03,4.56-6.07-.17-1.17-.36-2.47-.54-3.73,2.74-1.39,3.78,3.66,6.97,1.25-1.38-2.69-4.92-4.51-3.77-8.59.49-1.74-2-2.74-4.29-1.94-.71.25-1.38.63-2.37,1.09,0-2.55,0-4.71,0-6.86.51-.02,1.08.1,1.52-.09.33-.15.5-.67.75-1.03-.44,0-.98-.18-1.28.02-.39.26-.59.81-.87,1.24-1.72-1.26-3.44-2.51-5.13-3.74.94-3.44,4.69.04,5.51-3.86-.39-2.16-2.52-3.52-5.33-4.2l.13.13c.17-1.5.75-3.12,2.47-2.49,5.72,2.11,10.09,5.92,12.62,11.54,1.83,4.05,3.54,8.16,5.04,12.34.62,1.74.52,3.73.78,5.79,3.81,1.29,6.67.26,8.24-3.37,1.75-4.05,3.18-8.25,4.85-12.64-1.77-1.8-3.59-3.49-5.22-5.35-2.57-2.94-1.92-5.1,1.74-6.07.79-.21,1.67-.06,2.45-.28.76-.22,1.43-.71,2.24-1.14.69.61,1.79,1.11,1.83,1.68.25,4,2.83,6.87,4.51,10.19,1.08,2.13,1.56,4.57,2.49,7.43,1.93-.31,3.94-.63,5.85-.93,2.67,2.31-2.87,4.35.34,6.99,2.99-3.59,7.06-6.21,6.78-11.63,6.22.19,7.68,5.78,12.14,7.39,1.8-.29,3.95-1.01,6.06-.89,2.13.12,4.21,1.08,6.6,1.75-.16,2.57-3.42,2.71-3.97,4.73-.5,1.81-.5,3.76-.73,5.79-1.46-.32-2.72-.59-3.86-.84-2.56,1.4.29,3.09-.47,4.6-.71,1.4-1.16,2.94-1.76,4.55,3.97,1.64,7.46,3.09,11.59,4.8.69-1.03,2.1-2.22,2.27-3.56.44-3.51.34-7.09.48-11.51,3.07,2.94,1.03,6.67,2.4,8.03,2.73,2.64,6.02-.62,7.5,2.69-.24,2.66-3.1,1.97-4.28,3.35-1.05,1.23-2.88,2.81-2.67,3.93.81,4.51-2.38,7.85-2.34,11.75-.75.25-1.01.33-1.27.42-.61-2.03-1.21-4.06-2.02-6.77-4.34,2.66-8.25,5.05-12.76,7.82-.05-1.25-.33-2.25-.09-3.1.55-1.86,1.29-3.68,2.07-5.46,2.39-5.47,1.79-6.27-4.84-6.24-.58-1.28-1.26-2.82-2.89-2.38-2.43.65-3.13,2.61-3.17,5.46,2.42-1.27,4.3-2.25,6.18-3.23Zm-17.07,3.55c.86.71,1.72,1.42,2.58,2.13.18-.35.36-.7.54-1.05-1.09-.32-2.17-.63-3.26-.95,2.12-1.44,4.23-2.87,6.87-4.66-3.87-.81-6.79-3.08-10.09-.84-2.64,2.51-5.96,4.42-7.79,8.14,5.77.44,6.51.13,7.29-3.39.35-1.59.3-3.26.43-4.88,1.14,1.84,2.27,3.67,3.42,5.5Zm4.16,25.75c3.38-.28,5.59-1.84,7.28-5.6-3.95.97-6.22,2.52-7.28,5.6Zm-9.21-39.43c-1.13.6-1.94.82-2.42,1.34-.6.67.63,1.89,1.99,1.77.71-.06,1.39-.59,2.08-.91-.53-.7-1.06-1.4-1.65-2.19Zm-14.1,34.44l-.28.38h.55s-.27-.38-.27-.38Zm32.3-50.42l-.03.5.51-.22-.49-.28Zm3.66,3.87l.07-.52-.55.2.48.32Z"/>
        <path class="cls-2" d="m164.91,742.16c.63-1.24,1.06-2.65,1.93-3.69,2.29-2.76,3.81-2.57,7.79.99-2.23,2.36-4.46,4.72-7.07,7.48.93.72,1.64,1.47,2.51,1.9,1.11.55,2.34,1.66,1.57,2.41-1.9,1.84,1.96,3.3-.16,5.23-2.11,1.92-4.04,2.06-5.16-.51-.62-1.42-1.18-2.88-2.11-5.17-2.09,2.25-3.4,4.01-5.04,5.34-2.37,1.91-4.56,3.61-8.17,1.37-2.62-1.63-6.29-1.58-9.55-2.29-.44-1.9,1.06-2.37,2.31-2.64,4.45-.96,8.19-.77,13.11.43,1.67-1.87,1.33-3.49-.67-4.84-.44-.3-1.04-.38-1.57-.54-1.86-.59-2.83-1.77-2.32-3.77.48-1.89,2.03-2.58,4.77-1.75,2.71.81,5.31,1.93,7.95-.07.19.17.35.39.57.5.15.08.37,0,.57,0-.41-.12-.83-.25-1.24-.37Z"/>
        <path class="cls-2" d="m148.2,783.78c-1.35-1.62-2.77-3.19-4.03-4.88-1.09-1.47-2.49-1.83-4.17-1.61l.12.15c1.27-2.39,2.54-4.78,3.95-7.45-.37-1.24-.84-2.77-1.46-4.82,5.45-1.65,10.76-3.25,16.69-5.04-2.1,4.43-3.83,8.09-5.56,11.75-.12.25-.22.62-.42.69-5.32,2.01-3.95,7.16-5.22,11.07l.1.12Z"/>
        <path class="cls-2" d="m156.74,629.41c-.12-1.1-.49-2.26-.28-3.3.25-1.25.68-2.8,1.59-3.5,1.76-1.36,3.75-.59,5.31.72.54.45.94,1.48.83,2.16-.11.68-.98,1.81-1.43,1.77-2.4-.22-4.27.84-6.15,2.03l.12.12Z"/>
        <path class="cls-2" d="m185.55,724.95c2.78-.96,3.62,1.12,4.8,2.38.96,1.03.37,3.29-.82,3.29-.82,0-1.97-.67-2.39-1.38-.75-1.27-1.07-2.8-1.59-4.29Z"/>
        <path class="cls-2" d="m184.06,688.75c-1.19,4.1-2.86,5.76-6.13,6.02q1.31-3.73,6.13-6.02Z"/>
        <path class="cls-2" d="m138.05,790.34c-3.11-1.11-4.5-1.6-6.2-2.21.71-1.29,1.21-2.2,2.08-3.78,1.23,1.78,2.16,3.14,4.11,5.99Z"/>
        <path class="cls-2" d="m139.99,777.29c-2.45,3.21-5.14,1.99-7.85.83.05-2.02,1.24-2.2,2.33-2.02,1.9.31,3.76.88,5.64,1.34,0,0-.12-.15-.12-.15Z"/>
        <path class="cls-2" d="m193.53,715.2c3.57.4,6.55,1.76,8.41,5.02,0,0,.12-.12.12-.12-4.29.79-7.05-.94-8.39-5.05,0,0-.14.15-.14.15Z"/>
        <path class="cls-2" d="m207,726.89c-3.74-.74-3.86-4.11-4.95-6.79,0,0-.12.12-.12.12,3.44.95,4.82,3.41,4.96,6.78l.11-.11Z"/>
        <path class="cls-2" d="m148.55,737.45c.43.85.84,1.63,1.24,2.41-.46.12-1.09.49-1.34.32-.58-.41-.98-1.08-1.45-1.64.37-.26.74-.52,1.55-1.09Z"/>
        <path class="cls-2" d="m161.78,634.46c-.4.67-.71,1.41-1.22,1.99-.29.33-.9.57-1.33.53-.28-.03-.77-.75-.68-.98.16-.4.63-.8,1.06-.95.73-.25,1.53-.31,2.3-.45,0,0-.12-.13-.12-.13Z"/>
        <path class="cls-2" d="m166.13,678.03c-.66.31-1.26.59-1.86.88-.1-.43-.39-.95-.24-1.25.18-.37.72-.71,1.14-.75.24-.02.53.59.96,1.12Z"/>
        <path class="cls-2" d="m186.92,696.68c.25-.49.38-1.17.78-1.42.81-.51,1.76-.8,2.67-1.12.07-.02.44.6.42.61-.77.62-1.51,1.3-2.38,1.75-.43.23-1.07.04-1.62.04,0,0,.12.14.12.14Z"/>
        <path class="cls-2" d="m255.71,718.64c.91.22,1.93.26,2.67.74.31.2,0,1.34-.03,2.05-.63-.24-1.48-.31-1.84-.76-.44-.56-.47-1.44-.67-2.19,0,0-.13.15-.13.15Z"/>
        <path class="cls-2" d="m157.79,715.71c.86.22,1.51.39,2.16.55-.55.08-1.1.19-1.66.21-.11,0-.23-.33-.51-.76Z"/>
        <path class="cls-2" d="m227.72,644.31c-.31.27-.71.84-.95.77-.39-.1-.68-.61-1.01-.95.33-.28.73-.82.98-.76.38.09.66.6.98.94Z"/>
        <path class="cls-2" d="m156.62,629.3c-.12.48-.16,1.02-.4,1.43-.12.21-.62.2-.94.29.1-.22.14-.5.31-.66.35-.35.77-.63,1.15-.94,0,0-.12-.12-.12-.12Z"/>
        <path class="cls-2" d="m155.16,725.42c.26-.67.53-1.34.21-.54.56-.67.11-.13-.34.41,0,0,.13.12.13.12Z"/>
        <path class="cls-2" d="m216.21,727.45c-.22.08-.45.16-.67.24-.07-.22-.26-.51-.18-.64.1-.16.42-.18.64-.26.07.22.14.44.21.67Z"/>
        <path class="cls-2" d="m187.44,744.99c-.1-.18-.34-.43-.29-.58.07-.19.37-.31.57-.46.16.34.32.69.49,1.03h-.77Z"/>
        <polygon class="cls-2" points="191.79 757.71 191.37 757.3 191.88 757.16 191.79 757.71"/>
        <path class="cls-2" d="m206.89,727c.27.06.53.13.8.19-.23-.1-.46-.2-.69-.3,0,0-.11.11-.11.11Z"/>
        <path class="cls-2" d="m148.1,783.65c-.03.28-.05.55-.08.83.06-.23.13-.46.18-.7,0,0-.1-.13-.1-.13Z"/>
      </g>
      <g>
        <path class="cls-2" d="m147.49,549.25c1.03-.43,2.12-.8,2.07-2.24-.04-.98.52-1.74,1.43-1.57,2.46.45,4.87,1.15,7.32,1.66.78.16,1.64.04,2.45-.03.21-.02.55-.3.58-.5.08-.5.08-1.03,0-1.53-.04-.23-.3-.51-.53-.62-4.93-2.53-9.68-5.52-15.45-5.87-1.77-.11-3.1-.86-3.68-2.79-.33-1.09-1.57-1.51-2.66-1.8-3.72-1-6.31-3.42-8.21-6.65-.24-.42-.23-1.07-.13-1.57.12-.59.73-.83,1.28-.43,1.8,1.29,3.54,2.53,5.77,3.2,3.98,1.18,7.58,3.42,11.67,4.48,1.49.39,2.67,1.92,4.06,2.81.31.2,1.14.07,1.37-.2.29-.35.47-1.16.26-1.5-.57-.92-1.21-2.05-2.11-2.48-3.03-1.45-6.11-2.74-8.25-5.5-3.51-1.67-6.93-3.6-10.56-4.94-2.59-.96-4.11-2.75-5.5-4.83-.22-.33-.09-1.16.19-1.48.28-.32,1.04-.53,1.45-.38,2.09.76,4.08,1.55,6.42,1.58,2.31.03,4.24,1.32,5.34,3.49,1.2,2.37,3,3.98,5.56,4.71,1.36.39,2.62.93,3.6,2,1.66,1.82,3.79,2.15,6.11,1.95,2.15-.18,3.72.84,4.92,2.57.63.91,1.27,1.84,2.04,2.63.57.58,1.34.97,2.06,1.38,1.38.79,3.14,0,3.1-1.45-.06-2.23-.1-4.45.5-6.63l-.13.14c1.6-.52,3.19-1.03,4.92-.78.64.09,1.68,1.2,1.49,1.76-1,2.91-1.21,5.99-1.94,8.95-.35,1.43-.25,2.66.05,4.05.22,1.02.02,2.25-.36,3.24-.66,1.73-.59,3.23.53,4.72.33.44.51.99.71,1.51.74,2,.31,2.88-1.7,3.77-1,.45-2.01.94-2.9,1.57-.36.25-.47.91-.6,1.41-.02.07.43.36.69.4,1.12.17,2.28.39,2.92,1.39,1.06,1.63,2.08,3.31,2.9,5.07.49,1.05.19,2.32-.68,3.08-.55.48-1.53.71-2.29.66-2.05-.14-3.73-1.08-4.83-2.89-.15-.24-.3-.48-.39-.74-1.37-3.92-4.17-5.71-8.27-5.85-1.06-.03-2.13-.6-3.15-1.04-2.98-1.29-6.07-.35-9.1-.57-2.79,1.78-6.37,2.19-8.62,4.91-.73.88-1.65,1.68-2.81,1.6-3.85-.25-7.79.47-11.8-.75,1.91-1.11,3.55-2.14,5.26-3.02,1.22-.63,2.51-1.35,3.84-1.53,2.75-.38,5.53-.36,7.58-2.78.42-.49,1.54-.45,2.35-.53,1.38-.14,2.76-.17,4.14-.3.79-.07,1.33-1.1,1.03-1.91-.38-1.05-.78-2.09-1.17-3.13,0,0-.09.15-.09.15Z"/>
        <path class="cls-2" d="m159.53,511.91c-1.62-2.26-3.2-4.55-4.89-6.75-.83-1.09-1.84-2.04-2.83-3-1.39-1.35-2.88-2.6-4.23-3.99-.27-.28-.12-.98-.1-1.48,0-.03.59-.18.75-.06,3.1,2.33,6.09,4.81,9.28,7.01,1.64,1.13,3.08,2.35,4.31,3.89.69.86,1.48,1.68,2.38,2.32,3.12,2.23,5.37,2.16,7.29-.49,1.59-2.19,4.42-2.35,5.98-4.37.13-.17.08-.57-.01-.82-.09-.23-.34-.53-.54-.55-.52-.04-1.08-.03-1.57.13-.79.26-1.5.74-2.29.98-.88.26-2.4-1.05-2.32-1.92.05-.55.04-1.14.24-1.64.76-1.88.95-3.79.31-5.72-.64-1.92-.61-3.78-.04-5.74.7-2.43,1.11-4.93-.26-7.32.16-2.29-.17-4.45-1.66-6.32-.15-.19-.25-.59-.16-.8.2-.44.45-1.04.83-1.18.43-.17,1.24-.11,1.52.19,2.3,2.39,4.07,5.25,6.71,7.33.34,1.34.78,2.66.99,4.02.26,1.63-.82,3.29-.01,4.91.23.45.72.88,1.19,1.06.46.17,1.19.19,1.55-.07.65-.47,1.25-1.13,1.61-1.84.62-1.25,1.1-2.57,2.43-3.27.24-.13.55-.24.8-.2.25.04.63.26.66.44.33,1.95.48,4.04-.55,5.7-1.25,2.01-1.42,4.13-1.8,6.32-.66,3.82-1.41,7.6-4.3,10.65-1.48,1.56-2.27,3.79-3.28,5.77-.1.2.42.9.8,1.1.46.25,1.15.42,1.61.26,2.45-.86,4.77-1.04,7.27.09,1.18.54,2.75.18,4.12.37.44.06,1.05.49,1.18.88.13.39-.12,1.25-.42,1.37-2.39.96-4.33,2.46-6.05,4.35-.84.92-2.03.9-3.11.5-1.3-.48-2.51-1.23-3.83-1.67-.75-.25-1.92-.49-2.39-.11-2.16,1.74-5.37,1.87-6.89,4.53l.13-.14c-3.12.57-5.82-.73-7.1-3.24-1.83-3.56-5.21-4.84-8.07-6.92-2.04-1.48-4.35-2.38-6.96-2.45-1.8-.05-3.11-1.04-3.98-2.6-.4-.72-.91-1.42-1.15-2.2-.44-1.44-1.43-2.35-2.63-3.07-1.66-.99-3.44-1.8-5.03-2.89-1.11-.77-2.02-1.85-2.96-2.85-.58-.61-.54-1.95.1-2.22.7-.31,1.54-.46,2.3-.41.48.03.97.49,1.38.85,1.26,1.08,2.59,2.12,3.71,3.33,1.58,1.72,3.45,2.69,5.77,2.99.76.1,1.86.45,2.14,1.01,1.39,2.83,4.35,3.28,6.67,4.68.71.43,1.45.93,2.24,1.06,1.06.18,2.18.03,3.27.03,1.25,4.45,5.04,6.16,8.7,7.95.35.17,1.04-.1,1.46-.35.57-.34.59-.92.13-1.43-2.82-3.12-6.28-5.14-10.39-6.04Z"/>
        <path class="cls-2" d="m147.58,549.1c-2.98.62-5.91,1.29-9.04,1.16-2.45-.1-4.93.61-7.4.88-1.08.12-2.19.12-3.26-.03-.43-.06-.83-.65-1.15-1.06-.09-.11.08-.56.25-.7,2.16-1.81,4.44-3.22,7.5-2.76,1.35.2,2.78-.23,4.15-.1,2.02.2,3.81-.23,5.61-1.1.96-.46,2.05.24,2.56,1.47.32.76.47,1.59.69,2.39l.09-.15Z"/>
        <path class="cls-2" d="m169.22,462.17c-.49.2-.75.42-.98.39-2.28-.36-4.05-1.47-4.94-3.66-.18-.44-.07-1.04.02-1.55.11-.67,1.1-1.14,1.98-1.02,2.87.4,4.13,1.41,4.46,3.83.09.68-.37,1.44-.54,2.01Z"/>
        <path class="cls-2" d="m172.11,470.4c-1.47.23-2.69-.31-3.71-1.31-.6-.6-.98-1.33-.66-2.21.39-1.04,1.64-1.84,2.56-1.69,2.04.33,3.39,2.17,2.92,4.15-.1.42-.73.71-1.12,1.06Z"/>
        <path class="cls-2" d="m148.95,480.67c-.04-.96-.11-1.5-.07-2.03.02-.25.19-.57.4-.69.2-.12.58-.12.8-.01,2.03.97,2.51,2.7,2.22,4.75-.03.24-.27.65-.41.65-.51,0-1.24.05-1.48-.25-.66-.83-1.11-1.82-1.46-2.42Z"/>
        <path class="cls-2" d="m183.86,530.23c.41-.15,1.17-.51,1.97-.73.67-.18,1.04.15.95.75-.04.24-.19.59-.38.66-1.54.58-3.09,1.17-4.68,1.63-.47.14-1.06-.12-1.6-.2.33-.39.58-.93,1-1.15.73-.38,1.56-.56,2.73-.95Z"/>
        <path class="cls-2" d="m165.64,493.3c.14-.74.24-1.25.34-1.75.37.36.88.66,1.08,1.09.54,1.21.98,2.47,1.4,3.73.04.13-.26.49-.46.54-.23.07-.68,0-.76-.16-.59-1.19-1.12-2.42-1.59-3.45Z"/>
      </g>
      <path class="cls-2" d="m156.9,663.88c.09,1.87.23,2.79.14,3.69-.03.33-.54.81-.9.87-.36.07-1.06-.21-1.15-.49-.87-2.53-1.67-5.1.47-7.51-.45-1.78-1.54-3.01-2.97-4.26-2.16,1.38-3.1,3.62-4.65,5.3-1.59,1.72-3.27,3.36-5.04,5.16.43,1.88-1.51,3.74-.08,6.02.77.1,1.68.18,2.57.35,2.14.41,4.28.82,6.4,1.33.3.07.75.86.65,1.04-.27.47-.8,1.1-1.23,1.1-.91,0-1.81-.35-2.72-.58-1.37-.35-2.74-.72-4.33.22.54,1.39,1.08,2.79,1.69,4.37,1.29.13,2.51.23,3.72.4.92.13,1.89.22,2.71.6.38.18.61,1,.62,1.53,0,.3-.57.83-.92.86-.88.08-1.78-.06-2.94-.12.73,2.91,2.89,4.12,4.95,5.27-.59,1.95-1.44,2.51-2.43,1.67-3.13-2.63-5.98-5.48-7.83-9.25-1.41-2.88-1.54-2.81-4.14-4.48.52-2.7-.2-5.3-1.2-8.09-1.65.66-2.89,1.36-4.23,1.67-2.97.67-4.27,2.36-3.69,5.77,1.53,1.1,3.26,2.4,5.06,3.61,2.38,1.59,4.38,3.54,5.87,5.98.3.5.59,1.22.45,1.72-.1.38-1.06.94-1.31.81-.63-.33-1.17-.96-1.6-1.57-2.58-3.71-4.71-5.43-9.23-7.24-.21.71-.62,1.4-.58,2.07.2,3.59,1.34,6.59,4.71,8.61,2.52,1.52,4.83,3.47,6.99,5.48,1.22,1.13,2.04,2.74,2.89,4.21.2.35-.18,1.04-.38,2.01-3.13-3.12-4.78-7.11-9.36-9.09.54,1.04.7,1.54,1.02,1.91,4.45,5.09,8.11,10.74,11.56,16.53,1.29,2.17,1.93,4.62,1.94,7.17,0,.59-.27,1.2-.52,1.75-.1.21-.52.37-.79.36-.27,0-.59-.2-.78-.41-.2-.21-.36-.54-.37-.83-.23-5.85-4.01-10.06-6.83-14.7-.13-.22-.52-.28-1.05-.56-.95.86-.73,2.21-1.12,3.29-.28.78-.78,1.51-1.69,1.12-.41-.17-.84-1.01-.76-1.46.31-1.88.36-3.69-.05-5.58-.91-4.19-.84-4.2-4.41-8.12-.75,1.39-1.4,2.74-2.19,4.01-.39.63-.97,1.19-1.59,1.61-.24.16-.85-.07-1.21-.28-.2-.11-.37-.59-.3-.81.2-.58.55-1.11.83-1.67,1.74-3.46,2.39-7.05,1.39-10.87-.73-2.77-.76-5.55-.02-8.36.34-1.31.99-2.68.17-4.32-3.71.89-7.46,1.78-11.44,2.73.12,1.73.22,3.27.32,4.81.23,3.63-.1,7.21-1.1,10.7-.38,1.33-1.04,2.61-1.75,3.81-.23.39-1.13.7-1.57.56-.66-.2-.69-.95-.34-1.57,3.13-5.55,2.81-11.38,1.34-17.28-.09-.35-.61-.59-.9-.85-1.29.49-1,1.55-1.1,2.42-.2,1.86-.14,3.79-.63,5.56-.45,1.61-1.43,3.08-2.32,4.53-.25.4-.99.5-1.63.8-.71-1.44.07-2.29.61-3.17,1.56-2.56,1.69-5.34,1.24-8.18-.14-.89-.55-1.83-1.98-1.74-.83,1.16-.61,2.58-.81,3.92-.4,2.78-.81,5.57-1.34,8.33-.22,1.13-.96,1.96-2.55,1.75-.45-1.77,1-3.17,1.13-4.8.12-1.56.2-3.13.19-4.69,0-1.65.36-3.47-1.62-4.64-1.38,1.35-1.58,3.11-2.1,4.71-1.11,3.44-2.55,6.73-4.66,9.68-.63.88-1.4,1.68-2.2,2.41-.27.25-.98.37-1.25.19-.59-.39-.57-1.03-.11-1.6,3.09-3.85,5.24-8.15,6.19-13.02.15-.75.18-1.52.29-2.59-.93-.23-1.75-.44-2.83-.71-1,4.5-4.44,7.27-6.47,10.92-.2.36-.71.66-1.13.78-.39.11-.99.07-1.26-.17-.26-.23-.42-.92-.26-1.2.53-.94,1.24-1.78,1.86-2.67.8-1.15,1.65-2.28,2.35-3.49.68-1.19,1.2-2.47,1.75-3.63-1.02-1.42-2.45-1.01-3.57-1.41-1.17-.42-2.39-.71-3.04-.89-2.3.79-3.13,2.08-3.66,3.6-.87,2.49-1.68,5.01-2.53,7.51-.1.28-.28.64-.52.75-.39.18-.86.28-1.28.24-.21-.02-.57-.47-.53-.67.24-1.37.46-2.75.88-4.07.71-2.22,1.82-4.32,1.78-6.75-4.63-.2-4.66-.18-11.25,8.98-1.39-.04-1.63-1.07-1.15-1.92,1.3-2.3,2.77-4.52,4.29-6.69.61-.88,1.52-1.54,2.46-2.47-1.22-1.14-2.43-1.05-3.49-.42-1.74,1.03-3.35,2.3-5.06,3.38-.32.2-.98.19-1.28-.01-.29-.2-.39-.77-.45-1.19-.04-.29.12-.6.2-.9.07-.3.15-.6.28-1.17-1.04-.14-2.06-.28-3.15-.43-1.15,2.91-3.15,4.7-6.25,5.89-.11-.91-.49-1.78-.2-2.19.78-1.11,1.84-2.02,2.76-2.99-.29-.36-.47-.79-.65-.79-4.84-.03-9.67-.01-14.37,0-1.63,1.77-2.57,4.06-5.43,3.7-.24-.87-.47-1.73-.7-2.59-4.08-.15-6.15,2.52-7.82,6.01-.73-.33-1.57-.45-1.68-.81-.21-.66-.28-1.64.07-2.17,2.66-4.01,6.27-6.42,11.28-6.52,3.75-.07,7.49-.39,11.16-.6.22-.38.47-.63.5-.91.08-.94.02-2.1,1.03-2.42.79-.26,1.8-.02,2.67.18.59.13,1.14.53,1.65.89,3.51,2.45,7.43,3.19,11.58,2.65,4.57-.59,9.05-.18,13.51.85.59.14,1.22.1,1.82.14.94-1.72.18-3.21-.42-4.58-.88-2-2.08-3.85-3.04-5.81-.34-.69-.36-1.54.66-1.88,2.9,2.24,3.51,3.48,6.4,13.16,2.04,1.11,4.37,1.2,6.99,1.35.2-.93.6-1.81.52-2.64-.33-3.43-.64-6.87-1.29-10.24-.28-1.45-1.34-2.76-2.11-4.1-.31-.53-.92-.89-1.17-1.42-.15-.32-.02-1,.24-1.23.26-.23.96-.3,1.26-.11,1.94,1.23,3.17,2.99,3.52,5.29.36,2.32.62,4.66,1.02,6.97.45,2.61,1.01,5.2,1.55,7.93,2.11.71,4.33,1,6.86.37-.15-1.87-.99-3.17-1.75-4.5-1.48-2.58-2.97-5.16-4.38-7.78-.91-1.7-.85-1.73-.45-4.43,3.82-.29,6.49,1.51,8.49,4.59,1.45,2.23,2.89,4.47,4.38,6.67,1.07,1.58,1.86,3.23,1.35,5.44,3.22.18,6.17.6,9.07-.27,5.78-1.74,12.03-2,17.66-5.54-1.88-1.31-3.85-1.08-5.69-1.99-1.38.92-2.8,1.83-4.19,2.79-1.33.92-2.58,1.16-2.87.45-.54-1.33.48-2,1.3-2.71.7-.61,1.46-1.16,2.15-1.7-.13-1.36-1.1-1.58-2.01-1.45-1.85.25-3.67.73-5.52,1.04-.38.06-1.18-.21-1.17-.31.02-.55.06-1.28.41-1.6.79-.72,1.76-1.23,2.95-2.02-3.33-2.85-6.6-5.22-11.26-3.82-.44.13-1.08.35-1.33.15-.39-.31-.86-1.12-.71-1.4.33-.62.97-1.39,1.58-1.48,2.93-.46,5.9-.98,8.6,1.02.81.6,1.85.91,2.86,1.39.6-1.65-.44-2.27-1.16-3.01-.43-.44-1.04-.75-1.36-1.25-.2-.32-.2-1.12.02-1.28.44-.31,1.13-.53,1.63-.41.55.13,1.12.58,1.49,1.05.77.98,1.41,2.06,2.2,3.26,1.18.06,2.39.11,3.7.18,2.37,2.67,4.62,5.43,5.33,8.78,2.34,1.89,5.36-.14,7.54,2.25,4.03-2.75,6.9-6.56,10.08-10.61-1.2-.84-2-1.53-2.91-2.02-2.04-1.1-4.05-2.36-6.24-3.07-2.05-.67-4.32-.68-6.48-1.05-1.54-.27-3.08-.58-4.59-1-3.18-.89-6.2-2.07-8.77-4.31-1.63-1.43-3.58-2.49-5.37-3.73-.25-.17-.6-.42-.62-.65-.05-.57-.06-1.21.18-1.69.12-.24.91-.43,1.2-.27,1.09.59,2.15,1.26,3.13,2.03,2.47,1.93,4.99,3.77,7.87,5.07,2.01.91,4.06,1.45,6.57,1.19-.02-1.05-.07-1.95-.06-2.85.03-3.13,0-6.26.16-9.37.05-.85.65-1.71,1.16-2.46.15-.22.86-.16,1.28-.06.22.05.51.45.51.69,0,.61-.15,1.21-.2,1.82-.25,2.64-.59,5.28-.71,7.93-.08,1.89.4,3.71,1.82,5.56,1.48,0,3.16-.02,4.95-.03.26-1.18.41-2.24.73-3.24.26-.8.92-1.29,1.81-1.09.88.2,1.4.94,1.18,1.74-.44,1.55-.65,3.05-.05,4.8,1.48,1.09,3.09,2.28,4.99,3.68.59-.87,1.03-1.63,1.59-2.29.39-.46.9-.96,1.44-1.11.51-.14,1.33-.02,1.67.32.33.32.47,1.24.25,1.63-.7,1.2-1.62,2.27-2.61,3.6,1.52,2.44,2.9,4.89,4.51,7.18.58.82,1.64,1.36,2.56,1.88,1.08.61,2.33.94,3.35,1.61.53.35.74,1.19,1.08,1.78-1.55,1.38-2.76-1.13-4.18.21.51,1.69,1.07,3.47,1.56,5.27.05.18-.26.57-.49.68-.24.11-.7.12-.85-.03-.42-.42-.8-.92-1.05-1.45-.79-1.7-1.47-3.45-2.31-5.12-.23-.46-.87-.7-1.93-1.51Zm-50.44,8.61c.32-5.44-2.57-9.03-5.68-12.51-.64-.71-1.33-1.62-2.77-1.26,1.5,5.15,5.89,8.57,6.64,13.75.58,0,1.02,0,1.81.02Zm23.09-12.33c-1.06-1.71-1.13-3-2.58-3.38-.04-.01-.2.19-.21.3-.09,1.46.98,1.98,2.78,3.09Z"/>
      <g>
        <path class="cls-2" d="m96.89,561.62c-.82-2.13-1.84-3.58-3.59-4.49-1.59-.83-3.22-1.09-5-.7-1.04.23-2.14.27-3.21.31-.19,0-.49-.38-.56-.63-.07-.25-.02-.68.15-.83.45-.41.96-.85,1.52-1.03,1.18-.38,2.42-.59,3.61-.87.56-1.52-.58-2.22-1.49-2.47-1.94-.52-3.98-.73-5.99-.97-.92-.11-1.88.1-2.8-.01-.32-.04-.77-.62-.8-.98-.04-.37.26-.97.59-1.15.52-.28,1.19-.36,1.8-.39,1.06-.04,2.12.02,3.07.04.59-1.5-.37-2.16-1.11-2.44-1.58-.6-3.26-1-4.94-1.24-1.2-.17-2.45.04-3.67.08-1.09-2.58,1.41-2.39,2.4-3.53-5.63-4.93-12.34-6.43-19.55-6.44-1.4,0-2.79.1-4.18.02-.3-.02-.77-.63-.77-.98,0-.36.42-.98.73-1.03,1.85-.31,3.72-.71,5.57-.66,6.18.16,12.02,1.39,17.32,4.99,3.91,2.65,7.63,5.43,10.89,8.86,1.6,1.68,3.39,3.18,5.32,4.97,1.66-1.44,1.99-3.36,2.89-4.9,1.02-1.75,1.99-3.53,3.11-5.21.23-.34,1.06-.27,1.61-.39.12.57.51,1.26.32,1.69-1.25,2.69-2.66,5.31-3.94,7.99-.61,1.26-1.05,2.6-1.66,4.14,1.81,2.33,3.56,4.72,5.45,6.98,1.89,2.25,3.27,5.03,6.38,6.36,1.12-1.39,2.23-2.86,3.44-4.26,2.14-2.46,4.78-4.03,8.13-4.06.34,0,.9.41.97.71.07.33-.22.91-.53,1.11-.51.33-1.16.42-1.74.65-4.2,1.67-6.68,4.93-8.63,9.23.98.28,1.68.49,2.76.8,1-1.29,1.95-2.72,3.12-3.96,1.06-1.13,2.31-2.16,4.02-2.15.28,0,.72.18.8.38.15.4.29,1.03.08,1.29-.47.6-1.14,1.05-1.75,1.53-2.28,1.81-3.84,4.09-4.51,7.01,1.38,1.59,2.76,3.18,4.21,4.85,1.62-1.38,1.81-3.39,2.81-4.94.66-1.03,1.38-2.05,2.19-2.97.21-.24,1.07-.27,1.26-.06.37.4.75,1.11.64,1.57-.18.72-.84,1.31-1.15,2.02-.69,1.57-1.3,3.17-1.94,4.76-.73,1.82-.33,3.5,1.06,4.72,3.53,3.09,7.16,6.08,10.83,9,.38.31,1.37-.14,2.34-.28-.52-1.52-1.07-2.75-1.34-4.03-.28-1.36-.4-2.79-.37-4.18.01-.62.58-1.22.93-1.91,2.49,1.68,1.47,4.26,2.34,6.19,1.05.21,1.37-.6,1.59-1.29.76-2.38,1.42-4.8,2.13-7.19.22-.74.42-1.51.82-2.15.17-.28.81-.35,1.24-.35.21,0,.59.4.59.61,0,1.23.14,2.52-.16,3.68-1.28,4.88-2.9,9.61-7,13.3.74.74,1.28,1.54,2.02,1.98,2.29,1.36,4.61,2.67,7,3.82,1.7.82,2.12.48,3.3-2.1-1.24-1.83-3.28-2.78-5.01-4.08-.62-.46-1.32-.85-1.85-1.4-.25-.27-.38-1.02-.19-1.26.33-.43,1-.95,1.43-.88.71.12,1.37.64,2.01,1.06,1.54,1.02,3.05,2.08,4.79,3.28,1.61-2.41,1.68-4.59.85-6.9-.29-.82-.2-1.56.77-1.86.86-.26,1.55.12,2.01.81.84,1.24.98,2.69.65,4.07-.62,2.58-1.4,5.12-2.19,7.65-.37,1.17-.92,2.28-1.49,3.64,1.63,1.03,3.25,1.18,5.25,1.18-.54-4.08.56-7.84,1.05-11.67.27-2.1,1.22-3.89,2.66-5.38.71-.73,1.64-.92,2.63.36-.48,1.09-1.12,2.3-1.55,3.58-.44,1.33-.72,2.72-.99,4.1-.27,1.38-.41,2.79-.68,4.17-.28,1.45-.14,2.79.91,4.32,1.03-.05,2.23-.14,3.44-.17.61-.02,1.31-.11,1.82.14.48.24,1.03.87,1.05,1.35.02.48-.48,1.14-.94,1.43-.49.31-1.19.29-1.8.37-.78.1-1.66-.05-2.32.28-2.89,1.45-5.65,1.02-8.59.06-2.72-.89-2.86-.64-5.33,2.36,2.13,4.35,2.13,4.74-.22,6.39-.73-1.11-1.45-2.21-2.32-3.53-1.3,1.05-2.39,1.92-3.46,2.79-1.12.91-1.97,1.89-2.01,3.51-.03,1.04-.52,2.12-1.04,3.05-.24.43-1.07.79-1.57.73-.44-.06-.9-.7-1.17-1.18-.28-.49-.34-1.11-.54-1.83-1.25.37-2.27.75-3.33.97-.79.16-1.71.02-1.89-.9-.09-.44.36-1.15.77-1.49.56-.48,1.32-.73,2.02-1.09-.4-.85-.72-1.52-1.03-2.15.57-1.42,1.8-1.79,3.03-2.01,1.54-.28,3.12-.29,4.65-.59.67-.13,1.26-.69,1.94-1.09-1.26-1.46-2.44-.79-3.58-.37-.9.33-1.81.69-2.52-.28-.52-.71.16-2.01,1.48-2.48,1.15-.41,2.4-.65,3.62-.77,1.24-.12,2.5.07,3.75-.02,1.06-.07,1.65-.76,1.75-2.14-2.64-2.21-5.76-3.86-9.35-5.33-.3.96-.65,1.77-.81,2.62-.31,1.69-.45,3.41-.77,5.1-.2,1.02-.87,1.12-2.66.52.09-1.77.17-3.59.27-5.58-1.74.53-2.42,1.51-2.19,2.88.54,3.22-1.33,5.67-2.56,8.31-.17.36-1.14.68-1.55.52-.39-.15-.81-.98-.75-1.45.19-1.35.62-2.68.93-3.89-1.2-1.08-1.96-.19-2.66.25-3.7,2.34-7.36,4.74-11.02,7.14-1.19.78-2.35,1.62-3.84,1.53-.41-.02-1.1-.32-1.14-.57-.09-.54-.01-1.31.33-1.67.51-.53,1.34-.74,1.98-1.17,1.24-.84,2.75-1.38,3.55-2.83-1.48-1.26-3.14-.68-4.57-1.11-.33-.1-.69-.7-.7-1.08,0-.37.38-1.06.65-1.08,1.7-.18,3.43-.35,5.13-.25,1.39.09,2.75.56,4.34.91,1.35-.36,2.55-1.18,3.39-2.99-2.59-.83-4.9-1.46-7.38-.38-.69.3-1.48.41-2.24.5-.21.03-.57-.27-.68-.51-.12-.24-.14-.67,0-.87.35-.49.75-1.05,1.26-1.31,2.95-1.49,6.02-1.53,9.12-.55.89.28,1.69.89,2.58,1.09.48.11,1.22-.18,1.59-.54.47-.47-.11-1.44-1.01-1.72-1.04-.33-2.15-.48-3.16-.88-1.84-.74-4.04-.58-5.55-1.99.03-1.22.77-1.54,1.58-1.38,2.9.57,5.79,1.24,8.67,1.91.74.17,1.44.46,2.08.67.92-.96.48-1.55-.22-2.03-1.91-1.3-4.05-1.48-6.29-1.37-.43.02-1.04-.59-1.3-1.06-.31-.56.5-1.67,1.23-1.65,1.54.06,3.11.13,4.6.49,1.47.35,2.85,1.06,4.62,1.76-.14-1.63-1.22-2.07-1.92-2.75-.68-.65-1.43-1.22-2.16-1.81-.85-.69-1.73-1.35-2.56-2.07-.71-.61-1.35-1.31-2.06-1.92-.82-.7-1.68-1.34-2.52-2-2.58,1.79-4.93,3.57-7.43,5.11-4.18,2.58-8.94,3.72-13.62,4.98-.41.11-1.25-.38-1.44-.8-.16-.35.2-1.28.58-1.46,1.26-.61,2.63-.99,3.95-1.49,2.64-.99,5.31-1.89,7.89-3.02,2.74-1.2,5.18-2.88,7.01-5.27-.88-2.53-.9-2.52-3.05-4.03-2.24,1.81-4.55,3.64-6.8,5.53-3.2,2.68-7.16,3.8-10.91,5.34-.39.16-.94.05-1.38-.05-.26-.06-.63-.34-.66-.55-.05-.41-.03-1.1.21-1.23,1.64-.88,3.31-1.74,5.04-2.44,4.74-1.93,8.7-4.86,12.28-8.92-.84-1.16-1.62-2.24-2.31-3.21-2.22.25-3.25,1.77-4.56,2.82-2.46,1.97-5.01,3.76-8.04,4.74-.89.29-1.8.55-2.71.75-.85.19-1.64-.05-1.82-.97-.17-.89.45-1.43,1.24-1.73.29-.11.59-.2.9-.28,4.35-1.23,7.79-3.86,10.89-6.96-.04-1.46.43-2.92-1.18-4.2-.98.51-2.02,1.13-3.12,1.6-2.44,1.04-4.89,2.03-7.37,2.96-.55.2-1.24.11-1.84.04-.23-.03-.58-.41-.58-.62,0-.41.1-1.06.36-1.2.82-.43,1.73-.69,2.61-.97,2.86-.92,5.33-2.48,7.71-4.33-1.6-1.38-3.41-2.21-5.39-2.21-2.97,0-5.98-.16-8.69,1.47-.38.23-.89.41-1.3.35-.39-.05-.91-.37-1.06-.71-.14-.32-.01-.96.24-1.2.43-.42,1.01-.78,1.59-.92,2.58-.59,5.18-1.12,7.78-1.61.88-.17,1.79-.16,3.03-.25Z"/>
        <path class="cls-2" d="m116.8,620.72c-.38-.44-.88-.82-1.08-1.31-.14-.36,0-.94.21-1.3.71-1.18,1.45-2.36,2.3-3.45.71-.92,1.99-1.09,2.38-.46.5.79.07,1.44-.33,2.1-.72,1.18-1.38,2.4-2.16,3.55-.23.34-.74.5-1.33.88Z"/>
      </g>
      <path class="cls-2" d="m294.36,701.01c3.32,2.97,6.41,5.73,10.56,6.73,2.9-2.91,4.27-6.07,3.5-10.14-.33-1.76-.04-3.72.33-5.51.19-.91,1.18-1.66,2.5-3.38.44,3.2.74,5.3,1.15,8.23,1.64-1.37,2.65-2.2,3.64-3.04,3.43-2.88,7.26-5.09,11.66-5.93,1.95-.38,4.11-.15,6.09.23,1.3.25,1.52,1.56.91,2.75-3.58.89-7.14,1.73-10.67,2.69-1.1.3-2.32.7-3.15,1.43-4.5,3.96-8.69,8.19-11.2,13.76,4.2,2.74,4.65,2.89,12.09,3.9,1.19-1.1,2.45-2.45,3.9-3.55,1.65-1.26,3.34-2.6,5.24-3.32,1.38-.52,3.15-.3,4.67,0,.59.12,1.14,1.31,1.34,2.1.08.32-.77,1.05-1.33,1.3-.6.27-1.38.13-2.05.27q-3.34.7-7.03,4.45c2.29,2.82,5.73,3.44,9.09,5.13,1.94-3.26,4.86-5.05,8.03-6.49,1.73-.79,3.52-1.13,5.38-.37,1.2.49,2.05,1.4,1.71,2.63-.18.65-1.31,1.5-1.97,1.47-3.41-.18-6.34.56-8.49,3.08-.09,1.79,1.1,2.15,2.05,2.79,3.08,2.07,6.22,4.05,9.14,6.32,3.56,2.77,5.95,6.46,7.36,10.75.82,2.5.99,5-.39,7.38-.18.31-.75.56-1.13.54-.38-.02-.96-.35-1.05-.66-.27-.87-.36-1.8-.46-2.71-.55-5.17-3.23-9.05-7.2-12.21-3.28-2.61-6.69-4.95-10.63-6.52-3.43-1.36-6.74-3.04-9.95-4.5-1.6.98-1.05,2.06-.77,3.17,1.5,6.06,3,12.12,4.41,18.21.44,1.91.12,3.66-2.55,4.56-.38-1.37-1-2.61-1.04-3.87-.16-5.64-1.73-10.98-3.18-16.35-.3-1.11-.79-2.18-1.21-3.26-1.35-3.45-3.59-5.9-7.37-6.69-1.55-.33-3.06-.82-4.89-1.32-2.09,4.82-2.45,8.99,1.34,12.97,1.42,1.48,2.41,3.4,3.46,5.2,1.55,2.65,2.41,5.55,2.24,8.64-.04.8-.68,1.64-1.2,2.34-.48.64-2.2.35-2.36-.36-.25-1.11-.43-2.25-.54-3.39-.33-3.24-1.17-6.25-3.78-9.37-.52,1.33-.99,2.08-1.09,2.87-.67,5.62.33,11.08,1.67,16.51.5,2.02,1.18,4.02,1.46,6.08.16,1.15-.55,2.29-1.9,2.5-1.3.21-2.38-.41-2.66-1.67-1.56-7.02-2.74-14.1-2.81-21.31-.06-5.79-.09-11.59,1.27-17.3.36-1.52.18-3.16.25-4.88-2.67-1.75-5.34-2.89-8.68-3.48-4.12,12.48-2.08,24.34,2.35,35.7-1.56,1.7-3.03,1.8-3.66.16-4.16-10.79-5.99-21.88-3.83-33.41.3-1.59.6-3.2.62-4.8,0-.67-.75-1.34-1.2-2.09-.69.62-1.24.86-1.31,1.2-.76,3.62-1.64,7.24-2.09,10.9-.45,3.67-.49,7.4-.66,11.11-.23,5.14-1.03,10.11-3.53,14.74-1.32,2.44-2.2,5.11-3.39,7.62-.55,1.15-1.54,1.67-3.05.93-.88-3.17,1.16-5.71,2.44-8.26,1.81-3.6,2.89-7.33,3.37-11.26.31-2.53.37-5.08.58-7.62.7-8.29,1.43-16.58,2.17-25.25-1.41-1.26-2.88-2.58-4.93-4.41-.85,2.85-1.46,5.01-2.14,7.14-1.25,3.97-2.53,7.92-3.82,11.88-.21.66-.76,1.29-.74,1.92.18,9.46-4.53,18.47-1.99,27.93-3.03.85-3.93.57-4.05-1.16-.17-2.54-.2-5.09-.16-7.64.05-3,.23-6,.34-8.87-1.9-1-3.03.08-3.82,1.12-2.57,3.39-5.87,5.77-9.49,7.89-2.43,1.42-4.32,3.48-4.9,6.46-.16.84-.7,1.61-.98,2.24-2.19.5-3.03-.51-2.97-2.13.12-2.88,1.41-5.36,3.32-7.48.77-.85,1.62-1.74,2.62-2.27,5.44-2.86,9.05-7.87,13.71-11.64.89-.72,1.84-1.5,2.4-2.47,4.88-8.31,8.42-17.01,7.75-26.96-.11-1.59-.88-2.54-1.81-3.55-1-1.08-1.65-2.29-.76-3.71.63-1.01,2.3-.47,4.05,1.26.66.65,1.32,1.3,1.94,1.99,1.09,1.21,2.01,2.6,3.24,3.63,2.1,1.74,3.6,4.27,6.63,5.23.59-1.09,1.14-2.08,1.67-3.08.65-1.23,1.05-2.69,1.97-3.66,6.85-7.25,13.75-14.49,23.67-17.63.63-.2,1.37-.19,2.02-.09.39.06.94.44,1.02.78.14.6.22,1.47-.11,1.87-.55.67-1.37,1.23-2.19,1.56-6.12,2.45-11.25,6.31-16.16,10.65-4.19,3.7-6.86,8.05-7.84,14.14Z"/>
      <g>
        <path class="cls-2" d="m305.61,642.48c2.93,2.49,5.19,4.58,7.64,6.44,3.09,2.34,5.56,5.01,7.21,8.63.93,2.04,3.01,3.54,4.41,5.4.28.36-.04,1.32-.31,1.89-.14.3-.83.58-1.19.5-.91-.19-1.94-.39-2.62-.95-1.26-1.06-2.59-2.21-3.38-3.62-5.55-9.76-14.45-14.7-24.82-17.62-.45-.13-.92-.23-1.2-.3-5.86,2.87-11.56,5.76-17.35,8.46-2.71,1.26-4.69.85-4.88-.64-.29-2.35,1.72-2.52,3.17-3.16,2.17-.97,4.36-1.91,6.58-2.78,6.45-2.53,11.47-6.89,14.89-12.77,3.45-5.93,6.28-12.23,9.34-18.31-1.96-2.58-3.57-4.9-5.38-7.05-4.2-5.01-5.18-11.12-5.98-17.28-.14-1.08.32-2.33.79-3.37.22-.5,1.14-.99,1.7-.95.56.04,1.37.65,1.53,1.18.35,1.1.41,2.31.48,3.48.34,5.34,2.17,10.21,4.71,14.84.91,1.65,1.93,3.32,4.39,3.43,2.42-2.63,3.22-6.19,4.56-9.41.46-1.1.04-2.82-.5-4.02-.56-1.25-1.91-2.14-2.61-3.35-1.29-2.24-2.49-4.56-3.47-6.96-.47-1.14.02-2.5,1.29-2.96,1.31-.47,2.43.26,2.62,1.61.47,3.49,2.61,5.94,5.34,9.5-.04-4.17-1.15-6.96-1.77-9.8-.64-2.93-.43-5.7,1.06-8.28.76-1.3,1.92-2.13,3.99-.99-.54,3.97-2.78,8.32.35,12.95,1.65-1.95,3.08-3.43,4.27-5.07,3.96-5.46,8.83-9.95,14.38-13.73,1.16-.79,2.5-1.38,3.83-1.81.46-.15,1.45.35,1.68.81.24.47,0,1.37-.32,1.88-.36.56-1.07.91-1.63,1.34-1.9,1.43-3.79,2.87-5.71,4.29-5.26,3.88-9.01,8.95-12.25,15.3,1.28.07,2.16.33,2.93.13,4.15-1.06,8.26-2.27,12.4-3.35,4.33-1.12,7.95.46,11.11,3.29.4.36.62,1.63.35,1.89-.56.54-1.87,1.19-2.23.93-4.89-3.64-10-2.25-15.02-.69-3.62,1.13-7.2,2.49-10.59,4.18-2.96,1.48-5.54,3.63-6.24,7.09,1.15,1.99,2.94,1.8,4.53,1.82,6.91.09,13.82.05,20.42-2.48.44-.17.98-.51,1.34-.38.8.29,1.95.69,2.13,1.3.18.57-.55,1.97-1.13,2.14-5.7,1.65-11.34,3.63-17.44,3.3-3.08-.17-6.19-.06-9.28.01-.92.02-1.86.27-2.72.59-.34.13-.67.71-.71,1.12-.04.41.16,1.11.45,1.24,1.28.56,2.63,1.38,3.94,1.35,4.5-.11,9.01-.37,13.48-.92,3.53-.43,6.99-1.44,10.51-2.03,1.04-.17,2.17.22,3.59.4-.53,1.04-.73,2.08-1.15,2.18-9.44,2.25-18.74,5.6-28.72,3.98-1.62-.26-3.26-.4-4.65-.57-2.14,1.84-3.98,3.83-2.92,6.28,1.21,2.8,4.05,1.38,6.33,1.45,7.1.22,14.09-1.43,21.31-.19,7.14,1.23,13.83,3.03,19.72,7.23.43,1.94-.48,3.05-2.21,2.61-2.04-.52-3.99-1.53-5.87-2.54-6.98-3.73-14.46-4.41-22.17-3.86-6.85.49-13.7.91-21.03,1.39-.22.87-.54,2.16-.93,3.66,3.86,1.96,7.74,1.78,11.43,1.6,7.26-.36,14.21,1.15,21.13,2.85,2.26.55,4.41,1.7,6.46,2.84.47.26.56,1.64.41,2.42-.07.37-1.15.8-1.73.75-.91-.09-1.81-.52-2.67-.9-5.77-2.5-11.93-3.14-18.08-3.8-.61-.06-1.27.39-2.45.78,3.54,4.22,7.49,7.48,11.38,10.81,1.8,1.55,3.63,3.09,5.22,4.84.73.81.99,2.11,1.3,3.23.08.3-.37.87-.72,1.12-.34.24-.97.41-1.28.25-.81-.42-1.57-.99-2.27-1.59-4.7-4.03-9.36-8.09-14.06-12.11-2.18-1.86-4.52-3.35-8.43-2.43Z"/>
        <path class="cls-2" d="m299.76,618.91c-1.61-.33-2.54-.23-2.89-.64-4.35-4.98-8.7-9.99-11.36-16.16-.35-.81-.46-1.91-.2-2.73.21-.65,1.16-1.07,2.3-2.04,2.28,8.14,9.26,12.91,12.15,21.55Z"/>
      </g>
    </g>
  </g>
</svg>