<svg xmlns="http://www.w3.org/2000/svg" xmlns:xlink="http://www.w3.org/1999/xlink" width="483.51" height="119.65" viewBox="0 0 483.51 119.65"><defs><clipPath id="a"><rect width="483.51" height="119.65" transform="translate(0 287.87)" fill="none"/></clipPath></defs><g transform="translate(0 -287.87)" opacity="0.997"><g clip-path="url(#a)"><path d="M277.55,249.29l-.98-.8v-82.3H187.29l-.36-.41V83.09H97.29v1.02q-1.17-.5-2.37-1.02h2.37V0H2.78L0,337.27H366.21V249.28H277.55Z" fill="#60aaa9"/><path d="M415.13,327.32c-1.08-.36-2.16-.72-3.32-1.11-.89.58-1.76,1.58-2.73,1.69-1.26.13-1.61,1.21-2.52,1.6-.21.09-.43.26-.63.24a2.652,2.652,0,0,1-1.23-.33,1.013,1.013,0,0,1-.29-.91,6.1,6.1,0,0,1,.66-1.56c.53-.89,1.08-1.76,1.69-2.59,1.24-1.69,1.82-3.44.61-5.22.42-.98,1.53-1.5.84-2.69-.92.05-1.87.09-2.86.14-1.61,1.37-2.19,3.37-3.09,5.48.98.49,1.91.96,2.85,1.44-2.29,3.97-6.57,4.91-9.69,7.34-.88-.29-1.22-.77-.8-1.57a33.483,33.483,0,0,1,1.68-2.98,5.1,5.1,0,0,0,1.06-2.95c-1.33-.76-2.69-1.54-4.18-2.4.17-.87.31-1.64.48-2.39.32-1.41.97-2.4,2.53-1.8a5.494,5.494,0,0,0,1.22-4.36c-.32-1.59.68-2.91,1.54-4.05a8.488,8.488,0,0,0,1.48-2.62c.17-.54.95-.9,1.55-1.42-.27-.55-.56-1.13-.93-1.88a6.6,6.6,0,0,0,2.71-4.49,13.115,13.115,0,0,1,1.46-3.31c.66-.13,1.43-.24,2.18-.44,1.46-.38,2.53-1.09,2.22-2.88-.04-.26.25-.57.51-1.09.96.52,1.84,1,2.72,1.47.35.13.7.26,1.05.4.02-.12.04-.23.07-.35h-1.18a8.737,8.737,0,0,1,1.03-1.35,1.543,1.543,0,0,1,1.9-.27,1.571,1.571,0,0,1,.83,1.74c-.12.67-.35,1.32-.58,2.15,1.29.55,2.14,1.95,3.95,1.95.03-1.28-1.25-1.38-1.54-2.17-.09-1.01-.21-2.03-.26-3.04-.02-.32.04-.81.24-.94,2.01-1.31.68-2.48-.11-3.68-.04-.06.05-.21.06-.26,1.7-.64,3.37-1.27,5.23-1.98.54.92,1.07,1.84,1.92,3.28-1.48-.43-2.39-.7-3.54-1.04-.25,1.55-1.34,2.74-.58,4.29-.6.49-1.21.99-1.85,1.52.15.4.18.8.39.98.95.81,1.96,1.55,2.94,2.31.42,1.23-1.17.84-1.33,1.66a22.193,22.193,0,0,1-.74,2.36c.23.52.84.29,1.38.22a1.368,1.368,0,0,1,1.66.86c.26.67.81.66,1.42.67.39,0,1.1.23,1.13.43.28,1.98,1.92,1.99,3.47,2.27-.21,1.59-1.48,2.07-2.21,2.93-1.13-.1-2.13-.18-3.02-.26-1.08,1.02.38,1.49.12,2.69a5.6,5.6,0,0,1-4.2,2.86c-.49,1.7.4,2.63,1.32,3.47a12.89,12.89,0,0,0,1.79,1,1.807,1.807,0,0,1,.73,2.42c-1.25.42-2.53.85-3.92,1.33-1.72-.52-2.23-2.4-3.54-3.53-.92.7-1.77,1.4-2.66,2.03-1.25.89-1.75,2.3-.68,3.11,2.1,1.59,1.5,3.65,1.52,5.65l.07-.07Zm-6.98-25.37c-.35.23-.7.46-1.06.7a9.747,9.747,0,0,1,2.26,4.97c.53.34,1.12.69,1.68,1.07.54.36,1.07.75,1.72,1.21.09-.82.16-1.39.27-2.39.91.98,1.49,1.6,2.23,2.41.51-1.01.9-1.79,1.27-2.52-.64-.99-1.35-1.64-1.27-2.86.09-1.44-.78-2.07-2.16-1.89-.66.09-1.28.55-1.93.6-1.21.08-2.6.35-3.06-1.35,1.53.06,1.93-1.33,2.54-2.18,1.2.09,1.62,2.26,2.99.73a6.684,6.684,0,0,1-.58-5.25c-.21-.03-.48-.15-.61-.06a5.222,5.222,0,0,0-1.29,1.08,14.943,14.943,0,0,0-2.99,5.75Zm9.86,4.35c.6.23.99.53,1.17.43a4.356,4.356,0,0,0,2.31-3.2,1.911,1.911,0,0,0-1.69-2.17,6.388,6.388,0,0,0-1.69.11c-.19.03-.34.27-.56.46a5.551,5.551,0,0,0-.15.95,12.593,12.593,0,0,0,.18,1.45c1.02-.37,1.82-.66,2.72-.99.27,1.81-1.29,2.08-2.3,2.95Zm-7.15,5.76c-.52-.43-.84-.84-.96-.78a3.264,3.264,0,0,0-1.03.79c-.06.06.18.54.22.53.5-.12.99-.29,1.78-.54Zm6.39,1.74h.39a9.847,9.847,0,0,0,.09-1.21c0-.16-.19-.31-.29-.47a1.8,1.8,0,0,0-.25.55,10.5,10.5,0,0,0,.05,1.12Zm-10.86-8.44.14-.19-.21-.04.07.23Z" fill="#3e3f44"/><path d="M318.4,328.17a4.04,4.04,0,0,0-1.46-2.36,8.153,8.153,0,0,1-4.26,1.69c-.55.02-1.08.65-1.58.97-.45-1.76-.87-3.39-1.31-5.1a19.6,19.6,0,0,0,1.54-2.33,1.557,1.557,0,0,1,1.55-1.07c.84.02,1.63.14,1.98,1.04.32.83.38,2.04,1.71,1.56,1-.36.51-1.36.54-2.12a1.5,1.5,0,0,1,.13-.37h1.37c.52-.83,1.06-1.68,1.66-2.62,1.3.18,2.54.36,3.78.51a1.259,1.259,0,0,0,1.39-1.72,3.147,3.147,0,0,0-2.84-2.24c.92-2.04,2.67-2.61,4.78-2.95.38.24.85.54,1.32.84,2.19,1.41,4.25,3.01,7.08,3.09,1.05.03,2.08.82,3.02,1.22,2.32-.8,2.93-2.48,2.77-4.72a2.393,2.393,0,0,0-.87-.09c-.64.2-1.38.72-1.64-.31-.18-.7.55-.88,1.1-1.04a3.734,3.734,0,0,0,2.65-1.98c.51-1.18,1.58-1.1,2.71-1.29.34.84.6,1.58.93,2.29a2.166,2.166,0,0,1-.77,2.99c-.14.1-.14.41-.26.82.34.31.78.64,1.15,1.04.99,1.08,1.01,2.02.05,2.99a11.221,11.221,0,0,1-1.08.85c-.27.21-.52.44-.64.53a2.172,2.172,0,0,0,.59,2.38c.52.61,1.08,1.18,1.62,1.78,1.17,1.28,1.19,2.32-.03,3.54-1.62,1.62-3.49,2.59-5.89,1.89a12.258,12.258,0,0,0-1.29-.21c.4.76.67,1.28.95,1.81-.36.7-.89.57-1.42.26-.85-.5-1.22-1.64-2.52-1.6-1.01.03-1.54.11-1.93.96-.05.1-.07.22-.12.32-1.16,2.88-1.65,3.09-4.52,2.72a29.7,29.7,0,0,0-5.08-.08,2.286,2.286,0,0,0-1.44.82,3.2,3.2,0,0,1-2.9,1.28,6.186,6.186,0,0,0-1.95.62c-.33-.5-.72-.85-.78-1.25a2.288,2.288,0,0,0-1.89-2.14,1.265,1.265,0,0,1-.92-1.61,1.358,1.358,0,0,1,1.13-1.14c.64-.15,1.27-.34,1.89-.5Zm14.81-8.87c1.1-1.44,1.03-2.28-.19-2.56a4.431,4.431,0,0,0-3.21.19,9.112,9.112,0,0,0,3.4,2.38Zm-2.42,10.17c.23-.03.46-.05.68-.1.58-.14,1.15-.4,1.02-1.1s-.81-.75-1.37-.69a2.562,2.562,0,0,0-1.23.46,1.236,1.236,0,0,0-.24.9c0,.14.29.32.48.41a2.843,2.843,0,0,0,.67.12Zm-4.22-6.73c-.13-.18-.22-.42-.39-.53a1.353,1.353,0,0,0-1.83.04.617.617,0,0,0-.05.59,1.588,1.588,0,0,0,2.05.49c.14-.1.16-.39.23-.59Zm.63,6.51-.28-.05.1.25.17-.21Z" fill="#3e3f44"/><path d="M406.67,278.64l1.17-.14v-2.56c.37-.16.58-.34.77-.33a3.332,3.332,0,0,1,2.53.83c.49.53.73,1.5.2,1.81-1.53.9-1.18,2.28-1.34,3.78.81.1,1.44.19,2.06.27.91.78-.26,1.42-.11,2.18l1.28-.3c-.39,1.96-.47,2.04-4.14,4.32a4.308,4.308,0,0,0-3.62-2.51,4.9,4.9,0,0,0-.71,1.36c-.41,2.21-1.03,4.23-3.4,5.11a.543.543,0,0,0-.26.21q-1.335,2.55-2.65,5.12c.59,1.68-.96,2.7-1.26,4.11a24.232,24.232,0,0,1-.93,4,19.257,19.257,0,0,1-1.94,3.13,5.75,5.75,0,0,1-3.72-.18,5.141,5.141,0,0,1-1.16-3.63,5.084,5.084,0,0,0,1.64.07c.33-.09.63-.6.75-.98a.959.959,0,0,0-.41-.81.9.9,0,0,0-.86.1,14.5,14.5,0,0,0-1.05,1.69c-.96.58-1.92,1.17-2.98,1.81.09.21.14.63.36.76a2.256,2.256,0,0,1,1.08,2.92c-.38,1.37-.75,2.7-2.31,3.14a3.93,3.93,0,0,1-1.67.1c-.78-.13-1.51-.51-2.29-.62a11.613,11.613,0,0,0-2.14.1,12.378,12.378,0,0,1-.91-2.64c-.19-1.88-1.48-3.09-2.56-4.37a5.608,5.608,0,0,0-2.39-1.23,3.453,3.453,0,0,1-2.23-1.97.892.892,0,0,1,.83-1.18,4.335,4.335,0,0,1,3.75,2.24c1.41-.1,1.6-.89,1.63-1.72.08-1.77.89-2.79,2.73-2.86.23,0,.55-.02.66-.15,1.22-1.62,3.06-1.05,4.65-1.41,1.78-.41,3.39.16,5.24.39.08-.76.15-1.5.22-2.14.95-1.17,2.61.9,3.68-.92-2.06-.35-3.73-.62-5.4-.92a7.016,7.016,0,0,1-1.12-.46v-2.28c1.2-.5,2.34-.97,3.63-1.51-.24-.94-.48-1.8-.69-2.66a1.824,1.824,0,0,1,.44-1.91,1.777,1.777,0,0,1,2.23-.1c.4.21.76.5,1.19.78.77-.61,1.53-1.23,2.42-1.94-.18-1.74-.28-3.56-.57-5.36-.3-1.87.76-3.28,1.44-4.82.31-.69,1.71-.54,2.05.15.59,1.19.19,2.73,1.39,3.76.21.18-.16,1.05-.29,1.6-.14.62-.3,1.24-.54,2.22,2.59-.57,4.8-.93,5.68-3.51l-.05.05Zm-12.48,13.27c.18.62.33,1.12.57,1.95.74-.83,1.24-1.39,1.76-1.98.93.27,1.78.51,2.5.71,2.03-2.36,2.58-5.49,4.99-7.41a1.094,1.094,0,0,0,.17-1.55c-.41-.56-1.03-.41-1.56-.18a2.156,2.156,0,0,0-1.1.74c-.96,1.84-1.9,3.65-3.95,4.53C397.19,290.47,395.67,291.12,394.19,291.91Zm-9.6,13.14a6.364,6.364,0,0,0,1.14-.02c.08-.02.11-.33.13-.5,0-.02-.2-.11-.26-.08-.26.13-.51.3-1.01.61Z" fill="#3e3f44"/><path d="M401.25,332.24a9.693,9.693,0,0,0-3.8,5.53c-.2.7-.2.7.8,2.21.91-.65,1.82-1.29,2.69-1.92,1,.13.34.94.63,1.35,2.27.21,2.51.09,3.11-1.52.94-2.54,2.09-2.88,4.24-1.18,1.05.83,2.2,1.56,2.47,3.1.1.6.74,1.12,1.23,1.8a16.592,16.592,0,0,1-.88,2.14,3.361,3.361,0,0,0-.47,2.93,1.946,1.946,0,0,1-1.14,2.55,2.276,2.276,0,0,0-1.3,2.23l.07-.06c-1.18.7-2.33,1.48-3.57,2.06a10.011,10.011,0,0,1-2.63.63c-.51.08-.96-.84-.71-1.3a4.024,4.024,0,0,1,2.33-1.92c.85-.28,1.74-.42,2.74-.65-.41-1.67-.79-3.26-1.21-4.96a21.906,21.906,0,0,0-2.66,1.03,2.76,2.76,0,0,0-1.15,1.17c-.72,1.55-1.95,2.83-2.28,4.6-.08.44-.68.79-1.28,1.44-.42-.86-.72-1.41-.97-1.98-.61-1.35-1.23-1.78-2.64-1.62a10.3,10.3,0,0,1-3.52.3c-.11-.82-.22-1.57-.34-2.43a4.56,4.56,0,0,1,1.03-.22c1.64.02,1.66,0,1.42-2.1-.88,0-1.77.02-2.67,0a6.755,6.755,0,0,1-4.19-1.27,4.258,4.258,0,0,1-1.72-2.02,17.643,17.643,0,0,0-1.49-2.7,7.276,7.276,0,0,1,2.71-2.61,4.662,4.662,0,0,1,2.24-.69c.97-.02,1.16.94,1.45,1.68a1.787,1.787,0,0,0,1.45,1.08c-.14-1.21-.34-2.21-.35-3.21a8.9,8.9,0,0,1,.35-2.34,1.07,1.07,0,0,1,.77-.57,1.028,1.028,0,0,1,.84.41c.47.91.84,1.87,1.24,2.79a5.085,5.085,0,0,0,1.04.3,5.8,5.8,0,0,0,1.21-.22c-.3-.89-.57-1.7-.89-2.67.22-.39.5-.88.78-1.37.54-.94,1.24-1.74,2.41-1.63a2.721,2.721,0,0,1,2.58,1.93l.05-.07Zm-1.66,13.39a3.07,3.07,0,0,0-1.43-3.18,2.455,2.455,0,0,0-1.89-.08c-.53.18-.33,1.61.25,2.12a2.529,2.529,0,0,0,.85.53C398.01,345.24,398.67,345.38,399.59,345.63Z" fill="#3e3f44"/><path d="M369.63,354.24c.6-.02,1.26-.17,1.31-.82.09-1.16,0-2.32,1.54-2.61.16-.03.36-.32.4-.51q.45-2.13.81-4.29c.02-.13-.25-.38-.44-.46a.791.791,0,0,0-.64,0c-1.16.91-2.26,1.91-3.46,2.78a1.369,1.369,0,0,1-2.24-.61c-1.21-3.12-1.18-3.19,1.61-4.34a12.078,12.078,0,0,1,8.12-.65c.12.89.23,1.74.38,2.9a14.46,14.46,0,0,1,1.96-.88,1.048,1.048,0,0,1,.88.29c.18.21.29.78.16.9-1.43,1.29-1.43,2.98-1.48,4.69a7.651,7.651,0,0,1-.58,1.84c-.81-.44-1.45-.79-2.09-1.14a.881.881,0,0,0-.56,1.35,10.367,10.367,0,0,0,1.23,1.69,17.883,17.883,0,0,1-3.84,3.78,5.245,5.245,0,0,0,.97,3.56c1.04-.25,1.98-.48,2.86-.69,1.24,1.98,1.25,3.59-.69,4.87l.06.06a26.929,26.929,0,0,0-3.19-2.47c-1.46,1.38-2.77,2.61-4.04,3.81-1.06-.27-2.02-.51-3.14-.78.3-.75.53-1.35.78-1.99-.71-.99-1.72.47-2.61-.48a9.67,9.67,0,0,0,.06-1.75,1.025,1.025,0,0,0-.66-.67,1.2,1.2,0,0,0-.9.28,1.747,1.747,0,0,0-.53.87c-.43,1.7-1.82,2.6-3.06,3.57a2.439,2.439,0,0,1-3.6-.65,21.447,21.447,0,0,1-1.21-2.33c.5-.57,1.07-1.23,1.77-2.03a5.772,5.772,0,0,0,1.47.82,2.121,2.121,0,0,0,1.59-.11,32.28,32.28,0,0,0,3.53-3.68,9.482,9.482,0,0,0,1.75-5.11c.95-.81,1.89-1.62,2.99-2.56a6.348,6.348,0,0,1,1.53,1.18,16.344,16.344,0,0,1,1.22,2.44c-.55-.29-1.1-.58-2.01-1.05.11,1.01.17,1.6.29,2.68.78-.79,1.23-1.24,1.68-1.7Zm-1.66,3.1c-.34.41-.75.72-.69.86a2.473,2.473,0,0,0,.76.92c.04.03.64-.4.61-.52a5.893,5.893,0,0,0-.68-1.25Zm1.85,3.34c.08-.02.24-.04.24-.05,0-.2-.03-.4-.05-.61-.08.02-.24.04-.24.05,0,.2.03.4.05.6Z" fill="#3e3f44"/><path d="M330.93,367.25c.26-1.5.42-2.62.66-3.72.2-.91.54-1.96,1.49-2.14,2.11-.39,3.24-1.91,4.26-3.47,3.37,1.46,4.06,1.55,7.12.87.07.66.16,1.3.19,1.94.03.56,0,1.13,0,1.86.57.68,1.21,1.46,2,2.41-2.31,1.07-3.88,2.58-3.64,5.43a5.634,5.634,0,0,1-2.07.05c-1.17-.48-2.28-1.02-3.53-.34-1.05-1.33-1.93-2.43-2.96-3.72-1.02-.31-2.16.19-3.53.84Zm7.58.05c1.67-.93,2.94-1.63,4.2-2.36a1.107,1.107,0,0,0,.46-1.46c-.13-.39-.32-.75-.62-1.43-1.35,1.9-3.17,2.97-4.04,5.25Z" fill="#3e3f44"/><path d="M358.61,352.12a2.785,2.785,0,0,0-.39,2.28,11.541,11.541,0,0,1,.21,2.02c0,.74-.39,1.52-1.09,1.55-2.24.11-3.58,1.81-5.52,2.93a6.826,6.826,0,0,1-1.05-1.59c-.47-1.5-.81-3.04-1.25-4.77a4.864,4.864,0,0,0-.61-4.49c.44-.52.93-1.1,1.42-1.69.44-.52.87-1.04,1.28-1.54,1.28-.31,2.14,1.57,3.49.58l-.05.05c.44.07.89.13,1.33.2a3.239,3.239,0,0,0,3.32-1.12,4.939,4.939,0,0,1,1.97-1.2,1.418,1.418,0,0,1,1.22.18,1.511,1.511,0,0,1,.33,1.19,5.269,5.269,0,0,1-2.55,3.41,5.181,5.181,0,0,0-2.12,2.08l.06-.06Zm-6.23,3.42a18.248,18.248,0,0,0,1.87-1.86c.16-.2-.02-.91-.27-1.13a.987.987,0,0,0-1.47.17,1.47,1.47,0,0,0-.35.9,16.875,16.875,0,0,0,.29,1.98,3.6,3.6,0,0,0-.58.2c-.07.03-.08.17-.12.27.16.02.42.11.46.05a1.79,1.79,0,0,0,.18-.58Z" fill="#3e3f44"/><path d="M397.51,354.55c.25.54.43.94.67,1.45,1.17.1,2.4.18,3.62.32,1.44.16,1.7,1.76,3.08,2.36-.77.86-1.43,1.58-2.15,2.39-1.63-.35-3.15-1.46-4.87-.64a20.636,20.636,0,0,0,.84,3.55c.8,1.88.18,3.58-.29,5.33a3.014,3.014,0,0,1-2.67,2.3,1.406,1.406,0,0,1-1.85-1.42c-.08-1.24-.1-2.49-.14-3.73a5.86,5.86,0,0,0-1.19-3.75c-1.28-1.63-.35-3.52.39-5.16.8-1.78,2.35-2.68,4.58-2.99Z" fill="#3e3f44"/><path d="M388.3,283.16c-1.24-.79-2.35-1.5-3.5-2.23a12.7,12.7,0,0,1,1.39-1.52c2.12-1.73,2.39-4,2.04-6.48-.11-.78-.18-1.56-.27-2.33,1.28-1.13,2.57-.49,3.61-.02a18.188,18.188,0,0,1,3.63,2.47,1.934,1.934,0,0,1,.31,3,14.152,14.152,0,0,1-2.02,1.84,16.937,16.937,0,0,0-4.23,4.42,4.62,4.62,0,0,1-.95.86Z" fill="#3e3f44"/><path d="M374.54,328.89c.72-.88,1.4-1.8,2.17-2.64a1.424,1.424,0,0,1,2.3.37,10.339,10.339,0,0,0,.85,1.84c2.29,2.76,1.14,5.58.25,8.4-.05.17-.35.27-.66.49-.64-.28-1.35-.59-1.99-.86-1.84.44-3.6.91-5.38,1.28-.9.19-.92.1-1.96-1.43.03-.78.85-.63,1.17-1a4.794,4.794,0,0,0,.52-1.64c.64.25,1.26.49,1.88.73,1.7.64,3.16-.11,4.51-.95.58-.36.54-1.21-.07-1.84-1.04.09-1.53,1.91-3.12.83.15-.64.36-1.37.48-2.11a1.273,1.273,0,0,0-1-1.55l.04.06Z" fill="#3e3f44"/><path d="M376.57,281.17c1.01-.51,2.02-1,3.02-1.52a1.782,1.782,0,0,1,2.55.42c-1.13,3.05-3.58,4.68-6.55,5.84a3.889,3.889,0,0,0-.03.96c.32,1.26.54,2.63-.53,3.51a5.259,5.259,0,0,1-4.4,1.41c-1.29-.25-2.6-.39-4-.59.07-.33.04-.75.23-.91a4.055,4.055,0,0,1,1.45-.83,7.879,7.879,0,0,0,3.24-2.19,11.668,11.668,0,0,0,2.56-2.64,23.074,23.074,0,0,1,1.52-1.78,17.7,17.7,0,0,0,1.01-1.75l-.06.07Z" fill="#3e3f44"/><path d="M416.43,330.06c-1.04.88-2.21,1.65-1.68,3.39.12.38-.32,1.08-.69,1.44a6.781,6.781,0,0,1-1.74,1.05c-1.44.73-2.21.79-2.42.2-.36-.98.39-1.44.99-1.96.85-.73.35-1.41-.04-2.06q2.145-2.415,4.28-4.8s-.08.07-.07.07c1.32-.41,1.89-1.19,1.38-2.6a6.708,6.708,0,0,1-.23-1.21.768.768,0,0,1,1.29-.05,5.82,5.82,0,0,0,3.82,2.04,6.038,6.038,0,0,1,1.62.75c-.34,1.68.15,3.57-2.08,4.25-.7-.99-1.34-1.88-2-2.81a3.725,3.725,0,0,0-2.5,2.36l.06-.06Z" fill="#3e3f44"/><path d="M381.49,265.22c-.39.58-.64.93-.99,1.45a3.123,3.123,0,0,1,.84,3.76c-.48.12-1,.24-1.76.43.31.45.48.88.79,1.08a14.965,14.965,0,0,0,1.94.88c-.36.84-.67,1.55-1.05,2.44l1.64,1.29c-.24.28-.35.55-.52.59-4.63,1.18-5.73-1.93-5.51-5a21.146,21.146,0,0,0-.12-5.09c-.22-1.29.34-1.87,1.67-2.03.68-.08,1.36-.12,2.04-.14a5,5,0,0,1,1.03.34Z" fill="#3e3f44"/><path d="M369.1,300.81a14.277,14.277,0,0,0,.3-3.42,5.448,5.448,0,0,1,.26-3.51c1.48.17,2.77,1.37,4.41,1.06,1.45-.27,2.93-.36,4.57-.56a27.559,27.559,0,0,1,2.32,1.64c.28.24.53.91.39,1.16a1.906,1.906,0,0,1-1.23.93,6.777,6.777,0,0,1-1.94-.53,18.861,18.861,0,0,0-2.63-.69,1.277,1.277,0,0,0-1.54,1.05c-.2,2.24-1.72,2.71-3.54,2.86-.44.04-.88,0-1.36,0Z" fill="#3e3f44"/><path d="M431.21,275.36a7.169,7.169,0,0,1,3.85,2.29,1.164,1.164,0,0,1-.48,1.93,1.313,1.313,0,0,1-.32.1c-2.92.45-5.82.95-8.75,1.32-1.61.2-2.44-.84-2.27-2.58a1.3,1.3,0,0,1,.99-1.23,2.716,2.716,0,0,1,1.01-.14,8.131,8.131,0,0,0,5.98-1.7Z" fill="#3e3f44"/><path d="M357.21,328.57c.06-.79.11-1.42.15-2.07q2.57.95,2.23,3.33c-.06.45-.14.91-.16,1.36a23.941,23.941,0,0,1-.13,3.06,22,22,0,0,1-1.01,3.08c-.67.14-1.41.3-2.35.49-.2-1.03-.38-1.89-.58-2.9.56-1.01,1.16-2.1,1.76-3.18-1.27-.78-1.8.35-2.52.97-1.61-1.67-1.52-2.75.34-3.54a17.848,17.848,0,0,1,2.26-.62Z" fill="#3e3f44"/><path d="M387.88,351.03c-.47,2.31-3.13,3.21-2.92,5.66.49.5.9.18,1.18-.15a11.519,11.519,0,0,0,.9-1.43,1.078,1.078,0,0,1,1.43-.54,1.332,1.332,0,0,1,.56,1.76,27.263,27.263,0,0,1-1.65,2.25c-1.85-.32-3.7-.43-4.5-2.79.97-1.6,2.1-3.34,1.64-5.6.72-.47,1.39-.86,2-1.32.51-.38.95-.86,1.58-1.44a27.929,27.929,0,0,1,1.74,2.68,3.108,3.108,0,0,1,.17,1.64,1.025,1.025,0,0,1-.65.68,1.148,1.148,0,0,1-.83-.36,5.023,5.023,0,0,1-.65-1.05Z" fill="#3e3f44"/><path d="M376.63,281.1c-1.25.68-2.63.31-3.94.44a2.413,2.413,0,0,0-1.87,1.24l.06-.06a10.684,10.684,0,0,1-2.13-.82,1.526,1.526,0,0,1-.04-2.54c.59-.47,1.43-.64,1.61-1.53l-.06.06c1.6-.74,3.2-1.49,4.89-2.27,2.01.97,2.18,1.24,1.51,3.06-.32.85-.79,1.64-.08,2.5l.06-.07Z" fill="#3e3f44"/><path d="M435.83,300.8a11.825,11.825,0,0,1-.36-1.38c-.28-1.79.23-2.65,2.01-2.71a3.97,3.97,0,0,0,3.82-2.25,1.058,1.058,0,0,1,1.9.04c1.13,1.95.97,3.54-.6,4.87a3.871,3.871,0,0,1-1.81.77c-1.53.27-3.09.42-4.96.66Z" fill="#3e3f44"/><path d="M404.9,260.96a6.458,6.458,0,0,0-2.27,3.65c-.53,1.54-1.18,2.9-3.07,3.29a13.99,13.99,0,0,0-3.04,1.43,3.744,3.744,0,0,1,1.4-5,36.261,36.261,0,0,1,4.38-2.59,15.255,15.255,0,0,1,2.6-.77Z" fill="#3e3f44"/><path d="M408.81,351.45a11.45,11.45,0,0,1,1.54.73c2.02,1.31,2.01,1.33,4.08,1.5-.02,1.39-.81,2.56-1.22,3.81a2.434,2.434,0,0,1-2.11,1.54c-1.53.23-2.49-.35-2.68-1.89a16.71,16.71,0,0,1,.04-3.39,19.046,19.046,0,0,1,.44-2.35l-.07.06Z" fill="#3e3f44"/><path d="M375.17,270.96c-.7,1.61-1.61,2.18-3.08,1.28a26.166,26.166,0,0,1-2.26,1.99,3.088,3.088,0,0,1-1.59.44,1.5,1.5,0,0,1-1.42-1.87c.63-1.74,2.05-2.92,3.14-4.33.4-.52,1.5-.41,2.19.11C373.13,269.32,374.07,270.09,375.17,270.96Z" fill="#3e3f44"/><path d="M411.38,262.84q2.61-.69,5.18-1.36c.4.81-.16.88-.53.98a9.368,9.368,0,0,0-5.52,4.57c.93.45,1.69.82,2.7,1.31-.37.43-.59.94-.89.99a6.376,6.376,0,0,0-3.49,1.92c-.19.19-.63.12-1.12.19-.27-1.16,1.05-1.45,1.11-2.64-.18-.28-.52-.82-.88-1.37.57-1.99,1.28-3.88,3.5-4.63l-.05.04Z" fill="#3e3f44"/><path d="M369.13,328.44c-.52,1.5-1.82,2.19-3.16,2.99-1.18-.53-1.91-2.21-3.61-1.38-.21.1-.82-.59-1.31-.97,1.28-2.2,2.65-3.94,5.15-4.15,1,1.2,1.93,2.32,2.92,3.5Z" fill="#3e3f44"/><path d="M388.15,328.03c-1.16-1.3-3.08-1.08-3.51-3.05.79-.26,1.51-.49,2.2-.72.36-1.37-1.24-.72-1.5-2.25.01-.55.91-.91,2.06-1.15.8.86,1.63,1.76,2.56,2.77.95-.24,1.9-.49,2.99-.76.06.41.24.86.12.98a31.3,31.3,0,0,1-4.92,4.18Z" fill="#3e3f44"/><path d="M433.09,302.22c1.75-.22,2.22,1.22,2.98,2.28,1.33,1.85.75,3.62-.22,5.64-.44-1.54.14-3.25-1.73-4.2a23.793,23.793,0,0,1-1.27,2.29,1.4,1.4,0,0,1-1.08.56c-.67-.11-.83-.76-.7-1.34a5.091,5.091,0,0,1,.66-1.56c1.19-1.89,1.22-1.91,1.36-3.66Z" fill="#3e3f44"/><path d="M360.54,285.82c-3.29.65-6.07-.19-8.88-.25a1.938,1.938,0,0,1-1.12-.69c-.39-.4-.77-.95-.33-1.5a1.57,1.57,0,0,1,1.11-.61,29.9,29.9,0,0,1,3.99.77c1.41.37,2.79.86,4.16,1.35.28.1.49.42,1.06.94Z" fill="#3e3f44"/><path d="M356.41,343.91c.2-.26.38-.75.72-.91,1.43-.67,2.89-1.24,4.36-1.82a1.39,1.39,0,0,1,1.63.88c.23.66-.16,1.68-.76,1.62-1.34-.13-2.05.66-2.9,1.44a2.013,2.013,0,0,1-2.73-.4,3.149,3.149,0,0,1-.32-.8Z" fill="#3e3f44"/><path d="M399.26,272.89c-.37-.95-.63-1.62-.85-2.18.28-.34.38-.59.56-.67a14.676,14.676,0,0,1,2.21-.82c1.33-.34,2.63-.66,3.3-2.12.52.42.95.6.96.81a3,3,0,0,1-.26,1.55,1.7,1.7,0,0,1-1.05.76,10.277,10.277,0,0,0-4.87,2.67Z" fill="#3e3f44"/><path d="M387.65,360.28a23.523,23.523,0,0,1-3.52,3.81c-.87.63-1.09,2.16-1.59,3.29-.22.5-.2.51-1.49,1.38-.35-1.65.68-2.89,1-4.26a3.485,3.485,0,0,1,.86-1.81,41.688,41.688,0,0,1,3.85-2.72c.11-.07.4.13.89.31Z" fill="#3e3f44"/><path d="M420.61,341.18a23.565,23.565,0,0,0,.66,2.88,19.84,19.84,0,0,0,1.31,2.52c-.14.71-.54,1.29-1.62.9a1.233,1.233,0,0,0-.66,0c-1.49.44-1.95.18-1.66-1.1.36-1.56.85-3.09,1.31-4.62.05-.17.31-.28.67-.59Z" fill="#3e3f44"/><path d="M387.72,263.71c0-2.58-.03-4.26.01-5.94a10.262,10.262,0,0,1,.28-1.99.629.629,0,0,1,.5-.38c.29.03.72.17.81.38a4.871,4.871,0,0,1,.54,1.93,20.186,20.186,0,0,1-.49,4.03c-.13.55-.78.97-1.65,1.97Z" fill="#3e3f44"/><path d="M354.32,335.91c-2.04,1.57-3.89,3-5.8,4.47-.61-.35-.23-.97,0-1.32a39.915,39.915,0,0,1,2.74-3.84c.8-.97,1.39-.83,3.07.69Z" fill="#3e3f44"/><path d="M345.63,355.74a7.777,7.777,0,0,1-1.98.38c-.44-.03-.85-.52-1.3-.82,3.3-3.29,2.79-3.53,5-3.4.58,1.4-.3,2.54-.81,3.71-.06.14-.62.06-.95.08.04-.1.09-.2.13-.29-.02,0-.06.02-.06.03-.01.11-.02.22-.02.32Z" fill="#3e3f44"/><path d="M347.7,301.43a14.369,14.369,0,0,1,2.2.02,1.539,1.539,0,0,1,1.37,1.67,2.315,2.315,0,0,1-.94,1.62,6.4,6.4,0,0,1-2.22.33,4.422,4.422,0,0,1-.42-3.64Z" fill="#3e3f44"/><path d="M439.16,267.73c-2.09.55-3.92,1.05-5.76,1.52-.5.13-1.33-.42-1.27-.88a1.506,1.506,0,0,1,.61-1.06,7.962,7.962,0,0,1,5.93-.39c.16.05.23.36.49.81Z" fill="#3e3f44"/><path d="M425.3,335.05c-1.05,1.37-1.84,2.57-1.54,4.14.04.22-.53.66-.89.8-.18.07-.64-.26-.79-.51a2.259,2.259,0,0,1-.18-2.56c.48-.76.88-1.57,1.43-2.57.57.2,1.13.4,1.96.7Z" fill="#3e3f44"/><path d="M368.15,334.53c-3.39,2.71-3.43,2.72-5.27,2.43.85-1.38,1.54-2.77,3.17-3.16.49-.12,1.13.38,2.1.74Z" fill="#3e3f44"/><path d="M416.12,364.09c.9-3.13,2.24-3.88,6.05-3.81C420.72,362.37,418.7,363.11,416.12,364.09Z" fill="#3e3f44"/><path d="M366.44,316.21c-.13-2.81,1.94-3.26,3.53-4.14.96.29,1.1,1.14.58,1.54-.7.54-.68,1.67-1.73,1.86a19.477,19.477,0,0,0-2.38.74Z" fill="#3e3f44"/><path d="M349.9,328.59c-.36.26-.6.55-.88.61a13.182,13.182,0,0,0-5.09,1.71,1.656,1.656,0,0,1-.97.16c-.15-.01-.3-.27-.42-.44a.373.373,0,0,1,0-.31,1.363,1.363,0,0,1,.43-.51c1.32-.64,2.64-1.3,4-1.84a2.845,2.845,0,0,1,2.92.62Z" fill="#3e3f44"/><path d="M321.05,310.85c-.89-.13-1.8-.21-2.68-.41a.922.922,0,0,1-.56-.72.982.982,0,0,1,.58-.71,2.991,2.991,0,0,1,1.33-.11,22.868,22.868,0,0,1,2.99.57,1.907,1.907,0,0,1,.95.81c.21.31-.56.74-1.27.67-.45-.04-.89-.13-1.34-.19v.09Z" fill="#3e3f44"/><path d="M358.49,293.67a3.526,3.526,0,0,1-4.24,1.05c-.58-.23-.99-.73-.71-1.31a2.034,2.034,0,0,1,1.17-1.03c1.07-.22,1.71.08,3.79,1.29Z" fill="#3e3f44"/><path d="M418.33,275.63c1.09-1.01,1.72-1.6,2.36-2.18a.978.978,0,0,1,.31-.14,1.6,1.6,0,0,1,1.86.34,1.6,1.6,0,0,1-1.26,2.62,20.286,20.286,0,0,1-3.26-.64Z" fill="#3e3f44"/><path d="M441.56,308.39c1.86-2.28,2.12-2.3,5.06-.79-.49,1.49-.89,1.92-1.85,1.73S442.87,308.78,441.56,308.39Z" fill="#3e3f44"/><path d="M392.25,316.23a8.993,8.993,0,0,1-1.98.79,1.841,1.841,0,0,1-2.11-1.69c-.05-.34.29-1.03.52-1.07a5.98,5.98,0,0,1,2.27.07,1.572,1.572,0,0,1,1.31,1.9Z" fill="#3e3f44"/><path d="M367.73,317.94a4.9,4.9,0,0,1-.2,1.32,1.34,1.34,0,0,1-.75.61,13.115,13.115,0,0,0-2.24.57,7.8,7.8,0,0,0-1.55,1.49c-.97-.67-.67-1.3-.22-1.83C364,318.66,365.66,318.16,367.73,317.94Z" fill="#3e3f44"/><path d="M356.92,291.2c-1.25-.21-2.15-2.06-1.52-2.96a1.072,1.072,0,0,1,.56-.36,1.758,1.758,0,0,1,2.05.77,1.845,1.845,0,0,1-.27,2.19,2.494,2.494,0,0,1-.81.36Z" fill="#3e3f44"/><path d="M327.57,296.48c.58-.33,1.15-.67,1.84-1.07.71.34,1.51.72,2.21,1.05a1.716,1.716,0,0,1-1.38,2.07,4.281,4.281,0,0,1-2.19-.59c-.33-.21-.3-.99-.43-1.52l-.06.05Z" fill="#3e3f44"/><path d="M372.31,316.88a3.03,3.03,0,0,1,.57.51,2.055,2.055,0,0,1-.07,2.51c-.75.89-1.8.71-2.8.48a.765.765,0,0,1-.31-1.12c.5-.44,1.07-.81,1.55-1.26.38-.35.46-1.02,1.05-1.11Z" fill="#3e3f44"/><path d="M378.58,323.02c-.29,1.01-.86,1.3-1.62,1.17a1.327,1.327,0,0,1-1.1-1.15c-.15-.66-.36-1.32-.48-1.98-.03-.19.14-.41.3-.81,1.51.48,2.04,1.88,2.9,2.78Z" fill="#3e3f44"/><path d="M429.43,311.51c.9,2.65.77,2.89-2.21,3.67a12,12,0,0,1-.11-1.3c.03-2.05.04-2.05,2.37-2.31l-.06-.06Z" fill="#3e3f44"/><path d="M366.12,309.51a36.557,36.557,0,0,1,5.4-.45c-1.5,1.63-3.19,1.57-4.49,2.25-.31.16-.97-.35-1.66-.62.35-.52.59-.88.82-1.24Z" fill="#3e3f44"/><path d="M380.77,320.66c-.07-.32-.31-.76-.2-1.06a3.618,3.618,0,0,1,2.53-2.08c.19-.05.82.55.8.79a3.009,3.009,0,0,1-3.13,2.35Z" fill="#3e3f44"/><path d="M360.6,370.53a2.509,2.509,0,0,1-.41-3.1,2.961,2.961,0,0,1,2.32-1.28c.25,1.9-.57,3.09-1.91,4.37Z" fill="#3e3f44"/><path d="M391.59,377.83a6.869,6.869,0,0,1-3.05-3.79c-.09-.22.36-.66.8-1.42.69,2.1,2.34,3.16,2.25,5.2Z" fill="#3e3f44"/><path d="M328.76,341.59a9.908,9.908,0,0,1-2.12,1.43c-.38.13-.99-.23-1.41-.5-.14-.09-.13-.73.03-.89a2.215,2.215,0,0,1,1.29-.79,8.127,8.127,0,0,1,2.21.75Z" fill="#3e3f44"/><path d="M401.2,332.31c.24-.23.47-.47.73-.69.51-.44,1.06-.93,1.76-.47a1.884,1.884,0,0,1,.15,2.43,1.408,1.408,0,0,1-1.16.33c-.86-.17-1.19-.92-1.44-1.68l-.05.08Z" fill="#3e3f44"/><path d="M382.58,378.77c-.23-.31-.69-.69-.77-1.13a1.417,1.417,0,0,1,1.02-1.54.919.919,0,0,1,.85.25,1.7,1.7,0,0,1-.54,2.31,2.669,2.669,0,0,1-.56.1Z" fill="#3e3f44"/><path d="M419.79,333.56a2.677,2.677,0,0,1-2.1,3.09c-.49-1.24.19-2.18.36-3.32.72.12,1.26.2,1.8.29l-.06-.06Z" fill="#3e3f44"/><path d="M321.94,305.61c-.84.38-1.61.72-2.53,1.13-.06-.84-.11-1.57-.17-2.34C320.64,303.98,321.17,304.94,321.94,305.61Z" fill="#3e3f44"/><path d="M337.26,307.31a4.713,4.713,0,0,1,.37-4.24c.2.07.54.08.59.21C338.72,304.61,337.97,305.64,337.26,307.31Z" fill="#3e3f44"/><path d="M376.81,369.02c.77-.02,1.41-.24,1.72-.01.87.62.74,1.46.08,2.33-.95-.24-1.4-.92-1.81-2.32Z" fill="#3e3f44"/><path d="M360.99,334.81a9.427,9.427,0,0,1,.87,2.35c.03.37-.53.9-.94,1.17s-1-.34-1.04-.96a2.436,2.436,0,0,1,1.11-2.56Z" fill="#3e3f44"/><path d="M340.03,342.96c1.06-1.08,2.08-2.09,4.17-1.39C342.54,342.35,341.51,343.34,340.03,342.96Z" fill="#3e3f44"/><path d="M382.19,287.77c-.17-.2-.55-.46-.65-.8-.22-.74.21-1.49.88-1.45a1.887,1.887,0,0,1,1.31.69C384.07,286.75,383.27,287.61,382.19,287.77Z" fill="#3e3f44"/><path d="M375.85,365.9l-2.64,5.02c-.22-.83-.53-1.31-.4-1.61a5.241,5.241,0,0,1,3.1-3.35Z" fill="#3e3f44"/><path d="M405.11,365.81a1.671,1.671,0,0,1,.64-.1c.62.18,1.22.41,1.91.66a2.7,2.7,0,0,1-.33.94,1.343,1.343,0,0,1-1.81.15c-.58-.4-.95-.94-.4-1.65Z" fill="#3e3f44"/><path d="M366.19,309.45a8.139,8.139,0,0,1-1-.06.949.949,0,0,1-.82-1.22c.14-.78.85-1.28,1.43-1.03a1.063,1.063,0,0,1,.57,1.4c-.08.33-.17.65-.25.98l.07-.06Z" fill="#3e3f44"/><path d="M432.27,296.51a6.565,6.565,0,0,1,1.45-3.03C434.64,295.11,434.17,295.98,432.27,296.51Z" fill="#3e3f44"/><path d="M366.39,341.05c-.67-1.19-.71-1.97.18-2.63a1.116,1.116,0,0,1,.9-.24c.54.21.46.7.2,1.1C367.33,339.81,366.93,340.3,366.39,341.05Z" fill="#3e3f44"/><path d="M425.14,346.87c-.33-.18-.67-.27-.68-.39-.03-.29,0-.74.17-.86a4.452,4.452,0,0,1,1.5-.64c.21-.05.55.21.73.42a.627.627,0,0,1-.12.58c-.54.35-1.12.63-1.6.9Z" fill="#3e3f44"/><path d="M376.11,358.78a6.247,6.247,0,0,1-1.03,1.14c-.17.12-.63-.06-.89-.22-.13-.07-.2-.41-.15-.6a1.69,1.69,0,0,1,.43-.9,2,2,0,0,1,1.13-.41c.14,0,.29.52.53.98Z" fill="#3e3f44"/><path d="M386.96,370.89a20.293,20.293,0,0,1-1.67,1.55.951.951,0,0,1-.89-.08.973.973,0,0,1-.31-.83.959.959,0,0,1,.64-.63,21.754,21.754,0,0,1,2.28.05l-.04-.06Z" fill="#3e3f44"/><path d="M437.65,342.11c-.19.11-.52.45-.85.45a.984.984,0,0,1-1.03-1.04,1.069,1.069,0,0,1,.99-1.11c.59-.08,1.02.61.89,1.7Z" fill="#3e3f44"/><path d="M337.93,332.72c-.05.21-.03.53-.15.59a6,6,0,0,1-1.5.54c-.11.02-.5-.52-.44-.66a1.375,1.375,0,0,1,1.9-.73c.09.04.13.17.2.25Z" fill="#3e3f44"/><path d="M362.23,270.94c-1.36-.92-2.14-1.45-3.09-2.1C361.39,268.4,361.43,268.42,362.23,270.94Z" fill="#3e3f44"/><path d="M427.22,292.03c.86.08,1.3.64,1.04,1.2-.15.31-.64.45-.98.66-.22-.35-.61-.7-.62-1.06-.01-.3.42-.61.56-.8Z" fill="#3e3f44"/><path d="M346.3,294.76c-2.04-.07-2.26-1.4-2.73-2.51C344.65,292.63,344.67,292.61,346.3,294.76Z" fill="#3e3f44"/><path d="M339.1,349.62c.25-.19.49-.41.76-.58.53-.33.97-.98,1.73-.58a.347.347,0,0,1,.16.26c.02.88-.71,1.03-1.3,1.26a5.978,5.978,0,0,1-1.22.18c-.04-.18-.08-.36-.13-.53Z" fill="#3e3f44"/><path d="M354.64,272.81c.04-1.23.79-1.13,1.4-1.02a2.671,2.671,0,0,1,1.03.65c.03.02-.16.47-.24.47C356.1,272.91,355.36,272.85,354.64,272.81Z" fill="#3e3f44"/><path d="M404.09,275.09c-.57.32-1.02.75-1.23.66a1.266,1.266,0,0,1-.64-1c.02-.35.45-.68.7-1.02C403.25,274.11,403.58,274.5,404.09,275.09Z" fill="#3e3f44"/><path d="M353.98,302.29c-.78-.52-1.23-.77-1.62-1.1a.584.584,0,0,1-.08-.57.674.674,0,0,1,.55-.24c.71.13,1.17.53,1.15,1.92Z" fill="#3e3f44"/><path d="M370.01,330.88c.52.37.86.61,1.2.85-.28.29-.53.76-.85.81s-.71-.33-1.06-.52C369.51,331.69,369.71,331.36,370.01,330.88Z" fill="#3e3f44"/><path d="M314.12,330.2c-.39.48-.77.98-1.2,1.42-.09.09-.46.02-.61-.09-.13-.11-.23-.48-.15-.56.42-.48.89-.9,1.35-1.34.2.19.4.38.61.57Z" fill="#3e3f44"/><path d="M369.64,265.62c.62-.14,1.23-.3,1.85-.38.11-.01.36.31.36.47s-.22.49-.36.49c-.61.01-1.22-.06-1.83-.11,0-.16-.02-.31-.03-.47Z" fill="#3e3f44"/><path d="M359.66,313.86c-.59.66-.81,1.15-1.11,1.2a1.124,1.124,0,0,1-.91-.61c-.16-.48.54-1.16.98-1.06a6.133,6.133,0,0,1,1.04.47Z" fill="#3e3f44"/><path d="M357.24,322.34c-.64.31-1.05.68-1.32.59a1.4,1.4,0,0,1-.71-.93c-.1-.46.22-1,.72-.85C356.35,321.27,356.65,321.78,357.24,322.34Z" fill="#3e3f44"/><path d="M358.55,352.19c.74.03,1.48.05,2.22.08l-.06-.05a4.286,4.286,0,0,1,.07,1c-.1.69-.74,1.02-1.14.57a10.118,10.118,0,0,1-1.03-1.67l-.06.06Z" fill="#3e3f44"/><path d="M352.22,320.27a8.679,8.679,0,0,1-.86.85.6.6,0,0,1-.58-.06.619.619,0,0,1-.11-.59,4.362,4.362,0,0,1,.9-.92c.09-.07.39.11.57.23.06.04.04.21.08.49Z" fill="#3e3f44"/><path d="M425.24,297.16c-.22.33-.33.67-.57.83-.37.24-.88-.21-.78-.72.05-.27.34-.65.55-.68s.48.33.79.57Z" fill="#3e3f44"/><path d="M428.4,297.24c-.32.38-.47.74-.72.83-.51.18-.86-.14-.95-.64-.09-.47.02-1,.61-.94.35.04.65.45,1.06.75Z" fill="#3e3f44"/><path d="M341.84,285.1a3.966,3.966,0,0,1-1.26.53c-.2,0-.42-.41-.64-.64a3.744,3.744,0,0,1,1.01-.7c.14-.05.44.39.89.81Z" fill="#3e3f44"/><path d="M434.01,284.23a4.049,4.049,0,0,1-1.07-.5c-.17-.16-.12-.56-.16-.85.21.02.48-.03.61.08a9.372,9.372,0,0,1,.85.93c-.08.11-.15.22-.23.33Z" fill="#3e3f44"/><path d="M403.76,362.69c-.43.39-.71.8-.87.75a3.621,3.621,0,0,1-.97-.64c.2-.23.41-.65.6-.64a4.1,4.1,0,0,1,1.23.53Z" fill="#3e3f44"/><path d="M319.56,312.54a4.7,4.7,0,0,1-1.25.1c-.16-.03-.25-.46-.36-.71a10.765,10.765,0,0,1,1.26-.13c.09,0,.17.34.36.73Z" fill="#3e3f44"/><path d="M342.46,300.35c-.42.39-.65.6-.88.8a4.467,4.467,0,0,1-.7-1.01c-.04-.11.48-.62.61-.57a4.1,4.1,0,0,1,.98.78Z" fill="#3e3f44"/><path d="M327.15,243.06c.55-.2,1.11-.4,1.67-.6.3.83-.2.92-.59,1.03a5.638,5.638,0,0,1-.93.09c-.05-.17-.1-.35-.15-.52Z" fill="#3e3f44"/><path d="M344.64,335.33c-.36-.2-.62-.26-.7-.41-.21-.44.23-.96.92-1.06.17-.02.36.16.54.25-.26.41-.51.82-.76,1.23Z" fill="#3e3f44"/><path d="M370.82,282.77c.67.03,1.34.04,2,.12.12.01.32.36.27.49-.05.16-.39.38-.48.34-.59-.3-1.16-.66-1.73-1l-.06.06Z" fill="#3e3f44"/><path d="M337.54,286.34c-.17.41-.26.76-.32.76a8.769,8.769,0,0,1-1.13-.25c.07-.19.13-.52.23-.53a7.318,7.318,0,0,1,1.22.03Z" fill="#3e3f44"/><path d="M427.38,266.3a9.411,9.411,0,0,1-1.03.7c-.07.04-.28-.21-.43-.33a9.376,9.376,0,0,1,.89-.78c.05-.03.28.2.57.41Z" fill="#3e3f44"/><path d="M395.96,254.42c-.27.25-.49.46-.7.66-.17-.23-.53-.56-.48-.67a3.859,3.859,0,0,1,.78-.84c.12.26.25.53.4.85Z" fill="#3e3f44"/><path d="M359.07,322.34c.28.42.56.84.81,1.28,0,0-.41.29-.42.28-.32-.38-.61-.78-.91-1.18.17-.12.34-.25.51-.37Z" fill="#3e3f44"/><path d="M333.48,306.76a.991.991,0,0,1-.95-1.24.659.659,0,0,1,.41-.42.94.94,0,0,1,1.04,1c-.05.27-.35.49-.5.67Z" fill="#3e3f44"/><path d="M408.99,372.12c-.23-.53-.52-.93-.43-1.06a4.019,4.019,0,0,1,.95-.76c.15.25.49.59.42.75a4.87,4.87,0,0,1-.94,1.06Z" fill="#3e3f44"/><path d="M361.7,312.56a4.741,4.741,0,0,1,.75,1.18c.03.14-.43.57-.61.54a.947.947,0,0,1-.6-.63c-.05-.22.2-.51.46-1.08Z" fill="#3e3f44"/><path d="M429.48,311.57a4.65,4.65,0,0,1,.43-.83.716.716,0,0,1,.54-.22c.12.01.33.29.3.37a.749.749,0,0,1-.41.41,5.574,5.574,0,0,1-.92.2l.06.06Z" fill="#3e3f44"/><path d="M431.49,348.7c-.25.16-.49.42-.73.43-.15,0-.32-.36-.48-.56a3.5,3.5,0,0,1,.8-.34c.09-.02.24.26.42.47Z" fill="#3e3f44"/><path d="M436.02,345.76c-.22.15-.46.32-.7.48-.1-.25-.34-.58-.26-.74.11-.2.48-.26.73-.39.07.19.13.37.23.64Z" fill="#3e3f44"/><path d="M371.4,328.85a4.116,4.116,0,0,1-.7-.59c-.05-.06.19-.34.29-.51.26.16.53.31.79.47-.11.18-.22.35-.39.63Z" fill="#3e3f44"/><path d="M335.2,342.66c.17.2.35.42.53.64-.25.13-.55.41-.74.35s-.3-.45-.45-.7c.18-.08.37-.17.65-.29Z" fill="#3e3f44"/><path d="M339.17,339.5a7.531,7.531,0,0,1,.8-1.04c.11-.1.34-.07.51-.1-.06.18-.07.42-.19.53a8.134,8.134,0,0,1-1.12.62Z" fill="#3e3f44"/><path d="M353.73,289.63c-.12.14-.24.38-.37.39-.16.01-.33-.17-.5-.27.13-.15.24-.39.38-.41s.32.18.49.29Z" fill="#3e3f44"/><path d="M359.84,300.58c-.08-.17-.16-.34-.25-.51.1-.04.27-.12.28-.1a4.74,4.74,0,0,1,.26.5c-.1.04-.2.07-.29.11Z" fill="#3e3f44"/><path d="M331.4,335.28c.13.19.22.34.32.49-.27.12-.54.26-.82.36-.05.02-.15-.13-.23-.2.24-.21.48-.43.72-.65Z" fill="#3e3f44"/><path d="M431.9,340.34c-.16.12-.32.24-.48.37-.12-.26-.24-.51-.36-.77.19-.05.43-.19.57-.13s.18.34.27.52Z" fill="#3e3f44"/><path d="M381.34,353.57a5.351,5.351,0,0,1-.16,1c-.06.17-.31.27-.47.4-.05-.27-.23-.63-.12-.81.16-.25.53-.37.8-.55l-.06-.05Z" fill="#3e3f44"/><path d="M381.68,360.12a.934.934,0,0,1,0-1.62C382.37,359.04,382.26,359.58,381.68,360.12Z" fill="#3e3f44"/><path d="M351.39,362.37c.15.09.32.19.5.3l-.53.58c-.14-.15-.39-.31-.39-.46s.27-.28.42-.42Z" fill="#3e3f44"/><path d="M349.24,364.17l-.16.36a6.523,6.523,0,0,1-.77-.46c-.03-.02.14-.3.21-.46C348.76,363.8,349.01,363.99,349.24,364.17Z" fill="#3e3f44"/><path d="M387,370.95v-2.12l.46.06c-.17.66-.34,1.33-.5,2l.05.06Z" fill="#3e3f44"/><path d="M359.56,378.94c-.15-.11-.37-.19-.44-.34-.04-.09.16-.29.25-.43.15.11.38.19.43.33.04.11-.16.29-.25.44Z" fill="#3e3f44"/><path d="M362.4,378.88a2.881,2.881,0,0,1-.34-.77c-.01-.08.42-.34.45-.31a4.82,4.82,0,0,1,.51.66c-.17.11-.34.22-.62.41Z" fill="#3e3f44"/><path d="M383.18,264.86c.12-.13.24-.27.37-.4a2.461,2.461,0,0,1,.28.46c.02.05-.15.24-.18.22A3.643,3.643,0,0,1,383.18,264.86Z" fill="#3e3f44"/><path d="M370.31,277.83a2.108,2.108,0,0,1-.6-.3c-.11-.11-.07-.36-.1-.54.17.08.42.11.5.24a1.725,1.725,0,0,1,.13.66l.06-.06Z" fill="#3e3f44"/><path d="M337.59,288.88c-.03.08-.05.2-.11.23s-.16-.02-.25-.04c.06-.12.11-.25.17-.37.06.06.13.12.19.18Z" fill="#3e3f44"/><path d="M349.62,289.09c-.16.12-.31.32-.47.32s-.29-.22-.44-.35c.16-.13.31-.35.47-.35S349.47,288.95,349.62,289.09Z" fill="#3e3f44"/><path d="M376.11,292.3l-.45.33a1.5,1.5,0,0,1-.17-.26,3.678,3.678,0,0,1,.44-.34l.18.27Z" fill="#3e3f44"/><path d="M324.17,296.4a4.612,4.612,0,0,1-.63-.77c-.06-.11.09-.35.15-.53.15.12.41.22.43.36a5.566,5.566,0,0,1,0,1l.06-.06Z" fill="#3e3f44"/><path d="M348.78,368.73c.04-.08.06-.2.12-.22s.15.06.23.1c-.04.08-.07.16-.11.24l-.24-.11Z" fill="#3e3f44"/><path d="M346.86,368.58c.08.17.27.41.21.51-.08.15-.34.2-.52.29-.07-.18-.25-.4-.2-.53s.33-.18.5-.27Z" fill="#3e3f44"/><path d="M428.87,308.2c.04-.09.08-.19.12-.28.12.08.25.15.37.23-.08.06-.15.17-.24.18S428.95,308.25,428.87,308.2Z" fill="#3e3f44"/><path d="M344.84,347.37c.05.1.15.21.14.3a8.6,8.6,0,0,1-.15.86c-.2-.05-.39-.1-.59-.16a8.5,8.5,0,0,1,.34-.83c.04-.07.2-.09.3-.13l-.05-.05Z" fill="#3e3f44"/><path d="M431.04,319.71c-.04.08-.06.2-.11.21a.218.218,0,0,1-.21-.1c-.02-.05.06-.15.09-.22.08.04.15.07.23.11Z" fill="#3e3f44"/><path d="M381.48,324.97a4.529,4.529,0,0,1,.03.52,1.041,1.041,0,0,1-.28.04,4.529,4.529,0,0,1-.03-.52A1.041,1.041,0,0,1,381.48,324.97Z" fill="#3e3f44"/><path d="M429.18,339.7c.1-.04.2-.12.29-.11.07.01.13.14.19.22-.15.06-.31.13-.46.19,0-.1-.01-.2-.02-.3Z" fill="#3e3f44"/><path d="M320.06,339.03c.18.06.37.13.55.19-.08.14-.15.39-.26.41a1.382,1.382,0,0,1-.56-.15l.27-.45Z" fill="#3e3f44"/><path d="M352.79,327.53c-.1.16-.21.32-.31.48a4.172,4.172,0,0,1-.38-.34s.12-.21.19-.22A2.891,2.891,0,0,1,352.79,327.53Z" fill="#3e3f44"/><path d="M419.85,333.62c.09-.18.17-.36.27-.53.05-.08.14-.12.22-.19,0,.13.04.31-.03.37a2.155,2.155,0,0,1-.52.28l.06.06Z" fill="#3e3f44"/><path d="M406.63,331.65v.3c-.14-.05-.28-.1-.42-.16.06-.08.1-.2.17-.24s.16.06.25.09Z" fill="#3e3f44"/><path d="M416.37,330.12a5.381,5.381,0,0,1,.55.24c.07.04.08.16.12.25-.15,0-.38.08-.43.01a1.675,1.675,0,0,1-.18-.56Z" fill="#3e3f44"/><path d="M374.5,328.83c-.27.11-.53.22-.8.33,0-.15-.01-.29-.02-.44.29.06.57.11.86.17Z" fill="#3e3f44"/><path d="M415.54,338.03l-.19.19c-.05-.08-.14-.15-.13-.22s.11-.13.17-.19c.05.08.1.15.14.23Z" fill="#3e3f44"/><path d="M352.74,340.04c-.08.03-.16.06-.25.09-.03-.08-.1-.19-.07-.23.04-.06.15-.07.23-.1.03.08.05.16.08.24Z" fill="#3e3f44"/><path d="M375.02,326.73l-.19-.15.23-.11Z" fill="#3e3f44"/><path d="M366.24,321.79c.08.03.15.07.23.1-.05.08-.07.19-.14.23-.05.02-.15-.06-.23-.09.05-.08.09-.16.14-.24Z" fill="#3e3f44"/><path d="M351.23,317.97l-.15-.12.19-.08Z" fill="#3e3f44"/><path d="M355.11,347.4c-.15-.33-.31-.66-.46-.99l.46-.06c-.02.37-.03.73-.05,1.1l.05-.05Z" fill="#3e3f44"/><path d="M344.89,347.42c.11-.26.21-.53.1-.24.2-.24.02-.03-.15.19Z" fill="#3e3f44"/><path d="M318.01,317.79l-.14.18-.09-.21Z" fill="#3e3f44"/><path d="M420.17,350.05c-.07.15-.09.29-.16.32s-.18-.06-.27-.09c.13-.07.26-.14.44-.23Z" fill="#3e3f44"/><path d="M394.29,311.63c.09-.03.18-.07.26-.1,0,.15.01.29.02.44-.09-.02-.21-.02-.26-.08s-.02-.17-.02-.25Z" fill="#3e3f44"/><path d="M334.45,351.24a1.461,1.461,0,0,1-.39-.01c-.03-.02,0-.16-.01-.25.11.07.22.15.41.26Z" fill="#3e3f44"/><path d="M330.69,357.47l-.15.18-.09-.22Z" fill="#3e3f44"/><path d="M411.47,363.83l.19.18-.23.07Z" fill="#3e3f44"/><path d="M324.12,296.46c.33.03.66.04.98.1.07.01.17.24.16.25-.14.12-.39.33-.43.3a7.3,7.3,0,0,1-.65-.71l-.06.06Z" fill="#3e3f44"/><path d="M435.9,291.75l-.26.03.12-.23Z" fill="#3e3f44"/><path d="M356.78,375.52c.14-.08.27-.15.41-.23.03.09.11.23.08.26a2.1,2.1,0,0,1-.41.24c-.03-.09-.05-.18-.08-.28Z" fill="#3e3f44"/><path d="M381.69,380.25c.07.07.21.17.2.22a3.2,3.2,0,0,1-.26.48,3.162,3.162,0,0,1-.17-.52c0-.05.15-.12.23-.18Z" fill="#3e3f44"/><path d="M430.92,290.78c-.09.04-.18.07-.27.11-.03-.09-.11-.21-.08-.26.04-.07.17-.08.26-.11.03.09.06.17.09.26Z" fill="#3e3f44"/><path d="M342.61,287.41l.19.2-.24.06Z" fill="#3e3f44"/><path d="M383.99,283.68c-.08.05-.16.14-.24.13s-.13-.11-.19-.17C383.7,283.65,383.85,283.67,383.99,283.68Z" fill="#3e3f44"/><path d="M374.78,267.96l-.05-.21.15.03Z" fill="#3e3f44"/><path d="M411.43,262.8c-.01-.28-.02-.57,0-.11.11-.44.04-.15-.04.15l.05-.04Z" fill="#3e3f44"/><path d="M333.83,239.89c-.09.04-.19.09-.28.13-.04-.1-.12-.22-.09-.29s.18-.09.27-.13Z" fill="#3e3f44"/><path d="M381.4,353.62l.04-.57c-.03.17-.06.35-.1.52l.06.05Z" fill="#3e3f44"/><path d="M336.28,352.46l.25-.1-.02.23Z" fill="#3e3f44"/><path d="M360.77,352.27c.05-.18.1-.37.14-.55,0,.08.04.18.01.24a1.041,1.041,0,0,1-.22.25l.06.06Z" fill="#3e3f44"/><path d="M382.11,329v.19l-.2-.1Z" fill="#3e3f44"/><path d="M355.52,325.94l.08.26-.23-.04Z" fill="#3e3f44"/><path d="M352.49,311.3l-.21-.12.23-.09Z" fill="#3e3f44"/><path d="M327.63,296.43c-.12-.14-.24-.29-.37-.43.1.16.21.32.31.48l.06-.05Z" fill="#3e3f44"/><path d="M406.72,278.59l-.15-.46a1.059,1.059,0,0,1,.11.21,1.405,1.405,0,0,1,0,.29l.05-.05Z" fill="#3e3f44"/><path d="M375.51,262.55l.08.25-.22-.04Z" fill="#3e3f44"/><path d="M303.357,402.161a1.652,1.652,0,0,1-1.252-.444c-.574-.591-.588-1.68-.545-3.154a41.929,41.929,0,0,1,.539-4.713c.135-.893.275-1.816.372-2.667.052-.446.117-.838.181-1.218a5.394,5.394,0,0,0-.768-4.531,43.51,43.51,0,0,1-2.983-6.272,10.923,10.923,0,0,0-1.053-2.247,7.76,7.76,0,0,0-3.38,4.843,15.5,15.5,0,0,0,.16,5.554c.134.85.46,3.75-.953,5.4a3.444,3.444,0,0,1-2.755,1.155h-.072a3,3,0,0,1-2.683-1.394,5.914,5.914,0,0,1-.7-3.126,43.051,43.051,0,0,1,.342-4.958,1.549,1.549,0,0,0-.272-1.267.779.779,0,0,0-.588-.269.817.817,0,0,0-.4.1c-.31.174-.626.346-.962.529a26.591,26.591,0,0,0-3.28,1.992,22,22,0,0,0-4.533,5.5c-1.839,2.782-3.74,5.659-6.782,6.755a7.518,7.518,0,0,1-2.479.514,2.215,2.215,0,0,1-2.3-1.4,3.931,3.931,0,0,1,.258-2.751,6.681,6.681,0,0,1,1.942-2.6c.891-.715,2.32-1.967,3.5-3.151,1.752-1.752,1.912-2.293,1.923-2.407a.305.305,0,0,0-.04,0l-.493-.026a39.351,39.351,0,0,1-9.732-1.422,12.854,12.854,0,0,1-4.539-2.412,7.859,7.859,0,0,1-2.6-4.41,2.438,2.438,0,0,1,.336-2.112,3.123,3.123,0,0,1,2.531-.873c3.576,0,9.442,2.539,10.731,3.31,3.666,2.191,7.276,3.547,8.518,3.547a.649.649,0,0,0,.266-.038c.251-.121.619-.251,1.044-.4a8.516,8.516,0,0,0,2.557-1.209.36.36,0,0,0,.154-.324c-.081-.7-2.085-1.8-3.695-2.692-2.227-1.229-4.33-2.39-4.125-3.5.145-.783,1.331-1.288,3.845-1.638a10.926,10.926,0,0,1,1.5-.111,6.894,6.894,0,0,1,4.923,2.009,5.736,5.736,0,0,0,3.739,1.71c.1,0,.2.005.3.005,2.71,0,3.984-1.309,6.1-3.477l.484-.5a34.79,34.79,0,0,0,4.489-5.661c.518-.809.434-1.012.423-1.032s-.092-.055-.231-.055a14.034,14.034,0,0,0-3.408,1.092,19.784,19.784,0,0,1-5.323,1.594c-.166.007-.335.01-.5.01-1.219,0-3.415-.176-4.422-1.358a2.284,2.284,0,0,1-.481-1.93,5.2,5.2,0,0,1,3.046-4.067,13.83,13.83,0,0,1,4.936-1.024,48.889,48.889,0,0,0,6.955-.876c3.1-.658,5.034-1.568,5.758-2.7,1.425-2.224,2.315-6.355-1.538-13.406a.292.292,0,0,0-.049-.07,5.049,5.049,0,0,0-.984,1.267c-1.205,1.826-3.223,4.883-6.663,4.883a6.68,6.68,0,0,1-2.006-.326c-2.09-.658-3.123-1.357-3.249-2.2-.176-1.174,1.459-2.3,3.352-3.6,2.18-1.5,4.65-3.2,4.934-5.271a3.711,3.711,0,0,0-1.049-2.912c-2.932-3.518-6.535-5.536-9.886-5.536a6.977,6.977,0,0,0-5.147,2.146c-1.378,1.429-2.979,4.248-2.783,9.557a3.864,3.864,0,0,0,.8,2.647,3.961,3.961,0,0,0,1.87.827,11.286,11.286,0,0,1,1.759.576c2.409,1.076,4.175,3.71,4.032,5.173-.167,1.7-1.126,2.676-2.63,2.676a6.476,6.476,0,0,1-2.619-.692,3.037,3.037,0,0,0-1.216-.33c-.585,0-.9.351-1.3.795-.108.12-.22.244-.343.367-1.063,1.063-1,7.177-.969,10.115.009.85.016,1.522,0,1.886a5.15,5.15,0,0,1-2.616,3.956,8.586,8.586,0,0,1-4.149,1.413H274.3c-1.065,0-2.459-.2-3.057-1.135a2.6,2.6,0,0,1,.128-2.547c.952-2.038,1.791-3.735,2.464-5.1.764-1.546,1.316-2.662,1.649-3.487.305-.755.4-1.227.3-1.4-.046-.075-.169-.112-.366-.112a4.206,4.206,0,0,0-.948.153,16.249,16.249,0,0,0-2.481.98,17.807,17.807,0,0,1-4.572,1.585,10.984,10.984,0,0,1-1.632.147,5,5,0,0,1-4.17-2.055,3.035,3.035,0,0,1-.736-2.853c.415-1.054,1.736-1.755,3.928-2.084,1.657-.247,6.459-.929,8.747-1.112,1.555-.126,2.984-2.352,3.13-4.111a2.674,2.674,0,0,0-.648-2.041,3.031,3.031,0,0,0-2.309-.872,8.363,8.363,0,0,0-3.111.725,4.105,4.105,0,0,1-1.508.359,1.287,1.287,0,0,1-1.382-1.085,4.183,4.183,0,0,1,.783-2.771,5.607,5.607,0,0,1,2.549-2.239,14.143,14.143,0,0,0,4.355-2.681,4.9,4.9,0,0,0,1.812-2.944c.047-1.264-.553-2.937-1.6-3.434a3.617,3.617,0,0,0-1.55-.374c-1.3,0-2.541.759-4.159,2.539-.719.789-1.445,1.763-2.213,2.794-2.121,2.847-4.761,6.39-9.387,8.994a6.94,6.94,0,0,0-2.906,3.281,21.447,21.447,0,0,0-1.283,4.252c-.528,2.316-1.026,4.5-2.65,5.531a10.286,10.286,0,0,1-4.531,1.443c-1.465,0-1.742-.814-1.776-1.3-.171-2.3,1.016-4.885,1.969-6.962.632-1.378,1.23-2.679,1.045-3.194-.7-1.961-1.562-2.76-2.985-2.76a7.844,7.844,0,0,0-3.274.955c-1.607.781-3.726,4.251-5.775,7.606-2.413,3.951-4.5,7.364-6.113,7.365h0c-.839,0-1.408-.861-1.742-2.632a9.586,9.586,0,0,1,1.008-6.658,18.6,18.6,0,0,1,3.493-4.213c1.781-1.737,2.664-2.693,1.66-3.76a3.6,3.6,0,0,0-2.748-1.077,12.812,12.812,0,0,0-5.979,2.04,30.378,30.378,0,0,0-5.453,4.077c-1.442,1.37-2.68,2.064-3.679,2.064a1.983,1.983,0,0,1-1.885-1.469,7.362,7.362,0,0,1-.11-3.925,6.649,6.649,0,0,1,1.757-3.5c1.906-1.708,4.88-2.466,7.5-3.135,2.058-.525,4-1.02,4.368-1.838a.96.96,0,0,0-.095-.858c-1.2-2.323-3.137-3.865-5.185-5.5a20.907,20.907,0,0,1-5.267-5.379,7.315,7.315,0,0,1-1.132-3.9,6.615,6.615,0,0,1,.855-3.157c.768-1.361,1.978-2.35,2.877-2.35a1.123,1.123,0,0,1,.147.009c.929.124,1.852.931,2.905,2.539a48.465,48.465,0,0,1,2.616,4.856c1.567,3.178,3.187,6.464,4.649,6.464h.046c.108-.006.422-.145.969-1.312.383-.818.757-1.87,1.086-2.8.139-.392.27-.762.392-1.085,1.343-3.571,2.894-4.32,3.959-4.32a2.85,2.85,0,0,1,2.093,1.053,5.428,5.428,0,0,1,1.533,4,5.834,5.834,0,0,1-2.034,3.942,14.254,14.254,0,0,0-1.911,2.37,5.776,5.776,0,0,0-1.187,2.557c.1,1.12,1.7,2.64,4.08,3.871a18.839,18.839,0,0,0,8.339,2.144c.106,0,.212,0,.317,0,2.172-.05,2.644-.464,2.731-.706.237-.653-1.282-1.982-2.623-3.154-1.4-1.226-2.85-2.493-3.126-3.561a2.334,2.334,0,0,1,.232-2.076,2.651,2.651,0,0,1,2.207-.8,10.429,10.429,0,0,1,4.35,1.075c.622.541,1.251,1.2,1.916,1.889,1.611,1.677,3.276,3.412,4.786,3.412a1.835,1.835,0,0,0,.808-.185,13.967,13.967,0,0,0,5.267-4.283,6.255,6.255,0,0,0,1.411-4.876c-.538-2.376-3.272-3.684-7.7-3.684a30.446,30.446,0,0,0-3.905.278,21.079,21.079,0,0,1-2.715.187h0c-4.938,0-6.639-2.023-7.141-2.892a2.759,2.759,0,0,1-.106-2.776,2.98,2.98,0,0,1,2.7-1.355,5.28,5.28,0,0,1,.9.081,27.958,27.958,0,0,0,4.615.485c1.414,0,3.112-.224,3.167-1.29.044-.847-.925-2.177-2.531-3.469a10.091,10.091,0,0,0-4.158-2.2l-1.169-.12a33.77,33.77,0,0,1-8.457-1.544c-2.691-1.068-3.936-2.817-3.808-5.347.066-1.309.872-1.972,2.4-1.972a24.69,24.69,0,0,1,6.477,1.585,24.263,24.263,0,0,0,6.23,1.542,1.869,1.869,0,0,0,1.53-.521,2.355,2.355,0,0,0,.2-1.954c-.832-4.056-1.083-6.716-.788-8.373a3.757,3.757,0,0,1,1.745-2.665l.043-.032a6.257,6.257,0,0,1,3.5-1.54,2.174,2.174,0,0,1,1.83.921c1.123,1.511,1.1,4.845-.065,8.7a17.812,17.812,0,0,0-.62,6.827,24.131,24.131,0,0,0,1.456,6.209c1.37,3.662,3.327,6.324,4.127,6.62a.571.571,0,0,0,.2.039c.575,0,1.076-1.114,1.518-2.1.554-1.23,1.076-2.392,1.969-2.392.618,0,1.246.576,1.976,1.814a10.287,10.287,0,0,1,.527,3.392c.125,1.8.28,4.038.911,4.565a9.945,9.945,0,0,0,6.3,2.325,6.459,6.459,0,0,0,2.455-.432c1.969-.841,3.044-1.785,3.286-2.887.429-1.948-1.748-4.361-4.269-7.154a54.409,54.409,0,0,1-4.2-5.057,22.662,22.662,0,0,0-2.432-1.385c-1.162-.62-2.609-1.393-3.966-2.189-.427-.251-.83-.475-1.22-.691-2.049-1.135-3.529-1.956-3.257-4.185a2.236,2.236,0,0,1,2.38-2.184,4.531,4.531,0,0,1,2.509.8l.534.431c.949.767,1.845,1.492,2.609,2.063a1.129,1.129,0,0,0,.671.264.941.941,0,0,0,.708-.374,1.283,1.283,0,0,0,.321-.915,25.658,25.658,0,0,1-.255-7.978c.333-2.4,1.049-4.227,2.016-5.148,1.38-1.32,2.432-1.962,3.214-1.962a1.212,1.212,0,0,1,.914.393c.993,1.053.818,4.081.615,7.588a34.05,34.05,0,0,0,.059,7.39,29.375,29.375,0,0,0,2.832,8.413c.97,1.76,2.553,3.859,4.582,3.859a3.471,3.471,0,0,0,1.6-.42s.085-.078.01-.577c-.064-.43-.222-1.025-.4-1.714a20.984,20.984,0,0,1-.956-6.634A7.842,7.842,0,0,1,291.7,297.3a6.9,6.9,0,0,1,3.266-1.222,1.687,1.687,0,0,1,1.4.63c1.217,1.54.262,5.557-.662,9.441-.642,2.7-1.305,5.49-.785,6.149a.31.31,0,0,0,.266.119,1.072,1.072,0,0,0,.373-.085,11.7,11.7,0,0,0,1.407-.746,15.016,15.016,0,0,1,6.248-2.339c.056-.005.113-.008.169-.008.906,0,1.523.731,1.61,1.909a5.29,5.29,0,0,1-.966,3.272,5,5,0,0,1-3.446,2.144c-4.061.6-6.543,1.548-7.379,2.807a2.282,2.282,0,0,0-.175,1.989l0,.007c.187.716,1.021,1.392,2.349,1.9a13.07,13.07,0,0,0,4.508.781c.2,0,.4,0,.6-.014a10.7,10.7,0,0,0,5.544-1.838c2.176-1.58,3.292-4.014,3.317-7.234a36.124,36.124,0,0,0-.354-4.849c-.122-1.037-.26-2.213-.395-3.708-.183-2,.111-3.529.826-4.313a1.7,1.7,0,0,1,1.3-.582,2.827,2.827,0,0,1,1.305.371,6.766,6.766,0,0,1,3.275,4.127,16.666,16.666,0,0,1,.612,4.822,18.5,18.5,0,0,1-.791,4.619c-.333,1.285-.678,2.613-.4,2.974a.283.283,0,0,0,.252.1,1.3,1.3,0,0,0,.343-.057c.65-.183,1.362-.438,2.116-.709a14.3,14.3,0,0,1,4.1-1.074,1.538,1.538,0,0,1,1.735,1.67c.04,2.38-.789,3.461-3.285,4.282a23.807,23.807,0,0,1-3.36.71c-3.472.579-7.793,1.3-10.233,4.546-1.445,1.922-1.98,3.4-1.548,4.26.411.823,1.642,1,2.6,1a16.433,16.433,0,0,0,8.818-3.041c4.673-4.016,8.615-6.139,11.4-6.139A3.346,3.346,0,0,1,331,326a3.644,3.644,0,0,1-.735,3.826,17.459,17.459,0,0,1-3.7,1.972c-1.87.848-4.19,1.9-4.551,2.634a1.075,1.075,0,0,0,.312.774c.875.892,3.5.895,6.047.9,3.431,0,6.979.008,7.986,1.922.657,1.249.115,3.114-1.657,5.7h0a3.222,3.222,0,0,1-2.822,1.22c-3.765,0-9.318-3.386-9.6-3.558-.175-.1-6.071-3.434-8.985-3.434a1.414,1.414,0,0,0-1.3.509c-.252.413-.327,1.344.748,3.439,1.779,3.478,9.089,6.7,13.016,8.426.377.166.733.323,1.049.464a5.364,5.364,0,0,1,2.637,2.172,5.144,5.144,0,0,1,.524,3.058c-.189,2.121-1.283,2.566-2.168,2.566a5.824,5.824,0,0,1-2.94-1.1c-.549-.35-1.233-.817-1.958-1.312-2.816-1.923-6.673-4.558-8.721-4.558a1.087,1.087,0,0,0-1.158.721c-.658,1.745-1.177,3.123,1.022,9.376a39.289,39.289,0,0,0,3.163,6.452,13.3,13.3,0,0,0,1.889,2.484,9.878,9.878,0,0,1,2.277,3.462.915.915,0,0,1-.136.867c-.5.716-1.929,1.216-3.479,1.216a6.427,6.427,0,0,1-5.8-3.356,11.177,11.177,0,0,1-1.143-4.279,14.375,14.375,0,0,0-.318-1.954c-.815-3.1-1.578-3.562-1.961-3.562-.341,0-.906.337-1.659,1.944-.677,1.427-1.564,3.4-1.9,4.143-.084.188-.138.308-.152.337-2.324,4.943-1.444,8.134-.3,9.94a8.067,8.067,0,0,0,3.41,2.925,10.841,10.841,0,0,0,4.6.995,11.278,11.278,0,0,0,2.7-.324c1.671-.413,6.383-1.665,7.442-2.015a3.779,3.779,0,0,1,1.178-.22,1.673,1.673,0,0,1,1.268.5,3.044,3.044,0,0,1,.588,2.3,3.93,3.93,0,0,1-.54,1.915,2.413,2.413,0,0,1-1.8,1.12c-3.02.4-3.554.864-3.562,1.694-.007.664,1.218,1.4,2.514,2.17,1.995,1.191,4.477,2.674,4.072,4.92-.426,2.363-1.113,3.464-2.16,3.465h0c-1.224,0-2.693-1.569-4.554-3.555-2.752-2.937-6.176-6.593-10.166-6.593a6.5,6.5,0,0,0-.709.039.318.318,0,0,0-.227.143c-.659.889.068,4.807.307,6.095.388,2.081-.454,5.689-2.413,6.409A9.765,9.765,0,0,1,303.357,402.161Zm-5.513-25.743c.445,0,.734.659,1.5,2.564a43.1,43.1,0,0,0,2.949,6.2,5.9,5.9,0,0,1,.83,4.857c-.062.374-.127.76-.177,1.194-.1.859-.239,1.787-.375,2.684a41.6,41.6,0,0,0-.534,4.656c-.038,1.311-.033,2.35.409,2.805a1.206,1.206,0,0,0,.908.3,9.512,9.512,0,0,0,2.95-.736,3.6,3.6,0,0,0,1.8-2.38,7.53,7.53,0,0,0,.312-3.491c-.694-3.743-.762-5.737-.22-6.469a.8.8,0,0,1,.559-.334,6.981,6.981,0,0,1,.762-.042c4.2,0,7.7,3.74,10.517,6.745,1.711,1.826,3.188,3.4,4.2,3.4h0c.763,0,1.315-1,1.688-3.07.346-1.919-1.881-3.249-3.846-4.423-1.48-.884-2.757-1.647-2.748-2.587.013-1.4,1.293-1.811,3.979-2.165a2.418,2.418,0,0,0,1.922-2.583,2.767,2.767,0,0,0-.457-1.947,1.2,1.2,0,0,0-.92-.349,3.311,3.311,0,0,0-1.027.2c-1.069.353-5.8,1.611-7.479,2.025a11.759,11.759,0,0,1-2.811.338,11.324,11.324,0,0,1-4.8-1.04,8.546,8.546,0,0,1-3.611-3.1c-1.211-1.908-2.148-5.26.268-10.4l.149-.33c.334-.744,1.223-2.721,1.9-4.151.7-1.493,1.385-2.219,2.094-2.219.938,0,1.732,1.282,2.425,3.921a14.723,14.723,0,0,1,.33,2.02,10.634,10.634,0,0,0,1.089,4.107,5.958,5.958,0,0,0,5.379,3.1,4.07,4.07,0,0,0,3.085-1.01.445.445,0,0,0,.079-.427,9.486,9.486,0,0,0-2.182-3.306,13.691,13.691,0,0,1-1.951-2.569,39.651,39.651,0,0,1-3.2-6.528c-2.148-6.108-1.786-7.667-1.018-9.7a1.57,1.57,0,0,1,1.607-1.032c2.2,0,6.124,2.683,8.992,4.641.721.492,1.4.958,1.945,1.3a5.462,5.462,0,0,0,2.682,1.02c1,0,1.564-.716,1.69-2.129a4.625,4.625,0,0,0-.464-2.78,4.911,4.911,0,0,0-2.415-1.97c-.314-.141-.67-.3-1.046-.463a78.183,78.183,0,0,1-7.416-3.612c-3.106-1.786-5.014-3.434-5.834-5.035-.958-1.866-1.2-3.145-.73-3.908a1.845,1.845,0,0,1,1.707-.739c3.07,0,8.977,3.357,9.226,3.5l.007,0c.057.035,5.7,3.489,9.349,3.489a2.762,2.762,0,0,0,2.447-1.04h0c1.624-2.378,2.165-4.119,1.608-5.177-.872-1.657-4.426-1.661-7.562-1.665-2.763,0-5.373-.006-6.389-1.042a1.563,1.563,0,0,1-.449-1.166v-.044l.017-.041c.368-.915,2.528-1.894,4.815-2.931a17.567,17.567,0,0,0,3.573-1.885,3.141,3.141,0,0,0,.617-3.3,2.855,2.855,0,0,0-2.889-1.726c-1.861,0-5.3,1.045-11.087,6.023a16.73,16.73,0,0,1-9.131,3.157c-1.571,0-2.619-.436-3.031-1.261-.526-1.053.011-2.655,1.594-4.763,2.555-3.4,6.982-4.138,10.538-4.732a23.529,23.529,0,0,0,3.288-.692c2.3-.757,2.992-1.649,2.956-3.818-.014-.84-.389-1.2-1.255-1.2a14.075,14.075,0,0,0-3.942,1.046c-.762.273-1.482.532-2.148.719a1.739,1.739,0,0,1-.474.075.753.753,0,0,1-.632-.282c-.423-.547-.114-1.739.314-3.389a18.152,18.152,0,0,0,.776-4.493c-.035-3.281-.493-6.861-3.633-8.531a2.36,2.36,0,0,0-1.08-.315,1.238,1.238,0,0,0-.946.425c-.614.673-.87,2.111-.7,3.946.134,1.488.272,2.661.393,3.7a36.5,36.5,0,0,1,.358,4.908c-.027,3.381-1.21,5.944-3.515,7.619a11.191,11.191,0,0,1-5.8,1.929c-.2.01-.414.014-.623.014a13.567,13.567,0,0,1-4.68-.813c-1.476-.567-2.414-1.359-2.641-2.23l0-.008a2.723,2.723,0,0,1,.24-2.373c.927-1.4,3.449-2.383,7.709-3.016a4.529,4.529,0,0,0,3.122-1.942,4.8,4.8,0,0,0,.882-2.963c-.025-.343-.182-1.464-1.131-1.464-.04,0-.082,0-.124.006a14.612,14.612,0,0,0-6.051,2.276,11.926,11.926,0,0,1-1.475.779,1.517,1.517,0,0,1-.547.117.79.79,0,0,1-.643-.3c-.665-.842-.065-3.364.694-6.557.813-3.419,1.825-7.675.753-9.032a1.214,1.214,0,0,0-1.021-.447,6.583,6.583,0,0,0-3.019,1.154,7.488,7.488,0,0,0-2.791,2.814,8.06,8.06,0,0,0-.924,3.373,20.6,20.6,0,0,0,.941,6.48c.438,1.654.68,2.566.151,2.84a3.945,3.945,0,0,1-1.821.474c-1.791,0-3.521-1.42-5-4.107a29.861,29.861,0,0,1-2.883-8.555,34.317,34.317,0,0,1-.066-7.507c.18-3.111.367-6.329-.485-7.231a.739.739,0,0,0-.565-.242c-.643,0-1.613.615-2.883,1.829a8.718,8.718,0,0,0-1.872,4.867,25.169,25.169,0,0,0,.252,7.826,1.733,1.733,0,0,1-.425,1.309,1.408,1.408,0,0,1-1.076.546,1.591,1.591,0,0,1-.959-.36c-.77-.575-1.669-1.3-2.622-2.073l-.534-.431a4.122,4.122,0,0,0-2.207-.69,1.761,1.761,0,0,0-1.9,1.762c-.233,1.908.989,2.585,3.013,3.707.393.218.8.443,1.23.7,1.348.791,2.79,1.561,3.948,2.179a12.641,12.641,0,0,1,2.6,1.529,53.2,53.2,0,0,0,4.163,5.015c2.61,2.892,4.863,5.389,4.382,7.579-.278,1.264-1.445,2.319-3.567,3.225a6.845,6.845,0,0,1-2.643.47,10.432,10.432,0,0,1-6.606-2.437c-.787-.659-.936-2.815-1.081-4.9a10.985,10.985,0,0,0-.461-3.182c-.769-1.3-1.274-1.578-1.563-1.578-.582,0-1.086,1.121-1.531,2.109-.551,1.224-1.071,2.381-1.956,2.381a1.047,1.047,0,0,1-.368-.069c-1.024-.38-3.04-3.244-4.409-6.9a24.61,24.61,0,0,1-1.484-6.332,18.288,18.288,0,0,1,.638-7.01,18.919,18.919,0,0,0,.872-5.005,5.474,5.474,0,0,0-.733-3.269,1.717,1.717,0,0,0-1.444-.727,5.828,5.828,0,0,0-3.21,1.443l-.043.032a3.278,3.278,0,0,0-1.562,2.366c-.284,1.594-.034,4.2.785,8.192a2.742,2.742,0,0,1-.3,2.354,2.3,2.3,0,0,1-1.9.7,24.458,24.458,0,0,1-6.381-1.566,24.487,24.487,0,0,0-6.327-1.561c-1.274,0-1.865.468-1.918,1.517-.118,2.331,1,3.88,3.506,4.877a33.471,33.471,0,0,0,8.329,1.512q.588.06,1.171.12a10.391,10.391,0,0,1,4.409,2.3c.84.676,2.786,2.407,2.709,3.868a1.5,1.5,0,0,1-.947,1.3,6.346,6.346,0,0,1-2.7.45,28.422,28.422,0,0,1-4.7-.492,4.8,4.8,0,0,0-.819-.074,2.517,2.517,0,0,0-2.287,1.115,2.257,2.257,0,0,0,.106,2.3,4.7,4.7,0,0,0,2.21,1.833,11.082,11.082,0,0,0,4.515.82h0a20.6,20.6,0,0,0,2.653-.183,30.926,30.926,0,0,1,3.967-.282c4.673,0,7.573,1.441,8.166,4.058a6.715,6.715,0,0,1-1.49,5.263,14.453,14.453,0,0,1-5.449,4.435,2.336,2.336,0,0,1-1.015.231c-1.715,0-3.452-1.809-5.132-3.559-.658-.685-1.279-1.332-1.884-1.858a10.484,10.484,0,0,0-4.037-.958,2.222,2.222,0,0,0-1.827.615,1.9,1.9,0,0,0-.146,1.663c.238.924,1.693,2.2,2.977,3.319,1.667,1.458,3.106,2.717,2.758,3.679-.237.653-1.244.978-3.171,1.022-.108,0-.218,0-.328,0a19.334,19.334,0,0,1-8.559-2.2c-2.6-1.345-4.219-2.935-4.337-4.255-.113-1.289,2.413-4.6,3.262-5.333a5.345,5.345,0,0,0,1.868-3.608,4.9,4.9,0,0,0-1.41-3.649,2.436,2.436,0,0,0-1.737-.9c-1.291,0-2.538,1.424-3.51,4.009-.12.32-.251.688-.389,1.077-.91,2.564-1.62,4.382-2.483,4.428l-.071,0c-1.761,0-3.373-3.27-5.08-6.732-1.594-3.233-3.4-6.9-5.154-7.132a.635.635,0,0,0-.084-.005,3.787,3.787,0,0,0-2.459,2.105,6.134,6.134,0,0,0-.793,2.927,6.843,6.843,0,0,0,1.063,3.65,20.537,20.537,0,0,0,5.155,5.252c2,1.592,4.063,3.238,5.313,5.652a1.423,1.423,0,0,1,.106,1.275c-.462,1.029-2.326,1.5-4.687,2.106-2.57.655-5.484,1.4-7.3,3.027a6.176,6.176,0,0,0-1.608,3.246,6.877,6.877,0,0,0,.089,3.653,1.521,1.521,0,0,0,1.436,1.16c.859,0,2.017-.668,3.348-1.932,3.17-3.01,8.2-6.249,11.763-6.249a4.062,4.062,0,0,1,3.1,1.229,1.718,1.718,0,0,1,.283,2.2,11.037,11.037,0,0,1-1.958,2.233c-2.256,2.2-5.346,5.214-4.364,10.438.28,1.487.707,2.241,1.27,2.241,1.347,0,3.662-3.791,5.7-7.135,2.085-3.414,4.241-6.945,5.975-7.788a8.288,8.288,0,0,1,3.484-1c2.064,0,2.9,1.556,3.437,3.079.251.7-.3,1.9-1.06,3.556-.93,2.027-2.088,4.55-1.926,6.727.015.212.061.854,1.3.854a9.86,9.86,0,0,0,4.275-1.369c1.456-.922,1.933-3.015,2.439-5.232.656-2.878,1.4-6.139,4.422-7.845,4.537-2.554,7.143-6.052,9.237-8.863.776-1.041,1.508-2.024,2.243-2.83,1.212-1.333,2.7-2.7,4.514-2.7a4.092,4.092,0,0,1,1.756.42c1.243.589,1.931,2.438,1.877,3.886-.075,2-2.918,4.657-6.472,6.054-1.827.715-3.282,3.165-3.035,4.473a.806.806,0,0,0,.911.694,3.646,3.646,0,0,0,1.326-.323,8.83,8.83,0,0,1,3.294-.761,3.494,3.494,0,0,1,2.663,1.027,3.154,3.154,0,0,1,.773,2.406,6.121,6.121,0,0,1-1.127,2.911,3.527,3.527,0,0,1-2.443,1.638c-2.275.182-7.061.861-8.714,1.108-1.982.3-3.21.915-3.552,1.785a2.4,2.4,0,0,0,.665,2.378,4.552,4.552,0,0,0,3.795,1.874,10.554,10.554,0,0,0,1.562-.142,17.452,17.452,0,0,0,4.445-1.547,16.518,16.518,0,0,1,2.563-1.008,4.57,4.57,0,0,1,1.064-.168.83.83,0,0,1,.773.339c.4.649-.277,2.027-1.922,5.355-.673,1.361-1.51,3.055-2.46,5.088a2.174,2.174,0,0,0-.158,2.086c.375.589,1.317.913,2.652.913h.116a8.148,8.148,0,0,0,3.895-1.335,4.73,4.73,0,0,0,2.4-3.576c.016-.351.009-1.016,0-1.859-.047-4.477,0-9.347,1.109-10.459.114-.114.222-.234.326-.349a2.162,2.162,0,0,1,1.658-.953,3.488,3.488,0,0,1,1.415.374,6.018,6.018,0,0,0,2.419.648c1.6,0,2.052-1.22,2.153-2.243.114-1.162-1.411-3.643-3.749-4.687a10.743,10.743,0,0,0-1.687-.55c-1.624-.428-2.906-.765-3.025-3.92-.2-5.479,1.475-8.412,2.917-9.909a7.447,7.447,0,0,1,5.493-2.293c3.493,0,7.231,2.081,10.254,5.709a4.213,4.213,0,0,1,1.156,3.285c-.313,2.28-2.876,4.044-5.138,5.6-1.687,1.161-3.281,2.258-3.149,3.136.093.623,1.075,1.233,2.919,1.813a6.2,6.2,0,0,0,1.861.3,5.568,5.568,0,0,0,3.862-1.644,16.016,16.016,0,0,0,2.4-3.023c.611-.926.98-1.485,1.394-1.485a.522.522,0,0,1,.461.322c3.966,7.258,3.017,11.562,1.522,13.895-.8,1.247-2.835,2.228-6.062,2.914a49.377,49.377,0,0,1-7.026.886,13.4,13.4,0,0,0-4.759.978,4.69,4.69,0,0,0-2.779,3.711,1.8,1.8,0,0,0,.372,1.542c.3.358,1.31,1.19,4.056,1.19.162,0,.326,0,.485-.01a19.573,19.573,0,0,0,5.166-1.561,13.607,13.607,0,0,1,3.584-1.126.678.678,0,0,1,.652.3c.17.311.034.78-.44,1.521a35.272,35.272,0,0,1-4.551,5.739l-.483.495c-2.124,2.181-3.527,3.622-6.439,3.622-.1,0-.21,0-.317-.005a6.2,6.2,0,0,1-4.028-1.82,6.492,6.492,0,0,0-4.618-1.9,10.448,10.448,0,0,0-1.433.106c-2.865.4-3.385.954-3.44,1.25-.04.217.112.619,1.065,1.306a30.045,30.045,0,0,0,2.82,1.683c2.055,1.134,3.83,2.114,3.94,3.057a.834.834,0,0,1-.307.735,8.765,8.765,0,0,1-2.72,1.307c-.412.146-.768.272-1,.382a1.1,1.1,0,0,1-.473.085c-1.334,0-4.977-1.352-8.764-3.615-1.263-.755-7-3.242-10.485-3.242a2.7,2.7,0,0,0-2.159.7,2,2,0,0,0-.238,1.711,7.389,7.389,0,0,0,2.443,4.146,12.382,12.382,0,0,0,4.371,2.317,38.956,38.956,0,0,0,9.61,1.4l.494.027a.47.47,0,0,1,.471.315c.087.271-.075.653-.526,1.241a17.8,17.8,0,0,1-1.477,1.636c-1.2,1.208-2.666,2.49-3.582,3.225a6.282,6.282,0,0,0-1.8,2.406,3.516,3.516,0,0,0-.248,2.406,1.729,1.729,0,0,0,1.85,1.08,7.054,7.054,0,0,0,2.316-.486c2.892-1.042,4.666-3.726,6.544-6.568a22.347,22.347,0,0,1,4.642-5.617,26.931,26.931,0,0,1,3.341-2.031c.334-.182.649-.354.957-.527a1.3,1.3,0,0,1,.63-.164,1.252,1.252,0,0,1,.947.43,2,2,0,0,1,.389,1.642,42.583,42.583,0,0,0-.338,4.9,5.461,5.461,0,0,0,.631,2.872,2.512,2.512,0,0,0,2.282,1.168h.066a2.986,2.986,0,0,0,2.39-.987c1.28-1.5.969-4.218.844-5.016a15.9,15.9,0,0,1-.155-5.728,8.236,8.236,0,0,1,3.615-5.166A.4.4,0,0,1,297.843,376.418Z" fill="#1c1c1b"/></g></g></svg>