<?xml version="1.0" encoding="UTF-8"?>
<svg id="Layer_2" data-name="Layer 2" xmlns="http://www.w3.org/2000/svg" viewBox="0 0 271.54 114.6">
  <defs>
    <style>
      .cls-1 {
        fill: #3b3d42;
      }
    </style>
  </defs>
  <g id="_3_trees" data-name="3 trees">
    <g>
      <path class="cls-1" d="m23.62,54.26c.69.95,1.18,1.57,1.62,2.22,2.63,3.89,6.04,6.5,10.93,6.78,1.38.08,2.75.49,4.13.62,1.07.1,1.88-.38,2.14-1.56-.89-1.46-2.51-1.61-3.9-2.13-4.7-1.75-7.73-5.33-10.38-9.33-.29-.43-.47-1.09-.37-1.57.12-.55.61-1.02,1.2-1.92,3.3,6.07,7.4,10.56,14.26,11.75,1.64-3.44,2.55-6.85,2.12-10.55-5.25-.17-5.99-.35-13.9-3.48.12-.58.11-1.29.42-1.8.41-.67,1.16-.65,1.85-.3.5.25.98.53,1.49.76,3.08,1.37,6.22,2.5,9.91,2,.86-1.26.39-2.73.2-4.17-2.54-2.16-6.91-1.95-7.93-6.54,3.12.45,4.96,3.23,7.87,3.04,1.05-1.57,1.06-1.86.11-2.68-1.04-.91-2.15-1.76-3.1-2.76-.24-.26-.12-1.03.07-1.45.1-.23.76-.39,1.08-.3.85.23,1.65.62,2.92,1.12-1.73-2.47-3.16-4.45-4.52-6.47-.46-.69-.85-1.46-1.09-2.25-.21-.72.14-1.36.88-1.68.74-.31,1.38-.12,1.76.59.65,1.22,1.2,2.49,1.88,3.69.23.41.72.67,1.18,1.09.93-3.28,1.08-5.77.14-9.18-1.34-4.83-2.88-9.6-4.35-14.39-.24-.8-.59-1.58-.74-2.39C41.48.7,41.82,0,41.98,0c.49,0,1.09.13,1.43.45.38.35.58.94.75,1.46,1.3,3.97,2.56,7.96,3.86,11.94,1.14,3.48,1.79,7.02,1.63,10.69-.04.8.13,1.61.21,2.55,1.81.05,3.04-.8,4.25-1.73.7-.54,1.47-.86,2.26-.22.64.52.31,1.8-.75,2.44-1.43.86-2.9,1.67-4.44,2.3-1.33.55-2.01,1.41-2.15,2.79-.06.56-.15,1.11-.2,1.66-.26,3.19-.53,6.38-.73,9.57-.06.94.11,1.9.18,3.05,3.13.58,6.06,1.19,8.73-1.09.21-.18.97-.11,1.11.09.27.39.51,1.06.35,1.43-.77,1.73-2.44,2.18-4.1,2.46-.95.16-1.95.04-2.92.09-.95.06-1.9.18-2.89.28-.79,1.7-.86,3.32-.79,5.08,3.01,1.46,5.43-1.93,8.39-1.03-.34,2.15-1.77,2.84-3.46,3.3-2,.54-3.99,1.13-6.12,1.74.1,1.32.18,2.37.28,3.57,3.23.16,6.22.2,8.82-1.3,1.1,1.48.65,2.41-.31,2.81-1.26.52-2.67.76-4.03.96-2.06.29-4.14.45-6.17.65-1.27,1.63-1.88,3.2-1.19,5.02,1.52.59,2.61-.21,3.75-.61,1.71-.59,3.36-1.37,5.08-1.89.93-.28,1.98-.21,2.26,1.1-2.2,1.94-4.2,2.77-12.19,5.03-1.17,1.77-1.53,3.8-1.62,5.92-.12,2.79-.22,5.57-.45,8.35-.26,3.16.81,6.08,1.69,8.98.72,2.37,1.89,4.64,3.1,6.81.9,1.61,2.12,1.69,3.43.49,3.3-3.01,5.04-6.61,4.15-11.19-.18-.93-.52-1.98.69-2.53.85-.39,1.47.55,1.67,2.31.57,5.18-.81,9.66-4.67,13.27-.31.29-.6.58-.89.89-.28.3-.55.62-1,1.13.36.63.67,1.36,1.15,1.96.51.63,1.29,1.06,1.73,1.73.22.33.11,1.16-.18,1.45-.29.3-1.17.49-1.46.27-1.11-.81-2.41-1.62-3.06-2.76-2.03-3.51-5.62-4.27-8.66-5.71-1.69.69-1.66,2.14-2.2,3.2-1.19,2.34-2.79,4.17-5.45,4.81-.85.21-1.19-.08-1.95-1.76,2.74-1.7,6.08-3.04,6.01-7.3-1.16-1.61-3.31-1.73-4.91-3.06-1.16.67-2.23,1.26-3.27,1.9-1.77,1.1-3.46,2.33-5.29,3.33-1.73.95-3.53.76-5.12-.44-.57-.43-.84-1.12-.23-1.82.23-.1.53-.37.7-.3,2.01.8,3.78.51,5.45-.89,1.27-1.06,2.64-1.99,3.94-2.96-.44-2.55-2.54-3.51-3.78-5.11-1.27-1.64-2.47-3.34-3.84-5.21-.9.44-1.62.77-2.32,1.13-4.27,2.18-8.93,1.9-13.5,2.09-.4.02-.88-.06-1.21-.28-.55-.36-1.11-.8-1.48-1.33-.29-.41.79-1.12,1.87-1.14,2.09-.05,4.19,0,6.28-.12,2.8-.15,5.51-.66,7.68-2.43.53-1.41-.36-2.28-.79-3.26-.49-1.14-1.14-2.25-1.43-3.44-.12-.48.43-1.27.88-1.71.59-.58,1.32-.31,1.84.24.53.57.98,1.22,1.53,1.93,1.31-1.17.25-2.61.93-3.64.13-.2.42-.38.66-.4.24-.02.63.09.71.26.29.61.68,1.27.67,1.9-.03,1.95-.04,3.93-.42,5.82-.34,1.7-.05,3.01,1.15,4.18,1.06,1.04,1.69,2.53,3.4,3.45,0-1.81-.07-3.29.03-4.75.04-.68.39-1.36,1.41-1.12.95.61.7,1.67.84,2.59.26,1.65.61,3.31.68,4.97.11,2.72,1.77,3.8,4.08,4.48.5-1.34-.34-2.31-.42-3.39-.11-1.38-.19-2.76-.17-4.15,0-.31.41-.77.73-.87.71-.23,1.05.43,1.04.92-.08,3.26,1.52,5.78,3.14,8.45,1.25,2.06,2.95,2.75,5.2,3.44.22-1.63-.47-2.84-.85-4.12-.71-2.4-1.35-4.82-2.01-7.23-.67-2.47-.66-4.96-.3-7.47.13-.95.13-1.92.2-3.1-.96-.32-1.83-.71-2.74-.9-3.77-.79-7.02-2.66-10.1-4.85-.65-.46-1.18-1.15-1.63-1.83-.16-.23-.02-.85.2-1.09.23-.24.82-.43,1.09-.29.86.44,1.62,1.07,2.46,1.55,2.05,1.17,4.1,2.33,6.19,3.42.6.32,1.32.44,2.01.56,1.79.31,2.35-.26,2.61-2.72-1.72-1.35-3.8-2.11-5.87-2.91-1.82-.7-3.65-1.38-5.44-2.16-2.06-.9-3.94-2.09-5.39-3.87-.34-.42-.68-.9-.82-1.41-.09-.32.09-.86.34-1.1.24-.23.79-.36,1.1-.24.5.18.98.53,1.34.93,1.82,2.04,4.13,3.25,6.63,4.23,1.68.66,3.31,1.46,4.94,2.24,1.42.68,2.84,1.09,4.58.49.47-1.68,1.52-3.23.91-5.21-2.8-.72-5.59-1.46-8.4-2.14-3.88-.94-6.58-3.54-9.01-6.46-.91-1.09-1.5-2.39.02-4.3Z"/>
      <path class="cls-1" d="m48.15,79.38c1.19.76,2.1,1.41,3.07,1.94,1.96,1.05,3.64.31,4.11-1.87.23-1.07.11-2.22.18-3.33.04-.54.09-1.09.25-1.6.06-.21.43-.47.63-.45.36.03.93.19,1,.43.28.91.44,1.87.58,2.82.17,1.24.2,2.5.45,3.73.19.91,1.03,1.39,1.88,1.36.61-.02,1.44-.33,1.74-.79.5-.77.73-1.74.92-2.66.14-.63.03-1.32.03-1.87,1.25-.64,1.86-.02,2.15.79.53,1.49.36,3.02-.14,4.51-.22.65-.55,1.34-.52,1.99.03.69.5,1.28,1.6,1.2,1.52-2.18.86-4.95,1.37-7.33,1.32-.58,1.87.18,1.87,1.04,0,2.36.05,4.77-.41,7.07-.37,1.86-.34,3.43.31,5.23,2.01,5.54.9,10.65-2.53,15.38-1.48,2.04-2.86,4.13-5.08,5.45-.58.35-1.25.56-1.9.77-.42.14-1.1-.68-.93-1.11.15-.38.27-.92.57-1.06,2.48-1.25,3.71-3.72,5.42-5.68,3.3-3.79,3.65-10.33.97-15.03-.95.51-1.86,1.14-2.86,1.51-1.15.43-2.37.71-3.59.86-.34.04-1.02-.58-1.07-.96-.05-.41.34-1.11.72-1.31,1.1-.56,2.34-.85,3.44-1.42.32-.17.57-1.01.43-1.39-.15-.41-.79-.9-1.22-.91-1.62-.05-2.92.88-4.1,1.84-2.16,1.74-4.55,1.98-7.09,1.27-.63-.18-1.27-.62-1.68-1.12-.27-.33-.28-1.02-.16-1.49.06-.23.71-.49,1.04-.43.95.18,1.85.66,2.79.75,1.84.18,3.08-.69,3.95-2.8-2.72.08-5.04-.26-7.1-1.5-.7-.42-1.31-1-1.89-1.59-.45-.45-.32-.75.8-2.25Z"/>
    </g>
    <path class="cls-1" d="m108.8,106.71c-1.44-.85-2.19-1.21-2.82-1.72-.23-.19-.33-.8-.2-1.1.13-.3.68-.68.93-.62,2.32.6,4.63,1.29,5.36,4.07,1.55.54,3,.35,4.64-.1.04-2.29-1.16-4.1-1.64-6.09-.49-2.04-.88-4.1-1.35-6.31-1.62-.61-2.04-2.97-4.44-3.04-.46.52-.97,1.16-1.53,1.74-1.36,1.39-2.73,2.78-4.16,4.11-.2.19-1.01.14-1.09-.03-.22-.43-.42-1.14-.21-1.46.45-.67,1.16-1.18,1.78-1.73.94-.85,1.89-1.68,1.98-3.34-1.3-.29-2.61-.58-4.09-.9-.74.9-1.41,1.76-2.14,2.58-.55.62-1.1,1.3-1.79,1.72-.32.2-1.05-.04-1.45-.3-.22-.14-.33-.83-.19-1.11.38-.7.93-1.3,1.55-2.13-2.53-.9-4.5.11-6.38,1.07-1.16-1.41-1.16-2.31-.04-2.64,3.51-1.03,7.05-1.74,10.77-1.26,2.84.37,2.86.25,5.39-.86,1.76,1.73,4.05,2.48,6.62,3.11.32-1.55.42-2.83.86-3.98.97-2.55.36-4.35-2.47-5.6-1.57.6-3.41,1.24-5.19,1.99-2.36.98-4.8,1.51-7.36,1.41-.52-.02-1.2-.16-1.5-.51-.24-.27-.18-1.25.05-1.38.56-.31,1.29-.4,1.96-.41,4.04-.09,6.37-.82,9.96-3.29-.42-.51-.74-1.15-1.25-1.45-2.77-1.63-5.57-2.26-8.75-.75-2.38,1.13-4.98,1.87-7.55,2.49-1.45.35-3.05.16-4.57.07-.36-.02-.69-.65-1.3-1.28,3.88-.79,7.66-.04,11.41-2.47-1.04-.11-1.5-.24-1.92-.19-6,.79-12.02.72-18.03.42-2.25-.11-4.4-.86-6.3-2.11-.44-.29-.76-.79-1.04-1.26-.11-.18-.02-.57.12-.77.14-.2.44-.34.69-.38.26-.04.58,0,.8.13,4.47,2.73,9.48,1.99,14.33,2.2.23,0,.47-.24.94-.51-.17-1.13-1.28-1.63-1.9-2.46-.44-.6-.74-1.33,0-1.81.33-.22,1.16-.13,1.47.15,1.25,1.16,2.57,2.09,4.18,2.72,3.57,1.4,3.55,1.45,8.23.74-.67-1.25-1.35-2.4-1.9-3.62-.28-.6-.41-1.32-.42-1.98,0-.26.48-.6.81-.76.18-.09.62.01.75.18.33.44.56.96.83,1.44,1.72,3.01,4.06,5.27,7.41,6.42,2.43.83,4.51,2.18,6.23,4.13.8.9,1.51,2.06,3.14,2.27,1.18-3.21,2.37-6.43,3.63-9.87-1.34-.77-2.55-1.45-3.74-2.14-2.81-1.63-5.32-3.65-7.42-6.11-.8-.94-1.43-2.07-1.97-3.19-.17-.36.04-1.19.36-1.45.47-.39,1.05-.04,1.34.52,2.58,5.08,7.09,7.73,12.21,9.56.3.11.75-.16,1.08-.25.27-1.2-.65-1.51-1.26-2.02-1.28-1.07-2.75-1.98-3.83-3.23-.97-1.13-1.59-2.59-2.23-3.97-.18-.38.12-.99.21-1.61,1.42.18,1.67,1.18,2.06,2.02,1.13,2.43,3.14,3.9,5.48,4.97.73.34,1.64.5,2.28-.61-.45-1.19-1.62-1.74-2.52-2.54-1.88-1.68-3.75-3.36-5.54-5.13-.73-.72-.99-1.68-.04-2.77,1.54.54,1.86,2.31,3.02,3.21,1.1.86,2.23,1.7,3.4,2.47,1.23.81,2.41,1.99,4.26,1.09-.32-1.7-1.54-2.72-2.47-3.89-2.01-2.53-3.75-5.23-4.9-8.27-.34-.91-.56-1.87-.71-2.83-.05-.32.21-.91.48-1.03.58-.25,1.05.08,1.25.71,1.34,4.21,3.48,7.94,6.63,11.06.49.48,1.05.89,1.78,1.5.63-.58,1.19-1.08,1.93-1.76-2.86-2.97-3.22-6.9-4.92-10.23-.17-.33-.14-.85-.02-1.22.11-.34.44-.77.75-.86.3-.08.9.14,1.03.4.44.86.71,1.8,1.07,2.71.46,1.17.88,2.36,1.44,3.48.55,1.09,1.24,2.11,1.83,3.1,1.56-.06,1.97-1.32,2.82-1.96.89-.67,1.71-1.43,2.17-1.82.55-2.1,0-3.36-.87-4.51-1.43-1.88-2.9-3.73-4.34-5.61-.16-.21-.33-.52-.3-.76.06-.38.22-.78.46-1.08.12-.15.63-.19.77-.06.9.86,1.82,1.71,2.59,2.67,1.3,1.63,2.32,3.5,4.14,4.67,2.44-3.35,2.44-3.39-1.12-12.83.72-1.02,1.6-.69,2,.1,1.07,2.11,1.99,4.3,2.85,6.51.35.89.4,1.9.62,3.05,1.45-.34,1.99-1.28,2.04-2.39.09-1.81-.05-3.63-.01-5.45,0-.33.34-.82.64-.94.29-.12.77.09,1.11.25.23.11.39.39.58.6.19.2.38.41.73.79.62-.71,1.23-1.39,1.89-2.13-1.6-2.3-1.94-4.67-1.3-7.57.73.37,1.57.52,1.73.94.44,1.13.6,2.37.86,3.54.41-.04.82.04.91-.09,2.42-3.59,4.8-7.2,7.12-10.7-.51-2.09-1.75-3.92-.07-5.87.77.26,1.52.51,2.28.76,2.13-2.96,1.17-5.83-.61-8.8.61-.38,1.11-.95,1.43-.85.6.17,1.36.61,1.58,1.13,1.67,3.97,1.68,7.85-.73,11.63-1.8,2.83-3.42,5.78-5.08,8.61.18.35.24.67.43.82.66.53,1.55,1.06,1.29,1.96-.2.72-.88,1.35-1.45,1.9-.39.37-.96.58-1.48.79-3.56,1.4-6.05,3.95-7.71,7.31-1.83,3.7-4.35,6.83-7.32,9.64-.39.37-.68.86-1.01,1.29.81,1.55,2.3,1.72,3.62,1.95,1.92.33,3.9.36,5.83.62.68.09,1.32.49,1.08,1.42-3.1,1.05-4.33.89-12.97-1.75-1.84.97-3.06,2.67-4.47,4.54.6.61,1.05,1.34,1.71,1.69,2.71,1.45,5.43,2.93,8.27,4.11,1.22.51,2.72.37,4.1.45.54.03,1.12-.25,1.64-.17.31.05.75.48.8.79.04.31-.26.86-.54.99-1.88.83-3.8.88-5.69,0-1.91-.89-3.78-1.85-5.7-2.69-2.17-.96-4.38-1.82-6.68-2.77-1.57,1.22-2.89,2.73-3.67,4.93,1.47.82,2.85.83,4.22.92,2.66.17,5.31.34,7.96.59,1.72.16,1.71.22,3.53,1.86-1.67,2.99-4.34,4.09-7.62,4.05-2.38-.02-4.76-.06-7.14-.04-1.71.01-3.32-.22-4.72-1.68-1.73,2.31-3.5,4.3-4.29,6.89-1.56,5.16-4.47,9.95-4.62,15.9,1.91-.75,2.71-2.34,4.3-3.26,0-1.48.02-2.99,0-4.5-.03-1.44.41-2.49,1.09-2.36,1.26.25,1.25,1.35,1.38,2.31.11.82.14,1.66.2,2.44,1.08.58,1.72-.04,2.08-.78.73-1.5,1.28-3.1,1.96-4.63.14-.32.74-.77.81-.72.4.29.93.68.99,1.1.15.94.05,1.92.05,3.2,3.77-1.07,7.16-2.34,8.42-6.49.12-.39.27-.98.55-1.07.43-.14,1.26-.09,1.4.16.3.55.55,1.41.32,1.91-1.11,2.41-2.19,4.88-5.02,5.9-.85.31-1.59.92-2.45,1.44.94,1.26,1.91.8,2.82.62.54-.1,1.07-.4,1.6-.39.34,0,.94.41.95.65.02.48-.17,1.1-.5,1.42-.37.35-.99.55-1.52.59-1.11.09-2.23.03-3.52.03-.63.85-1.27,1.72-1.96,2.66-3.16.45-6.33.75-9.18-.38-2.57.81-2.55,4.06-5.41,4.5.05,4.36,1.47,8.38,2.91,12.76,1.22-.47,2.13-.73,2.94-1.17,1.83-.98,3.77-1.85,5.38-3.12,1.52-1.2,2.64-2.88,3.99-4.3.96-1.02,1.96-2.01,3.02-2.93,2.24-1.93,4.61-3.59,7.56-4.39,1.87-.51,3.62-1.43,5.43-2.15.25-.1.61-.24.79-.14.45.24.93.55,1.17.97.12.21-.13.89-.4,1.03-.98.52-2.01.98-3.06,1.33-2.66.89-5.28,1.85-7.67,3.35-1.67,1.05-3.1,2.31-4.14,4.3.79.5,1.49.91,2.15,1.36,2.32,1.57,4.66,3.09,6.9,4.76.61.45.95,1.33,1.26,2.08.09.22-.31.72-.58.98-.15.14-.58.16-.77.04-.46-.29-.83-.71-1.26-1.06-1.84-1.5-3.64-3.06-5.55-4.45-1.37-1-2.96-1.54-5.04-1.4-.73,1.11-1.55,2.36-2.43,3.71.75.78,1.46,1.41,2.05,2.15.47.59.51,1.32-.09,1.89-.59.56-1.4.58-1.88.02-.94-1.09-1.95-2-3.55-2.42-1.55.56-3.23,1.17-5.21,1.89.35.87.71,1.58.92,2.32.15.52.27,1.15.11,1.63-.15.45-.64,1-1.06,1.09-.4.08-1.16-.26-1.33-.62-.55-1.12-.89-2.33-1.39-3.73-2.57-.08-5.08-.26-7.58-.19-.9.02-1.82.55-2.67.98-.99.5-1.85,1.27-2.86,1.7-.52.22-1.25-.04-1.86-.08-.26-1.84,2.21-1.5,1.92-3.22-1.52-.46-3.12-.92-4.7-1.45-.16-.05-.3-.48-.27-.7.03-.23.26-.58.45-.62.52-.1,1.08-.14,1.6-.07,1.66.25,3.3.61,4.96.82.45.06.96-.3,2.08-.69Zm18.57-41.83c3.89,2.93,8,2.56,12.13,1.96.85-.12,1.87-.19,2.31-1.44-4.58-1.44-9.3.14-13.53-1.87-.29.43-.51.76-.91,1.34Zm-2.26,23.3c1.8.06,2.8.65,3.79-.24.03-.03-.04-.24-.12-.3-1.04-.79-1.96-.25-3.68.54Z"/>
    <g>
      <path class="cls-1" d="m251.56,51.92c.6,4.37.43,8.84,1.87,13.29-1.21,1.3-1.79,2.99-2.28,4.82-.92,3.46-2.23,6.82-3.38,10.21-1.36,3.97-2.01,8.05-2,12.25,0,2.09.31,4,1.93,5.5.15.14.08.53.11.8-1.77.65-2.42.63-2.82-.38-.46-1.18-.87-2.45-.95-3.7-.15-2.28-.04-4.58-.04-6.19-1.21-1.55-2.23-2.42-2.68-3.53-.96-2.34-2.68-3.56-4.91-4.48-1.84-.76-3.58-1.82-5.27-2.89-1.1-.7-1.93-1.74-2.15-3.1-.18-1.12.04-2.01,1.4-2.13,1.81,4.25,3.07,5.28,7.96,6.34.13-.64.42-1.29.35-1.91-.18-1.56-.5-3.11-.79-4.66-.31-1.69-.67-3.38-.98-5.07-.15-.85-.14-1.73-.38-2.55-.37-1.23-.89-2.42-1.34-3.62-1.13-.68-3.07.12-3.46-2.25.68-.58,1.5-1.28,2.53-2.15-.79-5.77-2.77-11.65-.75-17.54-.83-.72-1.46-1.26-2.03-1.75.05-.42.02-.72.14-.95.56-1.14,1.07-2.32,1.78-3.35.56-.82,1.38-1.51,2.71-.38-.55.92-1.09,1.83-1.65,2.78,2.24.64,2.89.99,4.45,2.29.62.52.87,1.17.54,1.88-.38.81-1.16.67-1.87.51-.28-.06-.56-.14-1.03-.26-2.68,3.38-1.99,7.14-1.34,10.82.42.25.63.45.89.53,2.32.74,2.49,1.07.9,2.53-.6.55-.99,1.05-.86,1.78.32,1.84.25,4,1.23,5.4,1.7,2.45,1.64,5.11,2.05,7.76.13.82.32,1.62.62,3.07.59-.96,1.01-1.36,1.1-1.82.39-1.97.64-3.97,1.05-5.93.26-1.22.73-2.4,1.16-3.76-.6-.97-1.59-.4-2.51-.23-.8.15-1.44-.1-1.63-.95-.16-.72.66-1.22,1.8-1.13.28.02.55.13.83.16.13.01.27-.1.67-.26-.06-.43,0-.98-.21-1.42-.83-1.83-1.76-3.61-2.62-5.43-1.23-2.6-1.07-5.31-.59-8.03.07-.41.22-.92.51-1.16.39-.32.95-.55,1.45-.57.2,0,.5.6.63.97.08.24-.06.56-.13.84-.22.79.05,1.23.74,1.75,1.24.95,1.22,1.37.45,2.38q-1.46,1.91.02,4.36c.78-.59,1.51-1.23,2.33-1.71.27-.16.91-.05,1.14.18.24.24.36.85.23,1.16-.33.78-.85,1.48-1.27,2.23-.8,1.41-.7,2.34.39,3.45.69.7,1.52,1.29,2.1,2.07,1.08,1.46,1.15,2.31-.01,3.47-2.65,2.64-4.15,5.75-4.71,9.42-.17,1.11-.57,2.27-1.16,3.22-.65,1.03-1.17,2-.77,3.2.71,2.12.47,4.65,2.62,6.15.09.06.28-.02.66-.06.97-2.98,1.81-6.13,3.01-9.13,1.45-3.65,2.15-7.42,2.63-11.28.72-5.76-.59-11.1-3.12-16.22-.7-1.41-1.35-2.84-1.92-4.3-.11-.28.26-1.08.41-1.08.5,0,1.29.09,1.48.42,1.2,2.11,2.26,4.3,3.38,6.46.52,1,1.04,2,1.57,3,0,0-.12-.11-.12-.11Z"/>
      <path class="cls-1" d="m200.1,73.55c-.6,5.01-1.38,9.41-1.57,13.83-.13,3.11.44,6.28.87,9.39.45,3.26,1.1,6.5,1.64,9.75.09.56.2,1.16.09,1.7-.17.9-.84,1.02-1.73.75-1.99-7.59-2.54-15.42-3.06-23.2-1.57-.78-2.99-1.42-4.34-2.19-.61-.35-1.12-1.03-.66-1.81.42-.72,1.1-.74,1.85-.38,3.71,1.75,4.09,1.55,4.24-2.39.15-4.18.74-8.29,1.84-12.32.37-1.37.88-2.73.47-4.12-.7-.78-1.4-.22-2.06-.17-.71.05-1.41.28-2.12.35-1.99.17-4,.45-5.99.4-1.74-.04-3.42-.62-4.51-2.14-.28-.39-.46-1.34-.25-1.5.48-.38,1.56-.79,1.79-.57,3.18,3.17,6.8,2.32,10.47,1.35.81-.22,1.64-.38,2.72-.62,0-2.36-.1-4.79.03-7.2.12-2.34.18-4.73,1.14-7.86.7,1.5,1.19,2.1,1.23,2.73.08,1.27-.05,2.57-.15,3.85-.14,1.86-.52,3.72-.47,5.57.14,4.58.47,9.16-1.19,13.5.98.64,1.11-.11,1.38-.49,3.1-4.48,6.22-8.94,9.26-13.46.59-.87,1.18-1.54,2.19-1.91.93-.35,1.79-.9,2.69-1.37.97-1.02.58-3.29,2.83-3.18.81.97.57,2.05-.01,2.82-1.26,1.64-2.16,3.79-4.78,3.88-.56.02-1.27.66-1.63,1.21-2.83,4.31-5.61,8.66-8.35,13.03-.95,1.52-1.92,2.87-3.87,2.79Z"/>
      <path class="cls-1" d="m221.47,48.59q-2.29.44-3.38-1.91c-.37-.03-.78-.08-1.2-.1-.42-.02-.84,0-1.35,0-2.07,3.19-2.87,7.24-6.24,9.46-1.53-.83-2.92-1.49-4.2-2.32-.38-.24-.57-.92-.62-1.42-.02-.19.6-.47.95-.66.25-.13.54-.17.85-.27v-4.19c1.42-.82,2.72-1.65,4.37-1.03.45,1.81-2.24,1.99-1.72,3.71.15.51.35,1,.54,1.56,2.07-1.32,3.02-2.74,3.51-5.09.42-2.01.26-2.46-1.84-5.32.47-1.26,1.72-1.31,2.76-1.6.85-.24,1.68.45,1.75,1.42.06.98.01,1.97.01,2.96,1.42.68,2.21-.27,2.95-1.07.97-1.04,1.76-2.24,2.76-3.25.3-.3,1.13-.41,1.52-.21.38.19.66.88.69,1.36.04.69-.19,1.39-.33,2.29-1.12.26-2.18.5-3.52.81.14.83.17,1.62.41,2.34.32.92.81,1.77,1.23,2.66l.1-.12Z"/>
      <path class="cls-1" d="m227.95,83.46c3.82,3.13,5.94,7.14,6.45,12.13.43,4.16,1.05,8.27.03,12.42-.1.41-.12.85-.14,1.28-.05,1.47-.03,2.89,1.64,3.62.19.08.3.95.14,1.09-.39.32-1.04.69-1.44.57-1.19-.37-1.88-1.38-1.96-2.59-.12-1.71-.28-3.48-.02-5.16.66-4.21-.05-8.32-.64-12.43-.4-2.76-1.37-5.27-3.67-7.1-.65-.52-1.22-1.26-1.56-2.02-.41-.93-.04-1.67,1.15-1.82Z"/>
      <path class="cls-1" d="m213.56,22.03c1.01-.48,2.02-.96,3.39-1.61.72.44,1.74.93,2.58,1.63.29.25.37,1.13.15,1.5-.2.36-.94.64-1.39.57-.66-.1-1.26-.54-2.04-.9-2.33,2.45-2.58,5.35-2.27,8.41.11,1.13.3,2.26.39,3.39.01.2-.33.61-.48.6-.37-.02-.97-.15-1.06-.39-1.15-3.18-1.22-6.45-.5-9.72.27-1.24.89-2.4,1.34-3.59l-.11.11Z"/>
      <path class="cls-1" d="m257.18,59.37c-1.05-.33-2.07-.66-3.13-.99.23-.45.32-.84.47-.86,2.37-.37,4.74-.7,6.99-1.02,1.11,1.91-2.2,1.67-1.03,3.4,1.22.44,2.64.9,4,1.49.24.1.42.77.33,1.09-.09.31-.57.72-.88.72-1.65.02-3.22-1.01-4.97-.32-.23.09-.97-.6-1.18-1.07-.33-.75-.42-1.61-.61-2.43Z"/>
      <path class="cls-1" d="m204.45,36.85c.24-1.87.5-4.13.85-6.37.11-.68.41-1.36.72-1.99.32-.65.87-1.28,1.64-.87.29.16.41.99.32,1.46-.27,1.39-.76,2.74-1.03,4.13-.3,1.52-.59,3.05.31,4.54.4.65.18,1.41-.62,1.74-.89.37-2.08-.41-2.18-1.4-.03-.28,0-.57,0-1.24Z"/>
      <path class="cls-1" d="m212.28,106.04c-1.15.66-1.83.45-2.09-.34-.87-2.69-.77-5.37.54-7.9.18-.35.94-.4,1.44-.6.14.37.48.8.4,1.11-.73,2.51-1.18,5.02-.28,7.73Z"/>
      <path class="cls-1" d="m218.34,96.75c.36.46.51.57.52.68.06,2.77.38,5.37,3.36,6.7.19.08.14,1.01-.04,1.45-.09.23-.77.44-1.07.33-2.01-.73-3.19-2.33-3.81-4.26-.53-1.64-.44-3.31,1.03-4.91Z"/>
      <path class="cls-1" d="m225.43,41.89c1.83-.25,3.28-.51,4.6,1.05-.97.64-1.64,1.08-2.48,1.63.11.46.21.99.35,1.5.23.87-.19,1.52-.97,1.44-.56-.06-1.14-.67-1.54-1.18-.19-.24.04-.79.04-1.2.01-.95,0-1.91,0-3.24Z"/>
      <path class="cls-1" d="m257.8,47.02c-.23,2.18-1.36,3.53-3.53,4.1-.91.24-1.63,1.13-2.71.8,0,0,.12.11.12.11.02-.55-.18-1.3.1-1.6,1.14-1.2,2.35-2.39,3.72-3.31.55-.37,1.59,0,2.41.02,0,0-.11-.13-.11-.13Z"/>
      <path class="cls-1" d="m267.3,61.32c.08-1.79.24-3.27,1.99-3.92.33.16.68.22.81.41.65,1,2.12,1.89,1.07,3.28-.9,1.2-2.25.89-3.87.22Z"/>
      <path class="cls-1" d="m230.59,61.52c-1.08,0-1.91.14-2.65-.04-.87-.21-1.37-.93-1.36-1.89.01-1.28.71-2.25,1.8-2.52,1.02-.25,2.09.35,2.19,1.35.09.94.02,1.89.02,3.09Z"/>
      <path class="cls-1" d="m201.31,37c-.11.48-.1.8-.25,1-.92,1.18-2.13,1.86-3.65,1.74-.33-.03-.83-.41-.91-.73-.13-.49-.15-1.4.09-1.52,1.1-.57,2.29-1.02,3.49-1.3.34-.08.85.55,1.22.8Z"/>
      <path class="cls-1" d="m257.91,47.15c-.57-1.98-1.67-4.01.45-5.79,2.92,3.21,2.82,4.2-.57,5.65,0,0,.12.14.12.14Z"/>
      <path class="cls-1" d="m202.14,29.65q-3.6,2.31-5.12.97c.34-1.43,1.68-1.84,2.73-2.48.37-.22,1.16-.08,1.57.18.4.25.56.88.83,1.34Z"/>
      <path class="cls-1" d="m237.9,31.79c1.19-1.24,2.07-1.35,2.76-.25.44.7.79,1.52.91,2.32.05.35-.53.92-.95,1.17-.26.15-.97.03-1.12-.2-.59-.93-1.04-1.95-1.6-3.05Z"/>
      <path class="cls-1" d="m229.1,53.82c-.59-.08-1.18-.06-1.68-.26-.32-.12-.7-.56-.71-.87-.01-.33.29-.84.59-1,.74-.37,1.54-.64,2.34-.82.81-.19,1.56.48,1.74,1.4.16.86-.46,1.5-1.49,1.54-.28.01-.56,0-.79,0Z"/>
      <path class="cls-1" d="m252.24,41.34c-2.42.57-3.75.38-3.55-.48.38-1.61,1.92-1.33,3.05-1.68.26-.08.61-.16.82-.05.33.16.64.45.82.76.08.15-.1.54-.27.72-.28.3-.66.52-.99.77l.12-.05Z"/>
      <path class="cls-1" d="m223.79,34.87c.22,2.14-.94,2.43-2,2.56-1.35.17-2.44-.29-2.68-2.13,1.48-.63,2.98.11,4.68-.43Z"/>
      <path class="cls-1" d="m219.11,31.76c-.22.21-.47.65-.79.7-1.25.21-2.53-1-2.29-2.2.06-.29.57-.68.87-.69,1.11,0,2.07.96,2.21,2.18Z"/>
      <path class="cls-1" d="m252.12,41.39c.79,1.01,1.43,2.09,1.17,3.43-.07.34-.41.77-.73.88-.33.11-.85,0-1.15-.22-.75-.53-1.08-1.39-.71-2.2.32-.72.99-1.28,1.52-1.92.02,0-.1.04-.1.04Z"/>
      <path class="cls-1" d="m218.83,19.73c-.59-.33-1.33-.66-1.95-1.15-.22-.17-.26-.85-.1-1.12.16-.28.8-.57,1.02-.46.72.36,1.36.88,1.98,1.4.12.1.06.56-.06.75-.13.21-.44.3-.89.58Z"/>
      <path class="cls-1" d="m266.46,52.01c.54.29,1.18.54,1.67.96.18.16.15.88-.05,1.1-.74.81-2.18.8-3.02,0-.45-.44-.39-1.04.13-1.44.31-.24.73-.36,1.27-.61Z"/>
      <path class="cls-1" d="m213.67,21.91c-1.08-.5-1.96-1.21-1.92-2.5.01-.43.44-1.13.79-1.21.4-.09,1.09.26,1.36.63.81,1.1-.32,2.1-.34,3.19,0,0,.11-.11.11-.11Z"/>
      <path class="cls-1" d="m191.05,45.49c.69.18,1.46.38,2.55.67-.51.84-.76,1.47-1.21,1.92-.2.2-.86.19-1.16.02-1.09-.64-1.12-1.51-.18-2.6Z"/>
      <path class="cls-1" d="m194.26,34.3c.02.49.25,1.13.03,1.46-.37.55-1.01.94-1.59,1.31-.12.08-.53-.17-.7-.36-.17-.19-.34-.56-.26-.74.44-.94,1.07-1.69,2.53-1.68Z"/>
      <path class="cls-1" d="m207.68,42.49c.18.28.64.68.66,1.11.03.76-.47,1.28-1.29,1.37-.65.07-1.1-.23-1.21-.87-.14-.81.62-1.58,1.84-1.6Z"/>
      <path class="cls-1" d="m221.36,48.71c.89-.52,1.78-.83,2.74-.1.51.39.85.89.45,1.4-.29.36-.95.73-1.35.65-1.03-.21-1.74-.89-1.73-2.07,0,0-.11.12-.11.12Z"/>
      <path class="cls-1" d="m195.03,51.54c.64-.62,1.03-1.23,1.56-1.41.36-.13,1.02.25,1.38.57.21.18.26.9.08,1.08-.34.34-.91.65-1.36.63-.46-.02-.91-.45-1.66-.86Z"/>
      <path class="cls-1" d="m230.74,45.45c.48.88.93,1.41,1.05,2,.14.69-.48,1.05-1.07.97-.77-.1-1.36-.64-1.18-1.46.1-.45.62-.8,1.21-1.51Z"/>
      <path class="cls-1" d="m246.85,35.44c-.43.55-.66,1.08-1.05,1.27-.5.25-1.3-.66-1.12-1.38.11-.41.65-.71.99-1.06.34.34.69.68,1.18,1.17Z"/>
      <path class="cls-1" d="m197.74,44.92c-.73.38-1.21.83-1.55.74-.36-.08-.88-.77-.8-1.05.1-.39.69-.86,1.09-.88.32-.02.67.59,1.26,1.19Z"/>
      <path class="cls-1" d="m193.82,29.38c.39-.31.66-.69.96-.71.25-.02.7.37.74.63.09.57-.2,1.08-.89.92-.28-.07-.49-.48-.81-.83Z"/>
    </g>
  </g>
</svg>