<?xml version="1.0" encoding="UTF-8"?>
<svg id="Layer_2" data-name="Layer 2" xmlns="http://www.w3.org/2000/svg" xmlns:xlink="http://www.w3.org/1999/xlink" viewBox="0 0 418.8 756.68">
  <defs>
    <style>
      .cls-1 {
        fill: none;
      }

      .cls-2 {
        clip-path: url(#clippath);
      }

      .cls-3 {
        fill: #e9e9e9;
      }

      .cls-4 {
        fill: #b2dcda;
      }

      .cls-5 {
        fill: #3f7078;
      }
    </style>
    <clipPath id="clippath">
      <rect class="cls-1" width="418.8" height="756.68"/>
    </clipPath>
  </defs>
  <g id="contact-graphic">
    <g class="cls-2">
      <path class="cls-3" d="m182.8,602.51c4.11-20.65-3.62-42.3-16.35-59.07-12.73-16.77-30.04-29.42-47.49-41.21-17.42-11.77-36.05-23.83-45.5-42.62-9.45-18.78-4.87-46.41,14.73-54,13.72-5.31,30.02,1.32,39.16,12.84,9.14,11.52,12.19,26.83,12.25,41.53.03,6.53-.26,13.75,3.9,18.78,7.83,9.47,23.82,3.06,31.29-6.7,10.41-13.6,13.47-32.51,7.86-48.7-4.29-12.39-13.06-22.67-22.1-32.16-20.14-21.12-42.66-39.98-66.99-56.09-13.4-8.87-27.61-17.15-37.83-29.55-10.22-12.4-15.68-30.3-8.73-44.79,6.95-14.49,29.25-20.6,39.82-8.49,6.24,7.16,6.64,17.48,7.99,26.88,2.92,20.24,11.84,39.58,25.34,54.93,4.06-3.91,5.97-9.51,9.07-14.22,3.1-4.71,8.61-8.87,14.01-7.24,7.16,2.16,8.04,11.72,8.27,19.19.32,10.17,2.03,20.3,5.07,30.01,1.38,4.4,3.74,9.35,8.27,10.23,2.9.56,5.82-.79,8.34-2.34,22.83-14.07,29.33-46.22,20.48-71.53-8.85-25.31-29.62-44.63-51.69-59.86-25.14-17.35-52.95-30.82-82.14-39.78-13.47-4.14-29.35-9.27-33.49-22.73-3.77-12.28,5.97-26.03,18.47-28.97,12.5-2.95,25.91,3.24,34.2,13.05,7.13,8.43,11.16,19.31,19.13,26.94,7.97,7.64,22.88,10.19,29,1,6.42-9.65-1.94-21.83-7.77-31.84-12.68-21.79-13.52-48.34-12.38-73.52.93-20.34,3.28-41.67,14.91-58.39,11.63-16.72,35.38-26.65,53.12-16.64,2.26,1.28,4.42,2.89,5.79,5.1,1.3,2.09,1.8,4.58,2.03,7.03,2.37,24.73-19.21,44.28-30.88,66.21-8.26,15.51-11.73,33.53-9.83,51,.54,4.93,1.59,10.04,4.73,13.88,7.74,9.45,23.2,6.18,33.27-.72,10.08-6.9,18.86-16.77,30.84-19.13,5.45-1.07,12.08.14,14.68,5.05,1.18,2.21,1.33,4.82,1.26,7.33-.31,12.03-5.14,23.88-13.33,32.7-7.32,7.88-17.97,15.06-17.73,25.81.11,4.92,2.65,9.43,5.33,13.55,8.34,12.81,18.81,24.22,30.86,33.61,3.36,2.62,7.07,5.41,8.15,9.54,2.03,7.74-5.92,13.96-10.99,20.15-12.11,14.79-9.06,36.46-4.58,55.05,8.75,36.38,20.54,72.65,20.38,110.07-.16,38.53-12.99,75.74-25.66,112.12-10.31,29.61-21.94,61.04-47.21,79.61-.22-11.62,3.45-23.29,10.3-32.68"/>
      <g>
        <path class="cls-5" d="m424.37,324.32c-10.14-14.03-20.79-30.05-18.21-47.16,1.12-7.44,4.72-14.33,5.93-21.76,2.65-16.37-6.63-32.31-17.47-44.86,16.68,7.23,26.58,27.36,22.13,44.99-1.98,7.82-3.47,14.84-3.95,22.89-.92,15.31,8.02,28.68,11.58,45.9"/>
        <path class="cls-5" d="m421.3,324.02c-10.94-7.84-19.13-19.46-22.84-32.4-3.71-12.94-2.93-27.12,2.19-39.58-15.79,17.34-8.23,41.92-6.64,47.03,1.91,6.14,3.08,10.03,6.82,14.14-13.6.62-19.15-7.31-22.07-11.42-2.08-2.92-4.71-12.81-6.94-17.95-1.63,11.3,1.12,23.73,9.38,31.61,7.33,7,30.23,6.3,40.11,8.56Z"/>
        <path class="cls-5" d="m323.47,249.51c3.79-6.3,11.39-10.09,18.7-9.33,8.44.87,15.9,7.17,24.38,6.72,1.56-.08,3.28-.51,4.14-1.81,1.15-1.73.13-4.23-1.6-5.39s-3.91-1.34-5.98-1.49c-6.54-.46-13.08-.92-19.61-1.37-.8-.06-1.77-.23-2.03-.99-.09-.26-.08-.55-.04-.83.52-3.75,4.77-5.96,8.56-5.84,3.78.11,7.3,1.84,10.9,3,1.17.37,2.48.68,3.58.13,1.95-.98,1.7-4.13.02-5.52-1.69-1.39-4.08-1.45-6.25-1.25-2.17.2-4.43.58-6.49-.14.1-3.9,4.1-6.85,8-6.98,3.9-.14,7.56,1.86,10.67,4.21s5.92,5.14,9.33,7.03c1.14.63,2.37,1.17,3.68,1.26,3.01.22,5.87-2.18,6.56-5.12s-.57-6.14-2.83-8.15c-5.84-5.19-15.2-2.09-22.55-4.72,2.24-6.16,7.94-10.92,14.4-12.02,3.79-.65,7.67-.12,11.51.04,11,.47,22.85-2.61,29.87-11.09.76-.92,1.49-2.16.98-3.24-.36-.76-1.22-1.14-2.03-1.38-5.25-1.58-10.94-.18-15.98,1.99-5.03,2.17-9.73,5.11-14.93,6.85-.96.32-2.05.59-2.96.16-1.9-.9-1.44-3.81-.16-5.48,2.64-3.44,7.05-4.88,10.74-7.15,2.96-1.83,5.54-4.27,7.51-7.13,1.02-1.47,1.9-3.18,1.73-4.96-.2-2.08-1.84-3.79-3.72-4.72-5.39-2.67-12.49.54-15.03,5.99-1.37,2.93-1.62,6.24-2.42,9.38-.8,3.13-2.41,6.37-5.37,7.68-6.07,2.69-12.8-4.25-19.27-2.77.75,2.57,2.2,4.94,4.16,6.76,1.73,1.61,3.94,2.95,4.7,5.19.9,2.64-.74,5.66-3.17,7.04-2.43,1.38-5.4,1.42-8.15.94-8.02-1.38-14.75-6.6-22-10.29-.54-.28-1.13-.55-1.73-.45-1.21.2-1.64,1.71-1.66,2.93-.08,6.05,4.36,11.86,10.21,13.39,2.5.65,5.64.94,6.65,3.32,1.02,2.42-1.09,4.95-3.13,6.6-2.12,1.73-4.41,3.32-6.99,4.21-4.45,1.53-9.33.85-13.98,1.59-9.8,1.55-17.52,9.19-23.12,17.38-1.22,1.78-2.42,3.92-1.78,5.98.55,1.78,2.31,2.87,3.93,3.8,3.33,1.91,7.26,3.87,10.83,2.45,3.72-1.48,5.58-6.19,9.47-7.16"/>
        <path class="cls-5" d="m319.53,116.44c2.62-.3,4.99-2.22,5.82-4.72.97-2.89.02-6.26,1.43-8.96.26-.5.65-1,1.21-1.08.74-.12,1.4.59,1.52,1.32s-.14,1.48-.4,2.18c-.82,2.2-1.64,4.41-2.46,6.61-.1.27-.19.61.02.81.07.07.17.11.26.14,1.3.39,2.65-.68,3.18-1.93.53-1.25.48-2.66.64-4.01.05-.44.15-.91.49-1.19.61-.49,1.6.06,1.8.81.2.76-.13,1.55-.52,2.23-.39.68-.85,1.36-.92,2.14,1.29.54,2.84-.32,3.47-1.58s.52-2.74.21-4.11-.8-2.7-.91-4.09c-.04-.47-.03-.95.13-1.39.38-1.02,1.58-1.59,2.65-1.38s1.92,1.1,2.24,2.13c.83,2.68-1.57,5.27-1.81,8.07,2.34.18,4.74-.97,6.06-2.92.77-1.14,1.18-2.49,1.69-3.76,1.48-3.66,4.25-7.07,8.06-8.11.41-.11.93-.17,1.2.16.2.23.19.57.15.87-.26,1.95-1.57,3.6-3.02,4.92-1.46,1.32-3.12,2.42-4.45,3.86-.25.27-.5.58-.49.94.01.75,1.03,1.03,1.76.86,1.51-.35,2.64-1.58,3.93-2.45,1.04-.7,2.22-1.17,3.44-1.39.63-.11,1.32-.15,1.88.17.65.37.96,1.17.99,1.92.07,2.15-2.03,4-4.19,4.02-1.16.01-2.28-.4-3.42-.6-1.14-.2-2.44-.16-3.31.61-1.78,1.58-.51,4.81-1.96,6.71-.73-.63-1.29-1.45-1.59-2.36-.27-.8-.38-1.73-1-2.31-.73-.68-1.96-.6-2.77-.01s-1.27,1.55-1.52,2.52c-.74,2.82-.03,5.8.1,8.71,0,.22.01.45-.11.63-.25.36-.8.28-1.2.11-1.99-.87-3.23-3.18-2.86-5.32.16-.91.53-1.98-.1-2.66-.64-.69-1.78-.38-2.62.04-.88.44-1.74.95-2.41,1.66-1.16,1.23-3.25,2.51-4.75,3.28-4.57,2.31-12.51,3.49-11.52,2.54,1.04-1,5.35-3.47,6.24-4.6"/>
        <path class="cls-5" d="m286.41,201.16c1.26-3.91.25-8.27-1.83-11.81s-5.16-6.37-8.27-9.05c-3.11-2.67-6.44-5.43-7.85-9.28-1.41-3.85.1-9.1,4.07-10.13,2.78-.72,5.78.93,7.29,3.37,1.51,2.44,1.76,5.47,1.44,8.32-.14,1.27-.36,2.66.33,3.73,1.3,2.01,4.54,1.13,6.21-.59,2.32-2.4,3.34-5.99,2.62-9.25-.55-2.5-2.02-4.68-3.56-6.73-3.42-4.54-7.36-8.7-11.71-12.37-2.39-2.02-4.96-3.94-6.66-6.58-1.7-2.63-2.35-6.22-.68-8.87,1.67-2.65,6.13-3.33,7.9-.75,1.05,1.53.89,3.54.94,5.39.11,3.99,1.4,7.93,3.67,11.21.88-.67,1.37-1.71,2.08-2.55s1.87-1.52,2.88-1.09c1.34.58,1.29,2.45,1.17,3.9-.17,1.98-.06,3.98.31,5.93.17.88.51,1.9,1.37,2.17.55.17,1.14-.02,1.67-.27,4.74-2.21,6.72-8.29,5.58-13.39-1.14-5.1-4.73-9.31-8.66-12.76-4.48-3.93-9.56-7.16-15.01-9.56-2.51-1.1-5.48-2.46-5.97-5.16-.45-2.46,1.74-4.91,4.23-5.19,2.49-.29,4.94,1.21,6.33,3.3,1.19,1.79,1.73,3.99,3.1,5.65s4.2,2.49,5.59.85c1.46-1.72.12-4.27-.79-6.34-1.97-4.5-1.53-9.67-.74-14.52.64-3.92,1.57-8,4.2-10.97,2.63-2.98,7.45-4.36,10.66-2.03.41.3.79.66,1.01,1.12.2.43.24.93.24,1.41-.1,4.84-4.72,8.14-7.47,12.13-1.95,2.82-3.03,6.23-3.05,9.66,0,.97.08,1.98.6,2.8,1.29,2,4.35,1.72,6.46.61,2.11-1.11,4.03-2.82,6.4-3.01,1.08-.08,2.34.3,2.73,1.31.18.46.15.96.08,1.45-.33,2.32-1.53,4.51-3.32,6.03-1.6,1.36-3.82,2.51-4.01,4.6-.09.96.3,1.89.73,2.74,1.33,2.67,3.1,5.11,5.22,7.21.59.58,1.25,1.21,1.36,2.03.22,1.54-1.46,2.57-2.58,3.65-2.68,2.59-2.58,6.86-2.13,10.56.87,7.24,2.34,14.53,1.47,21.78-.9,7.46-4.22,14.38-7.5,21.14-2.66,5.5-5.63,11.33-10.94,14.35.22-2.26,1.19-4.43,2.73-6.1"/>
        <path class="cls-5" d="m314.52,119.06c2.82-2.19,4.23-5.83,4.45-9.39.23-3.56-.59-7.11-1.52-10.55-.93-3.44-1.98-7.05-1.11-10.51.87-3.46,4.52-6.49,7.88-5.3,2.35.84,3.71,3.5,3.6,5.99-.1,2.49-1.41,4.79-3.03,6.69-.72.84-1.56,1.73-1.58,2.84-.05,2.08,2.72,3.03,4.76,2.61,2.84-.59,5.33-2.68,6.41-5.38.82-2.07.84-4.36.73-6.58-.24-4.94-1.04-9.86-2.38-14.62-.74-2.62-1.64-5.26-1.58-7.99s1.35-5.63,3.85-6.71c2.5-1.09,6.04.6,6.05,3.33,0,1.61-1.09,2.98-1.95,4.34-1.87,2.92-2.87,6.39-2.84,9.86.96-.05,1.82-.56,2.74-.82s2.09-.18,2.6.62c.68,1.07-.27,2.39-1.07,3.38-1.09,1.34-1.99,2.83-2.68,4.41-.31.72-.56,1.61-.07,2.23.31.39.83.54,1.33.62,4.49.73,8.89-2.68,10.56-6.91,1.67-4.23,1.15-9.01,0-13.41-1.3-5.01-3.38-9.82-6.13-14.21-1.27-2.02-2.74-4.44-1.78-6.63.88-1.99,3.65-2.68,5.58-1.67,1.93,1.01,2.97,3.29,2.94,5.47-.02,1.87-.71,3.71-.53,5.58.18,1.86,1.81,3.84,3.61,3.34,1.89-.53,2.17-3.02,2.53-4.95.79-4.2,3.62-7.7,6.56-10.81,2.37-2.51,5.04-4.98,8.39-5.84,3.35-.86,7.49.5,8.66,3.75.15.41.25.86.18,1.3-.07.41-.28.79-.52,1.13-2.44,3.44-7.37,3.55-11.3,5.07-2.78,1.08-5.22,3-6.92,5.45-.48.69-.91,1.47-.93,2.31-.05,2.07,2.29,3.36,4.35,3.6s4.28-.06,6.08.96c.82.47,1.53,1.36,1.32,2.28-.09.41-.36.77-.65,1.08-1.37,1.51-3.31,2.49-5.33,2.72-1.81.2-3.98-.06-5.14,1.35-.53.64-.71,1.5-.82,2.33-.35,2.57-.27,5.19.23,7.73.14.71.31,1.48-.01,2.13-.6,1.22-2.31,1.13-3.64,1.37-3.19.56-5.2,3.67-6.69,6.55-2.91,5.64-5.42,11.6-9.59,16.38-4.29,4.93-10.06,8.28-15.72,11.54-4.61,2.66-9.58,5.4-14.88,4.98,1.26-1.52,3.02-2.6,4.94-3.05"/>
        <path class="cls-5" d="m268.27,219.15c-14.17-19.61-29.06-41.98-25.44-65.9,1.57-10.4,6.6-20.02,8.28-30.41,3.71-22.87-9.27-45.15-24.42-62.68,23.31,10.1,37.15,38.23,30.92,62.86-2.76,10.92-4.84,20.74-5.52,31.99-1.29,21.39,11.21,40.08,16.18,64.14"/>
        <path class="cls-5" d="m279.6,275.37c-7.42-15.73-6.72-35.03,1.82-50.18,5.7-10.11,14.43-18.12,21.69-27.18,7.26-9.06,13.3-20.19,11.99-31.73,8.14,10.48,7.18,20.82,2.84,28.84-12.7,23.48-36.23,40.84-38.34,80.25Z"/>
        <path class="cls-5" d="m329.11,179.41c12.2-14.96,29.54-25.64,48.38-29.81,18.85-4.17,39.08-1.79,56.44,6.64-23.41-24.13-59.25-15.5-66.71-13.68-8.96,2.19-14.62,3.52-20.84,8.51.32-19.52,12.16-26.75,18.3-30.58,4.37-2.72,18.75-5.61,26.3-8.34-16.03-3.33-34.05-.5-46.07,10.62-10.67,9.87-11.7,42.7-15.8,56.64Z"/>
        <path class="cls-5" d="m405.67,32.28c-1.57-.77-3.09-1.51-4.67-2.29.47-.64.7-1.24.94-1.24,3.79-.03,7.59.01,11.2.04,1.29,3.25-3.84,2.09-2.42,5.08,1.81.98,3.92,2.03,5.92,3.27.35.22.48,1.31.26,1.79-.21.47-1.06.99-1.54.92-2.59-.36-4.81-2.34-7.71-1.67-.38.09-1.38-1.17-1.59-1.95-.35-1.25-.28-2.62-.39-3.96Z"/>
        <path class="cls-5" d="m416.96,61.29c-.29.72-.34,1.24-.62,1.51-1.72,1.62-3.77,2.42-6.12,1.88-.52-.12-1.2-.84-1.25-1.35-.09-.8.09-2.23.5-2.37,1.86-.63,3.82-1.06,5.78-1.21.56-.04,1.21,1.06,1.72,1.55Z"/>
        <path class="cls-5" d="m399.94,3.38c-3.27.13-6.8,1.05-8.73-2.87,6.05-3.28,7.53-2.75,8.47,3.01.01,0,.26-.13.26-.13Z"/>
        <path class="cls-5" d="m419.98,49.98q-6.18,2.78-8.25.31c.87-2.16,3.06-2.49,4.85-3.25.63-.27,1.83.14,2.42.65.57.49.68,1.51.98,2.29Z"/>
        <path class="cls-5" d="m386.69,14.71c2.15-1.66,3.56-1.63,4.38.26.52,1.2.89,2.56.88,3.85,0,.57-1.05,1.31-1.77,1.61-.44.18-1.53-.18-1.71-.57-.7-1.59-1.17-3.29-1.79-5.15Z"/>
        <path class="cls-5" d="m423.04,101.41c-.4.27-.89.9-1.4.91-2.01.04-3.72-2.17-3.07-3.98.16-.44,1.05-.94,1.53-.87,1.74.25,3.02,1.99,2.95,3.94Z"/>
        <path class="cls-5" d="m395.57,29.34c.77.58,1.72,1.12,2.39,1.9.25.29.03,1.41-.34,1.71-1.34,1.09-3.61.74-4.73-.72-.6-.79-.36-1.72.55-2.23.55-.31,1.23-.39,2.13-.65Z"/>
        <path class="cls-5" d="m421.17,76.82c.77.58,1.72,1.12,2.39,1.9.25.29.03,1.41-.34,1.71-1.34,1.09-3.61.74-4.73-.72-.6-.79-.36-1.72.55-2.23.55-.31,1.23-.39,2.13-.65Z"/>
        <path class="cls-5" d="m398.89,72.18c1.04.45,2.19.94,3.83,1.64-.99,1.2-1.54,2.13-2.34,2.72-.37.27-1.4.1-1.83-.24-1.56-1.26-1.39-2.63.33-4.12Z"/>
        <path class="cls-5" d="m406.54,55.41c-.08.78.13,1.83-.3,2.3-.71.78-1.81,1.23-2.81,1.68-.2.09-.8-.39-1.02-.73-.22-.33-.4-.96-.23-1.22.91-1.37,2.08-2.4,4.35-2.03Z"/>
        <path class="cls-5" d="m403.71,82.6c1.15-.81,1.9-1.68,2.78-1.85.6-.11,1.53.63,2.03,1.22.28.34.19,1.47-.13,1.7-.62.45-1.57.8-2.28.66-.72-.14-1.32-.92-2.39-1.74Z"/>
        <path class="cls-5" d="m409.5,72.87c-1.23.42-2.08,1.01-2.61.8-.54-.22-1.19-1.41-1.01-1.83.25-.58,1.28-1.19,1.91-1.13.5.05.9,1.09,1.7,2.16Z"/>
        <path class="cls-5" d="m407,47.6c.68-.39,1.2-.93,1.66-.89.39.03,1.02.74,1.02,1.15,0,.92-.57,1.65-1.61,1.23-.43-.17-.65-.87-1.08-1.5Z"/>
        <path class="cls-5" d="m381.18,3.12c.68-.39,1.2-.93,1.66-.89.39.03,1.02.74,1.02,1.15,0,.92-.57,1.65-1.61,1.23-.43-.17-.65-.87-1.08-1.5Z"/>
        <path class="cls-5" d="m420.11,14.33c-1.68-2.29-2.94-4.28-1.42-6.81.57-.13,1.06-.41,1.41-.29,1.79.6,4.49.23,4.57,3,.07,2.37-1.9,3.32-4.56,4.11Z"/>
        <path class="cls-5" d="m409.84,3.65c.95-.17,1.99-.5,3.02-.46.38.02,1.05.94,1.02,1.41-.11,1.73-1.91,3.15-3.74,2.98-.99-.09-1.51-.91-1.27-1.92.15-.61.55-1.16.97-2.01Z"/>
        <path class="cls-5" d="m402.22,20.39c.18-1.4.06-2.54.53-3.3.32-.52,1.5-.7,2.27-.66.44.03,1.21.86,1.16,1.25-.09.76-.48,1.7-1.07,2.13-.59.44-1.57.34-2.9.57Z"/>
        <path class="cls-5" d="m399.01,9.53c-.53,1.19-.67,2.21-1.18,2.46-.52.25-1.84-.08-2.03-.5-.25-.58,0-1.75.47-2.17.38-.33,1.41.07,2.74.22Z"/>
      </g>
      <g>
        <g>
          <path class="cls-4" d="m260.37,549.05c1.66,2.36,4.16,2.34,6.67,2.45,3.34.15,6.54.74,9.3,3.99-5.14,2.3-10.14-.91-14.96.74-.19,2.93,2.33,3.71,3.65,5.25,2.04,2.37,2.64,4.71.35,7.88-.71-1.21-1.19-2.04-1.68-2.88-2.91-.52-5.39.65-7.85,1.94-3.26-3.99-3.23-3.93-6.89-2.17-1.15.55-2.56,1.15-3.73.95-3.33-.56-5.48-2.63-8.15-7.18,1.99.03,3.83.06,5.68.09.27.41.47.93.84,1.2.27.2.78.1,1.18.13-.22-.37-.35-.91-.67-1.06-.4-.2-.96-.08-1.44-.1q-5.69-5.12-13.32-1.22c.08.52-.03,1.24.27,1.54,2.45,2.47,3.8,5.99,7.77,7.09,1.39.38,2.01,3.89,3.31,4.12,2.98.53,4.6,2.51,6.77,4.06,2.3,1.65,5.26,2.39,8.16.17-2.27-2.42-5.26-3.86-4.54-7.91,1.63.03,3.24.06,4.84.09-.21,2.41.65,4.27,2.62,5.72,1.48,1.09,2.83,2.37,4.24,3.57-2.34,2.77-6.51.84-7.94,4.21.23,2.03,2.11,1.44,3.24,2.3-.1,2.04-1.34,3.26-3.76,4.13-.78-.79-1.65-1.78-2.65-2.65-2.47-2.16-4.67-5.1-7.56-6.19-6.05-2.3-9.55-7.11-13.53-11.56-.18-.2-.45-.32-1.15-.81-.86.71-2.06,1.36-2.75,2.36-1.56,2.26-2.87,4.69-4.58,7.53,1.67.82,2.99,1.68,4.45,2.12,1.43.43,2.37,1.06,3.04,2.45.4.82,1.42,1.83,2.21,1.87,1.81.1,3.52-1.11,5.51.25,1.19.81,3.02.67,4.53.94-.16,1.31-.29,2.36-.45,3.71,3.66,1.39,7.3,2.68,10.85,4.18,1.18.5,2.13,1.56,3.18,2.36l.08-.16c-2.09,1.23-5.01-.94-6.91,1.52,1.06,2.96,4.04,1.41,5.71,2.73,1.45,1.15,3.01,2.17,4.56,3.28-1.15,2.22-2.8,4.29-.79,7.5-1.74.03-3.04.16-4.31.05-3.47-.31-6.54.85-9.5,2.44-1.62.87-1.84,3.07-.37,4.17,1.54,1.14,3.4,1.91,4.79,3.19,1.08,1,1.67,2.53,3.05,4.74-2.86-.23-4.6-.36-6.93-.55.18,1.47.33,2.73.48,4l.09-.19c-1.5.12-2.61.63-2.83,2.36-.42,3.25-.93,6.5-1.51,10.42,1.11,2.51,3.17,4.11,6.83,3.6,1.86-.26,3.85.02,5.72.4,2.54.52,3.44,1.7,2.36,4.75-.86,2.41,1.6,3.41,1.11,5.71-1.59.51-3.44.92-5.1,1.71-1.47.7-2.75,1.83-4.05,2.73-2.15-.74-4.17-1.44-6.64-2.3,1.87-1.43,3.68-2.81,5.34-4.08.11-2.33.11-4.42-2.24-5.08-2.42-.67-3.62-2.32-4.55-4.43-1.88-4.25-3.83-8.47-5.81-12.85-5.38-.75-5.34-.78-8.72-5.46-2.1-2.91-4.34-5.71-6.53-8.56-.17-.22-.38-.49-.61-.54-1.28-.29-2.66-.9-3.84-.65-.75.16-1.58,1.53-1.79,2.48-.75,3.49-1.15,7.06-1.92,10.55-.28,1.24-1.24,2.33-1.72,3.18-2.86.82-4-1.02-5.42-2.24-2.71-2.33-5.45-4.63-8.02-7.11-1.35-1.3-2.4-2.91-3.51-4.43-1.8-2.46-3.31-2.48-5.82,0-.38.37-.81.69-1.22,1.03q-5.7-2.91-10.29-14.71c-.44.25-1.2.43-1.28.77-.67,2.93-1.26,5.74-2.77,8.53-1.9,3.49-4.12,7.33-2.23,11.73.09.21.04.64-.11.76-.82.68-1.62,1.69-2.55,1.85-1.25.22-2.12-.91-1.88-2.13.54-2.7,1.22-5.4,2.06-8.02,1.43-4.45,3.06-8.83,4.52-13.26.13-.41-.29-1-.65-2.11-1.19.68-2.3,1.22-3.31,1.91-1.41.96-2.63.25-3.9-.28l.18.09c-2.51-1.64-5.01-3.27-8.2-5.35.1-1.36.27-3.47.47-6.11-.79-.89-1.84-2.13-2.95-3.31-1.06-1.13-2.19-2.21-3.22-3.24,1.48-2.04,2.81-.79,4.07-.72,3.06.19,3.95-.62,4.31-3.57.31-2.55-.03-4.91-1.3-7.19-.76-1.37-1.2-2.91-1.78-4.37q7.25-2.75,10.03-8.41c-1.96-1.96-3.91-4.27-6.2-6.13-4.07-3.29-8.36-6.31-12.55-9.45-.66-.5-1.52-.95-1.84-1.63-.43-.89-.67-2.05-.48-2.98.1-.5,1.28-1.08,1.98-1.1,5.87-.17,10.73,2.25,14.88,6.2,1.39,1.32,2.31,3.15,3.75,4.41,1.13.99,2.71,1.47,4.64,2.45,1.12-4.54,2.57-8.35,2.21-12.57-.16-1.92-.14-3.88-.04-5.81.23-4.49,2.2-8.34,6.35-9.9,2.94-1.1,3.98-3.58,6.14-5.6,3.43,1.1,5.16,3.67,6.66,6.74,1.31,2.69,3.16,5.11,4.91,7.88,1.71-1.09,3.37-2.43,5.26-3.26,1.74-.77,3.73-.98,5.6-1.45,2.1-.53,4.21-1.08,6.54-1.67,3.55,3.23,6.04,7.85,10.93,9.32,1.52-1.72.85-2.96-.23-3.85-1.69-1.4-3.66-2.45-5.31-3.89-.68-.6-.83-1.81-1.34-3.02,5.87-1.03,8.56,3,11.54,5.96,2.97,2.95,6.39,5.94,6.34,11.75-2.76-1.44-4.82-2.52-7.3-3.81-.63,4.81-.95,8.86.68,12.82-1.45-1.24-3.12-2.29-4.29-3.74-2.57-3.2-4.76-6.72-7.34-9.92-4.89-6.06-6.63-5.98-11.08.18-.63.88-1.19,1.82-2.01,3.09,3.66,3.75,4.71,8.44,4.61,13.45-.02.99-.43,2.03-.87,2.95-1.6,3.29-1.68,4.5,1.11,5.87,2.65,1.31,4.23,3.17,5.44,5.66.17.35.96.4,1.62.65.63-.27,1.48-.45,2.08-.94,1.04-.84,1.92-1.88,3.02-2.99-2.08-2.91-3.6-5.83-6.54-7.58l.14.12c-.28-1.2-.55-2.4-.9-3.92q3.8,1.09,9.56,7.72c-.57-4.92,2.5-6.34,4.67-8.55.47-.48.39-1.5.56-2.27,4.16-.38,7.19-2.51,9.39-5.99,1.74-2.77,3.55-5.5,5.47-8.46-1.38-1.53-2.43-2.76-3.55-3.92-1.15-1.18-2.65-2.11-3.51-3.46-3.05-4.79-5.37-10.03-9.85-13.84-1.82-1.55-1.58-4.06-1.18-6.25.36-2.01,1.56-3.39,4.02-3.95,1.71,4.51,3.57,8.73,7.49,11.65,1,.75,1.61,2.23,2.06,3.49,1.59,4.44,3.88,8.43,7.52,12.24.89-.94,1.98-1.74,2.58-2.81,1.59-2.86,2.96-5.83,4.43-8.79-2.72-2.19-12.6-13.92-15.42-18.57,6.59,4.77,13.49,7.67,17.53,14.19,2.17.35,3.07-1.19,3.63-2.69,1.15-3.1,1.85-6.36,3.06-9.43,1.7-4.29,2.82-9.18,8.4-10.39,0,0-.17-.11-.17-.11.98,5.08,5.84,6.16,9.14,8.43.05,2.38-1.39,2.82-2.74,2.63-2.45-.33-4.85-1.03-7.44-1.62-1.38,2.55-4.02,4.69-2.14,8.55,3.44.05,7.03-.28,10.48.27,3.2.51,6.25,1.96,9.38,3,.52,1.6-.66,2.03-1.73,1.98-4.69-.23-9.36-.65-14.04-.92-2.44-.15-4.88-.14-8.11-.23.69,1.82.91,3.17,1.65,4.11.63.8,1.8,1.32,2.83,1.65,6.59,2.11,11.28,6.64,15.56,11.8-.56.41-1.08,1.04-1.33.94-4.54-1.7-9.41-2.57-13.34-5.79-2.52-2.06-2.69-1.87-8.83-2.82-2.13,2.53-4.72,4.95-6.05,9.09,1.82.43,3.33,1.11,4.82,1.08,7.47-.18,13.9,2.69,20.64,6.76-2.52,2.31-5.65,2.45-8.33,3.25-2.88.86-5.98,1.01-8.98,1.47-.73-.2-1.45-.43-2.19-.57-.18-.03-.42.25-.63.38.27.33.62.97.79.92.72-.19,1.39-.58,2.08-.89Zm-78.63,28.49c2.33-1.46,4.5-2.6,6.42-4.08,1.67-1.29,2.11-3.25,1.29-5.24-1.9-4.62-4.54-8.71-8.93-12.09-2.33,2.1-5.92,2.92-6.61,5.94-.85,3.71-2.83,6.42-4.92,9.34-1,1.4-1.43,3.75-1.08,5.46.43,2.09,2.08,3.79,4.48,3.96.61-.4,1.28-.6,1.46-1.01.87-2,1.6-4.05,2.48-6.35,1.54,1.16,3.03,2.28,5.41,4.07Zm59.86,25.7c1.84-5.44.08-9.4-4.5-12.14-4.13-2.47-8.34-4.06-13.32-.16,1.57.74,3,1.03,3.82,1.89,1.1,1.15,1.57,2.86,2.57,4.13,4.08,5.17,8.06,10.6,15.78,10.06.28-.02.52-.62.9-1.12-1.49-.75-2.93-1.49-5.26-2.67Zm-41.57-31.2c-1.64-.31-3.4-.65-5.03-.96-1.25,4.21-2.37,7.86-3.39,11.53-.39,1.41-.16,2.73,1.83,3.51,3.1-2.21,7.24-3.33,9.16-7.5.27-.58,1.88-.88,2.78-.74,1.96.29,3.52-.48,3.99-2.08.31-1.03-.58-2.52-1.17-3.68-.35-.69-1.07-1.33-1.79-1.68-1.18-.58-2.61-1.44-3.71-1.18-1.03.24-1.77,1.76-2.68,2.77Zm3.72,16.39c5.22,1.32,8.49,6.91,14.09,5.84.35-1.01.76-1.57.66-2.01-.94-4.24-5.38-5.05-7.49-8.38-2.73,1.71-4.99,3.13-7.26,4.55Zm30.13,21.32c-2.24,2.06-3.61,2.75-4.03,3.83-.68,1.73-1.29,3.82-.93,5.55.54,2.61,2.59,4.05,5.66,3.76,2.25-3.93-.63-7.4-.7-13.13Zm-47.55-12.77c1.49,2.31,2.55,4.17,3.87,5.83.29.36,1.52.1,2.26-.1.24-.07.5-1.18.36-1.29-2.19-1.65-.82-2.56.58-3.67.97-.77,1.11-2.09.1-2.82-.74-.54-2.05-.8-2.9-.53-1.25.39-2.32,1.36-4.27,2.59Zm-22.66.94c1.36,2.83,3.17,2.22,4.78.87,3.06-2.55,3.2-4.12.89-7.54-1.93,2.27-3.82,4.49-5.68,6.67Zm31.29,13.97c-.19.48-.79,1.21-.7,1.86.31,2.23,3.61,4.09,5.42,3.12.39-.21.78-.83.81-1.28.21-3.12-2.6-5.14-5.52-3.7Zm21-27.71c1.74.93,2.98,2.15,3.87,1.93,1-.24,2.05-1.66,2.42-2.79.41-1.23-1.88-2.27-3.86-1.58-.78.27-1.31,1.28-2.43,2.44Zm-28.83-29.6c.34.64.58,1.5,1.14,2,.51.45,1.37.5,2.08.73.13-.69.52-1.46.34-2.05-.22-.72-.86-1.37-1.46-1.88-.33-.27-1.06-.37-1.44-.18-.33.16-.42.83-.65,1.38Zm53.48-1.05c.41-1.4.67-2.26.92-3.11-.95-.21-1.93-.7-2.83-.57-1.1.16-1.88,1.19-1.08,2.24.5.66,1.64.83,2.99,1.45Zm12.98,3.34c-.98-4.04-2.63-4.63-5.4-3.77,1.61,1.13,3.02,2.11,5.4,3.77Zm-57.82,49.31c-.17.1-.33.21-.5.31.12.18.21.42.38.52.08.05.31-.18.48-.29l-.37-.55Zm3.46-14.38c.11.17.19.39.34.47.07.04.29-.16.44-.25-.11-.17-.19-.38-.34-.47-.07-.04-.29.16-.44.25Zm60.67-29.3l-.59-.15.12.53.47-.39Z"/>
          <path class="cls-4" d="m266.67,490c.54-.04,1.09-.11,1.63-.12,5.17-.05,5.4-.25,6.25-5.17.23-1.32.48-2.64.73-4.02,4.71-1.31,10.47-.95,10.78-7.81l-.09.14c.64-.26,1.28-.53,2.69-1.11-1.14,4.22-.54,8.01-4.85,10.36-1.71.93-2.15,4.19-3.45,7.01,2.58.72,4.73,1.32,7.3,2.03-.75.91-1.15,1.89-1.69,1.98-1.85.31-3.8.64-5.62.36-2.28-.35-4.02-.27-6.03,1.28-1.25.96-3.58.49-5.43.67,0,0,.17.11.17.11-.77-1.95-1.54-3.9-2.31-5.84l-.08.15Z"/>
          <path class="cls-4" d="m162.53,603.69c-.68,2.92,2.46,5.58.84,8.69-2.9-1.27-2.91-1.26-5.22-4.52.3-.35.75-1.04,1.36-1.57,1.02-.89,2.13-1.68,3.2-2.51,0,0-.18-.09-.18-.09Z"/>
          <path class="cls-4" d="m296.45,464.85c1.35-.53,2.07-.92,2.83-1.06.44-.08.95.26,1.43.41-.5.4-.96,1.03-1.51,1.13-.67.12-1.41-.22-2.75-.49Z"/>
          <path class="cls-4" d="m266.75,489.85c-.61-1.63-2.84-2.59-2.05-4.84q1.98,1.33,1.98,4.98s.07-.13.07-.13Z"/>
          <path class="cls-4" d="m255.46,594.76c1.51-.1,3.02-.2,5.69-.37q-2.77,1.59-5.61.2s-.08.16-.08.16Z"/>
          <path class="cls-4" d="m245.32,627.67c.51-.09,1.05-.32,1.53-.24.45.07.97.39,1.2.76.12.2-.27,1.03-.49,1.06-.44.06-1.02-.14-1.36-.44-.37-.32-.53-.88-.79-1.33,0,0-.09.19-.09.19Z"/>
          <path class="cls-4" d="m157.96,562.98c.14-.39.2-1.02.45-1.11.33-.12.81.19,1.22.32-.14.42-.29.84-.43,1.26-.41-.15-.83-.31-1.24-.47Z"/>
          <polygon class="cls-4" points="242.6 651.32 243.07 651.12 243 651.62 242.6 651.32"/>
          <path class="cls-4" d="m139.62,672.02c.16-.1.38-.31.48-.26.18.08.3.31.44.48-.27.15-.55.31-.82.46-.03-.23-.07-.45-.1-.68Z"/>
          <path class="cls-4" d="m286.07,472.88c-.28-.34-.55-.68-.83-1.02.19.12.46.2.56.37.13.22.13.52.18.79,0,0,.09-.14.09-.14Z"/>
          <path class="cls-4" d="m212.98,559.58c-.45.55-.88,1.12-1.38,1.62-.11.11-.68-.02-.68-.05-.01-.43-.06-1.2.08-1.24.68-.18,1.4-.16,2.12-.21,0,0-.14-.11-.14-.11Z"/>
        </g>
        <g>
          <path class="cls-4" d="m206.7,662.69c0,.56.24,1.33-.04,1.64-2.96,3.28-6.23,6.58-10.61,7.3-3.96.65-7.02,1.63-7.54,5.93-3.26-.17-5.65-.3-8.8-.46,2.17,2.33,4.24,2.73,6.43,2.74,2.21,0,4.5-.48,6.62-.09,4.6.85,9.12,2.13,13.3,3.15,1.21,2.95,2.25,5.48,3.28,8.01.91,2.25,1.8,4.5,2.71,6.76,3.89,1,6.87-3.16,10.71-1.36.54.25,2.24-1.43,3.08-2.48,1.33-1.67,2.14-3.81,3.62-5.3,1.33-1.34,3.26-2.07,4.79-2.99.2-.72.39-1.24.49-1.77.47-2.49-2.13-4.05-2.16-6.01-.03-2.01,1.18-3.77.49-6.28-1.03-3.75,2.21-6.32,5.96-5.51,1.91.42,3.14,1.7,2.78,3.48-.49,2.4-1.15,4.69-.83,7.25.1.83-1.67,1.89-2.69,2.95,1.21,1.56,2.36,3.05,3.35,4.32-.58,3.26-2.97,4.54-5.14,5.57-5.19,2.48-7.19,6.51-6.84,12.03.05.82-.19,1.65-.29,2.48l.14-.14c-1.96-.94-3.91-1.88-6.29-3.02-2.06,4.59-4.29,9.28-9.51,12.15q1.06-6.41-1.07-10.92c-.91.61-2.02,1.01-2.56,1.8-.93,1.36-1.34,3.08-2.28,4.43-.5.72-1.67.97-3.55,1.98.5-2.11.71-3.08.96-4.06.26-1.02.54-2.03.84-3.15-.9-.09-1.55-.37-1.87-.15-1.37.93-2.51,2.3-3.98,2.94-1.41.61-2.66-.15-2.97-2.42,2.02-1.79,4.25-3.76,6.42-5.69-1.09-1.95-2-.77-2.85-.38-.76.35-1.45.85-2.19,1.22-3.03,1.5-5.79,1.52-8.39-1.1-2.53-2.56-5.03-5.21-9.39-4.48-.84.14-2.56-2.08-3.06-3.5-.8-2.26-.91-4.76-1.41-7.75-2.48,2.11-1.68,5.16-3.83,7.08-3.75-.82-7.75-1.7-11.67-2.56-.82,1.76.34,2.22,1.29,2.59,2.7,1.06,5.09,2.37,5.67,5.56l.15-.13c-3.84-1.37-6.73,1.7-10.18,2.17-2.04-1.44-3.98-1.08-6.02.44,2.38,2.58,4.24.88,6.11-.58.58,3.66-1.89,5.52-4.35,7.12-.54,4.72.83,8.72,3.27,13.06-1.99.37-3.77.69-5.73,1.05-2.51-2.66-4.76-5.25-5.32-9.22-6.2,1.21-11.89-.64-17.43-3.19-1.71-.79-1.55-2.39.3-4.35l-.11-.13c1.95,2.32,4.6,2.51,7.29,2.22,2.1-.23,4.17-.79,6.25-1.2.06.49.03,1.01.22,1.43.1.22.58.28.89.41-.08-.22-.12-.48-.26-.66-.3-.38-.65-.72-.99-1.08,1.47-3.16-1.74-2.42-3.14-3.68.26-1.13.55-2.43.85-3.73,4.29.49,7.39-1.96,10.87-3.16-.03-2.88-2.44-1.98-3.63-2.78-2.28-1.53-2.81-3.54-.89-5.49,1.27-1.3,2.97-2.17,5.19-3.74.53,2.33.87,3.85,1.23,5.42,1.51.74,2.53.23,3.19-1.31,1.53-3.56,2.95-7.24,7.49-8l-.11-.15c3.5,3.19,4.96,3.76,7.82,1.93,2.53-1.62,4.69-3.82,7.28-6-1.39-2.23-3.94-1.66-5.76-2.53-1.99-.95-4.11-1.61-6.58-2.55-.22-1.36-.47-2.92-.74-4.56q6.77-.02,11.2-2.47c-2.48-3.88-9.16-9.56-12.94-10.61-.74-.21-1.8.78-2.71,1.22-.19.18-.43.33-.57.54-.09.14-.05.38-.07.57.17-.41.35-.82.52-1.23,1.02.86,2.04,1.72,3.35,2.82-1.38,1.9-2.86,3.3-3.52,5.02-.65,1.69-.47,3.69-.67,5.71-2.79,1.09-5.35,2.09-7.8,3.05-1.68-1.9-3.22-3.66-5.11-5.8,2.3-.89,4.6-1.74,6.87-2.68,1.54-.64,1.52-.7,2.12-4.75-2.09-1.46-2.71,1.38-4.45,1.48-2.85-1.22-4.56-3.66-6.36-6.64,1.77-1.93,3.41-3.72,5.14-5.59-.05-1.18-.11-2.5-.17-3.77,2.86-1.11,3.4,4.02,6.82,1.93-1.1-2.81-4.45-4.97-2.9-8.92.66-1.68-1.72-2.92-4.08-2.36-.73.17-1.43.49-2.47.85.25-2.54.47-4.68.68-6.83.51.03,1.07.2,1.52.06.35-.11.57-.62.85-.95-.43-.05-.96-.28-1.28-.11-.41.22-.66.75-.98,1.15-1.59-1.42-3.18-2.84-4.74-4.23,1.27-3.33,4.66.5,5.86-3.3-.17-2.18-2.16-3.75-4.89-4.71l.11.15c.31-1.48,1.06-3.03,2.7-2.23,5.48,2.67,9.45,6.89,11.42,12.73,1.42,4.21,2.72,8.47,3.79,12.78.44,1.79.15,3.76.2,5.83,3.66,1.66,6.62.92,8.54-2.53,2.15-3.86,3.98-7.9,6.08-12.1-1.58-1.97-3.23-3.83-4.66-5.84-2.27-3.18-1.41-5.27,2.33-5.87.8-.13,1.67.11,2.46-.04.77-.15,1.5-.57,2.34-.91.63.68,1.67,1.29,1.65,1.86-.15,4,2.14,7.11,3.48,10.58.86,2.23,1.1,4.7,1.74,7.64,1.95-.11,3.99-.23,5.92-.35,2.43,2.56-3.29,4.04-.35,6.99,3.33-3.28,7.64-5.48,7.89-10.9,6.17.81,7.07,6.51,11.35,8.56,1.82-.11,4.04-.61,6.12-.28,2.11.33,4.08,1.49,6.39,2.39-.41,2.54-3.67,2.36-4.42,4.32-.67,1.76-.87,3.7-1.3,5.69-1.42-.46-2.65-.86-3.76-1.22-2.69,1.14-.02,3.1-.92,4.53-.84,1.33-1.44,2.81-2.21,4.35,3.78,2.03,7.12,3.81,11.05,5.92.79-.96,2.31-2,2.61-3.31.78-3.45,1.04-7.02,1.62-11.4,2.76,3.23.37,6.74,1.6,8.23,2.45,2.9,6.05-.02,7.2,3.42-.5,2.62-3.28,1.65-4.59,2.91-1.17,1.12-3.14,2.51-3.05,3.64.36,4.56-3.15,7.58-3.49,11.46-.77.17-1.04.23-1.3.29-.4-2.08-.8-4.16-1.34-6.94-4.58,2.21-8.71,4.21-13.47,6.52.07-1.25-.11-2.27.22-3.09.73-1.8,1.65-3.53,2.6-5.23,2.92-5.21,2.4-6.06-4.19-6.69-.45-1.33-.97-2.93-2.64-2.65-2.48.41-3.37,2.29-3.69,5.12,2.53-1.02,4.5-1.81,6.47-2.61Zm-17.34,1.85c.79.79,1.57,1.59,2.36,2.38.21-.33.43-.66.64-.99-1.05-.42-2.1-.85-3.15-1.27,2.25-1.22,4.5-2.44,7.29-3.96-3.78-1.19-6.45-3.74-9.95-1.83-2.87,2.23-6.37,3.81-8.56,7.33,5.7,1.01,6.46.77,7.59-2.66.51-1.54.62-3.22.91-4.82.95,1.94,1.9,3.88,2.86,5.81Zm1.59,26.03c3.39.06,5.75-1.28,7.8-4.85-4.03.58-6.44,1.89-7.8,4.85Zm-5.26-40.15c-1.18.49-2.01.62-2.54,1.1-.67.6.44,1.94,1.81,1.95.72,0,1.44-.45,2.16-.7-.46-.75-.91-1.5-1.43-2.35Zm-17.44,32.87l-.32.35.55.07-.23-.42Zm37.13-46.98l-.08.49.53-.17-.46-.33Zm3.26,4.21l.12-.51-.57.15.45.36Z"/>
          <path class="cls-4" d="m136.68,718.48c.75-1.17,1.32-2.53,2.28-3.48,2.55-2.52,4.05-2.18,7.65,1.76-2.46,2.13-4.9,4.25-7.78,6.74.85.81,1.49,1.63,2.31,2.14,1.05.66,2.16,1.89,1.32,2.56-2.07,1.65,1.62,3.48-.68,5.19-2.28,1.7-4.22,1.65-5.09-1.02-.48-1.48-.89-2.98-1.59-5.35-2.31,2.03-3.78,3.65-5.55,4.82-2.54,1.67-4.89,3.14-8.27.55-2.45-1.88-6.1-2.19-9.28-3.22-.25-1.94,1.29-2.26,2.56-2.4,4.52-.52,8.22.04,13.01,1.72,1.84-1.69,1.67-3.34-.19-4.88-.41-.34-1-.48-1.51-.7-1.8-.77-2.64-2.04-1.94-3.98.67-1.83,2.28-2.36,4.92-1.27,2.62,1.08,5.09,2.44,7.92.72.17.19.31.42.52.55.14.09.37.04.56.05-.4-.16-.8-.33-1.2-.49Z"/>
          <path class="cls-4" d="m115.93,758.24c-1.18-1.75-2.44-3.45-3.52-5.25-.94-1.57-2.3-2.06-3.99-2.01l.11.16c1.5-2.25,3-4.5,4.67-7.02-.25-1.27-.56-2.84-.97-4.94,5.58-1.1,11.03-2.17,17.1-3.37-2.52,4.2-4.61,7.68-6.7,11.15-.14.24-.28.59-.49.65-5.5,1.48-4.64,6.74-6.29,10.5l.09.13Z"/>
          <path class="cls-4" d="m139.7,605.47c0-1.11-.26-2.3.05-3.31.37-1.22.96-2.72,1.93-3.32,1.89-1.18,3.79-.21,5.21,1.24.49.5.79,1.57.61,2.23-.18.67-1.15,1.7-1.6,1.62-2.37-.45-4.33.42-6.32,1.41l.11.13Z"/>
          <path class="cls-4" d="m158.92,703.39c2.86-.69,3.5,1.47,4.54,2.84.85,1.12.04,3.31-1.14,3.19-.82-.08-1.89-.86-2.25-1.61-.62-1.34-.79-2.9-1.16-4.42Z"/>
          <path class="cls-4" d="m161.01,667.22c-1.59,3.97-3.42,5.45-6.69,5.38q1.67-3.58,6.69-5.38Z"/>
          <path class="cls-4" d="m108.41,750.97c-2.76,2.95-5.31,1.47-7.9.05.25-2,1.45-2.07,2.52-1.78,1.86.5,3.66,1.24,5.48,1.89,0,0-.11-.16-.11-.16Z"/>
          <path class="cls-4" d="m167.82,694.48c3.51.75,6.35,2.4,7.87,5.83,0,0,.13-.11.13-.11-4.34.37-6.92-1.63-7.85-5.86,0,0-.16.13-.16.13Z"/>
          <path class="cls-4" d="m180.07,707.45c-3.64-1.11-3.44-4.47-4.25-7.24,0,0-.13.11-.13.11,3.32,1.29,4.46,3.87,4.27,7.24l.12-.1Z"/>
          <path class="cls-4" d="m120.87,712.17c.35.89.67,1.7.99,2.52-.47.08-1.13.38-1.37.18-.54-.46-.86-1.17-1.28-1.77.39-.22.79-.44,1.65-.93Z"/>
          <path class="cls-4" d="m144.21,611c-.46.63-.85,1.33-1.41,1.86-.32.3-.95.48-1.37.39-.28-.06-.69-.83-.58-1.04.19-.38.71-.73,1.15-.84.75-.18,1.55-.16,2.33-.23,0,0-.11-.14-.11-.14Z"/>
          <path class="cls-4" d="m144.24,654.78c-.69.24-1.31.47-1.94.69-.06-.43-.3-.98-.12-1.27.22-.35.79-.63,1.21-.63.24,0,.47.64.85,1.21Z"/>
          <path class="cls-4" d="m163.08,675.4c.3-.46.49-1.12.92-1.33.86-.43,1.83-.62,2.77-.85.07-.02.38.64.36.65-.83.54-1.63,1.14-2.54,1.51-.45.18-1.07-.07-1.62-.12,0,0,.11.15.11.15Z"/>
          <path class="cls-4" d="m229.36,704.04c.88.31,1.9.45,2.59,1,.28.23-.14,1.33-.24,2.04-.61-.3-1.45-.45-1.76-.94-.38-.6-.32-1.48-.45-2.24,0,0-.14.14-.14.14Z"/>
          <path class="cls-4" d="m132.22,691.46c.84.3,1.47.53,2.1.76-.56.02-1.11.08-1.67.04-.11,0-.2-.35-.43-.8Z"/>
          <path class="cls-4" d="m208.86,627.31c-.33.23-.79.76-1.02.68-.38-.14-.62-.68-.91-1.05.36-.24.8-.75,1.05-.66.37.13.6.67.89,1.03Z"/>
          <path class="cls-4" d="m139.59,605.35c-.17.47-.26,1-.54,1.38-.14.2-.63.14-.96.2.12-.21.19-.48.37-.62.39-.31.83-.55,1.24-.83,0,0-.11-.13-.11-.13Z"/>
          <path class="cls-4" d="m128.63,700.86c.33-.64.66-1.28.26-.51.62-.61.12-.12-.38.38,0,0,.11.14.11.14Z"/>
          <path class="cls-4" d="m189.18,708.91c-.23.06-.46.11-.69.17-.05-.23-.21-.53-.11-.66.11-.15.43-.14.66-.2.05.23.1.46.15.69Z"/>
          <path class="cls-4" d="m158.82,723.52c-.08-.19-.3-.46-.23-.6.09-.19.4-.27.61-.4.13.36.25.72.38,1.08l-.76-.08Z"/>
          <polygon class="cls-4" points="161.89 736.6 161.52 736.16 162.03 736.07 161.89 736.6"/>
          <path class="cls-4" d="m179.96,707.55c.26.09.52.18.77.27-.22-.12-.43-.25-.65-.37,0,0-.12.1-.12.1Z"/>
        </g>
        <g>
          <path class="cls-4" d="m138.42,524.78c1.07-.33,2.19-.59,2.28-2.03.06-.98.69-1.68,1.58-1.42,2.4.69,4.73,1.63,7.12,2.37.76.24,1.62.2,2.44.22.21,0,.57-.25.62-.44.13-.49.18-1.02.14-1.53-.02-.24-.25-.53-.47-.67-4.66-3-9.09-6.45-14.8-7.37-1.75-.28-3-1.16-3.39-3.14-.22-1.12-1.41-1.65-2.47-2.06-3.6-1.37-5.94-4.03-7.51-7.43-.2-.44-.12-1.09.03-1.58.17-.58.81-.75,1.32-.3,1.67,1.46,3.27,2.87,5.42,3.75,3.85,1.57,7.21,4.15,11.17,5.61,1.45.53,2.46,2.17,3.76,3.19.29.23,1.13.18,1.38-.07.33-.32.58-1.11.4-1.47-.48-.98-1-2.16-1.85-2.68-2.87-1.74-5.81-3.33-7.67-6.29-3.33-2.01-6.54-4.26-10.02-5.96-2.48-1.21-3.82-3.14-5-5.35-.19-.35.02-1.16.34-1.45.31-.29,1.09-.42,1.48-.23,2,.96,3.91,1.95,6.23,2.2,2.3.25,4.09,1.73,4.97,4,.96,2.48,2.59,4.26,5.07,5.24,1.31.52,2.52,1.19,3.38,2.35,1.47,1.98,3.55,2.51,5.89,2.54,2.16.03,3.62,1.21,4.64,3.05.54.97,1.08,1.96,1.77,2.82.51.63,1.24,1.1,1.91,1.58,1.3.93,3.12.32,3.23-1.14.17-2.23.34-4.44,1.15-6.55l-.15.12c1.64-.36,3.28-.71,4.97-.29.63.15,1.55,1.36,1.31,1.89-1.28,2.8-1.79,5.84-2.81,8.71-.49,1.39-.52,2.62-.35,4.04.12,1.03-.2,2.24-.68,3.19-.82,1.66-.9,3.16.06,4.75.28.47.41,1.04.55,1.58.54,2.07.03,2.9-2.07,3.59-1.04.34-2.09.74-3.04,1.28-.39.22-.56.86-.74,1.35-.03.07.39.4.65.47,1.1.28,2.23.62,2.77,1.67.89,1.73,1.74,3.5,2.38,5.33.38,1.09-.04,2.32-.98,2.99-.59.42-1.59.55-2.34.43-2.03-.34-3.6-1.45-4.52-3.36-.12-.25-.26-.51-.32-.77-.97-4.04-3.59-6.1-7.65-6.63-1.05-.14-2.06-.81-3.03-1.35-2.83-1.58-6.01-.95-9-1.47-2.95,1.5-6.55,1.55-9.07,4.04-.81.81-1.8,1.51-2.95,1.32-3.81-.63-7.8-.3-11.67-1.92,2.01-.92,3.74-1.78,5.53-2.49,1.28-.51,2.63-1.09,3.97-1.15,2.78-.11,5.54.19,7.82-2.01.46-.45,1.58-.29,2.39-.3,1.38,0,2.77.11,4.15.11.79,0,1.43-.96,1.22-1.8-.28-1.08-.57-2.16-.85-3.24,0,0-.11.14-.11.14Z"/>
          <path class="cls-4" d="m154.09,488.83c-1.39-2.4-2.73-4.84-4.2-7.2-.72-1.16-1.63-2.21-2.52-3.26-1.25-1.48-2.61-2.88-3.81-4.39-.24-.3-.02-.98.04-1.48,0-.03.6-.12.75.02,2.85,2.63,5.59,5.39,8.54,7.89,1.52,1.28,2.83,2.64,3.91,4.3.6.92,1.31,1.82,2.14,2.54,2.88,2.53,5.13,2.68,7.3.24,1.8-2.03,4.63-1.9,6.38-3.76.15-.16.14-.56.07-.81-.07-.24-.29-.56-.48-.6-.52-.09-1.08-.14-1.58-.02-.81.18-1.57.59-2.38.75-.9.18-2.29-1.28-2.12-2.14.1-.54.16-1.13.41-1.6.94-1.8,1.32-3.68.87-5.67-.44-1.97-.23-3.82.53-5.71.94-2.35,1.59-4.79.46-7.31.39-2.27.27-4.44-1.02-6.45-.13-.21-.19-.61-.08-.81.24-.42.55-.99.94-1.09.45-.12,1.24,0,1.5.34,2.05,2.6,3.53,5.63,5.95,7.96.2,1.37.51,2.73.59,4.1.09,1.65-1.15,3.2-.5,4.89.18.47.63.95,1.08,1.17.44.21,1.16.31,1.54.08.69-.4,1.36-1,1.78-1.67.74-1.19,1.35-2.45,2.74-3.02.25-.1.57-.18.82-.12.24.06.6.32.61.51.13,1.97.08,4.07-1.11,5.62-1.44,1.87-1.82,3.97-2.42,6.11-1.03,3.74-2.15,7.42-5.33,10.18-1.63,1.41-2.64,3.55-3.83,5.42-.12.19.33.94.69,1.18.43.29,1.1.53,1.57.42,2.52-.61,4.85-.57,7.22.81,1.12.65,2.72.46,4.06.78.44.1.99.59,1.09.99.09.4-.25,1.23-.56,1.32-2.47.71-4.56,2.02-6.45,3.73-.92.83-2.11.7-3.14.19-1.25-.61-2.38-1.47-3.64-2.04-.72-.33-1.86-.68-2.37-.35-2.32,1.52-5.53,1.33-7.3,3.82l.15-.12c-3.16.26-5.72-1.3-6.75-3.92-1.47-3.72-4.71-5.34-7.35-7.69-1.89-1.68-4.09-2.8-6.68-3.13-1.78-.22-3-1.34-3.71-2.98-.33-.76-.77-1.5-.92-2.3-.29-1.48-1.19-2.48-2.31-3.31-1.56-1.15-3.25-2.13-4.72-3.38-1.03-.87-1.83-2.04-2.67-3.12-.51-.67-.35-1.99.31-2.2.73-.23,1.58-.3,2.33-.19.47.07.92.59,1.29.98,1.15,1.2,2.37,2.36,3.36,3.68,1.41,1.87,3.17,3.02,5.44,3.54.75.17,1.81.63,2.03,1.22,1.11,2.95,4.01,3.69,6.17,5.32.66.5,1.35,1.07,2.12,1.28,1.04.28,2.17.25,3.26.35.81,4.55,4.4,6.62,7.87,8.78.34.21,1.04,0,1.49-.2.6-.28.68-.86.27-1.41-2.5-3.38-5.74-5.73-9.74-7.04Z"/>
          <path class="cls-4" d="m138.53,524.64c-3.03.32-6.01.7-9.11.26-2.43-.35-4.96.12-7.45.14-1.08,0-2.2-.1-3.25-.35-.42-.1-.76-.72-1.04-1.17-.07-.12.13-.55.32-.68,2.33-1.59,4.74-2.76,7.74-2,1.32.34,2.79.04,4.13.31,1.99.4,3.81.14,5.69-.54,1-.37,2.02.44,2.4,1.72.24.79.31,1.63.45,2.45l.11-.14Z"/>
          <path class="cls-4" d="m168.66,440.28c-.5.15-.79.35-1.02.29-2.23-.58-3.88-1.86-4.55-4.13-.14-.46.04-1.04.17-1.54.17-.65,1.2-1.03,2.07-.82,2.81.68,3.97,1.81,4.06,4.26.02.69-.51,1.39-.73,1.94Z"/>
          <path class="cls-4" d="m170.72,448.76c-1.49.09-2.65-.57-3.56-1.67-.54-.65-.85-1.42-.44-2.26.49-.99,1.81-1.67,2.72-1.43,2,.53,3.16,2.49,2.5,4.42-.14.41-.8.64-1.22.95Z"/>
          <path class="cls-4" d="m146.65,456.69c.05-.96.04-1.5.13-2.03.04-.24.25-.55.47-.65.21-.1.58-.06.8.07,1.93,1.16,2.23,2.93,1.74,4.95-.06.24-.33.62-.48.61-.5-.04-1.24-.07-1.44-.39-.57-.89-.93-1.92-1.21-2.56Z"/>
          <path class="cls-4" d="m176.49,509.46c.42-.11,1.21-.39,2.03-.53.68-.11,1.02.25.87.84-.06.23-.25.56-.44.62-1.59.43-3.19.86-4.81,1.16-.48.09-1.04-.23-1.57-.36.37-.36.67-.87,1.11-1.04.76-.31,1.61-.41,2.81-.68Z"/>
          <path class="cls-4" d="m162.01,470.91c.22-.73.36-1.22.51-1.71.33.39.81.74.96,1.19.42,1.25.73,2.55,1.02,3.84.03.13-.31.46-.52.49-.23.04-.68-.07-.74-.23-.47-1.24-.88-2.52-1.24-3.59Z"/>
        </g>
        <path class="cls-4" d="m136.45,639.79c-.09,1.87-.05,2.8-.22,3.68-.06.33-.62.75-.98.78-.36.03-1.03-.31-1.1-.6-.62-2.61-1.15-5.24,1.21-7.43-.27-1.81-1.23-3.15-2.53-4.53-2.28,1.16-3.44,3.3-5.15,4.81-1.75,1.55-3.59,3.02-5.53,4.64.24,1.92-1.87,3.57-.67,5.98.76.18,1.65.35,2.52.61,2.09.62,4.18,1.24,6.24,1.96.29.1.66.93.54,1.1-.31.44-.91,1.01-1.33.97-.9-.09-1.77-.53-2.65-.85-1.33-.48-2.65-.99-4.33-.2.4,1.43.8,2.88,1.25,4.52,1.27.26,2.48.47,3.67.76.9.22,1.86.41,2.64.87.36.21.51,1.06.46,1.59-.02.3-.65.77-1,.76-.89,0-1.77-.23-2.92-.41.44,2.97,2.47,4.39,4.4,5.74-.78,1.88-1.68,2.36-2.59,1.42-2.86-2.93-5.41-6.05-6.88-9.97-1.12-3-1.25-2.95-3.67-4.87.78-2.64.32-5.29-.4-8.17-1.7.5-3.02,1.07-4.38,1.24-3.03.37-4.48,1.92-4.24,5.38,1.42,1.24,3.01,2.71,4.68,4.09,2.21,1.82,4.01,3.95,5.25,6.53.25.53.46,1.27.28,1.75-.14.37-1.15.83-1.39.67-.6-.39-1.07-1.07-1.43-1.72-2.2-3.95-4.15-5.87-8.47-8.11-.28.68-.75,1.33-.78,2-.16,3.59.69,6.69,3.84,9.03,2.36,1.76,4.46,3.93,6.42,6.15,1.1,1.25,1.76,2.92,2.46,4.48.17.37-.28,1.02-.58,1.96-2.81-3.41-4.06-7.55-8.41-9.97.44,1.08.54,1.6.82,2,3.93,5.51,7,11.49,9.87,17.59,1.07,2.28,1.46,4.79,1.22,7.33-.05.58-.38,1.17-.69,1.69-.12.2-.55.32-.82.28-.27-.03-.57-.26-.74-.48-.17-.23-.3-.57-.29-.86.35-5.85-3-10.4-5.34-15.31-.11-.23-.49-.33-.99-.66-1.03.76-.94,2.12-1.44,3.16-.36.75-.93,1.43-1.79.95-.39-.21-.73-1.08-.62-1.53.49-1.84.72-3.64.5-5.56-.49-4.26-.43-4.26-3.58-8.52-.88,1.31-1.67,2.59-2.57,3.77-.45.59-1.08,1.09-1.74,1.45-.26.14-.84-.16-1.18-.4-.19-.13-.31-.62-.21-.83.26-.56.65-1.05.99-1.58,2.07-3.27,3.08-6.78,2.46-10.68-.45-2.83-.2-5.59.81-8.32.47-1.27,1.25-2.57.59-4.29-3.78.51-7.59,1.03-11.65,1.59-.06,1.73-.1,3.27-.16,4.82-.13,3.63-.82,7.16-2.15,10.54-.51,1.29-1.29,2.5-2.12,3.61-.27.36-1.19.58-1.62.4-.63-.27-.59-1.01-.19-1.59,3.67-5.22,3.92-11.05,3.04-17.06-.05-.36-.55-.65-.81-.94-1.33.36-1.15,1.44-1.33,2.3-.39,1.83-.51,3.76-1.18,5.47-.6,1.55-1.73,2.93-2.75,4.28-.29.38-1.04.4-1.7.63-.57-1.5.3-2.27.92-3.09,1.8-2.39,2.21-5.15,2.04-8.01-.05-.9-.37-1.88-1.8-1.93-.94,1.07-.87,2.51-1.19,3.82-.67,2.73-1.35,5.46-2.16,8.16-.33,1.1-1.15,1.86-2.71,1.49-.27-1.81,1.31-3.05,1.59-4.66.27-1.54.51-3.09.66-4.65.16-1.64.7-3.42-1.15-4.78-1.51,1.21-1.88,2.94-2.55,4.48-1.45,3.31-3.2,6.45-5.59,9.17-.71.81-1.56,1.53-2.43,2.18-.29.22-1.01.27-1.26.07-.55-.44-.47-1.08.05-1.61,3.45-3.53,6.02-7.6,7.45-12.34.22-.73.33-1.5.55-2.55-.9-.32-1.7-.61-2.75-.99-1.44,4.38-5.13,6.79-7.52,10.22-.24.34-.77.59-1.2.66-.4.07-.99-.03-1.24-.29-.24-.25-.33-.96-.14-1.22.62-.88,1.41-1.65,2.11-2.47.91-1.07,1.87-2.1,2.68-3.24.8-1.11,1.44-2.33,2.1-3.44-.87-1.51-2.33-1.25-3.41-1.76-1.13-.53-2.31-.94-2.93-1.18-2.36.56-3.32,1.76-4,3.22-1.11,2.4-2.16,4.82-3.26,7.22-.12.27-.34.6-.59.69-.4.14-.89.2-1.3.11-.21-.04-.52-.53-.46-.72.37-1.34.73-2.69,1.28-3.96.92-2.14,2.24-4.12,2.44-6.54-4.59-.66-4.62-.64-12.08,7.82-1.38-.18-1.52-1.22-.95-2.02,1.52-2.16,3.21-4.22,4.93-6.23.7-.81,1.66-1.39,2.69-2.22-1.1-1.26-2.31-1.29-3.43-.76-1.84.86-3.56,1.95-5.37,2.87-.33.17-.99.09-1.27-.14-.27-.23-.31-.8-.33-1.23-.01-.29.18-.59.29-.88.1-.29.21-.59.4-1.13-1.02-.25-2.02-.49-3.1-.74-1.43,2.78-3.6,4.37-6.8,5.25-.02-.91-.31-1.82.02-2.2.88-1.03,2.03-1.83,3.05-2.7-.25-.39-.39-.83-.57-.85-4.81-.51-9.63-.97-14.3-1.42-1.8,1.6-2.96,3.79-5.76,3.14-.15-.89-.29-1.77-.44-2.65-4.05-.55-6.37,1.9-8.37,5.21-.7-.4-1.52-.6-1.6-.97-.15-.68-.11-1.66.29-2.15,3.05-3.73,6.87-5.77,11.86-5.37,3.74.3,7.49.35,11.17.51.25-.36.53-.58.58-.85.17-.93.23-2.08,1.26-2.31.81-.18,1.79.16,2.64.44.57.19,1.08.64,1.55,1.05,3.25,2.79,7.08,3.91,11.26,3.78,4.61-.14,9.02.72,13.36,2.18.57.19,1.21.22,1.8.32,1.1-1.61.5-3.17.03-4.6-.68-2.07-1.69-4.03-2.45-6.08-.27-.72-.21-1.57.84-1.81,2.67,2.51,3.15,3.81,5.07,13.73,1.92,1.31,4.23,1.62,6.83,2.03.29-.91.78-1.74.78-2.57.01-3.44.04-6.9-.27-10.32-.14-1.47-1.06-2.88-1.7-4.28-.25-.55-.83-.97-1.03-1.53-.12-.33.08-1,.36-1.2.28-.2.98-.2,1.26.02,1.81,1.42,2.86,3.29,2.98,5.62.12,2.35.16,4.7.33,7.04.19,2.64.49,5.28.76,8.05,2.02.91,4.21,1.42,6.79,1.05.04-1.88-.67-3.25-1.3-4.65-1.22-2.71-2.45-5.43-3.59-8.17-.74-1.78-.68-1.81-.01-4.46,3.83.08,6.31,2.15,8,5.4,1.22,2.36,2.44,4.73,3.7,7.07.9,1.68,1.53,3.4.81,5.54,3.18.49,6.09,1.2,9.05.62,5.92-1.16,12.17-.8,18.12-3.77-1.74-1.49-3.73-1.45-5.47-2.54-1.46.78-2.96,1.55-4.44,2.37-1.41.78-2.68.9-2.9.16-.41-1.37.67-1.95,1.56-2.57.76-.54,1.56-1.01,2.31-1.48,0-1.36-.94-1.68-1.86-1.65-1.87.07-3.73.36-5.6.49-.39.03-1.15-.33-1.14-.42.08-.55.18-1.27.56-1.55.86-.64,1.88-1.05,3.14-1.72-3.04-3.16-6.06-5.84-10.83-4.92-.45.09-1.11.24-1.34.02-.36-.35-.75-1.2-.57-1.47.38-.58,1.1-1.28,1.72-1.32,2.96-.17,5.97-.39,8.45,1.86.75.68,1.75,1.09,2.71,1.67.76-1.59-.21-2.3-.86-3.11-.39-.48-.96-.85-1.23-1.38-.17-.34-.09-1.14.14-1.27.47-.27,1.18-.41,1.67-.25.54.18,1.06.69,1.38,1.19.67,1.05,1.2,2.19,1.87,3.46,1.17.17,2.37.35,3.66.54,2.1,2.89,4.06,5.86,4.43,9.26,2.14,2.11,5.35.39,7.28,2.99,4.28-2.33,7.51-5.84,11.08-9.56-1.11-.95-1.84-1.72-2.7-2.3-1.92-1.3-3.8-2.75-5.9-3.67-1.98-.87-4.23-1.1-6.34-1.69-1.51-.42-3.01-.88-4.47-1.45-3.08-1.2-5.96-2.67-8.3-5.16-1.48-1.58-3.31-2.83-4.98-4.24-.23-.2-.56-.47-.55-.71,0-.57.06-1.21.34-1.67.14-.23.95-.33,1.22-.15,1.03.69,2.02,1.47,2.92,2.33,2.27,2.16,4.59,4.24,7.33,5.82,1.91,1.1,3.9,1.85,6.42,1.83.08-1.05.12-1.95.22-2.84.34-3.11.61-6.23,1.09-9.31.13-.84.82-1.64,1.39-2.33.17-.21.87-.07,1.28.06.22.07.46.49.44.74-.05.6-.27,1.19-.38,1.79-.51,2.6-1.11,5.19-1.49,7.82-.27,1.87.03,3.73,1.26,5.71,1.47.14,3.15.29,4.93.46.37-1.15.63-2.19,1.05-3.15.34-.77,1.04-1.19,1.91-.9.86.29,1.3,1.08,1,1.85-.59,1.5-.95,2.97-.52,4.77,1.36,1.23,2.85,2.58,4.6,4.15.68-.81,1.19-1.52,1.81-2.13.43-.42.99-.87,1.55-.96.52-.09,1.32.11,1.63.48.29.35.35,1.28.08,1.64-.82,1.12-1.84,2.1-2.95,3.32,1.27,2.58,2.41,5.15,3.78,7.59.49.88,1.49,1.52,2.36,2.12,1.02.71,2.22,1.16,3.18,1.94.49.4.62,1.25.9,1.88-1.68,1.22-2.63-1.39-4.18-.21.34,1.74.72,3.56,1.03,5.39.03.18-.32.54-.56.63-.25.09-.71.05-.85-.12-.37-.46-.71-.99-.9-1.55-.62-1.77-1.12-3.58-1.79-5.33-.18-.48-.8-.79-1.77-1.69Zm-51.04,3.58c.86-5.38-1.66-9.24-4.41-13.01-.56-.77-1.16-1.75-2.63-1.53.98,5.28,5.02,9.11,5.25,14.34.57.06,1.02.11,1.8.19Zm24.19-9.98c-.88-1.81-.83-3.1-2.23-3.62-.04-.02-.22.17-.23.27-.23,1.44.78,2.07,2.46,3.34Z"/>
        <g>
          <path class="cls-4" d="m86.84,532.1c-.61-2.2-1.48-3.74-3.12-4.82-1.5-.98-3.1-1.4-4.91-1.19-1.06.12-2.15.05-3.22-.01-.19-.01-.45-.42-.5-.68-.05-.26.04-.68.23-.81.49-.36,1.04-.75,1.61-.87,1.21-.26,2.46-.35,3.68-.51.71-1.46-.36-2.27-1.24-2.6-1.88-.71-3.89-1.12-5.87-1.55-.91-.2-1.88-.08-2.79-.29-.32-.07-.7-.69-.7-1.06,0-.38.36-.94.7-1.08.55-.22,1.22-.24,1.83-.21,1.06.06,2.11.23,3.05.34.73-1.44-.15-2.19-.87-2.54-1.51-.75-3.15-1.32-4.79-1.72-1.17-.29-2.44-.2-3.66-.28-.83-2.68,1.64-2.24,2.74-3.27-5.11-5.46-11.64-7.61-18.82-8.34-1.39-.14-2.79-.18-4.17-.4-.29-.05-.7-.71-.67-1.05.03-.36.52-.94.83-.96,1.87-.12,3.77-.34,5.61-.1,6.13.77,11.82,2.57,16.74,6.67,3.63,3.03,7.05,6.16,9.96,9.89,1.42,1.83,3.06,3.5,4.8,5.47,1.79-1.27,2.32-3.14,3.37-4.59,1.19-1.64,2.33-3.32,3.61-4.88.26-.31,1.08-.16,1.64-.22.06.58.39,1.31.15,1.71-1.51,2.56-3.17,5.02-4.71,7.56-.73,1.2-1.3,2.49-2.06,3.96,1.57,2.49,3.07,5.04,4.74,7.49,1.65,2.43,2.76,5.32,5.72,6.96,1.25-1.27,2.5-2.63,3.85-3.89,2.37-2.24,5.15-3.53,8.49-3.23.34.03.86.49.89.8.04.34-.31.88-.64,1.05-.54.28-1.2.31-1.8.48-4.34,1.25-7.13,4.24-9.5,8.33.95.38,1.63.65,2.66,1.07,1.12-1.18,2.21-2.51,3.49-3.63,1.17-1.02,2.51-1.92,4.21-1.75.28.03.7.25.76.46.11.41.19,1.05-.04,1.29-.53.55-1.24.93-1.89,1.35-2.44,1.58-4.22,3.69-5.18,6.53,1.21,1.72,2.43,3.44,3.71,5.25,1.75-1.21,2.14-3.2,3.28-4.64.76-.96,1.57-1.9,2.47-2.74.23-.21,1.09-.17,1.26.06.33.43.64,1.18.48,1.62-.25.7-.96,1.22-1.34,1.89-.85,1.49-1.61,3.03-2.4,4.54-.91,1.74-.68,3.45.59,4.8,3.21,3.42,6.52,6.76,9.89,10.02.35.34,1.37,0,2.36-.05-.37-1.57-.8-2.84-.93-4.14-.15-1.38-.12-2.81.05-4.19.08-.61.69-1.16,1.11-1.81,2.31,1.91,1.05,4.38,1.72,6.39,1.03.32,1.42-.46,1.71-1.13.99-2.3,1.88-4.63,2.83-6.94.29-.71.57-1.46,1.03-2.06.2-.26.84-.27,1.27-.23.21.02.55.45.53.67-.11,1.23-.11,2.52-.53,3.65-1.76,4.73-3.83,9.28-8.28,12.55.67.81,1.12,1.65,1.82,2.17,2.14,1.58,4.32,3.11,6.59,4.5,1.61.99,2.06.69,3.49-1.76-1.06-1.95-2.99-3.09-4.59-4.55-.57-.52-1.23-.97-1.7-1.58-.23-.29-.28-1.05-.07-1.27.37-.4,1.09-.85,1.51-.73.7.19,1.3.77,1.9,1.25,1.43,1.17,2.83,2.38,4.44,3.74,1.84-2.24,2.12-4.4,1.53-6.78-.21-.84-.04-1.58.95-1.77.88-.17,1.53.28,1.92,1.01.71,1.32.71,2.77.24,4.11-.88,2.5-1.9,4.95-2.93,7.39-.48,1.13-1.14,2.18-1.84,3.48,1.52,1.19,3.11,1.49,5.1,1.69-.14-4.12,1.33-7.75,2.19-11.51.47-2.06,1.6-3.75,3.18-5.09.77-.65,1.72-.76,2.58.61-.58,1.03-1.35,2.18-1.9,3.41-.57,1.28-.98,2.64-1.39,3.99-.41,1.35-.68,2.73-1.08,4.08-.42,1.41-.42,2.76.48,4.39,1.03.05,2.24.09,3.44.17.61.04,1.32.02,1.8.32.45.28.94.97.91,1.45-.03.48-.59,1.09-1.07,1.33-.52.26-1.21.17-1.83.19-.78.03-1.65-.22-2.33.04-3.02,1.16-5.72.46-8.55-.79-2.62-1.16-2.78-.92-5.54,1.82,1.69,4.54,1.65,4.93-.85,6.34-.61-1.18-1.23-2.35-1.96-3.74-1.4.92-2.56,1.67-3.72,2.44-1.2.8-2.14,1.68-2.35,3.3-.13,1.03-.73,2.06-1.34,2.94-.28.4-1.14.68-1.63.57-.44-.1-.83-.78-1.05-1.29-.23-.52-.23-1.14-.36-1.87-1.28.25-2.34.53-3.41.63-.8.08-1.7-.15-1.79-1.08-.04-.45.48-1.1.92-1.41.61-.42,1.38-.59,2.12-.89-.32-.88-.57-1.58-.81-2.24.71-1.36,1.97-1.6,3.21-1.7,1.56-.12,3.14.02,4.69-.12.68-.06,1.32-.57,2.04-.9-1.11-1.58-2.35-1.02-3.53-.72-.93.24-1.87.51-2.48-.53-.45-.76.36-1.98,1.72-2.32,1.19-.3,2.45-.41,3.68-.41,1.24,0,2.48.32,3.73.35,1.06.03,1.72-.59,1.96-1.95-2.41-2.46-5.35-4.41-8.78-6.23-.4.93-.83,1.7-1.06,2.53-.47,1.65-.79,3.35-1.27,5-.3.99-.97,1.03-2.7.26.26-1.76.53-3.55.82-5.53-1.78.35-2.56,1.26-2.47,2.64.22,3.26-1.89,5.51-3.37,8.02-.2.35-1.2.56-1.59.36-.38-.19-.71-1.06-.6-1.51.33-1.33.89-2.6,1.31-3.78-1.09-1.19-1.93-.39-2.68-.01-3.91,1.96-7.79,3.98-11.67,6.01-1.26.66-2.5,1.38-3.98,1.14-.41-.06-1.07-.43-1.08-.68-.03-.55.12-1.31.49-1.63.56-.48,1.41-.6,2.08-.97,1.32-.71,2.88-1.1,3.82-2.47-1.35-1.4-3.06-.99-4.44-1.56-.32-.13-.62-.76-.59-1.14.03-.37.48-1.01.76-1.01,1.71,0,3.45-.01,5.13.26,1.37.22,2.68.83,4.23,1.34,1.38-.22,2.66-.92,3.67-2.64-2.5-1.08-4.73-1.94-7.31-1.11-.72.23-1.51.26-2.28.28-.21,0-.54-.33-.63-.57-.09-.25-.07-.68.1-.87.4-.45.85-.97,1.38-1.17,3.08-1.19,6.15-.93,9.13.36.86.37,1.59,1.05,2.46,1.34.46.16,1.23-.06,1.63-.38.52-.42.03-1.44-.84-1.81-1.01-.43-2.09-.69-3.06-1.19-1.76-.92-3.96-.97-5.32-2.53.15-1.22.92-1.46,1.71-1.22,2.83.86,5.64,1.81,8.44,2.75.71.24,1.39.6,2,.87,1.01-.87.63-1.5-.02-2.04-1.77-1.48-3.88-1.87-6.13-1.98-.43-.02-.98-.69-1.19-1.19-.25-.59.66-1.62,1.39-1.52,1.53.21,3.08.44,4.53.94,1.43.5,2.73,1.34,4.43,2.21.02-1.63-1.01-2.18-1.64-2.92-.61-.71-1.3-1.35-1.97-2.02-.78-.77-1.59-1.51-2.34-2.31-.65-.68-1.21-1.44-1.86-2.12-.74-.77-1.54-1.5-2.31-2.24-2.74,1.52-5.26,3.06-7.9,4.35-4.42,2.16-9.26,2.81-14.05,3.61-.42.07-1.21-.5-1.36-.94-.12-.36.33-1.26.72-1.4,1.31-.49,2.72-.73,4.08-1.09,2.72-.72,5.47-1.36,8.15-2.22,2.84-.92,5.44-2.35,7.5-4.55-.63-2.61-.65-2.6-2.63-4.31-2.41,1.58-4.88,3.17-7.31,4.83-3.45,2.35-7.5,3.08-11.38,4.24-.41.12-.94-.04-1.37-.19-.25-.09-.6-.4-.6-.62,0-.41.08-1.1.33-1.2,1.72-.72,3.47-1.41,5.25-1.93,4.9-1.45,9.14-3.98,13.1-7.66-.72-1.24-1.39-2.39-1.98-3.42-2.23.03-3.41,1.44-4.82,2.35-2.64,1.72-5.35,3.25-8.47,3.93-.92.2-1.84.37-2.77.48-.86.1-1.62-.21-1.71-1.14-.08-.9.58-1.38,1.41-1.6.3-.08.61-.14.92-.19,4.45-.79,8.13-3.07,11.52-5.85.1-1.46.72-2.87-.76-4.3-1.03.41-2.12.92-3.26,1.28-2.53.79-5.07,1.54-7.63,2.21-.57.15-1.24-.01-1.84-.15-.22-.05-.53-.46-.51-.68.04-.41.2-1.04.48-1.16.85-.35,1.79-.52,2.7-.71,2.93-.63,5.55-1.95,8.1-3.54-1.46-1.53-3.18-2.54-5.14-2.73-2.95-.3-5.93-.75-8.79.61-.4.19-.93.32-1.33.22-.39-.09-.87-.46-.99-.81-.11-.33.08-.95.36-1.17.46-.37,1.08-.68,1.67-.76,2.63-.33,5.27-.6,7.9-.84.89-.08,1.8.02,3.04.05Z"/>
          <path class="cls-4" d="m100.81,592.87c-.34-.48-.79-.9-.94-1.41-.11-.37.09-.94.34-1.27.82-1.11,1.68-2.21,2.63-3.21.8-.84,2.09-.89,2.42-.23.42.84-.07,1.44-.54,2.05-.84,1.1-1.62,2.25-2.5,3.32-.26.32-.78.43-1.41.74Z"/>
        </g>
        <path class="cls-4" d="m269.56,690.33c3.01,3.28,5.81,6.34,9.84,7.74,3.17-2.61,4.85-5.62,4.49-9.74-.16-1.79.32-3.7.87-5.45.28-.89,1.34-1.54,2.82-3.12.13,3.23.21,5.35.33,8.31,1.77-1.2,2.85-1.93,3.93-2.67,3.7-2.53,7.73-4.34,12.19-4.75,1.98-.18,4.11.25,6.04.83,1.27.38,1.36,1.7.64,2.82-3.65.53-7.28,1.02-10.88,1.62-1.13.19-2.37.47-3.27,1.11-4.87,3.5-9.46,7.29-12.51,12.59,3.91,3.14,4.35,3.33,11.64,5.08,1.29-.98,2.68-2.2,4.23-3.15,1.76-1.09,3.58-2.26,5.54-2.79,1.42-.39,3.17.01,4.65.46.57.17,1.01,1.42,1.12,2.23.05.33-.87.97-1.46,1.16-.63.21-1.38,0-2.07.06q-3.4.37-7.44,3.73c2,3.03,5.36,3.99,8.54,6,2.25-3.05,5.34-4.55,8.63-5.67,1.8-.61,3.62-.78,5.39.16,1.14.6,1.9,1.6,1.44,2.78-.24.63-1.45,1.37-2.11,1.27-3.37-.52-6.37-.07-8.75,2.23-.26,1.77.89,2.25,1.76,2.97,2.86,2.36,5.79,4.65,8.47,7.2,3.27,3.11,5.28,7.02,6.26,11.43.57,2.57.49,5.08-1.12,7.3-.21.29-.81.48-1.18.43-.37-.06-.92-.44-.98-.76-.18-.89-.18-1.83-.19-2.75-.03-5.2-2.32-9.32-5.96-12.86-3.01-2.92-6.16-5.59-9.93-7.54-3.28-1.7-6.41-3.69-9.46-5.46-1.69.82-1.25,1.95-1.08,3.08.9,6.18,1.79,12.36,2.58,18.56.25,1.94-.24,3.66-2.99,4.29-.25-1.4-.74-2.7-.65-3.95.4-5.63-.64-11.1-1.55-16.59-.19-1.14-.57-2.25-.88-3.36-1-3.56-2.99-6.22-6.67-7.39-1.51-.48-2.96-1.12-4.74-1.8-2.56,4.59-3.33,8.71.05,13.03,1.26,1.62,2.06,3.62,2.93,5.52,1.28,2.79,1.85,5.77,1.37,8.82-.12.8-.84,1.56-1.43,2.21-.54.59-2.23.13-2.31-.59-.14-1.13-.2-2.28-.2-3.42,0-3.25-.55-6.34-2.83-9.7-.65,1.27-1.19,1.97-1.37,2.75-1.22,5.53-.77,11.06.03,16.59.3,2.06.77,4.12.85,6.19.04,1.16-.77,2.22-2.14,2.3-1.31.08-2.33-.64-2.49-1.92-.86-7.14-1.33-14.3-.69-21.49.51-5.77,1.06-11.54,2.97-17.09.51-1.47.49-3.13.73-4.84-2.49-2-5.03-3.4-8.29-4.32-5.34,12.02-4.48,24.01-1.19,35.76-1.73,1.54-3.19,1.49-3.66-.2-3.07-11.15-3.8-22.36-.5-33.63.45-1.55.92-3.12,1.09-4.71.07-.66-.61-1.41-.99-2.2-.75.54-1.32.73-1.42,1.07-1.11,3.53-2.34,7.04-3.16,10.64-.82,3.61-1.22,7.32-1.76,10.99-.74,5.1-2.03,9.96-4.97,14.32-1.55,2.3-2.69,4.87-4.12,7.25-.66,1.09-1.7,1.51-3.13.62-.56-3.25,1.72-5.57,3.25-7.98,2.16-3.4,3.6-7.01,4.47-10.87.56-2.48.87-5.02,1.33-7.53,1.52-8.18,3.06-16.36,4.66-24.91-1.28-1.39-2.61-2.85-4.47-4.87-1.13,2.76-1.95,4.84-2.83,6.89-1.64,3.82-3.31,7.64-4.98,11.44-.28.63-.88,1.21-.93,1.84-.76,9.43-6.34,17.93-4.74,27.59-3.1.55-3.97.18-3.91-1.55.08-2.54.31-5.09.6-7.61.34-2.98.82-5.95,1.22-8.8-1.79-1.18-3.02-.22-3.91.73-2.89,3.12-6.41,5.16-10.22,6.91-2.56,1.18-4.64,3.04-5.51,5.95-.25.82-.85,1.54-1.2,2.13-2.22.28-2.97-.81-2.74-2.41.4-2.86,1.93-5.19,4.05-7.11.85-.77,1.79-1.57,2.83-2,5.7-2.31,9.78-6.94,14.79-10.22.96-.63,1.98-1.31,2.63-2.22,5.68-7.79,10.06-16.1,10.38-26.06.05-1.6-.62-2.61-1.45-3.71-.89-1.18-1.42-2.45-.39-3.77.73-.94,2.34-.24,3.9,1.65.59.71,1.19,1.43,1.74,2.18.96,1.31,1.74,2.79,2.87,3.93,1.91,1.94,3.16,4.61,6.08,5.86.7-1.03,1.34-1.96,1.97-2.9.77-1.16,1.31-2.57,2.32-3.45,7.54-6.54,15.11-13.06,25.3-15.2.64-.14,1.38-.06,2.02.11.38.1.89.53.93.87.08.61.07,1.48-.29,1.85-.61.62-1.49,1.09-2.34,1.33-6.33,1.83-11.82,5.17-17.13,9-4.54,3.27-7.62,7.34-9.2,13.3Z"/>
        <g>
          <path class="cls-4" d="m286.55,633.19c2.67,2.76,4.72,5.07,6.97,7.16,2.84,2.63,5.04,5.54,6.33,9.31.73,2.12,2.64,3.82,3.86,5.81.24.39-.17,1.31-.49,1.85-.17.29-.88.5-1.23.39-.88-.28-1.9-.58-2.51-1.21-1.15-1.18-2.35-2.46-3.01-3.93-4.56-10.26-12.93-16.06-22.96-19.99-.44-.17-.89-.32-1.17-.42-6.12,2.28-12.07,4.59-18.1,6.71-2.82.99-4.75.38-4.79-1.12-.06-2.36,1.96-2.34,3.46-2.83,2.26-.75,4.53-1.47,6.82-2.12,6.67-1.88,12.1-5.72,16.08-11.23,4.02-5.56,7.45-11.55,11.11-17.29-1.69-2.76-3.07-5.23-4.66-7.55-3.69-5.4-4.06-11.58-4.24-17.78-.03-1.09.55-2.29,1.12-3.28.27-.47,1.23-.87,1.79-.78.55.09,1.29.78,1.41,1.33.24,1.13.18,2.34.14,3.51-.19,5.35,1.15,10.38,3.22,15.23.74,1.74,1.59,3.49,4.03,3.85,2.67-2.38,3.82-5.84,5.47-8.91.57-1.05.31-2.8-.1-4.05-.43-1.3-1.69-2.31-2.26-3.6-1.06-2.36-2.02-4.79-2.76-7.27-.35-1.18.26-2.49,1.58-2.82,1.35-.34,2.39.49,2.44,1.86.13,3.52,2.01,6.17,4.38,9.98.37-4.15-.46-7.04-.79-9.93-.35-2.98.13-5.72,1.88-8.14.88-1.22,2.12-1.93,4.06-.59-.93,3.9-3.59,8-.93,12.93,1.84-1.78,3.4-3.11,4.75-4.63,4.48-5.04,9.77-9.03,15.66-12.24,1.23-.67,2.62-1.13,3.99-1.42.47-.1,1.41.49,1.6.97.19.49-.13,1.36-.51,1.84-.42.53-1.15.8-1.76,1.17-2.03,1.24-4.06,2.49-6.1,3.7-5.62,3.34-9.85,8.01-13.7,14.01,1.27.2,2.12.54,2.9.42,4.23-.64,8.44-1.44,12.67-2.1,4.42-.69,7.86,1.24,10.73,4.37.36.4.46,1.68.17,1.91-.61.48-1.98,1-2.31.7-4.51-4.1-9.73-3.23-14.88-2.17-3.71.77-7.42,1.77-10.95,3.12-3.09,1.18-5.87,3.07-6.91,6.44.95,2.09,2.75,2.09,4.33,2.26,6.87.77,13.75,1.42,20.57-.45.46-.12,1.03-.41,1.37-.25.77.37,1.87.88,1.99,1.51.12.59-.74,1.91-1.34,2.02-5.83,1.08-11.64,2.5-17.68,1.56-3.05-.48-6.15-.67-9.24-.91-.91-.07-1.87.09-2.77.32-.35.09-.73.64-.82,1.04-.08.4.05,1.12.32,1.28,1.21.69,2.48,1.64,3.79,1.73,4.49.33,9,.52,13.5.42,3.56-.08,7.1-.74,10.66-.98,1.05-.07,2.14.44,3.53.75-.63.99-.93,2-1.36,2.06-9.62,1.3-19.2,3.72-28.97,1.12-1.59-.42-3.21-.72-4.57-1.03-2.31,1.62-4.34,3.42-3.53,5.96.93,2.91,3.9,1.78,6.15,2.07,7.04.92,14.17-.03,21.22,1.91,6.99,1.93,13.46,4.38,18.91,9.14.23,1.97-.78,2.99-2.46,2.38-1.98-.72-3.82-1.92-5.59-3.11-6.58-4.4-13.95-5.81-21.68-6.03-6.86-.19-13.72-.45-21.07-.7-.3.84-.76,2.09-1.28,3.56,3.65,2.33,7.52,2.53,11.21,2.72,7.26.36,14.02,2.55,20.75,4.93,2.19.78,4.22,2.13,6.15,3.47.44.31.4,1.68.17,2.45-.11.36-1.23.69-1.8.57-.9-.18-1.75-.7-2.57-1.16-5.49-3.06-11.56-4.3-17.62-5.56-.6-.12-1.3.26-2.52.54,3.1,4.55,6.72,8.18,10.25,11.88,1.64,1.72,3.31,3.43,4.71,5.33.65.88.78,2.19.97,3.34.05.3-.46.83-.83,1.04-.36.2-1,.32-1.3.12-.77-.5-1.46-1.14-2.1-1.81-4.28-4.47-8.51-8.98-12.8-13.44-1.99-2.07-4.17-3.78-8.15-3.25Z"/>
          <path class="cls-4" d="m283.06,609.16c-1.57-.49-2.5-.48-2.81-.92-3.84-5.39-7.67-10.8-9.7-17.2-.27-.84-.27-1.95.07-2.73.28-.63,1.26-.95,2.49-1.8,1.47,8.32,7.94,13.77,9.96,22.65Z"/>
        </g>
      </g>
    </g>
  </g>
</svg>