<svg xmlns="http://www.w3.org/2000/svg" xmlns:xlink="http://www.w3.org/1999/xlink" width="540.76" height="249.51" viewBox="0 0 540.76 249.51"><defs><clipPath id="a"><rect width="540.76" height="249.51" fill="none"/></clipPath></defs><g clip-path="url(#a)"><path d="M85.74,249.51a66.6,66.6,0,0,1,133.2,0h80.65c0-81.19-66.05-147.24-147.24-147.24S5.1,168.32,5.1,249.51H85.75Z" fill="#60aaa9"/><path d="M298.45,249.51a66.6,66.6,0,0,1,133.2,0H512.3c0-81.19-66.05-147.24-147.24-147.24S217.82,168.32,217.82,249.51h80.65Z" fill="#60aaa9"/><path d="M346.36,186.95h0c.18-.26.34-.54.52-.8l2.46-3.51c.86-1.23,1.71-2.47,2.59-3.68a45.353,45.353,0,0,1,4.31-5.18c.62-.63,1.2-1.32,1.79-1.98a.6.6,0,0,1,.08-.08c.56-.5,1.09-1.04,1.68-1.49a36.315,36.315,0,0,1,3.07-2.18c.7-.43,1.4-.87,2.12-1.26a25.179,25.179,0,0,1,4.01-1.77c.51-.17,1.01-.36,1.51-.55,1.31-.49,2.68-.76,4.02-1.14a16.53,16.53,0,0,1,4.14-.51,14.242,14.242,0,0,1,3.27.45c.13.18.23.32.37.51-.04.29-.09.6-.14.93a9.673,9.673,0,0,1-1.05,1.07,8.221,8.221,0,0,1-2.16,1.39,17.7,17.7,0,0,1-3.58,1.68c-1.23.56-2.48,1.09-3.72,1.64-.62.28-1.23.57-1.84.86a1.556,1.556,0,0,0-.28.16c-1.25.91-2.67,1.55-3.87,2.53q-1.125.915-2.22,1.86a.68.68,0,0,0-.32.63c.12.18.31.16.48.15.93-.07,1.86-.15,2.78-.21a6.6,6.6,0,0,1,.89,0c-.04.15-.03.26-.09.33a1.7,1.7,0,0,1-.31.29,27.167,27.167,0,0,0-3.65,3.46,11.4,11.4,0,0,0-2.02,3.02,30.568,30.568,0,0,0-1.66,4.42,13.88,13.88,0,0,0-.33,1.8c-.08.6-.13,1.21-.15,1.82a1.388,1.388,0,0,0,.32,1.21,1.1,1.1,0,0,0,.92.07,8.046,8.046,0,0,0,1.79-.71c.42-.26.89-.44,1.31-.72a12.014,12.014,0,0,0,2.73-2.4,1.148,1.148,0,0,1,.8-.53c.22.64-.26,1.35.17,2.01a4.725,4.725,0,0,0,2.64-1.72,12.852,12.852,0,0,0,1-1.52c.88-1.56,1.79-3.1,2.67-4.65a10.286,10.286,0,0,1,1.24-1.61,1.263,1.263,0,0,1,.53-.35,2.674,2.674,0,0,1,.66-.07,1.705,1.705,0,0,1,.17.41,3.416,3.416,0,0,1-.12,1.27,19.551,19.551,0,0,0-.59,5.22,6.786,6.786,0,0,0,.64,2.47c.02.06.1.1.19.18a13.939,13.939,0,0,0,2.62-5.07,18.694,18.694,0,0,0,.3-2.03c.15-.05.22.09.25.21.18.99.34,1.97.52,3.04.12.02.32.06.56.1a4.688,4.688,0,0,0,1.02-2.1,8.616,8.616,0,0,0,.06-2.68,14.172,14.172,0,0,1,.18-3.85,17.725,17.725,0,0,1,1.55-5.02,11.811,11.811,0,0,1,1.44-2.12,7.217,7.217,0,0,1,1.67-1.5,2.336,2.336,0,0,1,2.13-.41c.17.05.34.1.53.16.06.18.11.35.17.51s.11.34.17.51a6.314,6.314,0,0,1-.72,2.35c-.51.99-.91,2.02-1.34,3.05a11.693,11.693,0,0,0-.74,3.35,2.354,2.354,0,0,0,.11,1.08c.09.04.18.07.27.11.64-.58,1.01-1.43,1.85-1.76.34.02.42.24.42.51a1.964,1.964,0,0,1-.45,1.08,7.117,7.117,0,0,0-.76,1.41,10.226,10.226,0,0,0-.6,3.37,6.714,6.714,0,0,0,.3,2.44,5.22,5.22,0,0,0,.3.57c.6-.06.91-.6,1.38-.75a.48.48,0,0,1,.42.34,19.084,19.084,0,0,0,2.08,3.98.88.88,0,0,1,.16.28,3.238,3.238,0,0,0,1.4,1.69c.02.02.07.01.11.02.19,0,.21-.16.28-.28a17.568,17.568,0,0,0,1.31-2.94,7.959,7.959,0,0,0,.27-2.66,13.023,13.023,0,0,0-.39-2.98,4.453,4.453,0,0,0-.51-1.29c-.31-.51-.54-1.07-.8-1.61a.532.532,0,0,1,.52.1,8.833,8.833,0,0,1,2.28,2.4,4.276,4.276,0,0,0,.72.94c.1-.1.22-.16.24-.24a4.112,4.112,0,0,0-.06-2.43,6.593,6.593,0,0,0-.94-1.92c-.26-.34-.49-.71-.75-1.05a10.483,10.483,0,0,1-1.11-2.19,10.161,10.161,0,0,1-.23-6.94c.04-.14.07-.28.1-.42a2.845,2.845,0,0,1,.75-1.52,13.833,13.833,0,0,1,1.18-1.24,4.646,4.646,0,0,1,2.57-1.03,4.68,4.68,0,0,0,1.96.4,21.57,21.57,0,0,1,2.67.28,28.744,28.744,0,0,1,4.11.82c.58.18,1.18.31,1.77.44,2.21.48,4.42.95,6.62,1.44s4.44.84,6.67,1.23a4.528,4.528,0,0,1,1.78.69c.68.46,1.38.89,2.08,1.31a9.039,9.039,0,0,1,2.71,2.55q1.89,2.625,3.8,5.23a6.383,6.383,0,0,1,.82,1.33c-.59.06-1.09-.17-1.61-.14s-1.07-.05-1.61-.04-1.07.08-1.61.11a2.691,2.691,0,0,0-1.53.33.478.478,0,0,0,.05.7c.69.53,1.11,1.3,1.75,1.89a7.343,7.343,0,0,1,1.52,2.05c-.17.2-.27.02-.37-.02-.4-.16-.78-.36-1.18-.51a7.694,7.694,0,0,0-3.72-.25,18.579,18.579,0,0,0-5.72,1.74c-.51.25-.96.61-1.49.84a13.569,13.569,0,0,1-1.49.59,2.964,2.964,0,0,0-.49.2c-.06.03-.09.1-.14.15a.444.444,0,0,0,.23.45c.78.56,1.58,1.1,2.36,1.67a5.811,5.811,0,0,0,1.83.87c.86.26,1.73.48,2.59.7a3.855,3.855,0,0,0,1.9-.12l.02.48a4.3,4.3,0,0,1-1.03.88,2.6,2.6,0,0,0-1,1.08.426.426,0,0,0,.33.38c.58.19,1.15.4,1.74.56,1.18.31,2.35.66,3.55.88a9.37,9.37,0,0,0,4.67-.22c.71-.23,1.45-.39,2.18-.56a4.109,4.109,0,0,1,1.71.04.941.941,0,0,1,.74.6,1.947,1.947,0,0,1-.14,1.03,1.581,1.581,0,0,1-.55.78,6.628,6.628,0,0,1-1.29.76c-.93.37-1.88.67-2.82,1.01a6.326,6.326,0,0,0-1.91.95,1.75,1.75,0,0,0-.66,1.19.485.485,0,0,0,.26.49,3.466,3.466,0,0,0,.36-.08,55.731,55.731,0,0,1,6.53-1.26,3.454,3.454,0,0,1,1.97.16,6.056,6.056,0,0,1,1.33,2.42c.22.15.48.33.69.47a.524.524,0,0,0,.59-.46,4.581,4.581,0,0,0,.03-.74c0-.43,0-.86-.04-1.28a2.469,2.469,0,0,1,.57-1.68,7.263,7.263,0,0,1,2.77-2.3,5.478,5.478,0,0,0,.74-.43,1.988,1.988,0,0,1,1.01-.36,3.245,3.245,0,0,1,.89.73c.71.7,1.28,1.54,2.03,2.2a4.411,4.411,0,0,1,.47.58,4.136,4.136,0,0,0,.87.95.608.608,0,0,1,.22.23c.6.9,1.41,1.62,2.08,2.46.35.45.77.84,1.15,1.27a6.092,6.092,0,0,0,1.08,1.19.539.539,0,0,1,.14.16,22.835,22.835,0,0,0,2.52,2.78,1.221,1.221,0,0,1,.2.25,30.988,30.988,0,0,0,2.54,3.06c.86.97,1.62,2,2.42,3.02.33.42.72.79,1.06,1.2a13.488,13.488,0,0,0,1.07,1.2c.6.56,1.09,1.23,1.66,1.82a25.9,25.9,0,0,0,1.84,1.94c.06.05.1.1.15.15.67.79,1.34,1.58,2.01,2.38.73.88,1.4,1.82,2.21,2.62a21.128,21.128,0,0,0,1.81,1.97,1.033,1.033,0,0,1,.21.25,26.72,26.72,0,0,0,2.03,2.35c.52.63,1.14,1.18,1.7,1.78.17.18.31.4.47.59a8.932,8.932,0,0,0,1.33,1.55,1.567,1.567,0,0,1,.34.42c.57.88,1.38,1.55,2.02,2.37a4.877,4.877,0,0,0,.7.66c.95.81,1.84,1.69,2.82,2.46a24.437,24.437,0,0,1,2.58,2.4c.74.78,1.38,1.64,2.04,2.49.33.42.71.8,1.06,1.2a5.6,5.6,0,0,0,1.01,1.11,1.762,1.762,0,0,1,.35.41,4.357,4.357,0,0,0,2.18,1.67,5.238,5.238,0,0,1,.68.31,3.7,3.7,0,0,0,2.24-.96.692.692,0,0,0,.35-.66c-.22-.23-.46-.49-.69-.75-.21-.25-.39-.52-.6-.76-.6-.71-1.22-1.4-1.89-2.05a2.5,2.5,0,0,1-.23-.23c-.63-.73-1.25-1.47-1.89-2.19-.4-.45-.81-.9-1.25-1.33-.76-.75-1.54-1.49-2.31-2.22-.68-.63-1.37-1.25-2.05-1.88a16.673,16.673,0,0,1-1.51-1.52,14.553,14.553,0,0,0-1.34-1.38c-.77-.74-1.6-1.42-2.32-2.21-.48-.53-1.03-.99-1.52-1.5-.32-.34-.59-.72-.86-1.07-.17-1.06-.35-2.08-.5-3.11-.3-2.09-.84-4.13-1.34-6.18a38.819,38.819,0,0,0-1.72-5.18c-.85-2.08-1.67-4.17-2.52-6.25a54.547,54.547,0,0,1-2.1-5.95,24.284,24.284,0,0,1-.89-6.68,13.037,13.037,0,0,1,.12-1.39,6.47,6.47,0,0,1,4.84-2.67,9.422,9.422,0,0,1,4.04.43c.3.11.59.25.9.36a3.743,3.743,0,0,0,2.4.2c.75-.79.31-1.62.13-2.42a.564.564,0,0,1,.63-.05,8.794,8.794,0,0,0,5.08-.13c1.07-.29,2.12-.62,3.17-.98a19.544,19.544,0,0,1,2.27-.63,9.085,9.085,0,0,0,1.42-.47,1.657,1.657,0,0,0,.45-.34.587.587,0,0,0-.15-.66,8.834,8.834,0,0,0-5.13-2.89,3.96,3.96,0,0,1-.52-.12,5.464,5.464,0,0,0-2.54-.25,5.477,5.477,0,0,1-1.07-.04,9.479,9.479,0,0,0-2.42-.21c-.07-.11-.1-.17-.16-.27a15.8,15.8,0,0,1,1.44-1.39c.51-.39,1.07-.72,1.5-1.12.02-.26-.11-.31-.26-.35a2.525,2.525,0,0,0-1.06-.05,7.316,7.316,0,0,0-2.78,1.07,18.142,18.142,0,0,0-1.86,1.29,13.1,13.1,0,0,1-3.3,1.76,6.135,6.135,0,0,0-.59.25,7.8,7.8,0,0,1-2.8.66,1.337,1.337,0,0,1-.62-.11c-.3-.12-.58-.28-.79-.38a2.756,2.756,0,0,1-.65-1.53,2.949,2.949,0,0,1,1.04-1.47c1.09-.83,2.18-1.65,3.33-2.37a11.469,11.469,0,0,1,2.16-.91c1.58-.57,3.17-1.1,4.76-1.64.71-.24,1.43-.45,2.13-.71a9.7,9.7,0,0,0,2.02-.99,5.136,5.136,0,0,1,.66-.34c.16-.08.36-.14.45-.28a8.149,8.149,0,0,1,1.27-1.15,1.563,1.563,0,0,0,.48-.82.66.66,0,0,0-.24-.76c-.41-.24-.85-.01-1.32-.1.04-.15.03-.31.11-.4.3-.36.61-.69.93-1.03.34-.37.71-.7,1.03-1.09a3.873,3.873,0,0,0,.69-1.2,20.933,20.933,0,0,0,.86-3.22c.03-.2.11-.43-.15-.59a1.138,1.138,0,0,0-.75.53c-.26.34-.51.69-.74,1.05a4.731,4.731,0,0,1-1.31,1.4,4.993,4.993,0,0,0-.51.4,9.642,9.642,0,0,1-4.09,1.79,5.411,5.411,0,0,1-3.28-.17c-.17-.07-.34-.11-.52-.17a1.758,1.758,0,0,1,.24-1.82,12.136,12.136,0,0,1,1.04-1.35,9.949,9.949,0,0,1,2.11-1.82,2.981,2.981,0,0,0,.88-.78,1.443,1.443,0,0,1,.33-.27c.14-.11.29-.22.44-.32a12.042,12.042,0,0,0,3.1-2.94c.23-.31.5-.61.72-.93a3.723,3.723,0,0,0,.28-.6,2.957,2.957,0,0,0-2.79-.59c.04-.19.02-.36.1-.44.64-.72,1.18-1.52,1.83-2.23a14.174,14.174,0,0,0,1.45-1.98c.48-.75.9-1.54,1.35-2.32a4.283,4.283,0,0,0,.19-.42c-.07-.15-.15-.31-.23-.47a6.475,6.475,0,0,0-3.52.01,10.2,10.2,0,0,0-3.19,1.48c-.8.54-1.56,1.15-2.37,1.68a17.234,17.234,0,0,0-2.18,1.91,23.228,23.228,0,0,0-3.45,4.08c-.6.89-1.17,1.8-1.75,2.7a5.785,5.785,0,0,1-.5.69.879.879,0,0,1-.75.4c-.04-.08-.13-.17-.13-.26a2.855,2.855,0,0,1,.32-1.24,27.418,27.418,0,0,1,1.85-3.02c.24-.36.46-.73.66-1.1a.958.958,0,0,0,.04-.37.529.529,0,0,0-.64-.09,2.671,2.671,0,0,0-.88.38,23.082,23.082,0,0,0-2.39,1.81,11.277,11.277,0,0,0-2.3,3.2c-.2.38-.39.76-.61,1.14a15.426,15.426,0,0,0-1.39,3.6c-.15.55-.32,1.1-.48,1.65-.06.21-.12.41-.17.62-.37,1.57-.72,3.15-1.12,4.71-.33,1.25-.72,2.48-1.1,3.71a4.274,4.274,0,0,1-1.02,1.64c-.31.14-.64.28-1,.43a1.624,1.624,0,0,1-1.24-.71c-.15-.2-.29-.41-.44-.61a2.705,2.705,0,0,1-.6-1.47c-.05-.43-.17-.84-.24-1.27a6.942,6.942,0,0,1-.07-2.57,10.247,10.247,0,0,1,.38-1.34,24.294,24.294,0,0,1,3.77-6.95,9.555,9.555,0,0,1,1.74-1.74,4.5,4.5,0,0,0,1.38-1.88,1.327,1.327,0,0,0,.01-1.24c-.36-.31-.85-.14-1.3-.37a1,1,0,0,1-.17-.42.7.7,0,0,1,.23-.46,14.024,14.024,0,0,1,2.48-1.71,25.769,25.769,0,0,0,3.04-2.18,12.147,12.147,0,0,0,2.58-3.39,33.3,33.3,0,0,0,2.06-4.25,1.323,1.323,0,0,0,.03-.96c-.11-.06-.23-.13-.34-.19-.68-.13-1.34.33-2.01.03a1.336,1.336,0,0,1,.26-.94,36.819,36.819,0,0,1,2.34-3.46q2.145-2.745,4.28-5.49a3.268,3.268,0,0,0,.72-1.3,1,1,0,0,0-.15-.88,4.421,4.421,0,0,0-2.35-.34,10.795,10.795,0,0,0-4.62,1.88c-.5.34-1.02.65-1.55.96a8.356,8.356,0,0,0-2.14,1.61,2.643,2.643,0,0,1-.39.36,15.735,15.735,0,0,0-2.44,2.25,3.665,3.665,0,0,1-.87.69.377.377,0,0,1-.39-.37c-.03-.71-.06-1.43-.03-2.15a17.2,17.2,0,0,0-.03-2.15,2.092,2.092,0,0,0-1.87.2c-.27.17-.57.29-.9.46a10.174,10.174,0,0,1-.74.7,12.276,12.276,0,0,0-4.2,6.57c-.3,1.22-.58,2.44-.87,3.66a2.466,2.466,0,0,1-.1.29c-.2.11-.28-.04-.34-.14a4.118,4.118,0,0,1-.32-.67c-.13-.33-.23-.67-.34-.98a.95.95,0,0,0-1.16.39,3.138,3.138,0,0,0-.59,1.25,9.359,9.359,0,0,0-.15,3.42,19.851,19.851,0,0,1,.29,2.78,3.635,3.635,0,0,1-.48,1.84c-.18.35-.42.67-.63,1a2.042,2.042,0,0,0-.81.52c-.3-.1-.6-.21-.82-.29a3.512,3.512,0,0,1-.92-3.15,22.849,22.849,0,0,1,.57-3.39c.14-.52.21-1.06.3-1.59.14-.81.25-1.63.4-2.44a16.56,16.56,0,0,0,.22-4.5,13.771,13.771,0,0,0-.5-3.06,2,2,0,0,0-.62-1.04.492.492,0,0,0-.54.35.58.58,0,0,1-.53.35,10.077,10.077,0,0,1-.29-1.8,12.5,12.5,0,0,0-1.15-3.99,23.749,23.749,0,0,0-2.82-4.18,9.881,9.881,0,0,0-1.19-1.23.8.8,0,0,0-.81-.29c-.32,1.52-.39,3.1-.63,4.6-.28.19-.39.04-.47-.12-.27-.58-.55-1.16-.77-1.77a13.58,13.58,0,0,0-1.93-3.45c-.62-.84-1.24-1.68-1.88-2.49-.4-.5-.89-.92-1.26-1.45a6.785,6.785,0,0,0-1.2-1.37,9.1,9.1,0,0,1-.68-.83c-.38-.42-.78-.83-1.19-1.23a1.549,1.549,0,0,0-.43-.24.729.729,0,0,0-.68.51,5.571,5.571,0,0,0-.37,1.89c-.04.61,0,1.22,0,1.83,0,.47,0,.93-.02,1.4a1.889,1.889,0,0,1-.37,1.1.568.568,0,0,1-.68-.17c-.39-.37-.76-.76-1.15-1.12a2.2,2.2,0,0,0-.51-.25c-.06.19-.16.32-.15.44a14.989,14.989,0,0,0,.9,4.4c.41.99.75,2,1.24,2.96a2.66,2.66,0,0,1,.36,1.34c0,.18-.02.36-.22.45-.63-.12-1-.81-1.64-.8-.21.14-.16.29-.15.43a8.45,8.45,0,0,0,.6,2.16c.34.94.77,1.84,1.13,2.78a10.564,10.564,0,0,1,.77,3.33,6.31,6.31,0,0,1-.06.81,2.382,2.382,0,0,1-.52-.22,4.46,4.46,0,0,1-.49-.57,8.944,8.944,0,0,0-3.24-2.58,1.771,1.771,0,0,0-1.05-.26c-.21.9.67,1.58.52,2.47a.865.865,0,0,1-.33-.03,11.623,11.623,0,0,1-3.03-2.18l-1.18-1.15c-.13.13-.28.2-.31.31a1.336,1.336,0,0,0-.03.53,15.936,15.936,0,0,0,.51,2.74,27.955,27.955,0,0,0,1.16,3.45,7.977,7.977,0,0,0,1.45,2.49c.59.61,1.23,1.19,1.87,1.76.5.45,1.04.86,1.56,1.31a1.606,1.606,0,0,1,.21.4c-.31.12-.57.22-.85.33-.02.09-.09.2-.07.29.07.27.18.54.26.76a12.5,12.5,0,0,0,3.11,2.16,47.2,47.2,0,0,1,5.62,3.73,11.716,11.716,0,0,1,2.21,2.01c.17.22.43.38.61.6a10,10,0,0,1,1.24,2.24,1.4,1.4,0,0,1,.07.4,1.018,1.018,0,0,1-.64.55,4.64,4.64,0,0,1-2.24-.99c-1.46-1.15-2.92-2.29-4.36-3.46a14.9,14.9,0,0,0-2.02-1.41,28.457,28.457,0,0,0-3.38-1.64,3.231,3.231,0,0,0-1.41-.28.427.427,0,0,0-.18.52,3.694,3.694,0,0,0,.47,1.08,6.164,6.164,0,0,1,.94,1.82c-.19.14-.32-.04-.42-.12a10.6,10.6,0,0,0-4.35-1.75c-.56-.11-1.13-.22-1.69-.32a1.6,1.6,0,0,0-1.12.14,1.144,1.144,0,0,0,.25.94c.3.4.6.81.89,1.22.1.14.17.3.29.51a14.913,14.913,0,0,1-1.97-.2,10.516,10.516,0,0,0-1.88.27,5.144,5.144,0,0,1-1.25-1.21,3.905,3.905,0,0,0-.86-.96,2.641,2.641,0,0,1-.48-.57,13.055,13.055,0,0,0-1.72-2.06,2.908,2.908,0,0,1-.4-.51,18.328,18.328,0,0,0-1.64-1.98,25.647,25.647,0,0,0-1.67-1.95,2.313,2.313,0,0,1-.34-.42c-.68-.92-1.37-1.85-2.05-2.77a4.842,4.842,0,0,0-.84-.97,3.769,3.769,0,0,1-.61-.75,16.409,16.409,0,0,0-1.38-1.64,13.776,13.776,0,0,1-1.32-1.7,3.272,3.272,0,0,0-.78-.88,1.706,1.706,0,0,1-.35-.4,8.853,8.853,0,0,0-1.47-1.7,2.65,2.65,0,0,1-.33-.42c-.33-.38-.63-.77-.99-1.12a12.12,12.12,0,0,1-1.14-1.43,5.4,5.4,0,0,0-.78-.88,6.767,6.767,0,0,1-.74-.92,13.457,13.457,0,0,0-1.71-2.06,3.931,3.931,0,0,1-.67-.84,2.985,2.985,0,0,1-.3-.68,4.518,4.518,0,0,1-.11-.53c-.36-2.04-.79-4.07-1.24-6.1-.08-.38-.07-.78-.13-1.16-.11-.63-.25-1.26-.36-1.9-.32-1.94-.72-3.87-.89-5.84a.488.488,0,0,0-.03-.21,12.594,12.594,0,0,1-.42-3.51,13.289,13.289,0,0,1,0-2.36c.11-1,.08-2,.12-3a3.488,3.488,0,0,1,.12-.85c.36-1.27.74-2.54,1.11-3.81a.678.678,0,0,1,.07-.2,23.283,23.283,0,0,1,1.55-2.7,8.708,8.708,0,0,1,1.64-1.68,8.993,8.993,0,0,1,3.9-1.92,6.856,6.856,0,0,1,3.4.22,9.516,9.516,0,0,0,4.76.37,21.75,21.75,0,0,0,4.34-1.17c.56-.22,1.13-.45,1.69-.65.7-.25,1.04-.84,1.52-1.31.11-.11.12-.33.16-.44a1.3,1.3,0,0,0-.5-.87,17.025,17.025,0,0,1-3.13-1.08c-.14-.46.08-.7.52-.9.39,0,.85,0,1.31-.04.71-.04,1.44-.05,2.14-.16a5.575,5.575,0,0,0,2.47-.97c.38-.28.75-.55,1.14-.82A2.423,2.423,0,0,0,425.5,89a.484.484,0,0,0-.29-.42,3.577,3.577,0,0,0-1.87-.4,7.788,7.788,0,0,1-1.18-.07,1.644,1.644,0,0,1-1.31-.99c-.02-.05.02-.13.05-.25.12,0,.26-.03.39-.02a9.857,9.857,0,0,0,3.2-.28,7,7,0,0,0,2.33-1.05q1.155-.795,2.28-1.62a11.017,11.017,0,0,0,1.71-1.77,18.191,18.191,0,0,0,2.64-3.76,1.082,1.082,0,0,0,.14-.99,4.378,4.378,0,0,0-3.46-.86,14.252,14.252,0,0,0-3.78,1.15,21.691,21.691,0,0,0-3.79,2.21A18.379,18.379,0,0,1,420.55,81c-.23-.05-.29-.19-.25-.32.14-.48.31-.95.47-1.43.13-.37.27-.74.39-1.12a2.816,2.816,0,0,0,.05-.43c-.11-.15-.21-.29-.3-.41a1.4,1.4,0,0,0-1.08-.03,15.09,15.09,0,0,0-3.53,1.51c-.33.21-.7.36-1.04.55a7.938,7.938,0,0,0-1.75,1.57,16.1,16.1,0,0,0-2.48,3.21,9.417,9.417,0,0,1-.76,1.03,1.243,1.243,0,0,1-.79.54c-.04-.1-.12-.2-.1-.28a4.068,4.068,0,0,1,.27-.92c.27-.54.57-1.08.89-1.59a7.353,7.353,0,0,0,.66-1.46.472.472,0,0,0-.17-.52,3.529,3.529,0,0,0-1.82.39,16.093,16.093,0,0,0-3.13,1.64,1.877,1.877,0,0,1-.18.12,4.536,4.536,0,0,0-2.22,2.08c-.38.56-.71,1.16-1.04,1.75a5.29,5.29,0,0,1-1.9,2,.441.441,0,0,1-.58.01c.03-.11.05-.21.07-.31-.11-.09-.21-.18-.32-.26a1.794,1.794,0,0,1-.02-.22,15.171,15.171,0,0,1,1.32-3.51,12.866,12.866,0,0,1,.88-1.34,15.25,15.25,0,0,1,1.78-1.99,17.98,17.98,0,0,1,2.51-2.01,10.169,10.169,0,0,1,1.64-1.01,11.666,11.666,0,0,0,1.7-1.13c.68-.47,1.35-.96,2.02-1.44a24.285,24.285,0,0,0,2.38-2.16,20.6,20.6,0,0,0,1.74-1.88,12.112,12.112,0,0,0,2.07-3.86,2.1,2.1,0,0,0,.09-.42c.02-.1,0-.21.01-.38a1.915,1.915,0,0,0-.48-.32,1.672,1.672,0,0,0-.63.01c-.27.04-.53.12-.8.18a.526.526,0,0,1,.16-.52,9.7,9.7,0,0,0,1.15-1.41,11.37,11.37,0,0,0,1.48-3.32,33.339,33.339,0,0,0,1.04-5.17,2.838,2.838,0,0,0-.08-1.19,1.6,1.6,0,0,0-1.44-.14c-.61.2-1.21.44-1.81.65a5.868,5.868,0,0,0-1.5.81c-.97.69-1.93,1.37-2.89,2.07a4.606,4.606,0,0,0-1.27,1.14c-.84.62-1.67,1.25-2.52,1.84-.14.1-.4.04-.62.06a1.548,1.548,0,0,1,.48-1.59,15.593,15.593,0,0,1,1.97-1.66,11,11,0,0,0,3.78-5.09c.21-.61.33-1.25.49-1.87-.06-.1-.12-.19-.17-.27-.09,0-.17-.03-.22,0a4.744,4.744,0,0,1-2.51.85c.25-.58.5-1.16.74-1.75a4.756,4.756,0,0,0,.19-.61c.26-1.04.52-2.09.78-3.13a7.608,7.608,0,0,0,.19-.95,17.242,17.242,0,0,1,.9-3.31c.24-.68.48-1.35.7-2.03a4.842,4.842,0,0,0,.24-1.32c-.3.03-.54.03-.78.08-.35.06-.69.18-1.04.23a17.243,17.243,0,0,0-4.22,1.2,2.707,2.707,0,0,0-.39.17,25.983,25.983,0,0,0-3.35,2.13,3.641,3.641,0,0,0-.69.67c-.58.77-1.23,1.49-1.8,2.26a19.219,19.219,0,0,0-1.06,1.74c-.2.34-.36.7-.56,1.04a2.222,2.222,0,0,1-.32.36c-.32-.05-.4-.26-.47-.46a10.42,10.42,0,0,1-.49-2.41,7.6,7.6,0,0,0-.1-.85,2.269,2.269,0,0,0-.27-.5,2.383,2.383,0,0,0-.41.15c-.3.19-.59.41-.89.61a3.447,3.447,0,0,0-.82.84,20.814,20.814,0,0,0-1.61,2.53,11.964,11.964,0,0,0-1.28,4.96c-.06.93-.05,1.86-.09,2.79a2.794,2.794,0,0,1-.47,1.53c-.41.3-.83.11-1.21-.07a6.388,6.388,0,0,1-1.5-1.2.568.568,0,0,1-.12-.18,13.47,13.47,0,0,1-1.56-3.97c-.11-.81-.32-1.6-.48-2.39a.654.654,0,0,0-.56.34c-.35.58-.72,1.15-1.03,1.76a16.265,16.265,0,0,0-1.29,3.64,11.986,11.986,0,0,0-.08,4.81c.12.67.27,1.33.4,2,.07.38.13.77.19,1.14-.1.06-.16.09-.22.12a.576.576,0,0,1-.36-.37c-.22-.49-.39-1-.63-1.47-.12-.23-.22-.54-.59-.58a1.885,1.885,0,0,0-.44,1.28,4.3,4.3,0,0,0,.11,1.28,26.29,26.29,0,0,0,1.26,3.98c.27.62.55,1.23.85,1.85.32.68.77,1.29,1.12,1.95a18.981,18.981,0,0,1,2.1,4.9,22.534,22.534,0,0,1,.53,2.3,31.432,31.432,0,0,1,.22,5.9,9.345,9.345,0,0,1-.49,2.09,1.562,1.562,0,0,1-.7.93,2.574,2.574,0,0,0-.74.73,2.07,2.07,0,0,1-1.91-.82,8.85,8.85,0,0,1-1.81-3.02q-.825-2.43-1.6-4.88a40.618,40.618,0,0,0-1.48-4.13,6.4,6.4,0,0,0-.54-1.04c-.47-.68-.96-1.35-1.44-2.02a.592.592,0,0,0-.69-.29,1.747,1.747,0,0,0-.24,1.09c-.03.36-.05.71-.09,1.07-.01.09-.11.17-.15.24a.367.367,0,0,1-.41-.3c-.3-.8-.67-1.57-1.05-2.34a11.873,11.873,0,0,0-1.66-2.37c-.32-.38-.72-.69-1.07-1.04a11.432,11.432,0,0,0-2.17-1.55c-1.43-.87-2.84-1.79-4.23-2.74a3.084,3.084,0,0,0-.55-.33,1.762,1.762,0,0,0-.44-.07,4.6,4.6,0,0,0-.9,2.61,1.669,1.669,0,0,1-.02.32,9.383,9.383,0,0,0,.65,4.94c.28.73.56,1.47.82,2.21a6.762,6.762,0,0,1,.17.74c-1.07-.33-1.6-1.39-2.62-1.72a1.267,1.267,0,0,0-.64,1.18,21.2,21.2,0,0,0,.12,2.25,2.005,2.005,0,0,0,.35.89,9.937,9.937,0,0,0,2.11,2.42c.8.65,1.57,1.34,2.35,2.02.27.24.3.33.31.85a.539.539,0,0,1-.55.25c-.32-.05-.63-.12-.94-.2a1.955,1.955,0,0,0-1.26-.04c-.2.54.45.8.38,1.25a11.976,11.976,0,0,0,4.6,2.56c.62.19,1.22.42,1.83.64a4.35,4.35,0,0,0,.61.2,5.053,5.053,0,0,1,1.4.53c.61.3,1.22.6,1.84.88a11.248,11.248,0,0,1,2.55,1.76c.46.4.91.8,1.37,1.19a17.883,17.883,0,0,1,3.6,4.24,5.206,5.206,0,0,1,.86,2.87c-.18.67-.79.93-1.37,1.29a4.664,4.664,0,0,1-1.37-.52c-.83-.43-1.66-.85-2.48-1.3a18.931,18.931,0,0,0-2.16-.96,12.794,12.794,0,0,0-4.19-.87c-.86-.04-1.72-.1-2.58-.08a4.261,4.261,0,0,1-.57-.06c-.16-.23-.33-.46-.5-.69-1.06-1.5-2.12-2.99-3.17-4.49-.22-.32-.37-.69-.58-1.02-.34-.55-.72-1.07-1.06-1.62-.3-.48-.57-.99-.85-1.48-.26-.47-.58-.89-.8-1.39-.27-.62-.66-1.18-.97-1.79-.29-.57-.66-1.1-.94-1.68-.26-.54-.6-1.05-.89-1.59-.37-.69-.76-1.37-1.16-2.05a21.467,21.467,0,0,1-2.23-5.19c-.16-.59-.35-1.16-.51-1.75-.25-.93-.49-1.87-.73-2.8a12.081,12.081,0,0,1-.44-2.53,16.527,16.527,0,0,0-.18-1.71,12.642,12.642,0,0,1,.29-4.16,6,6,0,0,1,.26-.82c.09-.31.2-.61.26-.93a8.364,8.364,0,0,1,2.17-4,7.428,7.428,0,0,1,2.04-1.32c.68-.39,1.44-.62,2.1-1.06a3.022,3.022,0,0,1,.58-.26,19.989,19.989,0,0,0,4.12-2.28,14.651,14.651,0,0,0,3.13-3.06c.73-.97,1.54-1.88,2.3-2.82a.356.356,0,0,0,.04-.49,1.637,1.637,0,0,0-1.02.15,28.328,28.328,0,0,1-4.09.87,12.565,12.565,0,0,1-1.5.08c-.12,0-.24-.1-.44-.19.19-.17.3-.33.46-.38a7.67,7.67,0,0,0,1.75-1.03c.51-.34.98-.73,1.5-1.06a10.764,10.764,0,0,0,3.33-3.58c.51-.82.96-1.68,1.45-2.51a3.688,3.688,0,0,0,.54-1.79c-.08-.13-.19-.31-.28-.47a6.211,6.211,0,0,0-2-.31.329.329,0,0,1-.06-.42c.2-.5.39-1,.6-1.5a10.691,10.691,0,0,0,.87-3.86c.02-.68.07-1.36.13-2.04a7.3,7.3,0,0,0-.03-1.4,2.366,2.366,0,0,0-1.8-.16,9.785,9.785,0,0,0-3.14,1.33,3.864,3.864,0,0,1-.57.3,1.791,1.791,0,0,0-.45.27c-.59.67-1.27,1.24-1.85,1.93a13.175,13.175,0,0,0-2.02,3.4,10.392,10.392,0,0,1-1,1.78,1.024,1.024,0,0,1-.28.21.353.353,0,0,1-.34-.31,10.664,10.664,0,0,1-.2-2.03,10.745,10.745,0,0,0-.16-1.27c-.02-.12-.14-.23-.21-.34a.922.922,0,0,0-.81.51,5.752,5.752,0,0,0-.51,1.06,11.68,11.68,0,0,0-.7,2.59,18.636,18.636,0,0,1-1.2,4.34,6.152,6.152,0,0,1-.37.78.56.56,0,0,1-.53.32.476.476,0,0,1-.34-.37,5.977,5.977,0,0,1-.35-1.56c-.05-.71-.12-1.42-.18-2.07-.2-.18-.35-.11-.42,0a6.836,6.836,0,0,0-.44.85,16.913,16.913,0,0,0-1.27,5.09c-.06.71-.08,1.43-.07,2.15a37.61,37.61,0,0,1-.89,8.33,9.255,9.255,0,0,1-1.69,3.57,3.141,3.141,0,0,1-1.46,1.02c-.24-.06-.33-.27-.4-.47a16.259,16.259,0,0,1-1.04-5.56c0-.47-.03-.93-.05-1.4a12.161,12.161,0,0,1,.65-3.58,23.958,23.958,0,0,1,2.7-5.83,23.617,23.617,0,0,0,2.04-4.6,22.723,22.723,0,0,0,.85-4.33,16.382,16.382,0,0,0,.06-1.72,3.8,3.8,0,0,0-.09-.54c-.7-.29-1.15.25-1.66.46-.26-.08-.24-.27-.2-.44.18-.69.39-1.38.56-2.08.14-.59.25-1.2.34-1.8a25.589,25.589,0,0,0-.34-9.19c-.15-.69-.38-1.37-.56-2.03a1.275,1.275,0,0,0-1.46.05,7.527,7.527,0,0,0-2.71,2.55c-.36.65-.81,1.26-1.19,1.91a18.433,18.433,0,0,0-1.29,2.95,4.3,4.3,0,0,1-.6,1.37.5.5,0,0,1-.41-.43c-.09-.34-.15-.7-.21-1.05l-.2-1.2a.434.434,0,0,0-.54-.13,1.54,1.54,0,0,0-.77.72c-.28.58-.61,1.14-.88,1.72a8.689,8.689,0,0,0-.75,3.44c-.06,1.9,0,3.79.08,5.69.02.54.01,1.07,0,1.61a4.3,4.3,0,0,1-.48,1.73.511.511,0,0,1-.7.14,7.1,7.1,0,0,1-1.2-.9,2.728,2.728,0,0,1-.78-1.61,9.8,9.8,0,0,1-.05-2.36c.16-1.43.34-2.85.59-4.26a24.041,24.041,0,0,0,.19-5.36,6.059,6.059,0,0,0-.15-.95,1.479,1.479,0,0,0-.19-.35c-.58.03-.75.55-1.08.83-.2,0-.25-.12-.27-.27a16.811,16.811,0,0,0-.56-3.06,14.782,14.782,0,0,0-1-2.36A21.542,21.542,0,0,0,337,11.07a4.014,4.014,0,0,0-1.57-1.26c-.08-.04-.2,0-.29,0-.05.08-.11.14-.11.2-.04.46-.08.93-.09,1.4a10.268,10.268,0,0,1-1.27,4.4,1.7,1.7,0,0,1-.95.93c-.1-.02-.27-.06-.45-.09a6.16,6.16,0,0,1-1.2-1.91c-.72-1.07-1.08-2.33-1.82-3.4a12.137,12.137,0,0,0-.61-1.12c-.09-.11-.18-.22-.28-.34-.14,0-.27-.02-.38-.03-.07.1-.15.15-.15.21a4.709,4.709,0,0,0-.03.75,2.219,2.219,0,0,1-.3,1.24,1.285,1.285,0,0,1-.28.29,1.736,1.736,0,0,1-1.27-.77c-.67-.74-1.29-1.53-1.94-2.29-.49-.57-.99-1.13-1.52-1.66-.76-.76-1.53-1.49-2.33-2.21a13.4,13.4,0,0,0-1.2-.9.476.476,0,0,0-.61.06.988.988,0,0,0-.18.8,12,12,0,0,0,.23,1.48c.37,1.64.76,3.27,1.14,4.91a2.693,2.693,0,0,1,.09,1.38,2.553,2.553,0,0,1-1.41.61.381.381,0,0,0-.11.48c.22.49.48.96.71,1.44a21.67,21.67,0,0,1,1.49,3.55,2.015,2.015,0,0,1,.05,1.37.936.936,0,0,1-.71.42,5.146,5.146,0,0,1-1.91-.23c-.45-.11-.9-.25-1.35-.36a1.871,1.871,0,0,0-.41,0,2.984,2.984,0,0,0,.59,1.3c.54.72,1.04,1.47,1.58,2.18a7.107,7.107,0,0,1,1.27,2.93,4.59,4.59,0,0,0,.9,2.04,10.131,10.131,0,0,0,1.3,1.57,6.366,6.366,0,0,0,2.42,1.35,30.85,30.85,0,0,1,3.68,1.5c.69.3,1.37.62,2.03.97.5.27.98.59,1.46.9a3.578,3.578,0,0,1,1.24,1.37c-.03.14-.07.3-.1.45a1.675,1.675,0,0,1-1.1.05,14.43,14.43,0,0,1-2.91-1.11c-.95-.49-1.88-1.04-2.81-1.55a6.023,6.023,0,0,1-.74-.03,7.533,7.533,0,0,1-1.05-.22,14.632,14.632,0,0,0-4.8-.41,1.954,1.954,0,0,0-.63.12.419.419,0,0,0-.29.56c.86.54,1.99.67,2.82,1.5.01.11.04.28.06.44-.11.04-.17.1-.23.09-.36-.03-.71-.07-1.07-.13-.57-.1-1.14-.18-1.69-.33a12.256,12.256,0,0,0-5.65.11c-.77.16-1.52.4-2.27.62a2.6,2.6,0,0,0-.46.25,2.7,2.7,0,0,0,.57.95,6.56,6.56,0,0,0,.77.89,2.046,2.046,0,0,1,.65.83,33.324,33.324,0,0,0-8.8,3.05c-.27.49-1.01.74-1.15,1.51.11.05.19.13.29.14a10.8,10.8,0,0,0,1.5.05,51.931,51.931,0,0,1,5.58,0,21.353,21.353,0,0,1,2.99.32,12.162,12.162,0,0,1,2.35.76.889.889,0,0,1,.53.57,3.517,3.517,0,0,1-.32.37c-.31.25-.63.47-.95.71a.451.451,0,0,0-.16.53,3.574,3.574,0,0,0,.52.28,13.108,13.108,0,0,0,7.62.25c.55-.14,1.11-.26,1.67-.41.65-.18,1.31-.36,1.95-.58a10.278,10.278,0,0,1,3.47-.58,1.653,1.653,0,0,1,1.02.2c-.12.34-.41.42-.66.54-.33.14-.66.26-1,.37a1.986,1.986,0,0,0-.9.57,1.759,1.759,0,0,0-.19.51,2.244,2.244,0,0,0,1.19.23,7.806,7.806,0,0,0,1.28-.11,9.741,9.741,0,0,1,3.32-.03,30.926,30.926,0,0,1,3.69.75,17.869,17.869,0,0,1,5.09,2.5,5.24,5.24,0,0,1,1.6,1.71,1.642,1.642,0,0,1,.13,1.66c-.12.1-.26.21-.39.33a3.874,3.874,0,0,1-2.98.93,17.218,17.218,0,0,1-2.86-.46,13.057,13.057,0,0,1-3.06-1c-.91-.42-1.8-.87-2.71-1.31-.55-.26-1.1-.51-1.66-.75a4.369,4.369,0,0,0-.62-.17,1.605,1.605,0,0,0-.31,0,.381.381,0,0,0-.02.5,3.716,3.716,0,0,1,.5,1.18.615.615,0,0,1-.15.65,1.593,1.593,0,0,1-1.2.08c-.94-.22-1.88-.48-2.82-.69a21.9,21.9,0,0,0-7.26-.58c-.75.09-1.49.17-2.24.26a7.568,7.568,0,0,0-2.12.71,7.45,7.45,0,0,0-1.65.99,1.444,1.444,0,0,0-.23.32c.21.39.6.43.9.58a3.858,3.858,0,0,1,.91.45c-.14.25-.34.22-.51.22a9.89,9.89,0,0,0-3.22.75c-.5.18-.99.4-1.48.62a5.791,5.791,0,0,0-1.76,1.22c-.07.07-.07.2-.11.31a5.032,5.032,0,0,0,2.23,1.21,20.034,20.034,0,0,0,8.39.9c1.21-.13,2.43-.18,3.64-.27.68-.05,1.36-.12,2.03-.17a8.5,8.5,0,0,1,2.25.1,1.453,1.453,0,0,1,.95.51c-.17.22-.33.45-.55.74-.89.31-1.83.64-2.77.98a24.082,24.082,0,0,1-3,.79,28.989,28.989,0,0,0-2.92.58.981.981,0,0,0,.53.82,7.7,7.7,0,0,0,4.79,1.27,24.074,24.074,0,0,0,3.59-.63,7.862,7.862,0,0,1,.84-.19c.08-.01.17.08.33.15-.54.32-1.03.61-1.51.91a8.915,8.915,0,0,0-1.41,1.01,1.259,1.259,0,0,0,.2.27,2.56,2.56,0,0,0,1.96.37,19.351,19.351,0,0,0,2.87-.87,6.185,6.185,0,0,0,1.42-.74c.29-.2.62-.34.93-.52.19-.11.37-.22.55-.34.91-.64,1.85-1.25,2.73-1.92a29.585,29.585,0,0,1,2.73-1.7,2.964,2.964,0,0,1,.49-.2,25.314,25.314,0,0,1,3.22-.82,2.438,2.438,0,0,1,1.17.01,2.034,2.034,0,0,1,1.08.66c.16.2.29.41.42.59a3.29,3.29,0,0,1-.52,1.63,25.654,25.654,0,0,0-3.62,1.56,15.265,15.265,0,0,0-2.87,1.88c-.53.43-1.01.9-1.51,1.37a.411.411,0,0,0-.06.53c.58.16,1.29-.08,1.83.48a3.762,3.762,0,0,1-.44.34c-.6.31-1.22.59-1.81.91a3.864,3.864,0,0,0-.89.6,13.011,13.011,0,0,0-2.09,2.7c-.39.68-.76,1.38-1.11,2.09a11.1,11.1,0,0,0-1.1,4.02,2.21,2.21,0,0,0,.06.32,1.658,1.658,0,0,0,.32-.01c.72-.19,1.47-.34,2.17-.6a13.832,13.832,0,0,0,4.14-2.44,18.115,18.115,0,0,0,2.16-2.22,3.311,3.311,0,0,1,.45-.4c.23.11.16.26.15.39-.09.89-.18,1.78-.28,2.68a.8.8,0,0,0,.33.89,1.323,1.323,0,0,0,.35-.12c.39-.26.76-.54,1.15-.8a5.668,5.668,0,0,0,1.91-2.4c.54-1.21,1.03-2.44,1.58-3.65a8.934,8.934,0,0,1,2.38-3.27c.3-.25.56-.55.85-.81a5.294,5.294,0,0,1,2.1-1.03,4.292,4.292,0,0,1,3.31.45c.57.29,1.08.7,1.62,1.04a1.724,1.724,0,0,1,.72,1c.81,2.44,1.8,4.81,2.75,7.19.54,1.36,1.18,2.67,1.81,3.99.26.55.6,1.05.89,1.59.59,1.1,1.29,2.15,1.96,3.21a15.161,15.161,0,0,1,1.07,1.73,10.025,10.025,0,0,0,1.01,1.52c.35.5.71.99,1.06,1.49a12.5,12.5,0,0,1,1.02,1.64,11.592,11.592,0,0,0,1.19,1.79,14.228,14.228,0,0,1,.93,1.74,18.247,18.247,0,0,0-5.02,2.11,9.841,9.841,0,0,0-2.8,3.61c.2,0,.36.06.46.01a6.972,6.972,0,0,1,4.21-.37,4.582,4.582,0,0,1,2.6,1.58,3.428,3.428,0,0,1,.32.43,2.757,2.757,0,0,0,1.68,1.08,6.163,6.163,0,0,0,3.19.12,4.245,4.245,0,0,1,.67-.08c.37.5.73.99,1.1,1.48a13.9,13.9,0,0,0,1.45,1.72c.69.67,1.26,1.47,1.91,2.17.75.81,1.39,1.72,2.22,2.46a3.811,3.811,0,0,1,.4.5,34.658,34.658,0,0,0,2.34,2.94,18.063,18.063,0,0,1,1.11,1.46c2.99,3.63,5.64,7.52,8.42,11.31a2.862,2.862,0,0,0,.78.88c.09.05.14.16.21.25q1.89,2.415,3.77,4.83c.53.68,1.02,1.39,1.54,2.08a4.145,4.145,0,0,0,.92,1.04,2.547,2.547,0,0,1,.41.5,10.817,10.817,0,0,0,1.32,1.55,4.6,4.6,0,0,1,.66.85c.56.75,1.08,1.53,1.67,2.25a34.913,34.913,0,0,0,2.53,2.91,6.255,6.255,0,0,1,.4.5,19.818,19.818,0,0,0,1.45,1.73,15.739,15.739,0,0,1,1.32,1.7,7.7,7.7,0,0,0,1.11,1.31,6.175,6.175,0,0,1,.67.84,5.792,5.792,0,0,0,1.07,1.2,2.425,2.425,0,0,1,.41.49,8.666,8.666,0,0,0,1.2,1.37,3.481,3.481,0,0,1,.47.59,7.838,7.838,0,0,0,1.33,1.54.7.7,0,0,1,.14.16c.67.79,1.3,1.62,2.03,2.36.79.79,1.38,1.74,2.11,2.57.71.8,1.39,1.64,2.05,2.49a7.513,7.513,0,0,1,1.34,1.53,3.9,3.9,0,0,1,.3.49,1.275,1.275,0,0,1-.35.04c-1.52-.25-3.05-.5-4.57-.77-.95-.17-1.9-.39-2.85-.57-1.09-.21-2.2-.34-3.29-.59-1.78-.41-3.6-.67-5.35-1.19-.65-.19-1.29-.42-1.93-.66-1.58-.59-3.12-1.27-4.65-1.96a5.185,5.185,0,0,1-2.09-1.46,1.945,1.945,0,0,0-.49-.41c-.65-.4-1.04-1.08-1.65-1.53a1.976,1.976,0,0,1-.33-.42c-.29-.36-.61-.7-.92-1.04a8.356,8.356,0,0,1-1.64-2.38c-.22-.52-.51-1.02-.77-1.53a8.842,8.842,0,0,1-1.08-4.75,6.319,6.319,0,0,1,.31-1.47,12.927,12.927,0,0,1,2.47-4.36,8.543,8.543,0,0,0,1.47-2.23,2.216,2.216,0,0,0,.17-1.72c-.18-.04-.38-.08-.59-.12-.22.16-.42.31-.63.45-.17.11-.18.41-.5.42a2.516,2.516,0,0,1-.05-.61,6.721,6.721,0,0,0-.49-3.26,14.852,14.852,0,0,0-2.52-4.34c-.16-.19-.32-.4-.61-.36-.24.12-.24.35-.24.56,0,.86,0,1.72.02,2.58a13.281,13.281,0,0,1-.14,2.89c-.05.24-.12.48-.19.75-.14.05-.27.09-.45.15-.11-.38-.23-.71-.31-1.05-.3-1.33-.56-2.66-.75-4.01a20.145,20.145,0,0,0-.99-3.83,7.661,7.661,0,0,0-1.13-2.18,9.839,9.839,0,0,0-.98-1.34.424.424,0,0,0-.5.37c-.09.42-.15.84-.23,1.25-.22.11-.27-.06-.33-.16a2.662,2.662,0,0,1-.16-.39,17.107,17.107,0,0,0-1.52-3.06,18.768,18.768,0,0,1-1.13-2.06c-.17-.36-.37-.69-.57-1.03a5.325,5.325,0,0,1-.62-1.12,1.954,1.954,0,0,0-.41-.63c-.08-.09-.24-.11-.4-.18a2.679,2.679,0,0,0-.28.35,7.229,7.229,0,0,0-1.06,2.8c-.03.21-.07.43-.12.64a17.759,17.759,0,0,0-.34,4.17,12.1,12.1,0,0,0,1.41,5.45c.21.4.36.84.52,1.23a.292.292,0,0,1-.42.07,9.813,9.813,0,0,1-1.78-1.37,4.578,4.578,0,0,0-.86-.64,1.327,1.327,0,0,0-.4.99,10.458,10.458,0,0,0,.98,4.79,20.048,20.048,0,0,0,1.93,3.33c.19.25.35.53.55.84-.45.17-.81-.14-1.36-.02-.09.06-.33.21-.53.34a1.337,1.337,0,0,0,.28,1.07,13,13,0,0,0,.97,1.14,26.592,26.592,0,0,1,1.91,2.18c.46.55.81,1.2,1.31,1.7a26.888,26.888,0,0,1,2.19,2.79,17.4,17.4,0,0,1,1.11,1.59,10.94,10.94,0,0,1,1.65,4.49,1.122,1.122,0,0,1-.11.82,2.309,2.309,0,0,1-1.22-.38,18.012,18.012,0,0,1-4.64-3.24,3.039,3.039,0,0,1-.28-.33c-.22-.28-.45-.56-.66-.85a16.591,16.591,0,0,1-1.86-3.01A23.409,23.409,0,0,1,377.1,145a9.684,9.684,0,0,0-1.04-2.69c-.14-.24-.22-.53-.34-.78a15.431,15.431,0,0,0-1.15-2.06c-.33-.46-.51-1.01-.86-1.48a12.733,12.733,0,0,0-2.03-2.38c-.09,0-.19-.01-.29-.02-.53.63-.29,1.47-.64,2.18a2.21,2.21,0,0,1-.76-1.05,5.576,5.576,0,0,0-.75-1.3c-.57-.83-1.18-1.63-1.75-2.46a18.012,18.012,0,0,0-1.67-1.82c-.4-.45-.92-.79-1.31-1.25a17.039,17.039,0,0,0-3.53-2.93c-.68-.46-1.41-.84-2.12-1.27a1.181,1.181,0,0,0-.88-.17,2.769,2.769,0,0,0-.68,1.38,6.981,6.981,0,0,0-.02,2.14,18.231,18.231,0,0,0,1.75,5.82c.44.89.82,1.82,1.21,2.74a1.683,1.683,0,0,1,.16,1.25,1.206,1.206,0,0,1-.33,0,11.714,11.714,0,0,1-3.83-2.31,5.481,5.481,0,0,0-.68-.51.977.977,0,0,0-.32-.05,1.819,1.819,0,0,0-.08,1.37,12.115,12.115,0,0,0,1.79,4.1,11.951,11.951,0,0,0,2.17,2.21c1.06.84,2.19,1.6,3.27,2.41a6.637,6.637,0,0,1,1.13.97c.53.63.99,1.32,1.48,1.99a1,1,0,0,1,.15.29c.08.27.15.54.22.81a1.316,1.316,0,0,1-1.12.31,5.058,5.058,0,0,1-1.45-.36,11.785,11.785,0,0,1-3.71-2.5c-1.03-1.08-2.14-2.09-3.21-3.14a.959.959,0,0,1-.2-.25,10.276,10.276,0,0,0-2.83-2.59,17.813,17.813,0,0,0-3.91-2c-.6-.24-1.22-.43-1.81-.69a5.618,5.618,0,0,0-2.61-.51,9.364,9.364,0,0,0-3.79.84c-.09.21-.06.34.06.44a.67.67,0,0,0,.18.11,16.807,16.807,0,0,1,3.18,2.16,6.465,6.465,0,0,1,.94.87,1.619,1.619,0,0,1,.45,1.33.56.56,0,0,1-.57.32,6,6,0,0,1-2.51-.47c-.53-.21-1.07-.42-1.6-.63a7.059,7.059,0,0,0-2.94-.52c-.64.03-1.27.05-1.9.08-.03.12-.04.18-.06.26.54.59,1.35.95,1.63,1.8-.07.22-.29.18-.43.16a6.723,6.723,0,0,1-1.27-.2,7.622,7.622,0,0,0-2.77-.22c-1,.09-1.99.23-2.98.37s-1.98.31-2.97.49c-.42.07-.82.2-1.33.32,0,.18-.01.36-.02.57a8,8,0,0,0,1.69,2.18c.51.44,1,.92,1.53,1.33a8.594,8.594,0,0,0,1.94,1.14,4.852,4.852,0,0,1,1.26.68c-.39.67-1.23.33-1.72.83.08.14.12.33.25.43a16.311,16.311,0,0,0,3.81,2.37,6.079,6.079,0,0,0,1.45.38c.71.11,1.42.21,2.13.35a12.851,12.851,0,0,1,1.35.37.637.637,0,0,1,.45.61,2.766,2.766,0,0,1-1.21.94c-.45.26-1.03.23-1.42.56a.684.684,0,0,0,.29.61,6.511,6.511,0,0,0,1.37,1.02c.52.23,1.04.49,1.58.68a4.082,4.082,0,0,0,2.54.07c.34-.1.7-.16,1.04-.24a1.381,1.381,0,0,1,.94.09c.35.28.27.63.14,1.01a5.4,5.4,0,0,0-.94,1.14,1.388,1.388,0,0,0,.33.11,16.508,16.508,0,0,0,6.9-1.32c.07-.03.13-.06.19-.09.74-.43,1.48-.86,2.23-1.29a2.753,2.753,0,0,1,.38-.2c1.05-.44,2.11-.86,3.16-1.3a10.928,10.928,0,0,1,2.81-.65,4.363,4.363,0,0,1,2.3.4.527.527,0,0,1,0,.6,3.469,3.469,0,0,1-1.63.77,11.293,11.293,0,0,1-1.15.27c-1.1.19-2.13.59-3.2.88-.67.18-1.2.64-1.85.84l-2.81,2a.631.631,0,0,0-.32.68c.45.44,1.17.41,1.71.77a2.715,2.715,0,0,1-1.08.93,15.1,15.1,0,0,0-3.23,2.11,15.854,15.854,0,0,0-1.83,1.65c-.7.71-1.43,1.4-2.18,2.06a.324.324,0,0,0,.28.47c.31.06.64.05.96.09a1.827,1.827,0,0,1,.43.19c-.18.18-.31.3-.43.42-.32.33-.66.65-.96,1.01a1.83,1.83,0,0,0-.41.98,1.1,1.1,0,0,0,.04.31.936.936,0,0,0,.15.21,2.3,2.3,0,0,0,1.33.11c.39-.06.78-.14,1.17-.18a3.676,3.676,0,0,1,.58.01.44.44,0,0,1-.02.64,16.445,16.445,0,0,0-1.93,2.83,10.068,10.068,0,0,0-1.52,4.88,7.535,7.535,0,0,0,.21,1.7c.09.43.26.85.42,1.36v.02c.45.83,1.05-.25,1.05-.25Zm29.13-80.33v.03h0Zm2.89.03a1.226,1.226,0,0,1-.19-.02h0A1.226,1.226,0,0,1,378.38,106.65ZM333.15,65.78s-.06.05-.09.07c-.23.16-.46.32-.69.49.23-.16.46-.33.69-.49A.549.549,0,0,0,333.15,65.78Zm7.76-3.36a1.593,1.593,0,0,0-.3.06c-.9.22-1.81.43-2.72.63.91-.2,1.81-.41,2.72-.63ZM325.78,46.51a3.808,3.808,0,0,0-.44.15l-.48.18.48-.18A3.808,3.808,0,0,1,325.78,46.51Zm-7.29-12.56s-.06.03-.09.04h0S318.46,33.96,318.49,33.95Zm4.62-2.97a5.639,5.639,0,0,1-.53-.31A5.639,5.639,0,0,0,323.11,30.98Zm8.05,3.64a7.855,7.855,0,0,0-1-.61A7.855,7.855,0,0,1,331.16,34.62Zm-2.78-24.3a.38.38,0,0,1,.05.06c.08.1.15.2.22.3-.07-.1-.15-.2-.22-.3C328.41,10.36,328.4,10.34,328.38,10.32Zm5.45,5.63a3.723,3.723,0,0,0,.3-.52,3.723,3.723,0,0,1-.3.52Zm-2.61.08c.03-.11.07-.21.1-.33a.891.891,0,0,0-.07-.19c.03.07.05.15.07.19C331.28,15.82,331.25,15.92,331.22,16.03Zm20.16-1.21a2.172,2.172,0,0,1,.32-.36c.19-.16.39-.32.58-.47-.2.15-.39.31-.58.47A1.869,1.869,0,0,0,351.38,14.82Zm-24.99-2.63a1.142,1.142,0,0,0,1.15.25c.06-.06.11-.11.16-.17a1.287,1.287,0,0,1-.16.17A1.1,1.1,0,0,1,326.39,12.19Zm-7.87-7.52a.526.526,0,0,1,.29-.05A.45.45,0,0,0,318.52,4.67Zm31.89,46.59c-.04-.41-.06-.82-.08-1.23C350.35,50.44,350.37,50.85,350.41,51.26Zm14.08-17.91a1.743,1.743,0,0,0-.14.14h0Zm5.29,8.98a13.209,13.209,0,0,0,1.27-.91A11.676,11.676,0,0,1,369.78,42.33Zm-1.23,2.49a2.7,2.7,0,0,0,.28-.04c.35-.05.69-.09,1.04-.15l-1.04.15A2.7,2.7,0,0,0,368.55,44.82ZM319.99,12.46c-.06-.41-.13-.86-.23-1.3-.18-.82-.38-1.64-.57-2.45.19.82.38,1.64.57,2.45C319.86,11.6,319.93,12.05,319.99,12.46Zm-1.36,1.43a.556.556,0,0,1-.08.04h0C318.58,13.92,318.6,13.9,318.63,13.89Zm38.06,53.2s.04-.07.06-.1c-.02.03-.04.07-.06.1Zm-.08.41c.02-.11.06-.22.09-.33C356.67,67.28,356.63,67.39,356.61,67.5ZM319.1,15.39c-.15-.29-.3-.57-.46-.85a1.011,1.011,0,0,1-.07-.15c.02.05.05.1.07.15C318.8,14.82,318.95,15.1,319.1,15.39Zm37.29,53.35a1.225,1.225,0,0,0,.13.05c.02-.02.05-.04.07-.06-.01.02-.05.04-.07.06-.04-.02-.1-.04-.13-.06Zm40.73,62.34a6.164,6.164,0,0,1-1.16-1.1c-1.42-1.98-2.88-3.93-4.29-5.93a15.138,15.138,0,0,1-1.79-2.8,2.834,2.834,0,0,0-.69-.96,10.821,10.821,0,0,1-1.65-2.11c-.46-.68-.86-1.4-1.32-2.08s-.96-1.34-1.44-2.01c-.41-.58-.85-1.14-1.26-1.72-1.08-1.56-2.21-3.1-3.32-4.64-.19-.26-.4-.5-.6-.76a1.062,1.062,0,0,1-.11-.19c.06-.11.13-.24.19-.33.49-.2.95-.38,1.4-.56a2.013,2.013,0,0,0,.47.08,8.7,8.7,0,0,1,2.88.23,7.114,7.114,0,0,1,3.02,1.31,11.394,11.394,0,0,1,2.14,2.08,2.445,2.445,0,0,0,.5.56,4.071,4.071,0,0,1,.79.87c.38.52.75,1.05,1.14,1.57a9.078,9.078,0,0,1,1.47,2.72,12.535,12.535,0,0,0,.91,2.05,5.821,5.821,0,0,1,.59,1.6l.51,2.19a40.977,40.977,0,0,1,.94,4.4c.15,1.31.36,2.62.53,3.93.06.49.1.98.16,1.59Zm37.12-4.17Zm1.2,55.7h0l.15-.04A.833.833,0,0,0,435.44,182.61Zm7.98-17.05a5.735,5.735,0,0,0,1.77.77,1.137,1.137,0,0,0,.91-.3,1.137,1.137,0,0,1-.91.3A5.734,5.734,0,0,1,443.42,165.56Zm7.95,31.09a8.824,8.824,0,0,1,3.51.24c.65.19,1.3.4,1.96.57a10.533,10.533,0,0,1,2.3.89,31.674,31.674,0,0,1,3.67,2.22,21.027,21.027,0,0,1,2.71,2.09l1.69,1.63c.75.72,1.38,1.55,2.05,2.33.75.86,1.39,1.83,2.07,2.76a13.772,13.772,0,0,1,.95,1.44c.31.56.52,1.17.81,1.74a20.9,20.9,0,0,1,1.77,5.03c.38,1.71.82,3.41,1.23,5.11.21.86.43,1.71.67,2.65-.3-.23-.54-.38-.75-.57a4.048,4.048,0,0,1-.41-.5c-.69-.82-1.39-1.64-2.08-2.45-.05-.05-.11-.09-.16-.14-.59-.62-1.19-1.24-1.75-1.88-.71-.8-1.39-1.63-2.09-2.45a.27.27,0,0,0-.07-.08,21.1,21.1,0,0,1-1.83-1.95c-.85-.8-1.6-1.73-2.39-2.59s-1.6-1.73-2.4-2.59c-.75-.81-1.43-1.7-2.14-2.54a20.9,20.9,0,0,0-1.9-2.18c-.72-.66-1.27-1.45-1.93-2.15-.76-.8-1.35-1.76-2.14-2.55-.63-.63-1.19-1.33-1.78-2-.07-.08-.17-.14-.24-.21a6.594,6.594,0,0,1-1.33-1.84Zm-14.45-17.09c-.69-.77-1.28-1.63-1.99-2.39a27.1,27.1,0,0,1-1.87-2.5,1.5,1.5,0,0,1-.16-.43,6.307,6.307,0,0,1,2.91.17c.11.03.19.19.31.31-.11.32-.22.62-.32.92a.516.516,0,0,0,.07.55,2.066,2.066,0,0,0,1.53.09c.73-.18,1.44-.41,2.16-.61a3.06,3.06,0,0,1,.56-.06.71.71,0,0,1,.3.91c-.23.56-.5,1.11-.75,1.66a4.257,4.257,0,0,0-.15.47,1.239,1.239,0,0,0,.85.29c.43-.04.86-.03,1.28-.11a3.753,3.753,0,0,1,1.6.09c.49.11.97.24,1.47.32a14.492,14.492,0,0,1,3.29.98l1.29.54c.46.2.93.38,1.37.61a13.76,13.76,0,0,1,2.91,1.99c.72.64,1.42,1.3,2.14,1.94a27.956,27.956,0,0,1,1.92,2.16,30.989,30.989,0,0,1,1.99,2.68c.07.1.21.21.04.39a2.657,2.657,0,0,1-1.2-.34,13.437,13.437,0,0,0-2.4-.94,17.184,17.184,0,0,1-4.51-2.21q-2.25-1.455-4.47-2.95c-.62-.42-1.21-.88-1.82-1.32-.43-.32-.84-.67-1.3-.95a6.682,6.682,0,0,0-2.12-.98,4.909,4.909,0,0,0-.72,2.42,4.725,4.725,0,0,1-.05.75c-.01.12,0,.29-.25.32-.56-.65-1.07-1.38-1.67-2.04-.8-.87-1.45-1.86-2.24-2.74Zm-26.9-12.05a.683.683,0,0,0,.12-.01.607.607,0,0,1-.1-.07c.03.02.06.04.1.07h0A.683.683,0,0,0,410.02,167.51Zm-1.1-.36a.683.683,0,0,0,.12-.01.487.487,0,0,0-.12.01Zm-.12,0a.836.836,0,0,1-.1-.02.355.355,0,0,1,.1.02Zm-.17-.03Z" fill="#1c1c1b"/><path d="M204.364,278.4c-5.86,0-10.673-4-14.609-7.92a37.5,37.5,0,0,1-5.4-7.744,41.831,41.831,0,0,0-2.213-3.569c-.8-1.076-1.265-1.3-1.518-1.3-.33,0-.645.43-.85.791-.677,1.188-1.341,2.571-2.043,4.035a47.992,47.992,0,0,1-3.063,5.739c-1.306,1.94-2.511,2.843-3.792,2.844a3.474,3.474,0,0,1-2.4-1.149c-1.83-1.792-2.724-3.356-2.9-5.071-.164-1.609.295-3.333,1.535-5.763a48.154,48.154,0,0,1,3.82-5.784c4.174-5.768,9.37-12.946,8.271-21.088-.522-3.858-1.753-8.457-4.651-8.457-2.206,0-5.18,2.649-7.956,7.086-2.6,4.156-4.452,8.947-4.719,12.205-.787,9.572-2.5,16.806-5.1,21.5a13.485,13.485,0,0,1-3.763,4.52,6.49,6.49,0,0,1-8.833-.825,6.959,6.959,0,0,1-2.049-4.915c.063-1.662,1.258-4.778,2.523-8.078,1.488-3.882,3.334-8.7,2.805-10.263a2.171,2.171,0,0,0-1.588-.67c-2.522,0-6.288,3.707-9.93,7.292-4.389,4.321-8.928,8.789-12.816,8.791h0c-3.308,0-5.575-3.168-6.915-9.676l-.041.055-.2-1.105c-.386-2.144.541-4.244,2.753-6.242a27.727,27.727,0,0,1,7.361-4.421,71.959,71.959,0,0,1,11.07-3.689,94.3,94.3,0,0,0,9.568-3.194c6.022-2.421,9.37-4.818,9.427-6.75.045-1.522-2.03-3.018-6-4.325a14.207,14.207,0,0,0-4.405-.6c-8.024,0-19.476,4.366-26.319,6.975-.768.293-1.494.569-2.141.812a13.036,13.036,0,0,1-4.574.934c-2.827,0-5.18-1.259-7.406-3.962-1.571-1.9-2.1-3.646-1.567-5.176a5.052,5.052,0,0,1,2.379-2.6,15.246,15.246,0,0,1,4.443-1.592c1.281-.275,2.921-.573,4.657-.888,3.676-.667,8.251-1.5,12.05-2.591,4.277-1.232,6.835-2.593,7.6-4.045a2.031,2.031,0,0,0,.026-1.878,13.7,13.7,0,0,0-3.562-5.214c-2.181-1.988-5.744-4.153-11.214-6.814-4.116-2-7.929-3.147-13.719-4.789a27.035,27.035,0,0,0-6.228-.883,20,20,0,0,1-8.217-1.755c-.931-.438-1.284-1.5-.966-2.927a12.085,12.085,0,0,1,4-5.937,14.1,14.1,0,0,1,3.789-2.33,12.4,12.4,0,0,1,4.731-.945,13,13,0,0,1,3.815.587,22.767,22.767,0,0,1,7.717,4.533,29.292,29.292,0,0,0,3.24,2.364c3.041,1.8,5.3,2.717,6.724,2.717a1.444,1.444,0,0,0,1.275-.519c.385-.543.612-1.852-.492-5-1.042-2.975-2.5-6.909-3.128-8.588-.161-.432-.258-.693-.281-.76-1.825-5.172-4.358-9.1-7.528-11.671a15.391,15.391,0,0,0-4.626-2.609,14.752,14.752,0,0,0-4.874-.816,18.591,18.591,0,0,0-9.7,2.928,22.939,22.939,0,0,0-7.465,7.481c-1.81,2.944-6.8,11.42-7.841,13.456s-2.319,3.076-3.815,3.076c-1.337,0-2.756-.832-4.218-2.473a7.927,7.927,0,0,1-1.939-3.519,4.876,4.876,0,0,1,.987-4.166c3.77-4.87,3.883-6.3,2.725-7.5a2.2,2.2,0,0,0-1.62-.471,24.715,24.715,0,0,0-5.076.92,32.27,32.27,0,0,1-7.235,1.207c-2.626,0-4.465-.821-5.62-2.509-2.392-3.494-3.124-5.845-2.3-7.4.995-1.887,4.088-2.147,7.282-2.147,1.469,0,3.1.064,4.817.131,1.964.077,4,.156,6.085.156,6.447,0,14.416-.7,18.854-6.167a.628.628,0,0,0,.123-.526c-.21-1.477-3.269-4.278-9.093-8.323a16.222,16.222,0,0,1-4.826-5.831c-1.329-2.678-1.617-5.1-.809-6.829,2.214-4.736,3.887-6.668,5.777-6.668,1.689,0,3.273,1.563,5.326,3.772a83.46,83.46,0,0,1,5.967,7.613c1.057,1.457,2.149,2.963,3.2,4.309.554.71,1.015,1.363,1.459,1.995,1.81,2.57,3.006,4.268,7.546,5.432a87.956,87.956,0,0,1,13.2,4.785,21.426,21.426,0,0,0,4.7,1.734h.017a17.9,17.9,0,0,0,.07-6.591,14.3,14.3,0,0,0-2.081-5.16c-2.02-3.135-5.123-5.562-8.128-7.779a20.867,20.867,0,0,1-4.039-3.881,9.841,9.841,0,0,1-2.27-5.29,7.021,7.021,0,0,1,2.431-5.636,6.345,6.345,0,0,1,4.438-1.974c2.143,0,4.451,1.229,6.86,3.652a85.747,85.747,0,0,1,6.559,7.624,3.144,3.144,0,0,0,2.3,1.439,1.577,1.577,0,0,0,1.521-1.154c.176-.6.358-1.2.55-1.836a56.08,56.08,0,0,0,1.976-7.817c.642-4.546-.34-9.523-1.29-14.336a68.946,68.946,0,0,1-1.471-9.95,19.33,19.33,0,0,1,1.645-9.426c2.351-4.909,4.764-5.94,6.374-5.94a4.8,4.8,0,0,1,3.552,1.812,12.744,12.744,0,0,1,2.663,9.435c-.264,2.3-.541,6.136-.563,9.5-.033,4.99.5,6.007.649,6.192a.634.634,0,0,0,.063-.05l.754-.667a98.511,98.511,0,0,1,11.863-9.374,40.471,40.471,0,0,1,7.4-3.834,22.173,22.173,0,0,1,7.83-1.572,15.8,15.8,0,0,1,8.885,2.687c1.945,1.291,2.778,2.818,2.476,4.539-.269,1.533-1.472,3.193-3.576,4.932a40.279,40.279,0,0,1-6.8,4.349,68.554,68.554,0,0,1-12.126,5.035,75.045,75.045,0,0,0-12.236,4.078c-3.929,1.745-5.236,2.928-5.389,3.352-.192.531-.534,1.235-.929,2.05-.842,1.735-1.889,3.894-1.973,5.381a.789.789,0,0,0,.172.615,2.021,2.021,0,0,0,1.411.361c1.842,0,4.865-.85,7.787-1.672,3.094-.87,6.292-1.769,8.41-1.769,1.383,0,2.241.377,2.623,1.152a3.48,3.48,0,0,1-.315,2.908,24.81,24.81,0,0,1-3.009,4.707,15.814,15.814,0,0,1-6.235,5.212,17.822,17.822,0,0,1-5.7,1.18c-2.679.24-5.208.466-7.8,2.851-4.333,3.982-4.309,7.771-4.269,14.047q0,.7.007,1.43a70.623,70.623,0,0,0,1.589,14.518c.433,2.029.87,2.086.875,2.086.076,0,.5-.088,1.457-1.82.689-1.25,1.457-2.985,2.269-4.822,1.61-3.64,3.434-7.765,5.413-9.875,1.432-1.526,5.134-5.076,8.585-5.076a4.568,4.568,0,0,1,3.852,2.117,10.47,10.47,0,0,1,1.4,10.187c-1.18,3.252-3.641,6.232-5.653,8.465a100.62,100.62,0,0,0-8.761,11.133,37.4,37.4,0,0,0-3.583,6.6,9.9,9.9,0,0,0-.871,5.461c1.111,5.225,5.7,12.432,21.241,17.092a.618.618,0,0,0,.162.03,2.085,2.085,0,0,0,.017-.933c-.066-.6-.221-1.381-.4-2.286a28.637,28.637,0,0,1-.7-9.609,12.356,12.356,0,0,1,1.887-5.107,12.49,12.49,0,0,1,4.81-4.153c2.606-1.336,4.56-1.985,5.974-1.985a2.758,2.758,0,0,1,2.246.932c1.388,1.68.688,5.329-.122,9.555-1.007,5.254-2.149,11.209.38,14.589,1.167,1.56,3.013,2.443,5.644,2.7,1.334.13,2.664.2,3.952.2a29.3,29.3,0,0,0,13.844-3.14,16.242,16.242,0,0,0,7.668-8.162,13.957,13.957,0,0,0,.974-5.049,17.1,17.1,0,0,0-.955-5.636c-1.413-4.162-4.311-8.328-8.616-12.384-1.938-1.825-3.5-2.675-4.926-2.675a8.066,8.066,0,0,0-3.827,1.462,22.632,22.632,0,0,1-3.368,1.675,15.049,15.049,0,0,1-5.237.9,15.442,15.442,0,0,1-4.753-.719,6.78,6.78,0,0,1-3.163-1.9,5.8,5.8,0,0,1-1.477-5.223c.582-2.1,2.671-3.811,6.21-5.1a4.542,4.542,0,0,0,2.691-1.893,4.653,4.653,0,0,0,.272-2.347c-.014-.323-.028-.657-.025-1,.006-.882-.8-2.864-4.673-7.293-2.685-3.07-5.925-6.283-8.291-8.628-1.221-1.211-2.186-2.167-2.68-2.716a8.565,8.565,0,0,1-2.071-4.465,13.368,13.368,0,0,1,.213-4.951,17.31,17.31,0,0,1,3.973-7.925c1.329-1.355,3.341-2.97,5.378-2.97a3.547,3.547,0,0,1,2.435.958,7.209,7.209,0,0,1,1.809,2.991c1.518,4.274,2.717,7.9,3.681,10.811,1.144,3.458,1.971,5.956,2.685,7.619.784,1.826,1.269,2.21,1.537,2.21s.783-.335,1.757-1.931a33.213,33.213,0,0,0,2.173-4.912,36.282,36.282,0,0,1,4.344-8.788,17.152,17.152,0,0,1,3.549-3.725,9.749,9.749,0,0,1,5.913-1.865,13.4,13.4,0,0,1,1.6.1c1.495.178,4.147.813,5.109,3.055.9,2.108,0,5-2.685,8.595-1.506,2.011-7.789,10.284-11.012,14.017a6.189,6.189,0,0,0-.961,5.034,11.42,11.42,0,0,0,2.306,5.322,5.365,5.365,0,0,0,4.071,2.022c2.958,0,5.714-2.66,7.762-7.49,1.26-2.964,2.684-3.587,3.656-3.587a3.722,3.722,0,0,1,2.919,2.008,11.845,11.845,0,0,1,1.654,4.924,10.8,10.8,0,0,1-.7,5.535,28.593,28.593,0,0,0-2.463,10.039c-.138,3.084.434,5.567,1.568,6.812a8.913,8.913,0,0,0,5.913,2.857,3.867,3.867,0,0,0,1.274-.2,6.809,6.809,0,0,0,4.36-4.169,17.891,17.891,0,0,0,.791-7.05c-.085-2.149-.423-4.576-.781-7.145-.991-7.115-2.223-15.969.729-26.288a14.023,14.023,0,0,0-.478-8.839,43.357,43.357,0,0,0-4.188-7.935c-2.529-4.084-4.919-7.942-4.04-11.733a22.736,22.736,0,0,1,2.573-6.035c1.07-1.752,2.732-3.841,4.573-3.841a2.6,2.6,0,0,1,1.734.7c3.515,3.068,5.478,8.475,7.055,12.821,1.044,2.878,2.031,5.6,3.026,6.078a10.673,10.673,0,0,0,4.542,1.3c1.855,0,4.6-.789,7.023-7.607,1.206-3.406-.674-11.414-2.492-19.158-.992-4.224-1.929-8.215-2.411-11.569-.564-3.919-.389-6.3.551-7.483A2.286,2.286,0,0,1,246.089,78c1.158,0,2.649.644,4.56,1.969a19.372,19.372,0,0,1,8,11.008A37.611,37.611,0,0,1,259.608,102a21.854,21.854,0,0,0,.317,5.711,2.515,2.515,0,0,0,2.634,2.062c.088,0,.176.005.263.005,4.855,0,7.9-5.288,9.6-9.724A58.633,58.633,0,0,0,275.8,82.384a15.658,15.658,0,0,1,1.507-7.053,3.952,3.952,0,0,1,3.481-2.231c1.757,0,3.805,1.149,5.768,3.235a19.368,19.368,0,0,1,3.371,4.988,11.417,11.417,0,0,1,1.232,5.328,21.918,21.918,0,0,1-2.272,7.842,81.415,81.415,0,0,1-4.067,7.326c-2.214,3.676-4.3,7.148-3.672,8.846a1.942,1.942,0,0,0,1.354,1.1,23.867,23.867,0,0,0,7.593,1.1,73.272,73.272,0,0,0,7.687-.55,75.915,75.915,0,0,1,8.061-.57,28.886,28.886,0,0,1,7.147.824,14.61,14.61,0,0,1,7.533,4.4,13.374,13.374,0,0,1,3.095,6.219,11.21,11.21,0,0,1,.108,4.138A4.269,4.269,0,0,1,322.385,130a5.964,5.964,0,0,1-3.688.988c-3.848,0-9.4-1.925-14.77-3.787-5.157-1.788-10.029-3.478-13.218-3.478a3.516,3.516,0,0,0-2.7.846c-.149.162-.4.8.472,3.266.613,1.728,1.571,3.776,2.416,5.583.353.755.686,1.467.968,2.1a21.124,21.124,0,0,1,1.944,6.74,6.863,6.863,0,0,1-.88,4.334,5.287,5.287,0,0,1-4.651,2.239c-.157,0-.318,0-.479-.014a12.409,12.409,0,0,1-4.661-1.134,9.938,9.938,0,0,1-3.242-2.46,11.734,11.734,0,0,1-2.657-8.536,28.674,28.674,0,0,0-.613-6.121c-.536-2.792-1.256-4.8-1.926-5.365a6.465,6.465,0,0,0-4.09-1.045,30.316,30.316,0,0,0-11.324,2.785,36.573,36.573,0,0,0-11.447,7.686c-3.023,3.122-3.136,4.387-2.934,4.864.429,1.012,3.161,1.012,4.059,1.012,1.278,0,2.7-.085,4.206-.175,1.525-.091,3.1-.185,4.539-.185,2.423,0,4.015.278,5.01.874a5.839,5.839,0,0,1,2.247,2.155,3.306,3.306,0,0,1,.289,2.4c-.524,2.146-2.923,4.079-4.844,5.324a16.988,16.988,0,0,1-4.914,2.363c-.65.041-1.379.061-2.228.061-1.03,0-2.127-.029-3.189-.058-1.092-.029-2.221-.06-3.311-.06a21.226,21.226,0,0,0-6.025.631,4.558,4.558,0,0,0-3.307,2.723A29.011,29.011,0,0,0,235.7,167.9a17.461,17.461,0,0,0,2.7,8.938,7.649,7.649,0,0,0,6.409,3.528c2.329,0,4.92-.968,7.7-2.878a46.737,46.737,0,0,0,9.851-9.834,33.236,33.236,0,0,1,8.569-8.056,14.243,14.243,0,0,1,7.249-2.334,7.444,7.444,0,0,1,4.055,1.1,5.074,5.074,0,0,1,1.947,6.48,8.575,8.575,0,0,1-3.065,3.515c-10.045,6.961-10.854,10.209-10.442,11.525.439,1.4,2.724,2.209,6.27,2.209,4.437,0,9.835-1.319,11.787-2.879.608-.486,1.23-.987,1.831-1.471,6.771-5.453,13.772-11.092,19.98-11.092a9.2,9.2,0,0,1,3.906.846,11.074,11.074,0,0,1,3.565,2.734,3.85,3.85,0,0,1,1.111,3.371c-.69,3.549-6.835,6.587-13.341,9.8a85.452,85.452,0,0,0-8.693,4.7c-2.554,1.691-3.838,3.161-3.925,4.493-.074,1.133.762,2.292,2.485,3.445,6.958,4.657,11.1,8.132,13.026,10.937a7.584,7.584,0,0,1,1.271,6.311l-.015.1c-1.036,7.045-3.846,8.524-6.021,8.525h0c-1.973,0-4.263-1.244-6.622-3.6a38.037,38.037,0,0,1-6.414-9.08c-4.409-8.352-11.912-13.548-17.429-16.436-6.561-3.434-12.966-5-16.139-5a3.813,3.813,0,0,0-1.488.2c-.388.173-.811.535-.64,1.806a18.939,18.939,0,0,0,1.091,3.589c.885,2.382,1.721,4.632.792,5.969a2.785,2.785,0,0,1-2.446.985,12.913,12.913,0,0,1-3.213-.513c-1.263-.334-3.256-2.092-5.565-4.127-2.67-2.354-5.992-5.283-7.693-5.283-.036,0-.072,0-.106,0A20.138,20.138,0,0,0,228,194.083a15.306,15.306,0,0,0-5.251,6.044c-1.64,4-1.847,6.885-.633,8.814,2.15,3.414,8.716,3.794,16.318,4.233a110.285,110.285,0,0,1,13.2,1.312h.01a45.284,45.284,0,0,0,5.42-1.453c2.56-.761,5.747-1.708,8.84-2.489.961-.243,1.852-.492,2.713-.733a22.834,22.834,0,0,1,5.736-1.14,5.863,5.863,0,0,1,4.928,2.54,4.567,4.567,0,0,1,.9,4.814c-1.069,2.469-4.4,3.98-5.966,4.133l-.121.012c-2.937.289-5.712.561-7.943.856a1.852,1.852,0,0,0-1.77,1.363,2.7,2.7,0,0,0,.8,2.52,51.823,51.823,0,0,1,11.7,11.124c2.926,3.925,4.5,7.572,4.418,10.272a17.134,17.134,0,0,1-.988,6.083,2.868,2.868,0,0,1-2.63,2.043c-2.934,0-7.023-4.652-11.758-10.039-3.569-4.06-7.259-8.259-10.592-10.557a67.056,67.056,0,0,0-11.528-6.444,28.909,28.909,0,0,0-10.747-2.677c-3.943,0-6.473,1.638-7.52,4.869,0,0-.014.245.892.907.7.513,1.733,1.12,2.927,1.824,3.2,1.886,7.579,4.469,10.8,8.187a17.281,17.281,0,0,1,3.665,6.537,16.115,16.115,0,0,1-.005,8.526c-1.3,5.048-3.08,7.5-5.451,7.5h0c-1.871,0-3.937-1.532-6.5-4.822a106.109,106.109,0,0,1-6.38-9.733c-1.628-2.684-3.166-5.22-4.533-7.082-1.752-2.387-2.684-2.887-3.156-2.887-.121,0-.489,0-.876.861a23.7,23.7,0,0,0-.972,3.08c-.939,3.435-2.226,8.139-5.66,12.234a2.917,2.917,0,0,1-2.277,1.107h0a4.6,4.6,0,0,1-2.892-1.231,9.619,9.619,0,0,1-2.337-3.058,11.068,11.068,0,0,1-1.18-5.3,10.042,10.042,0,0,1,2.068-5.787c4.988-6.639,7.218-11.525,6.628-14.525a4.593,4.593,0,0,0-2.575-3.1,3.676,3.676,0,0,0-1.905-.453,13.436,13.436,0,0,0-6.178,2.062,27.737,27.737,0,0,0-6.428,5.141,23.375,23.375,0,0,0-3.18,4.412,19.008,19.008,0,0,0-2.189,6.11c-.886,5.362.964,10.448,5.5,15.115a73.809,73.809,0,0,0,7.457,6.529c1.635,1.31,3.489,2.8,5.778,4.728a18.184,18.184,0,0,1,3.9,4.346,5.579,5.579,0,0,1,.963,3.964c-.21,1-.967,2.353-3.383,3.074A12.946,12.946,0,0,1,204.364,278.4Zm-23.737-21.516c1.474,0,2.776,2.248,4.579,5.36a36.8,36.8,0,0,0,5.241,7.541c3.794,3.776,8.415,7.635,13.918,7.635a11.966,11.966,0,0,0,3.417-.507c1.568-.468,2.478-1.254,2.7-2.335a4.728,4.728,0,0,0-.844-3.259,17.477,17.477,0,0,0-3.7-4.1c-2.28-1.925-4.128-3.405-5.758-4.712a74.556,74.556,0,0,1-7.547-6.611,21.35,21.35,0,0,1-5.21-8.27,16.27,16.27,0,0,1-.554-7.688,19.985,19.985,0,0,1,2.3-6.426,24.372,24.372,0,0,1,3.315-4.6c4.014-4.357,9.619-7.519,13.327-7.519a4.63,4.63,0,0,1,2.4.59,5.494,5.494,0,0,1,3.036,3.752,10.106,10.106,0,0,1-.943,5.686,46.347,46.347,0,0,1-5.862,9.617,9.079,9.079,0,0,0-1.873,5.232,10.085,10.085,0,0,0,1.077,4.829c1.1,2.206,2.892,3.747,4.352,3.746a1.941,1.941,0,0,0,1.527-.757c3.3-3.93,4.55-8.514,5.465-11.862A24.147,24.147,0,0,1,216.024,239c.429-.954,1.025-1.438,1.77-1.438,2.088,0,4.6,3.968,8.528,10.442a105.457,105.457,0,0,0,6.315,9.639c2.329,2.991,4.2,4.445,5.726,4.445h0c1.834,0,3.349-2.278,4.5-6.768a15.149,15.149,0,0,0,.012-8.013,16.312,16.312,0,0,0-3.463-6.164c-3.116-3.6-7.417-6.133-10.557-7.984-1.267-.747-2.361-1.392-3.107-1.951-.664-.5-1.394-1.166-1.147-1.927a7.529,7.529,0,0,1,3.217-4.261,9.9,9.9,0,0,1,5.236-1.285,29.438,29.438,0,0,1,11.132,2.755,68.05,68.05,0,0,1,11.7,6.539c3.433,2.367,7.164,6.612,10.772,10.717,4.194,4.772,8.531,9.707,11.021,9.706a2,2,0,0,0,1.733-1.457,16.513,16.513,0,0,0,.906-5.718,10.464,10.464,0,0,0-1.04-4.345,27.415,27.415,0,0,0-3.184-5.313,50.82,50.82,0,0,0-11.476-10.906,3.64,3.64,0,0,1-1.189-3.555,2.785,2.785,0,0,1,2.593-2.1c2.248-.3,5.031-.571,7.976-.86l.121-.012c1.285-.125,4.271-1.491,5.162-3.547a3.663,3.663,0,0,0-.772-3.826,4.892,4.892,0,0,0-4.152-2.158,22.265,22.265,0,0,0-5.472,1.1c-.867.243-1.764.494-2.738.74-3.073.776-6.249,1.72-8.8,2.478a36.634,36.634,0,0,1-5.7,1.493.99.99,0,0,1-.177-.014,107.817,107.817,0,0,0-13.091-1.3,77.193,77.193,0,0,1-10.494-1.049c-3.379-.7-5.475-1.859-6.6-3.64-1.4-2.216-1.214-5.392.556-9.709a16.074,16.074,0,0,1,5.59-6.47,21.117,21.117,0,0,1,10.525-3.833c.059,0,.122-.008.185-.008,2.072,0,5.259,2.81,8.342,5.528,2.03,1.789,4.128,3.64,5.167,3.915a12.165,12.165,0,0,0,2.962.48,1.911,1.911,0,0,0,1.641-.564c.637-.917-.182-3.122-.906-5.068a19.527,19.527,0,0,1-1.144-3.8c-.193-1.433.214-2.386,1.211-2.831a4.824,4.824,0,0,1,1.888-.289,27.263,27.263,0,0,1,7.029,1.237,52.53,52.53,0,0,1,9.565,3.874c5.641,2.953,13.315,8.272,17.842,16.848a37.061,37.061,0,0,0,6.239,8.844c2.171,2.166,4.222,3.311,5.93,3.311h0c3.241,0,4.536-4.181,5.052-7.687l.015-.1a6.609,6.609,0,0,0-1.109-5.612c-1.856-2.7-5.912-6.093-12.763-10.678-2.063-1.38-3.017-2.794-2.918-4.323.236-3.614,6.514-6.718,13.161-10a89.869,89.869,0,0,0,8.572-4.608c2.592-1.683,3.979-3.156,4.241-4.5a2.89,2.89,0,0,0-.881-2.532,8.721,8.721,0,0,0-6.74-3.252c-5.862,0-12.727,5.529-19.365,10.876-.6.485-1.224.986-1.834,1.473-2.133,1.706-7.7,3.094-12.4,3.094a14.384,14.384,0,0,1-4.565-.615,3.766,3.766,0,0,1-2.641-2.281c-.422-1.35.2-3.046,1.859-5.041a46.326,46.326,0,0,1,8.96-7.582,7.606,7.606,0,0,0,2.724-3.1,4.1,4.1,0,0,0-1.579-5.268,6.471,6.471,0,0,0-3.523-.942,13.279,13.279,0,0,0-6.738,2.19,32.275,32.275,0,0,0-8.307,7.822c-6.673,8.564-13.01,13.09-18.325,13.09A8.591,8.591,0,0,1,237.6,177.4c-3.449-4.916-3.883-13.424-1.081-21.172a5.467,5.467,0,0,1,3.946-3.329,22.1,22.1,0,0,1,6.307-.673c1.1,0,2.239.03,3.337.06s2.146.058,3.163.058c.828,0,1.537-.019,2.168-.059a17.624,17.624,0,0,0,4.463-2.221c2.5-1.625,4.067-3.306,4.407-4.736.31-1.3-.374-2.436-2.091-3.463a9.495,9.495,0,0,0-4.507-.734c-1.408,0-2.97.093-4.48.184s-2.957.177-4.264.177c-2.116,0-4.36-.191-4.961-1.609-.541-1.278.454-3.161,3.132-5.928,6.531-6.742,17.064-10.77,23.475-10.77a7.266,7.266,0,0,1,4.723,1.276c2,1.7,3.068,10.054,2.882,12.315a10.736,10.736,0,0,0,2.42,7.812,9.893,9.893,0,0,0,7.22,3.259c.142.008.284.012.423.012a4.365,4.365,0,0,0,3.829-1.793c.915-1.409,1.46-4.312-1.137-10.141-.278-.624-.61-1.333-.961-2.083-2.34-5-3.905-8.642-2.722-9.928a4.4,4.4,0,0,1,3.42-1.163c3.355,0,8.3,1.715,13.539,3.532,5.293,1.835,10.765,3.733,14.449,3.733a5.121,5.121,0,0,0,3.1-.79c.872-.658,1.433-3.024.863-5.844a12.393,12.393,0,0,0-2.867-5.762,13.65,13.65,0,0,0-7.041-4.1,27.921,27.921,0,0,0-6.907-.794,75.179,75.179,0,0,0-7.957.565,74,74,0,0,1-7.791.556,25.155,25.155,0,0,1-7.9-1.146,2.887,2.887,0,0,1-1.968-1.69c-.8-2.141,1.209-5.474,3.751-9.694A80.638,80.638,0,0,0,288,94.077a20.98,20.98,0,0,0,2.182-7.486c.167-2.752-1.617-6.693-4.338-9.584-1.75-1.86-3.593-2.926-5.055-2.926a2.989,2.989,0,0,0-2.631,1.739,14.763,14.763,0,0,0-1.377,6.6,61.852,61.852,0,0,1-.959,8.806,51.153,51.153,0,0,1-2.481,9.18,22.685,22.685,0,0,1-4.217,7.3,8.413,8.413,0,0,1-6.6,3.045,3.486,3.486,0,0,1-3.538-2.771,22.33,22.33,0,0,1-.355-6,36.283,36.283,0,0,0-.919-10.737,18.429,18.429,0,0,0-7.618-10.468c-1.717-1.191-3.063-1.794-4-1.794a1.317,1.317,0,0,0-1.116.506c-.74.934-.858,3.2-.349,6.735.477,3.312,1.409,7.282,2.4,11.485.913,3.891,1.858,7.914,2.406,11.366.636,4,.654,6.653.056,8.343-2,5.635-4.526,8.26-7.946,8.26a11.575,11.575,0,0,1-4.969-1.4c-1.354-.655-2.263-3.159-3.521-6.625-1.538-4.239-3.453-9.515-6.778-12.416a1.629,1.629,0,0,0-1.09-.456c-1.081,0-2.408,1.2-3.737,3.372a21.659,21.659,0,0,0-2.454,5.745,8.371,8.371,0,0,0,.71,5.21,43.161,43.161,0,0,0,3.208,5.786c3.14,5.07,6.7,10.816,4.775,17.558-2.9,10.121-1.679,18.861-.7,25.884.361,2.594.7,5.045.789,7.242a18.785,18.785,0,0,1-.856,7.441,7.739,7.739,0,0,1-4.952,4.741,4.843,4.843,0,0,1-1.6.255,9.829,9.829,0,0,1-6.637-3.178c-1.326-1.456-1.974-4.126-1.822-7.516a29.594,29.594,0,0,1,2.547-10.393,9.82,9.82,0,0,0,.622-5.024,10.84,10.84,0,0,0-1.5-4.5c-.655-1.007-1.4-1.562-2.1-1.562-.956,0-1.934,1.062-2.754,2.99-2.211,5.215-5.288,8.087-8.664,8.087a6.341,6.341,0,0,1-4.823-2.374,12.44,12.44,0,0,1-2.522-5.8,7.124,7.124,0,0,1,1.186-5.828c3.205-3.712,9.467-11.959,10.969-13.964a15.512,15.512,0,0,0,2.59-4.727,4.286,4.286,0,0,0-.02-2.895c-.265-.619-1.218-2.1-4.325-2.468a12.422,12.422,0,0,0-1.481-.092c-4.393,0-6.7,2.569-8.68,5.2a35.558,35.558,0,0,0-4.213,8.55,33.768,33.768,0,0,1-2.251,5.07c-1.041,1.705-1.793,2.4-2.594,2.4-1.085,0-1.813-1.347-2.438-2.8-.73-1.7-1.563-4.217-2.714-7.7-.962-2.908-2.159-6.527-3.674-10.791-.775-2.188-1.892-3.3-3.32-3.3-1.324,0-2.985.95-4.678,2.676a16.414,16.414,0,0,0-3.715,7.447,12.4,12.4,0,0,0-.2,4.587,7.6,7.6,0,0,0,1.832,3.965c.476.529,1.432,1.477,2.642,2.676,2.376,2.356,5.631,5.583,8.339,8.679a42.15,42.15,0,0,1,3.453,4.41,7.093,7.093,0,0,1,1.462,3.536c0,.322.011.643.024.953a4.39,4.39,0,0,1-3.606,5.2,13.216,13.216,0,0,0-4.018,2.158,4.7,4.7,0,0,0-1.583,2.28,5,5,0,0,0,1.294,4.343c1.061,1.3,4.071,2.252,7.155,2.252a14.061,14.061,0,0,0,4.892-.842,21.527,21.527,0,0,0,3.225-1.608,8.739,8.739,0,0,1,4.315-1.592c1.688,0,3.467.935,5.6,2.942,4.423,4.166,7.408,8.467,8.872,12.782a18.073,18.073,0,0,1,1.007,5.959,14.932,14.932,0,0,1-1.043,5.4c-2.918,7.353-11.51,11.921-22.423,11.921-1.32,0-2.682-.067-4.047-.2-2.879-.279-5.01-1.318-6.334-3.086-2.788-3.727-1.6-9.907-.558-15.361.732-3.817,1.423-7.422.329-8.746a1.808,1.808,0,0,0-1.49-.576,13.878,13.878,0,0,0-5.526,1.877c-8.174,4.19-6.489,12.714-5.482,17.806.458,2.316.656,3.456.167,4.052a.923.923,0,0,1-.742.336,1.553,1.553,0,0,1-.445-.071c-6.675-2-11.954-4.659-15.692-7.9a18.137,18.137,0,0,1-6.227-9.928c-.62-2.927.926-7.234,4.594-12.8a101.619,101.619,0,0,1,8.851-11.25c1.953-2.167,4.338-5.05,5.46-8.143a9.476,9.476,0,0,0-1.275-9.285,3.594,3.594,0,0,0-3.053-1.7c-3.154,0-6.822,3.648-7.87,4.766-1.865,1.988-3.654,6.033-5.232,9.6-2.1,4.748-3.259,7.226-4.622,7.226-1.083,0-1.548-1.529-1.833-2.86a71.6,71.6,0,0,1-1.611-14.72q0-.735-.007-1.428a34.644,34.644,0,0,1,.527-8.157,12.612,12.612,0,0,1,4.058-6.618c2.84-2.61,5.656-2.862,8.38-3.106a17.043,17.043,0,0,0,5.4-1.105,14.875,14.875,0,0,0,5.841-4.906c3.426-4.47,3.49-6.044,3.223-6.584-.2-.4-.785-.605-1.744-.605-1.983,0-5.116.881-8.145,1.733-3.124.878-6.075,1.708-8.052,1.708a2.8,2.8,0,0,1-2.123-.668,1.732,1.732,0,0,1-.438-1.343c.1-1.683,1.19-3.94,2.07-5.754.383-.79.714-1.473.889-1.955a4.59,4.59,0,0,1,1.925-1.842,30.83,30.83,0,0,1,3.988-2.073,76.05,76.05,0,0,1,12.4-4.134,67.088,67.088,0,0,0,11.9-4.95,39.325,39.325,0,0,0,6.631-4.238c1.92-1.586,3.008-3.048,3.235-4.345.231-1.321-.44-2.483-2.053-3.553a14.841,14.841,0,0,0-8.343-2.524,21.2,21.2,0,0,0-7.482,1.508,39.5,39.5,0,0,0-7.222,3.743,97.7,97.7,0,0,0-11.743,9.284l-.755.669a1.113,1.113,0,0,1-.735.318.911.911,0,0,1-.692-.332c-.241-.27-.974-1.092-.912-7.132.037-3.57.329-7.267.567-9.347a11.885,11.885,0,0,0-2.421-8.671,3.451,3.451,0,0,0-5.429-.31,13.539,13.539,0,0,0-2.882,4.209,18.384,18.384,0,0,0-1.549,8.958,68.239,68.239,0,0,0,1.454,9.805c.966,4.893,1.965,9.953,1.3,14.664a56.757,56.757,0,0,1-2.008,7.963c-.192.634-.373,1.233-.547,1.827a2.549,2.549,0,0,1-2.462,1.86,4.071,4.071,0,0,1-3.075-1.817,84.816,84.816,0,0,0-6.481-7.536c-2.217-2.231-4.291-3.362-6.164-3.362a5.4,5.4,0,0,0-3.759,1.7,6.087,6.087,0,0,0-2.132,4.866c.261,3.989,4.592,7.474,5.913,8.446,3.079,2.271,6.261,4.763,8.37,8.037,2.327,3.613,3.025,7.723,2.131,12.567a.872.872,0,0,1-.962.7c-.893,0-2.562-.722-5.09-1.815a87.128,87.128,0,0,0-13.052-4.735,13.057,13.057,0,0,1-5.192-2.4,16.01,16.01,0,0,1-2.911-3.417c-.438-.622-.891-1.265-1.43-1.956-1.062-1.36-2.16-2.873-3.221-4.337a82.785,82.785,0,0,0-5.891-7.521c-1.822-1.96-3.318-3.459-4.608-3.459-1.408,0-2.916,1.882-4.889,6.1-.669,1.429-.378,3.608.8,5.978a15.188,15.188,0,0,0,4.507,5.462c6.312,4.385,9.243,7.158,9.5,8.99a1.619,1.619,0,0,1-.333,1.281c-4.7,5.787-12.951,6.529-19.615,6.529-2.109,0-4.15-.08-6.124-.157-1.712-.067-3.329-.13-4.779-.13-2.749,0-5.66.193-6.415,1.624-.614,1.165.142,3.314,2.246,6.388.959,1.4,2.533,2.083,4.812,2.083a31.581,31.581,0,0,0,7-1.179,25.208,25.208,0,0,1,5.309-.948,2.977,2.977,0,0,1,3.021,4.191,20.244,20.244,0,0,1-3.35,5.36,3.935,3.935,0,0,0-.8,3.358,7.071,7.071,0,0,0,1.714,3.076c.871.978,2.183,2.144,3.485,2.144,1.1,0,2.086-.855,2.941-2.54,1.047-2.055,6.064-10.57,7.88-13.525a23.923,23.923,0,0,1,7.785-7.8A19.567,19.567,0,0,1,105.35,154.3a15.73,15.73,0,0,1,5.2.871,16.367,16.367,0,0,1,4.921,2.773c3.313,2.689,5.948,6.761,7.834,12.105.021.059.128.347.276.745.625,1.682,2.089,5.622,3.134,8.606,1.012,2.888,1.132,4.816.366,5.9a2.378,2.378,0,0,1-2.074.932c-1.621,0-3.984-.934-7.224-2.854a30.009,30.009,0,0,1-3.352-2.441,21.659,21.659,0,0,0-7.393-4.362,12.015,12.015,0,0,0-3.527-.544,12.165,12.165,0,0,0-7.885,3.041,11.246,11.246,0,0,0-3.682,5.4c-.123.549-.23,1.517.427,1.826a19.2,19.2,0,0,0,7.855,1.664,27.834,27.834,0,0,1,6.44.918c5.843,1.657,9.693,2.811,13.881,4.851,5.556,2.7,9.193,4.918,11.445,6.971a14.536,14.536,0,0,1,3.8,5.54,2.994,2.994,0,0,1-.055,2.735c-.91,1.72-3.591,3.2-8.2,4.529-3.847,1.108-8.449,1.943-12.146,2.614-1.8.327-3.36.61-4.625.882-3.443.745-5.554,1.975-6.1,3.557-.411,1.186.059,2.609,1.4,4.232a10.934,10.934,0,0,0,3.046,2.678,7.186,7.186,0,0,0,3.6.927,12.086,12.086,0,0,0,4.231-.872c.645-.241,1.369-.517,2.136-.81,6.906-2.633,18.464-7.039,26.668-7.039a15.168,15.168,0,0,1,4.712.652,16.759,16.759,0,0,1,5.078,2.447,3.545,3.545,0,0,1,1.594,2.837c-.041,1.4-1.123,2.791-3.309,4.258a37.444,37.444,0,0,1-6.74,3.376,95.337,95.337,0,0,1-9.682,3.23l-.015,0a70.878,70.878,0,0,0-10.916,3.639,26.754,26.754,0,0,0-7.091,4.25c-1.74,1.572-2.58,3.178-2.5,4.781l.093.516c.645,3.574,1.546,6.218,2.68,7.86a4.147,4.147,0,0,0,3.481,2.1h0c1.538,0,3.408-.866,5.715-2.644a75.814,75.814,0,0,0,6.414-5.865c3.957-3.895,7.694-7.574,10.617-7.574a3.165,3.165,0,0,1,2.364,1.043l.062.065.035.082c.777,1.841-.943,6.326-2.763,11.075-1.181,3.08-2.4,6.265-2.459,7.764a5.966,5.966,0,0,0,1.775,4.2,5.514,5.514,0,0,0,7.557.708,12.531,12.531,0,0,0,3.476-4.2c2.532-4.574,4.208-11.675,4.984-21.107.279-3.4,2.188-8.366,4.865-12.645A25.9,25.9,0,0,1,170,225.234c1.635-1.5,3.168-2.255,4.558-2.255a4.127,4.127,0,0,1,3.525,2.256,18.361,18.361,0,0,1,2.1,7.05,20.9,20.9,0,0,1-2.234,11.958,63.8,63.8,0,0,1-6.214,9.836,47.587,47.587,0,0,0-3.741,5.654c-2.226,4.361-1.951,6.624,1.176,9.687a2.517,2.517,0,0,0,1.714.87c2.121,0,4.167-4.264,5.972-8.026.71-1.48,1.381-2.878,2.075-4.1C179.411,257.314,179.983,256.881,180.626,256.881Z" fill="#1c1c1b"/></g></svg>