<?xml version="1.0" encoding="UTF-8"?>
<svg id="Layer_2" data-name="Layer 2" xmlns="http://www.w3.org/2000/svg" xmlns:xlink="http://www.w3.org/1999/xlink" viewBox="0 0 483.51 407.51">
  <defs>
    <style>
      .cls-1, .cls-2 {
        fill: none;
      }

      .cls-3 {
        clip-path: url(#clippath);
      }

      .cls-4 {
        fill: #3e3f44;
      }

      .cls-5 {
        fill: #60aaa9;
      }

      .cls-2 {
        stroke: #1c1c1b;
        stroke-miterlimit: 10;
        stroke-width: .48px;
      }
    </style>
    <clipPath id="clippath">
      <rect class="cls-1" y="287.87" width="483.51" height="119.65"/>
    </clipPath>
  </defs>
  <g id="edge-splat-graphic">
    <g class="cls-3">
      <path class="cls-5" d="m277.55,249.29l-.98-.8v-82.3h-89.28l-.36-.41v-82.69h-89.64v1.02c-.78-.33-1.57-.67-2.37-1.02h2.37V0H2.78L0,337.27h366.21v-87.99h-88.66Z"/>
      <g>
        <path class="cls-4" d="m415.13,327.32c-1.08-.36-2.16-.72-3.32-1.11-.89.58-1.76,1.58-2.73,1.69-1.26.13-1.61,1.21-2.52,1.6-.21.09-.43.26-.63.24-.42-.04-.9-.1-1.23-.33-.22-.14-.36-.63-.29-.91.13-.54.38-1.07.66-1.56.53-.89,1.08-1.76,1.69-2.59,1.24-1.69,1.82-3.44.61-5.22.42-.98,1.53-1.5.84-2.69-.92.05-1.87.09-2.86.14-1.61,1.37-2.19,3.37-3.09,5.48.98.49,1.91.96,2.85,1.44-2.29,3.97-6.57,4.91-9.69,7.34-.88-.29-1.22-.77-.8-1.57.53-1.01,1.05-2.03,1.68-2.98.58-.87,1.06-1.75,1.06-2.95-1.33-.76-2.69-1.54-4.18-2.4.17-.87.31-1.64.48-2.39.32-1.41.97-2.4,2.53-1.8.97-1.45,1.55-2.73,1.22-4.36-.32-1.59.68-2.91,1.54-4.05.63-.84,1.16-1.6,1.48-2.62.17-.54.95-.9,1.55-1.42-.27-.55-.56-1.13-.93-1.88,1.44-1.13,2.46-2.53,2.71-4.49.14-1.08.89-2.08,1.46-3.31.66-.13,1.43-.24,2.18-.44,1.46-.38,2.53-1.09,2.22-2.88-.04-.26.25-.57.51-1.09.96.52,1.84,1,2.72,1.47.35.13.7.26,1.05.4.02-.12.04-.23.07-.35-.39,0-.79,0-1.18,0,.34-.46.62-.98,1.03-1.35.53-.49,1.22-.66,1.9-.27.66.38.97.99.83,1.74-.12.67-.35,1.32-.58,2.15,1.29.55,2.14,1.95,3.95,1.95.03-1.28-1.25-1.38-1.54-2.17-.09-1.01-.21-2.03-.26-3.04-.02-.32.04-.81.24-.94,2.01-1.31.68-2.48-.11-3.68-.04-.06.05-.21.06-.26,1.7-.64,3.37-1.27,5.23-1.98.54.92,1.07,1.84,1.92,3.28-1.48-.43-2.39-.7-3.54-1.04-.25,1.55-1.34,2.74-.58,4.29-.6.49-1.21.99-1.85,1.52.15.4.18.8.39.98.95.81,1.96,1.55,2.94,2.31.42,1.23-1.17.84-1.33,1.66-.15.75-.45,1.47-.74,2.36.23.52.84.29,1.38.22.76-.09,1.36.08,1.66.86.26.67.81.66,1.42.67.39,0,1.1.23,1.13.43.28,1.98,1.92,1.99,3.47,2.27-.21,1.59-1.48,2.07-2.21,2.93-1.13-.1-2.13-.18-3.02-.26-1.08,1.02.38,1.49.12,2.69-.71,1.48-2.27,2.51-4.2,2.86-.49,1.7.4,2.63,1.32,3.47.49.45,1.22.63,1.79,1,.86.57,1.16,1.37.73,2.42-1.25.42-2.53.85-3.92,1.33-1.72-.52-2.23-2.4-3.54-3.53-.92.7-1.77,1.4-2.66,2.03-1.25.89-1.75,2.3-.68,3.11,2.1,1.59,1.5,3.65,1.52,5.65,0,0,.07-.07.07-.07Zm-6.98-25.37c-.35.23-.7.46-1.06.7q1.99,2.5,2.26,4.97c.53.34,1.12.69,1.68,1.07.54.36,1.07.75,1.72,1.21.09-.82.16-1.39.27-2.39.91.98,1.49,1.6,2.23,2.41.51-1.01.9-1.79,1.27-2.52-.64-.99-1.35-1.64-1.27-2.86.09-1.44-.78-2.07-2.16-1.89-.66.09-1.28.55-1.93.6-1.21.08-2.6.35-3.06-1.35,1.53.06,1.93-1.33,2.54-2.18,1.2.09,1.62,2.26,2.99.73q-1.42-3.05-.58-5.25c-.21-.03-.48-.15-.61-.06-.46.32-.97.64-1.29,1.08-1.27,1.77-2.56,3.54-2.99,5.75Zm9.86,4.35c.6.23.99.53,1.17.43,1.26-.69,2.07-1.77,2.31-3.2.17-1.05-.61-2.05-1.69-2.17-.56-.06-1.14.02-1.69.11-.19.03-.34.27-.56.46-.05.29-.15.62-.15.95,0,.42.1.84.18,1.45,1.02-.37,1.82-.66,2.72-.99.27,1.81-1.29,2.08-2.3,2.95Zm-7.15,5.76c-.52-.43-.84-.84-.96-.78-.39.16-.73.48-1.03.79-.06.06.18.54.22.53.5-.12.99-.29,1.78-.54Zm6.39,1.74h.39c.04-.4.1-.81.09-1.21,0-.16-.19-.31-.29-.47-.09.18-.23.36-.25.55-.02.37.03.75.05,1.12Zm-10.86-8.44l.14-.19-.21-.04.07.23Z"/>
        <path class="cls-4" d="m318.4,328.17q-.27-1.37-1.46-2.36c-1.25.85-2.6,1.62-4.26,1.69-.55.02-1.08.65-1.58.97-.45-1.76-.87-3.39-1.31-5.1.48-.71,1.12-1.47,1.54-2.33.35-.71.77-1.09,1.55-1.07.84.02,1.63.14,1.98,1.04.32.83.38,2.04,1.71,1.56,1-.36.51-1.36.54-2.12,0-.1.07-.2.13-.37h1.37c.52-.83,1.06-1.68,1.66-2.62,1.3.18,2.54.36,3.78.51,1.02.12,1.78-.8,1.39-1.72-.51-1.22-1.29-2.14-2.84-2.24.92-2.04,2.67-2.61,4.78-2.95.38.24.85.54,1.32.84,2.19,1.41,4.25,3.01,7.08,3.09,1.05.03,2.08.82,3.02,1.22,2.32-.8,2.93-2.48,2.77-4.72-.28-.03-.61-.17-.87-.09-.64.2-1.38.72-1.64-.31-.18-.7.55-.88,1.1-1.04,1.12-.34,2.14-.81,2.65-1.98.51-1.18,1.58-1.1,2.71-1.29.34.84.6,1.58.93,2.29.57,1.22.33,2.2-.77,2.99-.14.1-.14.41-.26.82.34.31.78.64,1.15,1.04.99,1.08,1.01,2.02.05,2.99-.32.32-.72.57-1.08.85-.27.21-.52.44-.64.53-.38,1.09.05,1.76.59,2.38.52.61,1.08,1.18,1.62,1.78,1.17,1.28,1.19,2.32-.03,3.54-1.62,1.62-3.49,2.59-5.89,1.89-.31-.09-.64-.11-1.29-.21.4.76.67,1.28.95,1.81-.36.7-.89.57-1.42.26-.85-.5-1.22-1.64-2.52-1.6-1.01.03-1.54.11-1.93.96-.05.1-.07.22-.12.32-1.16,2.88-1.65,3.09-4.52,2.72-1.67-.22-3.39-.15-5.08-.08-.5.02-1.11.42-1.44.82-.78.96-1.66,1.34-2.9,1.28-.62-.03-1.26.39-1.95.62-.33-.5-.72-.85-.78-1.25-.19-1.14-.69-1.87-1.89-2.14-.78-.18-1.05-.85-.92-1.61.1-.62.51-.99,1.13-1.14.64-.15,1.27-.34,1.89-.5Zm14.81-8.87c1.1-1.44,1.03-2.28-.19-2.56-.95-.22-1.94-.41-3.21.19,1.14,1.15,2.15,1.93,3.4,2.38Zm-2.42,10.17c.23-.03.46-.05.68-.1.58-.14,1.15-.4,1.02-1.1-.13-.71-.81-.75-1.37-.69-.43.04-.89.21-1.23.46-.2.16-.25.59-.24.9,0,.14.29.32.48.41.2.09.44.08.67.12Zm-4.22-6.73c-.13-.18-.22-.42-.39-.53-.61-.41-1.25-.5-1.83.04-.11.1-.14.46-.05.59.47.66,1.48.9,2.05.49.14-.1.16-.39.23-.59Zm.63,6.51l-.28-.05.1.25.17-.21Z"/>
        <path class="cls-4" d="m406.67,278.64c.34-.04.67-.08,1.17-.14v-2.56c.37-.16.58-.34.77-.33.91.05,1.83.07,2.53.83.49.53.73,1.5.2,1.81-1.53.9-1.18,2.28-1.34,3.78.81.1,1.44.19,2.06.27.91.78-.26,1.42-.11,2.18.43-.1.85-.2,1.28-.3-.39,1.96-.47,2.04-4.14,4.32-.68-1.46-1.84-2.25-3.62-2.51-.23.42-.62.86-.71,1.36-.41,2.21-1.03,4.23-3.4,5.11-.1.04-.21.12-.26.21-.89,1.7-1.77,3.41-2.65,5.12.59,1.68-.96,2.7-1.26,4.11-.28,1.34-.43,2.74-.93,4-.45,1.14-1.3,2.13-1.94,3.13-1.42.45-2.61.18-3.72-.18-.92-1.13-1.21-2.33-1.16-3.63.55.04,1.14.21,1.64.07.33-.09.63-.6.75-.98.07-.22-.18-.67-.41-.81-.2-.12-.72-.07-.86.1-.41.51-.71,1.12-1.05,1.69-.96.58-1.92,1.17-2.98,1.81.09.21.14.63.36.76,1.2.69,1.43,1.63,1.08,2.92-.38,1.37-.75,2.7-2.31,3.14-.53.15-1.13.19-1.67.1-.78-.13-1.51-.51-2.29-.62-.64-.09-1.32.05-2.14.1-.34-.95-.82-1.77-.91-2.64-.19-1.88-1.48-3.09-2.56-4.37-.54-.64-1.54-.92-2.39-1.23-1.02-.38-1.82-.93-2.23-1.97-.21-.55.25-1.21.83-1.18,1.71.09,3.03.91,3.75,2.24,1.41-.1,1.6-.89,1.63-1.72.08-1.77.89-2.79,2.73-2.86.23,0,.55-.02.66-.15,1.22-1.62,3.06-1.05,4.65-1.41,1.78-.41,3.39.16,5.24.39.08-.76.15-1.5.22-2.14.95-1.17,2.61.9,3.68-.92-2.06-.35-3.73-.62-5.4-.92-.33-.06-.63-.26-1.12-.46v-2.28c1.2-.5,2.34-.97,3.63-1.51-.24-.94-.48-1.8-.69-2.66-.17-.7-.13-1.39.44-1.91.69-.64,1.48-.51,2.23-.1.4.21.76.5,1.19.78.77-.61,1.53-1.23,2.42-1.94-.18-1.74-.28-3.56-.57-5.36-.3-1.87.76-3.28,1.44-4.82.31-.69,1.71-.54,2.05.15.59,1.19.19,2.73,1.39,3.76.21.18-.16,1.05-.29,1.6-.14.62-.3,1.24-.54,2.22,2.59-.57,4.8-.93,5.68-3.51l-.05.05Zm-12.48,13.27c.18.62.33,1.12.57,1.95.74-.83,1.24-1.39,1.76-1.98.93.27,1.78.51,2.5.71,2.03-2.36,2.58-5.49,4.99-7.41.48-.38.55-1.03.17-1.55-.41-.56-1.03-.41-1.56-.18-.41.17-.92.39-1.1.74-.96,1.84-1.9,3.65-3.95,4.53-.38,1.75-1.9,2.4-3.38,3.19Zm-9.6,13.14c.58,0,.87.04,1.14-.02.08-.02.11-.33.13-.5,0-.02-.2-.11-.26-.08-.26.13-.51.3-1.01.61Z"/>
        <path class="cls-4" d="m401.25,332.24c-1.97,1.36-3.15,3.27-3.8,5.53-.2.7-.2.7.8,2.21.91-.65,1.82-1.29,2.69-1.92,1,.13.34.94.63,1.35,2.27.21,2.51.09,3.11-1.52.94-2.54,2.09-2.88,4.24-1.18,1.05.83,2.2,1.56,2.47,3.1.1.6.74,1.12,1.23,1.8-.28.71-.5,1.47-.88,2.14-.54.94-.84,1.85-.47,2.93.4,1.17-.1,2.02-1.14,2.55-.94.47-1.29,1.23-1.3,2.23l.07-.06c-1.18.7-2.33,1.48-3.57,2.06-.8.37-1.74.49-2.63.63-.51.08-.96-.84-.71-1.3.52-.96,1.33-1.58,2.33-1.92.85-.28,1.74-.42,2.74-.65-.41-1.67-.79-3.26-1.21-4.96-1.05.39-1.9.62-2.66,1.03-.47.25-.93.7-1.15,1.17-.72,1.55-1.95,2.83-2.28,4.6-.08.44-.68.79-1.28,1.44-.42-.86-.72-1.41-.97-1.98-.61-1.35-1.23-1.78-2.64-1.62-1.11.13-2.2.56-3.52.3-.11-.82-.22-1.57-.34-2.43.43-.1.73-.23,1.03-.22,1.64.02,1.66,0,1.42-2.1-.88,0-1.77.02-2.67,0-1.51-.04-2.93-.29-4.19-1.27-.74-.57-1.39-1.06-1.72-2.02-.33-.94-.96-1.77-1.49-2.7.67-1.18,1.65-1.97,2.71-2.61.66-.4,1.49-.68,2.24-.69.97-.02,1.16.94,1.45,1.68.22.55.63.89,1.45,1.08-.14-1.21-.34-2.21-.35-3.21-.01-.78.15-1.58.35-2.34.07-.25.49-.54.77-.57.27-.03.72.18.84.41.47.91.84,1.87,1.24,2.79.4.12.71.28,1.04.3.32.02.65-.11,1.21-.22-.3-.89-.57-1.7-.89-2.67.22-.39.5-.88.78-1.37.54-.94,1.24-1.74,2.41-1.63,1.19.11,2.19.66,2.58,1.93l.05-.07Zm-1.66,13.39c.21-1.61-.5-2.54-1.43-3.18-.45-.31-1.32-.27-1.89-.08-.53.18-.33,1.61.25,2.12.25.22.54.43.85.53.64.22,1.3.36,2.22.61Z"/>
        <path class="cls-4" d="m369.63,354.24c.6-.02,1.26-.17,1.31-.82.09-1.16,0-2.32,1.54-2.61.16-.03.36-.32.4-.51.3-1.42.57-2.85.81-4.29.02-.13-.25-.38-.44-.46-.18-.08-.5-.1-.64,0-1.16.91-2.26,1.91-3.46,2.78-.89.65-1.85.38-2.24-.61-1.21-3.12-1.18-3.19,1.61-4.34,2.6-1.08,5.24-1.44,8.12-.65.12.89.23,1.74.38,2.9.81-.38,1.36-.71,1.96-.88.25-.07.7.08.88.29.18.21.29.78.16.9-1.43,1.29-1.43,2.98-1.48,4.69-.01.53-.32,1.05-.58,1.84-.81-.44-1.45-.79-2.09-1.14-.77.21-.79.85-.56,1.35.26.58.76,1.06,1.23,1.69-1,1.52-2.44,2.63-3.84,3.78-.21,1.38.33,2.46.97,3.56,1.04-.25,1.98-.48,2.86-.69,1.24,1.98,1.25,3.59-.69,4.87l.06.06c-.98-.95-2.1-1.69-3.19-2.47-1.46,1.38-2.77,2.61-4.04,3.81-1.06-.27-2.02-.51-3.14-.78.3-.75.53-1.35.78-1.99-.71-.99-1.72.47-2.61-.48.03-.47.13-1.12.06-1.75-.03-.26-.39-.6-.66-.67-.26-.07-.67.09-.9.28-.25.21-.45.55-.53.87-.43,1.7-1.82,2.6-3.06,3.57-1.18.92-2.73.61-3.6-.65-.45-.65-.74-1.41-1.21-2.33.5-.57,1.07-1.23,1.77-2.03.54.32.97.71,1.47.82.51.12,1.27.17,1.59-.11,1.26-1.14,2.47-2.36,3.53-3.68,1.17-1.45,1.55-3.26,1.75-5.11.95-.81,1.89-1.62,2.99-2.56.53.39,1.18.68,1.53,1.18.52.74.83,1.62,1.22,2.44-.55-.29-1.1-.58-2.01-1.05.11,1.01.17,1.6.29,2.68.78-.79,1.23-1.24,1.68-1.7Zm-1.66,3.1c-.34.41-.75.72-.69.86.14.36.45.66.76.92.04.03.64-.4.61-.52-.1-.39-.38-.73-.68-1.25Zm1.85,3.34c.08-.02.24-.04.24-.05,0-.2-.03-.4-.05-.61-.08.02-.24.04-.24.05,0,.2.03.4.05.6Z"/>
        <path class="cls-4" d="m330.93,367.25c.26-1.5.42-2.62.66-3.72.2-.91.54-1.96,1.49-2.14,2.11-.39,3.24-1.91,4.26-3.47,3.37,1.46,4.06,1.55,7.12.87.07.66.16,1.3.19,1.94.03.56,0,1.13,0,1.86.57.68,1.21,1.46,2,2.41-2.31,1.07-3.88,2.58-3.64,5.43-.82.04-1.54.27-2.07.05-1.17-.48-2.28-1.02-3.53-.34-1.05-1.33-1.93-2.43-2.96-3.72-1.02-.31-2.16.19-3.53.84Zm7.58.05c1.67-.93,2.94-1.63,4.2-2.36.58-.33.66-.88.46-1.46-.13-.39-.32-.75-.62-1.43-1.35,1.9-3.17,2.97-4.04,5.25Z"/>
        <path class="cls-4" d="m358.61,352.12c-.53.69-.52,1.47-.39,2.28.11.67.22,1.35.21,2.02,0,.74-.39,1.52-1.09,1.55-2.24.11-3.58,1.81-5.52,2.93-.38-.55-.87-1.02-1.05-1.59-.47-1.5-.81-3.04-1.25-4.77q.85-2-.61-4.49c.44-.52.93-1.1,1.42-1.69.44-.52.87-1.04,1.28-1.54,1.28-.31,2.14,1.57,3.49.58l-.05.05c.44.07.89.13,1.33.2,1.3.2,2.4,0,3.32-1.12.47-.57,1.26-.91,1.97-1.2.34-.14.95-.05,1.22.18.26.23.39.8.33,1.19-.24,1.57-1.36,2.57-2.55,3.41-.84.59-1.7,1.09-2.12,2.08l.06-.06Zm-6.23,3.42c.64-.61,1.33-1.17,1.87-1.86.16-.2-.02-.91-.27-1.13-.45-.4-1.06-.32-1.47.17-.2.24-.36.6-.35.9.03.66.18,1.32.29,1.98-.2.06-.4.11-.58.2-.07.03-.08.17-.12.27.16.02.42.11.46.05.11-.16.13-.38.18-.58Z"/>
        <path class="cls-4" d="m397.51,354.55c.25.54.43.94.67,1.45,1.17.1,2.4.18,3.62.32,1.44.16,1.7,1.76,3.08,2.36-.77.86-1.43,1.58-2.15,2.39-1.63-.35-3.15-1.46-4.87-.64.27,1.19.37,2.45.84,3.55.8,1.88.18,3.58-.29,5.33-.37,1.37-1.3,2.07-2.67,2.3-1.08.19-1.78-.3-1.85-1.42-.08-1.24-.1-2.49-.14-3.73-.05-1.36-.24-2.55-1.19-3.75-1.28-1.63-.35-3.52.39-5.16.8-1.78,2.35-2.68,4.58-2.99Z"/>
        <path class="cls-4" d="m388.3,283.16c-1.24-.79-2.35-1.5-3.5-2.23.4-.45.83-1.06,1.39-1.52,2.12-1.73,2.39-4,2.04-6.48-.11-.78-.18-1.56-.27-2.33,1.28-1.13,2.57-.49,3.61-.02,1.31.59,2.48,1.56,3.63,2.47,1.06.84,1.17,1.98.31,3-.58.69-1.31,1.27-2.02,1.84-1.61,1.29-3.16,2.62-4.23,4.42-.21.35-.64.58-.95.86Z"/>
        <path class="cls-4" d="m374.54,328.89c.72-.88,1.4-1.8,2.17-2.64.66-.72,1.84-.51,2.3.37.32.6.43,1.34.85,1.84,2.29,2.76,1.14,5.58.25,8.4-.05.17-.35.27-.66.49-.64-.28-1.35-.59-1.99-.86-1.84.44-3.6.91-5.38,1.28-.9.19-.92.1-1.96-1.43.03-.78.85-.63,1.17-1,.31-.37.33-.97.52-1.64.64.25,1.26.49,1.88.73,1.7.64,3.16-.11,4.51-.95.58-.36.54-1.21-.07-1.84-1.04.09-1.53,1.91-3.12.83.15-.64.36-1.37.48-2.11.14-.79-.24-1.31-1-1.55l.04.06Z"/>
        <path class="cls-4" d="m376.57,281.17c1.01-.51,2.02-1,3.02-1.52.88-.46,1.7-.61,2.55.42-1.13,3.05-3.58,4.68-6.55,5.84-.01.32-.1.66-.03.96.32,1.26.54,2.63-.53,3.51-1.22,1-2.66,1.74-4.4,1.41-1.29-.25-2.6-.39-4-.59.07-.33.04-.75.23-.91.42-.35.93-.69,1.45-.83,1.37-.35,2.23-1.29,3.24-2.19.93-.83,1.9-1.53,2.56-2.64.39-.66,1.06-1.16,1.52-1.78.39-.54.68-1.16,1.01-1.75,0,0-.06.07-.06.07Z"/>
        <path class="cls-4" d="m416.43,330.06c-1.04.88-2.21,1.65-1.68,3.39.12.38-.32,1.08-.69,1.44-.48.46-1.13.75-1.74,1.05-1.44.73-2.21.79-2.42.2-.36-.98.39-1.44.99-1.96.85-.73.35-1.41-.04-2.06,1.43-1.61,2.86-3.21,4.28-4.8,0,0-.08.07-.07.07,1.32-.41,1.89-1.19,1.38-2.6-.15-.41-.17-.87-.23-1.21.53-.59.99-.39,1.29-.05,1.04,1.15,2.25,1.87,3.82,2.04.52.06,1,.45,1.62.75-.34,1.68.15,3.57-2.08,4.25-.7-.99-1.34-1.88-2-2.81-1.36.43-2.06,1.26-2.5,2.36l.06-.06Z"/>
        <path class="cls-4" d="m381.49,265.22c-.39.58-.64.93-.99,1.45.99.98,1.54,2.22.84,3.76-.48.12-1,.24-1.76.43.31.45.48.88.79,1.08.55.35,1.19.55,1.94.88-.36.84-.67,1.55-1.05,2.44.52.41,1.08.85,1.64,1.29-.24.28-.35.55-.52.59-4.63,1.18-5.73-1.93-5.51-5,.12-1.72.17-3.38-.12-5.09-.22-1.29.34-1.87,1.67-2.03.68-.08,1.36-.12,2.04-.14.21,0,.41.13,1.03.34Z"/>
        <path class="cls-4" d="m369.1,300.81c.13-1.22.46-2.35.3-3.42-.17-1.15-.36-2.22.26-3.51,1.48.17,2.77,1.37,4.41,1.06,1.45-.27,2.93-.36,4.57-.56.67.46,1.55.99,2.32,1.64.28.24.53.91.39,1.16-.25.42-.79.91-1.23.93-.64.03-1.29-.35-1.94-.53-.87-.25-1.74-.57-2.63-.69-.72-.09-1.47.28-1.54,1.05-.2,2.24-1.72,2.71-3.54,2.86-.44.04-.88,0-1.36,0Z"/>
        <path class="cls-4" d="m431.21,275.36c1.61.4,2.85,1.14,3.85,2.29.6.69.36,1.63-.48,1.93-.11.04-.21.09-.32.1-2.92.45-5.82.95-8.75,1.32-1.61.2-2.44-.84-2.27-2.58.06-.63.39-1.06.99-1.23.33-.09.68-.18,1.01-.14,2.23.21,4.25-.34,5.98-1.7Z"/>
        <path class="cls-4" d="m357.21,328.57c.06-.79.11-1.42.15-2.07q2.57.95,2.23,3.33c-.06.45-.14.91-.16,1.36-.05,1.02.05,2.06-.13,3.06-.18,1-.62,1.95-1.01,3.08-.67.14-1.41.3-2.35.49-.2-1.03-.38-1.89-.58-2.9.56-1.01,1.16-2.1,1.76-3.18-1.27-.78-1.8.35-2.52.97-1.61-1.67-1.52-2.75.34-3.54.71-.3,1.49-.41,2.26-.62Z"/>
        <path class="cls-4" d="m387.88,351.03c-.47,2.31-3.13,3.21-2.92,5.66.49.5.9.18,1.18-.15.36-.42.6-.95.9-1.43.34-.53.81-.81,1.43-.54.58.25.91,1.16.56,1.76-.46.77-1.05,1.45-1.65,2.25-1.85-.32-3.7-.43-4.5-2.79.97-1.6,2.1-3.34,1.64-5.6.72-.47,1.39-.86,2-1.32.51-.38.95-.86,1.58-1.44.66.99,1.29,1.79,1.74,2.68.23.46.23,1.1.17,1.64-.03.26-.38.61-.65.68-.24.06-.61-.16-.83-.36-.23-.21-.35-.54-.65-1.05Z"/>
        <path class="cls-4" d="m376.63,281.1c-1.25.68-2.63.31-3.94.44-.92.09-1.41.57-1.87,1.24l.06-.06c-.72-.26-1.5-.42-2.13-.82-.92-.58-.93-1.83-.04-2.54.59-.47,1.43-.64,1.61-1.53l-.06.06c1.6-.74,3.2-1.49,4.89-2.27,2.01.97,2.18,1.24,1.51,3.06-.32.85-.79,1.64-.08,2.5,0,0,.06-.07.06-.07Z"/>
        <path class="cls-4" d="m435.83,300.8c-.14-.52-.3-.94-.36-1.38-.28-1.79.23-2.65,2.01-2.71,1.77-.06,2.99-.65,3.82-2.25.43-.82,1.46-.72,1.9.04,1.13,1.95.97,3.54-.6,4.87-.48.41-1.17.66-1.81.77-1.53.27-3.09.42-4.96.66Z"/>
        <path class="cls-4" d="m404.9,260.96c-1.52,1.49-1.57,1.62-2.27,3.65-.53,1.54-1.18,2.9-3.07,3.29-1.07.22-2.03.94-3.04,1.43-.94-2.05-.33-3.76,1.4-5,1.37-.99,2.88-1.8,4.38-2.59.66-.35,1.45-.44,2.6-.77Z"/>
        <path class="cls-4" d="m408.81,351.45c.52.24,1.07.42,1.54.73,2.02,1.31,2.01,1.33,4.08,1.5-.02,1.39-.81,2.56-1.22,3.81-.29.9-1.13,1.39-2.11,1.54-1.53.23-2.49-.35-2.68-1.89-.14-1.11-.05-2.27.04-3.39.06-.79.28-1.57.44-2.35,0,0-.07.06-.07.06Z"/>
        <path class="cls-4" d="m375.17,270.96c-.7,1.61-1.61,2.18-3.08,1.28-.76.68-1.45,1.42-2.26,1.99-.43.3-1.05.42-1.59.44-.94.04-1.72-1.05-1.42-1.87.63-1.74,2.05-2.92,3.14-4.33.4-.52,1.5-.41,2.19.11.98.74,1.92,1.51,3.02,2.38Z"/>
        <path class="cls-4" d="m411.38,262.84c1.74-.46,3.47-.91,5.18-1.36.4.81-.16.88-.53.98-2.44.68-4.1,2.27-5.52,4.57.93.45,1.69.82,2.7,1.31-.37.43-.59.94-.89.99-1.41.23-2.5.95-3.49,1.92-.19.19-.63.12-1.12.19-.27-1.16,1.05-1.45,1.11-2.64-.18-.28-.52-.82-.88-1.37.57-1.99,1.28-3.88,3.5-4.63l-.05.04Z"/>
        <path class="cls-4" d="m369.13,328.44c-.52,1.5-1.82,2.19-3.16,2.99-1.18-.53-1.91-2.21-3.61-1.38-.21.1-.82-.59-1.31-.97,1.28-2.2,2.65-3.94,5.15-4.15,1,1.2,1.93,2.32,2.92,3.5Z"/>
        <path class="cls-4" d="m388.15,328.03c-1.16-1.3-3.08-1.08-3.51-3.05.79-.26,1.51-.49,2.2-.72.36-1.37-1.24-.72-1.5-2.25.01-.55.91-.91,2.06-1.15.8.86,1.63,1.76,2.56,2.77.95-.24,1.9-.49,2.99-.76.06.41.24.86.12.98-1.45,1.42-2.89,2.85-4.92,4.18Z"/>
        <path class="cls-4" d="m433.09,302.22c1.75-.22,2.22,1.22,2.98,2.28,1.33,1.85.75,3.62-.22,5.64-.44-1.54.14-3.25-1.73-4.2-.43.79-.78,1.59-1.27,2.29-.22.31-.75.61-1.08.56-.67-.11-.83-.76-.7-1.34.12-.54.36-1.08.66-1.56,1.19-1.89,1.22-1.91,1.36-3.66Z"/>
        <path class="cls-4" d="m360.54,285.82c-3.29.65-6.07-.19-8.88-.25-.38,0-.82-.38-1.12-.69-.39-.4-.77-.95-.33-1.5.25-.31.76-.65,1.11-.61,1.34.17,2.69.42,3.99.77,1.41.37,2.79.86,4.16,1.35.28.1.49.42,1.06.94Z"/>
        <path class="cls-4" d="m356.41,343.91c.2-.26.38-.75.72-.91,1.43-.67,2.89-1.24,4.36-1.82.59-.23,1.41.24,1.63.88.23.66-.16,1.68-.76,1.62-1.34-.13-2.05.66-2.9,1.44-.73.66-2,.41-2.73-.4-.14-.16-.17-.41-.32-.8Z"/>
        <path class="cls-4" d="m399.26,272.89c-.37-.95-.63-1.62-.85-2.18.28-.34.38-.59.56-.67.72-.31,1.45-.63,2.21-.82,1.33-.34,2.63-.66,3.3-2.12.52.42.95.6.96.81.03.52-.02,1.11-.26,1.55-.18.35-.66.68-1.05.76-1.8.34-3.29,1.29-4.87,2.67Z"/>
        <path class="cls-4" d="m387.65,360.28c-1.24,1.42-2.12,2.78-3.52,3.81-.87.63-1.09,2.16-1.59,3.29-.22.5-.2.51-1.49,1.38-.35-1.65.68-2.89,1-4.26.15-.64.39-1.41.86-1.81,1.2-1.01,2.54-1.85,3.85-2.72.11-.07.4.13.89.31Z"/>
        <path class="cls-4" d="m420.61,341.18c.23,1.04.34,2,.66,2.88.29.82.8,1.57,1.31,2.52-.14.71-.54,1.29-1.62.9-.2-.07-.46-.05-.66,0-1.49.44-1.95.18-1.66-1.1.36-1.56.85-3.09,1.31-4.62.05-.17.31-.28.67-.59Z"/>
        <path class="cls-4" d="m387.72,263.71c0-2.58-.03-4.26.01-5.94.01-.67.14-1.34.28-1.99.04-.17.34-.4.5-.38.29.03.72.17.81.38.26.61.56,1.29.54,1.93-.04,1.35-.18,2.72-.49,4.03-.13.55-.78.97-1.65,1.97Z"/>
        <path class="cls-4" d="m354.32,335.91c-2.04,1.57-3.89,3-5.8,4.47-.61-.35-.23-.97,0-1.32.85-1.32,1.74-2.63,2.74-3.84.8-.97,1.39-.83,3.07.69Z"/>
        <path class="cls-4" d="m345.63,355.74c-.66.14-1.33.42-1.98.38-.44-.03-.85-.52-1.3-.82,3.3-3.29,2.79-3.53,5-3.4.58,1.4-.3,2.54-.81,3.71-.06.14-.62.06-.95.08.04-.1.09-.2.13-.29-.02,0-.06.02-.06.03-.01.11-.02.22-.02.32Z"/>
        <path class="cls-4" d="m347.7,301.43c.86,0,1.55-.09,2.2.02.89.14,1.44.84,1.37,1.67-.05.58-.46,1.35-.94,1.62-.6.33-1.44.24-2.22.33-.75-1.33-.75-2.45-.42-3.64Z"/>
        <path class="cls-4" d="m439.16,267.73c-2.09.55-3.92,1.05-5.76,1.52-.5.13-1.33-.42-1.27-.88.05-.38.3-.92.61-1.06,1.91-.89,3.91-1.03,5.93-.39.16.05.23.36.49.81Z"/>
        <path class="cls-4" d="m425.3,335.05c-1.05,1.37-1.84,2.57-1.54,4.14.04.22-.53.66-.89.8-.18.07-.64-.26-.79-.51-.47-.8-.77-1.64-.18-2.56.48-.76.88-1.57,1.43-2.57.57.2,1.13.4,1.96.7Z"/>
        <path class="cls-4" d="m368.15,334.53c-3.39,2.71-3.43,2.72-5.27,2.43.85-1.38,1.54-2.77,3.17-3.16.49-.12,1.13.38,2.1.74Z"/>
        <path class="cls-4" d="m416.12,364.09c.9-3.13,2.24-3.88,6.05-3.81-1.45,2.09-3.47,2.83-6.05,3.81Z"/>
        <path class="cls-4" d="m366.44,316.21c-.13-2.81,1.94-3.26,3.53-4.14.96.29,1.1,1.14.58,1.54-.7.54-.68,1.67-1.73,1.86-.74.13-1.45.44-2.38.74Z"/>
        <path class="cls-4" d="m349.9,328.59c-.36.26-.6.55-.88.61-1.78.34-3.54.67-5.09,1.71-.25.17-.65.18-.97.16-.15-.01-.3-.27-.42-.44-.05-.07-.04-.23,0-.31.12-.19.25-.42.43-.51,1.32-.64,2.64-1.3,4-1.84,1.01-.4,1.96-.12,2.92.62Z"/>
        <path class="cls-4" d="m321.05,310.85c-.89-.13-1.8-.21-2.68-.41-.25-.06-.57-.47-.56-.72,0-.25.32-.62.58-.71.41-.14.9-.17,1.33-.11,1.01.14,2.02.3,2.99.57.37.1.73.47.95.81.21.31-.56.74-1.27.67-.45-.04-.89-.13-1.34-.19v.09Z"/>
        <path class="cls-4" d="m358.49,293.67c-1.22,1.35-2.61,1.68-4.24,1.05-.58-.23-.99-.73-.71-1.31.21-.44.72-.93,1.17-1.03,1.07-.22,1.71.08,3.79,1.29Z"/>
        <path class="cls-4" d="m418.33,275.63c1.09-1.01,1.72-1.6,2.36-2.18.08-.07.2-.1.31-.14.69-.25,1.37-.21,1.86.34.25.29.42.81.36,1.17-.16.84-.77,1.46-1.62,1.45-.87-.01-1.73-.32-3.26-.64Z"/>
        <path class="cls-4" d="m441.56,308.39c1.86-2.28,2.12-2.3,5.06-.79-.49,1.49-.89,1.92-1.85,1.73-.97-.19-1.9-.55-3.21-.94Z"/>
        <path class="cls-4" d="m392.25,316.23c-.59.25-1.26.67-1.98.79-1.06.17-1.96-.57-2.11-1.69-.05-.34.29-1.03.52-1.07.74-.11,1.54-.11,2.27.07.78.19,1.43.67,1.31,1.9Z"/>
        <path class="cls-4" d="m367.73,317.94c-.07.55-.04.98-.2,1.32-.13.27-.46.52-.75.61-.74.23-1.58.22-2.24.57-.62.33-1.05,1-1.55,1.49-.97-.67-.67-1.3-.22-1.83,1.23-1.44,2.89-1.94,4.96-2.16Z"/>
        <path class="cls-4" d="m356.92,291.2c-1.25-.21-2.15-2.06-1.52-2.96.12-.17.35-.3.56-.36.83-.24,1.67.09,2.05.77.39.69.3,1.69-.27,2.19-.23.21-.59.27-.81.36Z"/>
        <path class="cls-4" d="m327.57,296.48c.58-.33,1.15-.67,1.84-1.07.71.34,1.51.72,2.21,1.05.28.85-.51,2.06-1.38,2.07-.74,0-1.57-.2-2.19-.59-.33-.21-.3-.99-.43-1.52,0,0-.06.05-.06.05Z"/>
        <path class="cls-4" d="m372.31,316.88c.25.22.46.33.57.51.49.84.58,1.75-.07,2.51-.75.89-1.8.71-2.8.48-.39-.09-.61-.85-.31-1.12.5-.44,1.07-.81,1.55-1.26.38-.35.46-1.02,1.05-1.11Z"/>
        <path class="cls-4" d="m378.58,323.02c-.29,1.01-.86,1.3-1.62,1.17-.62-.1-.96-.53-1.1-1.15-.15-.66-.36-1.32-.48-1.98-.03-.19.14-.41.3-.81,1.51.48,2.04,1.88,2.9,2.78Z"/>
        <path class="cls-4" d="m429.43,311.51c.9,2.65.77,2.89-2.21,3.67-.04-.45-.12-.88-.11-1.3.03-2.05.04-2.05,2.37-2.31l-.06-.06Z"/>
        <path class="cls-4" d="m366.12,309.51c1.61-.27,3.22-.4,5.4-.45-1.5,1.63-3.19,1.57-4.49,2.25-.31.16-.97-.35-1.66-.62.35-.52.59-.88.82-1.24,0,0-.07.06-.07.06Z"/>
        <path class="cls-4" d="m380.77,320.66c-.07-.32-.31-.76-.2-1.06.45-1.13,1.42-1.76,2.53-2.08.19-.05.82.55.8.79-.15,1.3-1.6,2.42-3.13,2.35Z"/>
        <path class="cls-4" d="m360.6,370.53c-.97-1.2-.93-2.17-.41-3.1.46-.82,1.28-1.09,2.32-1.28.25,1.9-.57,3.09-1.91,4.37Z"/>
        <path class="cls-4" d="m391.59,377.83c-1.57-.85-2.44-2.24-3.05-3.79-.09-.22.36-.66.8-1.42.69,2.1,2.34,3.16,2.25,5.2Z"/>
        <path class="cls-4" d="m328.76,341.59c-.93.66-1.47,1.22-2.12,1.43-.38.13-.99-.23-1.41-.5-.14-.09-.13-.73.03-.89.35-.36.85-.79,1.29-.79.6,0,1.2.38,2.21.75Z"/>
        <path class="cls-4" d="m401.2,332.31c.24-.23.47-.47.73-.69.51-.44,1.06-.93,1.76-.47.61.41.71,1.74.15,2.43-.21.26-.79.4-1.16.33-.86-.17-1.19-.92-1.44-1.68,0,0-.05.08-.05.08Z"/>
        <path class="cls-4" d="m382.58,378.77c-.23-.31-.69-.69-.77-1.13-.13-.72.36-1.28,1.02-1.54.23-.09.71.05.85.25.51.73.2,1.9-.54,2.31-.09.05-.21.04-.56.1Z"/>
        <path class="cls-4" d="m419.79,333.56c.06,1.47-.38,2.6-2.1,3.09-.49-1.24.19-2.18.36-3.32.72.12,1.26.2,1.8.29l-.06-.06Z"/>
        <path class="cls-4" d="m321.94,305.61c-.84.38-1.61.72-2.53,1.13-.06-.84-.11-1.57-.17-2.34,1.4-.42,1.93.54,2.7,1.21Z"/>
        <path class="cls-4" d="m337.26,307.31q-.83-2.17.37-4.24c.2.07.54.08.59.21.5,1.33-.25,2.36-.96,4.03Z"/>
        <path class="cls-4" d="m376.81,369.02c.77-.02,1.41-.24,1.72-.01.87.62.74,1.46.08,2.33-.95-.24-1.4-.92-1.81-2.32Z"/>
        <path class="cls-4" d="m360.99,334.81c.37.93.81,1.62.87,2.35.03.37-.53.9-.94,1.17-.4.26-1-.34-1.04-.96-.05-.89-.06-1.77,1.11-2.56Z"/>
        <path class="cls-4" d="m340.03,342.96c1.06-1.08,2.08-2.09,4.17-1.39-1.66.78-2.69,1.77-4.17,1.39Z"/>
        <path class="cls-4" d="m382.19,287.77c-.17-.2-.55-.46-.65-.8-.22-.74.21-1.49.88-1.45.46.03,1.07.32,1.31.69.34.54-.46,1.4-1.54,1.56Z"/>
        <path class="cls-4" d="m375.85,365.9c-.81,1.54-1.62,3.08-2.64,5.02-.22-.83-.53-1.31-.4-1.61.61-1.49,1.46-2.8,3.1-3.35,0,0-.06-.06-.06-.06Z"/>
        <path class="cls-4" d="m405.11,365.81c.22-.04.45-.15.64-.1.62.18,1.22.41,1.91.66-.12.37-.14.74-.33.94-.53.52-1.21.57-1.81.15-.58-.4-.95-.94-.4-1.65Z"/>
        <path class="cls-4" d="m366.19,309.45c-.34-.02-.68,0-1-.06-.65-.13-.94-.57-.82-1.22.14-.78.85-1.28,1.43-1.03.62.27.72.79.57,1.4-.08.33-.17.65-.25.98,0,0,.07-.06.07-.06Z"/>
        <path class="cls-4" d="m432.27,296.51c.1-1.2.8-2.03,1.45-3.03.92,1.63.45,2.5-1.45,3.03Z"/>
        <path class="cls-4" d="m366.39,341.05c-.67-1.19-.71-1.97.18-2.63.24-.18.66-.34.9-.24.54.21.46.7.2,1.1-.34.53-.74,1.02-1.28,1.77Z"/>
        <path class="cls-4" d="m425.14,346.87c-.33-.18-.67-.27-.68-.39-.03-.29,0-.74.17-.86.44-.3.97-.52,1.5-.64.21-.05.55.21.73.42.08.09,0,.5-.12.58-.54.35-1.12.63-1.6.9Z"/>
        <path class="cls-4" d="m376.11,358.78c-.33.39-.62.85-1.03,1.14-.17.12-.63-.06-.89-.22-.13-.07-.2-.41-.15-.6.08-.32.19-.71.43-.9.3-.24.74-.4,1.13-.41.14,0,.29.52.53.98Z"/>
        <path class="cls-4" d="m386.96,370.89c-.55.53-1.07,1.09-1.67,1.55-.19.14-.68.08-.89-.08-.21-.16-.37-.58-.31-.83.06-.26.4-.61.64-.63.75-.06,1.52.03,2.28.05l-.04-.06Z"/>
        <path class="cls-4" d="m437.65,342.11c-.19.11-.52.45-.85.45-.6,0-1.03-.41-1.03-1.04,0-.6.37-1.02.99-1.11.59-.08,1.02.61.89,1.7Z"/>
        <path class="cls-4" d="m337.93,332.72c-.05.21-.03.53-.15.59-.48.24-.99.44-1.5.54-.11.02-.5-.52-.44-.66.32-.78,1.2-1.09,1.9-.73.09.04.13.17.2.25Z"/>
        <path class="cls-4" d="m362.23,270.94c-1.36-.92-2.14-1.45-3.09-2.1,2.25-.44,2.29-.42,3.09,2.1Z"/>
        <path class="cls-4" d="m427.22,292.03c.86.08,1.3.64,1.04,1.2-.15.31-.64.45-.98.66-.22-.35-.61-.7-.62-1.06-.01-.3.42-.61.56-.8Z"/>
        <path class="cls-4" d="m346.3,294.76c-2.04-.07-2.26-1.4-2.73-2.51,1.08.38,1.1.36,2.73,2.51Z"/>
        <path class="cls-4" d="m339.1,349.62c.25-.19.49-.41.76-.58.53-.33.97-.98,1.73-.58.08.04.16.17.16.26.02.88-.71,1.03-1.3,1.26-.37.14-.81.12-1.22.18-.04-.18-.08-.36-.13-.53Z"/>
        <path class="cls-4" d="m354.64,272.81c.04-1.23.79-1.13,1.4-1.02.37.06.71.4,1.03.65.03.02-.16.47-.24.47-.73,0-1.47-.06-2.19-.1Z"/>
        <path class="cls-4" d="m404.09,275.09c-.57.32-1.02.75-1.23.66-.32-.14-.66-.66-.64-1,.02-.35.45-.68.7-1.02.33.38.66.77,1.17,1.36Z"/>
        <path class="cls-4" d="m353.98,302.29c-.78-.52-1.23-.77-1.62-1.1-.12-.1-.16-.44-.08-.57.09-.14.38-.27.55-.24.71.13,1.17.53,1.15,1.92Z"/>
        <path class="cls-4" d="m370.01,330.88c.52.37.86.61,1.2.85-.28.29-.53.76-.85.81-.32.05-.71-.33-1.06-.52.21-.33.41-.66.71-1.14Z"/>
        <path class="cls-4" d="m314.12,330.2c-.39.48-.77.98-1.2,1.42-.09.09-.46.02-.61-.09-.13-.11-.23-.48-.15-.56.42-.48.89-.9,1.35-1.34.2.19.4.38.61.57Z"/>
        <path class="cls-4" d="m369.64,265.62c.62-.14,1.23-.3,1.85-.38.11-.01.36.31.36.47,0,.17-.22.49-.36.49-.61.01-1.22-.06-1.83-.11,0-.16-.02-.31-.03-.47Z"/>
        <path class="cls-4" d="m359.66,313.86c-.59.66-.81,1.15-1.11,1.2-.28.04-.82-.32-.91-.61-.16-.48.54-1.16.98-1.06.31.07.59.26,1.04.47Z"/>
        <path class="cls-4" d="m357.24,322.34c-.64.31-1.05.68-1.32.59-.31-.1-.63-.57-.71-.93-.1-.46.22-1,.72-.85.42.12.72.63,1.31,1.19Z"/>
        <path class="cls-4" d="m358.55,352.19c.74.03,1.48.05,2.22.08l-.06-.05c.03.34.12.68.07,1-.1.69-.74,1.02-1.14.57-.43-.48-.7-1.11-1.03-1.67,0,0-.06.06-.06.06Z"/>
        <path class="cls-4" d="m352.22,320.27c-.24.24-.52.59-.86.85-.12.09-.47.05-.58-.06-.12-.12-.2-.47-.11-.59.25-.35.56-.66.9-.92.09-.07.39.11.57.23.06.04.04.21.08.49Z"/>
        <path class="cls-4" d="m425.24,297.16c-.22.33-.33.67-.57.83-.37.24-.88-.21-.78-.72.05-.27.34-.65.55-.68.22-.03.48.33.79.57Z"/>
        <path class="cls-4" d="m428.4,297.24c-.32.38-.47.74-.72.83-.51.18-.86-.14-.95-.64-.09-.47.02-1,.61-.94.35.04.65.45,1.06.75Z"/>
        <path class="cls-4" d="m341.84,285.1c-.54.25-.89.52-1.26.53-.2,0-.42-.41-.64-.64.33-.25.63-.58,1.01-.7.14-.05.44.39.89.81Z"/>
        <path class="cls-4" d="m434.01,284.23c-.36-.16-.79-.25-1.07-.5-.17-.16-.12-.56-.16-.85.21.02.48-.03.61.08.32.27.57.62.85.93-.08.11-.15.22-.23.33Z"/>
        <path class="cls-4" d="m403.76,362.69c-.43.39-.71.8-.87.75-.35-.1-.65-.41-.97-.64.2-.23.41-.65.6-.64.36.02.7.28,1.23.53Z"/>
        <path class="cls-4" d="m319.56,312.54c-.47.05-.88.17-1.25.1-.16-.03-.25-.46-.36-.71.42-.05.84-.13,1.26-.13.09,0,.17.34.36.73Z"/>
        <path class="cls-4" d="m342.46,300.35c-.42.39-.65.6-.88.8-.25-.33-.56-.64-.7-1.01-.04-.11.48-.62.61-.57.33.12.59.45.98.78Z"/>
        <path class="cls-4" d="m327.15,243.06c.55-.2,1.11-.4,1.67-.6.3.83-.2.92-.59,1.03-.29.08-.62.06-.93.09-.05-.17-.1-.35-.15-.52Z"/>
        <path class="cls-4" d="m344.64,335.33c-.36-.2-.62-.26-.7-.41-.21-.44.23-.96.92-1.06.17-.02.36.16.54.25-.26.41-.51.82-.76,1.23Z"/>
        <path class="cls-4" d="m370.82,282.77c.67.03,1.34.04,2,.12.12.01.32.36.27.49-.05.16-.39.38-.48.34-.59-.3-1.16-.66-1.73-1,0,0-.06.06-.06.06Z"/>
        <path class="cls-4" d="m337.54,286.34c-.17.41-.26.76-.32.76-.38-.04-.76-.16-1.13-.25.07-.19.13-.52.23-.53.37-.05.76.01,1.22.03Z"/>
        <path class="cls-4" d="m427.38,266.3c-.37.26-.68.52-1.03.7-.07.04-.28-.21-.43-.33.29-.27.57-.55.89-.78.05-.03.28.2.57.41Z"/>
        <path class="cls-4" d="m395.96,254.42c-.27.25-.49.46-.7.66-.17-.23-.53-.56-.48-.67.17-.33.51-.57.78-.84.12.26.25.53.4.85Z"/>
        <path class="cls-4" d="m359.07,322.34c.28.42.56.84.81,1.28,0,0-.41.29-.42.28-.32-.38-.61-.78-.91-1.18.17-.12.34-.25.51-.37Z"/>
        <path class="cls-4" d="m333.48,306.76c-.7-.05-1.1-.63-.95-1.24.04-.17.24-.38.41-.42.51-.12,1.13.45,1.04,1-.05.27-.35.49-.5.67Z"/>
        <path class="cls-4" d="m408.99,372.12c-.23-.53-.52-.93-.43-1.06.22-.32.62-.51.95-.76.15.25.49.59.42.75-.16.35-.51.61-.94,1.06Z"/>
        <path class="cls-4" d="m361.7,312.56c.37.54.66.83.75,1.18.03.14-.43.57-.61.54-.24-.04-.54-.37-.6-.63-.05-.22.2-.51.46-1.08Z"/>
        <path class="cls-4" d="m429.48,311.57c.14-.28.24-.59.43-.83.11-.14.36-.23.54-.22.12.01.33.29.3.37-.06.17-.24.35-.41.41-.29.11-.61.14-.92.2,0,0,.06.06.06.06Z"/>
        <path class="cls-4" d="m431.49,348.7c-.25.16-.49.42-.73.43-.15,0-.32-.36-.48-.56.26-.12.52-.29.8-.34.09-.02.24.26.42.47Z"/>
        <path class="cls-4" d="m436.02,345.76c-.22.15-.46.32-.7.48-.1-.25-.34-.58-.26-.74.11-.2.48-.26.73-.39.07.19.13.37.23.64Z"/>
        <path class="cls-4" d="m371.4,328.85c-.25-.2-.52-.36-.7-.59-.05-.06.19-.34.29-.51.26.16.53.31.79.47-.11.18-.22.35-.39.63Z"/>
        <path class="cls-4" d="m335.2,342.66c.17.2.35.42.53.64-.25.13-.55.41-.74.35-.2-.06-.3-.45-.45-.7.18-.08.37-.17.65-.29Z"/>
        <path class="cls-4" d="m339.17,339.5c.46-.61.59-.87.8-1.04.11-.1.34-.07.51-.1-.06.18-.07.42-.19.53-.19.17-.46.26-1.12.62Z"/>
        <path class="cls-4" d="m353.73,289.63c-.12.14-.24.38-.37.39-.16.01-.33-.17-.5-.27.13-.15.24-.39.38-.41.15-.02.32.18.49.29Z"/>
        <path class="cls-4" d="m359.84,300.58c-.08-.17-.16-.34-.25-.51.1-.04.27-.12.28-.1.1.16.18.33.26.5-.1.04-.2.07-.29.11Z"/>
        <path class="cls-4" d="m331.4,335.28c.13.19.22.34.32.49-.27.12-.54.26-.82.36-.05.02-.15-.13-.23-.2.24-.21.48-.43.72-.65Z"/>
        <path class="cls-4" d="m431.9,340.34c-.16.12-.32.24-.48.37-.12-.26-.24-.51-.36-.77.19-.05.43-.19.57-.13.14.07.18.34.27.52Z"/>
        <path class="cls-4" d="m381.34,353.57c-.05.34-.05.69-.16,1-.06.17-.31.27-.47.4-.05-.27-.23-.63-.12-.81.16-.25.53-.37.8-.55,0,0-.06-.05-.06-.05Z"/>
        <path class="cls-4" d="m381.68,360.12c-.63-.54-.62-1.08,0-1.62.69.54.58,1.08,0,1.62Z"/>
        <path class="cls-4" d="m351.39,362.37c.15.09.32.19.5.3l-.53.58c-.14-.15-.39-.31-.39-.46,0-.14.27-.28.42-.42Z"/>
        <path class="cls-4" d="m349.24,364.17c-.08.18-.12.27-.16.36-.26-.15-.54-.28-.77-.46-.03-.02.14-.3.21-.46.24.19.49.38.72.56Z"/>
        <path class="cls-4" d="m387,370.95v-2.12c.15.02.3.04.46.06-.17.66-.34,1.33-.5,2,0,0,.05.06.05.06Z"/>
        <path class="cls-4" d="m359.56,378.94c-.15-.11-.37-.19-.44-.34-.04-.09.16-.29.25-.43.15.11.38.19.43.33.04.11-.16.29-.25.44Z"/>
        <path class="cls-4" d="m362.4,378.88c-.13-.27-.3-.5-.34-.77-.01-.08.42-.34.45-.31.2.19.34.43.51.66-.17.11-.34.22-.62.41Z"/>
        <path class="cls-4" d="m383.18,264.86c.12-.13.24-.27.37-.4.1.15.22.3.28.46.02.05-.15.24-.18.22-.17-.07-.32-.19-.47-.28Z"/>
        <path class="cls-4" d="m370.31,277.83c-.2-.1-.46-.15-.6-.3-.11-.11-.07-.36-.1-.54.17.08.42.11.5.24.11.18.1.43.13.66,0,0,.06-.06.06-.06Z"/>
        <path class="cls-4" d="m337.59,288.88c-.03.08-.05.2-.11.23-.06.03-.16-.02-.25-.04.06-.12.11-.25.17-.37.06.06.13.12.19.18Z"/>
        <path class="cls-4" d="m349.62,289.09c-.16.12-.31.32-.47.32-.15,0-.29-.22-.44-.35.16-.13.31-.35.47-.35.15,0,.29.24.44.38Z"/>
        <path class="cls-4" d="m376.11,292.3c-.15.11-.3.22-.45.33-.06-.09-.18-.24-.17-.26.13-.13.29-.23.44-.34.06.09.12.18.18.27Z"/>
        <path class="cls-4" d="m324.17,296.4c-.22-.25-.47-.48-.63-.77-.06-.11.09-.35.15-.53.15.12.41.22.43.36.06.32,0,.66,0,1l.06-.06Z"/>
        <path class="cls-4" d="m348.78,368.73c.04-.08.06-.2.12-.22.06-.02.15.06.23.1-.04.08-.07.16-.11.24l-.24-.11Z"/>
        <path class="cls-4" d="m346.86,368.58c.08.17.27.41.21.51-.08.15-.34.2-.52.29-.07-.18-.25-.4-.2-.53.05-.13.33-.18.5-.27Z"/>
        <path class="cls-4" d="m428.87,308.2c.04-.09.08-.19.12-.28.12.08.25.15.37.23-.08.06-.15.17-.24.18-.08.01-.17-.08-.25-.13Z"/>
        <path class="cls-4" d="m344.84,347.37c.05.1.15.21.14.3-.03.29-.09.57-.15.86-.2-.05-.39-.1-.59-.16.11-.28.2-.56.34-.83.04-.07.2-.09.3-.13,0,0-.05-.05-.05-.05Z"/>
        <path class="cls-4" d="m431.04,319.71c-.04.08-.06.2-.11.21-.06.02-.19-.04-.21-.1-.02-.05.06-.15.09-.22.08.04.15.07.23.11Z"/>
        <path class="cls-4" d="m381.48,324.97c.01.17.04.35.03.52,0,.02-.18.03-.28.04-.01-.17-.04-.35-.03-.52,0-.02.18-.03.28-.04Z"/>
        <path class="cls-4" d="m429.18,339.7c.1-.04.2-.12.29-.11.07.01.13.14.19.22-.15.06-.31.13-.46.19,0-.1-.01-.2-.02-.3Z"/>
        <path class="cls-4" d="m320.06,339.03c.18.06.37.13.55.19-.08.14-.15.39-.26.41-.17.03-.37-.09-.56-.15.09-.15.18-.3.27-.45Z"/>
        <path class="cls-4" d="m352.79,327.53c-.1.16-.21.32-.31.48-.13-.11-.27-.22-.38-.34,0,0,.12-.21.19-.22.17,0,.33.05.5.08Z"/>
        <path class="cls-4" d="m419.85,333.62c.09-.18.17-.36.27-.53.05-.08.14-.12.22-.19,0,.13.04.31-.03.37-.14.13-.34.19-.52.28,0,0,.06.06.06.06Z"/>
        <path class="cls-4" d="m406.63,331.65c0,.1,0,.2,0,.3-.14-.05-.28-.1-.42-.16.06-.08.1-.2.17-.24.06-.03.16.06.25.09Z"/>
        <path class="cls-4" d="m416.37,330.12c.18.08.38.14.55.24.07.04.08.16.12.25-.15,0-.38.08-.43.01-.11-.15-.13-.37-.18-.56,0,0-.06.06-.06.06Z"/>
        <path class="cls-4" d="m374.5,328.83c-.27.11-.53.22-.8.33,0-.15-.01-.29-.02-.44.29.06.57.11.86.17,0,0-.04-.06-.04-.06Z"/>
        <path class="cls-4" d="m415.54,338.03c-.06.06-.13.13-.19.19-.05-.08-.14-.15-.13-.22,0-.07.11-.13.17-.19.05.08.1.15.14.23Z"/>
        <path class="cls-4" d="m352.74,340.04c-.08.03-.16.06-.25.09-.03-.08-.1-.19-.07-.23.04-.06.15-.07.23-.1.03.08.05.16.08.24Z"/>
        <polygon class="cls-4" points="375.02 326.73 374.83 326.58 375.06 326.47 375.02 326.73"/>
        <path class="cls-4" d="m366.24,321.79c.08.03.15.07.23.1-.05.08-.07.19-.14.23-.05.02-.15-.06-.23-.09.05-.08.09-.16.14-.24Z"/>
        <polygon class="cls-4" points="351.23 317.97 351.08 317.85 351.27 317.77 351.23 317.97"/>
        <path class="cls-4" d="m355.11,347.4c-.15-.33-.31-.66-.46-.99.15-.02.31-.04.46-.06-.02.37-.03.73-.05,1.1,0,0,.05-.05.05-.05Z"/>
        <path class="cls-4" d="m344.89,347.42c.11-.26.21-.53.1-.24.2-.24.02-.03-.15.19,0,0,.05.05.05.05Z"/>
        <polygon class="cls-4" points="318.01 317.79 317.87 317.97 317.78 317.76 318.01 317.79"/>
        <path class="cls-4" d="m420.17,350.05c-.07.15-.09.29-.16.32-.06.03-.18-.06-.27-.09.13-.07.26-.14.44-.23Z"/>
        <path class="cls-4" d="m394.29,311.63c.09-.03.18-.07.26-.1,0,.15.01.29.02.44-.09-.02-.21-.02-.26-.08-.05-.05-.02-.17-.02-.25Z"/>
        <path class="cls-4" d="m334.45,351.24c-.2,0-.31.02-.39-.01-.03-.02,0-.16-.01-.25.11.07.22.15.41.26Z"/>
        <polygon class="cls-4" points="330.69 357.47 330.54 357.65 330.45 357.43 330.69 357.47"/>
        <polygon class="cls-4" points="411.47 363.83 411.66 364.01 411.43 364.08 411.47 363.83"/>
        <path class="cls-4" d="m324.12,296.46c.33.03.66.04.98.1.07.01.17.24.16.25-.14.12-.39.33-.43.3-.24-.21-.44-.47-.65-.71,0,0-.06.06-.06.06Z"/>
        <polygon class="cls-4" points="435.9 291.75 435.64 291.78 435.76 291.55 435.9 291.75"/>
        <path class="cls-4" d="m356.78,375.52c.14-.08.27-.15.41-.23.03.09.11.23.08.26-.12.1-.27.17-.41.24-.03-.09-.05-.18-.08-.28Z"/>
        <path class="cls-4" d="m381.69,380.25c.07.07.21.17.2.22-.06.17-.17.32-.26.48-.06-.17-.14-.34-.17-.52,0-.05.15-.12.23-.18Z"/>
        <path class="cls-4" d="m430.92,290.78c-.09.04-.18.07-.27.11-.03-.09-.11-.21-.08-.26.04-.07.17-.08.26-.11.03.09.06.17.09.26Z"/>
        <polygon class="cls-4" points="342.61 287.41 342.8 287.61 342.56 287.67 342.61 287.41"/>
        <path class="cls-4" d="m383.99,283.68c-.08.05-.16.14-.24.13-.07,0-.13-.11-.19-.17.14.01.29.03.43.04Z"/>
        <polygon class="cls-4" points="374.78 267.96 374.73 267.75 374.88 267.78 374.78 267.96"/>
        <path class="cls-4" d="m411.43,262.8c-.01-.28-.02-.57,0-.11.11-.44.04-.15-.04.15,0,0,.05-.04.05-.04Z"/>
        <path class="cls-4" d="m333.83,239.89c-.09.04-.19.09-.28.13-.04-.1-.12-.22-.09-.29.03-.07.18-.09.27-.13l.1.29Z"/>
        <path class="cls-4" d="m381.4,353.62l.04-.57c-.03.17-.06.35-.1.52,0,0,.06.05.06.05Z"/>
        <polygon class="cls-4" points="336.28 352.46 336.53 352.36 336.51 352.59 336.28 352.46"/>
        <path class="cls-4" d="m360.77,352.27c.05-.18.1-.37.14-.55,0,.08.04.18.01.24-.05.1-.14.17-.22.25,0,0,.06.06.06.06Z"/>
        <polygon class="cls-4" points="382.11 329 382.11 329.19 381.91 329.09 382.11 329"/>
        <polygon class="cls-4" points="355.52 325.94 355.6 326.2 355.37 326.16 355.52 325.94"/>
        <polygon class="cls-4" points="352.49 311.3 352.28 311.18 352.51 311.09 352.49 311.3"/>
        <path class="cls-4" d="m327.63,296.43c-.12-.14-.24-.29-.37-.43.1.16.21.32.31.48,0,0,.06-.05.06-.05Z"/>
        <path class="cls-4" d="m406.72,278.59l-.15-.46c.04.07.09.14.11.21.02.09,0,.19,0,.29,0,0,.05-.05.05-.05Z"/>
        <polygon class="cls-4" points="375.51 262.55 375.59 262.8 375.37 262.76 375.51 262.55"/>
      </g>
      <path class="cls-2" d="m334.52,343.56c-2.45,3.58-12.12-2.38-12.12-2.38,0,0-14.57-8.33-9.87.83,1.99,3.89,10.54,7.37,14.18,9,2.51,1.12,3.22,2.74,3.02,4.99-.25,2.81-2.19,2.91-4.74,1.29-3.3-2.1-11.02-8.15-12.19-5.03-.72,1.91-1.15,3.37,1.02,9.54.78,2.21,1.79,4.03,3.18,6.49,1.4,2.48,3.15,3.19,4.15,5.91.63,1.71-6.33,3.47-8.98-1.47-1.22-2.26-.96-4.34-1.44-6.18-1.57-5.97-3.24-3.43-4.07-1.66-.84,1.77-1.98,4.33-2.05,4.48-5.02,10.68,3.78,15.57,10.68,13.87,1.62-.4,6.37-1.66,7.46-2.02,2.48-.83,2.79,1.01,2.72,2.34-.06,1.26-.57,2.6-2.13,2.81-2.88.38-3.76.83-3.77,1.93-.02,1.94,7.23,3.5,6.59,7.05-1.9,10.53-8.21-7.85-17.38-6.84-1.07.12-.77,3.07-.13,6.52.39,2.09-.49,5.49-2.26,6.14-4.48,1.66-4.68.47-4.59-2.6.07-2.25.64-5,.91-7.36.26-2.25.92-3.34-.62-5.9-2.7-4.5-3.69-9.08-4.34-8.62-4.29,3-3.97,6.83-3.36,10.66.37,2.35.18,6.33-3.54,6.28-2.42-.03-3.15-1.96-3.15-4.28,0-1.68.17-3.5.34-4.93.19-1.59-.89-2.07-1.61-1.67-1.39.78-3.05,1.61-4.27,2.54-4.33,3.3-6.09,10.36-11.25,12.22-6.1,2.2-5.33-3.43-2.35-5.82,2.13-1.71,6.66-5.91,5.25-5.99-4.92-.27-15.58-.59-17.14-8.08-1.22-5.82,11.3-.58,13.24.58,4.15,2.48,8.21,3.9,9.01,3.52.77-.37,2.82-.88,3.66-1.65,2.41-2.18-14.87-6.57-3.95-8.09,6.02-.84,5.89,3.46,10.12,3.61,3.24.11,4.56-1.49,7.06-4.04,1.66-1.69,3.18-3.6,4.52-5.7,2.45-3.83-5.26,1.09-8.75,1.23-1.97.08-5.6-.27-5.16-3,.66-4.05,4.52-4.69,7.76-4.89,3.2-.19,11.14-.93,12.9-3.69,1.82-2.84,1.94-7.3-1.53-13.65-.91-1.66-3.09,7.77-9.84,5.64-10.67-3.36,10.17-6.63,4.1-13.91-7.6-9.12-18.74-7.24-18.24,6.33.15,3.97,2.13,3.18,4.57,4.26,2.35,1.05,4.02,3.6,3.89,4.93-.18,1.83-1.41,3.4-4.91,1.79-1.93-.88-2.32.07-3.13.88-1.43,1.43-.96,10.43-1.04,12.16-.15,3.23-4.36,5.1-6.53,5.14-2.17.03-4.04-.75-2.83-3.34,4.21-9.01,6.07-11.09,2.82-10.28-1.78.44-4.43,2.18-7.03,2.56-1.67.25-3.78.44-5.58-1.82-1.09-1.37-1.89-3.81,3.04-4.55,1.34-.2,6.35-.92,8.73-1.11,1.73-.14,3.2-2.52,3.35-4.33.18-2.11-1.67-4.38-6.4-2.43-4.38,1.8-2.55-4.05.62-5.29,3.46-1.36,6.25-3.97,6.32-5.84.05-1.35-.6-3.12-1.74-3.66-2.32-1.1-4.18.23-5.99,2.22-2.7,2.96-5.27,8.21-11.54,11.74-5.28,2.98-3.39,10.88-6.85,13.07-1.52.96-5.79,2.44-5.94.33-.29-3.91,3.51-8.8,3-10.22-.9-2.53-2.32-4.01-6.59-1.94-4.28,2.08-11.56,21.7-13.29,12.51-1.74-9.26,8.97-11.7,6.1-14.75-3.19-3.4-10.76,1.46-14.52,5.03-6.56,6.23-6.51-3.86-3.59-6.48,4.04-3.62,13.45-2.99,11.83-6.12-2.38-4.6-7.66-6.26-10.46-10.89-3-4.96.93-9.25,2.51-9.04,3.73.5,6.97,14.02,10.26,13.86.93-.05,1.96-3.49,2.66-5.35,1.82-4.84,4.19-4.8,5.65-3.19,2.61,2.89,1.33,6.04-.48,7.6-.87.75-3.28,3.99-3.18,5.13.23,2.57,7.02,6.37,12.98,6.23,7.81-.18-2.07-4.93-2.79-7.72-1.12-4.34,5.91-1.98,6.4-1.56,2.45,2.13,5.28,6.34,7.77,5.15,8.46-4.04,11.62-15.2-5.06-13.02-11.92,1.56-12.06-7.27-6.37-6.28,15.43,2.69,4.59-6.59,1.16-6.95-6.37-.67-13.51-1.02-13.22-6.76.31-6.19,18.5,6.72,16.83-1.38-1.82-8.87-.56-9.72.91-10.83,5.59-4.22,6.89,1.19,4.89,7.82-2.79,9.23,3.33,19.29,5.11,19.95,2.19.82,2.42-8.03,5.54-2.74.71,1.2.26,6.99,1.49,8.02,3.09,2.6,7.03,2.77,9,1.93,8.29-3.54-.17-8.46-5.08-15.46-.24-.34-3.54-1.92-6.47-3.64-2.7-1.59-4.66-2.18-4.36-4.64.37-2.98,3.71-1.87,4.5-1.23,1.14.92,2.24,1.82,3.15,2.5,1.27.96,2.21-.54,2.08-1.26-1.05-5.65-.19-11.12,1.69-12.91,7.29-6.97,3.22,7.07,4.4,13.28,1.31,6.89,4.79,14.39,9.36,12.02,1.25-.65-5.02-10.93,2.61-15.5,11.08-6.65-.88,16.87,3.82,15.05,1.37-.53,4-2.74,7.59-3.07,2.62-.25,1.96,6.15-2.69,6.84-8.74,1.3-8.07,3.85-7.75,5.1.47,1.8,4.29,3.01,7.7,2.85,3.07-.15,9.03-1.77,9.09-9.31.02-2.73-.38-4.48-.75-8.58-.32-3.5.85-5.47,3.08-4.29,3.44,1.83,3.73,5.89,3.76,8.74.04,3.69-2.72,8.55-.29,7.86,3.02-.85,7.6-3.33,7.65-.34.04,2.38-.84,3.3-3.12,4.05-3.28,1.09-10.29.79-13.71,5.34-6.38,8.49,6.54,5.7,10.22,2.54,13.87-11.92,16.25-3.06,13.68-.64-1.34,1.26-7.75,3.29-8.33,4.73-.09,4.98,20.89-2.7,12.73,9.21Z"/>
    </g>
  </g>
</svg>