<svg xmlns="http://www.w3.org/2000/svg" xmlns:xlink="http://www.w3.org/1999/xlink" width="209.434" height="381" viewBox="0 0 209.434 381"><defs><clipPath id="a"><rect width="209.434" height="381" fill="none"/></clipPath></defs><g clip-path="url(#a)"><g transform="translate(19.584 254.701)"><path d="M113.149,210.52c1.95,2.19,4.62,3.815,3.914,7.588-.353,1.936,1.568,2.967,3.8,2.7,1.583-.2,3.193-.283,4.861-.424.3-2.5-1-5.044.353-7.291,1.964-.862,3.773-1.653,5.539-2.43a2.641,2.641,0,0,1,1.6,3.335,20.2,20.2,0,0,0-.933,2.84c-.17,1.809-.212,3.688,1.978,5.044a8.17,8.17,0,0,1,7.333-1.046c1.455,1.046.339,2.981,2.515,3.024.876-.947,1.879-2.035,3-3.25,1.639.2,3.476-.523,5.27.975-1.413,1.823-3.151,3.448-1.512,5.864.17.24-.382,1.173-.791,1.568-.65.608-1.243,1.13-.876,2.105a2.018,2.018,0,0,1-.947,2.572c-.65.466-1.526.805-1.272,1.6A33.478,33.478,0,0,1,150.1,237.1c.975.721,2.317-1.258,3.066.495-.311,1.794-.664,3.589-.9,5.384-.057.41.311.876.551,1.441,1.2-.057,2.346-.127,3.49-.184.706,2.43,3.052,2.628,4.847,4.055.918-1.5,1.625-2.671,2.8-4.606.509,2.388.834,3.9,1.159,5.426-2.7,1.074-5.129,2.035-7.588,3.01-.071-.042-.311-.113-.325-.226-.325-2.077-.042-4.635-3.5-4.069-.353.056-.89-.424-1.187-.777-.947-1.145-1.823-2.36-2.713-3.533-.452-1.145.82-2.515-.466-3.857-1.95,1.766-1.5,4.126-2.346,5.977,1.06.678,1.95,1.145,2.741,1.752a2.315,2.315,0,0,1,.805,2.7,2.266,2.266,0,0,1-2.317,1.568,13.465,13.465,0,0,1-2.444-.438c.424-.382.848-.777,1.272-1.159-.141-.1-.268-.2-.41-.311-.24.495-.495.975-.749,1.47-.495,1.385-.975,2.755-1.5,4.267-.791-.311-1.413-.353-1.625-.678-1.441-2.233-3.278-1.95-5.242-.918-1,.523-1.95,1.159-2.8,1.667-1.823-.777-3.631-1.1-4.832-2.134a9.647,9.647,0,0,0-7.333-2.19c-.339-1.173-.608-2.077-.848-2.939-1.159.028-2.346.41-3.066,0a12.374,12.374,0,0,0-4.168-1.371c-2.049-.4-4.423-.834-5.638-2.868-1.243-2.077-3.123-2.883-5.6-3.5-1.088,2.176-2.769,1.766-4.507.551-.933-.65-1.823-1.342-2.868-2.105.763-2.388,1.47-4.564,2.148-6.7a7.59,7.59,0,0,0-4.041-2.134c-1.611-.41-3.179-1-4.734-1.568-1.243-.438-1.342-1.3-.678-2.487,5.765-.438,11.3-3.631,17.677-1.611-.551,1.441-1.088,2.854-1.667,4.352,3.052,1.385,5.638,2.967,8.732,2.868,1.116-.918,2.19-1.809,3.222-2.656-.424-1.95-2.134-1.413-3.547-2.063-.438-3.109-2.784-4.437-5.793-5.03-1.47-.3-2.925-.692-4.366-1.13a7.928,7.928,0,0,1-2.247-1.031,1.565,1.565,0,0,1-.579-1.272,4.077,4.077,0,0,1,1-1.568c.2-.226.608-.254.918-.367,1.371-.466,2.8.353,4.3-.749,1.145-.848,3.08-.622,4.606-.862.876-1.568,1.681-3.024,2.5-4.465h-.141ZM139.6,248.035a7.518,7.518,0,0,0,2.444-.1c.226-.028.4-.438.593-.678q-3.08-1.554-4.55-6.231c-2.981-.3-1.3,2.459-2.515,3.73-1.484-.325-3.292-1.427-4.875.141-1.173-2.289.579-3.363,1.978-4.465.749-.593,1.865-.692,2.671-1.258,1.667-1.159,1.992-2.685.48-4.168-1.286-1.258-1.159-2.656-1.441-4.338-1.1-.424-2.3-.876-3.843-1.469,0,1.6-.028,2.84-.042,4.79-1.116-.975-1.738-1.526-2.642-2.317-.254,1.13-.424,2.077-.664,3-.24.961-.523,1.922-.763,2.812a14.231,14.231,0,0,1,2.444,7.588c.622-.1,1.229-.2,1.837-.283,2.642,1.964,5.765,2.614,8.888,3.264Zm2.84-16.73c-1.3.537-2.444,1-3.914,1.611a18.151,18.151,0,0,0,1.229,1.738,7.809,7.809,0,0,0,1.1.89c.41,0,.82.1,1.046-.057a8.994,8.994,0,0,0,1.936-1.554,2.786,2.786,0,0,0-.311-4,6.313,6.313,0,0,0-5.624-1.187c-.283.071-.424.777-.834,1.611,1.936-.042,3.872-1.3,5.369.918Zm-21.209,1.06s.17.777.3.791a4.975,4.975,0,0,0,1.893-.155c.184-.071.141-.82.268-1.795-1.1.509-1.794.805-2.444,1.159Zm8.69-8.068a2.45,2.45,0,0,0,.805.353c-.042-.268,0-.608-.155-.791a15,15,0,0,0-1.286-1.215l-.424.382a14.947,14.947,0,0,0,1.046,1.258Zm-4.31,18.849.184-.254-.339-.057.155.311Z" transform="translate(16.818 -167.757)" fill="#8fced0"/><path d="M31.342,286.072a1.991,1.991,0,0,1-2.331-.113,1.843,1.843,0,0,1-.579-2.642,3.317,3.317,0,0,0-.071-4.168,6.253,6.253,0,0,1-.382-2.12,9.011,9.011,0,0,0,2.727-1.243,4.683,4.683,0,0,1,4.394-1.47,3.313,3.313,0,0,0,2.36-.523,44.905,44.905,0,0,0,5.412-5.073c2.741-3.222,3.462-3.476,7.545-1.512.155.071.283.17.438.24,1.258.537,1.908.1,3.024-.848,1.441-1.229.721-2.826,1.145-4.2.268-.848.692-1.512,1.78-1.116.226.848.438,1.682.749,2.883.593-.749.933-1.088,1.187-1.5,1.893-3.109,4.861-3.9,8.21-3.759,2.515.113,3.5,1.258,3.5,3.787,0,1.173-.042,2.346,0,3.5a3.185,3.185,0,0,0,1.71,3.137c.212,0,.721-.014,1.215-.057a15.974,15.974,0,0,1,2.006-.141c1.992.113,2.9,1.13,2.883,3.278,0,.791-.155,1.583-.212,2.261.537.325.834.664,1.088.636a3.171,3.171,0,0,1,3.773,2.473c.339,1.088.791,2.148,1.243,3.391-1.4.9-2.487,2.035-4.2,1.272s-3.264-.268-4.818.466c-.763.367-1.724.89-2.218-.042-.721-1.371.579-1.54,1.47-1.95.367-.17.579-.636.848-.947-2.035-2.572-4.338-3.773-7.63-2.36-.622,1.356-.961,3.222-2.063,4.281-2.981,2.868-3.617,6.627-4.606,10.3-.212.791-.424,1.568-.608,2.2-2.6,1.71-5.059,2.812-8.054,1.512,1.568-1.625,1.512-3.391.862-5.2a1.837,1.837,0,0,0-3.193-.48c-1.187,1.385-2.346,2.8-3.575,4.267-1.568-.424-2.981-.82-4.366-1.2l-1.47,1.342a1.713,1.713,0,0,1-.495-.268c-.763-.791-1.229-2.36-2.656-1.766-1.908.791-.777,2.162-.311,3.363.509,1.314-.226,2.233-1.116,3.066a2.29,2.29,0,0,1-2.727.367,28.023,28.023,0,0,0-3.956-1c-1.2-2.275-2.346-4.437-3.589-6.8.862-.141,2.049,0,2.671-.509a11.81,11.81,0,0,1,6.26-2.374,6.009,6.009,0,0,0-.749-3.985c-.834.424-1.7.848-2.543,1.314Zm25.9-.41a6.5,6.5,0,0,0,3.646-2.953c1.046-1.512.283-2.487-2.317-2.953A13.1,13.1,0,0,0,57.242,285.663Zm-11.883-13.72c-.127.283-.254.749-.113.918.3.339.777.763,1.145.735a3.7,3.7,0,0,0,1.78-.706c.664-.495,1.356-1.2.791-2.091s-1.413-.608-2.176-.184a7.709,7.709,0,0,0-.82.565,3.866,3.866,0,0,0-.608.777Zm1.851,10.216a2.321,2.321,0,0,0-1.724,2.543.877.877,0,0,0,.636.579,1.984,1.984,0,0,0,2.021-1.752,2.856,2.856,0,0,0-.1-.961c-.283-.141-.565-.438-.82-.41Zm-5.285-7.277.141.381.254-.325-.4-.057Z" transform="translate(-8.974 -147.777)" fill="#8fced0"/><path d="M152.062,259.64c-3.49-1.922-6.231-.141-9.58,1.795,1.229.834,2.021,1.328,2.769,1.865.678.466,1.936,1.046,1.879,1.441-.283,2.289,1.667,3.561,2.2,5.426.311,1.074-1.046,2.614-2.063,2.176-2.233-.989-4.776-1.47-6.288-3.787-1.455-2.218-3.137-4.281-4.649-6.344-1.667.1-3.094.2-4.522.283-.184.721-.3,1.385-.523,2.006a2.583,2.583,0,0,1-2.515,2.077,2.662,2.662,0,0,1-2.346-1.639c-.622-1.145-1.215-2.3-1.879-3.547-1.922.692-3.617,1.3-5.412,1.95l-2.247-2.459a10.244,10.244,0,0,1,.749-1.6c1.5-1.978,3.052-3.914,4.917-6.316-2.953-.9-2.7,2.953-4.875,2.628-.692-.622-1.512-1.342-2.346-2.091-1.766,2.063-2.939,4.267-5.27,5.567-2.077,1.173-3.49,3.6-6.415,3.052-.254-.042-.608.268-.862.48-2.063,1.724-3.928,1.427-5.765-.41-.848-.848-1.837-1.526-3.448-.24a6.36,6.36,0,0,1-1.837,6.1,1.3,1.3,0,0,1-2.063-.452,5.028,5.028,0,0,1,.466-4.324c.593-1.173,1.413-2.473,1.356-3.674-.1-2.444.1-5.016-1.54-7.234a18.524,18.524,0,0,1-1.611-3.73,17.808,17.808,0,0,0,2.416-1.992c.735-.89,1.145-2.021,1.851-2.925a5.958,5.958,0,0,1,1.908-1.54c2.105-1.06,3.815,0,5.567,1.116,1.653,1.046,2.317,2.289,1.71,4.211-.113.353.254.848.353,1.173,1.78-.339,3.391-.664,5-.975a20.18,20.18,0,0,0,2.8.791,1.313,1.313,0,0,0,1.031-.735,1.4,1.4,0,0,0-.353-1.286,2.229,2.229,0,0,0-1.766-.325,7.352,7.352,0,0,0-1.7,1.681,7.392,7.392,0,0,1-2.317-5.044,8.4,8.4,0,0,1,3.829-3.857,28.262,28.262,0,0,1,5.172,1.47,37.367,37.367,0,0,1,4.931,3.405c1.71,1.229,4.394.805,5.4,3.208q3.942,1.462,7.9,2.925a.75.75,0,0,0,.495-.028c3.434-1.385,6.09.2,8.7,2.162a7.289,7.289,0,0,0,2.105.777,6.292,6.292,0,0,0,1.441-6.274c6.2-1.159,6.373-1.145,8.718.593-.551.311-1.116.622-1.667.933.593.975,2.487.523,2.261,2.247-.593.707-1.2,1.413-1.964,2.317,1.639,1.469,2.614,3.292,5.157,2.755.876-.184,1.568,1.1,1.568,2.148,0,1.512-.975,2.43-1.908,3.377-.2.212-.608.226-1.159.41l-2.515-2.755c-.593.424-1,.706-1.4.989h.113ZM132.223,257.7c3.066-1.06,5.878-.042,8.718,1a3.279,3.279,0,0,0,1.922-.3c.791-.268,1.611-.721,1.512-1.724a1.6,1.6,0,0,0-1.71-1.5c-4.493.3-8.167-2.543-12.675-3.094-.579.933-1.243,2.021-1.992,3.222-1.145-.113-2.218-.226-3.843-.4.551,1.13.89,1.823,1.3,2.671,2.374-.608,4.649-1.4,6.782.113Zm-28.373-5.2c.1-.028.226-.325.212-.339-.2-.17-.523-.48-.636-.41a9.033,9.033,0,0,0-1.258,1.1c.848-.155,1.272-.226,1.7-.339Z" transform="translate(16.904 -156.02)" fill="#8fced0"/><path d="M100.082,224.645a3.972,3.972,0,0,1-.876,4.621c-1.159,1.272-2.7,1.1-4.211.608-.777-.254-1.554-.509-2.19-.721-.608-1.371-1.116-2.515-1.667-3.759a9.6,9.6,0,0,0-1.526.947,6.875,6.875,0,0,0-.834,1.342c.48,1.385,1.017,2.784,1.413,4.225a1.5,1.5,0,0,1-.509,1.272,1.557,1.557,0,0,1-1.4.155,13.317,13.317,0,0,1-2.685-2.176c-.975-1.1-1.752-2.374-2.784-3.815a2.589,2.589,0,0,0-.495,2.586c.41,1.1,1.145,2.3.085,3.25a6.814,6.814,0,0,1-3.094,1.455,10.5,10.5,0,0,1-5.482-.155,25.462,25.462,0,0,0-1.06-4.38,6.263,6.263,0,0,1-.127-3.872,10.027,10.027,0,0,1,3.278-5.5c.933-.9,1.922-1.766,2.868-2.628-1.809-2.5-1.851-2.5-3.589-.862a7.507,7.507,0,0,1-1.328.777c-.721-1.06-1.342-1.964-2.021-2.967,1.173-1.583,2.769-2.19,4.1-3.151,1.667-1.2,1.922-2.289,1.258-4.338-.283-.862-.509-1.752-.9-3.094,1.286.113,2.275-.113,2.8.3,2.091,1.583,4.677,1.766,6.98,2.727a3.981,3.981,0,0,0,2.4.127,31.583,31.583,0,0,0,3.872-1.512c-1.229-2.247-2.374-4.352-3.575-6.542-1.3.721-2.4,1.455-3.589,1.978a5.807,5.807,0,0,1-4.409.226c-.721-.254-1.13-1.681-.509-2.105a13.778,13.778,0,0,1,3.448-1.908c1.908-.593,3.914-.876,5.878-1.286H89.47a3.327,3.327,0,0,0,3.589,1.13,2.822,2.822,0,0,1,3.73,1.625,4.933,4.933,0,0,0,3.391,2.7,24.253,24.253,0,0,1,3.066,1.441c.141,1.215-.042,2.388.438,3.151,1.229,1.922.706,3.843.382,5.779-.65,3.942-2.218,4.719-5.723,2.9-2.233-1.145-2.6-1.046-4.847,1.413.085.721,1.6.961.636,2.077-1.554.184-3.165.382-4.79.579.41,2.614.4,2.614,1.314,3.179a14.131,14.131,0,0,0,9.538,2.218l-.127-.028Zm-16.631-9.933a4.054,4.054,0,0,0-.4,1.413c-.127,1.116,1.06,2.854,1.809,2.529a3.567,3.567,0,0,0,1.964-1.936,4.5,4.5,0,0,0-1.583-4.847C84.5,213.03,83.931,213.85,83.451,214.712Z" transform="translate(10.09 -173.56)" fill="#8fced0"/><path d="M56.888,226.947c.933,1.272,1.455,1.978,2.317,3.165.509-1.4.82-2.247,1.13-3.109a24.72,24.72,0,0,1,1.088,3.843,9.4,9.4,0,0,1-.495,2.77c-2.105.071-3.914.113-5.737.17-2.035-1.809-4.225-3.377-6.91-3.787a48.237,48.237,0,0,0-7.418-.495c-.622,0-1.4.82-1.823,1.441a9.2,9.2,0,0,0-.777,2.331c-1.54-.17-2.8-.325-3.914-.438a32.1,32.1,0,0,1-.989-3.7A3.555,3.555,0,0,1,36.6,224.9c2.3-.184,4.677-.579,6.825.848a2.425,2.425,0,0,0,1.413.41,1.757,1.757,0,0,0,1.243-.579,1.519,1.519,0,0,0,.057-1.371,14.9,14.9,0,0,0-1.795-1.837c.014-1.908,2.558-1.328,2.346-3.094-.89-.438-1.738-.848-2.8-1.371.933-1.4,1.738-2.6,2.614-3.928,2.543.042,5.172.085,8.111.127a39.743,39.743,0,0,0,1.017-5.793v.127c3.335-.523,4.9,1.229,5.525,4.578-1.159.636-2.388,1.314-3.759,2.063a7.618,7.618,0,0,0,2.444,4.79,26.585,26.585,0,0,1,7.856.3,14.769,14.769,0,0,0,.339,3.038,1.285,1.285,0,0,0,1.936.9c.353-1,.692-2.006,1.13-3.278a10.928,10.928,0,0,1,2.43,1.413c1.738,1.809,3.391,3.631,6.2,3.6.254,0,.706.735.721,1.13a1.524,1.524,0,0,1-.664,1.173,24.682,24.682,0,0,1-2.981.975c.975,1.413,1.7,2.43,2.444,3.5a17.56,17.56,0,0,1-9.4,7.291c-4.14,1.484-4.239,1.455-6.005-3.109a1.988,1.988,0,0,1,1.809-2.854c2.148-.226,4.31-.24,6.457-.4.254-.014.565-.353.692-.622s.17-.805.028-.918q-2.5-1.971-5.087-3.829a1.092,1.092,0,0,0-.933-.155c-1.95,1.215-2.981-.141-4.225-1.3-.692-.65-1.554-.155-2.218.41-.933-.042-1.865-.1-3.476-.184Zm-1.851-3.561c-.085-.155-1.159-.042-1.173.042a3.429,3.429,0,0,0,.085,1.738c.071.2.82.141,1.6.24a8.773,8.773,0,0,0-.495-2.021Zm-.254-2.7s.2-.113.311-.184c-.17-.24-.353-.48-.537-.706a1.786,1.786,0,0,0-.311.184A8.459,8.459,0,0,0,54.783,220.688Z" transform="translate(-5.823 -168.67)" fill="#8fced0"/><path d="M18.48,240.539c-.17-2.4-.3-4.451-.466-6.924,2.021-.495,2.685-2.162,3.476-3.843.353-.763,1.356-1.215,2.289-1.992,2.543,3.306,5.737,3.391,9.269,2.275.085,1.809.155,3.278.212,4.564.706.777,1.3,1.371,1.823,2.006.593.735,1.13,1.5,1.7,2.289-3.971,2.275-4.635,3.052-6.825,7.941-2.642-.678-5.355-1.215-8.012.438-1.2.749-2.614-.057-3.716-.834-1.342-.947-2.614-2.006-4.366-3.363,2.119-.65,3.843-1.243,4.635-2.572Zm13.014-3.25c-.353-1.031-.495-1.611-.735-2.162A1.631,1.631,0,0,0,28.824,234c-2.077.466-4.14.961-6.853,1.6C25.15,237.2,28.16,236.569,31.494,237.289Z" transform="translate(-13.86 -160.629)" fill="#8fced0"/><path d="M50.056,232.474c1.427.65,2.854.339,4.338.155,2.119-.268,4.31-.283,6.118,1.173a2.206,2.206,0,0,1,.805,1.611,2.034,2.034,0,0,1-1.145,1.4,7.433,7.433,0,0,1-3.306.65,4.744,4.744,0,0,0-4.677,2.049c-.41.509-.834,1.017-1.243,1.512h.1c-2.416.254-1.512,3.123-3.193,4.055-.933-.127-1.922-.268-2.9-.4-1.1-.155-2.2-.3-3.193-.424q-.876-4.126-3.759-5.44c-1.229-2.3-2.388-4.3-3.349-6.373a9.778,9.778,0,0,1-.424-2.741c3.193-.706,6.316-.2,8.845-2.275.791-.65,1.978-.184,2.7.608a18.185,18.185,0,0,1,1.752,2.388,4.093,4.093,0,0,0,2.656,2.077h-.127Zm-10.71,1.978c-.1-.028-.3.325-.452.509.127.057.283.2.382.17a7.007,7.007,0,0,0,.834-.353,25.9,25.9,0,0,0,1.639,2.416,2.058,2.058,0,0,0,1.258.622,1.429,1.429,0,0,0,1.752-1.258c.057-.48-.452-1.427-.82-1.484a26.732,26.732,0,0,0-3.843-.17,2.856,2.856,0,0,0-.763-.452Z" transform="translate(-5.447 -160.901)" fill="#8fced0"/><path d="M79.361,207.116c-.268-.834-.466-1.441-.706-2.218,1.159-1.258,2.4-2.558,3.589-3.9,1.4-1.583.1-3.561,1-5.567-1.681-.17-3.094-.3-4.677-.452-1.413,1.978-1.964,4.677-4.62,5.482a30.073,30.073,0,0,1-2.586-4.649c-.989-2.812-3.321-4.041-5.553-5.468a4.393,4.393,0,0,0-5.143.141,2.061,2.061,0,0,0-.608,3.349c1.145,1.413,2.346,2.784,3.518,4.168a8.593,8.593,0,0,1,2.4,5.214c.212,3.01,3.08,4.14,5.511,5.186,2.614,1.13,5.172.579,7.885-1.272Z" transform="translate(4.967 -176.406)" fill="#8fced0"/><path d="M116.653,262.94c-.565,2.063-1.06,3.928-1.583,5.85a17.612,17.612,0,0,0,3,.268c3.985-.226,6.5,1.964,8.577,4.988.65.947,1.342,1.865,2.006,2.769,2.487-.042,3.25-1.992,3.914-3.532a26.381,26.381,0,0,0,1.484-6.231,2.81,2.81,0,0,0-2.614-3.532,20.856,20.856,0,0,0-3.985,0,24.6,24.6,0,0,1-8.916-.608,6.87,6.87,0,0,0-1.865,0Z" transform="translate(27.939 -146.151)" fill="#8fced0"/><path d="M77.462,241.7c1.639.24,3.278.565,4.931.706a2.082,2.082,0,0,0,2.119-2.671,14.508,14.508,0,0,1-.89-2.826c-.24-5.228-4.253-7.136-8-9.312-.226-.127-.636.057-1.2.127-.41.918-.876,1.95-1.3,2.883-2.416,1.328-4.776,2.557-7.065,3.914-1.159.692-1.088.791-.706,3.476.791.82,1.54-.155,2.247-.071a7.431,7.431,0,0,1,2.176,1.258c.452-.89.876-1.766,1.314-2.628,1.2-2.374,3.518-3,5.793-3.419.975-.184,1.766.777,1.738,2.049-1.2.918-3.532-.551-4.182,2.176.791.537,1.724,1.116,2.6,1.795a1.859,1.859,0,0,1,.438,2.656V241.7Z" transform="translate(7.303 -160.72)" fill="#8fced0"/><path d="M114.641,275.063c1.583-.438,3.165-.9,4.748-1.328,1.4-.367,2.43-1,2.331-2.967-4.211-2.19-8.464-1.526-12.816.141a5.03,5.03,0,0,1-.975-1c-.89-1.681-2.006-3.363-4.027-3.264-2.3.113-4.578.735-6.132,2.812-1.145,1.54-2.43,2.981-3.73,4.578.41.283.791.777,1.145.763a5.412,5.412,0,0,0,2.374-.537c1.823-.975,3.674-.805,5.652-.82a17.061,17.061,0,0,1,5.355.325c1.074.325,2.275.212,3.391.438a27.972,27.972,0,0,1,2.8.89l-.127-.014Z" transform="translate(19.254 -144.581)" fill="#8fced0"/><path d="M108.856,209.085c-1.992.071-4.013.4-5.143-2.006-.254-.537-1.4-.862-2.148-.876a10.14,10.14,0,0,0-2.911.579c-2.275.622-3.165,1.314-2.812,2.162.579,1.413,1.837,1.173,3,1.145,1.639-.042,1.766,1.187,1.992,2.275,3.137.325,6.231.65,9.34.975h-.141c1.823-.862,3.222-.579,4.041,1.441a9.474,9.474,0,0,0,.947,1.526c1.159.113,1.455-.551,1.455-1.215a8.578,8.578,0,0,1,2.119-5.963,8.235,8.235,0,0,0,1-2.416c-2.021-1.484-3.349-4-6.429-2.543.212,1.766.41,3.349.608,5a5.4,5.4,0,0,1-5.016-.085h.127Z" transform="translate(19.967 -170.562)" fill="#8fced0"/><path d="M127.811,285.385c-.989-.24-1.611-.382-2.487-.593.1-2.035-.523-3.914-2.784-4.889-.636.353-1.314.721-2.331,1.272a6,6,0,0,1-.212-1.936,21.814,21.814,0,0,1,1.229-2.868c-1.215-.551-2.247-1.017-3.532-1.6.155-.947.325-1.978.495-3-.523-.071-.918-.24-1.145-.127-6.147,3.278-4.3,7.715-1.031,10.809a30.223,30.223,0,0,1,4.875,5.61c1.031,1.6,2.2,1.681,3.8.551.805-.579,1.583-1.2,2.346-1.851A6.669,6.669,0,0,0,127.811,285.385Z" transform="translate(27.081 -142.526)" fill="#8fced0"/><path d="M89.24,265.218c1.342,1.187,2.812,2.091,3.688,3.391a7.974,7.974,0,0,0,3.73,3.532c1.427-1.639,1.653-4.211,3.716-5.482,1.823-1.13,3.518-2.487,5.482-3.9a38.864,38.864,0,0,0,.89-4.041c.071-.537-.325-1.512-.721-1.639a2.783,2.783,0,0,0-2.247.212,9.561,9.561,0,0,0-1.568,2.487,28.076,28.076,0,0,1-2.162,3.335,1.856,1.856,0,0,1-2.7.382c-2.416-2.218-4.522-1.229-6.627.4-.509.4-.961.862-1.47,1.328Z" transform="translate(17.272 -148.584)" fill="#8fced0"/><path d="M158.221,241.356a10.37,10.37,0,0,0,1.893-6.26,1.7,1.7,0,0,0-2.416-1.611,2.643,2.643,0,0,0-.452.212c-3.589,2.388-7.22,4.691-10.739,7.178-1.936,1.371-1.809,3.321.085,5.016a1.9,1.9,0,0,0,2.275.353,4.39,4.39,0,0,0,1.229-.834,11.9,11.9,0,0,1,8.125-4.055Z" transform="translate(40.347 -158.337)" fill="#8fced0"/><path d="M63.9,252.953c.834.791,1.512,1.427,2.2,2.077q1.837-3.547-.862-5.779c-.509-.424-1.046-.848-1.512-1.314a33.321,33.321,0,0,0-3.151-3.165,32.528,32.528,0,0,0-4.126-2.331c-.862.509-1.823,1.074-3.024,1.78.791,1.314,1.455,2.416,2.218,3.688,1.611.537,3.321,1.116,5.03,1.7C60.071,251.7,58.39,251,57,251.031c-.1,3.391,1.06,4.465,3.843,3.476a27,27,0,0,0,3.052-1.554Z" transform="translate(2.482 -154.575)" fill="#8fced0"/><path d="M71.739,213.627c-2.784-2.021-6.528-.382-8.718-3.25.042-1.017.791-1.074,1.413-1a17.924,17.924,0,0,1,2.374.65,1.567,1.567,0,0,0,2.077-.834,1.939,1.939,0,0,0-1.13-2.444,38.144,38.144,0,0,0-3.985-.805c-1.681,2.176-3.575,4.112-2.105,7.432,2.628.777,5.539,1.54,7.277,4.437,1.243-.2,2.346-.438,3.462-.537.918-.085,1.865,0,3.123,0a41.73,41.73,0,0,0-.763-4.606,4.422,4.422,0,0,0-1.427-1.936,1.464,1.464,0,0,0-1.371-.085,1.721,1.721,0,0,0-.551,1.2,7.189,7.189,0,0,0,.339,1.78Z" transform="translate(5.665 -169.649)" fill="#8fced0"/><path d="M111.452,272.62c-2.021.495-3.151,2.247-4.691,3.405a3.5,3.5,0,0,1-3.236.509h.127a16.359,16.359,0,0,0-1.5,2.981A2.222,2.222,0,0,0,104.6,282.3c1.1-.071,2.176-.706,3.25.071h-.127c2.459-.777,4.917-1.54,7.517-2.36,1.215-3.024,1.13-3.49-1.385-4.776-1.173-.608-2.459-.989-2.543-2.614l.127.014Z" transform="translate(22.57 -142.111)" fill="#8fced0"/><path d="M140.21,217.863c.353.692.608,1.3.961,1.851,1.455,2.218,2.854,2.628,4.832.947s3.857-2.247,6.33-1.328a1.536,1.536,0,0,0,2.006-1.908c-.706-3.208-2.43-4.776-5.426-4.663a5.8,5.8,0,0,0-2.713.947c-1.922,1.215-3.744,2.586-5.991,4.168Z" transform="translate(38.322 -166.834)" fill="#8fced0"/><path d="M149.371,269.2c-3.109-.113-3.292-.2-6.033-1.71-2.091-1.145-4.126-1.964-6.556-.523-1.371.805-3.123.989-4.691,1.455,1,3.137,3.349,4.38,6.429,4.027a53.225,53.225,0,0,0,7.277-1.512,22.338,22.338,0,0,0,3.561-1.724Z" transform="translate(34.968 -144.764)" fill="#8fced0"/><path d="M86.313,199.772a16.124,16.124,0,0,0,.947-2.3c.876-3.405.862-3.405,2.911-5.638-1.4-1.484-3.391-1.964-5.059-2.911a3.583,3.583,0,0,0-3.8.424c-1.879,1.258-2.346,2.826-1.046,4.677a25.6,25.6,0,0,0,3.377,3.631,31.256,31.256,0,0,0,2.784,2.105H86.3Z" transform="translate(13.261 -176.834)" fill="#8fced0"/><path d="M118.11,281.538c-2.331-1.046-3.872-.763-4.578,1.653a34.877,34.877,0,0,0-4.394.071,4.515,4.515,0,0,0-2.148,1.088,2.186,2.186,0,0,0,.311,3.419c2.388,1.243,5.087,1.13,7.644,1.583.947.17,2.021-1.031,2.261-2.275.325-1.752.593-3.518.918-5.539Z" transform="translate(24.32 -138.665)" fill="#8fced0"/><path d="M151.59,264.71c2.317-1.215,4.649-2.43,6.938-3.617-.367-1.272-1.031-.791-1.54-.537-3.306,1.667-6.655,1.583-10.456.495.565-1.4,1.017-2.543,1.625-4.069-.82-.1-1.568-.438-1.936-.184a9.284,9.284,0,0,1-5.652,1.356c-.382-.014-.791.495-1.4.9.848,1.526,2.572.537,3.8,1.766.085.48.24,1.4.4,2.346,2.572,1.583,5.2,2.925,8.337,1.554h-.1Z" transform="translate(37.892 -148.684)" fill="#8fced0"/><path d="M72.77,241.87c-2.035-1.1-4.112-.565-6.344-.127-.749,1.738.113,4.267-2.529,5.03-.325.1-.3,1.441-.466,2.331,3.547,1.116,6.726,1.639,9.637-.593-.1-2.289-.2-4.394-.3-6.655Z" transform="translate(6.612 -155.079)" fill="#8fced0"/><path d="M85.225,228.868c.028,2.543-2.261,4.2-.791,6.74,1.116-.509,2.105-.947,3.08-1.385,1.724,1.13-.622,2.006.593,3.9.551.579,1.865.085,3.349-.777,0-1.71.028-3.5.042-5.5,1.258-.678,2.529-1.357,3.971-2.12-.339-.509-.579-1.159-.834-1.173a45.84,45.84,0,0,0-9.411.325Z" transform="translate(15.083 -160.347)" fill="#8fced0"/><path d="M139.523,220.477c2.105-1.484,1.2-3.5.975-5.384-.382-3.306-2.755-4.649-5.779-5.864,1.046,2.091,3.349,3.377,2.261,6.231a31.294,31.294,0,0,0-3.631-1.215,2.033,2.033,0,0,0-1.724.466c-.622.777-.141,1.639.565,2.134a7.557,7.557,0,0,0,2.247,1.031c3.137.862,3.193.862,5.073,2.614Z" transform="translate(34.657 -168.29)" fill="#8fced0"/><path d="M96.02,280.214c-4.2,2.529-6.358,6.175-9.326,9a2.818,2.818,0,0,0-.523,1.851c-.028.82.113,1.78,1.116,1.95a2.213,2.213,0,0,0,1.795-.438,43.484,43.484,0,0,0,3.561-4.762c1.159-1.78,2.162-3.674,3.165-5.553a7.459,7.459,0,0,0,.226-2.063Z" transform="translate(16.003 -138.98)" fill="#8fced0"/><path d="M49.692,240.428c.466.085,1.145.438,1.681.268,2.19-.678,4.352-1.5,6.5-2.317a2.018,2.018,0,0,0,.89-2.543c-.41-.933-1.823-1.653-2.416-1-1.314,1.455-2.868,1.3-4.55,1.3-1.441,0-2.572,1.526-2.558,3.123a4.274,4.274,0,0,0,.452,1.173Z" transform="translate(0.752 -157.819)" fill="#8fced0"/><path d="M131.714,263.784c.537,1.4.9,2.36,1.229,3.193.636.1.989.254,1.258.17a22.492,22.492,0,0,0,3.193-1.286c1.766-.947,3.49-1.865,5.638-.961.141-.961.424-1.583.24-1.823a4.525,4.525,0,0,0-1.809-1.427,2.432,2.432,0,0,0-1.879.212,14.968,14.968,0,0,1-7.885,1.908Z" transform="translate(34.807 -146.683)" fill="#8fced0"/><path d="M66.524,205.327c-2.741-.311-5.016-.918-7.531-.65-1.554.17-3.306-1.258-4.945-1.992-.721-.325-.721-.353-2.967-.014,1.243,2.134,3.575,2.459,5.27,3.6a4.974,4.974,0,0,0,2.713,1.1,61.654,61.654,0,0,0,6.825-.848c.184-.028.3-.537.65-1.215Z" transform="translate(1.512 -171.099)" fill="#8fced0"/><path d="M102.9,198.531a33.213,33.213,0,0,1-2.119-3.759,29.036,29.036,0,0,1-1.06-4c-.848-.636-1.851-.862-2.628.622a1.7,1.7,0,0,1-.721.65c-2.049.989-2.289,1.724-.721,2.812,1.922,1.328,3.942,2.5,5.949,3.688.226.141.608,0,1.3-.028Z" transform="translate(19.497 -176.115)" fill="#8fced0"/><path d="M129.29,278.17c2.529,2.784,4.168,4.62,5.864,6.4a16.963,16.963,0,0,0,2.261,1.879.961.961,0,0,0,.918-.071c.283-.325.608-.89.509-1.2a6.841,6.841,0,0,0-1.328-2.614,30.8,30.8,0,0,0-4.493-3.872c-.678-.466-1.794-.283-3.716-.509Z" transform="translate(33.812 -139.818)" fill="#8fced0"/><path d="M56.666,246.294c-3.759.311-7.15.593-10.668.876-.325.975.706,1.272,1.3,1.427a57.82,57.82,0,0,0,6.74,1.455c1.809.268,2.317-.466,2.628-3.773Z" transform="translate(-0.613 -152.989)" fill="#8fced0"/><path d="M34,237.407a11.525,11.525,0,0,0-2.515,1.54c-.438.466-.41,1.385-.593,2.176,6.8.311,6.472,1.06,8.746-1.243-.749-2.077-2.812-2.444-4.536-3.207-.2-.085-.721.537-1.1.848a4.069,4.069,0,0,0,.438.184c-.028,0-.085.042-.1.028C34.225,237.633,34.112,237.52,34,237.407Z" transform="translate(-6.827 -156.96)" fill="#8fced0"/><path d="M73.383,279.033a21.663,21.663,0,0,0,2.36-2.19,2.265,2.265,0,0,0-.155-3.151,3.342,3.342,0,0,0-2.6-.82c-.975.226-1.794,1.159-2.727,1.823a6.478,6.478,0,0,0,3.137,4.338Z" transform="translate(9.433 -142.024)" fill="#8fced0"/><path d="M168.246,239.3c-2.8,1.455-5.27,2.727-7.715,4.027-.664.353-1.031,1.752-.509,2.19a2.184,2.184,0,0,0,1.71.537,11.656,11.656,0,0,0,6.782-5.412c.113-.212-.113-.622-.268-1.356Z" transform="translate(46.402 -155.876)" fill="#8fced0"/><path d="M110.632,198.454c-2.487-.438-4.507-.975-5.723-2.953-.17-.268-1.215-.2-1.752.014-.254.1-.438.9-.339,1.328.283,1.328.777,2.515,2.317,2.939,1.272.339,2.487.834,4.084,1.371.41-.777.82-1.554,1.427-2.685Z" transform="translate(22.868 -174.032)" fill="#8fced0"/><path d="M67.408,237.71c-6.316.41-6.387.438-8.068,2.558,2.275.664,4.394,1.484,6.528.3C66.518,240.211,66.716,239.038,67.408,237.71Z" transform="translate(4.923 -156.528)" fill="#8fced0"/><path d="M81.11,182.367c4.041,2.487,6.217,1.978,10.287-1.837C87.779,179.7,84.869,180.9,81.11,182.367Z" transform="translate(13.914 -180.256)" fill="#8fced0"/><path d="M76.49,253.421c2.628,3.165,5.3,1.611,7.885,1,.749-1.258.071-2.317-.89-2.233-1.286.1-2.374-1.13-3.7-.3a30.707,30.707,0,0,1-3.292,1.54Z" transform="translate(12.006 -150.79)" fill="#8fced0"/><path d="M58.164,254.95a4.787,4.787,0,0,0-1.54.212c-2.247,1.385-4.479,2.755-7.178,3.165a2.431,2.431,0,0,0-1.2.777c-.155.155-.057.593-.014.89a.477.477,0,0,0,.311.325,1.933,1.933,0,0,0,.961.127c2.049-.608,4.126-1.2,6.118-1.95A4.137,4.137,0,0,0,58.164,254.95Z" transform="translate(0.306 -149.408)" fill="#8fced0"/><path d="M46.324,289.234c-.834,1.017-1.738,1.992-2.487,3.08a1.39,1.39,0,0,0,.1,1.328,1.411,1.411,0,0,0,1.328.184,4.522,4.522,0,0,0,1.554-1.187,35.992,35.992,0,0,0,2.671-3.561,2.881,2.881,0,0,0,.24-1.809c-.085-.537-1.328-.24-2.021.523-.438.495-.848,1.017-1.258,1.526l-.113-.085Z" transform="translate(-1.532 -136.173)" fill="#8fced0"/><path d="M87.821,275.651a5.151,5.151,0,0,0-5.61,3.038c-.41.82-.353,1.766.523,2.12a2.946,2.946,0,0,0,2.275-.042c1.371-.82,1.766-1.766,2.826-5.115Z" transform="translate(14.267 -140.874)" fill="#8fced0"/><path d="M144.36,249.091c2.162.014,3.434.028,4.705.028a1.213,1.213,0,0,0,.466-.155,2.2,2.2,0,0,0,.9-3.8,2.392,2.392,0,0,0-3.179.028,29.611,29.611,0,0,0-2.883,3.9Z" transform="translate(40.036 -153.694)" fill="#8fced0"/><path d="M139.3,208.042c4.239.622,4.55.4,6.231-4.126-1.992-1.116-2.84-1.2-3.7-.042s-1.512,2.459-2.543,4.168Z" transform="translate(37.942 -170.846)" fill="#8fced0"/><path d="M97.387,234.91a13.9,13.9,0,0,0-2.911,1.1,2.693,2.693,0,0,0-.622,3.9c.283.41,1.328.834,1.611.636a8.769,8.769,0,0,0,2.374-2.3,2.3,2.3,0,0,0-.452-3.335Z" transform="translate(18.945 -157.684)" fill="#8fced0"/><path d="M78.949,251.059a7.393,7.393,0,0,0-1.512-1.229,1.894,1.894,0,0,0-1.413.085,19.65,19.65,0,0,1-2.981,1.6,11.149,11.149,0,0,1-3.137-.085c-.382,1.681.551,2.063,1.554,2.19,2.741.339,5.03-.749,7.475-2.543Z" transform="translate(9.25 -151.564)" fill="#8fced0"/><path d="M86.794,278.74c-1.145,1.455-.3,4.338,1.272,4.691a1.533,1.533,0,0,0,.961-.155,2.591,2.591,0,0,0,1.455-2.854,2.7,2.7,0,0,0-2.459-2.091,3.814,3.814,0,0,0-1.229.41Z" transform="translate(16.043 -139.752)" fill="#8fced0"/><path d="M60.82,296.547c.947-.212,1.893-.41,3.038-.664.438-1.06.918-2.261,1.356-3.306A2.5,2.5,0,0,0,61.7,291.7a6.175,6.175,0,0,0-1.78,2.784c-.155.551.65,1.371,1.031,2.063h-.113Z" transform="translate(5.153 -134.401)" fill="#8fced0"/><path d="M82.27,249.4a4.364,4.364,0,0,0,.113-1.1,3,3,0,0,0-2.543-2.642c-1.681-.212-2.642,1-3.49,2.233a1.126,1.126,0,0,0,.763,1.512c.975,0,1.95-.17,2.925-.17.749,0,1.5.664,2.233.17Z" transform="translate(11.906 -153.256)" fill="#8fced0"/><path d="M82,239.383c-1.314-.805-2.2-.565-2.911.339a1.927,1.927,0,0,0-.057,2.317c.495.862.9,1.766,1.427,2.614.141.24.551.3,1.13.579,1.159-2.006.353-4.027.4-5.85Z" transform="translate(12.909 -156.039)" fill="#8fced0"/><path d="M129.611,213.558c-1.625-3.744-2.006-3.872-5.991-1.794a16.352,16.352,0,0,0,1.159,1.512q2.049,2.176,4.832.155Z" transform="translate(31.47 -167.8)" fill="#8fced0"/><path d="M81.484,259.647a56.2,56.2,0,0,0,6.274-4.818c-3.222-.283-4.988,1.441-7.065,1.992-.495.127-.706,1.328-1.173,2.3.89.226,1.5.367,2.105.523Z" transform="translate(13.257 -149.471)" fill="#8fced0"/><path d="M84.33,239.915c.24.41.41,1.13.834,1.342a5.276,5.276,0,0,0,4.776-.24,1.8,1.8,0,0,0,.085-1.639C88.583,238.121,85.913,238.333,84.33,239.915Z" transform="translate(15.244 -156.176)" fill="#8fced0"/><path d="M34.23,215.48c.141,2.247,1.116,3.264,2.6,3.744,1.314.438,2.459-.085,3.759-.9C38.992,216.017,36.943,215.551,34.23,215.48Z" transform="translate(-5.447 -165.709)" fill="#8fced0"/><path d="M52.947,188.33a10.116,10.116,0,0,0,.424,7.093c.127.325,1.031.353,2.261.749-1.328-2.939-.593-5.708-2.685-7.828Z" transform="translate(2.089 -176.922)" fill="#8fced0"/><path d="M31.435,259.73a14.57,14.57,0,0,0-3.7.537c-.537.24-.848,1.215-1.031,1.922-.057.24.565.918.9.933a3.32,3.32,0,0,0,2.176-.41c.65-.593.918-1.6,1.639-2.981Z" transform="translate(-8.558 -147.434)" fill="#8fced0"/><path d="M91.953,217.573c.48,0,.975.042,1.455.028.975-.028,2.063-.042,2.36-1.229.254-1.031-.947-2.572-2.233-2.769a2.058,2.058,0,0,0-1.568.791c-.763,1.031-.382,2.162.1,3.222l-.127-.042Z" transform="translate(18.219 -166.488)" fill="#8fced0"/><path d="M45.28,194.027a4.711,4.711,0,0,0,.283,1.964,2.063,2.063,0,0,0,2.614.65,1.4,1.4,0,0,0,.678-1.1,2.491,2.491,0,0,0-2.868-1.964,3.4,3.4,0,0,0-.706.438Z" transform="translate(-0.884 -174.776)" fill="#8fced0"/><path d="M106.709,203.041c-1.385-1.639-2.967-2.43-5.3-1.258.692,1.823,2.346,2.162,3.646,3.222.664-.834,1.159-1.455,1.667-2.091v.127Z" transform="translate(22.298 -171.597)" fill="#8fced0"/><path d="M51.013,291.96c-1.272.424-2.444.805-3.843,1.272.763.961,1.427,1.809,2.119,2.7,1.922-.918,1.554-2.473,1.724-3.956Z" transform="translate(-0.103 -134.123)" fill="#8fced0"/><path d="M60.41,280a6.87,6.87,0,0,0,4.564,4.211c.155-.268.495-.622.424-.805C64.635,281.47,62.812,281.1,60.41,280Z" transform="translate(5.365 -139.063)" fill="#8fced0"/><path d="M47.9,206.591c.848-.735,1.752-1.13,1.865-1.681.325-1.526-.636-2.3-2.2-2.6C46.774,203.511,46.958,204.684,47.9,206.591Z" transform="translate(-0.145 -171.148)" fill="#8fced0"/><path d="M60.591,243.588a14.765,14.765,0,0,0-1.371-3.391c-.325-.438-1.455-.452-2.176-.339-.678.113-.749,1.342-.184,2.049a3.57,3.57,0,0,0,3.716,1.667Z" transform="translate(3.742 -155.666)" fill="#8fced0"/><path d="M37.71,251.61c2.2.127,4.31.212,5.864-2.6C41.016,249.8,38.939,249.745,37.71,251.61Z" transform="translate(-4.01 -151.861)" fill="#8fced0"/><path d="M108.333,263.825a3.429,3.429,0,0,0,.085,1.5,1.518,1.518,0,0,0,2.374.706,2.721,2.721,0,0,0,.735-2.035C111.371,263.076,109.647,262.935,108.333,263.825Z" transform="translate(25.139 -145.99)" fill="#8fced0"/><path d="M51.376,209.226c-2.388-.862-4.776-1.738-7.786-2.826.579,1.116.721,1.922,1.145,2.134,2.119,1,4.324,1.583,6.641.565v.127Z" transform="translate(-1.582 -169.459)" fill="#8fced0"/><path d="M71.875,189.207c.268-.17.636-.283.791-.523.495-.805.9-1.639,1.413-2.586-.495-.283-.876-.664-1.286-.678a1.968,1.968,0,0,0-2.105,1.625c-.24,1-.1,1.936,1.187,2.176Z" transform="translate(9.57 -178.124)" fill="#8fced0"/><path d="M81.413,258.23a10.268,10.268,0,0,0-1.017,1.06,1.383,1.383,0,0,0,.311,2.119,1.677,1.677,0,0,0,2.558-.3,1.569,1.569,0,0,0-.749-2.077l-1.229-.805h.141Z" transform="translate(13.47 -148.053)" fill="#8fced0"/><path d="M140.48,222.321c1.3,1.2,2.854,1.4,4.55,1.851C144.408,221.5,143.066,221.035,140.48,222.321Z" transform="translate(38.433 -163.167)" fill="#8fced0"/><path d="M59.17,233.96c.452,1.936,1.173,2.826,2.769,2.656a1.675,1.675,0,0,0,1.215-.622c.382-.749-.184-1.2-.862-1.385C61.4,234.37,60.5,234.228,59.17,233.96Z" transform="translate(4.853 -158.077)" fill="#8fced0"/><path d="M100.087,188.8c-.184.523-.452.947-.339,1.088.254.339.721.805,1.031.763a6.472,6.472,0,0,0,2.247-.791c.268-.155.382-.763.382-1.173,0-.184-.495-.537-.706-.509-.918.155-1.823.424-2.614.608Z" transform="translate(21.6 -176.984)" fill="#8fced0"/><path d="M55.125,213.728a10.041,10.041,0,0,0-2.233-.212c-.3.042-.622.692-.749,1.116-.071.212.2.636.424.791a2.466,2.466,0,0,0,1.342.551,2.881,2.881,0,0,0,1.611-.664C55.676,215.169,55.323,214.462,55.125,213.728Z" transform="translate(1.946 -166.528)" fill="#8fced0"/><path d="M55.33,196.883a28.982,28.982,0,0,0-3.321-.028c-.339.028-.805.593-.876.961a1.431,1.431,0,0,0,.48,1.2,1.416,1.416,0,0,0,1.3.057,30.716,30.716,0,0,0,2.4-2.3v.1Z" transform="translate(1.529 -173.436)" fill="#8fced0"/><path d="M113.389,183.554c-.311.071-1,.028-1.356.339a1.442,1.442,0,0,0-.1,2.134,1.552,1.552,0,0,0,2.162.226c.721-.495.495-1.667-.706-2.713Z" transform="translate(26.469 -178.9)" fill="#8fced0"/><path d="M44.11,260.276c-.254-.17-.565-.537-.749-.495a9.051,9.051,0,0,0-2.162.89c-.141.085-.042,1.06.17,1.159a2,2,0,0,0,2.769-1.088c.057-.127-.014-.311-.042-.466Z" transform="translate(-2.596 -147.414)" fill="#8fced0"/><path d="M105.162,290.39c-.565,2.331-.876,3.674-1.272,5.3C106.744,293.951,106.773,293.88,105.162,290.39Z" transform="translate(23.322 -134.772)" fill="#8fced0"/><path d="M140.256,229.753c.862-.933.777-1.964-.057-2.317-.452-.184-1.13.141-1.71.24.1.593.028,1.356.367,1.752.283.325,1.046.254,1.4.311Z" transform="translate(37.612 -160.794)" fill="#8fced0"/><path d="M76.411,283.29c-2.134,2.091-1.06,3.73-.48,5.4C76.708,287.218,76.764,287.218,76.411,283.29Z" transform="translate(11.449 -137.704)" fill="#8fced0"/><path d="M32.476,247.046c.466-.042.933-.028,1.385-.113.89-.17,2.006.1,2.43-1.088a.534.534,0,0,0-.085-.438c-.848-.961-1.78-.41-2.642-.071a7.405,7.405,0,0,0-1.484,1c.127.226.254.466.4.692Z" transform="translate(-6.335 -153.571)" fill="#8fced0"/><path d="M97.69,294.911c1.258,1.286,1.964.438,2.515-.268a4.153,4.153,0,0,0,.48-1.71c0-.057-.636-.353-.735-.268-.791.721-1.526,1.512-2.261,2.261Z" transform="translate(20.761 -133.838)" fill="#8fced0"/><path d="M134.465,258.08c-.933.212-1.837.184-1.978.509a1.886,1.886,0,0,0,.283,1.71c.353.367,1.159.283,1.752.41-.014-.735-.042-1.484-.071-2.614Z" transform="translate(35.094 -148.115)" fill="#8fced0"/><path d="M76.865,272.2c-.325,1.328-.565,2.049-.664,2.784a.832.832,0,0,0,.48.692.931.931,0,0,0,.834-.283c.636-.834.749-1.724-.636-3.207Z" transform="translate(11.886 -142.288)" fill="#8fced0"/><path d="M69.553,239.87c.2-.918.325-1.512.452-2.105-.579-.028-1.328-.3-1.71-.042s-.438,1.046-.636,1.611c.551.155,1.088.311,1.893.523Z" transform="translate(8.359 -156.568)" fill="#8fced0"/><path d="M27.755,278.723c-.89-.127-1.795-.311-2.7-.353-.184,0-.523.424-.565.692-.028.24.226.735.4.763.918.1,1.851.085,2.769.113.028-.41.057-.805.085-1.215Z" transform="translate(-9.47 -139.736)" fill="#8fced0"/><path d="M114.274,290.034c.805-.466,1.625-.89,2.374-1.413.127-.085.085-.692-.071-.862s-.721-.311-.862-.184c-.664.593-1.258,1.272-1.865,1.922.141.184.283.353.438.537Z" transform="translate(27.435 -135.955)" fill="#8fced0"/><path d="M73.775,259.494c-1.286-.141-2.006-.438-2.374-.2a1.651,1.651,0,0,0-.382,1.554,1.452,1.452,0,0,0,2.105.184,9.5,9.5,0,0,0,.664-1.54Z" transform="translate(9.719 -147.65)" fill="#8fced0"/><path d="M65.835,254.62c-.989.3-1.809.3-2.006.65a2.041,2.041,0,0,0,.141,1.71c.339.593,1.215.862,1.611.212.339-.537.155-1.4.24-2.572Z" transform="translate(6.722 -149.544)" fill="#8fced0"/><path d="M45.546,231.985l2.317-2.275v.113a7.533,7.533,0,0,0-.918-1.159c-.791-.65-1.795-.367-1.795.509a14.92,14.92,0,0,0,.523,2.812h-.127Z" transform="translate(-0.937 -160.411)" fill="#8fced0"/><path d="M63.491,259.726a11.5,11.5,0,0,0-1.766-.071.839.839,0,0,0-.565.636.963.963,0,0,0,.466.749,6.445,6.445,0,0,0,1.879.1c.155-.014.311-.509.382-.805.028-.1-.17-.268-.4-.593Z" transform="translate(5.675 -147.472)" fill="#8fced0"/><path d="M135.235,226.621a4.566,4.566,0,0,0-1.427-.339c-.636.1-.749,1.088-.127,1.54a1.409,1.409,0,0,0,1.272.184c.254-.184.2-.834.283-1.4Z" transform="translate(35.455 -161.251)" fill="#8fced0"/><path d="M137.656,224.319c-.721-.1-1.229-.339-1.583-.184a1.029,1.029,0,0,0-.4,1.625c.367.593,1,1.06,1.583.424.339-.382.268-1.116.41-1.851Z" transform="translate(36.354 -162.156)" fill="#8fced0"/><path d="M79.944,293.77a6.437,6.437,0,0,0-1.879.664c-.226.2-.057.862-.057,1.314a6.031,6.031,0,0,0,1.78-.226c.2-.085.1-.862.17-1.752Z" transform="translate(12.608 -133.376)" fill="#8fced0"/><path d="M150.544,230.29a5.644,5.644,0,0,0-.664,1.583c-.028.339.424.721.664,1.088.2-.226.551-.438.579-.692a15.934,15.934,0,0,0,0-1.837c-.2-.042-.382-.085-.579-.141Z" transform="translate(42.315 -159.593)" fill="#8fced0"/><path d="M73.251,191.437c-.848,0-1.554-.155-1.681.042a5.081,5.081,0,0,0-.41,1.639c.438.042,1.088.3,1.272.1a6.414,6.414,0,0,0,.82-1.78Z" transform="translate(9.805 -175.663)" fill="#8fced0"/><path d="M43.681,288.33a6.89,6.89,0,0,0-1.441,1.116c-.141.2.184.735.311,1.13a13.915,13.915,0,0,0,1.484-1.1c.1-.085-.141-.537-.339-1.145Z" transform="translate(-2.154 -135.622)" fill="#8fced0"/><path d="M69.738,281.7H68a6.159,6.159,0,0,0,.24,1.78c.071.155,1.13.2,1.215.028a5.683,5.683,0,0,0,.283-1.794Z" transform="translate(8.5 -138.36)" fill="#8fced0"/><path d="M97.5,336.628c.791-.325,1.6-.664,2.4-.989-.509-1.187-1.13-.805-1.653-.537a6.659,6.659,0,0,0-1.088.82c.113.24.226.466.353.707Z" transform="translate(20.542 -116.421)" fill="#8fced0"/><path d="M46.633,253.46c-.184.565-.41.89-.339,1.13.212.692,1.2.805,2.035.24.2-.141.226-.523.339-.791-.678-.2-1.356-.382-2.035-.565Z" transform="translate(-0.47 -150.023)" fill="#8fced0"/><path d="M103.11,276.238c.692-.692,1.4-1.356,2.035-2.091a.825.825,0,0,0-.184-.791c-.212-.113-.791-.028-.848.1-.353.9-.593,1.851-.876,2.784h-.127Z" transform="translate(23 -141.829)" fill="#8fced0"/><path d="M75.813,295.968c-.579-.268-1.031-.565-1.088-.495a13.547,13.547,0,0,0-.975,1.385c.268.127.65.438.763.353a11.567,11.567,0,0,0,1.286-1.243Z" transform="translate(10.874 -132.677)" fill="#8fced0"/><path d="M158.336,248.59a15.238,15.238,0,0,0-1.795.254c-.113.028-.1.509-.141.791a13.978,13.978,0,0,0,1.724-.042c.085,0,.113-.48.212-1Z" transform="translate(45.008 -152.035)" fill="#8fced0"/><path d="M142.463,279.534c-.537,0-.975,0-1.413-.014.042.41-.028,1.13.141,1.187a5.875,5.875,0,0,0,1.667.141C142.731,280.438,142.6,280.029,142.463,279.534Z" transform="translate(38.669 -139.261)" fill="#8fced0"/><path d="M66.922,253.976c-.113-.721-.226-1.455-.382-2.176a4.243,4.243,0,0,0-.721.113c.028.721.113,1.441.184,2.162.311-.042.608-.071.918-.113Z" transform="translate(7.599 -150.709)" fill="#8fced0"/><path d="M58.033,283.05a1.457,1.457,0,0,0,.2,2.275,1.024,1.024,0,0,0,.862.057,1.357,1.357,0,0,0,.141-2.091c-.311-.24-.862-.184-1.2-.226Z" transform="translate(4.196 -137.803)" fill="#8fced0"/><path d="M70.07,180.58c.283.805.353,1.512.579,1.554a5.811,5.811,0,0,0,1.766-.113c-.085-.424-.057-1.116-.283-1.215a7.17,7.17,0,0,0-2.063-.226Z" transform="translate(9.354 -180.122)" fill="#8fced0"/><path d="M75.909,259.6a6.852,6.852,0,0,0-.353-2.006c-.1-.184-1.017-.2-1.187,0a1.387,1.387,0,0,0-.028,1.272c.17.283.721.353,1.568.721Z" transform="translate(11.061 -148.376)" fill="#8fced0"/><path d="M127.87,212.748a6.1,6.1,0,0,0,1.286.466.983.983,0,0,0,.791-.3c.113-.127.085-.636-.042-.707a1.1,1.1,0,0,0-.848-.042,8.373,8.373,0,0,0-1.187.692v-.127Z" transform="translate(33.226 -167.103)" fill="#8fced0"/><path d="M103.937,182.8c-.438.071-.933.028-1.215.254-.17.141,0,.707.028,1.088a4.845,4.845,0,0,0,1.2-.424c.113-.071,0-.509,0-.918Z" transform="translate(22.809 -179.206)" fill="#8fced0"/><path d="M109.429,181.9q-.593.085-1.229.17c.141.367.2.961.452,1.046.311.113.777-.184,1.173-.3-.113-.268-.226-.537-.382-.918Z" transform="translate(25.102 -179.577)" fill="#8fced0"/><path d="M71.531,239.79a6.221,6.221,0,0,0-.17,1.328c0,.113.537.184.82.268.127-.424.268-.862.4-1.286-.283-.085-.579-.17-1.046-.3Z" transform="translate(9.886 -155.669)" fill="#8fced0"/><path d="M34.595,254.785c-.014-.382-.042-.791-.057-1.215-.4.113-.989.1-1.145.353s.113.777.2,1.187c.283-.085.565-.184,1-.325Z" transform="translate(-5.812 -149.978)" fill="#8fced0"/><path d="M39.46,254.218a11.326,11.326,0,0,0,1.893.339c.212,0,.438-.254.65-.4-.24-.141-.48-.382-.721-.382A10.491,10.491,0,0,0,39.46,254.218Z" transform="translate(-3.287 -149.891)" fill="#8fced0"/><path d="M85.586,282.071c-.268-.028-.622-.184-.777-.057-.184.141-.184.509-.268.791.283.028.65.184.805.071.184-.127.17-.523.24-.791Z" transform="translate(15.33 -138.251)" fill="#8fced0"/><path d="M82.33,269.474c.085.268.155.537.24.791.141-.057.41-.127.4-.17-.042-.268-.141-.537-.212-.805l-.424.17Z" transform="translate(14.418 -143.486)" fill="#8fced0"/><path d="M36.873,262.964c-.057-.325-.085-.579-.127-.834-.41.127-.834.254-1.229.41-.071.028-.042.283-.057.438h1.413Z" transform="translate(-4.939 -146.443)" fill="#8fced0"/><path d="M109.946,188.91l-.876.085c.127.4.24.791.367,1.173.254-.141.65-.212.735-.424S110.031,189.193,109.946,188.91Z" transform="translate(25.461 -176.682)" fill="#8fced0"/><path d="M62.473,214.279a8.167,8.167,0,0,0-1.159-.933c-.226-.127-.593,0-.9.028.212.339.382.9.664.989a3.637,3.637,0,0,0,1.413-.2l-.014.113Z" transform="translate(5.365 -166.613)" fill="#8fced0"/><path d="M57.576,208.75c-.141,1.2.4,1.766,1.6,1.738C59.385,209.23,58.735,208.75,57.576,208.75Z" transform="translate(4.186 -168.488)" fill="#8fced0"/><path d="M33.151,228.384c.071-.24.155-.523.24-.805-.382-.028-.763-.071-1.159-.1,0,.3-.113.707.028.876s.565.042.876.042Z" transform="translate(-6.29 -160.753)" fill="#8fced0"/><path d="M30.234,228.31c-.254-.113-.4-.17-.523-.24a7.608,7.608,0,0,0-.382,1.258,3.01,3.01,0,0,0,.678.3c.071-.452.155-.89.226-1.314Z" transform="translate(-7.471 -160.509)" fill="#8fced0"/><path d="M54.09,196.78l2.091,2.289c.141-.17.3-.339.438-.509-.834-.551-1.667-1.1-2.515-1.667v-.113Z" transform="translate(2.755 -173.432)" fill="#8fced0"/><path d="M27.624,209.78c-.057.268-.212.579-.127.805.057.141.452.155.706.212.057-.268.226-.579.141-.777-.071-.155-.452-.17-.706-.24Z" transform="translate(-8.238 -168.063)" fill="#8fced0"/><path d="M29.79,207.89a5.309,5.309,0,0,0,.382,1.159c.057.1.791-.042.791-.113a7.165,7.165,0,0,0-.1-1.215C30.567,207.762,30.285,207.8,29.79,207.89Z" transform="translate(-7.281 -168.914)" fill="#8fced0"/><path d="M125.02,280.69c.268.028.523.042.791.071a4.455,4.455,0,0,0-.141-.777c-.028-.071-.4-.1-.41-.071a4.5,4.5,0,0,0-.226.777Z" transform="translate(32.048 -139.103)" fill="#8fced0"/><path d="M106.273,279.51a3.076,3.076,0,0,0-.353.918c0,.226.268.452.424.678.113-.254.339-.537.3-.763a2.6,2.6,0,0,0-.509-.834h.113Z" transform="translate(24.16 -139.265)" fill="#8fced0"/><path d="M73.645,293.893c-.113-.057-.24-.17-.339-.141s-.155.184-.226.283c.184.071.367.155.551.226a3.464,3.464,0,0,1,.028-.382Z" transform="translate(10.598 -133.385)" fill="#8fced0"/><path d="M82.8,285.31c-.283.028-.664-.042-.82.113s-.1.523-.127.805c.3-.014.678.071.848-.085S82.768,285.593,82.8,285.31Z" transform="translate(14.219 -136.87)" fill="#8fced0"/><path d="M100.755,264.43l-.805.085a2.476,2.476,0,0,0,.071.438,7.705,7.705,0,0,0,.805-.057C100.8,264.741,100.77,264.585,100.755,264.43Z" transform="translate(21.695 -145.493)" fill="#8fced0"/><path d="M58.037,297.448a6.093,6.093,0,0,0,.071,1.441c.042.184.438.283.678.424.042-.283.226-.636.113-.82a7.077,7.077,0,0,0-.989-1.074h.127Z" transform="translate(4.332 -131.868)" fill="#8fced0"/><path d="M26.45,225.173c.113.042.268.155.353.127s.1-.212.155-.339c-.113-.042-.24-.1-.353-.141l-.141.353Z" transform="translate(-8.66 -161.852)" fill="#8fced0"/><path d="M25.416,226.758c-.085-.268-.113-.706-.268-.763-.24-.071-.565.113-.848.2.1.268.127.678.311.763s.537-.127.805-.212Z" transform="translate(-9.548 -161.373)" fill="#8fced0"/><path d="M129.74,215.676c.141.057.268.127.41.184.057-.2.113-.41.17-.608-.155,0-.339-.028-.438.042s-.1.254-.141.4Z" transform="translate(33.998 -165.806)" fill="#8fced0"/><path d="M38.785,244.508c-.042-.155-.042-.367-.141-.466-.311-.283-.664-.523-1-.791-.155.254-.325.495-.48.749.4.2.777.41,1.173.565.113.042.3-.1.452-.17v.113Z" transform="translate(-4.237 -154.24)" fill="#8fced0"/><path d="M123.524,205.288c-.113-.042-.254-.155-.325-.127a.334.334,0,0,0-.127.311c.028.085.212.1.325.141.042-.113.1-.226.141-.339Z" transform="translate(31.241 -169.972)" fill="#8fced0"/><path d="M82.124,235.9a6.306,6.306,0,0,0-.48-.593c-.014-.014-.226.155-.353.226a6.308,6.308,0,0,0,.48.593,3.116,3.116,0,0,0,.353-.24Z" transform="translate(13.988 -157.52)" fill="#8fced0"/><path d="M108.143,191.463c.141-.056.339-.071.424-.17s0-.283-.014-.424c-.226.085-.452.17-.692.254.1.113.184.226.283.353Z" transform="translate(24.961 -175.873)" fill="#8fced0"/><path d="M25.411,268.029c.141-.254.268-.509.41-.749-.226-.071-.551-.268-.678-.184-.212.141-.311.466-.452.721.24.071.48.155.735.226Z" transform="translate(-9.387 -144.4)" fill="#8fced0"/><path d="M58.45,253.812l-.805-.212c-.028.254-.071.495-.085.749,0,.014.339.113.424.042A3.8,3.8,0,0,0,58.45,253.812Z" transform="translate(4.188 -149.966)" fill="#8fced0"/><path d="M105.164,202.451c.268.1.537.226.805.3a1.328,1.328,0,0,0,.41,0c-.127-.127-.268-.367-.4-.367a3.572,3.572,0,0,0-.834.2v-.127Z" transform="translate(23.842 -171.119)" fill="#8fced0"/><path d="M96.613,213.225c-.1-.113-.2-.212-.3-.325-.1.2-.2.382-.3.579.141.028.3.127.424.085.085-.028.127-.226.184-.339Z" transform="translate(20.072 -166.774)" fill="#8fced0"/><path d="M105.01,207.871a5.8,5.8,0,0,0,.353-.805c.028-.113-.071-.254-.113-.4-.17.141-.495.3-.48.41a3.245,3.245,0,0,0,.353.791H105Z" transform="translate(23.685 -169.347)" fill="#8fced0"/><path d="M74.207,237.679c-.4.141-.791.283-1.187.438l.41.495c.254-.339.509-.678.763-1.031l.014.1Z" transform="translate(10.573 -156.582)" fill="#8fced0"/><path d="M98.922,202.054a3.443,3.443,0,0,1-.382-.014c.028.127,0,.3.085.367s.24.028.382.028c-.028-.127-.042-.254-.071-.382Z" transform="translate(21.112 -171.26)" fill="#8fced0"/><path d="M49.553,244.23c-.113.042-.24.1-.353.141.057.113.085.3.155.311.1.028.24-.071.353-.113C49.652,244.456,49.61,244.343,49.553,244.23Z" transform="translate(0.735 -153.835)" fill="#8fced0"/><path d="M75.737,238.89l-.057.353.353-.113Z" transform="translate(11.671 -156.041)" fill="#8fced0"/><path d="M72.576,248.9c.042-.113.1-.226.141-.339-.127-.042-.268-.141-.382-.1-.071.028-.1.212-.155.325a3.9,3.9,0,0,0,.382.113Z" transform="translate(10.226 -152.091)" fill="#8fced0"/><path d="M63.662,262.14l-.042.268.283-.1Z" transform="translate(6.691 -146.439)" fill="#8fced0"/><path d="M46.159,236.96c.155.509.311,1.017.48,1.526.184-.127.367-.254.565-.382-.382-.382-.749-.763-1.145-1.13h.1Z" transform="translate(-0.562 -156.838)" fill="#8fced0"/><path d="M38.314,244.06c.382.184.749.353.339.17.452.071.057,0-.353-.057v-.113Z" transform="translate(-3.766 -153.906)" fill="#8fced0"/><path d="M38.5,285.4l-.325-.042.113.311Z" transform="translate(-3.816 -136.849)" fill="#8fced0"/><path d="M94.177,189.706c-.226-.1-.382-.226-.495-.184s-.141.24-.212.367c.212-.056.41-.113.692-.184Z" transform="translate(19.018 -176.433)" fill="#8fced0"/><path d="M101.016,237.2c.127-.057.254-.1.382-.155-.141-.17-.268-.325-.41-.495-.071.113-.2.226-.2.353C100.79,237,100.931,237.1,101.016,237.2Z" transform="translate(22.042 -157.007)" fill="#8fced0"/><path d="M27.8,248.41c-.212.2-.353.283-.41.4-.028.056.155.184.24.283.042-.184.1-.382.184-.678Z" transform="translate(-8.273 -152.109)" fill="#8fced0"/><path d="M20.579,246.282l-.339-.042.113.325Z" transform="translate(-11.225 -153.005)" fill="#8fced0"/><path d="M77.823,185.292l.028-.381-.311.155Z" transform="translate(12.439 -178.334)" fill="#8fced0"/><path d="M57.92,297.868c.325-.353.664-.692.961-1.074.071-.085-.042-.438-.071-.424-.268,0-.749.028-.763.1a11.784,11.784,0,0,0,0,1.413H57.92Z" transform="translate(4.337 -132.302)" fill="#8fced0"/><path d="M146.647,223.23l-.3.226.339.127Z" transform="translate(40.858 -162.508)" fill="#8fced0"/><path d="M27.884,214.479c.226-.057.438-.113.664-.155-.057-.127-.113-.353-.17-.353a2.9,2.9,0,0,0-.678.141c.057.127.127.254.184.382Z" transform="translate(-8.144 -166.333)" fill="#8fced0"/><path d="M43.783,193.577c0-.155.057-.4,0-.438a4.045,4.045,0,0,0-.763-.268,4.3,4.3,0,0,0,.325.735c.042.057.283-.028.424-.042Z" transform="translate(-1.817 -175.047)" fill="#8fced0"/><path d="M143.546,227.43c-.127.042-.268.1-.4.141.057.127.085.339.17.367.113.028.254-.085.4-.141-.056-.127-.1-.254-.155-.367Z" transform="translate(39.536 -160.774)" fill="#8fced0"/><path d="M78.431,291.586l.014-.4-.325.17Z" transform="translate(12.679 -134.441)" fill="#8fced0"/><path d="M112.664,265.52c-.141.028-.311,0-.382.1-.071.071-.028.24-.042.382l.424-.466Z" transform="translate(26.77 -145.043)" fill="#8fced0"/><path d="M116.44,283.94l.155.268.141-.184Z" transform="translate(28.505 -137.435)" fill="#8fced0"/><path d="M148.055,262.37c.268.311.523.636.1.113.551.353.184.127-.184-.113Z" transform="translate(41.527 -146.344)" fill="#8fced0"/><path d="M104.838,333.87c-.141.042-.283.1-.438.141.057.141.085.353.184.4s.283-.085.424-.127Z" transform="translate(23.533 -116.815)" fill="#8fced0"/><path d="M61.884,213.91l.608.579c-.212-.155-.41-.311-.622-.466Z" transform="translate(5.968 -166.357)" fill="#8fced0"/><path d="M28.24,246.307l.353-.141-.254-.226Z" transform="translate(-7.921 -153.129)" fill="#8fced0"/><path d="M47.074,229.31c.226.155.466.3.692.452-.071-.1-.127-.24-.226-.268a1.791,1.791,0,0,0-.48-.056v-.113Z" transform="translate(-0.149 -159.997)" fill="#8fced0"/><path d="M79.651,232.282l-.2-.212-.113.311Z" transform="translate(13.183 -158.857)" fill="#8fced0"/><path d="M61.492,253.163l-.17-.353-.212.268Z" transform="translate(5.654 -150.292)" fill="#8fced0"/><path d="M69.293,266.35l-.113.339.339-.127Z" transform="translate(8.987 -144.7)" fill="#8fced0"/><path d="M60.653,295.01c0,.268.014.551.028.82-.042-.268-.085-.551-.141-.82h.113Z" transform="translate(5.419 -132.864)" fill="#8fced0"/><path d="M133.473,253.59l.283.65a1.343,1.343,0,0,0-.1-.339,2.045,2.045,0,0,0-.3-.311h.1Z" transform="translate(35.493 -149.97)" fill="#8fced0"/><path d="M120.877,287.663l-.155-.353-.212.268Z" transform="translate(30.186 -136.044)" fill="#8fced0"/></g><g transform="translate(9.594 25.356)"><path d="M303.592,283.266c-19.612-8.351-41.048-18.468-49.2-38.165-3.547-8.563-4.126-18.129-7.588-26.72-7.616-18.948-27.539-29.857-46.954-36.2,22.2-2.981,45.442,11.954,51.956,33.389,2.883,9.509,5.779,17.86,10.386,26.663,8.761,16.73,26.706,25.151,41.4,41.062" transform="translate(72.943 49.727)" fill="#057178"/><path d="M282.577,283.092A52.425,52.425,0,0,1,259.63,241.72c-.325-10.937,2.826-21.633,4.281-32.485s.9-22.763-5.751-31.425c11.671,4.493,15.91,13.31,16.32,21.887C275.653,224.82,265.112,250.268,282.577,283.092Z" transform="translate(97.024 48.078)" fill="#057178"/><path d="M293.563,273.124a74.343,74.343,0,0,1-67.555-62.793c-5.624,28.331,17.973,49.455,22.9,53.835,5.92,5.27,9.622,8.619,16.193,10.583-13.946,9.3-24.855,4.465-30.549,1.992-4.055-1.752-13.113-10.513-18.736-14.511,5.468,12.957,16.278,24.318,30,27.384,12.18,2.727,35.9-12.576,47.759-16.49Z" transform="translate(79.538 61.509)" fill="#057178"/><path d="M172.212,283.831A24.555,24.555,0,0,1,186,262.1c9.467-4.451,21.336-2.557,29.984-8.421,1.6-1.074,3.137-2.614,3.222-4.536.113-2.557-2.558-4.55-5.115-4.663s-4.974,1.074-7.263,2.233q-10.788,5.511-21.562,11.021c-.876.452-2.006.876-2.769.254a2.039,2.039,0,0,1-.565-.848c-1.837-4.281,1.243-9.326,5.313-11.615s8.874-2.7,13.409-3.773c1.47-.353,3.052-.862,3.857-2.148,1.427-2.275-.834-5.44-3.49-5.836s-5.228,1.074-7.39,2.656-4.3,3.434-6.938,3.985c-2.374-4.182-.028-9.834,4-12.448s9.156-2.84,13.932-2.346,9.509,1.667,14.314,1.484a11.216,11.216,0,0,0,4.677-1c3.321-1.681,4.8-6.033,3.66-9.58a10.582,10.582,0,0,0-8.167-6.8c-9.453-1.766-17.366,7.461-26.79,9.354a23.508,23.508,0,0,1,7.545-21.845c3.589-3.094,8.012-5,12.166-7.277,11.9-6.5,22.438-17.3,24.459-30.7.212-1.455.2-3.222-1.017-4.041a3.794,3.794,0,0,0-3.024-.17c-6.542,1.681-11.657,6.768-15.585,12.265s-7.023,11.587-11.4,16.716a4.983,4.983,0,0,1-3.024,2.049c-2.572.268-3.942-3.109-3.646-5.68.608-5.313,4.338-9.637,6.782-14.384a31.22,31.22,0,0,0,3.391-12.307c.141-2.2,0-4.564-1.328-6.33-1.54-2.063-4.352-2.826-6.924-2.614-7.376.608-12.83,8.52-12.039,15.882.424,3.956,2.261,7.616,3.405,11.431s1.512,8.252-.777,11.516c-4.691,6.7-16.207,3.66-22.1,9.326a18.552,18.552,0,0,0,8.69,4.493c2.854.608,6.033.608,8.252,2.487,2.628,2.218,2.812,6.443,1.13,9.439s-4.79,4.931-8,6.175c-9.34,3.646-19.754,2.416-29.758,3.137a3.663,3.663,0,0,0-2.119.622c-1.145.989-.65,2.854.113,4.154a17.318,17.318,0,0,0,19.287,7.63c3.052-.9,6.556-2.6,9.114-.735,2.614,1.893,1.992,5.92.9,8.958a28.99,28.99,0,0,1-4.691,8.888c-3.716,4.451-9.312,6.839-13.734,10.569-9.354,7.87-12.632,20.842-13.339,33.036-.155,2.656-.057,5.68,1.922,7.447,1.724,1.526,4.267,1.568,6.556,1.512,4.719-.1,10.131-.537,12.985-4.3,2.981-3.928,1.95-10.089,5.44-13.579" transform="translate(50.292 34.41)" fill="#057178"/><path d="M102.422,159.115a8.814,8.814,0,0,0,3.137-8.69c-.82-3.66-3.956-6.613-4.2-10.357a2.269,2.269,0,0,1,.579-1.908,1.835,1.835,0,0,1,2.444.424,5.366,5.366,0,0,1,.961,2.558c.537,2.84,1.074,5.694,1.611,8.534.071.353.2.763.537.848a.828.828,0,0,0,.367-.028c1.625-.424,2.374-2.4,2.134-4.055a17.946,17.946,0,0,0-1.879-4.635,2.136,2.136,0,0,1-.24-1.568c.325-.9,1.724-.961,2.416-.283a3.735,3.735,0,0,1,.862,2.685,6.834,6.834,0,0,0,.4,2.84c1.71-.24,2.8-2.148,2.656-3.872a7.655,7.655,0,0,0-2.388-4.465,36.952,36.952,0,0,1-3.561-3.73,3.846,3.846,0,0,1-.735-1.554,2.924,2.924,0,0,1,1.908-3.137,3.824,3.824,0,0,1,3.716.82c2.572,2.3,1.7,6.57,3.222,9.665a8.421,8.421,0,0,0,4.536-6.938,24.367,24.367,0,0,0-.608-5.044c-.763-4.8-.014-10.159,3.349-13.678.367-.382.876-.763,1.371-.593a1.324,1.324,0,0,1,.706.82c.961,2.218.636,4.79-.057,7.107s-1.752,4.536-2.247,6.91a1.823,1.823,0,0,0,.085,1.314c.495.791,1.752.438,2.416-.212,1.371-1.342,1.78-3.349,2.586-5.087a11.276,11.276,0,0,1,2.741-3.66,3.415,3.415,0,0,1,2.091-1.017,2.836,2.836,0,0,1,2.261,1.385c1.441,2.233.4,5.511-1.865,6.9a22.729,22.729,0,0,1-4,1.54,4.828,4.828,0,0,0-3.094,2.755c-.876,2.8,2.515,5.4,2.2,8.323a6.674,6.674,0,0,1-3.179-1.484c-.791-.678-1.5-1.583-2.515-1.795a2.778,2.778,0,0,0-2.925,1.752,5.428,5.428,0,0,0,0,3.631c1.017,3.448,3.646,6.132,5.638,9.128a1.223,1.223,0,0,1,.283.735c-.028.537-.664.805-1.2.876a6.216,6.216,0,0,1-6.4-3.8c-.41-1.06-.706-2.43-1.794-2.741-1.116-.325-2.119.735-2.741,1.71a10.6,10.6,0,0,0-1.5,3.278,23.856,23.856,0,0,1-2.925,6.472c-3.349,5.341-10.979,11.643-10.541,10,.466-1.71,3.434-7.065,3.66-8.817" transform="translate(31.303 21.275)" fill="#057178"/><path d="M137.564,261.574c-1.159-4.917-5-8.888-9.439-11.29s-9.5-3.448-14.483-4.3-10.244-1.625-14.186-4.79-5.68-9.665-2.148-13.268c2.473-2.529,6.7-2.7,9.834-1.088s5.327,4.649,6.811,7.856c.65,1.427,1.314,3.038,2.713,3.716,2.656,1.286,5.511-1.7,6.175-4.578a12.74,12.74,0,0,0-3.123-11.431,22.237,22.237,0,0,0-8.026-4.832,93.768,93.768,0,0,0-20.22-5.61c-3.815-.608-7.743-1-11.205-2.7s-6.443-5.073-6.358-8.93,4.352-7.4,7.856-5.807c2.077.947,3.193,3.165,4.423,5.087a25.722,25.722,0,0,0,11.007,9.5,18.823,18.823,0,0,0,.565-4.013c.212-1.342,1-2.8,2.346-2.981,1.78-.24,2.925,1.766,3.716,3.377a26.6,26.6,0,0,0,4.1,6.062c.735.82,1.752,1.667,2.826,1.413a2.958,2.958,0,0,0,1.6-1.342c3.589-5.341,1.823-13.014-2.628-17.677s-10.908-6.811-17.253-7.955a72.15,72.15,0,0,0-21.916-.537c-3.349.438-7.333.89-9.58-1.639-2.049-2.3-1.286-6.288,1.159-8.167s5.991-1.865,8.775-.551c2.4,1.13,4.352,3.109,6.867,3.985s6.019-.042,6.443-2.656c.452-2.741-2.586-4.578-4.861-6.189-4.931-3.5-7.757-9.227-10.018-14.851-1.823-4.536-3.419-9.439-2.543-14.243s5.087-9.34,9.962-8.916a3.8,3.8,0,0,1,1.766.537,3.849,3.849,0,0,1,1.145,1.328c2.981,5.172.2,11.587-.17,17.549a21.219,21.219,0,0,0,2.925,12.124,6.124,6.124,0,0,0,2.416,2.558c2.628,1.3,5.68-.961,7.206-3.462s2.459-5.539,4.847-7.249c1.088-.777,2.656-1.173,3.716-.353a3.509,3.509,0,0,1,1,1.484,12.165,12.165,0,0,1,.339,8.478c-.82,2.444-2.43,5.073-1.314,7.4a6.408,6.408,0,0,0,2.515,2.43,33.174,33.174,0,0,0,10.089,4.281,4.772,4.772,0,0,1,2.727,1.272c1.215,1.5.1,3.646-.4,5.5-1.173,4.437,1.639,8.874,4.465,12.491,5.525,7.079,11.714,13.847,15.4,22.043,3.787,8.436,4.691,17.846,5.539,27.059.692,7.5,1.272,15.529-2.4,22.1a13.119,13.119,0,0,1-1-8.167" transform="translate(15.096 29.242)" fill="#057178"/><path d="M104.086,186.131c1.583-4.112.749-8.831-1.272-12.731s-5.143-7.121-8.323-10.159-6.585-6.175-7.856-10.385.636-9.721,4.945-10.6c3.01-.608,6.132,1.328,7.6,4.027a13.993,13.993,0,0,1,1.06,8.987c-.226,1.342-.537,2.826.141,4,1.272,2.233,4.79,1.469,6.683-.268a11.033,11.033,0,0,0,3.335-9.75,19.45,19.45,0,0,0-3.419-7.4A81.689,81.689,0,0,0,95.17,127.93c-2.444-2.3-5.073-4.507-6.74-7.418s-2.162-6.8-.212-9.524,6.754-3.207,8.492-.339c1.031,1.7.749,3.829.692,5.822a22.285,22.285,0,0,0,3.278,12.208,16.124,16.124,0,0,0,2.374-2.614c.805-.862,2.091-1.526,3.137-.989,1.4.692,1.243,2.7,1.017,4.239a23.371,23.371,0,0,0-.014,6.358c.127.961.438,2.063,1.342,2.4a2.563,2.563,0,0,0,1.794-.184c5.2-2.091,7.673-8.478,6.74-14s-4.522-10.23-8.52-14.144a62.633,62.633,0,0,0-15.5-11.092c-2.628-1.328-5.708-2.939-6.09-5.864-.339-2.656,2.148-5.143,4.832-5.313a7.491,7.491,0,0,1,6.585,3.9c1.173,1.992,1.611,4.366,2.981,6.217s4.352,2.911,5.935,1.229c1.667-1.752.367-4.564-.466-6.825-1.837-4.931-1.074-10.428.057-15.571.9-4.154,2.148-8.464,5.129-11.488s8.224-4.239,11.53-1.554a2.8,2.8,0,0,1,1.187,2.769c-.382,5.172-5.525,8.436-8.7,12.533A18.553,18.553,0,0,0,112.2,88.832a5.388,5.388,0,0,0,.48,3.024c1.258,2.218,4.55,2.091,6.881,1.031s4.479-2.784,7.023-2.84a2.791,2.791,0,0,1,2.84,1.554,3.05,3.05,0,0,1,0,1.554,10.607,10.607,0,0,1-3.9,6.26c-1.78,1.371-4.239,2.459-4.564,4.691a5.552,5.552,0,0,0,.622,2.981,28.9,28.9,0,0,0,5.157,8.012,4.2,4.2,0,0,1,1.342,2.247c.141,1.667-1.71,2.671-2.981,3.759-3.01,2.614-3.151,7.178-2.9,11.163.509,7.8,1.653,15.684.311,23.385-1.4,7.927-5.355,15.133-9.241,22.17-3.165,5.737-6.669,11.784-12.533,14.723a11.307,11.307,0,0,1,3.278-6.358" transform="translate(26.023 0.207)" fill="#057178"/><path d="M151.763,286.8c-27.412-11.671-57.353-25.8-68.756-53.341-4.96-11.968-5.779-25.321-10.6-37.345-10.64-26.48-38.49-41.726-65.619-50.585,31.015-4.168,63.5,16.7,72.6,46.643,4.041,13.282,8.082,24.953,14.511,37.247,12.237,23.385,37.317,35.155,57.848,57.368" transform="translate(-6.79 34.526)" fill="#057178"/><path d="M152.484,322.46a68.535,68.535,0,0,1-30-54.089c-.424-14.3,3.7-28.288,5.6-42.46s1.187-29.758-7.531-41.09c15.26,5.878,20.813,17.394,21.336,28.613,1.54,32.838-12.251,66.114,10.583,109.041Z" transform="translate(40.192 50.973)" fill="#057178"/><path d="M142.815,220.534a106.569,106.569,0,0,1,95.829-91.11c-40.03-10.569-72.359,21.336-79.071,28.006-8.054,8.012-13.183,13.014-16.574,22.226-12.081-20.785-4.182-35.961-.141-43.888,2.882-5.652,16.221-17.832,22.438-25.519-19.033,6.683-36.243,21.124-41.853,40.5-4.974,17.2,14.808,52.479,19.358,69.8Z" transform="translate(41.058 20.176)" fill="#057178"/><path d="M129.727,46.466c-2.134.184-4.225.367-6.387.551.085-.975-.042-1.752.2-1.908,3.985-2.444,8.012-4.818,11.841-7.079,3.434,2.6-2.727,4.649.678,6.9,2.529-.127,5.426-.353,8.323-.311.509,0,1.342,1.074,1.413,1.724a2.323,2.323,0,0,1-1.046,1.95c-2.953,1.258-6.556.593-9.184,3.137-.353.339-2.2-.367-2.925-1.046a26.516,26.516,0,0,1-2.925-3.928Z" transform="translate(41.345 -9.65)" fill="#057178"/><path d="M154.28,64.3c-.961-3.547-2.19-7.814-3.236-12.109a13.355,13.355,0,0,1-.184-4.112c.1-1.413.608-2.953,2.3-2.8.65.057,1.484,1.47,1.667,2.388.551,2.713.692,5.5,1.229,8.209.593,2.967,1.215,5.935,3.956,7.941a2.255,2.255,0,0,1,.184,3.6c-1.328,1.342-4.055.805-4.974-.89-.268-.48-.438-1.017-.933-2.233Z" transform="translate(52.681 -6.659)" fill="#057178"/><path d="M182.69,54.731c3.109-1.809,5.525-3.377,9.086-1.554-1.272,1.865-2.162,3.179-3.25,4.79.537.749,1.116,1.625,1.752,2.444,1.06,1.4.791,2.883-.678,3.321-1.046.311-2.558-.367-3.66-.961-.523-.283-.523-1.455-.834-2.2-.692-1.724-1.427-3.434-2.416-5.85Z" transform="translate(65.856 -3.73)" fill="#057178"/><path d="M148.62,33.39c1.2,4.1.2,7.376-3.278,10.032-1.455,1.1-2.091,3.25-4.3,3.476,0,0,.311.113.3.113-.367-1-1.3-2.218-1.017-2.953a43.443,43.443,0,0,1,4.225-8.746c.721-1.074,2.868-1.2,4.366-1.766l-.311-.155Z" transform="translate(48.338 -11.567)" fill="#057178"/><path d="M190.628,106.363c-1.2-3.292-2.006-6.076.65-8.549.721.042,1.385-.127,1.766.141,1.922,1.314,5.228,1.809,4.38,5.115-.721,2.826-3.377,3.278-6.811,3.292Z" transform="translate(68.671 15.034)" fill="#057178"/><path d="M167.258,42.463c-1.2-3.292-2.006-6.076.65-8.549.721.042,1.385-.127,1.766.141,1.922,1.314,5.228,1.809,4.38,5.115-.721,2.826-3.377,3.278-6.811,3.292Z" transform="translate(59.019 -11.356)" fill="#057178"/><path d="M202.334,78.412c-1.95.805-3.335,1.7-4.8,1.922a3.47,3.47,0,0,1-3.857-2.388,4.785,4.785,0,0,1,1.357-5.878,3.349,3.349,0,0,1,4.96.791c.876,1.625,1.455,3.391,2.346,5.553Z" transform="translate(70.204 4.1)" fill="#057178"/><path d="M151.742,60.766a6.281,6.281,0,0,1,.3,1.992,7.969,7.969,0,0,1-5.27,5.878,2.47,2.47,0,0,1-2.176-.622c-.593-.777-1.328-2.4-.975-2.812a29.553,29.553,0,0,1,5.327-4.96c.565-.4,1.95.353,2.8.537Z" transform="translate(49.681 -0.523)" fill="#057178"/><path d="M208.288,94.227c-2.515-3.151-6.005-5.977-3.518-10.767,7.658,3.6,8.224,5.468,3.193,10.6.014,0,.325.155.325.155Z" transform="translate(74.622 9.112)" fill="#057178"/><path d="M113.8,26.014c-3.363,2.218-6.5,5.426-11.035,2.515,4.3-7.305,6.2-7.687,10.852-2.218,0-.014.184-.311.184-.311Z" transform="translate(32.845 -16.031)" fill="#057178"/><path d="M149.015,51.313q-4.762,6.853-8.506,5.581c-.452-2.826,1.639-4.578,3.052-6.514a3.548,3.548,0,0,1,2.967-.848c.9.155,1.667,1.159,2.487,1.795Z" transform="translate(48.409 -4.918)" fill="#057178"/><path d="M105.78,40.369c1.215-3.123,2.713-3.985,4.79-2.515a11.9,11.9,0,0,1,3.377,3.5c.353.593-.268,2.049-.848,2.826a2.248,2.248,0,0,1-2.162.48C109.185,43.435,107.617,41.937,105.78,40.369Z" transform="translate(34.092 -10.011)" fill="#057178"/><path d="M195.236,69.108a15.282,15.282,0,0,1-3.222.791,2.447,2.447,0,0,1-1.936-1.031,2.512,2.512,0,0,1,.325-2.233,20.634,20.634,0,0,1,3.6-3.236c1.314-.947,3.179-.3,4.182,1.229.933,1.427.3,3.038-1.54,3.886-.495.226-1,.424-1.427.593Z" transform="translate(68.853 0.644)" fill="#057178"/><path d="M198.691,87.916c-3.928,2.84-6.486,3.49-6.754,1.795-.509-3.179,2.459-3.829,4.239-5.313a2.4,2.4,0,0,1,1.441-.706,3.947,3.947,0,0,1,2.049.763c.268.2.226,1.046.057,1.5a15.2,15.2,0,0,1-1.2,2.134l.184-.17Z" transform="translate(69.651 9.206)" fill="#057178"/><path d="M181.931,89.29c1.992,3.688.113,5.087-1.681,6.1-2.3,1.314-4.62,1.314-6.429-1.823C176.01,91.325,179.274,91.537,181.931,89.29Z" transform="translate(62.192 11.52)" fill="#057178"/><path d="M173.893,88.556c-.24.537-.367,1.526-.9,1.851-2.091,1.328-5.3.085-5.765-2.247a2.264,2.264,0,0,1,1.06-1.893,4.586,4.586,0,0,1,5.61,2.275Z" transform="translate(59.463 10.149)" fill="#057178"/><path d="M196.905,86.846c2.176,1.229,4.14,2.7,4.677,5.3a2.588,2.588,0,0,1-.65,2.119,2.881,2.881,0,0,1-2.247.466,3.441,3.441,0,0,1-2.925-3.448c.042-1.54.82-3.052,1.3-4.592.028-.028-.155.141-.155.141Z" transform="translate(71.253 10.445)" fill="#057178"/><path d="M164.106,30.5a26.816,26.816,0,0,1-4.366-.622,2.275,2.275,0,0,1-1.017-1.95c.085-.622,1-1.625,1.5-1.6a20.414,20.414,0,0,1,4.62,1.046c.283.1.523.961.452,1.4-.085.466-.565.876-1.173,1.724Z" transform="translate(55.954 -14.483)" fill="#057178"/><path d="M184.929,92.43a17.877,17.877,0,0,1,3.73.48,2.214,2.214,0,0,1,.721,2.021,4.251,4.251,0,0,1-5.44,2.247,1.768,1.768,0,0,1-.848-2.7,13.694,13.694,0,0,1,1.837-2.049Z" transform="translate(65.892 12.817)" fill="#057178"/><path d="M119.619,46.35a17.878,17.878,0,0,1,3.73.48,2.214,2.214,0,0,1,.721,2.021,4.251,4.251,0,0,1-5.44,2.247,1.768,1.768,0,0,1-.848-2.7A13.694,13.694,0,0,1,119.619,46.35Z" transform="translate(38.919 -6.214)" fill="#057178"/><path d="M165.808,84.213c-1.2-3.292-2.006-6.076.65-8.549.721.042,1.385-.127,1.766.141,1.922,1.314,5.228,1.809,4.38,5.115-.721,2.826-3.377,3.278-6.811,3.292Z" transform="translate(58.42 5.886)" fill="#057178"/><path d="M160.109,70.28a17.878,17.878,0,0,1,3.73.48,2.214,2.214,0,0,1,.721,2.021,4.251,4.251,0,0,1-5.44,2.247,1.768,1.768,0,0,1-.848-2.7,13.694,13.694,0,0,1,1.837-2.049Z" transform="translate(55.641 3.669)" fill="#057178"/><path d="M158.7,36.593c-2.317-.085-4.437-.721-5.327-3.066a3.049,3.049,0,0,1,.523-2.769,3.25,3.25,0,0,1,2.925.113c2.289,1.385.989,4.027,1.766,6.005l.127-.283Z" transform="translate(53.698 -12.777)" fill="#057178"/><path d="M140.852,77.046c1.385-.2,2.911-.41,5.087-.706a20.815,20.815,0,0,1-.735,4.352,2.414,2.414,0,0,1-2.077.9c-2.444-.339-3.137-1.879-2.261-4.55Z" transform="translate(48.433 6.172)" fill="#057178"/><path d="M139.886,60.884c.41.876,1.3,1.851,1.145,2.614a10.115,10.115,0,0,1-1.893,3.561c-.155.226-1.088.1-1.54-.127s-1.031-.763-1.017-1.145c.1-2.021.664-3.857,3.292-4.917Z" transform="translate(46.812 -0.218)" fill="#057178"/><path d="M161.089,64.21c.523.367,1.667.749,2.021,1.512a2.488,2.488,0,0,1-1.3,3.419,1.956,1.956,0,0,1-2.84-.664c-.862-1.356-.057-3.306,2.105-4.267Z" transform="translate(55.919 1.162)" fill="#057178"/><path d="M181.12,65.587c1.215-1.611,2.586-2.826,4.861-2.233,1.2.311,2.19.961,1.851,2.19a3.338,3.338,0,0,1-1.936,2.176,3.881,3.881,0,0,1-4.677-2.444l-.1.3Z" transform="translate(65.207 0.745)" fill="#057178"/><path d="M136.3,35.677c1.215-1.611,2.586-2.826,4.861-2.233,1.2.311,2.19.961,1.851,2.19a3.338,3.338,0,0,1-1.936,2.176,3.881,3.881,0,0,1-4.677-2.444l-.1.3Z" transform="translate(46.697 -11.607)" fill="#057178"/><path d="M149.044,83.626c.692-1.6.933-2.981,1.752-3.716.565-.495,2.021-.311,2.911,0a2.134,2.134,0,0,1,.947,1.879,4.02,4.02,0,0,1-1.992,2.148c-.848.311-1.978-.127-3.631-.311Z" transform="translate(51.954 7.519)" fill="#057178"/><path d="M191.662,55.78c1.526,1.229,2.727,1.851,3.377,2.826.777,1.145-.085,2.247-1.2,2.558-1.455.4-2.925-.127-3.222-1.752C190.461,58.535,191.125,57.5,191.662,55.78Z" transform="translate(69.12 -2.32)" fill="#057178"/><path d="M202.86,101.621c3.109-1.809,5.525-3.377,9.086-1.554-1.272,1.865-2.162,3.179-3.25,4.79.537.749,1.116,1.625,1.752,2.444,1.06,1.4.791,2.883-.678,3.321-1.046.311-2.557-.367-3.66-.961-.523-.283-.523-1.455-.834-2.2-.692-1.724-1.427-3.434-2.416-5.85Z" transform="translate(74.186 15.636)" fill="#057178"/><path d="M202.24,106.45c1.2,4.1.2,7.376-3.278,10.032-1.455,1.1-2.091,3.25-4.3,3.476,0,0,.311.113.3.113-.367-1-1.3-2.218-1.017-2.953a43.444,43.444,0,0,1,4.225-8.746c.721-1.074,2.868-1.2,4.366-1.766l-.311-.155Z" transform="translate(70.482 18.607)" fill="#057178"/><path d="M159.972,39.831c3.518,2.43,4.8,5.61,3.759,9.863-.438,1.78.424,3.843-1.159,5.4l.311-.1c-.918-.537-2.4-.9-2.642-1.667a45.036,45.036,0,0,1-2.218-9.453c-.113-1.3,1.47-2.741,2.275-4.112l-.339.071Z" transform="translate(55.665 -8.936)" fill="#057178"/><path d="M222.5,125.3c-1.95.805-3.335,1.7-4.8,1.922a3.47,3.47,0,0,1-3.857-2.388,4.785,4.785,0,0,1,1.356-5.878,3.349,3.349,0,0,1,4.96.791c.876,1.625,1.455,3.391,2.346,5.553Z" transform="translate(78.535 23.465)" fill="#057178"/><path d="M215.406,116a15.282,15.282,0,0,1-3.222.791,2.447,2.447,0,0,1-1.936-1.031,2.512,2.512,0,0,1,.325-2.233,20.634,20.634,0,0,1,3.6-3.236c1.314-.947,3.179-.3,4.182,1.229.933,1.427.3,3.038-1.54,3.886-.495.226-1,.424-1.427.593Z" transform="translate(77.183 20.01)" fill="#057178"/><path d="M204.7,92.58a17.878,17.878,0,0,1,3.73.48,2.214,2.214,0,0,1,.721,2.021,4.251,4.251,0,0,1-5.44,2.247,1.768,1.768,0,0,1-.848-2.7A13.693,13.693,0,0,1,204.7,92.58Z" transform="translate(74.057 12.879)" fill="#057178"/><path d="M211.832,102.67c1.526,1.229,2.727,1.851,3.377,2.826.777,1.145-.085,2.247-1.2,2.558-1.455.4-2.925-.127-3.222-1.752C210.631,105.425,211.3,104.394,211.832,102.67Z" transform="translate(77.45 17.046)" fill="#057178"/><path d="M187.878,82.365c-.367,1.314-.382,2.444-.947,3.08-.721.82-2.84-.212-3.038-1.639-.113-.82.636-1.766.989-2.656C185.759,81.5,186.635,81.856,187.878,82.365Z" transform="translate(66.348 8.158)" fill="#057178"/><path d="M150.292,72.942c-1.031,1.229-1.554,2.388-2.247,2.5s-2.148-.735-2.233-1.286a2.884,2.884,0,0,1,1.3-2.4c.565-.268,1.639.565,3.165,1.187Z" transform="translate(50.622 4.257)" fill="#057178"/><path d="M135.754,55.441c.466-.848.664-1.738,1.187-1.992a1.943,1.943,0,0,1,1.809.565c.593.961.452,2.105-.918,2.317-.565.085-1.243-.509-2.091-.89Z" transform="translate(46.466 -3.309)" fill="#057178"/><path d="M96.454,33.851c.466-.848.664-1.738,1.187-1.992a1.943,1.943,0,0,1,1.809.565c.593.961.452,2.105-.918,2.317-.565.085-1.243-.509-2.091-.89Z" transform="translate(30.235 -12.225)" fill="#057178"/><path d="M179.252,48.026a6.282,6.282,0,0,1,.3,1.992,7.969,7.969,0,0,1-5.27,5.878,2.47,2.47,0,0,1-2.176-.622c-.593-.777-1.328-2.4-.975-2.812a29.552,29.552,0,0,1,5.327-4.96c.565-.4,1.95.353,2.8.537Z" transform="translate(61.042 -5.785)" fill="#057178"/><path d="M177.425,59.783q-4.762,6.853-8.506,5.581c-.452-2.826,1.639-4.578,3.052-6.514A3.548,3.548,0,0,1,174.938,58c.9.155,1.667,1.159,2.487,1.795Z" transform="translate(60.142 -1.42)" fill="#057178"/><path d="M180.416,75.924c.41.876,1.3,1.851,1.145,2.614a10.115,10.115,0,0,1-1.893,3.561c-.155.226-1.088.1-1.54-.127s-1.031-.763-1.017-1.145c.1-2.021.664-3.857,3.292-4.917Z" transform="translate(63.551 5.994)" fill="#057178"/><path d="M164.164,63.921c.466-.848.664-1.738,1.187-1.992a1.943,1.943,0,0,1,1.809.565c.593.961.452,2.105-.918,2.317-.565.085-1.243-.509-2.091-.89Z" transform="translate(58.199 0.193)" fill="#057178"/><path d="M146.362,18.92c4.069,1.046,3.815,3.363,3.349,5.384-.608,2.586-2.176,4.281-5.708,3.476-.17-3.137,2.218-5.4,2.374-8.859Z" transform="translate(49.874 -17.543)" fill="#057178"/><path d="M141.032,23.545c.226.551.862,1.3.749,1.922-.452,2.444-3.547,3.942-5.567,2.713a2.3,2.3,0,0,1-.678-2.063,4.58,4.58,0,0,1,5.482-2.572Z" transform="translate(46.36 -15.696)" fill="#057178"/><path d="M132.256,26.656c-3.236-1.356-5.822-2.642-5.836-6.288.523-.495.848-1.1,1.3-1.2,2.275-.509,4.889-2.614,6.726.254,1.583,2.459.113,4.705-2.2,7.235Z" transform="translate(42.617 -17.945)" fill="#057178"/><path d="M118.09,21.467a17.694,17.694,0,0,1,2.883-2.4c.41-.226,1.71.325,1.978.834a4.263,4.263,0,0,1-2.049,5.525,1.767,1.767,0,0,1-2.558-1.215,13.908,13.908,0,0,1-.254-2.741Z" transform="translate(39.176 -17.504)" fill="#057178"/><path d="M120.38,38.442c-.692-1.6-1.554-2.713-1.54-3.815,0-.749,1.145-1.7,1.978-2.134a2.119,2.119,0,0,1,2.021.579A4.063,4.063,0,0,1,123.065,36c-.353.834-1.441,1.371-2.7,2.444Z" transform="translate(39.486 -11.97)" fill="#057178"/><path d="M113.552,30.02c.2,1.6.692,2.769.311,3.349a2.62,2.62,0,0,1-2.459.763,2.86,2.86,0,0,1-.876-2.586c.184-.593,1.54-.82,3.024-1.512Z" transform="translate(36.027 -12.958)" fill="#057178"/></g></g></svg>