<?xml version="1.0" encoding="UTF-8"?>
<svg id="Layer_2" data-name="Layer 2" xmlns="http://www.w3.org/2000/svg" viewBox="0 0 191 279.4">
  <defs>
    <style>
      .cls-1 {
        fill: #91ced0;
      }

      .cls-2 {
        fill: #057178;
      }

      .cls-3 {
        fill: #3e3f44;
      }
    </style>
  </defs>
  <g id="stair-growth">
    <path class="cls-3" d="m144.76,205.27l-.51-.42v-43.33h-46.56l-.19-.21v-43.54h-46.75v.54c-.41-.18-.82-.36-1.23-.54h1.23v-43.75H1.45L0,251.59h191v-46.32h-46.24Z"/>
    <g>
      <path class="cls-1" d="m151.7,110.82c2.33,2.73,5.41,2.39,8.52,2.22,4.13-.22,8.14.12,11.93,3.81-6.05,3.49-12.59.13-18.33,2.77.13,3.67,3.33,4.33,5.14,6.07,2.8,2.7,3.83,5.53,1.4,9.75-1.02-1.42-1.71-2.39-2.42-3.38-3.64-.29-6.56,1.48-9.42,3.39-4.5-4.56-4.46-4.49-8.74-1.84-1.34.83-3.02,1.74-4.47,1.64-4.17-.29-7.06-2.59-10.91-7.91,2.45-.2,4.73-.39,7.01-.59.39.48.69,1.09,1.19,1.39.36.22.97.03,1.47.02-.31-.43-.54-1.08-.96-1.24-.52-.19-1.19.02-1.79.05q-7.63-5.66-16.55.13c.16.64.11,1.54.52,1.88,3.32,2.77,5.41,6.98,10.43,7.85,1.75.31,2.95,4.59,4.58,4.71,3.74.3,5.97,2.55,8.84,4.21,3.04,1.77,6.77,2.33,10.07-.79-3.09-2.73-6.95-4.15-6.56-9.28,2.01-.17,3.99-.33,5.98-.49.04,3.02,1.33,5.23,3.93,6.79,1.96,1.18,3.77,2.6,5.66,3.92-2.54,3.73-7.91,1.85-9.26,6.21.53,2.49,2.78,1.53,4.27,2.46.13,2.55-1.25,4.22-4.12,5.6-1.06-.88-2.26-2.01-3.58-2.97-3.31-2.37-6.38-5.76-10.07-6.76-7.73-2.11-12.63-7.66-18.08-12.69-.25-.23-.59-.35-1.51-.87-.97.99-2.37,1.94-3.1,3.27-1.65,3-2.97,6.18-4.71,9.93,2.15.81,3.89,1.72,5.74,2.08,1.81.36,3.05,1.02,4.05,2.67.59.97,1.98,2.1,2.96,2.05,2.24-.1,4.2-1.81,6.81-.37,1.56.86,3.8.45,5.69.61-.04,1.64-.07,2.97-.11,4.67,4.67,1.28,9.31,2.43,13.87,3.86,1.52.48,2.81,1.68,4.21,2.55l.08-.21c-2.43,1.79-6.29-.55-8.33,2.75,1.67,3.55,5.15,1.25,7.37,2.69,1.93,1.25,3.97,2.32,6.02,3.51-1.14,2.9-2.93,5.67-.05,9.42-2.14.25-3.72.58-5.3.6-4.31.05-7.95,1.87-11.4,4.2-1.89,1.28-1.89,4.05.05,5.23,2.04,1.23,4.41,1.95,6.29,3.37,1.46,1.1,2.37,2.94,4.34,5.52-3.54.07-5.71.12-8.61.18.4,1.81.74,3.36,1.08,4.91l.09-.24c-1.83.34-3.13,1.11-3.2,3.29-.12,4.1-.35,8.19-.58,13.13,1.67,2.98,4.41,4.72,8.85,3.63,2.25-.55,4.75-.45,7.09-.21,3.19.33,4.44,1.69,3.48,5.61-.76,3.1,2.39,4.05,2.07,6.96-1.89.84-4.12,1.57-6.07,2.76-1.73,1.05-3.16,2.61-4.65,3.89-2.73-.66-5.32-1.28-8.46-2.03,2.13-2.01,4.19-3.95,6.08-5.73-.16-2.91-.4-5.51-3.39-6.04-3.07-.54-4.74-2.44-6.15-4.95-2.84-5.05-5.75-10.06-8.73-15.26-6.72-.27-6.67-.31-11.41-5.71-2.94-3.36-6.05-6.56-9.09-9.83-.23-.25-.53-.56-.82-.6-1.62-.21-3.38-.79-4.81-.33-.91.29-1.76,2.09-1.9,3.31-.5,4.44-.55,8.92-1.08,13.35-.19,1.58-1.25,3.05-1.73,4.17-3.42,1.38-5.06-.78-6.94-2.11-3.62-2.56-7.27-5.08-10.74-7.84-1.82-1.45-3.31-3.32-4.87-5.08-2.52-2.84-4.37-2.67-7.16.71-.42.51-.91.95-1.37,1.43q-7.38-2.92-14.47-17.01c-.51.37-1.42.69-1.48,1.11-.47,3.72-.85,7.29-2.37,10.94-1.91,4.57-4.18,9.62-1.31,14.85.14.25.13.79-.05.96-.92.95-1.78,2.3-2.91,2.62-1.51.43-2.72-.87-2.57-2.42.33-3.43.84-6.86,1.56-10.22,1.22-5.7,2.68-11.35,3.95-17.04.12-.52-.48-1.21-1.06-2.55-1.39.99-2.69,1.8-3.84,2.78-1.62,1.37-3.21.64-4.83.13l.23.09c-3.29-1.72-6.57-3.45-10.76-5.64-.04-1.71-.1-4.35-.17-7.65-1.08-1-2.52-2.42-4.04-3.75-1.45-1.28-2.97-2.47-4.37-3.62,1.57-2.72,3.37-1.33,4.92-1.39,3.79-.14,4.78-1.26,4.87-4.97.07-3.21-.64-6.1-2.48-8.78-1.1-1.6-1.83-3.47-2.72-5.21q8.59-4.31,11.32-11.7c-2.66-2.2-5.33-4.82-8.39-6.85-5.41-3.59-11.07-6.81-16.61-10.2-.88-.54-1.98-.99-2.47-1.8-.63-1.06-1.08-2.46-.96-3.65.06-.63,1.44-1.5,2.31-1.61,7.2-.94,13.49,1.47,19.08,5.87,1.87,1.47,3.24,3.63,5.16,5.02,1.51,1.09,3.52,1.49,6.01,2.47.82-5.79,2.15-10.69,1.19-15.9-.44-2.37-.64-4.8-.76-7.21-.26-5.61,1.68-10.64,6.61-13.09,3.48-1.73,4.46-4.94,6.87-7.72,4.36.95,6.8,3.93,9.02,7.56,1.94,3.18,4.51,5.97,7.01,9.19,1.97-1.56,3.86-3.44,6.08-4.71,2.05-1.17,4.47-1.67,6.72-2.49,2.53-.92,5.05-1.86,7.84-2.89,4.77,3.58,8.4,9.01,14.6,10.24,1.66-2.33.68-3.79-.76-4.76-2.25-1.53-4.81-2.6-7.01-4.18-.91-.66-1.24-2.14-2.02-3.59,7.1-2.01,10.91,2.67,14.94,5.98,4.02,3.3,8.6,6.59,9.25,13.83-3.58-1.45-6.25-2.53-9.45-3.83-.19,6.05-.09,11.13,2.41,15.86-1.93-1.36-4.12-2.46-5.74-4.12-3.56-3.66-6.68-7.76-10.25-11.42-6.76-6.93-8.9-6.62-13.62,1.59-.67,1.17-1.24,2.41-2.1,4.09,4.96,4.21,6.83,9.91,7.32,16.15.1,1.23-.28,2.58-.71,3.77-1.57,4.29-1.52,5.8,2.08,7.16,3.43,1.3,5.6,3.42,7.4,6.36.25.41,1.23.38,2.07.6.74-.41,1.77-.74,2.45-1.42,1.17-1.17,2.13-2.57,3.36-4.09-2.91-3.36-5.14-6.8-8.98-8.62l.19.13c-.49-1.46-.97-2.92-1.59-4.76q4.81.89,12.71,8.41c-1.3-6.04,2.3-8.19,4.7-11.2.52-.65.29-1.91.41-2.89,5.08-.99,8.55-4.01,10.82-8.61,1.81-3.66,3.7-7.28,5.7-11.19-1.88-1.73-3.32-3.14-4.85-4.44-1.56-1.33-3.52-2.3-4.74-3.87-4.34-5.57-7.83-11.8-13.82-15.99-2.43-1.7-2.44-4.85-2.22-7.63.2-2.55,1.5-4.41,4.47-5.41,2.66,5.39,5.47,10.41,10.64,13.56,1.33.81,2.25,2.57,2.97,4.09,2.5,5.32,5.8,10,10.75,14.29.98-1.28,2.23-2.4,2.83-3.81,1.6-3.75,2.93-7.61,4.38-11.47-3.61-2.38-17.22-15.74-21.26-21.18,8.7,5.11,17.55,7.87,23.32,15.47,2.71.17,3.64-1.86,4.14-3.79,1.04-3.99,1.5-8.14,2.62-12.1,1.57-5.55,2.35-11.76,9.07-13.96,0,0-.23-.12-.23-.12,1.83,6.19,7.94,6.93,12.28,9.34.36,2.95-1.36,3.67-3.06,3.61-3.06-.11-6.1-.68-9.36-1.09-1.38,3.34-4.38,6.32-1.59,10.89,4.24-.36,8.62-1.22,12.94-.96,4,.24,7.93,1.66,11.91,2.57.83,1.93-.56,2.61-1.89,2.67-5.8.3-11.61.35-17.41.59-3.02.12-6.03.42-10.01.72,1.07,2.18,1.51,3.83,2.53,4.91.87.92,2.38,1.41,3.69,1.7,8.37,1.81,14.7,6.86,20.61,12.75-.64.58-1.2,1.42-1.53,1.34-5.8-1.55-11.9-2.03-17.14-5.55-3.36-2.25-3.54-1.99-11.22-2.42-2.31,3.4-5.2,6.73-6.33,12.05,2.29.31,4.23.97,6.07.75,9.18-1.15,17.44,1.63,26.24,5.86-2.82,3.18-6.65,3.74-9.86,5.07-3.44,1.43-7.24,1.99-10.88,2.94-.92-.15-1.84-.36-2.76-.44-.23-.02-.49.36-.73.55.37.37.88,1.13,1.09,1.05.87-.32,1.64-.89,2.45-1.37Zm-93.33,45.12c2.69-2.1,5.23-3.79,7.4-5.87,1.9-1.81,2.2-4.3.95-6.67-2.91-5.51-6.66-10.27-12.48-13.93-2.61,2.9-6.93,4.36-7.41,8.2-.59,4.71-2.7,8.32-4.92,12.22-1.06,1.87-1.3,4.84-.66,6.92.78,2.55,3.03,4.45,6,4.37.7-.58,1.51-.9,1.67-1.44.82-2.59,1.47-5.24,2.27-8.2,2.04,1.25,4.01,2.46,7.16,4.39Zm76.85,24.55c1.6-6.99-1.05-11.7-7.03-14.54-5.38-2.56-10.76-4.02-16.41,1.45,2.02.72,3.82.91,4.94,1.88,1.49,1.29,2.29,3.36,3.68,4.82,5.66,5.93,11.22,12.19,20.66,10.56.34-.06.56-.83.97-1.5-1.92-.75-3.79-1.49-6.81-2.67Zm-55-33.64c-2.06-.18-4.27-.38-6.31-.57-1.02,5.39-1.96,10.06-2.76,14.75-.31,1.8.14,3.41,2.68,4.14,3.55-3.14,8.51-5.03,10.36-10.45.26-.75,2.21-1.32,3.34-1.27,2.45.12,4.27-1.03,4.66-3.08.25-1.32-1.03-3.06-1.9-4.43-.52-.82-1.49-1.52-2.4-1.87-1.53-.57-3.39-1.46-4.71-1.01-1.24.42-1.96,2.41-2.96,3.78Zm6.59,19.91c6.59,1,11.3,7.54,18.07,5.52.3-1.29.74-2.04.57-2.58-1.68-5.15-7.24-5.62-10.25-9.49-3.15,2.46-5.77,4.51-8.38,6.55Zm39.71,22.78c-2.51,2.83-4.11,3.87-4.5,5.25-.63,2.23-1.12,4.9-.47,7.01.99,3.18,3.69,4.72,7.43,3.97,2.28-5.16-1.68-9.11-2.46-16.23Zm-60.12-10c2.12,2.69,3.65,4.87,5.48,6.77.4.41,1.89-.06,2.77-.41.28-.11.47-1.53.28-1.65-2.9-1.78-1.32-3.08.27-4.63,1.1-1.08,1.11-2.73-.22-3.52-.97-.58-2.62-.74-3.64-.3-1.49.64-2.69,1.98-4.94,3.75Zm-27.79,3.96c2.02,3.35,4.17,2.36,6,.49,3.46-3.55,3.44-5.51.18-9.48-2.1,3.06-4.16,6.05-6.17,8.99Zm40.24,13.49c-.18.62-.83,1.61-.64,2.4.65,2.74,4.95,4.64,7.06,3.21.46-.31.85-1.13.83-1.69-.13-3.9-3.83-6.07-7.25-3.91Zm22.47-37.04c2.26.95,3.93,2.3,5,1.92,1.2-.43,2.32-2.32,2.64-3.76.35-1.58-2.59-2.59-4.95-1.49-.93.44-1.46,1.75-2.69,3.33Zm-39.12-33.23c.5.75.89,1.8,1.64,2.35.68.5,1.75.45,2.65.65.08-.87.46-1.88.16-2.59-.36-.86-1.22-1.6-2.03-2.15-.44-.3-1.36-.33-1.79-.05-.39.25-.41,1.08-.64,1.79Zm65.72-7.91c.34-1.79.55-2.89.75-3.99-1.19-.15-2.47-.64-3.55-.36-1.33.34-2.17,1.71-1.06,2.91.7.76,2.12.83,3.86,1.43Zm16.39,2.55c-1.7-4.9-3.8-5.44-7.11-4.02,2.12,1.2,3.98,2.25,7.11,4.02Zm-65.16,68.44c-.19.15-.38.3-.57.45.17.21.31.5.54.6.1.05.37-.27.56-.42l-.52-.64Zm2.5-18.3c.15.19.28.46.48.55.1.04.34-.24.51-.37-.16-.19-.28-.45-.48-.55-.09-.04-.34.24-.51.37Zm71.12-43.91l-.74-.11.21.65.53-.54Z"/>
      <path class="cls-1" d="m152.24,36.63c.66-.12,1.32-.28,1.99-.35,6.36-.71,6.62-.97,7.07-7.2.12-1.67.27-3.34.41-5.08,5.64-2.21,12.78-2.47,12.31-11.04l-.1.19c.76-.41,1.51-.82,3.18-1.71-.89,5.39.31,10.02-4.7,13.47-1.99,1.37-2.13,5.48-3.39,9.13,3.27.57,5.98,1.05,9.24,1.62-.81,1.23-1.18,2.49-1.84,2.67-2.24.62-4.6,1.26-6.88,1.14-2.85-.16-4.98.16-7.27,2.33-1.42,1.34-4.35,1.06-6.61,1.5,0,0,.23.12.22.11-1.19-2.33-2.37-4.65-3.56-6.98,0,0-.08.19-.08.19Z"/>
      <path class="cls-1" d="m37.91,190.81c-.48,3.71,3.71,6.63,2.1,10.7-3.72-1.22-3.74-1.2-6.98-4.98.32-.47.8-1.39,1.48-2.12,1.14-1.23,2.41-2.35,3.63-3.51,0,0-.23-.09-.23-.09Z"/>
      <path class="cls-1" d="m185.83,1.7c1.6-.82,2.43-1.4,3.36-1.66.53-.15,1.2.21,1.81.33-.57.56-1.06,1.4-1.73,1.59-.81.23-1.77-.1-3.44-.26Z"/>
      <path class="cls-1" d="m152.32,36.44c-.95-1.95-3.81-2.86-3.12-5.77q2.6,1.41,3.05,5.94s.07-.18.07-.18Z"/>
      <path class="cls-1" d="m151.25,168.23c1.85-.31,3.7-.62,6.97-1.16q-3.22,2.32-6.89.94s-.08.22-.08.22Z"/>
      <path class="cls-1" d="m142.79,210.39c.62-.18,1.25-.52,1.86-.48.56.04,1.24.36,1.57.79.18.23-.2,1.32-.47,1.38-.53.12-1.27-.05-1.73-.38-.49-.35-.76-1.02-1.13-1.56,0,0-.09.24-.09.24Z"/>
      <path class="cls-1" d="m27.32,140.78c.13-.51.12-1.3.42-1.44.39-.19,1.02.14,1.55.25-.13.54-.25,1.08-.38,1.62-.53-.14-1.06-.28-1.59-.42Z"/>
      <polygon class="cls-1" points="142.34 240.13 142.89 239.82 142.86 240.45 142.34 240.13"/>
      <path class="cls-1" d="m18.07,278.57c.19-.14.43-.43.56-.39.23.07.4.35.6.54-.32.22-.64.45-.96.67-.07-.28-.14-.55-.21-.83Z"/>
      <path class="cls-1" d="m174.03,12.96c-.38-.39-.76-.78-1.15-1.17.25.13.58.19.73.39.19.26.22.63.32.96,0,0,.09-.18.1-.18Z"/>
      <path class="cls-1" d="m94.64,129.75c-.49.73-.95,1.5-1.5,2.18-.12.15-.84.06-.85.02-.07-.53-.22-1.49-.05-1.55.81-.31,1.71-.38,2.58-.53,0,0-.18-.12-.18-.12Z"/>
    </g>
    <g>
      <path class="cls-2" d="m120.06,240.95c-6.16-2.65-12.89-5.86-15.45-12.1-1.11-2.72-1.3-5.75-2.38-8.47-2.39-6.01-8.65-9.47-14.75-11.48,6.97-.95,14.27,3.79,16.32,10.58.91,3.01,1.82,5.66,3.26,8.45,2.75,5.31,8.39,7.98,13.01,13.02"/>
      <path class="cls-2" d="m121.03,240.37c-4.28-2.88-7.06-7.93-7.21-13.12-.1-3.47.89-6.86,1.34-10.3.45-3.44.29-7.22-1.81-9.97,3.67,1.43,5,4.22,5.13,6.94.37,7.96-2.94,16.03,2.54,26.44Z"/>
      <path class="cls-2" d="m118.98,241.47c-5.19-.42-10.22-2.65-14.04-6.23-3.82-3.58-6.39-8.48-7.18-13.68-1.77,8.98,5.65,15.68,7.19,17.07,1.86,1.67,3.02,2.73,5.08,3.35-4.38,2.95-7.81,1.42-9.6.63-1.27-.56-4.12-3.34-5.88-4.6,1.72,4.11,5.11,7.71,9.42,8.68,3.83.86,11.28-3.99,15-5.23Z"/>
      <path class="cls-2" d="m71.68,236.28c0-2.87,1.76-5.67,4.33-6.89,2.97-1.41,6.7-.81,9.42-2.67.5-.34.99-.83,1.01-1.44.03-.81-.8-1.44-1.61-1.48s-1.56.34-2.28.71c-2.26,1.17-4.52,2.33-6.77,3.5-.28.14-.63.28-.87.08-.08-.07-.14-.17-.18-.27-.58-1.36.39-2.95,1.67-3.68s2.79-.86,4.21-1.2c.46-.11.96-.27,1.21-.68.45-.72-.26-1.72-1.1-1.85s-1.64.34-2.32.84-1.35,1.09-2.18,1.26c-.74-1.33,0-3.12,1.25-3.95,1.26-.83,2.88-.9,4.38-.74s2.99.53,4.5.47c.51-.02,1.02-.09,1.47-.32,1.04-.54,1.51-1.91,1.15-3.04s-1.42-1.94-2.57-2.15c-2.97-.56-5.45,2.37-8.42,2.97-.49-2.51.45-5.25,2.37-6.93,1.13-.98,2.52-1.59,3.82-2.31,3.74-2.06,7.05-5.48,7.68-9.73.07-.46.06-1.02-.32-1.28-.27-.18-.63-.13-.95-.05-2.05.53-3.66,2.15-4.9,3.89s-2.2,3.67-3.58,5.3c-.26.3-.56.61-.95.65-.81.08-1.24-.98-1.15-1.8.19-1.68,1.36-3.05,2.13-4.56.62-1.21.98-2.54,1.06-3.9.04-.7,0-1.45-.42-2.01-.48-.66-1.37-.9-2.17-.83-2.32.19-4.03,2.7-3.78,5.03.13,1.26.71,2.41,1.07,3.62.36,1.21.47,2.62-.24,3.65-1.47,2.13-5.09,1.16-6.94,2.96.76.71,1.72,1.21,2.73,1.42.89.19,1.9.19,2.59.79.82.7.88,2.04.36,2.99s-1.51,1.56-2.51,1.96c-2.93,1.15-6.2.77-9.35.99-.23.02-.49.04-.66.2-.36.31-.2.9.04,1.32,1.18,2.04,3.81,3.09,6.06,2.42.96-.29,2.06-.82,2.86-.23.82.6.63,1.88.28,2.84-.36,1-.8,2-1.48,2.82-1.17,1.41-2.92,2.17-4.32,3.35-2.94,2.49-3.97,6.61-4.19,10.47-.05.84-.02,1.8.61,2.36.54.48,1.34.5,2.06.48,1.48-.03,3.18-.17,4.08-1.36.94-1.25.61-3.2,1.71-4.3"/>
      <path class="cls-2" d="m43.8,192.56c.81-.63,1.21-1.75.99-2.75-.26-1.16-1.24-2.1-1.32-3.28-.01-.22.02-.46.18-.61.22-.19.58-.09.77.13s.25.52.3.81c.17.9.34,1.81.5,2.71.02.11.06.24.17.27.04,0,.08,0,.11,0,.51-.13.74-.76.67-1.29s-.37-.99-.59-1.47c-.07-.16-.13-.33-.07-.5.1-.29.54-.3.76-.09s.26.54.27.85,0,.63.12.9c.54-.08.88-.68.83-1.23s-.38-1.02-.75-1.42-.8-.74-1.12-1.18c-.11-.15-.2-.31-.23-.49-.08-.42.21-.85.6-1s.86-.02,1.17.26c.81.73.53,2.08,1.01,3.06.81-.41,1.38-1.28,1.43-2.2.03-.54-.11-1.07-.19-1.6-.24-1.52,0-3.22,1.05-4.34.11-.12.27-.24.43-.19.11.04.18.15.22.26.3.7.2,1.52-.02,2.26s-.55,1.44-.7,2.19c-.03.14-.05.29.03.42.15.25.55.14.76-.07.43-.42.56-1.06.81-1.61.2-.44.5-.84.86-1.16.19-.17.41-.32.66-.32.29,0,.55.2.71.44.45.71.13,1.75-.58,2.19-.38.24-.83.33-1.25.49s-.84.44-.97.87c-.27.89.79,1.71.69,2.64-.37-.06-.72-.23-1-.47-.25-.21-.47-.5-.79-.57-.38-.08-.77.2-.92.56s-.11.77,0,1.15c.32,1.09,1.15,1.95,1.77,2.89.05.07.09.15.09.23,0,.17-.21.26-.38.28-.83.11-1.71-.41-2.01-1.2-.13-.34-.22-.77-.56-.87-.35-.1-.67.23-.86.54-.2.32-.39.67-.47,1.04-.14.64-.57,1.5-.92,2.05-1.05,1.69-3.45,3.69-3.31,3.17.14-.54,1.08-2.24,1.15-2.8"/>
      <path class="cls-2" d="m49.74,227.58c-.36-1.56-1.57-2.82-2.97-3.58s-2.98-1.09-4.55-1.36c-1.56-.27-3.22-.52-4.45-1.52-1.24-1-1.78-3.06-.67-4.21.78-.8,2.1-.85,3.09-.34s1.67,1.48,2.14,2.49c.21.45.41.96.85,1.18.83.41,1.73-.54,1.94-1.45.29-1.27-.09-2.68-.98-3.62-.68-.72-1.6-1.16-2.52-1.53-2.04-.83-4.18-1.43-6.35-1.78-1.2-.19-2.43-.32-3.52-.86-1.09-.54-2.02-1.61-2-2.83s1.37-2.35,2.47-1.84c.65.3,1,1,1.39,1.61.83,1.31,2.05,2.37,3.46,3.01.16-.4.11-.85.18-1.27s.31-.89.74-.94c.56-.08.92.56,1.17,1.07.34.7.77,1.34,1.29,1.92.23.26.55.53.89.45.22-.05.37-.24.5-.42,1.13-1.69.57-4.13-.83-5.6s-3.43-2.16-5.42-2.52c-2.27-.41-4.6-.47-6.88-.17-1.05.14-2.3.28-3.01-.52-.64-.73-.4-1.99.36-2.59s1.88-.59,2.76-.17c.75.36,1.37.99,2.16,1.26s1.89-.01,2.02-.84c.14-.87-.81-1.45-1.53-1.96-1.55-1.11-2.44-2.92-3.15-4.71-.57-1.44-1.08-2.99-.8-4.52s1.6-2.96,3.13-2.83c.2.02.39.06.56.17.15.1.27.26.36.42.93,1.64.06,3.68-.05,5.56-.08,1.34.24,2.69.92,3.85.19.32.42.65.76.81.83.41,1.79-.3,2.26-1.1s.77-1.76,1.52-2.3c.34-.25.83-.37,1.17-.11.15.12.24.29.32.47.35.84.39,1.82.11,2.69-.26.78-.76,1.61-.41,2.35.16.34.48.57.79.77.97.63,2.05,1.09,3.17,1.36.31.08.65.15.86.4.38.47.03,1.15-.13,1.74-.37,1.41.52,2.81,1.4,3.96,1.74,2.25,3.68,4.39,4.84,6.99,1.19,2.68,1.47,5.66,1.74,8.58.22,2.38.4,4.92-.76,7.01-.38-.8-.49-1.72-.31-2.59"/>
      <path class="cls-2" d="m42.66,194.45c.5-1.3.24-2.8-.4-4.04s-1.62-2.26-2.61-3.22c-1-.96-2.07-1.96-2.47-3.29-.4-1.33.2-3.08,1.55-3.36.95-.19,1.93.42,2.39,1.28s.49,1.89.33,2.85c-.07.43-.17.89.04,1.27.4.71,1.51.47,2.1-.09.82-.77,1.23-1.97,1.05-3.09-.14-.86-.59-1.63-1.07-2.35-1.07-1.6-2.31-3.09-3.71-4.41-.77-.73-1.59-1.43-2.12-2.35s-.68-2.15-.07-3.02,2.12-1.02,2.67-.11c.32.54.24,1.22.22,1.84-.04,1.35.33,2.72,1.03,3.87.31-.21.49-.55.74-.83s.65-.48.99-.32c.44.22.39.85.32,1.35-.09.67-.09,1.35,0,2.02.04.3.14.65.42.76.18.07.39.01.56-.06,1.63-.66,2.41-2.69,2.12-4.44-.29-1.75-1.42-3.25-2.68-4.49-1.43-1.41-3.08-2.6-4.87-3.52-.82-.42-1.8-.93-1.91-1.86-.11-.84.68-1.63,1.52-1.68s1.64.5,2.07,1.24c.37.63.51,1.39.94,1.97s1.37.92,1.86.39c.52-.56.12-1.45-.15-2.17-.58-1.56-.34-3.31.02-4.94.29-1.32.67-2.68,1.61-3.64.94-.96,2.58-1.34,3.62-.49.13.11.25.24.32.4.06.15.07.32.05.48-.12,1.64-1.73,2.67-2.73,3.98-.71.92-1.13,2.06-1.2,3.22-.02.33,0,.67.15.96.4.7,1.43.66,2.16.33s1.41-.88,2.21-.9c.36,0,.78.14.89.49.05.16.03.33,0,.49-.15.78-.6,1.5-1.22,1.98-.56.43-1.33.78-1.43,1.49-.05.32.07.65.19.94.4.93.95,1.79,1.62,2.54.19.21.4.43.42.71.05.53-.54.84-.93,1.19-.95.83-.99,2.28-.91,3.54.16,2.47.52,4.97.1,7.41-.44,2.51-1.68,4.8-2.9,7.03-1,1.82-2.1,3.74-3.94,4.67.11-.76.48-1.48,1.03-2.02"/>
      <path class="cls-2" d="m47.33,237.25c-8.61-3.7-18.01-8.18-21.59-16.91-1.56-3.8-1.81-8.03-3.33-11.84-3.34-8.4-12.09-13.23-20.61-16.04,9.74-1.32,19.95,5.3,22.8,14.79,1.27,4.21,2.54,7.91,4.56,11.81,3.85,7.41,11.72,11.15,18.17,18.19"/>
      <path class="cls-2" d="m62.31,253.77c-5.6-3.76-9.22-10.36-9.42-17.15-.13-4.53,1.16-8.97,1.76-13.47.59-4.5.37-9.43-2.36-13.03,4.79,1.86,6.54,5.52,6.7,9.07.48,10.41-3.85,20.97,3.33,34.58Z"/>
      <path class="cls-2" d="m59.55,211.69c1.05-7.46,4.66-14.53,10.08-19.73,5.41-5.19,12.59-8.48,20.03-9.16-12.58-3.35-22.73,6.76-24.84,8.88-2.53,2.54-4.14,4.13-5.21,7.05-3.79-6.59-1.31-11.4-.04-13.92.9-1.79,5.09-5.66,7.05-8.09-5.98,2.12-11.38,6.7-13.14,12.84-1.56,5.45,4.65,16.64,6.08,22.13Z"/>
      <path class="cls-2" d="m55.53,147.04c-.67.06-1.33.12-2.01.18.03-.31-.01-.56.06-.6,1.25-.78,2.52-1.53,3.72-2.24,1.08.82-.86,1.47.21,2.19.79-.04,1.71-.11,2.61-.1.16,0,.42.34.44.55.02.2-.15.54-.33.62-.93.4-2.06.19-2.89,1-.11.11-.69-.11-.92-.33-.36-.35-.62-.82-.92-1.25Z"/>
      <path class="cls-2" d="m66.8,153.64c-.3-1.13-.69-2.48-1.02-3.84-.1-.42-.09-.87-.06-1.31.03-.45.19-.94.72-.89.2.02.46.47.52.76.17.86.22,1.74.39,2.6.19.94.38,1.88,1.24,2.52.38.28.43.76.06,1.14-.42.42-1.27.26-1.56-.28-.08-.15-.14-.32-.29-.71Z"/>
      <path class="cls-2" d="m79.86,151.54c.98-.57,1.74-1.07,2.85-.49-.4.59-.68,1.01-1.02,1.52.17.24.35.51.55.78.33.44.25.91-.21,1.05-.33.1-.8-.11-1.15-.31-.16-.09-.17-.46-.26-.7-.22-.55-.45-1.09-.76-1.85Z"/>
      <path class="cls-2" d="m63.66,142.28c.38,1.3.06,2.34-1.03,3.18-.46.35-.66,1.03-1.35,1.1,0,0,.1.04.1.04-.12-.32-.41-.7-.32-.94.37-.96.77-1.93,1.33-2.77.23-.34.9-.38,1.37-.56,0,0-.1-.05-.1-.05Z"/>
      <path class="cls-2" d="m83.24,173.86c-.38-1.04-.63-1.93.21-2.71.23.01.44-.04.56.04.6.42,1.64.57,1.38,1.62-.23.9-1.06,1.04-2.14,1.05Z"/>
      <path class="cls-2" d="m72.87,145.23c-.38-1.04-.63-1.93.21-2.71.23.01.44-.04.56.04.6.42,1.64.57,1.38,1.62-.23.9-1.06,1.04-2.14,1.05Z"/>
      <path class="cls-2" d="m87.4,161.53c-.61.26-1.05.54-1.51.61-.54.08-.99-.21-1.21-.76-.29-.73-.13-1.46.42-1.86.52-.38,1.27-.29,1.56.25.27.51.46,1.08.74,1.76Z"/>
      <path class="cls-2" d="m65.06,154.47c.05.3.13.48.09.63-.25.89-.77,1.57-1.65,1.86-.2.06-.57-.04-.69-.2-.19-.25-.42-.76-.31-.89.49-.59,1.06-1.12,1.67-1.57.18-.13.61.11.88.17Z"/>
      <path class="cls-2" d="m90.66,168.13c-.79-1-1.89-1.9-1.11-3.41,2.41,1.14,2.58,1.73,1,3.36,0,0,.1.05.1.05Z"/>
      <path class="cls-2" d="m47.85,138.53c-1.06.7-2.04,1.72-3.47.8,1.35-2.32,1.95-2.44,3.41-.7,0,0,.06-.1.06-.1Z"/>
      <path class="cls-2" d="m63.8,150.08q-1.49,2.18-2.67,1.77c-.14-.9.52-1.45.96-2.07.16-.22.64-.32.93-.27.29.05.53.37.78.57Z"/>
      <path class="cls-2" d="m45.73,144.99c.38-.99.85-1.26,1.5-.8.41.3.81.68,1.06,1.11.11.19-.08.65-.26.9-.11.15-.54.25-.68.15-.55-.39-1.04-.87-1.62-1.36Z"/>
      <path class="cls-2" d="m84.74,157.49c-.35.1-.68.24-1.01.25-.21,0-.53-.15-.61-.32-.09-.19-.03-.55.1-.71.33-.38.72-.73,1.13-1.03.41-.3,1-.1,1.31.39.29.45.09.96-.48,1.23-.15.07-.31.13-.45.19Z"/>
      <path class="cls-2" d="m86.08,166.16c-1.23.9-2.04,1.11-2.12.57-.16-1.01.77-1.22,1.33-1.68.13-.11.31-.24.45-.23.22.02.47.1.64.24.08.06.07.33.02.48-.09.24-.25.45-.38.68l.06-.05Z"/>
      <path class="cls-2" d="m78.47,167.33c.63,1.17.04,1.61-.53,1.94-.73.42-1.45.41-2.02-.58.69-.71,1.71-.65,2.55-1.36Z"/>
      <path class="cls-2" d="m75.09,166.66c-.08.17-.12.48-.28.59-.66.42-1.67.03-1.81-.71-.04-.18.16-.53.33-.6.63-.27,1.4.06,1.76.72Z"/>
      <path class="cls-2" d="m86.02,166.22c.69.39,1.3.86,1.47,1.68.04.21-.05.54-.21.67-.16.14-.48.2-.7.15-.55-.13-.94-.54-.92-1.09.02-.49.26-.97.41-1.46,0,0-.05.05-.05.05Z"/>
      <path class="cls-2" d="m70.92,140.45c-.41-.05-.91-.06-1.37-.2-.16-.05-.35-.42-.32-.62.03-.2.32-.52.47-.51.49.03.98.18,1.45.33.09.03.17.3.14.44-.03.15-.18.28-.37.54Z"/>
      <path class="cls-2" d="m80.58,168.74c.37.04.79.03,1.17.15.14.05.29.47.23.64-.23.63-1.05.98-1.71.71-.36-.14-.46-.5-.26-.86.12-.21.33-.38.58-.65Z"/>
      <path class="cls-2" d="m51.59,148.09c.37.04.79.03,1.17.15.14.05.29.47.23.64-.23.63-1.05.98-1.71.71-.36-.14-.46-.5-.26-.86.12-.21.33-.38.58-.65Z"/>
      <path class="cls-2" d="m72.22,163.94c-.38-1.04-.63-1.93.21-2.71.23.01.44-.04.56.04.6.42,1.64.57,1.38,1.62-.23.9-1.06,1.04-2.14,1.05Z"/>
      <path class="cls-2" d="m69.56,158.82c.37.04.79.03,1.17.15.14.05.29.47.23.64-.23.63-1.05.98-1.71.71-.36-.14-.46-.5-.26-.86.12-.21.33-.38.58-.65Z"/>
      <path class="cls-2" d="m68.51,142.92c-.73-.03-1.39-.23-1.67-.97-.09-.25-.02-.75.16-.88.2-.15.68-.11.92.03.72.44.31,1.28.55,1.9,0,0,.04-.09.04-.09Z"/>
      <path class="cls-2" d="m61.25,161.75c.43-.06.91-.13,1.6-.22-.09.6-.09,1.02-.23,1.38-.07.17-.44.32-.65.29-.77-.11-.99-.6-.71-1.44Z"/>
      <path class="cls-2" d="m60.43,154.6c.13.28.41.59.36.83-.08.4-.35.78-.59,1.13-.05.07-.34.03-.48-.04-.14-.07-.32-.24-.32-.36.03-.64.21-1.22,1.04-1.56Z"/>
      <path class="cls-2" d="m69.95,156.1c.17.12.52.24.63.48.2.43.04.84-.41,1.09-.35.19-.68.13-.89-.21-.27-.43-.02-1.05.66-1.35Z"/>
      <path class="cls-2" d="m79.16,156.4c.38-.51.81-.9,1.53-.71.38.1.69.3.58.69-.08.28-.36.64-.61.69-.63.12-1.2-.1-1.47-.77,0,0-.03.1-.03.1Z"/>
      <path class="cls-2" d="m59.27,143c.38-.51.81-.9,1.53-.71.38.1.69.3.58.69-.08.28-.36.64-.61.69-.63.12-1.2-.1-1.47-.77,0,0-.03.1-.03.1Z"/>
      <path class="cls-2" d="m64.93,164.27c.22-.51.29-.95.55-1.18.18-.16.63-.1.92,0,.16.06.36.45.3.6-.12.28-.36.58-.62.68-.27.1-.62-.04-1.14-.1Z"/>
      <path class="cls-2" d="m83.7,152.32c.48.39.85.58,1.06.89.24.36-.02.71-.38.81-.46.12-.92-.04-1.01-.55-.05-.28.16-.6.33-1.15Z"/>
      <path class="cls-2" d="m88.81,172.55c.98-.57,1.74-1.07,2.85-.49-.4.59-.68,1.01-1.02,1.52.17.24.35.51.55.78.33.44.25.91-.21,1.05-.33.1-.8-.11-1.15-.31-.16-.09-.17-.46-.26-.7-.22-.55-.45-1.09-.76-1.85Z"/>
      <path class="cls-2" d="m87.45,175.02c.38,1.3.06,2.34-1.03,3.18-.46.35-.66,1.03-1.35,1.1,0,0,.1.04.1.04-.12-.32-.41-.7-.32-.94.37-.96.77-1.93,1.33-2.77.23-.34.9-.38,1.37-.56,0,0-.1-.05-.1-.05Z"/>
      <path class="cls-2" d="m69.53,145.17c1.1.77,1.51,1.78,1.18,3.13-.14.56.13,1.22-.36,1.71,0,0,.1-.03.1-.03-.29-.17-.75-.29-.83-.53-.31-.98-.6-1.98-.7-3-.04-.41.46-.87.72-1.31,0,0-.1.02-.1.02Z"/>
      <path class="cls-2" d="m96.35,182.54c-.61.26-1.05.54-1.51.61-.54.08-.99-.21-1.21-.76-.29-.73-.13-1.46.42-1.86.52-.38,1.27-.29,1.56.25.27.51.46,1.08.74,1.76Z"/>
      <path class="cls-2" d="m93.7,178.49c-.35.1-.68.24-1.01.25-.21,0-.53-.15-.61-.32-.09-.19-.03-.55.1-.71.33-.38.72-.73,1.13-1.03.41-.3,1-.1,1.31.39.29.45.09.96-.48,1.23-.15.07-.31.13-.45.19Z"/>
      <path class="cls-2" d="m89.35,168.81c.37.04.79.03,1.17.15.14.05.29.47.23.64-.23.63-1.05.98-1.71.71-.36-.14-.46-.5-.26-.86.12-.21.33-.38.58-.65Z"/>
      <path class="cls-2" d="m92.66,173.33c.48.39.85.58,1.06.89.24.36-.02.71-.38.81-.46.12-.92-.04-1.01-.55-.05-.28.16-.6.33-1.15Z"/>
      <path class="cls-2" d="m81.64,164.07c-.12.42-.12.77-.3.98-.23.26-.89-.07-.96-.52-.04-.26.2-.56.31-.84.28.11.55.23.94.39Z"/>
      <path class="cls-2" d="m64.9,159.85c-.33.39-.49.76-.7.79-.22.04-.68-.23-.7-.41-.03-.25.19-.66.41-.76.18-.08.52.18,1,.38Z"/>
      <path class="cls-2" d="m59.03,151.9c.15-.27.21-.55.37-.63.14-.07.49.04.57.18.18.31.14.67-.29.74-.18.03-.39-.16-.66-.28Z"/>
      <path class="cls-2" d="m41.59,142.22c.15-.27.21-.55.37-.63.14-.07.49.04.57.18.18.31.14.67-.29.74-.18.03-.39-.16-.66-.28Z"/>
      <path class="cls-2" d="m77.27,148.76c.05.3.13.48.09.63-.25.89-.77,1.57-1.65,1.86-.2.06-.57-.04-.69-.2-.19-.25-.42-.76-.31-.89.49-.59,1.06-1.12,1.67-1.57.18-.13.61.11.88.17Z"/>
      <path class="cls-2" d="m76.41,153.87q-1.49,2.18-2.67,1.77c-.14-.9.52-1.45.96-2.07.16-.22.64-.32.93-.27.29.05.53.37.78.57Z"/>
      <path class="cls-2" d="m78.42,161.34c.13.28.41.59.36.83-.08.4-.35.78-.59,1.13-.05.07-.34.03-.48-.04-.14-.07-.32-.24-.32-.36.03-.64.21-1.22,1.04-1.56Z"/>
      <path class="cls-2" d="m71.64,155.69c.15-.27.21-.55.37-.63.14-.07.49.04.57.18.18.31.14.67-.29.74-.18.03-.39-.16-.66-.28Z"/>
      <path class="cls-2" d="m63.43,135.8c1.28.33,1.2,1.07,1.05,1.71-.19.82-.68,1.36-1.79,1.1-.05-.99.69-1.71.74-2.81Z"/>
      <path class="cls-2" d="m60.65,137.85c.07.17.27.41.24.61-.14.77-1.11,1.25-1.75.86-.15-.09-.27-.48-.21-.65.23-.65.99-1,1.72-.82Z"/>
      <path class="cls-2" d="m56.72,138.13c-1.01-.43-1.83-.84-1.83-1.99.16-.16.27-.35.41-.38.71-.16,1.53-.83,2.11.08.5.78.03,1.49-.69,2.29Z"/>
      <path class="cls-2" d="m51.19,136.62c.28-.25.56-.57.91-.76.13-.07.54.1.62.27.31.6,0,1.44-.64,1.75-.35.17-.68,0-.8-.39-.07-.23-.05-.5-.08-.87Z"/>
      <path class="cls-2" d="m52.01,143.76c-.22-.51-.49-.86-.48-1.21,0-.24.36-.54.62-.68.15-.08.57.04.63.18.12.27.18.67.07.93-.11.27-.45.43-.85.78Z"/>
      <path class="cls-2" d="m48.78,140.78c.06.51.22.88.1,1.06-.12.19-.63.34-.77.24-.2-.14-.35-.58-.28-.82.06-.19.48-.26.95-.48Z"/>
    </g>
  </g>
</svg>