<?xml version="1.0" encoding="UTF-8"?>
<svg id="Layer_2" data-name="Layer 2" xmlns="http://www.w3.org/2000/svg" viewBox="0 0 209.48 227.54">
  <defs>
    <style>
      .cls-1 {
        fill: #3e3f44;
      }

      .cls-2 {
        fill: #60aaa9;
      }
    </style>
  </defs>
  <g id="stair-growth">
    <path class="cls-1" d="m64.73,181.22l.51-.42v-43.33h46.56s.19-.21.19-.21v-43.54h46.75v.54c.41-.18.82-.36,1.23-.54h-1.23v-43.75h49.3s1.45,177.57,1.45,177.57H65.24s-46.75,0-46.75,0v-46.32h46.24Z"/>
    <g>
      <path class="cls-2" d="m134.53,112.01c-1.38-.46-2.75-.92-4.25-1.42-1.13.74-2.25,2.02-3.49,2.15-1.61.17-2.06,1.55-3.22,2.05-.27.12-.55.33-.81.31-.54-.06-1.15-.13-1.57-.42-.28-.18-.46-.81-.37-1.16.16-.69.48-1.37.85-1.99.67-1.13,1.38-2.25,2.15-3.31,1.58-2.16,2.33-4.39.78-6.67.53-1.26,1.95-1.92,1.08-3.43-1.17.06-2.39.12-3.65.18-2.05,1.75-2.79,4.3-3.95,7,1.25.63,2.43,1.23,3.64,1.83-2.93,5.07-8.39,6.27-12.38,9.37-1.12-.37-1.56-.99-1.02-2.01.68-1.29,1.34-2.6,2.14-3.81.74-1.12,1.35-2.23,1.36-3.76-1.7-.97-3.44-1.97-5.34-3.06.22-1.11.39-2.09.61-3.05.41-1.8,1.24-3.06,3.23-2.3,1.24-1.86,1.98-3.49,1.56-5.56-.41-2.03.86-3.71,1.96-5.18.8-1.07,1.48-2.05,1.89-3.34.22-.69,1.21-1.15,1.97-1.81-.35-.7-.71-1.44-1.18-2.4,1.84-1.45,3.14-3.23,3.46-5.74.17-1.38,1.14-2.66,1.87-4.23.84-.17,1.83-.31,2.79-.56,1.87-.49,3.22-1.39,2.84-3.68-.06-.33.32-.73.65-1.39,1.22.66,2.35,1.27,3.48,1.87.45.17.9.34,1.35.51.03-.15.06-.29.09-.44-.5,0-1.01,0-1.51,0,.43-.58.79-1.25,1.32-1.73.68-.62,1.55-.85,2.43-.35.85.48,1.23,1.27,1.07,2.22-.15.86-.45,1.68-.74,2.75,1.65.71,2.73,2.5,5.04,2.49.04-1.63-1.59-1.76-1.97-2.77-.12-1.3-.26-2.59-.33-3.89-.02-.4.05-1.03.31-1.2,2.56-1.68.87-3.16-.14-4.7-.05-.08.06-.26.08-.33,2.17-.82,4.3-1.63,6.68-2.53.69,1.18,1.37,2.35,2.45,4.19-1.89-.55-3.05-.89-4.52-1.32-.32,1.98-1.72,3.49-.74,5.48-.77.63-1.54,1.27-2.36,1.94.19.51.23,1.02.5,1.26,1.21,1.03,2.5,1.97,3.76,2.95.54,1.57-1.49,1.08-1.7,2.13-.19.96-.58,1.87-.95,3.01.3.67,1.07.37,1.76.29.97-.11,1.74.1,2.13,1.1.33.85,1.03.84,1.81.85.5,0,1.41.29,1.44.55.36,2.52,2.45,2.55,4.43,2.9-.27,2.03-1.88,2.64-2.83,3.74-1.44-.12-2.72-.23-3.85-.33-1.38,1.3.48,1.9.16,3.43-.9,1.89-2.9,3.21-5.36,3.65-.62,2.18.51,3.36,1.69,4.43.63.57,1.55.8,2.28,1.28,1.1.73,1.48,1.75.93,3.09-1.6.54-3.23,1.09-5.01,1.69-2.19-.66-2.85-3.07-4.52-4.51-1.17.9-2.26,1.78-3.4,2.59-1.6,1.14-2.24,2.93-.87,3.98,2.68,2.03,1.91,4.66,1.94,7.22,0,0,.1-.09.1-.09Zm-8.92-32.4c-.44.29-.89.59-1.35.89q2.54,3.19,2.89,6.34c.68.43,1.42.88,2.15,1.36.69.46,1.36.96,2.19,1.55.12-1.05.2-1.77.34-3.06,1.16,1.25,1.9,2.05,2.85,3.07.65-1.29,1.15-2.29,1.62-3.21-.81-1.26-1.72-2.09-1.63-3.66.11-1.85-1-2.65-2.76-2.41-.84.11-1.63.71-2.46.76-1.55.11-3.32.44-3.91-1.73,1.95.08,2.47-1.7,3.24-2.78,1.53.12,2.07,2.89,3.82.93q-1.82-3.89-.74-6.71c-.27-.04-.62-.2-.78-.08-.59.4-1.24.81-1.64,1.38-1.63,2.26-3.27,4.52-3.82,7.34Zm12.59,5.56c.76.3,1.26.68,1.49.55,1.61-.88,2.64-2.26,2.94-4.08.22-1.34-.77-2.62-2.15-2.77-.71-.08-1.45.03-2.16.14-.24.04-.44.35-.71.58-.06.37-.19.8-.19,1.22,0,.54.13,1.08.23,1.85,1.3-.47,2.33-.84,3.48-1.26.34,2.32-1.65,2.65-2.93,3.76Zm-9.13,7.36c-.66-.56-1.07-1.07-1.23-1-.5.21-.93.61-1.32,1.01-.07.08.23.69.28.68.64-.15,1.26-.37,2.27-.69Zm8.17,2.23c.17,0,.33,0,.5,0,.05-.51.13-1.03.12-1.54,0-.2-.24-.4-.37-.6-.11.23-.3.46-.31.7-.03.47.04.96.06,1.43Zm-13.87-10.78l.18-.24-.27-.05.09.29Z"/>
      <path class="cls-2" d="m11,113.1q-.35-1.75-1.86-3.02c-1.6,1.09-3.32,2.07-5.44,2.16-.7.03-1.37.82-2.02,1.24-.58-2.25-1.12-4.33-1.68-6.51.61-.91,1.43-1.87,1.97-2.98.44-.91.98-1.39,1.97-1.37,1.07.02,2.08.18,2.53,1.33.41,1.06.49,2.6,2.18,2,1.28-.46.66-1.74.68-2.71,0-.13.09-.26.16-.47h1.75c.67-1.06,1.36-2.15,2.12-3.35,1.66.23,3.24.46,4.82.65,1.3.16,2.27-1.02,1.78-2.19-.65-1.55-1.65-2.74-3.63-2.85,1.17-2.6,3.41-3.34,6.1-3.77.49.31,1.09.69,1.69,1.07,2.8,1.8,5.42,3.84,9.04,3.95,1.34.04,2.65,1.05,3.86,1.56,2.96-1.02,3.74-3.16,3.54-6.03-.36-.04-.78-.22-1.11-.11-.81.26-1.76.92-2.09-.39-.23-.89.7-1.12,1.41-1.33,1.44-.43,2.74-1.03,3.39-2.53.65-1.5,2.02-1.41,3.46-1.65.43,1.07.77,2.02,1.19,2.92.73,1.56.42,2.81-.98,3.82-.18.13-.17.52-.33,1.05.44.39,1,.82,1.47,1.33,1.26,1.38,1.28,2.58.06,3.82-.41.41-.92.72-1.38,1.09-.34.27-.67.56-.81.68-.49,1.39.07,2.24.75,3.04.66.78,1.38,1.51,2.07,2.27,1.49,1.64,1.52,2.96-.03,4.52-2.08,2.07-4.46,3.31-7.52,2.41-.39-.12-.82-.14-1.64-.27.51.97.86,1.63,1.21,2.31-.47.9-1.14.72-1.81.33-1.08-.64-1.56-2.09-3.22-2.04-1.29.04-1.97.15-2.46,1.23-.06.13-.09.28-.15.41-1.49,3.68-2.1,3.94-5.77,3.47-2.13-.28-4.33-.2-6.49-.1-.64.03-1.41.53-1.83,1.05-.99,1.22-2.13,1.71-3.71,1.64-.79-.04-1.6.49-2.49.8-.42-.64-.92-1.08-1-1.59-.24-1.46-.89-2.39-2.41-2.73-1-.22-1.34-1.08-1.18-2.05.13-.79.65-1.26,1.44-1.45.82-.2,1.62-.43,2.42-.64Zm18.91-11.32c1.41-1.84,1.32-2.91-.24-3.27-1.21-.28-2.48-.52-4.1.24,1.46,1.46,2.74,2.47,4.34,3.04Zm-3.09,12.99c.29-.04.58-.06.86-.13.75-.18,1.47-.51,1.3-1.41-.17-.9-1.04-.96-1.75-.88-.55.06-1.14.26-1.57.59-.26.2-.32.76-.31,1.15,0,.18.37.41.62.52.26.11.56.1.85.15Zm-5.39-8.59c-.16-.23-.28-.53-.5-.68-.78-.53-1.6-.64-2.34.05-.14.13-.18.59-.07.75.6.84,1.89,1.15,2.62.63.18-.13.2-.49.29-.75Zm.8,8.31l-.35-.06.13.32.22-.26Z"/>
      <path class="cls-2" d="m123.72,49.85c.43-.05.86-.11,1.49-.18v-3.26c.47-.21.74-.44.99-.42,1.16.06,2.34.09,3.23,1.06.62.68.93,1.91.26,2.31-1.96,1.15-1.51,2.91-1.71,4.83,1.03.13,1.84.24,2.64.34,1.16.99-.33,1.81-.14,2.79.54-.13,1.09-.25,1.63-.38-.49,2.5-.59,2.61-5.29,5.52-.87-1.86-2.35-2.88-4.63-3.21-.29.53-.79,1.1-.91,1.74-.52,2.82-1.31,5.4-4.35,6.53-.13.05-.27.15-.33.27-1.13,2.18-2.26,4.36-3.38,6.54.76,2.15-1.23,3.45-1.61,5.25-.36,1.72-.55,3.51-1.18,5.11-.58,1.46-1.66,2.71-2.47,3.99-1.81.57-3.34.23-4.75-.24-1.18-1.44-1.54-2.97-1.48-4.63.7.05,1.45.26,2.09.08.42-.12.8-.77.96-1.25.09-.28-.23-.86-.53-1.04-.26-.16-.92-.09-1.1.13-.53.66-.91,1.43-1.35,2.16-1.22.75-2.45,1.49-3.8,2.32.12.27.18.81.46.97,1.53.88,1.83,2.09,1.38,3.73-.48,1.75-.96,3.44-2.94,4.01-.68.19-1.45.25-2.14.13-.99-.17-1.93-.66-2.92-.8-.82-.12-1.68.07-2.74.13-.43-1.21-1.04-2.26-1.16-3.37-.25-2.4-1.89-3.94-3.27-5.58-.68-.81-1.97-1.17-3.05-1.58-1.3-.49-2.32-1.19-2.85-2.52-.27-.7.31-1.55,1.06-1.51,2.19.12,3.86,1.17,4.79,2.86,1.79-.13,2.04-1.14,2.09-2.19.1-2.26,1.14-3.56,3.48-3.66.29-.01.7-.02.84-.2,1.56-2.07,3.91-1.33,5.94-1.8,2.27-.53,4.33.2,6.69.5.1-.97.2-1.91.28-2.73,1.22-1.49,3.33,1.15,4.7-1.17-2.63-.44-4.77-.79-6.9-1.18-.42-.08-.81-.33-1.43-.59v-2.91c1.54-.64,2.99-1.24,4.64-1.93-.31-1.2-.62-2.29-.88-3.4-.21-.89-.16-1.78.56-2.44.89-.81,1.89-.65,2.85-.13.51.27.97.63,1.52.99.98-.79,1.96-1.57,3.1-2.48-.23-2.23-.36-4.55-.73-6.84-.38-2.39.98-4.19,1.84-6.15.39-.89,2.18-.69,2.61.19.75,1.53.24,3.49,1.78,4.81.27.23-.21,1.35-.37,2.05-.18.79-.38,1.58-.7,2.84,3.31-.72,6.13-1.18,7.25-4.48l-.07.07Zm-15.94,16.95c.23.79.42,1.43.73,2.49.95-1.06,1.58-1.77,2.25-2.52,1.19.34,2.27.65,3.19.91,2.59-3.01,3.29-7.01,6.37-9.47.61-.49.7-1.32.22-1.98-.52-.72-1.32-.52-1.99-.23-.52.22-1.18.5-1.41.94-1.22,2.35-2.43,4.66-5.04,5.78-.49,2.24-2.43,3.06-4.32,4.07Zm-12.26,16.79c.74,0,1.12.05,1.46-.03.11-.03.14-.42.17-.64,0-.02-.26-.14-.34-.1-.34.17-.65.38-1.29.78Z"/>
      <path class="cls-2" d="m116.8,118.29c-2.52,1.73-4.02,4.17-4.86,7.06-.26.89-.25.9,1.02,2.82,1.16-.83,2.32-1.65,3.44-2.45,1.27.16.44,1.2.81,1.72,2.9.27,3.21.12,3.97-1.94,1.2-3.25,2.67-3.67,5.41-1.5,1.34,1.06,2.81,1.99,3.15,3.96.13.77.95,1.43,1.57,2.29-.36.9-.64,1.88-1.13,2.74-.69,1.2-1.08,2.36-.61,3.74.51,1.5-.12,2.58-1.46,3.25-1.2.6-1.65,1.58-1.66,2.84l.09-.08c-1.51.89-2.97,1.89-4.56,2.63-1.02.48-2.22.63-3.36.8-.65.1-1.23-1.07-.91-1.66.66-1.23,1.7-2.02,2.98-2.45,1.09-.36,2.23-.54,3.49-.83-.52-2.13-1.01-4.16-1.54-6.34-1.34.5-2.43.79-3.39,1.31-.6.32-1.19.89-1.47,1.5-.92,1.97-2.49,3.61-2.91,5.87-.1.56-.87,1.01-1.64,1.84-.54-1.1-.92-1.8-1.24-2.53-.78-1.73-1.58-2.28-3.37-2.07-1.42.16-2.81.72-4.5.38-.15-1.04-.28-2-.44-3.11.55-.12.93-.29,1.32-.28,2.09.03,2.12,0,1.81-2.68-1.12,0-2.27.03-3.41,0-1.92-.06-3.74-.37-5.36-1.62-.95-.73-1.78-1.36-2.2-2.57-.42-1.2-1.22-2.26-1.9-3.45.85-1.51,2.11-2.51,3.46-3.33.84-.5,1.9-.86,2.86-.88,1.24-.02,1.48,1.2,1.86,2.15.28.7.81,1.14,1.85,1.38-.18-1.54-.43-2.82-.45-4.1-.01-1,.19-2.02.45-2.99.09-.32.62-.68.99-.72.35-.04.92.23,1.07.53.6,1.16,1.07,2.38,1.58,3.56.51.16.91.36,1.33.38.41.02.84-.14,1.55-.28-.38-1.13-.72-2.17-1.14-3.41.28-.5.64-1.13.99-1.75.68-1.21,1.59-2.23,3.08-2.09,1.52.14,2.79.84,3.29,2.47l.06-.09Zm-2.13,17.1c.27-2.05-.64-3.24-1.83-4.06-.57-.4-1.68-.35-2.41-.1-.68.23-.42,2.06.32,2.71.32.28.69.55,1.09.68.81.28,1.66.46,2.83.78Z"/>
      <path class="cls-2" d="m76.43,146.4c.77-.03,1.61-.21,1.68-1.04.12-1.48,0-2.97,1.97-3.33.21-.04.46-.4.51-.65.38-1.82.73-3.64,1.03-5.48.03-.17-.32-.48-.56-.58-.23-.1-.64-.13-.81,0-1.49,1.16-2.89,2.43-4.41,3.55-1.14.84-2.37.48-2.86-.78-1.55-3.99-1.5-4.07,2.05-5.55,3.32-1.38,6.69-1.84,10.37-.83.15,1.13.29,2.22.48,3.7,1.04-.48,1.74-.9,2.5-1.13.32-.1.89.1,1.12.37.23.27.37,1,.2,1.15-1.83,1.64-1.83,3.8-1.89,5.99-.02.68-.41,1.34-.75,2.35-1.04-.57-1.85-1.01-2.67-1.46-.98.27-1,1.08-.71,1.73.33.75.97,1.36,1.57,2.16-1.28,1.94-3.12,3.35-4.9,4.82-.26,1.76.43,3.14,1.24,4.54,1.33-.32,2.53-.61,3.65-.88,1.58,2.53,1.6,4.59-.88,6.22l.08.07c-1.25-1.21-2.68-2.16-4.08-3.15-1.87,1.76-3.54,3.33-5.16,4.86-1.36-.34-2.58-.65-4.01-1,.38-.96.68-1.73,1-2.54-.9-1.26-2.2.61-3.34-.61.03-.6.16-1.43.08-2.24-.03-.33-.5-.77-.84-.86-.34-.09-.85.11-1.14.35-.32.26-.57.7-.67,1.11-.55,2.18-2.32,3.32-3.91,4.56-1.51,1.18-3.48.78-4.6-.84-.58-.83-.95-1.8-1.54-2.98.64-.73,1.37-1.57,2.26-2.59.69.41,1.24.91,1.87,1.05.65.15,1.63.22,2.03-.14,1.6-1.46,3.15-3.01,4.51-4.69,1.49-1.85,1.99-4.16,2.24-6.52,1.21-1.04,2.41-2.06,3.81-3.27.68.5,1.51.87,1.95,1.5.66.94,1.06,2.07,1.56,3.12-.7-.37-1.41-.74-2.56-1.34.14,1.29.22,2.05.37,3.42,1-1.01,1.57-1.59,2.15-2.16Zm-2.12,3.96c-.44.52-.95.92-.89,1.09.18.46.58.85.97,1.17.05.04.82-.51.78-.66-.13-.5-.48-.94-.87-1.6Zm2.37,4.27c.11-.02.31-.05.31-.06,0-.26-.04-.52-.07-.77-.11.02-.31.05-.31.07,0,.26.04.51.07.77Z"/>
      <path class="cls-2" d="m27,163.02c.33-1.92.53-3.35.85-4.75.26-1.16.69-2.51,1.91-2.73,2.7-.5,4.13-2.44,5.44-4.44,4.3,1.87,5.19,1.98,9.09,1.11.09.85.2,1.66.25,2.48.04.72,0,1.45,0,2.37.72.87,1.54,1.86,2.55,3.08-2.95,1.36-4.96,3.3-4.65,6.93-1.05.05-1.97.34-2.65.06-1.49-.62-2.91-1.31-4.51-.44-1.35-1.69-2.47-3.11-3.78-4.75-1.3-.39-2.76.24-4.51,1.07Zm9.68.07c2.13-1.19,3.75-2.08,5.37-3.01.75-.43.84-1.12.59-1.87-.17-.49-.41-.96-.79-1.83-1.72,2.43-4.05,3.8-5.16,6.71Z"/>
      <path class="cls-2" d="m62.35,143.69c-.68.88-.66,1.88-.5,2.91.14.85.28,1.72.27,2.58,0,.94-.5,1.94-1.39,1.98-2.85.15-4.57,2.31-7.05,3.74-.48-.71-1.11-1.3-1.34-2.02-.6-1.92-1.03-3.89-1.59-6.1q1.09-2.56-.78-5.74c.56-.67,1.19-1.41,1.82-2.15.56-.66,1.11-1.33,1.64-1.97,1.63-.4,2.74,2,4.45.74l-.07.06c.57.08,1.13.16,1.7.25,1.66.25,3.06,0,4.23-1.43.6-.72,1.61-1.16,2.52-1.53.44-.18,1.22-.07,1.56.23.34.29.5,1.03.42,1.52-.31,2-1.74,3.29-3.26,4.36-1.07.75-2.17,1.39-2.71,2.65l.07-.08Zm-7.95,4.36c.81-.78,1.7-1.49,2.39-2.37.2-.26-.03-1.16-.35-1.44-.57-.51-1.35-.41-1.88.22-.25.31-.46.77-.45,1.15.04.85.23,1.69.37,2.53-.25.08-.51.14-.75.26-.09.04-.1.22-.15.34.2.03.54.14.59.06.14-.2.16-.49.23-.74Z"/>
      <path class="cls-2" d="m112.03,146.79c.32.69.55,1.21.85,1.86,1.49.13,3.06.24,4.62.4,1.84.2,2.17,2.24,3.93,3.01-.99,1.09-1.82,2.02-2.75,3.05-2.08-.44-4.03-1.87-6.22-.82.34,1.52.47,3.12,1.07,4.53,1.02,2.4.23,4.57-.37,6.81-.47,1.75-1.66,2.64-3.41,2.94-1.38.24-2.28-.39-2.37-1.81-.1-1.59-.12-3.18-.18-4.77-.07-1.73-.3-3.25-1.52-4.79-1.64-2.08-.44-4.49.5-6.6,1.02-2.28,3-3.42,5.84-3.82Z"/>
      <path class="cls-2" d="m100.27,55.63c-1.58-1.01-3-1.91-4.47-2.85.51-.57,1.06-1.36,1.77-1.94,2.71-2.2,3.05-5.1,2.6-8.28-.14-.99-.23-1.99-.34-2.98,1.64-1.44,3.28-.62,4.61-.02,1.68.76,3.16,1.99,4.63,3.15,1.35,1.07,1.49,2.53.39,3.83-.75.88-1.67,1.62-2.57,2.34-2.06,1.64-4.04,3.34-5.41,5.65-.27.45-.81.74-1.22,1.09Z"/>
      <path class="cls-2" d="m82.7,114.03c.92-1.13,1.79-2.3,2.77-3.37.85-.92,2.35-.65,2.94.48.4.76.56,1.71,1.09,2.35,2.92,3.52,1.45,7.13.32,10.73-.07.22-.45.34-.85.62-.81-.35-1.72-.75-2.54-1.1-2.34.57-4.6,1.17-6.87,1.64-1.15.24-1.18.13-2.51-1.83.04-1,1.09-.8,1.49-1.28.39-.47.42-1.24.67-2.09.81.31,1.61.63,2.4.93,2.17.82,4.04-.14,5.76-1.21.74-.46.69-1.54-.08-2.35-1.32.11-1.95,2.44-3.98,1.06.19-.82.46-1.75.62-2.69.17-1.01-.3-1.67-1.28-1.97l.06.08Z"/>
      <path class="cls-2" d="m85.29,53.08c1.29-.65,2.58-1.28,3.85-1.94,1.12-.58,2.17-.78,3.25.54-1.44,3.9-4.57,5.98-8.36,7.46-.02.41-.13.84-.04,1.22.41,1.61.69,3.36-.68,4.49-1.55,1.28-3.39,2.22-5.62,1.8-1.65-.32-3.32-.5-5.11-.76.1-.43.05-.96.29-1.16.54-.45,1.18-.89,1.85-1.06,1.75-.45,2.85-1.64,4.13-2.8,1.19-1.06,2.43-1.96,3.27-3.37.5-.84,1.35-1.48,1.94-2.28.5-.69.86-1.48,1.28-2.23,0,0-.07.09-.07.09Z"/>
      <path class="cls-2" d="m136.19,115.52c-1.32,1.13-2.83,2.1-2.15,4.32.15.49-.4,1.38-.88,1.84-.61.58-1.45.95-2.22,1.35-1.84.93-2.82,1.01-3.09.26-.46-1.25.5-1.84,1.26-2.5,1.08-.93.45-1.81-.05-2.64,1.83-2.06,3.65-4.1,5.47-6.14,0,0-.1.09-.09.09,1.69-.52,2.42-1.53,1.76-3.31-.19-.52-.21-1.11-.29-1.54.68-.75,1.26-.5,1.65-.07,1.32,1.47,2.88,2.38,4.88,2.6.66.07,1.28.58,2.07.96-.43,2.15.2,4.56-2.66,5.43-.9-1.26-1.71-2.4-2.55-3.59-1.74.55-2.63,1.6-3.19,3.02l.08-.08Z"/>
      <path class="cls-2" d="m91.57,32.71c-.5.74-.81,1.19-1.26,1.85,1.26,1.25,1.96,2.84,1.08,4.8-.62.15-1.27.31-2.25.55.4.57.61,1.12,1,1.37.7.44,1.52.7,2.48,1.13-.46,1.07-.85,1.98-1.34,3.12.66.52,1.37,1.08,2.09,1.65-.3.35-.45.7-.66.75-5.91,1.51-7.32-2.46-7.04-6.38.16-2.2.22-4.32-.15-6.5-.28-1.64.43-2.39,2.13-2.59.86-.1,1.74-.16,2.61-.18.26,0,.53.17,1.32.43Z"/>
      <path class="cls-2" d="m75.75,78.17c.16-1.56.59-3.01.39-4.36-.22-1.47-.46-2.83.33-4.48,1.89.22,3.54,1.75,5.63,1.36,1.85-.35,3.74-.46,5.84-.71.86.59,1.98,1.26,2.96,2.09.36.3.68,1.17.5,1.48-.31.54-1.01,1.16-1.58,1.19-.81.04-1.65-.44-2.48-.68-1.12-.32-2.22-.73-3.36-.88-.92-.12-1.88.35-1.97,1.34-.26,2.86-2.2,3.46-4.52,3.65-.56.05-1.13,0-1.73,0Z"/>
      <path class="cls-2" d="m155.07,45.66c2.05.51,3.65,1.45,4.92,2.93.76.88.46,2.08-.61,2.47-.14.05-.27.11-.41.13-3.72.57-7.44,1.22-11.18,1.69-2.06.26-3.12-1.08-2.9-3.3.08-.81.49-1.35,1.27-1.57.42-.12.87-.22,1.29-.18,2.85.27,5.43-.43,7.63-2.17Z"/>
      <path class="cls-2" d="m60.56,113.62c.07-1,.13-1.81.2-2.64q3.28,1.22,2.85,4.25c-.08.58-.17,1.16-.2,1.74-.06,1.3.06,2.64-.17,3.91-.23,1.27-.8,2.49-1.29,3.94-.85.18-1.81.38-3,.63-.26-1.31-.48-2.42-.74-3.7.72-1.3,1.48-2.68,2.25-4.06-1.62-.99-2.3.44-3.22,1.24-2.06-2.13-1.95-3.52.44-4.52.9-.38,1.9-.53,2.89-.79Z"/>
      <path class="cls-2" d="m99.73,142.29c-.61,2.95-4,4.09-3.73,7.23.62.64,1.15.23,1.5-.19.46-.54.76-1.22,1.15-1.82.44-.68,1.03-1.03,1.83-.68.74.32,1.17,1.49.71,2.25-.59.98-1.35,1.86-2.11,2.87-2.37-.41-4.73-.55-5.75-3.57,1.24-2.05,2.68-4.26,2.09-7.15.92-.6,1.78-1.1,2.56-1.69.65-.49,1.21-1.09,2.02-1.84.84,1.26,1.64,2.29,2.22,3.43.3.59.29,1.4.22,2.09-.03.33-.49.78-.83.86-.31.08-.78-.2-1.06-.46-.29-.27-.44-.69-.83-1.34Z"/>
      <path class="cls-2" d="m85.36,52.99c-1.6.87-3.36.4-5.04.56-1.18.11-1.81.73-2.39,1.58l.08-.07c-.92-.34-1.92-.53-2.73-1.04-1.17-.75-1.19-2.34-.05-3.24.75-.6,1.82-.82,2.06-1.96l-.08.07c2.04-.95,4.08-1.9,6.24-2.9,2.57,1.24,2.79,1.59,1.92,3.91-.4,1.09-1,2.09-.1,3.19,0,0,.08-.09.08-.09Z"/>
      <path class="cls-2" d="m160.96,78.15c-.18-.66-.38-1.2-.46-1.76-.36-2.29.3-3.38,2.56-3.46,2.26-.08,3.82-.83,4.88-2.87.55-1.05,1.86-.92,2.42.05,1.44,2.49,1.24,4.53-.76,6.21-.62.52-1.5.84-2.31.99-1.96.35-3.94.54-6.33.84Z"/>
      <path class="cls-2" d="m121.46,27.28c-1.94,1.9-2,2.07-2.9,4.66-.68,1.97-1.51,3.7-3.92,4.2-1.36.28-2.6,1.2-3.88,1.82-1.2-2.62-.42-4.8,1.79-6.39,1.75-1.27,3.68-2.3,5.6-3.31.84-.44,1.85-.57,3.32-.99Z"/>
      <path class="cls-2" d="m126.47,142.83c.66.3,1.37.53,1.97.93,2.57,1.68,2.56,1.7,5.2,1.92-.03,1.78-1.04,3.27-1.56,4.86-.38,1.15-1.45,1.77-2.7,1.97-1.95.3-3.18-.45-3.43-2.41-.18-1.42-.06-2.89.05-4.34.08-1.01.36-2,.56-3.01,0,0-.09.08-.09.08Z"/>
      <path class="cls-2" d="m83.5,40.04c-.89,2.06-2.05,2.78-3.94,1.63-.97.87-1.85,1.81-2.88,2.54-.54.39-1.34.53-2.03.56-1.2.05-2.2-1.33-1.81-2.39.81-2.22,2.62-3.72,4.01-5.53.51-.67,1.92-.52,2.8.14,1.25.94,2.46,1.93,3.86,3.04Z"/>
      <path class="cls-2" d="m129.74,29.67c2.22-.58,4.43-1.17,6.62-1.74.51,1.04-.2,1.12-.68,1.26-3.12.87-5.23,2.9-7.05,5.84,1.18.57,2.15,1.04,3.44,1.67-.47.54-.76,1.2-1.14,1.26-1.8.29-3.19,1.21-4.45,2.46-.24.24-.8.15-1.44.25-.35-1.48,1.34-1.86,1.41-3.38-.23-.35-.67-1.04-1.12-1.75.73-2.54,1.64-4.95,4.47-5.92l-.06.06Z"/>
      <path class="cls-2" d="m75.79,113.44c-.66,1.91-2.33,2.79-4.03,3.82-1.51-.68-2.44-2.83-4.6-1.76-.27.13-1.04-.75-1.67-1.24,1.64-2.81,3.38-5.03,6.58-5.3,1.28,1.54,2.46,2.96,3.73,4.47Z"/>
      <path class="cls-2" d="m100.08,112.93c-1.48-1.66-3.94-1.38-4.48-3.89,1.01-.33,1.93-.63,2.81-.91.45-1.74-1.58-.92-1.91-2.87.02-.7,1.16-1.16,2.63-1.47,1.02,1.1,2.08,2.25,3.27,3.53,1.21-.31,2.43-.62,3.82-.97.07.53.31,1.09.15,1.25-1.85,1.81-3.69,3.64-6.28,5.34Z"/>
      <path class="cls-2" d="m157.47,79.96c2.23-.28,2.84,1.56,3.81,2.91,1.7,2.36.96,4.62-.28,7.2-.56-1.97.18-4.15-2.21-5.37-.55,1.01-1,2.03-1.63,2.92-.28.39-.96.78-1.38.71-.86-.14-1.06-.97-.89-1.72.16-.69.47-1.38.85-1.99,1.52-2.41,1.56-2.44,1.74-4.68Z"/>
      <path class="cls-2" d="m64.82,59.02c-4.2.84-7.75-.24-11.34-.32-.49-.01-1.04-.49-1.43-.89-.5-.51-.98-1.22-.43-1.92.32-.4.97-.83,1.41-.77,1.72.22,3.43.54,5.1.98,1.8.47,3.56,1.1,5.32,1.72.36.13.62.54,1.36,1.2Z"/>
      <path class="cls-2" d="m59.55,133.2c.25-.33.49-.96.92-1.16,1.82-.85,3.7-1.59,5.57-2.33.75-.3,1.8.31,2.08,1.12.29.84-.2,2.15-.97,2.07-1.71-.17-2.62.85-3.71,1.84-.93.85-2.56.53-3.49-.51-.18-.2-.21-.53-.4-1.03Z"/>
      <path class="cls-2" d="m114.27,42.51c-.48-1.22-.81-2.06-1.09-2.79.35-.43.49-.75.72-.85.92-.39,1.86-.81,2.83-1.05,1.69-.43,3.36-.85,4.21-2.71.66.54,1.21.77,1.22,1.04.04.66-.03,1.41-.33,1.98-.23.45-.84.87-1.34.97-2.3.44-4.2,1.65-6.22,3.41Z"/>
      <path class="cls-2" d="m99.43,154.11c-1.59,1.81-2.7,3.56-4.49,4.86-1.11.81-1.4,2.76-2.03,4.2-.28.64-.26.65-1.91,1.76-.45-2.11.86-3.69,1.28-5.44.2-.82.5-1.81,1.1-2.31,1.53-1.29,3.24-2.36,4.91-3.47.14-.09.51.17,1.14.4Z"/>
      <path class="cls-2" d="m141.53,129.72c.29,1.33.44,2.55.84,3.68.38,1.05,1.03,2,1.67,3.22-.18.91-.69,1.65-2.07,1.14-.25-.09-.58-.07-.85.01-1.91.57-2.5.23-2.12-1.4.45-1.99,1.08-3.94,1.67-5.9.07-.22.4-.36.86-.75Z"/>
      <path class="cls-2" d="m99.53,30.79c0-3.29-.03-5.44.02-7.59.02-.85.18-1.71.36-2.54.05-.21.44-.51.64-.49.37.04.92.21,1.03.48.34.78.71,1.65.68,2.47-.06,1.73-.23,3.47-.62,5.15-.16.7-1,1.24-2.1,2.52Z"/>
      <path class="cls-2" d="m56.87,122.98c-2.61,2.01-4.97,3.83-7.41,5.71-.78-.44-.29-1.24,0-1.69,1.08-1.69,2.22-3.36,3.5-4.91,1.02-1.24,1.78-1.06,3.92.88Z"/>
      <path class="cls-2" d="m45.78,148.31c-.85.18-1.7.54-2.53.48-.56-.04-1.08-.66-1.67-1.05,4.21-4.21,3.56-4.51,6.38-4.35.74,1.78-.38,3.24-1.04,4.74-.08.18-.79.08-1.21.1.05-.13.11-.25.17-.38-.03.01-.08.02-.08.04-.01.14-.02.27-.03.41Z"/>
      <path class="cls-2" d="m48.42,78.95c1.1,0,1.98-.11,2.81.03,1.14.18,1.84,1.08,1.75,2.13-.06.74-.59,1.72-1.2,2.06-.77.43-1.84.31-2.83.43-.95-1.69-.96-3.13-.53-4.65Z"/>
      <path class="cls-2" d="m165.22,35.92c-2.67.71-5.01,1.34-7.36,1.94-.64.16-1.7-.53-1.62-1.12.07-.49.39-1.17.79-1.36,2.44-1.13,4.99-1.31,7.57-.49.2.06.29.46.62,1.03Z"/>
      <path class="cls-2" d="m147.52,121.88c-1.35,1.75-2.34,3.28-1.96,5.29.05.28-.68.84-1.14,1.02-.23.09-.82-.33-1-.65-.6-1.02-.98-2.09-.23-3.27.62-.97,1.12-2,1.83-3.29.73.26,1.44.52,2.51.9Z"/>
      <path class="cls-2" d="m74.54,121.22c-4.33,3.46-4.38,3.48-6.73,3.1,1.08-1.77,1.97-3.54,4.05-4.04.63-.15,1.45.48,2.68.94Z"/>
      <path class="cls-2" d="m135.8,158.98c1.15-4,2.85-4.95,7.73-4.87-1.85,2.66-4.44,3.62-7.73,4.87Z"/>
      <path class="cls-2" d="m72.36,97.83c-.16-3.59,2.48-4.16,4.5-5.29,1.22.37,1.41,1.46.74,1.97-.89.69-.86,2.13-2.21,2.38-.94.17-1.85.56-3.04.94Z"/>
      <path class="cls-2" d="m51.23,113.64c-.46.33-.76.71-1.12.77-2.27.43-4.52.86-6.5,2.19-.32.22-.83.23-1.24.2-.19-.01-.39-.34-.53-.56-.06-.09-.05-.3,0-.4.15-.24.32-.53.55-.65,1.69-.81,3.37-1.66,5.11-2.35,1.29-.51,2.51-.16,3.73.79Z"/>
      <path class="cls-2" d="m14.38,90.98c-1.14-.16-2.3-.27-3.42-.53-.31-.07-.72-.6-.72-.92,0-.31.41-.79.74-.9.53-.18,1.15-.22,1.7-.14,1.29.18,2.58.39,3.82.73.47.13.93.6,1.22,1.03.26.39-.71.94-1.62.86-.57-.05-1.14-.16-1.71-.25l-.02.12Z"/>
      <path class="cls-2" d="m62.2,69.04c-1.56,1.73-3.33,2.15-5.42,1.34-.74-.29-1.27-.93-.91-1.68.27-.56.91-1.19,1.49-1.31,1.37-.28,2.18.1,4.84,1.65Z"/>
      <path class="cls-2" d="m138.62,46c1.39-1.29,2.2-2.04,3.02-2.79.1-.09.26-.13.39-.18.88-.32,1.75-.27,2.37.43.32.36.54,1.03.45,1.5-.2,1.08-.98,1.87-2.07,1.85-1.11-.02-2.21-.41-4.16-.82Z"/>
      <path class="cls-2" d="m168.28,87.85c2.37-2.91,2.71-2.93,6.47-1.01-.62,1.9-1.13,2.45-2.37,2.2-1.24-.24-2.43-.7-4.1-1.2Z"/>
      <path class="cls-2" d="m105.31,97.86c-.76.31-1.61.85-2.53,1-1.36.22-2.51-.72-2.7-2.16-.06-.44.37-1.32.66-1.36.94-.14,1.97-.14,2.89.09.99.24,1.83.86,1.68,2.43Z"/>
      <path class="cls-2" d="m74,100.04c-.09.7-.05,1.25-.25,1.68-.16.34-.59.67-.96.78-.94.29-2.02.28-2.86.73-.79.42-1.35,1.27-1.97,1.9-1.24-.86-.86-1.66-.28-2.33,1.57-1.84,3.69-2.47,6.33-2.76Z"/>
      <path class="cls-2" d="m60.2,65.89c-1.59-.27-2.74-2.63-1.94-3.78.15-.22.45-.39.71-.46,1.06-.3,2.13.12,2.62.99.49.88.38,2.15-.35,2.8-.3.26-.76.34-1.04.46Z"/>
      <path class="cls-2" d="m22.71,72.63c.74-.43,1.47-.85,2.36-1.36.91.43,1.93.92,2.83,1.34.35,1.09-.65,2.64-1.76,2.64-.95,0-2.01-.26-2.8-.75-.42-.26-.38-1.27-.55-1.94,0,0-.07.06-.07.06Z"/>
      <path class="cls-2" d="m79.84,98.69c.32.28.59.42.72.65.62,1.08.74,2.23-.08,3.21-.96,1.13-2.3.91-3.57.61-.49-.11-.78-1.09-.4-1.43.64-.57,1.36-1.03,1.98-1.61.48-.45.58-1.31,1.34-1.42Z"/>
      <path class="cls-2" d="m87.86,106.52c-.37,1.29-1.1,1.66-2.07,1.5-.8-.13-1.23-.68-1.41-1.47-.19-.85-.46-1.68-.61-2.53-.04-.24.18-.52.39-1.04,1.93.62,2.6,2.4,3.71,3.55Z"/>
      <path class="cls-2" d="m152.79,91.83c1.15,3.38.98,3.68-2.82,4.68-.05-.58-.15-1.12-.14-1.66.04-2.61.05-2.61,3.03-2.95l-.07-.08Z"/>
      <path class="cls-2" d="m71.95,89.28c2.05-.34,4.11-.51,6.89-.58-1.92,2.08-4.08,2-5.74,2.87-.4.21-1.24-.45-2.11-.8.45-.67.75-1.12,1.05-1.58,0,0-.09.08-.09.08Z"/>
      <path class="cls-2" d="m90.65,103.52c-.08-.4-.4-.97-.25-1.35.57-1.44,1.81-2.24,3.23-2.66.24-.07,1.05.7,1.02,1.01-.19,1.66-2.04,3.09-4,3Z"/>
      <path class="cls-2" d="m64.89,167.2c-1.24-1.54-1.19-2.77-.53-3.95.59-1.05,1.64-1.4,2.96-1.63.32,2.43-.73,3.94-2.44,5.59Z"/>
      <path class="cls-2" d="m104.47,176.53c-2.01-1.09-3.11-2.87-3.9-4.83-.11-.28.45-.84,1.02-1.81.88,2.68,2.98,4.04,2.88,6.65Z"/>
      <path class="cls-2" d="m24.24,130.25c-1.19.84-1.88,1.55-2.71,1.83-.49.16-1.26-.29-1.8-.64-.18-.12-.17-.93.04-1.14.45-.46,1.09-1.02,1.65-1.01.77,0,1.53.49,2.82.96Z"/>
      <path class="cls-2" d="m116.74,118.39c.31-.29.6-.6.93-.87.65-.56,1.36-1.19,2.25-.6.78.52.91,2.22.19,3.1-.27.33-1.01.51-1.48.42-1.1-.22-1.52-1.17-1.83-2.14,0,0-.06.1-.06.1Z"/>
      <path class="cls-2" d="m92.96,177.73c-.29-.4-.88-.88-.98-1.44-.16-.92.46-1.63,1.3-1.96.29-.11.91.07,1.09.32.65.94.25,2.43-.69,2.95-.11.06-.27.05-.72.13Z"/>
      <path class="cls-2" d="m140.48,119.99c.08,1.88-.49,3.32-2.69,3.94-.63-1.59.24-2.78.46-4.23.93.15,1.61.26,2.3.37l-.08-.08Z"/>
      <path class="cls-2" d="m15.52,84.3c-1.08.48-2.05.92-3.23,1.44-.08-1.07-.15-2.01-.22-2.99,1.79-.54,2.46.69,3.45,1.55Z"/>
      <path class="cls-2" d="m35.09,86.46q-1.06-2.77.47-5.41c.26.09.69.11.75.27.64,1.7-.31,3.01-1.22,5.14Z"/>
      <path class="cls-2" d="m85.6,165.28c.98-.03,1.79-.31,2.2-.01,1.11.79.95,1.87.11,2.98-1.22-.31-1.79-1.18-2.31-2.97Z"/>
      <path class="cls-2" d="m65.39,121.59c.48,1.19,1.03,2.07,1.11,3,.04.47-.68,1.15-1.21,1.5-.51.33-1.28-.43-1.32-1.22-.06-1.13-.07-2.26,1.42-3.27Z"/>
      <path class="cls-2" d="m38.62,131.99c1.35-1.38,2.66-2.67,5.33-1.77-2.12,1-3.43,2.25-5.33,1.77Z"/>
      <path class="cls-2" d="m92.46,61.51c-.22-.26-.7-.59-.83-1.02-.29-.94.27-1.9,1.12-1.85.59.04,1.37.41,1.68.88.44.68-.59,1.79-1.96,1.99Z"/>
      <path class="cls-2" d="m84.37,161.29c-1.04,1.97-2.07,3.94-3.37,6.41-.28-1.06-.67-1.67-.52-2.06.77-1.9,1.87-3.57,3.96-4.28,0,0-.08-.07-.08-.07Z"/>
      <path class="cls-2" d="m121.73,161.17c.28-.05.58-.19.82-.12.79.23,1.55.53,2.44.84-.16.47-.18.95-.43,1.19-.68.67-1.54.72-2.32.19-.74-.51-1.21-1.2-.51-2.11Z"/>
      <path class="cls-2" d="m72.03,89.19c-.43-.02-.87,0-1.28-.08-.83-.17-1.2-.72-1.05-1.56.18-.99,1.08-1.64,1.83-1.31.79.35.92,1.01.73,1.78-.1.42-.21.83-.32,1.25,0,0,.09-.08.09-.08Z"/>
      <path class="cls-2" d="m156.42,72.67c.13-1.54,1.02-2.59,1.85-3.87,1.17,2.09.58,3.19-1.85,3.87Z"/>
      <path class="cls-2" d="m72.29,129.55c-.85-1.52-.9-2.52.23-3.35.31-.23.84-.43,1.15-.31.69.26.59.89.26,1.4-.43.68-.94,1.31-1.63,2.26Z"/>
      <path class="cls-2" d="m147.32,136.98c-.42-.23-.85-.35-.87-.5-.04-.37,0-.94.22-1.1.57-.39,1.24-.66,1.91-.81.27-.06.7.27.94.53.11.12,0,.64-.16.74-.68.45-1.43.81-2.05,1.14Z"/>
      <path class="cls-2" d="m84.69,152.19c-.43.49-.8,1.08-1.32,1.46-.22.16-.8-.08-1.14-.28-.17-.09-.25-.53-.2-.76.1-.41.24-.91.54-1.15.39-.31.95-.51,1.44-.52.18,0,.37.67.67,1.25Z"/>
      <path class="cls-2" d="m98.56,167.67c-.7.67-1.36,1.4-2.13,1.98-.24.18-.87.1-1.14-.11-.27-.2-.47-.74-.4-1.06.08-.33.51-.78.81-.8.96-.07,1.94.03,2.91.07l-.05-.08Z"/>
      <path class="cls-2" d="m163.29,130.91c-.24.14-.66.57-1.08.58-.76,0-1.32-.52-1.32-1.32,0-.76.47-1.31,1.26-1.42.75-.11,1.31.79,1.14,2.16Z"/>
      <path class="cls-2" d="m35.95,118.91c-.06.26-.04.68-.2.76-.61.31-1.26.56-1.92.69-.14.03-.64-.66-.57-.85.41-1,1.54-1.39,2.43-.93.11.06.17.21.25.32Z"/>
      <path class="cls-2" d="m66.98,40.02c-1.74-1.18-2.74-1.86-3.95-2.68,2.87-.56,2.93-.53,3.95,2.68Z"/>
      <path class="cls-2" d="m149.96,66.95c1.1.1,1.66.82,1.32,1.53-.19.39-.82.57-1.25.85-.29-.45-.78-.89-.8-1.35-.02-.38.53-.78.72-1.02Z"/>
      <path class="cls-2" d="m46.64,70.44c-2.61-.09-2.88-1.79-3.49-3.21,1.37.49,1.41.46,3.49,3.21Z"/>
      <path class="cls-2" d="m37.43,140.49c.32-.25.62-.53.96-.74.68-.42,1.23-1.25,2.21-.74.1.05.2.22.21.33.02,1.12-.91,1.32-1.67,1.6-.48.18-1.04.16-1.56.23-.05-.23-.11-.45-.16-.68Z"/>
      <path class="cls-2" d="m57.28,42.41c.05-1.57,1.01-1.44,1.79-1.31.48.08.91.51,1.32.83.04.03-.2.6-.31.6-.94,0-1.87-.07-2.8-.13Z"/>
      <path class="cls-2" d="m120.44,45.32c-.73.41-1.3.96-1.57.84-.41-.18-.84-.84-.82-1.28.02-.44.57-.87.9-1.3.42.49.85.98,1.5,1.74Z"/>
      <path class="cls-2" d="m56.44,80.05c-.99-.66-1.57-.99-2.07-1.41-.15-.12-.2-.56-.1-.73.11-.18.48-.35.7-.31.9.17,1.5.67,1.47,2.45Z"/>
      <path class="cls-2" d="m76.9,116.57c.67.47,1.1.78,1.53,1.09-.36.37-.68.98-1.08,1.03-.41.06-.9-.42-1.36-.67.26-.42.52-.84.91-1.46Z"/>
      <path class="cls-2" d="m5.53,115.7c-.5.61-.98,1.25-1.53,1.81-.12.12-.59.03-.77-.12-.16-.13-.29-.61-.19-.72.53-.61,1.14-1.15,1.73-1.71.26.24.52.49.78.73Z"/>
      <path class="cls-2" d="m76.43,33.22c.79-.17,1.57-.38,2.37-.49.14-.02.46.39.46.6,0,.22-.29.62-.46.63-.78.02-1.56-.08-2.34-.14-.01-.2-.02-.4-.04-.6Z"/>
      <path class="cls-2" d="m63.69,94.83c-.75.85-1.04,1.47-1.42,1.53-.36.06-1.04-.41-1.16-.78-.2-.62.69-1.49,1.25-1.35.39.09.75.33,1.33.6Z"/>
      <path class="cls-2" d="m60.61,105.65c-.81.39-1.34.87-1.68.76-.4-.13-.81-.73-.91-1.19-.13-.58.28-1.27.92-1.09.53.15.92.81,1.67,1.52Z"/>
      <path class="cls-2" d="m62.27,143.77c.94.03,1.89.07,2.83.1l-.08-.07c.04.43.15.87.09,1.28-.13.88-.94,1.3-1.45.73-.55-.61-.89-1.41-1.32-2.13,0,0-.08.08-.08.08Z"/>
      <path class="cls-2" d="m54.19,103.01c-.3.31-.66.75-1.1,1.09-.15.12-.6.07-.74-.07-.16-.16-.25-.6-.14-.75.32-.44.72-.84,1.15-1.17.11-.08.5.15.72.29.08.05.05.27.1.62Z"/>
      <path class="cls-2" d="m147.44,73.5c-.28.43-.43.86-.73,1.06-.47.31-1.12-.26-.99-.92.07-.34.43-.83.71-.87.28-.03.61.42,1.01.73Z"/>
      <path class="cls-2" d="m151.47,73.61c-.41.49-.6.94-.92,1.05-.65.23-1.1-.18-1.21-.81-.11-.6.03-1.28.78-1.2.44.04.83.57,1.36.96Z"/>
      <path class="cls-2" d="m40.94,58.11c-.69.32-1.14.66-1.6.68-.26,0-.54-.53-.81-.82.42-.32.81-.74,1.29-.9.18-.06.57.5,1.13,1.03Z"/>
      <path class="cls-2" d="m158.64,56.98c-.46-.2-1.01-.31-1.36-.64-.22-.2-.15-.72-.21-1.09.27.03.61-.04.78.11.41.35.73.79,1.08,1.19-.1.14-.19.28-.29.43Z"/>
      <path class="cls-2" d="m120.01,157.19c-.55.5-.91,1.02-1.11.96-.45-.12-.83-.53-1.24-.82.26-.29.53-.83.77-.82.46.02.9.36,1.58.67Z"/>
      <path class="cls-2" d="m12.48,93.14c-.6.07-1.12.22-1.59.13-.21-.04-.31-.59-.47-.91.53-.06,1.07-.17,1.6-.16.11,0,.22.43.46.94Z"/>
      <path class="cls-2" d="m41.73,77.57c-.54.49-.83.76-1.13,1.03-.32-.42-.72-.81-.89-1.29-.05-.14.61-.79.77-.73.43.16.76.58,1.25.99Z"/>
      <path class="cls-2" d="m22.17,4.41c.71-.26,1.42-.51,2.13-.77.38,1.07-.26,1.18-.75,1.32-.38.11-.79.08-1.19.11-.06-.22-.13-.44-.19-.66Z"/>
      <path class="cls-2" d="m44.51,122.25c-.46-.26-.8-.34-.89-.53-.27-.57.29-1.23,1.18-1.35.21-.03.46.2.69.31-.33.52-.65,1.05-.98,1.57Z"/>
      <path class="cls-2" d="m77.94,55.12c.85.04,1.71.05,2.55.15.15.02.4.46.35.63-.07.2-.49.49-.61.43-.76-.38-1.48-.85-2.21-1.28,0,0-.08.08-.08.08Z"/>
      <path class="cls-2" d="m35.44,59.68c-.21.52-.34.97-.41.96-.49-.05-.96-.21-1.45-.32.09-.24.17-.67.29-.68.48-.06.97.01,1.56.04Z"/>
      <path class="cls-2" d="m150.17,34.09c-.47.34-.87.66-1.32.89-.09.05-.36-.27-.55-.42.37-.34.73-.7,1.14-.99.06-.04.36.25.73.52Z"/>
      <path class="cls-2" d="m110.05,18.92c-.35.32-.62.58-.9.84-.22-.29-.68-.71-.61-.85.22-.42.65-.72,1-1.07.16.34.32.67.51,1.08Z"/>
      <path class="cls-2" d="m62.93,105.66c.35.54.71,1.07,1.04,1.63,0,.01-.52.37-.53.35-.41-.49-.78-1-1.16-1.51.22-.16.44-.31.66-.47Z"/>
      <path class="cls-2" d="m30.26,85.76c-.89-.07-1.41-.8-1.21-1.59.05-.22.31-.49.52-.54.65-.16,1.45.57,1.33,1.27-.06.34-.45.62-.64.85Z"/>
      <path class="cls-2" d="m126.69,169.23c-.29-.68-.66-1.19-.55-1.35.29-.4.79-.65,1.21-.96.19.33.63.76.54.95-.2.45-.66.78-1.2,1.36Z"/>
      <path class="cls-2" d="m66.3,93.17c.47.69.85,1.06.95,1.5.04.18-.54.73-.78.69-.3-.05-.69-.48-.77-.81-.06-.28.26-.65.59-1.39Z"/>
      <path class="cls-2" d="m152.86,91.91c.18-.36.31-.75.55-1.06.14-.18.46-.3.69-.28.15.01.43.37.39.48-.07.22-.3.44-.52.53-.37.14-.78.18-1.18.26,0,0,.07.08.07.08Z"/>
      <path class="cls-2" d="m155.42,139.32c-.32.21-.62.54-.93.55-.19,0-.41-.46-.62-.72.34-.16.66-.37,1.02-.43.11-.02.3.33.53.6Z"/>
      <path class="cls-2" d="m161.21,135.57c-.28.19-.59.4-.9.61-.13-.32-.44-.74-.33-.94.14-.26.61-.34.94-.49.08.24.17.48.29.82Z"/>
      <path class="cls-2" d="m78.68,113.98c-.32-.25-.66-.46-.89-.75-.06-.08.24-.43.37-.66.34.2.68.4,1.02.6-.14.22-.28.45-.5.81Z"/>
      <path class="cls-2" d="m32.46,131.61c.21.25.45.54.68.82-.32.17-.7.52-.95.45-.26-.08-.39-.58-.57-.89.24-.11.47-.21.84-.38Z"/>
      <path class="cls-2" d="m37.53,127.57c.58-.78.76-1.11,1.02-1.33.14-.13.43-.09.65-.13-.07.23-.08.53-.24.67-.25.22-.59.34-1.43.79Z"/>
      <path class="cls-2" d="m56.11,63.89c-.16.18-.3.48-.47.5-.2.01-.42-.22-.64-.35.16-.19.31-.5.48-.52.19-.02.41.24.62.37Z"/>
      <path class="cls-2" d="m63.93,77.88c-.11-.22-.21-.44-.31-.66.12-.05.34-.15.36-.13.13.2.23.43.33.64-.12.05-.25.09-.37.14Z"/>
      <path class="cls-2" d="m27.6,122.18c.16.24.29.43.41.62-.35.16-.69.33-1.04.46-.06.02-.19-.16-.29-.25.3-.27.61-.55.92-.83Z"/>
      <path class="cls-2" d="m155.94,128.64c-.2.16-.41.31-.61.47-.15-.33-.31-.65-.46-.98.25-.06.55-.25.73-.16.18.09.23.44.34.67Z"/>
      <path class="cls-2" d="m91.38,145.55c-.06.43-.06.88-.2,1.28-.08.22-.4.35-.6.51-.06-.35-.29-.8-.15-1.03.2-.32.67-.48,1.03-.7,0,0-.07-.06-.07-.06Z"/>
      <path class="cls-2" d="m91.81,153.91c-.8-.69-.79-1.37,0-2.06.88.69.74,1.37,0,2.06Z"/>
      <path class="cls-2" d="m53.12,156.78c.19.11.41.25.64.38-.23.25-.46.5-.68.75-.18-.19-.5-.39-.5-.58,0-.18.34-.36.54-.54Z"/>
      <path class="cls-2" d="m50.38,159.08c-.1.22-.15.34-.2.46-.34-.19-.68-.35-.99-.58-.04-.03.17-.39.27-.59.31.24.63.48.92.71Z"/>
      <path class="cls-2" d="m98.61,167.74v-2.71c.19.02.39.05.58.07-.22.85-.43,1.7-.64,2.55,0,0,.06.08.06.08Z"/>
      <path class="cls-2" d="m63.56,177.94c-.2-.14-.48-.25-.56-.44-.05-.12.21-.36.32-.55.19.14.48.24.55.42.05.14-.2.38-.31.57Z"/>
      <path class="cls-2" d="m67.2,177.87c-.16-.34-.38-.64-.44-.98-.02-.1.54-.43.58-.39.26.24.44.56.65.85-.22.14-.43.29-.79.52Z"/>
      <path class="cls-2" d="m93.72,32.25c.16-.17.31-.34.47-.51.13.19.28.38.36.59.02.06-.19.3-.23.29-.21-.1-.41-.24-.61-.36Z"/>
      <path class="cls-2" d="m77.3,48.81c-.26-.12-.58-.19-.77-.39-.13-.14-.09-.45-.12-.69.22.1.54.14.64.31.14.23.12.55.17.84,0,0,.08-.07.08-.07Z"/>
      <path class="cls-2" d="m35.5,62.93c-.04.1-.06.25-.14.29-.08.04-.21-.03-.32-.05.07-.16.14-.31.22-.47.08.08.16.15.24.23Z"/>
      <path class="cls-2" d="m50.87,63.2c-.2.15-.4.41-.6.41-.19,0-.37-.29-.56-.45.2-.16.4-.45.6-.45.19,0,.37.31.56.48Z"/>
      <path class="cls-2" d="m84.69,67.29c-.19.14-.38.28-.57.42-.08-.11-.23-.31-.21-.33.17-.16.37-.3.56-.44.08.12.15.23.23.35Z"/>
      <path class="cls-2" d="m18.37,72.53c-.28-.32-.6-.61-.81-.98-.08-.15.12-.45.19-.68.19.15.52.28.56.46.07.41,0,.85-.01,1.27l.07-.08Z"/>
      <path class="cls-2" d="m49.8,164.91c.05-.1.08-.26.15-.29.07-.03.2.08.3.13-.05.1-.1.2-.14.3l-.3-.14Z"/>
      <path class="cls-2" d="m47.35,164.71c.1.22.34.53.27.65-.11.19-.43.25-.67.37-.09-.23-.32-.51-.25-.68.07-.17.42-.23.64-.34Z"/>
      <path class="cls-2" d="m152.08,87.6c.05-.12.1-.24.16-.36.16.1.32.2.48.29-.1.08-.2.22-.31.23-.1.01-.21-.11-.32-.17Z"/>
      <path class="cls-2" d="m44.76,137.62c.07.13.2.26.18.38-.03.37-.12.73-.19,1.1-.25-.07-.5-.13-.75-.2.14-.35.26-.72.43-1.06.05-.1.25-.11.39-.16,0,0-.07-.07-.07-.07Z"/>
      <path class="cls-2" d="m154.85,102.3c-.05.1-.07.25-.14.27-.07.02-.24-.06-.27-.13-.03-.07.07-.19.12-.28.1.05.19.09.29.14Z"/>
      <path class="cls-2" d="m91.56,109.02c.02.22.05.44.04.66,0,.03-.24.04-.36.06-.02-.22-.05-.45-.04-.67,0-.02.24-.04.36-.05Z"/>
      <path class="cls-2" d="m152.47,127.82c.13-.05.26-.16.37-.13.09.02.16.18.24.28-.2.08-.39.16-.59.24,0-.13-.02-.26-.02-.39Z"/>
      <path class="cls-2" d="m13.12,126.97c.24.08.47.16.71.25-.11.18-.19.5-.33.52-.22.04-.48-.12-.72-.19.11-.19.23-.39.34-.58Z"/>
      <path class="cls-2" d="m54.92,112.28c-.13.21-.27.41-.4.61-.17-.14-.34-.28-.49-.43-.01-.01.15-.27.24-.28.21-.01.43.06.64.1Z"/>
      <path class="cls-2" d="m140.56,120.06c.11-.22.22-.46.35-.67.06-.1.18-.16.28-.24,0,.16.05.39-.04.47-.18.16-.44.24-.66.36,0,0,.08.08.08.08Z"/>
      <path class="cls-2" d="m123.67,117.55c0,.13,0,.26,0,.39-.18-.07-.36-.13-.54-.2.07-.11.12-.26.22-.3.07-.03.21.07.32.12Z"/>
      <path class="cls-2" d="m136.11,115.6c.24.1.48.18.7.31.09.05.11.21.16.32-.19.01-.49.1-.55.02-.14-.2-.16-.47-.23-.72,0,0-.08.08-.08.08Z"/>
      <path class="cls-2" d="m82.64,113.95c-.34.14-.68.28-1.02.42,0-.19-.02-.37-.02-.56.37.07.73.14,1.1.22,0,0-.05-.08-.05-.08Z"/>
      <path class="cls-2" d="m135.06,125.69c-.08.08-.16.16-.24.24-.06-.1-.18-.2-.17-.29,0-.09.14-.16.22-.24.06.1.12.19.18.29Z"/>
      <path class="cls-2" d="m54.85,128.26c-.1.04-.21.08-.31.12-.03-.1-.12-.24-.09-.3.05-.08.19-.09.3-.13.03.1.07.21.1.31Z"/>
      <polygon class="cls-2" points="83.3 111.26 83.06 111.07 83.35 110.93 83.3 111.26"/>
      <path class="cls-2" d="m72.1,104.95c.1.04.2.09.3.13-.06.1-.09.25-.18.29-.06.03-.19-.07-.29-.12.06-.1.12-.2.18-.3Z"/>
      <polygon class="cls-2" points="52.92 100.08 52.74 99.92 52.97 99.82 52.92 100.08"/>
      <path class="cls-2" d="m57.88,137.67c-.2-.42-.39-.84-.59-1.26.2-.03.39-.05.59-.08-.02.47-.04.94-.07,1.41,0,0,.07-.06.07-.06Z"/>
      <path class="cls-2" d="m44.83,137.69c.14-.34.27-.67.13-.31.25-.31.03-.03-.19.24,0,0,.07.07.07.07Z"/>
      <polygon class="cls-2" points="10.5 99.85 10.33 100.07 10.21 99.8 10.5 99.85"/>
      <path class="cls-2" d="m140.97,141.05c-.09.19-.11.37-.2.41-.08.04-.23-.07-.35-.12.17-.09.33-.18.56-.29Z"/>
      <path class="cls-2" d="m107.92,91.98c.11-.04.22-.09.34-.13,0,.19.02.37.02.56-.12-.03-.27-.03-.33-.11-.06-.06-.02-.21-.03-.32Z"/>
      <path class="cls-2" d="m31.5,142.57c-.25,0-.39.03-.5-.02-.04-.02-.01-.21-.02-.32.14.09.28.19.52.34Z"/>
      <polygon class="cls-2" points="26.69 150.52 26.5 150.75 26.39 150.47 26.69 150.52"/>
      <polygon class="cls-2" points="129.86 158.65 130.1 158.88 129.81 158.96 129.86 158.65"/>
      <path class="cls-2" d="m18.3,72.61c.42.04.84.06,1.25.13.09.02.22.31.21.32-.18.15-.5.42-.55.38-.31-.27-.56-.6-.84-.91,0,0-.07.08-.07.08Z"/>
      <polygon class="cls-2" points="161.05 66.59 160.73 66.63 160.87 66.34 161.05 66.59"/>
      <path class="cls-2" d="m60.01,173.57c.17-.1.35-.19.52-.29.04.11.13.3.1.33-.15.13-.34.21-.52.31-.03-.12-.07-.23-.1-.35Z"/>
      <path class="cls-2" d="m91.82,179.62c.09.09.27.22.25.28-.08.22-.22.41-.33.62-.08-.22-.18-.44-.22-.67,0-.06.19-.15.3-.23Z"/>
      <path class="cls-2" d="m154.7,65.36c-.12.05-.23.09-.35.14-.04-.11-.15-.27-.11-.33.05-.08.22-.1.33-.14.04.11.08.22.12.33Z"/>
      <polygon class="cls-2" points="41.91 61.05 42.17 61.3 41.86 61.39 41.91 61.05"/>
      <path class="cls-2" d="m94.77,56.29c-.11.06-.21.17-.31.17-.09,0-.17-.14-.25-.22.18.02.37.03.55.05Z"/>
      <polygon class="cls-2" points="82.99 36.21 82.93 35.94 83.13 35.98 82.99 36.21"/>
      <path class="cls-2" d="m129.8,29.62c-.02-.36-.03-.72,0-.13.14-.56.05-.19-.05.19,0,0,.06-.05.06-.05Z"/>
      <path class="cls-2" d="m30.7.37c-.12.05-.24.11-.36.16-.04-.13-.15-.28-.12-.37.04-.09.22-.11.35-.16l.13.37Z"/>
      <path class="cls-2" d="m91.46,145.61l.05-.73c-.04.22-.08.44-.12.67,0,0,.08.06.08.06Z"/>
      <polygon class="cls-2" points="33.84 144.12 34.16 144 34.13 144.29 33.84 144.12"/>
      <path class="cls-2" d="m65.1,143.88c.06-.23.12-.47.18-.7,0,.1.06.23.02.31-.06.12-.18.21-.28.32,0,0,.08.07.08.07Z"/>
      <polygon class="cls-2" points="92.36 114.16 92.36 114.41 92.11 114.28 92.36 114.16"/>
      <polygon class="cls-2" points="58.4 110.26 58.51 110.59 58.21 110.53 58.4 110.26"/>
      <polygon class="cls-2" points="54.54 91.56 54.27 91.4 54.56 91.29 54.54 91.56"/>
      <path class="cls-2" d="m22.79,72.57c-.16-.18-.31-.37-.47-.55.13.2.26.41.39.61,0,0,.07-.06.07-.06Z"/>
      <path class="cls-2" d="m123.79,49.78l-.2-.58c.05.09.12.18.14.27.02.12,0,.25,0,.37,0,0,.07-.06.07-.06Z"/>
      <polygon class="cls-2" points="83.94 29.3 84.04 29.62 83.75 29.57 83.94 29.3"/>
    </g>
  </g>
</svg>