<?xml version="1.0" encoding="UTF-8"?>
<svg id="Layer_2" data-name="Layer 2" xmlns="http://www.w3.org/2000/svg" viewBox="0 0 191 279.4">
  <defs>
    <style>
      .cls-1 {
        fill: #91ced0;
      }

      .cls-2 {
        fill: #3e3f44;
      }
    </style>
  </defs>
  <g id="stair-growth">
    <path class="cls-2" d="m144.76,205.27l-.51-.42v-43.33h-46.56l-.19-.21v-43.54h-46.75v.54c-.41-.18-.82-.36-1.23-.54h1.23v-43.75H1.45L0,251.59h191v-46.32h-46.24Z"/>
    <g>
      <path class="cls-1" d="m151.7,110.82c2.33,2.73,5.41,2.39,8.52,2.22,4.13-.22,8.14.12,11.93,3.81-6.05,3.49-12.59.13-18.33,2.77.13,3.67,3.33,4.33,5.14,6.07,2.8,2.7,3.83,5.53,1.4,9.75-1.02-1.42-1.71-2.39-2.42-3.38-3.64-.29-6.56,1.48-9.42,3.39-4.5-4.56-4.46-4.49-8.74-1.84-1.34.83-3.02,1.74-4.47,1.64-4.17-.29-7.06-2.59-10.91-7.91,2.45-.2,4.73-.39,7.01-.59.39.48.69,1.09,1.19,1.39.36.22.97.03,1.47.02-.31-.43-.54-1.08-.96-1.24-.52-.19-1.19.02-1.79.05q-7.63-5.66-16.55.13c.16.64.11,1.54.52,1.88,3.32,2.77,5.41,6.98,10.43,7.85,1.75.31,2.95,4.59,4.58,4.71,3.74.3,5.97,2.55,8.84,4.21,3.04,1.77,6.77,2.33,10.07-.79-3.09-2.73-6.95-4.15-6.56-9.28,2.01-.17,3.99-.33,5.98-.49.04,3.02,1.33,5.23,3.93,6.79,1.96,1.18,3.77,2.6,5.66,3.92-2.54,3.73-7.91,1.85-9.26,6.21.53,2.49,2.78,1.53,4.27,2.46.13,2.55-1.25,4.22-4.12,5.6-1.06-.88-2.26-2.01-3.58-2.97-3.31-2.37-6.38-5.76-10.07-6.76-7.73-2.11-12.63-7.66-18.08-12.69-.25-.23-.59-.35-1.51-.87-.97.99-2.37,1.94-3.1,3.27-1.65,3-2.97,6.18-4.71,9.93,2.15.81,3.89,1.72,5.74,2.08,1.81.36,3.05,1.02,4.05,2.67.59.97,1.98,2.1,2.96,2.05,2.24-.1,4.2-1.81,6.81-.37,1.56.86,3.8.45,5.69.61-.04,1.64-.07,2.97-.11,4.67,4.67,1.28,9.31,2.43,13.87,3.86,1.52.48,2.81,1.68,4.21,2.55l.08-.21c-2.43,1.79-6.29-.55-8.33,2.75,1.67,3.55,5.15,1.25,7.37,2.69,1.93,1.25,3.97,2.32,6.02,3.51-1.14,2.9-2.93,5.67-.05,9.42-2.14.25-3.72.58-5.3.6-4.31.05-7.95,1.87-11.4,4.2-1.89,1.28-1.89,4.05.05,5.23,2.04,1.23,4.41,1.95,6.29,3.37,1.46,1.1,2.37,2.94,4.34,5.52-3.54.07-5.71.12-8.61.18.4,1.81.74,3.36,1.08,4.91l.09-.24c-1.83.34-3.13,1.11-3.2,3.29-.12,4.1-.35,8.19-.58,13.13,1.67,2.98,4.41,4.72,8.85,3.63,2.25-.55,4.75-.45,7.09-.21,3.19.33,4.44,1.69,3.48,5.61-.76,3.1,2.39,4.05,2.07,6.96-1.89.84-4.12,1.57-6.07,2.76-1.73,1.05-3.16,2.61-4.65,3.89-2.73-.66-5.32-1.28-8.46-2.03,2.13-2.01,4.19-3.95,6.08-5.73-.16-2.91-.4-5.51-3.39-6.04-3.07-.54-4.74-2.44-6.15-4.95-2.84-5.05-5.75-10.06-8.73-15.26-6.72-.27-6.67-.31-11.41-5.71-2.94-3.36-6.05-6.56-9.09-9.83-.23-.25-.53-.56-.82-.6-1.62-.21-3.38-.79-4.81-.33-.91.29-1.76,2.09-1.9,3.31-.5,4.44-.55,8.92-1.08,13.35-.19,1.58-1.25,3.05-1.73,4.17-3.42,1.38-5.06-.78-6.94-2.11-3.62-2.56-7.27-5.08-10.74-7.84-1.82-1.45-3.31-3.32-4.87-5.08-2.52-2.84-4.37-2.67-7.16.71-.42.51-.91.95-1.37,1.43q-7.38-2.92-14.47-17.01c-.51.37-1.42.69-1.48,1.11-.47,3.72-.85,7.29-2.37,10.94-1.91,4.57-4.18,9.62-1.31,14.85.14.25.13.79-.05.96-.92.95-1.78,2.3-2.91,2.62-1.51.43-2.72-.87-2.57-2.42.33-3.43.84-6.86,1.56-10.22,1.22-5.7,2.68-11.35,3.95-17.04.12-.52-.48-1.21-1.06-2.55-1.39.99-2.69,1.8-3.84,2.78-1.62,1.37-3.21.64-4.83.13l.23.09c-3.29-1.72-6.57-3.45-10.76-5.64-.04-1.71-.1-4.35-.17-7.65-1.08-1-2.52-2.42-4.04-3.75-1.45-1.28-2.97-2.47-4.37-3.62,1.57-2.72,3.37-1.33,4.92-1.39,3.79-.14,4.78-1.26,4.87-4.97.07-3.21-.64-6.1-2.48-8.78-1.1-1.6-1.83-3.47-2.72-5.21q8.59-4.31,11.32-11.7c-2.66-2.2-5.33-4.82-8.39-6.85-5.41-3.59-11.07-6.81-16.61-10.2-.88-.54-1.98-.99-2.47-1.8-.63-1.06-1.08-2.46-.96-3.65.06-.63,1.44-1.5,2.31-1.61,7.2-.94,13.49,1.47,19.08,5.87,1.87,1.47,3.24,3.63,5.16,5.02,1.51,1.09,3.52,1.49,6.01,2.47.82-5.79,2.15-10.69,1.19-15.9-.44-2.37-.64-4.8-.76-7.21-.26-5.61,1.68-10.64,6.61-13.09,3.48-1.73,4.46-4.94,6.87-7.72,4.36.95,6.8,3.93,9.02,7.56,1.94,3.18,4.51,5.97,7.01,9.19,1.97-1.56,3.86-3.44,6.08-4.71,2.05-1.17,4.47-1.67,6.72-2.49,2.53-.92,5.05-1.86,7.84-2.89,4.77,3.58,8.4,9.01,14.6,10.24,1.66-2.33.68-3.79-.76-4.76-2.25-1.53-4.81-2.6-7.01-4.18-.91-.66-1.24-2.14-2.02-3.59,7.1-2.01,10.91,2.67,14.94,5.98,4.02,3.3,8.6,6.59,9.25,13.83-3.58-1.45-6.25-2.53-9.45-3.83-.19,6.05-.09,11.13,2.41,15.86-1.93-1.36-4.12-2.46-5.74-4.12-3.56-3.66-6.68-7.76-10.25-11.42-6.76-6.93-8.9-6.62-13.62,1.59-.67,1.17-1.24,2.41-2.1,4.09,4.96,4.21,6.83,9.91,7.32,16.15.1,1.23-.28,2.58-.71,3.77-1.57,4.29-1.52,5.8,2.08,7.16,3.43,1.3,5.6,3.42,7.4,6.36.25.41,1.23.38,2.07.6.74-.41,1.77-.74,2.45-1.42,1.17-1.17,2.13-2.57,3.36-4.09-2.91-3.36-5.14-6.8-8.98-8.62l.19.13c-.49-1.46-.97-2.92-1.59-4.76q4.81.89,12.71,8.41c-1.3-6.04,2.3-8.19,4.7-11.2.52-.65.29-1.91.41-2.89,5.08-.99,8.55-4.01,10.82-8.61,1.81-3.66,3.7-7.28,5.7-11.19-1.88-1.73-3.32-3.14-4.85-4.44-1.56-1.33-3.52-2.3-4.74-3.87-4.34-5.57-7.83-11.8-13.82-15.99-2.43-1.7-2.44-4.85-2.22-7.63.2-2.55,1.5-4.41,4.47-5.41,2.66,5.39,5.47,10.41,10.64,13.56,1.33.81,2.25,2.57,2.97,4.09,2.5,5.32,5.8,10,10.75,14.29.98-1.28,2.23-2.4,2.83-3.81,1.6-3.75,2.93-7.61,4.38-11.47-3.61-2.38-17.22-15.74-21.26-21.18,8.7,5.11,17.55,7.87,23.32,15.47,2.71.17,3.64-1.86,4.14-3.79,1.04-3.99,1.5-8.14,2.62-12.1,1.57-5.55,2.35-11.76,9.07-13.96,0,0-.23-.12-.23-.12,1.83,6.19,7.94,6.93,12.28,9.34.36,2.95-1.36,3.67-3.06,3.61-3.06-.11-6.1-.68-9.36-1.09-1.38,3.34-4.38,6.32-1.59,10.89,4.24-.36,8.62-1.22,12.94-.96,4,.24,7.93,1.66,11.91,2.57.83,1.93-.56,2.61-1.89,2.67-5.8.3-11.61.35-17.41.59-3.02.12-6.03.42-10.01.72,1.07,2.18,1.51,3.83,2.53,4.91.87.92,2.38,1.41,3.69,1.7,8.37,1.81,14.7,6.86,20.61,12.75-.64.58-1.2,1.42-1.53,1.34-5.8-1.55-11.9-2.03-17.14-5.55-3.36-2.25-3.54-1.99-11.22-2.42-2.31,3.4-5.2,6.73-6.33,12.05,2.29.31,4.23.97,6.07.75,9.18-1.15,17.44,1.63,26.24,5.86-2.82,3.18-6.65,3.74-9.86,5.07-3.44,1.43-7.24,1.99-10.88,2.94-.92-.15-1.84-.36-2.76-.44-.23-.02-.49.36-.73.55.37.37.88,1.13,1.09,1.05.87-.32,1.64-.89,2.45-1.37Zm-93.33,45.12c2.69-2.1,5.23-3.79,7.4-5.87,1.9-1.81,2.2-4.3.95-6.67-2.91-5.51-6.66-10.27-12.48-13.93-2.61,2.9-6.93,4.36-7.41,8.2-.59,4.71-2.7,8.32-4.92,12.22-1.06,1.87-1.3,4.84-.66,6.92.78,2.55,3.03,4.45,6,4.37.7-.58,1.51-.9,1.67-1.44.82-2.59,1.47-5.24,2.27-8.2,2.04,1.25,4.01,2.46,7.16,4.39Zm76.85,24.55c1.6-6.99-1.05-11.7-7.03-14.54-5.38-2.56-10.76-4.02-16.41,1.45,2.02.72,3.82.91,4.94,1.88,1.49,1.29,2.29,3.36,3.68,4.82,5.66,5.93,11.22,12.19,20.66,10.56.34-.06.56-.83.97-1.5-1.92-.75-3.79-1.49-6.81-2.67Zm-55-33.64c-2.06-.18-4.27-.38-6.31-.57-1.02,5.39-1.96,10.06-2.76,14.75-.31,1.8.14,3.41,2.68,4.14,3.55-3.14,8.51-5.03,10.36-10.45.26-.75,2.21-1.32,3.34-1.27,2.45.12,4.27-1.03,4.66-3.08.25-1.32-1.03-3.06-1.9-4.43-.52-.82-1.49-1.52-2.4-1.87-1.53-.57-3.39-1.46-4.71-1.01-1.24.42-1.96,2.41-2.96,3.78Zm6.59,19.91c6.59,1,11.3,7.54,18.07,5.52.3-1.29.74-2.04.57-2.58-1.68-5.15-7.24-5.62-10.25-9.49-3.15,2.46-5.77,4.51-8.38,6.55Zm39.71,22.78c-2.51,2.83-4.11,3.87-4.5,5.25-.63,2.23-1.12,4.9-.47,7.01.99,3.18,3.69,4.72,7.43,3.97,2.28-5.16-1.68-9.11-2.46-16.23Zm-60.12-10c2.12,2.69,3.65,4.87,5.48,6.77.4.41,1.89-.06,2.77-.41.28-.11.47-1.53.28-1.65-2.9-1.78-1.32-3.08.27-4.63,1.1-1.08,1.11-2.73-.22-3.52-.97-.58-2.62-.74-3.64-.3-1.49.64-2.69,1.98-4.94,3.75Zm-27.79,3.96c2.02,3.35,4.17,2.36,6,.49,3.46-3.55,3.44-5.51.18-9.48-2.1,3.06-4.16,6.05-6.17,8.99Zm40.24,13.49c-.18.62-.83,1.61-.64,2.4.65,2.74,4.95,4.64,7.06,3.21.46-.31.85-1.13.83-1.69-.13-3.9-3.83-6.07-7.25-3.91Zm22.47-37.04c2.26.95,3.93,2.3,5,1.92,1.2-.43,2.32-2.32,2.64-3.76.35-1.58-2.59-2.59-4.95-1.49-.93.44-1.46,1.75-2.69,3.33Zm-39.12-33.23c.5.75.89,1.8,1.64,2.35.68.5,1.75.45,2.65.65.08-.87.46-1.88.16-2.59-.36-.86-1.22-1.6-2.03-2.15-.44-.3-1.36-.33-1.79-.05-.39.25-.41,1.08-.64,1.79Zm65.72-7.91c.34-1.79.55-2.89.75-3.99-1.19-.15-2.47-.64-3.55-.36-1.33.34-2.17,1.71-1.06,2.91.7.76,2.12.83,3.86,1.43Zm16.39,2.55c-1.7-4.9-3.8-5.44-7.11-4.02,2.12,1.2,3.98,2.25,7.11,4.02Zm-65.16,68.44c-.19.15-.38.3-.57.45.17.21.31.5.54.6.1.05.37-.27.56-.42l-.52-.64Zm2.5-18.3c.15.19.28.46.48.55.1.04.34-.24.51-.37-.16-.19-.28-.45-.48-.55-.09-.04-.34.24-.51.37Zm71.12-43.91l-.74-.11.21.65.53-.54Z"/>
      <path class="cls-1" d="m152.24,36.63c.66-.12,1.32-.28,1.99-.35,6.36-.71,6.62-.97,7.07-7.2.12-1.67.27-3.34.41-5.08,5.64-2.21,12.78-2.47,12.31-11.04l-.1.19c.76-.41,1.51-.82,3.18-1.71-.89,5.39.31,10.02-4.7,13.47-1.99,1.37-2.13,5.48-3.39,9.13,3.27.57,5.98,1.05,9.24,1.62-.81,1.23-1.18,2.49-1.84,2.67-2.24.62-4.6,1.26-6.88,1.14-2.85-.16-4.98.16-7.27,2.33-1.42,1.34-4.35,1.06-6.61,1.5,0,0,.23.12.22.11-1.19-2.33-2.37-4.65-3.56-6.98,0,0-.08.19-.08.19Z"/>
      <path class="cls-1" d="m37.91,190.81c-.48,3.71,3.71,6.63,2.1,10.7-3.72-1.22-3.74-1.2-6.98-4.98.32-.47.8-1.39,1.48-2.12,1.14-1.23,2.41-2.35,3.63-3.51,0,0-.23-.09-.23-.09Z"/>
      <path class="cls-1" d="m185.83,1.7c1.6-.82,2.43-1.4,3.36-1.66.53-.15,1.2.21,1.81.33-.57.56-1.06,1.4-1.73,1.59-.81.23-1.77-.1-3.44-.26Z"/>
      <path class="cls-1" d="m152.32,36.44c-.95-1.95-3.81-2.86-3.12-5.77q2.6,1.41,3.05,5.94s.07-.18.07-.18Z"/>
      <path class="cls-1" d="m151.25,168.23c1.85-.31,3.7-.62,6.97-1.16q-3.22,2.32-6.89.94s-.08.22-.08.22Z"/>
      <path class="cls-1" d="m142.79,210.39c.62-.18,1.25-.52,1.86-.48.56.04,1.24.36,1.57.79.18.23-.2,1.32-.47,1.38-.53.12-1.27-.05-1.73-.38-.49-.35-.76-1.02-1.13-1.56,0,0-.09.24-.09.24Z"/>
      <path class="cls-1" d="m27.32,140.78c.13-.51.12-1.3.42-1.44.39-.19,1.02.14,1.55.25-.13.54-.25,1.08-.38,1.62-.53-.14-1.06-.28-1.59-.42Z"/>
      <polygon class="cls-1" points="142.34 240.13 142.89 239.82 142.86 240.45 142.34 240.13"/>
      <path class="cls-1" d="m18.07,278.57c.19-.14.43-.43.56-.39.23.07.4.35.6.54-.32.22-.64.45-.96.67-.07-.28-.14-.55-.21-.83Z"/>
      <path class="cls-1" d="m174.03,12.96c-.38-.39-.76-.78-1.15-1.17.25.13.58.19.73.39.19.26.22.63.32.96,0,0,.09-.18.1-.18Z"/>
      <path class="cls-1" d="m94.64,129.75c-.49.73-.95,1.5-1.5,2.18-.12.15-.84.06-.85.02-.07-.53-.22-1.49-.05-1.55.81-.31,1.71-.38,2.58-.53,0,0-.18-.12-.18-.12Z"/>
    </g>
  </g>
</svg>